<svg width="651" height="620" viewBox="0 0 651 620" fill="none" xmlns="http://www.w3.org/2000/svg">
<path d="M120.308 149.402C211.399 45.7529 367.789 28.5019 437.508 61.7949C464.598 74.6317 489.656 91.3766 511.881 111.494C514.793 114.094 517.623 116.768 520.37 119.515C528.948 127.964 536.993 136.939 544.459 146.386C553.407 157.687 561.477 169.656 568.6 182.188C578.806 200.021 586.891 218.987 592.689 238.699C596.525 251.632 599.043 264.921 600.203 278.362C602.192 303.595 600.463 329.062 597.07 354.087C596.758 356.479 596.42 358.871 596.056 361.263C595.965 361.926 595.874 362.563 595.77 363.252C592.039 388.173 586.761 413.315 574.97 435.051C562.1 458.802 517.198 524.699 468.5 526.402C443.241 527.299 420.933 510.802 398.04 499.102C361.64 480.538 320.443 476.898 280.273 475.819C240.103 474.74 199.439 475.897 160.296 465.939C121.153 455.981 82.7769 433.114 62.7699 395.102C55.9709 382.18 50.8099 363.564 50.7969 348.666C50.7969 304.713 57.9729 266.272 70.5049 232.875C74.4844 222.226 79.1258 211.836 84.4019 201.766C92.1299 187 101.236 172.998 111.598 159.945L120.308 149.402Z" fill="#B6B4A7" fill-opacity="0.06"/>
<path d="M50.7969 524.898H609.862" stroke="#263238" stroke-linecap="round" stroke-linejoin="round"/>
<path d="M481.045 336.297V336.44C481.045 336.674 481.097 336.921 481.201 337.181C481.782 340.03 482.216 342.906 482.501 345.8C482.748 348.283 482.943 351.117 482.995 354.276C483.118 361.577 482.618 368.874 481.5 376.09C481.214 377.988 480.876 379.99 480.473 381.992C479.836 385.294 479.056 388.752 478.094 392.327C477.665 393.991 477.171 395.694 476.651 397.41L476.04 399.503C475.806 400.348 475.572 401.193 475.351 402.103C473.856 407.878 472.663 413.728 471.776 419.627C470.671 426.972 469.982 434.265 469.605 441.168C469.098 450.372 469.124 458.874 469.345 465.868C469.338 465.985 469.338 466.102 469.345 466.219C469.579 473.33 470.021 478.907 470.32 482.079C470.489 483.938 470.606 484.991 470.619 485.056" stroke="#263238" stroke-linecap="round" stroke-linejoin="round"/>
<path d="M481.084 336.479C479.138 334.749 476.792 333.53 474.259 332.93L481.084 336.479Z" fill="white"/>
<path d="M481.084 336.479C479.138 334.749 476.792 333.53 474.259 332.93" stroke="#263238" stroke-linecap="round" stroke-linejoin="round"/>
<path d="M482.54 345.836L485.998 342.703" stroke="#263238" stroke-linecap="round" stroke-linejoin="round"/>
<path d="M478.133 392.338C477.952 391.426 477.682 390.533 477.327 389.673C476.814 388.412 476.118 387.233 475.26 386.176C474.619 385.382 473.891 384.662 473.089 384.031" stroke="#263238" stroke-linecap="round" stroke-linejoin="round"/>
<path d="M475.364 402.085C475.854 400.871 476.588 399.77 477.52 398.851C478.453 397.932 479.564 397.215 480.785 396.742" stroke="#263238" stroke-linecap="round" stroke-linejoin="round"/>
<path d="M469.358 450.445C470.515 449.041 471.386 443.724 471.854 440.864C471.971 440.188 472.062 439.564 472.153 439.188" fill="white"/>
<path d="M469.358 450.445C470.515 449.041 471.386 443.724 471.854 440.864C471.971 440.188 472.062 439.564 472.153 439.188" stroke="#263238" stroke-linecap="round" stroke-linejoin="round"/>
<path d="M460.453 460.1C460.837 460.061 461.225 460.061 461.61 460.1C463.312 460.265 464.938 460.891 466.312 461.91C467.686 462.929 468.757 464.303 469.41 465.885" fill="white"/>
<path d="M460.453 460.1C460.837 460.061 461.225 460.061 461.61 460.1C463.312 460.265 464.938 460.891 466.312 461.91C467.686 462.929 468.757 464.303 469.41 465.885" stroke="#263238" stroke-linecap="round" stroke-linejoin="round"/>
<path d="M480.512 382.092C480.512 382.092 481.123 360.993 469.54 353.336" stroke="#263238" stroke-linecap="round" stroke-linejoin="round"/>
<path d="M481.5 427.321C483.021 432.248 472.4 441.621 472.4 441.621C472.4 441.621 458.373 439.866 456.8 434.952C455.227 430.038 458.828 421.952 465.64 419.872C472.452 417.792 480.031 422.394 481.5 427.321Z" fill="#FFD800"/>
<path d="M493.317 367.617C492.017 372.817 481.929 376.548 481.929 376.548C481.929 376.548 475 368.449 476.3 363.223C477.6 357.997 483.203 352.251 487.909 353.46C492.615 354.669 494.669 362.391 493.317 367.617Z" fill="#FFD800"/>
<path d="M453.03 445.705C459.335 448.149 463.196 459.303 463.196 459.303C463.196 459.303 452.796 464.906 446.504 462.449C440.212 459.992 433.504 453.076 435.324 448.461C437.144 443.846 446.725 443.196 453.03 445.705Z" fill="#FFD800"/>
<path d="M466.849 384.335C468.125 385.408 469.588 386.236 471.165 386.779C471.956 387.035 472.803 387.069 473.612 386.876C474.422 386.683 475.162 386.272 475.754 385.687C477.054 384.14 476.742 381.787 475.897 379.85C474.207 376.145 467.993 369.84 463.222 371.647C456.332 374.286 463.781 382.086 466.849 384.335Z" fill="#FFD800"/>
<path d="M480.954 393.792C480.044 394.91 479.082 396.327 479.589 397.692C479.872 398.266 480.336 398.73 480.91 399.012C481.483 399.294 482.134 399.379 482.761 399.252C484.008 398.957 485.172 398.383 486.167 397.575C488.598 395.885 493.59 392.375 490.405 389.034C487.22 385.693 482.8 391.439 480.954 393.792Z" fill="#FFD800"/>
<path d="M460.609 346.64C460.084 346.671 459.582 346.865 459.174 347.197C458.766 347.528 458.472 347.979 458.334 348.486C458.126 349.695 459.127 350.748 460.089 351.489C462.507 353.361 469.774 358.379 471.386 353.53C472.92 348.954 463.807 346.289 460.609 346.64Z" fill="#FFD800"/>
<path d="M473.986 330.705C472.491 330.848 470.996 330.302 469.488 330.393C467.98 330.484 466.329 331.693 466.654 333.175C466.979 334.657 468.656 334.982 470.034 335.06C472.406 335.212 474.788 335.051 477.119 334.579C477.67 334.527 478.182 334.266 478.549 333.851C479.16 332.954 478.198 331.758 477.158 331.446C476.09 331.304 475.04 331.051 474.025 330.692L473.986 330.705Z" fill="#FFD800"/>
<path d="M488.624 341.017C490.119 341.017 491.575 340.419 493.083 340.406C494.591 340.393 496.333 341.498 496.086 343.006C495.839 344.514 494.227 344.943 492.849 345.112C490.493 345.424 488.107 345.424 485.751 345.112C485.193 345.1 484.662 344.871 484.269 344.475C483.606 343.63 484.49 342.369 485.491 341.979C486.551 341.782 487.584 341.463 488.572 341.03L488.624 341.017Z" fill="#FFD800"/>
<path d="M487.142 451.793C487.486 451.434 487.947 451.208 488.442 451.156C488.776 451.188 489.089 451.335 489.326 451.572C489.563 451.81 489.71 452.122 489.742 452.456C489.814 453.099 489.734 453.749 489.508 454.354C488.481 457.773 477.041 482.46 474.402 478.027C472.855 475.427 476.677 466.73 477.808 464.273C479.966 459.479 483.153 455.218 487.142 451.793Z" fill="#FFD800"/>
<path d="M481.565 337.898C481.565 337.898 480.876 331.905 482.319 331.398" stroke="#263238" stroke-linecap="round" stroke-linejoin="round"/>
<path d="M480.291 331.648C481.028 329.531 482.3 327.642 483.983 326.162C485.79 324.862 488.689 324.758 490.002 326.565C491.471 328.58 490.002 331.635 487.753 332.714C485.504 333.793 482.852 333.468 480.382 333.117C480.382 332.753 480.382 332.389 480.382 332.025L480.291 331.648Z" fill="#FFD800"/>
<path d="M486.453 524.583C474.198 526.65 461.684 526.65 449.429 524.583L435.025 482.086H500.857L486.453 524.583Z" fill="white" stroke="#263238" stroke-linecap="round" stroke-linejoin="round"/>
<path d="M235.215 217.555V217.698C235.267 217.932 235.319 218.179 235.371 218.439C235.96 221.286 236.394 224.163 236.671 227.058C236.918 229.541 237.1 232.375 237.165 235.534C237.298 242.816 236.811 250.096 235.709 257.296C235.423 259.194 235.085 261.196 234.682 263.198C234.045 266.5 233.252 269.958 232.303 273.533C231.861 275.197 231.38 276.9 230.86 278.616C230.652 279.318 230.444 280.007 230.249 280.709C230.054 281.411 229.768 282.399 229.547 283.309C228.054 289.084 226.86 294.934 225.972 300.833C224.867 308.178 224.191 315.471 223.814 322.374C223.307 331.578 223.32 340.08 223.554 347.074V347.425C223.801 354.536 224.23 360.113 224.542 363.298C224.698 365.144 224.828 366.197 224.828 366.262" stroke="#263238" stroke-linecap="round" stroke-linejoin="round"/>
<path d="M235.241 217.737C234.308 216.92 233.288 216.209 232.199 215.618C230.998 214.985 229.723 214.504 228.403 214.188" fill="white"/>
<path d="M235.241 217.737C234.308 216.92 233.288 216.209 232.199 215.618C230.998 214.985 229.723 214.504 228.403 214.188" stroke="#263238" stroke-linecap="round" stroke-linejoin="round"/>
<path d="M236.697 227.094L240.168 223.961" stroke="#263238" stroke-linecap="round" stroke-linejoin="round"/>
<path d="M232.303 273.596C232.117 272.683 231.843 271.791 231.484 270.931C230.971 269.67 230.275 268.491 229.417 267.434C228.776 266.64 228.048 265.92 227.246 265.289" stroke="#263238" stroke-linecap="round" stroke-linejoin="round"/>
<path d="M229.534 283.288C230.019 282.073 230.75 280.972 231.68 280.052C232.611 279.133 233.721 278.416 234.942 277.945" stroke="#263238" stroke-linecap="round" stroke-linejoin="round"/>
<path d="M223.515 331.703C224.672 330.299 225.556 324.982 226.024 322.122C226.128 321.446 226.232 320.822 226.31 320.445" fill="white"/>
<path d="M223.515 331.703C224.672 330.299 225.556 324.982 226.024 322.122C226.128 321.446 226.232 320.822 226.31 320.445" stroke="#263238" stroke-linecap="round" stroke-linejoin="round"/>
<path d="M214.61 341.295C214.999 341.256 215.391 341.256 215.78 341.295C217.481 341.465 219.105 342.092 220.478 343.111C221.852 344.129 222.924 345.501 223.58 347.08" fill="white"/>
<path d="M214.61 341.295C214.999 341.256 215.391 341.256 215.78 341.295C217.481 341.465 219.105 342.092 220.478 343.111C221.852 344.129 222.924 345.501 223.58 347.08" stroke="#263238" stroke-linecap="round" stroke-linejoin="round"/>
<path d="M234.669 263.303C234.669 263.303 235.293 242.204 223.697 234.547" stroke="#263238" stroke-linecap="round" stroke-linejoin="round"/>
<path d="M235.722 308.578C237.23 313.505 226.622 322.878 226.622 322.878C226.622 322.878 212.582 321.123 211.022 316.209C209.462 311.295 213.063 303.209 219.862 301.129C226.661 299.049 234.201 303.664 235.722 308.578Z" fill="#FFD800"/>
<path d="M247.5 248.867C246.2 254.067 236.112 257.798 236.112 257.798C236.112 257.798 229.105 249.699 230.457 244.473C231.809 239.247 237.347 233.501 242.053 234.71C246.759 235.919 248.8 243.641 247.5 248.867Z" fill="#FFD800"/>
<path d="M207.2 326.964C213.505 329.421 217.379 340.562 217.379 340.562C217.379 340.562 206.979 346.165 200.674 343.708C194.369 341.251 187.674 334.335 189.507 329.72C191.34 325.105 200.882 324.507 207.2 326.964Z" fill="#FFD800"/>
<path d="M221.019 265.6C222.29 266.673 223.749 267.502 225.322 268.044C226.113 268.301 226.96 268.334 227.769 268.142C228.579 267.949 229.319 267.538 229.911 266.952C231.211 265.405 230.899 263.052 230.054 261.115C228.364 257.41 222.163 251.105 217.379 252.912C210.502 255.525 217.938 263.325 221.019 265.6Z" fill="#FFD800"/>
<path d="M235.111 275.06C234.214 276.178 233.252 277.66 233.746 278.96C234.028 279.533 234.493 279.997 235.066 280.279C235.64 280.561 236.291 280.646 236.918 280.52C238.166 280.226 239.33 279.653 240.324 278.843C242.755 277.166 247.747 273.643 244.562 270.302C241.377 266.961 237.022 272.694 235.111 275.06Z" fill="#FFD800"/>
<path d="M214.766 227.898C214.241 227.931 213.74 228.126 213.333 228.457C212.925 228.788 212.63 229.238 212.491 229.744C212.283 230.953 213.284 232.006 214.259 232.747C216.677 234.619 223.931 239.637 225.556 234.788C227.077 230.212 217.977 227.547 214.766 227.898Z" fill="#FFD800"/>
<path d="M228.143 211.955C226.648 212.098 225.153 211.552 223.658 211.643C222.163 211.734 220.486 212.943 220.824 214.425C221.162 215.907 222.813 216.232 224.204 216.31C226.572 216.462 228.95 216.301 231.276 215.829C231.831 215.777 232.347 215.517 232.719 215.101C233.317 214.204 232.355 213.008 231.328 212.696C230.256 212.554 229.201 212.302 228.182 211.942L228.143 211.955Z" fill="#FFD800"/>
<path d="M242.781 222.267C244.289 222.267 245.745 221.669 247.24 221.656C248.735 221.643 250.49 222.748 250.256 224.256C250.022 225.764 248.384 226.193 247.006 226.362C244.65 226.674 242.264 226.674 239.908 226.362C239.35 226.35 238.819 226.121 238.426 225.725C237.763 224.88 238.647 223.619 239.661 223.229C240.72 223.028 241.753 222.709 242.742 222.28L242.781 222.267Z" fill="#FFD800"/>
<path d="M241.299 333.059C241.645 332.701 242.104 332.476 242.599 332.422C242.93 332.461 243.239 332.61 243.475 332.846C243.711 333.082 243.86 333.39 243.899 333.722C243.966 334.365 243.882 335.015 243.652 335.62C242.638 339.039 231.185 363.726 228.559 359.293C226.999 356.693 230.821 347.996 231.952 345.539C234.114 340.743 237.305 336.483 241.299 333.059Z" fill="#FFD800"/>
<path d="M235.722 219.18C235.722 219.18 235.033 213.187 236.489 212.68" stroke="#263238" stroke-linecap="round" stroke-linejoin="round"/>
<path d="M234.5 212.898C235.227 210.776 236.501 208.884 238.192 207.412C239.999 206.112 242.885 206.008 244.198 207.815C245.667 209.83 244.198 212.885 241.949 213.964C239.7 215.043 237.061 214.718 234.591 214.367C234.591 214.003 234.591 213.639 234.591 213.275L234.5 212.898Z" fill="#FFD800"/>
<path d="M70.5049 361.266V232.812" stroke="#263238" stroke-linecap="round" stroke-linejoin="round"/>
<path d="M471.555 361.266H455.682" stroke="#263238" stroke-linecap="round" stroke-linejoin="round"/>
<path d="M596.03 361.266H563.699" stroke="#263238" stroke-linecap="round" stroke-linejoin="round"/>
<path d="M454.226 166.121H511.517V111.547" stroke="#263238" stroke-linecap="round" stroke-linejoin="round"/>
<path d="M120.308 149.445H181.174V193.84H247.89" stroke="#263238" stroke-linecap="round" stroke-linejoin="round"/>
<path d="M84.4019 299.801V201.703" stroke="#263238" stroke-linecap="round" stroke-linejoin="round"/>
<path d="M111.598 159.125V236.007" stroke="#263238" stroke-linecap="round" stroke-linejoin="round"/>
<path d="M138.781 159.125V227.089" stroke="#263238" stroke-linecap="round" stroke-linejoin="round"/>
<path d="M165.964 159.125V278.01" stroke="#263238" stroke-linecap="round" stroke-linejoin="round"/>
<path d="M296.185 142.263V64.0938H406.854V142.263" stroke="#263238" stroke-linecap="round" stroke-linejoin="round"/>
<path d="M304.297 102.924V73.375H324.759" stroke="#263238" stroke-linecap="round" stroke-linejoin="round"/>
<path d="M329.257 102.924V73.375H349.719" stroke="#263238" stroke-linecap="round" stroke-linejoin="round"/>
<path d="M354.217 102.924V73.375H374.679" stroke="#263238" stroke-linecap="round" stroke-linejoin="round"/>
<path d="M379.177 102.924V73.375H399.639" stroke="#263238" stroke-linecap="round" stroke-linejoin="round"/>
<path d="M304.297 142.26V112.711H324.759" stroke="#263238" stroke-linecap="round" stroke-linejoin="round"/>
<path d="M329.257 142.26V112.711H349.719" stroke="#263238" stroke-linecap="round" stroke-linejoin="round"/>
<path d="M354.217 142.26V112.711H374.679" stroke="#263238" stroke-linecap="round" stroke-linejoin="round"/>
<path d="M379.177 142.26V112.711H399.639" stroke="#263238" stroke-linecap="round" stroke-linejoin="round"/>
<path d="M520.383 118.305V216.26" stroke="#263238" stroke-linecap="round" stroke-linejoin="round"/>
<path d="M560.566 354.086H563.699" stroke="#263238" stroke-linecap="round" stroke-linejoin="round"/>
<path d="M544.472 146.438V256.105" stroke="#263238" stroke-linecap="round" stroke-linejoin="round"/>
<path d="M568.574 326.086V354.088H587.801" stroke="#263238" stroke-linecap="round" stroke-linejoin="round"/>
<path d="M568.574 182.188V256.664" stroke="#263238" stroke-linecap="round" stroke-linejoin="round"/>
<path d="M592.663 238.703V354.091H597.044" stroke="#263238" stroke-linecap="round" stroke-linejoin="round"/>
<path d="M299.097 363.617H50.7969V524.895H299.097V363.617Z" fill="white" stroke="#263238" stroke-linecap="round" stroke-linejoin="round"/>
<path d="M50.7969 363.617L174.947 444.256L299.097 363.617H50.7969Z" fill="white" stroke="#263238" stroke-linecap="round" stroke-linejoin="round"/>
<path d="M137.624 420.016L50.7969 524.9" stroke="#263238" stroke-linecap="round" stroke-linejoin="round"/>
<path d="M212.946 420.016L299.773 524.9" stroke="#263238" stroke-linecap="round" stroke-linejoin="round"/>
<path d="M431.97 157.824H374.25C372.588 157.826 370.956 158.273 369.525 159.119C368.094 159.965 366.915 161.178 366.112 162.634C364.694 165.194 362.616 167.327 360.094 168.813C357.573 170.298 354.7 171.082 351.773 171.082C348.846 171.082 345.973 170.298 343.452 168.813C340.93 167.327 338.852 165.194 337.434 162.634C336.637 161.16 335.456 159.928 334.017 159.07C332.578 158.212 330.933 157.759 329.257 157.759H271.602C270.019 157.738 268.448 158.03 266.978 158.616C265.508 159.203 264.168 160.073 263.035 161.178C261.901 162.282 260.996 163.6 260.372 165.054C259.747 166.508 259.415 168.071 259.395 169.654V495.2C259.44 498.395 260.75 501.442 263.038 503.672C265.327 505.902 268.407 507.133 271.602 507.095H431.97C435.166 507.133 438.248 505.902 440.538 503.673C442.829 501.443 444.142 498.396 444.19 495.2V169.719C444.145 166.521 442.833 163.473 440.542 161.242C438.251 159.012 435.167 157.782 431.97 157.824Z" fill="#FFD800"/>
<path d="M449.819 166.116C449.826 163.923 449.4 161.751 448.565 159.723C447.731 157.695 446.504 155.851 444.956 154.298C443.408 152.745 441.568 151.513 439.543 150.672C437.518 149.831 435.346 149.398 433.153 149.398H270.432C268.244 149.397 266.077 149.826 264.055 150.662C262.033 151.498 260.196 152.725 258.648 154.271C257.101 155.818 255.873 157.654 255.035 159.676C254.197 161.697 253.766 163.863 253.766 166.051V508.198C253.766 512.615 255.521 516.851 258.644 519.974C261.767 523.097 266.002 524.851 270.419 524.851H433.153C437.571 524.851 441.808 523.097 444.933 519.975C448.058 516.852 449.816 512.616 449.819 508.198V166.116ZM444.19 495.198C444.142 498.395 442.829 501.442 440.538 503.671C438.248 505.901 435.167 507.132 431.97 507.093H271.602C268.407 507.132 265.327 505.901 263.039 503.671C260.75 501.44 259.44 498.394 259.395 495.198V169.717C259.415 168.135 259.747 166.572 260.372 165.117C260.996 163.663 261.901 162.346 263.035 161.241C264.168 160.137 265.508 159.266 266.978 158.68C268.448 158.093 270.019 157.802 271.602 157.822H329.283C330.957 157.822 332.6 158.275 334.038 159.133C335.475 159.992 336.653 161.223 337.447 162.697C338.865 165.257 340.943 167.391 343.465 168.876C345.986 170.362 348.86 171.145 351.786 171.145C354.713 171.145 357.586 170.362 360.107 168.876C362.629 167.391 364.707 165.257 366.125 162.697C366.926 161.24 368.104 160.025 369.536 159.179C370.967 158.333 372.6 157.887 374.263 157.887H431.983C433.566 157.867 435.137 158.158 436.607 158.745C438.077 159.331 439.417 160.202 440.55 161.306C441.684 162.411 442.589 163.728 443.213 165.182C443.838 166.637 444.17 168.2 444.19 169.782V495.198Z" fill="#263238"/>
<path opacity="0.2" d="M394.53 149.453L286.435 524.88L329.361 524.841L433.452 149.453H394.53Z" fill="white"/>
<path opacity="0.2" d="M378.41 149.453L264.127 524.893L270.38 524.854L382.518 149.453H378.41Z" fill="white"/>
<path d="M380.945 428.546C381.025 432.267 380.359 435.967 378.987 439.427C377.615 442.887 375.565 446.037 372.957 448.693C370.348 451.348 367.235 453.455 363.8 454.889C360.365 456.323 356.678 457.055 352.956 457.042C345.361 457.013 338.079 454.017 332.663 448.693C327.246 443.369 324.125 436.139 323.966 428.546C323.888 424.825 324.555 421.127 325.928 417.669C327.3 414.21 329.351 411.061 331.959 408.407C334.567 405.753 337.68 403.647 341.114 402.214C344.548 400.781 348.234 400.05 351.955 400.063C359.549 400.088 366.831 403.081 372.248 408.403C377.664 413.725 380.786 420.954 380.945 428.546Z" fill="white" stroke="#263238" stroke-linecap="round" stroke-linejoin="round"/>
<path d="M343.115 449.815C340.469 448.836 338.043 447.343 335.978 445.421C333.896 443.421 332.284 440.983 331.259 438.284C330.091 435.258 329.513 432.037 329.556 428.794C329.54 426.029 330.029 423.284 330.999 420.695C331.881 418.303 333.204 416.099 334.899 414.195C338.241 410.539 342.557 407.914 347.34 406.629C349.688 405.996 352.11 405.677 354.542 405.68C356.561 405.671 358.574 405.911 360.535 406.395C362.427 406.859 364.237 407.609 365.904 408.618C367.554 409.609 369.034 410.86 370.285 412.323C371.589 413.9 372.586 415.708 373.223 417.653C373.952 419.872 374.312 422.195 374.289 424.53C374.262 429.043 372.636 433.4 369.7 436.828C368.438 438.259 366.943 439.468 365.28 440.403C363.846 441.226 362.227 441.673 360.574 441.703C359.433 441.718 358.318 441.357 357.402 440.676C356.942 440.336 356.568 439.893 356.308 439.383C356.049 438.873 355.912 438.31 355.907 437.738C355.054 439.035 353.884 440.091 352.507 440.808C351.13 441.525 349.593 441.878 348.042 441.833C346.822 441.887 345.604 441.668 344.48 441.191C343.355 440.714 342.351 439.992 341.542 439.077C339.919 437.191 339.061 434.765 339.137 432.278C339.148 430.231 339.504 428.2 340.19 426.272C340.873 424.328 341.842 422.497 343.063 420.838C344.28 419.208 345.832 417.856 347.613 416.873C349.394 415.868 351.405 415.344 353.45 415.352C354.872 415.337 356.274 415.677 357.532 416.34C358.753 416.991 359.743 418.003 360.366 419.239L360.626 418.368C360.833 417.758 361.274 417.255 361.852 416.97C362.429 416.685 363.097 416.64 363.707 416.847C363.943 416.927 364.166 417.041 364.37 417.185C364.564 417.34 364.718 417.538 364.82 417.764C364.921 417.99 364.968 418.237 364.955 418.485C364.955 418.728 364.916 418.97 364.838 419.2L360.626 433.214C360.255 434.282 360.015 435.39 359.911 436.516C359.872 436.726 359.886 436.942 359.95 437.146C360.015 437.349 360.129 437.534 360.282 437.683C360.435 437.832 360.622 437.941 360.827 438.001C361.032 438.06 361.249 438.068 361.458 438.024C362.949 437.928 364.345 437.263 365.358 436.165C366.762 434.776 367.841 433.094 368.517 431.238C369.324 429.211 369.738 427.049 369.739 424.868C369.756 422.947 369.476 421.035 368.907 419.2C368.429 417.618 367.672 416.134 366.671 414.819C365.723 413.621 364.575 412.596 363.278 411.79C361.985 410.974 360.573 410.365 359.092 409.983C357.573 409.584 356.009 409.383 354.438 409.385C352.446 409.388 350.464 409.668 348.549 410.217C346.577 410.776 344.698 411.621 342.972 412.726C341.232 413.824 339.656 415.163 338.292 416.704C336.887 418.327 335.794 420.196 335.068 422.216C334.251 424.416 333.842 426.746 333.859 429.093C333.816 431.872 334.32 434.633 335.341 437.218C336.222 439.456 337.61 441.458 339.397 443.068C341.124 444.567 343.117 445.726 345.273 446.487C347.548 447.292 349.945 447.696 352.358 447.683C354.937 447.683 357.501 447.293 359.963 446.526C360.209 446.438 360.469 446.394 360.73 446.396C360.974 446.392 361.216 446.44 361.44 446.536C361.664 446.633 361.865 446.775 362.03 446.955C362.196 447.128 362.326 447.331 362.413 447.554C362.5 447.777 362.542 448.016 362.537 448.255C362.568 448.633 362.462 449.01 362.237 449.315C362.013 449.621 361.685 449.836 361.315 449.919C358.247 450.857 355.059 451.347 351.851 451.375C348.87 451.371 345.913 450.843 343.115 449.815ZM353.853 436.334C355.138 435.411 356.091 434.098 356.57 432.59L359.287 423.035L359.105 422.645C358.936 422.332 358.731 422.039 358.494 421.774C358.168 421.398 357.812 421.05 357.428 420.734C356.941 420.345 356.391 420.042 355.803 419.837C354.264 419.3 352.58 419.36 351.084 420.006C350.264 420.353 349.512 420.842 348.861 421.449C348.184 422.08 347.583 422.787 347.067 423.555C346.551 424.355 346.115 425.204 345.767 426.09C345.402 426.976 345.119 427.895 344.922 428.833C344.726 429.725 344.625 430.636 344.623 431.55C344.611 432.137 344.646 432.724 344.727 433.305C344.787 433.822 344.9 434.332 345.065 434.826C345.208 435.285 345.413 435.723 345.676 436.126C345.911 436.489 346.211 436.806 346.56 437.062C346.932 437.332 347.351 437.53 347.795 437.647C348.314 437.799 348.853 437.869 349.394 437.855C351.02 437.875 352.607 437.354 353.905 436.373L353.853 436.334Z" fill="#FFD800" stroke="#263238" stroke-linecap="round" stroke-linejoin="round"/>
<path d="M380.308 330.879C380.386 334.599 379.719 338.298 378.346 341.756C376.974 345.215 374.923 348.364 372.315 351.018C369.707 353.672 366.594 355.777 363.16 357.21C359.726 358.643 356.04 359.375 352.319 359.362C344.725 359.337 337.443 356.343 332.026 351.021C326.61 345.7 323.488 338.471 323.329 330.879C323.247 327.157 323.912 323.457 325.283 319.996C326.654 316.535 328.705 313.384 331.313 310.728C333.922 308.072 337.036 305.965 340.472 304.532C343.907 303.099 347.595 302.368 351.318 302.383C358.913 302.412 366.195 305.408 371.612 310.732C377.028 316.056 380.149 323.286 380.308 330.879Z" fill="white" stroke="#263238" stroke-linecap="round" stroke-linejoin="round"/>
<path d="M369.7 328.278C360.769 322.428 343.258 322.428 334.743 328.278C333.186 328.57 331.786 329.412 330.798 330.651C329.81 331.889 329.3 333.442 329.361 335.025C329.491 338.808 345.208 338.808 345.078 335.025C345.002 333.444 344.398 331.933 343.362 330.735C349.257 329.461 355.356 329.461 361.25 330.735C360.291 331.955 359.794 333.474 359.846 335.025C359.976 338.808 375.693 338.808 375.55 335.025C375.477 333.406 374.859 331.86 373.797 330.635C372.736 329.411 371.292 328.581 369.7 328.278Z" fill="#FFD800" stroke="#263238" stroke-linecap="round" stroke-linejoin="round"/>
<path d="M380.308 236C380.464 243.007 376.642 249.273 370.506 253.446V270.463L358.299 258.243C356.325 258.596 354.324 258.77 352.319 258.763C336.589 258.763 323.602 248.571 323.329 236C323.056 223.429 335.575 213.25 351.318 213.25C367.061 213.25 380.1 223.494 380.308 236Z" fill="white" stroke="#263238" stroke-linecap="round" stroke-linejoin="round"/>
<path d="M339.683 236.007C339.685 236.738 339.471 237.453 339.067 238.062C338.663 238.671 338.087 239.146 337.413 239.427C336.738 239.709 335.996 239.784 335.279 239.643C334.561 239.502 333.902 239.151 333.385 238.635C332.867 238.12 332.514 237.462 332.371 236.745C332.227 236.029 332.3 235.286 332.579 234.61C332.858 233.935 333.331 233.358 333.938 232.951C334.546 232.545 335.26 232.328 335.991 232.328C336.968 232.328 337.905 232.715 338.597 233.405C339.289 234.094 339.679 235.03 339.683 236.007Z" fill="#FFD800" stroke="#263238" stroke-linecap="round" stroke-linejoin="round"/>
<path d="M355.478 236.007C355.481 236.738 355.266 237.453 354.862 238.062C354.458 238.671 353.883 239.146 353.208 239.427C352.534 239.709 351.791 239.784 351.074 239.643C350.357 239.502 349.698 239.151 349.18 238.635C348.663 238.12 348.31 237.462 348.166 236.745C348.023 236.029 348.095 235.286 348.374 234.61C348.653 233.935 349.126 233.358 349.734 232.951C350.341 232.545 351.055 232.328 351.786 232.328C352.763 232.328 353.7 232.715 354.392 233.405C355.084 234.094 355.475 235.03 355.478 236.007Z" fill="#FFD800" stroke="#263238" stroke-linecap="round" stroke-linejoin="round"/>
<path d="M371.273 236.007C371.276 236.738 371.061 237.453 370.657 238.062C370.253 238.671 369.677 239.146 369.003 239.427C368.329 239.709 367.586 239.784 366.869 239.643C366.152 239.502 365.493 239.151 364.975 238.635C364.458 238.12 364.105 237.462 363.961 236.745C363.818 236.029 363.89 235.286 364.169 234.61C364.448 233.935 364.921 233.358 365.529 232.951C366.136 232.545 366.85 232.328 367.581 232.328C368.558 232.328 369.495 232.715 370.187 233.405C370.879 234.094 371.27 235.03 371.273 236.007Z" fill="#FFD800" stroke="#263238" stroke-linecap="round" stroke-linejoin="round"/>
<path d="M192.64 287.898C192.179 288.756 191.514 289.488 190.703 290.03C184.706 294.814 178.57 299.403 172.295 303.797C169.994 305.409 167.602 307.073 165.379 308.88C152.015 317.824 160.179 320.008 152.015 338.936C150.091 343.46 150.442 365.625 150.442 365.625H149.779C148.214 364.08 146.551 362.639 144.8 361.309C144.558 361.146 144.306 360.998 144.046 360.867C143.802 360.741 143.538 360.657 143.266 360.62C141.966 360.542 137.013 361.14 132.008 360.815L130.708 360.711C129.98 360.633 129.265 360.542 128.55 360.412C127.835 360.282 127.146 360.139 126.483 359.957C121.733 358.434 117.076 356.637 112.534 354.575L110.272 353.6L109.154 353.119L108.14 352.677L107.412 352.365L106.71 352.066C105.527 351.572 104.422 351.117 103.408 350.766C102.943 350.599 102.47 350.456 101.991 350.337C101.991 351.403 101.822 352.495 101.679 353.561C101.055 358.644 99.6641 363.337 97.1811 363.961C97.1299 363.974 97.0763 363.974 97.0251 363.961C96.8064 364.002 96.5846 364.023 96.3621 364.026H96.1671C95.617 364.015 95.0725 363.914 94.5551 363.727C92.3016 362.765 90.4601 361.039 89.3551 358.852C88.8613 357.93 88.5856 356.907 88.5491 355.862C88.5491 352.079 87.4961 329.758 87.4961 323.258C87.4961 316.758 88.7961 305.383 92.0331 301.158C93.2981 299.366 94.8958 297.835 96.7391 296.647C99.1109 294.67 101.831 293.153 104.76 292.175C108.218 291.044 115.953 288.158 121.348 286.117L113.197 289.263C115.264 292.799 119.697 298.363 127.692 299.078C135.206 299.715 139.86 292.916 142.239 287.95C142.447 288.028 155.525 285.545 158.554 285.688C168.421 286.117 176.468 280.774 180.108 278.655C181.206 277.999 182.438 277.599 183.712 277.486C184.986 277.373 186.269 277.55 187.465 278.002C188.662 278.455 189.74 279.172 190.621 280.1C191.501 281.027 192.16 282.142 192.549 283.361V283.478C193.118 284.891 193.15 286.463 192.64 287.898Z" fill="#FFD800" stroke="#263238" stroke-linecap="round" stroke-linejoin="round"/>
<path d="M142.096 288.021L141.498 287.812" stroke="#263238" stroke-linecap="round" stroke-linejoin="round"/>
<path d="M153.185 371.338C153.191 371.39 153.191 371.442 153.185 371.494C153.132 371.62 153.052 371.732 152.95 371.822C152.848 371.913 152.727 371.979 152.596 372.017C152.465 372.054 152.327 372.062 152.193 372.039C152.059 372.016 151.931 371.963 151.82 371.884C151.222 371.546 150.299 369.375 150.299 369.375L149.272 368.309L148.596 367.594C148.7 367.854 149.519 369.843 149.09 370.766C149.068 370.829 149.033 370.887 148.986 370.935C148.699 371.319 148.326 371.63 147.897 371.845C147.468 372.059 146.995 372.171 146.516 372.17C145.957 372.17 144.319 372.365 142.889 372.456H142.733C142.3 372.48 141.866 372.48 141.433 372.456C140.279 372.308 139.165 371.932 138.157 371.351C135.87 371.015 133.617 370.48 131.423 369.752L131.033 369.544L130.682 369.336C130.451 369.197 130.237 369.031 130.045 368.842C129.253 368.182 128.58 367.39 128.056 366.502C128.056 366.502 122.778 366.281 115.693 365.735C113.093 365.54 110.285 365.293 107.373 365.007C102.901 364.552 99.209 364.578 96.31 364.175H96.102C95.53 364.097 94.997 363.993 94.49 363.876C93.2527 363.634 92.1087 363.049 91.1889 362.186C90.2692 361.324 89.6111 360.22 89.29 359.001C89.1198 358.424 88.9809 357.838 88.874 357.246L91.136 353.346C92.315 352.4 93.6298 351.638 95.036 351.084C97.2178 350.171 99.627 349.949 101.939 350.447C102.418 350.566 102.891 350.709 103.356 350.876C104.37 351.266 105.475 351.721 106.658 352.176L107.373 352.475L108.101 352.787L109.115 353.229C114.9 355.621 121.803 358.702 126.418 360.002C127.804 360.365 129.217 360.617 130.643 360.756L131.943 360.86C136.948 361.185 141.888 360.587 143.201 360.665C144.514 360.743 147.725 363.798 149.779 365.683C150.338 366.203 150.832 366.632 151.17 366.892L151.326 367.022L151.443 367.126C152.188 367.89 152.709 368.843 152.951 369.882C153.053 370.23 153.123 370.587 153.159 370.948C153.183 371.077 153.191 371.208 153.185 371.338Z" fill="white" stroke="#263238" stroke-linecap="round" stroke-linejoin="round"/>
<path d="M153.185 371.341C153.192 371.393 153.192 371.446 153.185 371.497C153.131 371.622 153.05 371.733 152.948 371.822C152.845 371.911 152.724 371.976 152.593 372.012C152.462 372.048 152.325 372.055 152.191 372.031C152.057 372.007 151.931 371.954 151.82 371.874C151.178 371.128 150.664 370.28 150.299 369.365L149.272 368.312L148.596 367.61C148.687 367.818 149.532 369.846 149.103 370.782C149.082 370.846 149.046 370.904 148.999 370.951C148.855 371.143 148.69 371.318 148.505 371.471C147.945 371.922 147.248 372.169 146.529 372.173C145.957 372.173 144.332 372.355 142.915 372.459H142.733C142.3 372.484 141.866 372.484 141.433 372.459C140.286 372.306 139.179 371.936 138.17 371.367C135.884 371.025 133.631 370.486 131.436 369.755L131.059 369.573L130.708 369.365C130.484 369.218 130.271 369.052 130.071 368.871C129.268 368.206 128.586 367.405 128.056 366.505C128.056 366.505 122.934 366.284 115.992 365.751C113.392 365.556 110.389 365.296 107.373 364.997C103.265 364.594 99.8725 364.477 97.1295 364.048L96.2845 363.892L95.3095 363.671C95.0847 362.078 95.2497 360.455 95.7905 358.939C96.2944 357.661 97.0759 356.51 98.0785 355.571C99.0812 354.631 100.28 353.926 101.588 353.505C103.212 352.908 104.876 352.426 106.567 352.062L107.269 352.361L107.997 352.673L109.011 353.115C114.9 355.65 121.725 358.718 126.353 359.979C127.739 360.344 129.152 360.592 130.578 360.72L131.878 360.824C136.883 361.162 141.823 360.564 143.136 360.642C144.449 360.72 147.647 363.762 149.636 365.647C150.088 366.079 150.561 366.486 151.053 366.869L151.209 366.986L151.326 367.09C152.085 367.844 152.609 368.801 152.834 369.846C152.937 370.195 153.006 370.551 153.042 370.912C153.109 371.049 153.157 371.193 153.185 371.341Z" fill="white" stroke="#263238" stroke-linecap="round" stroke-linejoin="round"/>
<path d="M137.624 367.883C137.624 367.883 140.575 369.417 141.745 369.95C142.915 370.483 142.811 372.628 142.811 372.628" fill="white"/>
<path d="M137.624 367.883C137.624 367.883 140.575 369.417 141.745 369.95C142.915 370.483 142.811 372.628 142.811 372.628" stroke="#263238" stroke-linecap="round" stroke-linejoin="round"/>
<path d="M140.783 365.805C142.64 367.13 144.427 368.549 146.139 370.056C146.389 370.349 146.552 370.707 146.61 371.088C146.667 371.47 146.617 371.86 146.464 372.214" fill="white"/>
<path d="M140.783 365.805C142.64 367.13 144.427 368.549 146.139 370.056C146.389 370.349 146.552 370.707 146.61 371.088C146.667 371.47 146.617 371.86 146.464 372.214" stroke="#263238" stroke-linecap="round" stroke-linejoin="round"/>
<path d="M148.557 367.586C147.019 365.938 145.392 364.376 143.682 362.906L148.557 367.586Z" fill="white"/>
<path d="M148.557 367.586C147.019 365.938 145.392 364.376 143.682 362.906" stroke="#263238" stroke-linecap="round" stroke-linejoin="round"/>
<path d="M142.083 288.049C139.73 293.002 135.063 299.749 127.549 299.164C119.593 298.488 115.121 292.885 113.054 289.336C115.914 288.244 118.813 287.126 121.192 286.19C121.192 283.772 121.114 280.873 120.854 278C120.854 277.376 120.724 276.7 120.659 276.115C120.594 275.53 120.516 275.114 120.438 274.633H135.557C135.557 274.633 135.466 275.231 135.349 276.232C135.258 277.129 135.141 278.325 135.05 279.677C134.933 281.471 134.855 283.577 134.907 285.566C135.635 285.813 136.376 286.086 137.117 286.372L138.547 286.866C139.119 287.074 139.678 287.256 140.276 287.451L141.576 287.841C141.749 287.899 141.919 287.969 142.083 288.049Z" fill="white" stroke="#263238" stroke-linecap="round" stroke-linejoin="round"/>
<path d="M120.659 276.062C120.659 276.062 123.48 283.395 127.575 284.643C131.67 285.891 135.375 276.232 135.375 276.232C135.375 276.232 129.603 282.394 127.458 281.432C125.313 280.47 120.685 276.115 120.685 276.115" fill="#263238"/>
<path d="M118.228 235.572C114.408 239.011 111.378 243.238 109.349 247.961C107.49 251.861 105.917 256.346 107.347 260.428C108.203 262.455 109.413 264.312 110.922 265.914C113.73 269.281 117.669 278.68 120.477 282.047C120.659 276.054 115.641 266.369 116.174 261.338C116.82 257.451 118.098 253.696 119.957 250.223C121.848 245.667 124.321 241.376 127.315 237.457C129.018 235.403 134.491 231.75 128.966 231.308C125.3 231.009 120.997 233.297 118.228 235.572Z" fill="#263238" stroke="#263238" stroke-linecap="round" stroke-linejoin="round"/>
<path d="M114.692 256.003C114.692 256.003 112.755 252.246 110.714 255.808C109.245 258.408 111.364 262.503 112.274 264.024C112.576 264.456 112.985 264.804 113.461 265.032C113.937 265.259 114.465 265.36 114.991 265.324L114.692 256.003Z" fill="white" stroke="#263238" stroke-linecap="round" stroke-linejoin="round"/>
<path d="M140.146 269.572C138.904 272.027 137.285 274.273 135.349 276.228L134.179 277.437C131.761 279.829 129.148 281.727 127.432 281.337C125.937 281.038 123.987 279.504 122.076 277.541C121.595 277.06 121.127 276.54 120.659 276.02C118.578 273.744 116.792 271.215 115.342 268.493C114.939 267.472 114.681 266.4 114.575 265.308C114.247 262.052 114.134 258.777 114.237 255.506C114.237 254.349 114.237 253.426 114.237 252.906C114.237 250.644 122.713 242.779 122.713 242.779C122.941 242.695 123.187 242.668 123.428 242.701C124.886 242.966 126.291 243.467 127.588 244.183C132.723 246.679 139.886 251.632 140.406 253.517C141.199 256.26 140.9 267.128 140.146 269.572Z" fill="white" stroke="#263238" stroke-linecap="round" stroke-linejoin="round"/>
<path d="M123.311 259.154C123.311 260.064 122.973 260.805 122.596 260.805C122.219 260.805 121.842 260.09 121.842 259.154C121.842 258.218 122.18 257.477 122.596 257.477C123.012 257.477 123.311 258.244 123.311 259.154Z" fill="#263238"/>
<path d="M132.996 257.484C133.412 257.484 133.75 258.225 133.75 259.148C133.75 260.071 133.412 260.799 132.996 260.799C132.58 260.799 132.242 260.058 132.242 259.148C132.242 258.238 132.58 257.484 132.996 257.484Z" fill="#263238"/>
<path d="M118.475 255.059C118.475 255.059 119.775 252.459 124.377 253.252" stroke="#263238" stroke-linecap="round" stroke-linejoin="round"/>
<path d="M137.273 255.059C137.273 255.059 135.973 252.459 131.371 253.252" stroke="#263238" stroke-linecap="round" stroke-linejoin="round"/>
<path d="M128.758 265.501C129.226 265.471 129.672 265.293 130.03 264.991C130.388 264.689 130.639 264.279 130.747 263.824C130.747 263.824 128.225 259.924 128.992 256.102" stroke="#263238" stroke-linecap="round" stroke-linejoin="round"/>
<path d="M113.054 246.906C112.007 248.327 111.215 249.92 110.714 251.612" stroke="white" stroke-linecap="round" stroke-linejoin="round"/>
<path d="M123.922 236.5C123.922 236.5 122.479 238.892 116.122 243.767C115.712 244.063 115.322 244.384 114.952 244.729" stroke="white" stroke-linecap="round" stroke-linejoin="round"/>
<path d="M103.538 312.727C102.671 325.085 101.805 337.453 100.938 349.829V348.88" fill="#263238"/>
<path d="M103.538 312.727C102.671 325.085 101.805 337.453 100.938 349.829V348.88" stroke="#263238" stroke-linecap="round" stroke-linejoin="round"/>
<path d="M185.659 271.92C186.834 271.461 188.104 271.297 189.357 271.442C190.61 271.587 191.809 272.037 192.848 272.752C194.921 274.221 196.43 276.353 197.125 278.797C197.954 281.231 197.871 283.882 196.891 286.259C196.384 287.431 195.569 288.443 194.531 289.187C193.494 289.931 192.274 290.379 191.002 290.484C189.106 290.46 187.273 289.796 185.802 288.599C180.94 284.959 178.509 275.001 185.659 271.92Z" fill="white" stroke="#263238" stroke-linecap="round" stroke-linejoin="round"/>
<path d="M196.423 230.407C196.423 230.563 196.423 231.59 196.514 231.772C196.969 233.774 197.931 238.779 195.5 239.793C196.423 243.082 198.685 264.571 198.386 275.53C198.308 278.806 197.736 282.693 194.798 284.097C189.845 286.45 185.139 280.717 185.698 276.232C186.569 270.109 186.27 263.869 186.998 257.681C187.791 251.259 189.247 244.681 187.648 238.402C187.258 237.973 184.762 233.02 183.943 231.655C183.576 231.072 183.287 230.443 183.085 229.783C182.765 227.54 182.609 225.276 182.617 223.01C183.358 221.606 184.32 222.906 184.827 223.829C185.241 224.955 185.383 226.162 185.243 227.352C185.195 227.644 185.236 227.943 185.36 228.21C185.469 228.363 185.617 228.485 185.788 228.563C185.959 228.64 186.148 228.671 186.335 228.652C187.934 228.418 187.869 227.079 187.843 226.052C187.843 222.607 187.843 219.162 187.843 215.743C187.843 215.171 188.025 213.624 188.571 213.572C189.117 213.52 189.936 213.962 190.014 215.795C190.105 217.862 190.105 224.232 190.105 224.232C190.157 224.285 190.221 224.323 190.291 224.344C190.362 224.364 190.436 224.366 190.508 224.349C190.638 224.349 190.69 224.115 190.742 223.985C191.509 220.787 192.289 217.589 193.056 214.391C193.147 214.014 193.706 213.234 194.109 213.234C195.071 213.234 195.097 214.352 195.149 214.677C195.487 216.393 193.082 223.465 192.679 225.077C192.679 225.363 192.679 225.792 192.978 225.714L196.748 218.109C196.923 217.665 197.198 217.267 197.552 216.947C197.906 216.627 198.329 216.393 198.789 216.263C198.852 216.243 198.921 216.243 198.984 216.263C199.052 216.303 199.106 216.362 199.14 216.432C199.504 217.082 199.14 217.979 198.932 218.694C198.724 219.409 195.903 224.661 194.902 226.78C194.759 227.079 194.525 227.755 194.811 228.08C195.097 228.405 195.617 227.781 195.825 227.352C196.462 226.052 197.06 224.83 197.645 223.556C197.827 223.179 198.1 222.646 198.529 222.737C201.064 223.283 197.463 228.6 196.423 230.407Z" fill="white" stroke="#263238" stroke-linecap="round" stroke-linejoin="round"/>
<path d="M189.429 229.289C190.738 230.326 191.874 231.563 192.796 232.955C193.251 233.655 193.555 234.442 193.689 235.265C193.823 236.089 193.785 236.931 193.576 237.739C193.513 237.95 193.43 238.155 193.329 238.35" fill="white"/>
<path d="M189.429 229.289C190.738 230.326 191.874 231.563 192.796 232.955C193.251 233.655 193.555 234.442 193.689 235.265C193.823 236.089 193.785 236.931 193.576 237.739C193.513 237.95 193.43 238.155 193.329 238.35" stroke="#263238" stroke-linecap="round" stroke-linejoin="round"/>
<path d="M152.808 310.5C154.184 313.274 155.11 316.249 155.551 319.314C155.928 322.382 156.045 324.787 153.952 333.406" stroke="#263238" stroke-linecap="round" stroke-linejoin="round"/>
<path d="M123.467 240.833C123.289 241.364 123.244 241.931 123.337 242.484C123.584 243.179 124.037 243.783 124.637 244.213C128.792 247.854 133.44 250.891 138.443 253.235C139.071 253.398 139.614 253.79 139.968 254.333C140.322 254.877 140.459 255.533 140.354 256.173V266.222C140.418 267.258 140.317 268.298 140.055 269.303C139.327 271.643 137.715 273.528 136.545 275.686C135.356 277.732 134.753 280.067 134.803 282.433C134.478 279.95 143.162 275.14 145.515 265.364C145.84 263.986 152.6 255.783 148.544 246.15C144.644 236.907 138.508 232.929 136.441 232.448C135.038 232.038 133.557 231.968 132.122 232.243C130.686 232.519 129.337 233.133 128.186 234.034C125.914 235.726 124.257 238.113 123.467 240.833Z" fill="#263238" stroke="#263238" stroke-linecap="round" stroke-linejoin="round"/>
<path d="M131.982 269.008C131.241 269.164 130.487 269.307 129.733 269.398C127.133 269.723 124.351 269.32 122.648 267.422C122.778 269.125 123.948 275.56 127.445 275.742C130.942 275.924 131.982 269.008 131.982 269.008Z" stroke="#263238" stroke-linecap="round" stroke-linejoin="round"/>
<path d="M128.602 236.906C130.101 240.31 132.491 243.247 135.518 245.408C137.715 246.981 140.224 248.112 142.239 249.906C144.839 252.285 146.542 256.055 145.541 259.474" stroke="white" stroke-linecap="round" stroke-linejoin="round"/>
<path d="M155.772 289.43C153.267 291.44 151.618 294.325 151.157 297.503C150.709 300.249 151.047 303.066 152.132 305.628" stroke="#263238" stroke-linecap="round" stroke-linejoin="round"/>
<path d="M107.347 310.875C107.139 314.281 105.02 317.232 102.966 319.975L107.347 310.875Z" fill="#263238"/>
<path d="M107.347 310.875C107.139 314.281 105.02 317.232 102.966 319.975" stroke="#263238" stroke-linecap="round" stroke-linejoin="round"/>
<path d="M102.277 336.914C103.31 338.643 104.692 340.137 106.335 341.301C107.978 342.465 109.846 343.273 111.819 343.674" stroke="#263238" stroke-linecap="round" stroke-linejoin="round"/>
<path d="M152.015 338.945C152.015 338.945 148.518 344.145 136.636 345.237" stroke="#263238" stroke-linecap="round" stroke-linejoin="round"/>
<path d="M500.09 293.378C500.09 293.378 454.785 307.418 446.257 296.329L447.414 239.766H454.291L462.377 279.611L499.505 272.812C499.505 272.812 504.263 287.554 500.09 293.378Z" fill="white"/>
<mask id="mask0_2145_24932" style="mask-type:luminance" maskUnits="userSpaceOnUse" x="446" y="239" width="56" height="62">
<path d="M500.09 293.378C500.09 293.378 454.785 307.418 446.257 296.329L447.414 239.766H454.291L462.377 279.611L499.505 272.812C499.505 272.812 504.263 287.554 500.09 293.378Z" fill="white"/>
</mask>
<g mask="url(#mask0_2145_24932)">
<path d="M481.006 295.348C478.408 296.381 475.929 297.688 473.609 299.248C476.677 300.223 479.953 298.988 483.021 298.013C487.073 296.769 491.203 295.796 495.384 295.101C495.579 293.944 494.084 291.305 493.499 290.278C492.433 288.484 492.199 288.328 490.405 289.212C487.142 290.85 484.36 293.697 481.006 295.348Z" fill="#FFD800"/>
</g>
<path d="M500.09 293.378C500.09 293.378 454.785 307.418 446.257 296.329L447.414 239.766H454.291L462.377 279.611L499.505 272.812C499.505 272.812 504.263 287.554 500.09 293.378Z" stroke="#263238" stroke-linecap="round" stroke-linejoin="round"/>
<path d="M495.644 294.868L503.6 343.852C503.392 375.598 518.537 370.827 529.054 370.736C541.209 370.632 559.656 358.581 550.608 339.822L554.092 271.923L532.915 270.311C525.934 269.765 497.334 270.662 495.059 274.315C489.157 283.792 495.644 294.868 495.644 294.868Z" fill="white"/>
<mask id="mask1_2145_24932" style="mask-type:luminance" maskUnits="userSpaceOnUse" x="492" y="270" width="63" height="102">
<path d="M495.644 294.868L503.6 343.852C503.392 375.598 518.537 370.827 529.054 370.736C541.209 370.632 559.656 358.581 550.608 339.822L554.092 271.923L532.915 270.311C525.934 269.765 497.334 270.662 495.059 274.315C489.157 283.792 495.644 294.868 495.644 294.868Z" fill="white"/>
</mask>
<g mask="url(#mask1_2145_24932)">
<path d="M496.891 298.906C501.616 316.781 512.948 332.197 528.598 342.04C526.904 341.772 525.249 341.296 523.671 340.623C522.084 339.94 520.305 339.843 518.653 340.35C518.254 340.494 517.888 340.715 517.574 341.001C517.261 341.287 517.007 341.631 516.827 342.015C516.647 342.399 516.545 342.815 516.526 343.239C516.507 343.662 516.572 344.086 516.716 344.484C517.096 345.093 517.612 345.605 518.224 345.979C520.806 347.794 523.628 349.238 526.609 350.269C523.995 350.001 521.353 350.203 518.809 350.867C518.341 353.129 520.863 354.767 522.852 355.872C526.026 357.743 528.743 360.297 530.808 363.347C523.828 363.362 516.854 363.762 509.917 364.543C509.003 364.748 508.047 364.657 507.187 364.283C506.288 363.613 505.682 362.621 505.497 361.514C503.952 356.106 503.053 350.533 502.819 344.913C502.689 341.754 502.819 338.569 502.403 335.436C502.068 332.966 501.608 330.515 501.025 328.091C499.006 318.714 497.459 309.263 496.384 299.738C495.903 299.777 496.891 298.906 496.891 298.906Z" fill="#FFD800"/>
<path d="M550.594 295.006C548.841 294.444 547.206 293.562 545.771 292.406C546.174 294.356 549.086 297.723 550.789 298.763C551.14 298.984 551.647 299.166 551.959 298.867C552.271 298.568 552.479 297.801 552.791 297.567L550.594 295.006Z" fill="#FFD800"/>
</g>
<path d="M495.644 294.868L503.6 343.852C503.392 375.598 518.537 370.827 529.054 370.736C541.209 370.632 559.656 358.581 550.608 339.822L554.092 271.923L532.915 270.311C525.934 269.765 497.334 270.662 495.059 274.315C489.157 283.792 495.644 294.868 495.644 294.868Z" stroke="#263238" stroke-linecap="round" stroke-linejoin="round"/>
<path d="M511.127 269.303C508.848 273.476 507.751 278.191 507.955 282.94C507.952 283.355 508.031 283.766 508.189 284.149C508.774 285.306 510.373 285.306 511.66 285.449C516.665 286.086 519.772 291.364 524.491 293.132C524.656 293.234 524.84 293.302 525.032 293.331C525.225 293.36 525.421 293.35 525.609 293.301C525.797 293.253 525.973 293.167 526.128 293.048C526.282 292.93 526.41 292.782 526.506 292.612C528.56 290.012 529.288 286.359 532.096 284.682C533.318 283.954 534.865 283.655 535.71 282.511C536.672 281.211 536.243 279.339 535.775 277.753C535.008 275.153 534.15 272.449 532.161 270.642C530.042 268.988 527.439 268.075 524.751 268.042C520.817 267.72 516.857 268.09 513.051 269.134C513.103 269.628 511.127 269.303 511.127 269.303Z" fill="#FFD800" stroke="#263238" stroke-linecap="round" stroke-linejoin="round"/>
<path d="M574.047 302.541C570.87 297.914 568.529 292.766 567.131 287.331C566.622 284.608 565.829 281.945 564.765 279.388C563.761 277.412 562.312 275.697 560.532 274.377C558.752 273.057 556.69 272.169 554.508 271.783C553.577 271.578 552.608 271.623 551.7 271.913C549.815 272.628 548.983 274.799 548.606 276.775C547.79 281.019 548.031 285.399 549.308 289.528C550.179 292.336 560.644 312.694 567.508 320.585C566.91 316.607 571.486 303.308 574.047 302.541Z" fill="white"/>
<mask id="mask2_2145_24932" style="mask-type:luminance" maskUnits="userSpaceOnUse" x="548" y="271" width="27" height="50">
<path d="M574.047 302.541C570.87 297.914 568.529 292.766 567.131 287.331C566.622 284.608 565.829 281.945 564.765 279.388C563.761 277.412 562.312 275.697 560.532 274.377C558.752 273.057 556.69 272.169 554.508 271.783C553.577 271.578 552.608 271.623 551.7 271.913C549.815 272.628 548.983 274.799 548.606 276.775C547.79 281.019 548.031 285.399 549.308 289.528C550.179 292.336 560.644 312.694 567.508 320.585C566.91 316.607 571.486 303.308 574.047 302.541Z" fill="white"/>
</mask>
<g mask="url(#mask2_2145_24932)">
<path d="M553.52 298.543L559.942 310.646C560.865 312.375 561.905 314.221 563.699 314.975C562.57 310.976 561.928 306.856 561.788 302.703C561.858 300.616 561.617 298.531 561.073 296.515C560.813 296.736 560.54 295.8 560.54 295.8C560.254 296.333 559.5 296.346 558.915 296.229C554.716 295.345 551.83 291.601 549.334 288.117C549.009 289.284 548.957 290.511 549.183 291.701C549.408 292.891 549.905 294.014 550.634 294.981C550.634 294.981 553.312 298.14 553.52 298.543Z" fill="#FFD800"/>
</g>
<path d="M574.047 302.541C570.87 297.914 568.529 292.766 567.131 287.331C566.622 284.608 565.829 281.945 564.765 279.388C563.761 277.412 562.312 275.697 560.532 274.377C558.752 273.057 556.69 272.169 554.508 271.783C553.577 271.578 552.608 271.623 551.7 271.913C549.815 272.628 548.983 274.799 548.606 276.775C547.79 281.019 548.031 285.399 549.308 289.528C550.179 292.336 560.644 312.694 567.508 320.585C566.91 316.607 571.486 303.308 574.047 302.541Z" stroke="#263238" stroke-linecap="round" stroke-linejoin="round"/>
<path d="M565.025 317.095C558.031 303.692 561.411 272.804 561.203 267.838L570.433 267.344C571.356 267.344 575.633 293.682 578.545 304.615C581.145 314.573 578.649 324.648 574.047 324.648C570.225 324.648 566.494 319.916 565.025 317.095Z" fill="white" stroke="#263238" stroke-linecap="round" stroke-linejoin="round"/>
<path d="M481.682 282.306C488.182 272.816 500.935 272.062 500.935 272.062" stroke="#263238" stroke-linecap="round" stroke-linejoin="round"/>
<path d="M456.605 287.617C458.571 285.811 460.112 283.591 461.116 281.117L456.605 287.617Z" fill="white"/>
<path d="M456.605 287.617C458.571 285.811 460.112 283.591 461.116 281.117" stroke="#263238" stroke-linecap="round" stroke-linejoin="round"/>
<path d="M504.9 332.469C508.605 338.54 532.603 345.027 542.171 343.636" stroke="#263238" stroke-linecap="round" stroke-linejoin="round"/>
<path d="M511.686 349.605C518.598 350.795 525.683 350.525 532.486 348.812" stroke="#263238" stroke-linecap="round" stroke-linejoin="round"/>
<path d="M543.523 290.695L548.099 296.896C548.723 297.741 549.594 298.69 550.621 298.456" stroke="#263238" stroke-linecap="round" stroke-linejoin="round"/>
<path d="M577.53 525.926C577.127 527.577 576.997 529.54 578.18 530.775C579.363 532.01 581.079 531.984 582.678 531.958L588.178 531.854C590.298 531.96 592.418 531.628 594.405 530.879C595.398 530.493 596.249 529.811 596.842 528.925C597.435 528.039 597.741 526.992 597.719 525.926C597.584 525.102 597.321 524.304 596.939 523.56C596.445 522.494 595.952 521.415 595.471 520.349C589.4 506.972 580.13 515.11 577.53 525.926Z" fill="white" stroke="#263238" stroke-linecap="round" stroke-linejoin="round"/>
<path d="M569.783 510.156C569.975 516.296 569.46 522.438 568.249 528.46C567.963 529.825 568.249 531.892 569.549 531.762C570.058 531.684 570.521 531.42 570.849 531.021C575.627 526.308 579.044 520.393 580.742 513.9C580.997 513.226 581.116 512.507 581.091 511.786C581.067 511.065 580.899 510.357 580.599 509.701C580.242 509.175 579.803 508.709 579.299 508.323C574.892 504.8 569.38 501.303 569.783 510.156Z" fill="white" stroke="#263238" stroke-linecap="round" stroke-linejoin="round"/>
<path d="M554.69 353.023C554.69 353.023 561.541 364.931 563.01 367.7C564.479 370.469 595.51 411.25 601.464 440.942C602.582 446.584 579.689 509.686 579.689 509.686L574.489 506.748C574.489 506.748 578.103 449.197 577.219 444.413C576.335 439.629 553.494 404.321 553.494 404.321C553.494 404.321 540.741 394.948 535.489 384.054L554.69 353.023Z" fill="#263238"/>
<path d="M555.431 382.851C555.431 382.851 551.531 391.535 551.531 392.783C551.531 394.031 572.981 461.813 579.286 477.491C583.273 487.588 586.787 497.918 589.829 508.483C589.829 508.483 592.273 511.694 590.427 514.983C588.581 518.272 581.236 520.43 579.728 517.492C578.22 514.554 563.361 499.292 557.095 484.108C550.829 468.924 542.015 443.548 536.997 434.097C530.424 422.02 524.59 409.557 519.525 396.774C513.22 380.641 506.772 363.247 506.772 363.247C509.391 363.483 512.022 363.557 514.65 363.468C520.838 363.257 526.966 362.172 532.85 360.244C546.552 355.642 552.48 346.828 552.48 346.828C552.48 346.828 555.873 356.019 556.757 357.8L555.431 382.851Z" fill="#263238"/>
<path d="M599.176 446.75C597.833 449.051 596.027 451.047 593.872 452.613" stroke="white" stroke-linecap="round" stroke-linejoin="round"/>
<path d="M600.853 442.969C600.658 443.602 600.423 444.223 600.151 444.828" stroke="white" stroke-linecap="round" stroke-linejoin="round"/>
<path d="M543.042 362.602C546.5 368.556 549.737 377.123 549.217 383.987C548.938 385.233 548.501 386.439 547.917 387.575" stroke="white" stroke-linecap="round" stroke-linejoin="round"/>
<path d="M522.112 369.227C522.489 372.542 522.996 378.054 522.268 381.304C521.653 384.628 519.746 387.573 516.964 389.494" stroke="white" stroke-linecap="round" stroke-linejoin="round"/>
<path d="M551.596 356.672C552.351 357.613 552.964 358.66 553.416 359.779C554.296 361.386 555.506 362.789 556.967 363.896C558.428 365.003 560.106 365.788 561.892 366.201" stroke="white" stroke-linecap="round" stroke-linejoin="round"/>
<path d="M540.559 369.969C545.148 380.005 548.658 390.067 555.782 407.123" stroke="white" stroke-linecap="round" stroke-linejoin="round"/>
<path d="M538.115 364.828C538.505 365.608 538.882 366.388 539.259 367.168" stroke="white" stroke-linecap="round" stroke-linejoin="round"/>
<path d="M576.309 441.609C578.412 445.663 581.087 449.393 584.252 452.685" stroke="white" stroke-linecap="round" stroke-linejoin="round"/>
<path d="M578.48 445.344C579.857 451.705 582.372 457.765 585.903 463.232" stroke="white" stroke-linecap="round" stroke-linejoin="round"/>
<path d="M546.161 445.681C536.034 424.075 525.231 402.638 511.958 369.969" stroke="white" stroke-linecap="round" stroke-linejoin="round"/>
<path d="M548.45 451.947C548.203 451.193 547.943 450.439 547.67 449.672" stroke="white" stroke-linecap="round" stroke-linejoin="round"/>
<path d="M583.459 518.377C580.859 514.984 561.905 488.477 557.199 476.465C554.066 468.457 551.7 462.802 549.399 454.82" stroke="white" stroke-linecap="round" stroke-linejoin="round"/>
<path d="M576.309 467.375L585.318 493.856" stroke="white" stroke-linecap="round" stroke-linejoin="round"/>
<path d="M570.238 267.365L567.508 267.586C564.048 268.201 560.495 268.036 557.108 267.105C554.937 266.572 549.906 265.012 549.308 264.908C547.813 264.588 546.303 264.345 544.784 264.18C540.195 263.907 542.522 262.191 544.433 262.269C546.955 262.386 547.8 262.334 549.737 262.477C549.503 262.347 548.788 262.204 548.775 261.645C548.775 260.28 550.569 260.345 550.569 260.345C550.569 260.345 548.606 259.513 548.879 258.486C549.152 257.459 550.465 257.186 551.297 257.264C551.297 257.264 550.192 256.731 550.244 256.159C550.478 253.949 555.015 253.793 555.015 253.793C553.917 253.303 552.89 252.669 551.96 251.908C551.62 251.543 551.382 251.094 551.271 250.608C551.246 250.376 551.285 250.142 551.382 249.931C551.479 249.719 551.631 249.537 551.822 249.404C552.013 249.271 552.237 249.192 552.469 249.175C552.702 249.158 552.934 249.204 553.143 249.308C554.316 250.09 555.449 250.931 556.536 251.83C557.94 252.831 559.565 253.468 561.047 254.365C562.491 255.601 563.656 257.13 564.466 258.85C564.7 259.214 570.238 267.365 570.238 267.365Z" fill="white" stroke="#263238" stroke-linecap="round" stroke-linejoin="round"/>
<path d="M447.414 239.766V232.603C447.397 229.009 447.923 225.433 448.974 221.995C449.572 220.097 450.274 218.446 450.911 218.199C452.094 217.77 452.614 222.567 452.614 222.567C451.725 218.721 451.155 214.808 450.911 210.867C450.911 206.694 456.527 224.023 456.527 224.023L454.291 239.766H447.414Z" fill="white" stroke="#263238" stroke-linecap="round" stroke-linejoin="round"/>
<path d="M454.2 228.117C454.879 227.592 455.386 226.877 455.656 226.062L454.2 228.117Z" fill="white"/>
<path d="M454.2 228.117C454.879 227.592 455.386 226.877 455.656 226.062" stroke="#263238" stroke-linecap="round" stroke-linejoin="round"/>
<path d="M508.644 254.696C511.072 258.784 512.415 263.424 512.544 268.177C512.778 276.081 521.93 287.144 524.543 287.677C527.156 288.21 529.574 275.197 529.457 271.258C529.34 267.319 527.884 256.438 527.884 256.438C527.884 256.438 515.365 246.974 508.644 254.696Z" fill="white" stroke="#263238" stroke-linecap="round" stroke-linejoin="round"/>
<path d="M512.323 265.171C512.323 265.171 524.322 281.538 529.028 264.898C533.734 248.258 515.833 269.448 512.323 265.171Z" fill="#263238"/>
<path d="M532.577 253.406C531.94 263.117 527.507 268.577 522.398 269.539C517.731 270.397 510.906 265.639 507.5 258.58C507.24 258.411 503.093 255.538 502.105 254.836C501.589 254.475 501.168 253.994 500.878 253.435C500.588 252.876 500.438 252.255 500.441 251.625C500.474 251.02 500.687 250.44 501.053 249.958C501.42 249.476 501.922 249.115 502.495 248.921H502.612C503.197 248.793 503.807 248.838 504.367 249.051C503.509 245.736 502.807 242.369 502.274 238.976C502.521 231.176 505.108 224.806 513.428 224.182C521.748 223.558 528.703 228.212 529.028 231.566C529.262 234.166 530.107 241.043 530.861 248.154C531.069 250 532.72 251.222 532.577 253.406Z" fill="white" stroke="#263238" stroke-linecap="round" stroke-linejoin="round"/>
<path d="M529.028 242.169C529.028 242.169 523.672 239.712 524.582 247.694C524.764 249.267 527.689 251.594 527.689 251.594C527.689 251.594 526.935 253.947 525.544 253.947" fill="white"/>
<path d="M529.028 242.169C529.028 242.169 523.672 239.712 524.582 247.694C524.764 249.267 527.689 251.594 527.689 251.594C527.689 251.594 526.935 253.947 525.544 253.947" stroke="#263238" stroke-linecap="round" stroke-linejoin="round"/>
<path d="M518.68 244.901C518.68 244.901 515.95 243.237 514.078 244.264C513.101 244.689 512.27 245.389 511.686 246.279" fill="white"/>
<path d="M518.68 244.901C518.68 244.901 515.95 243.237 514.078 244.264C513.101 244.689 512.27 245.389 511.686 246.279" stroke="#263238" stroke-linecap="round" stroke-linejoin="round"/>
<path d="M517.12 249.497C517.328 250.459 517.12 251.317 516.561 251.434C516.002 251.551 515.456 250.849 515.261 249.887C515.066 248.925 515.261 248.067 515.833 247.95C516.405 247.833 516.925 248.522 517.12 249.497Z" fill="#263238"/>
<path d="M527.676 246.693C527.884 247.655 527.676 248.513 527.117 248.63C526.558 248.747 526.012 248.045 525.817 247.096C525.622 246.147 525.817 245.263 526.376 245.159C526.935 245.055 527.481 245.744 527.676 246.693Z" fill="#263238"/>
<path d="M501.65 228.895C500.699 229.827 500.039 231.015 499.752 232.314C498.973 235.063 498.748 237.939 499.089 240.775C499.431 243.612 500.332 246.352 501.741 248.837C502.607 248.731 503.485 248.766 504.341 248.941C505.251 249.175 506.421 250.735 506.85 251.541C507.226 252.401 507.442 253.321 507.487 254.258C507.279 251.788 507.084 249.331 506.876 246.861C506.736 245.874 506.78 244.869 507.006 243.897C507.643 241.869 506.941 237.085 507.123 232.808C512.518 239.399 520.357 238.229 522.957 238.008C526.857 237.683 530.185 233.692 529.977 230.845C529.769 227.998 529.002 220.666 516.145 219.912C513.312 219.611 510.456 220.207 507.981 221.615C507.196 222.132 506.529 222.81 506.025 223.603C505.521 224.396 505.191 225.287 505.056 226.217C504.874 227.413 505.329 227.517 504.419 228.102C503.509 228.687 502.547 228.128 501.65 228.895Z" fill="#263238" stroke="#263238" stroke-linecap="round" stroke-linejoin="round"/>
<path d="M518.68 258.523C518.68 258.523 520.591 260.629 524.582 259.238L518.68 258.523Z" fill="white"/>
<path d="M518.68 258.523C518.68 258.523 520.591 260.629 524.582 259.238" stroke="#263238" stroke-linecap="round" stroke-linejoin="round"/>
</svg>
