<svg width="562" height="559" viewBox="0 0 562 559" fill="none" xmlns="http://www.w3.org/2000/svg">
<path d="M69.5712 0H68.3359V167.418H69.5712V0Z" fill="#C7C7C7"/>
<path d="M127.086 223.463L122.417 233.74H15.4783L10.8213 223.463L56.3415 191.951H81.566L127.086 223.463Z" fill="#EBEBEB"/>
<path d="M84.7278 161.587L81.5655 191.951H56.341L53.1787 161.587H84.7278Z" fill="#DBDBDB"/>
<path d="M127.086 223.463L122.404 233.74H15.478L10.8086 223.463H127.086Z" fill="#DBDBDB"/>
<path d="M194.396 0H193.161V134.263H194.396V0Z" fill="#C7C7C7"/>
<path d="M251.911 190.295L247.242 200.585H140.303L135.646 190.295L181.167 158.783H206.391L251.911 190.295Z" fill="#EBEBEB"/>
<path d="M209.553 128.432L206.391 158.783H181.166L178.004 128.432H209.553Z" fill="#DBDBDB"/>
<path d="M251.911 190.308L247.229 200.585H140.303L135.634 190.308H251.911Z" fill="#DBDBDB"/>
<path d="M32.0683 275.888L19.8761 295.541L25.929 299.247C26.7773 299.799 27.4569 300.574 27.8928 301.487C28.3287 302.401 28.5041 303.417 28.3995 304.423C28.3004 305.544 28.2633 306.67 28.2884 307.795C28.323 308.82 28.0736 309.834 27.5678 310.726C27.0621 311.617 26.3196 312.352 25.4225 312.848L19.2461 316.195L30.2154 336.627L36.3918 333.279C37.2706 332.808 38.2621 332.588 39.2578 332.642C40.2535 332.696 41.215 333.024 42.0371 333.588C43.046 334.293 44.0935 334.94 45.1747 335.528C46.0529 336.011 46.7792 336.729 47.2723 337.602C47.7654 338.474 48.0057 339.467 47.9664 340.469L47.7441 347.547L70.8686 348.263L71.0786 341.16C71.1111 340.157 71.4217 339.182 71.9757 338.344C72.5296 337.507 73.3053 336.84 74.2162 336.417C74.7597 336.158 75.2909 335.886 75.8221 335.602C76.3532 335.318 76.8721 335.021 77.3785 334.712C78.2311 334.188 79.2125 333.91 80.2135 333.91C81.2145 333.91 82.1959 334.188 83.0485 334.712L89.1137 338.418L101.294 318.765L95.2284 314.997C94.379 314.446 93.6987 313.671 93.2626 312.758C92.8266 311.844 92.6519 310.828 92.7578 309.821C92.8567 308.704 92.8938 307.583 92.869 306.461C92.8356 305.436 93.0868 304.421 93.5948 303.529C94.1028 302.637 94.8478 301.903 95.7472 301.409L101.924 298.061L90.9913 277.679L84.7408 281.027C83.8341 281.501 82.8133 281.714 81.7925 281.642C80.7716 281.57 79.7909 281.216 78.9597 280.619C78.0332 279.977 77.0697 279.384 76.0938 278.853C75.1941 278.384 74.4432 277.672 73.926 276.799C73.4087 275.926 73.1456 274.926 73.1662 273.912L73.4503 266.821L50.3382 266.092L50.1158 273.195C50.0741 274.209 49.7518 275.192 49.1848 276.034C48.6177 276.876 47.8282 277.544 46.9041 277.963C46.3853 278.198 45.8788 278.457 45.3723 278.729C44.8659 279.001 44.3718 279.285 43.89 279.582C43.0224 280.115 42.024 280.397 41.0056 280.397C39.9873 280.397 38.9889 280.115 38.1212 279.582L32.0683 275.888ZM49.5352 291.799C52.7521 289.491 56.611 288.248 60.5701 288.246C64.5291 288.244 68.3895 289.481 71.6091 291.785C74.8287 294.089 77.2457 297.344 78.5208 301.092C79.7959 304.84 79.8651 308.894 78.7185 312.683C77.5719 316.472 75.2673 319.808 72.1281 322.22C68.989 324.633 65.173 326.001 61.2162 326.134C57.2593 326.266 53.3603 325.156 50.0667 322.96C46.773 320.763 44.2501 317.59 42.8524 313.885C41.3793 309.982 41.2358 305.701 42.4441 301.707C43.6525 297.714 46.1451 294.231 49.5352 291.799Z" fill="#EBEBEB"/>
<path d="M539.151 83.9993C538.634 83.6959 538.21 83.2545 537.929 82.7245C537.648 82.1944 537.519 81.5965 537.558 80.9976C537.558 80.6641 537.558 80.3305 537.558 79.997C537.558 79.6635 537.558 79.3176 537.558 78.9841C537.519 78.3852 537.648 77.7873 537.929 77.2572C538.21 76.7271 538.634 76.2857 539.151 75.9823L542.771 73.8947L535.977 62.0978L532.308 64.2348C531.787 64.5341 531.192 64.6811 530.592 64.6593C529.991 64.6375 529.409 64.4476 528.911 64.1113C528.343 63.753 527.762 63.4072 527.157 63.0983C526.622 62.83 526.172 62.4192 525.856 61.9114C525.54 61.4035 525.37 60.8183 525.366 60.2201V56.0078H511.778V60.1707C511.763 60.7633 511.586 61.3405 511.266 61.8394C510.945 62.3382 510.494 62.7395 509.962 62.9995C509.356 63.3083 508.726 63.6542 508.208 64.0124C507.71 64.3488 507.127 64.5386 506.527 64.5605C505.926 64.5823 505.332 64.4352 504.811 64.136L501.191 62.0483L494.385 73.8453L498.017 75.9453C498.545 76.2477 498.976 76.6938 499.26 77.2318C499.544 77.7698 499.67 78.3775 499.622 78.9841C499.622 79.3176 499.622 79.6511 499.622 79.9847C499.622 80.3182 499.622 80.6517 499.622 80.9852C499.662 81.5874 499.533 82.1887 499.249 82.7213C498.966 83.254 498.539 83.6966 498.017 83.9993L494.385 86.087L501.191 97.8839L504.798 95.7963C505.319 95.498 505.913 95.3504 506.512 95.3701C507.112 95.3897 507.695 95.5758 508.195 95.9075C508.764 96.2828 509.354 96.6251 509.962 96.9328C510.495 97.2017 510.943 97.6129 511.257 98.1209C511.571 98.6289 511.738 99.2138 511.74 99.811V103.974H525.329V99.7986C525.333 99.2005 525.503 98.6152 525.819 98.1073C526.135 97.5995 526.585 97.1888 527.12 96.9204C527.726 96.61 528.316 96.2678 528.886 95.8951C529.384 95.5631 529.965 95.3768 530.563 95.3572C531.161 95.3375 531.752 95.4853 532.271 95.7839L535.89 97.8716L542.684 86.0746L539.151 83.9993ZM518.596 91.1516C516.397 91.1516 514.248 90.4996 512.42 89.278C510.591 88.0564 509.166 86.32 508.325 84.2886C507.484 82.2571 507.263 80.0217 507.692 77.8651C508.121 75.7086 509.18 73.7276 510.735 72.1728C512.29 70.618 514.271 69.5591 516.427 69.1301C518.584 68.7012 520.819 68.9213 522.851 69.7628C524.882 70.6043 526.619 72.0292 527.84 73.8575C529.062 75.6858 529.714 77.8352 529.714 80.0341C529.712 81.4961 529.422 82.9435 528.861 84.2934C528.299 85.6432 527.476 86.869 526.44 87.9005C525.404 88.932 524.175 89.7491 522.822 90.3048C521.47 90.8606 520.021 91.1441 518.559 91.1393L518.596 91.1516Z" fill="#EBEBEB"/>
<path d="M232.703 393.883C232.219 393.599 231.817 393.195 231.535 392.711C231.254 392.226 231.103 391.676 231.097 391.116C231.097 390.56 231.097 390.016 231.097 389.46C231.037 388.903 231.07 388.339 231.196 387.793C231.332 387.246 231.614 386.747 232.011 386.347C232.43 385.98 232.895 385.669 233.394 385.421L236.273 383.741V383.803L229.404 372.043H229.565L225.785 374.266C225.089 374.613 224.295 374.709 223.537 374.538C222.823 374.316 222.145 373.991 221.523 373.575L220.584 373.043C220.238 372.863 219.925 372.625 219.658 372.339C219.11 371.77 218.778 371.027 218.719 370.239V365.854L219.003 366.138L205.415 366.262L205.835 365.854V370.252C205.796 370.883 205.596 371.493 205.255 372.025C204.913 372.557 204.441 372.993 203.883 373.291L202.957 373.846L202.03 374.39C201.672 374.615 201.28 374.782 200.869 374.884C200.037 375.067 199.168 374.967 198.399 374.6L194.569 372.413L195.311 372.216L188.554 384.037L188.331 383.21L192.161 385.409C192.699 385.778 193.137 386.278 193.432 386.86C193.728 387.443 193.873 388.091 193.853 388.744V389.831V390.906C193.86 391.324 193.802 391.741 193.68 392.141C193.423 392.975 192.886 393.695 192.161 394.179L188.331 396.378L188.541 395.6L195.286 407.421L194.594 407.236L198.436 405.074C199.207 404.713 200.077 404.622 200.906 404.815C201.303 404.919 201.682 405.081 202.03 405.297L202.969 405.853L203.896 406.396C204.255 406.594 204.581 406.848 204.859 407.15C205.416 407.758 205.747 408.538 205.798 409.361V413.771L205.465 413.437L219.053 413.573L218.855 413.771V409.385C218.914 408.617 219.237 407.892 219.769 407.335C220.33 406.843 220.953 406.428 221.622 406.1C222.239 405.695 222.908 405.375 223.611 405.148C224.347 404.972 225.122 405.064 225.797 405.408L229.59 407.607H229.503L236.347 395.834L232.703 393.883ZM232.703 393.883L236.322 395.958L229.565 407.767V407.829L225.76 405.667C225.115 405.355 224.382 405.276 223.685 405.445C222.972 405.66 222.297 405.985 221.684 406.408C221.04 406.735 220.445 407.151 219.917 407.644C219.439 408.161 219.155 408.83 219.114 409.534V413.907V414.104H218.917L205.329 414.24H205.008V413.82V409.46C204.956 408.816 204.686 408.21 204.242 407.743C204.017 407.512 203.759 407.316 203.476 407.162L202.512 406.618L201.549 406.075C201.278 405.911 200.981 405.794 200.672 405.729C200.051 405.59 199.401 405.669 198.831 405.951L195.125 408.163L194.693 408.422L194.433 407.977L187.578 396.217L187.294 395.723L187.788 395.439L191.494 393.253C191.986 392.914 192.348 392.417 192.519 391.844C192.603 391.556 192.645 391.256 192.642 390.955V389.843V388.732C192.645 388.431 192.603 388.131 192.519 387.842C192.346 387.273 191.979 386.784 191.481 386.459L187.775 384.26L187.244 383.963L187.553 383.445L194.396 371.685L194.681 371.203L195.15 371.475L198.856 373.661C199.407 373.933 200.035 374.007 200.635 373.871C200.937 373.808 201.226 373.691 201.487 373.525L202.45 372.982L203.426 372.438C203.701 372.293 203.951 372.105 204.168 371.882C204.605 371.427 204.867 370.832 204.909 370.202V365.866V365.434H205.316L218.904 365.558H219.213V365.842V370.202C219.259 370.882 219.533 371.527 219.992 372.031C220.511 372.522 221.097 372.938 221.733 373.266C222.315 373.681 222.956 374.006 223.636 374.229C224.311 374.39 225.021 374.315 225.649 374.019L229.466 371.882L229.565 371.821V371.919L236.322 383.741L233.431 385.396C232.935 385.637 232.473 385.944 232.06 386.31C231.664 386.696 231.382 387.183 231.245 387.719C231.115 388.26 231.077 388.82 231.134 389.374C231.134 389.93 231.134 390.486 231.134 391.029C231.121 391.601 231.259 392.166 231.535 392.667C231.81 393.168 232.213 393.587 232.703 393.883Z" fill="#EBEBEB"/>
<path d="M212.147 401.035C210.255 401.027 208.395 400.551 206.731 399.649C205.068 398.747 203.654 397.448 202.615 395.866C201.576 394.285 200.944 392.471 200.777 390.587C200.609 388.702 200.91 386.805 201.654 385.065C202.398 383.326 203.561 381.797 205.039 380.616C206.517 379.435 208.265 378.638 210.126 378.296C211.987 377.955 213.903 378.079 215.704 378.658C217.506 379.238 219.135 380.254 220.449 381.616C222.572 383.836 223.728 386.809 223.66 389.88C223.561 392.857 222.311 395.679 220.173 397.753C218.035 399.826 215.175 400.99 212.197 400.998L212.147 401.035ZM212.147 401.035C213.594 401.033 215.025 400.743 216.358 400.18C217.69 399.618 218.897 398.794 219.906 397.758C220.916 396.722 221.708 395.495 222.236 394.148C222.764 392.802 223.017 391.363 222.981 389.917C222.897 387.096 221.718 384.417 219.694 382.45C217.669 380.483 214.958 379.382 212.135 379.38C209.259 379.38 206.5 380.523 204.466 382.557C202.432 384.591 201.289 387.349 201.289 390.226C201.289 393.102 202.432 395.861 204.466 397.895C206.5 399.929 209.259 401.072 212.135 401.072L212.147 401.035Z" fill="#EBEBEB"/>
<path d="M10.1533 540.758L77.8592 540.461L145.565 540.35L280.977 540.152L416.389 540.35L484.094 540.461L551.8 540.758L484.094 541.066L416.389 541.178L280.977 541.375L145.565 541.178L77.8592 541.066L10.1533 540.758Z" fill="#263238"/>
<path d="M540.733 111.188H335.923V318.197H540.733V111.188Z" fill="#EBEBEB"/>
<path d="M430.088 98.6992C436.919 90.6822 448.617 88.7552 459.933 91.0404C471.248 93.3257 484.799 99.0327 486.034 117.957C487.047 133.324 482.328 148.308 482.328 165.454C482.328 182.6 501.735 224.365 470.68 244.747C442.775 263.054 386.236 246.241 384.494 208.553C383.123 178.684 418.551 151.063 422.281 139.241C426.012 127.42 422.602 107.47 430.088 98.6992Z" fill="#263238"/>
<path d="M424.986 115.561C424.776 124.109 423.541 132.756 420.045 140.822C419.138 142.865 417.954 144.773 416.525 146.492C415.154 148.221 413.696 149.852 412.238 151.433C409.298 154.633 406.395 157.807 403.591 161.105C398.022 167.567 393.42 174.803 389.929 182.587C386.582 190.407 384.742 198.789 384.506 207.293C384.158 203.001 384.287 198.684 384.889 194.421C385.557 190.136 386.662 185.93 388.187 181.871C391.405 173.736 395.965 166.199 401.677 159.574C404.481 156.226 407.458 153.027 410.422 149.864C413.387 146.702 416.389 143.688 418.229 139.982C420.117 136.193 421.556 132.197 422.516 128.074C423.6 123.958 424.425 119.779 424.986 115.561Z" fill="#263238"/>
<path d="M485.256 130.866C485.046 139.587 484.49 148.296 484.725 156.955C484.826 161.268 485.189 165.571 485.812 169.839C486.454 174.039 487.714 178.239 488.764 182.489C489.814 186.738 490.753 191.049 491.444 195.397C492.113 199.766 492.394 204.185 492.284 208.603C492.083 213.042 491.251 217.43 489.814 221.635C488.156 225.768 485.681 229.524 482.538 232.678C485.292 229.293 487.387 225.421 488.715 221.264C489.866 217.13 490.44 212.857 490.419 208.566C490.069 199.927 488.718 191.359 486.392 183.032C485.404 178.795 484.144 174.595 483.539 170.136C482.972 165.767 482.749 161.36 482.872 156.955C483.133 148.218 483.929 139.506 485.256 130.866Z" fill="#263238"/>
<path d="M440.328 204.205C411.917 235.482 388.73 250.503 365.878 250.503C344.149 250.503 297.727 197.744 294.318 190.79C291.378 184.786 329.486 151.94 335.342 156.029C345.224 162.872 376.921 202.488 380.281 202.673C383.641 202.858 396.019 194.681 425.826 180.722C443.935 172.261 460.093 182.526 440.328 204.205Z" fill="#EB9481"/>
<path d="M298.74 195.99C294.565 191.469 277.037 168.9 273.565 161.538C270.094 154.175 261.682 132.262 267.055 129.037C272.429 125.813 275.394 132.027 275.394 132.027C275.394 132.027 273.306 122.219 279.013 119.464C284.72 116.709 289.019 126.53 289.019 126.53C289.019 126.53 287.611 116.302 293.49 113.955C299.37 111.608 302.063 122.231 302.063 122.231C302.063 122.231 300.334 112.929 305.992 113.041C312.798 113.176 314.046 130.68 318.48 138.524C319.481 140.303 341.444 173.112 341.444 173.112L298.74 195.99Z" fill="#EB9481"/>
<path d="M301.829 121.33C302.78 134.189 305.424 139.661 312.947 149.877C313.095 150.075 312.835 150.334 312.663 150.149C304.349 140.81 300.05 134.436 301.174 121.342C301.261 120.7 301.78 120.712 301.829 121.33Z" fill="#263238"/>
<path d="M288.982 125.517C291.131 138.797 293.923 144.751 301.075 156.029C301.174 156.189 300.914 156.375 300.803 156.227C292.885 145.739 288.735 139.278 288.327 125.727C288.302 125.11 288.883 124.9 288.982 125.517Z" fill="#263238"/>
<path d="M275.789 132.595C278.803 145.307 281.607 151.965 289.933 162.02C290.13 162.267 289.797 162.576 289.587 162.353C280.1 152.916 276.542 144.627 275.418 132.707C275.344 131.916 275.604 131.793 275.789 132.595Z" fill="#263238"/>
<path d="M351.241 176.25C351.241 176.25 350.956 160.08 349.264 153.002C347.572 145.924 331.624 121.885 326.177 125.048C319.222 129.124 325.72 144.812 329.883 152.1C329.883 152.1 313.824 161.538 316.01 173.817C318.197 186.095 351.241 176.25 351.241 176.25Z" fill="#EB9481"/>
<path d="M324.632 126.789C320.927 135.091 327.103 144.293 330.624 151.643C330.68 151.749 330.711 151.867 330.713 151.987C330.715 152.107 330.688 152.225 330.635 152.333C330.582 152.44 330.503 152.534 330.407 152.605C330.31 152.676 330.198 152.724 330.08 152.743C323.582 157.153 315.714 165.244 315.615 173.52C315.615 173.569 315.595 173.616 315.561 173.651C315.526 173.686 315.479 173.706 315.43 173.706C315.38 173.706 315.333 173.686 315.299 173.651C315.264 173.616 315.244 173.569 315.244 173.52C314.145 164.626 321.223 156.029 328.635 151.668C324.929 144.17 319.16 134.683 324.558 126.715L324.632 126.789Z" fill="#263238"/>
<path d="M391.337 193.581L414.165 236.174C414.165 236.174 445.121 206.119 450.062 193.581C455.003 181.043 449.679 171.939 427.654 178.646C415.072 182.376 402.903 187.38 391.337 193.581Z" fill="#FFBE15"/>
<path d="M419.44 227.292C418.316 224.982 417.328 222.598 416.154 220.3C414.981 218.003 413.807 215.73 412.584 213.482C410.114 208.936 407.643 204.378 405.074 199.893C403.616 197.423 402.084 194.878 400.491 192.482C400.429 192.371 400.219 192.482 400.281 192.568C404.468 201.944 409.545 210.925 414.61 219.843C416.08 222.425 417.748 224.883 419.279 227.428C419.329 227.49 419.502 227.379 419.44 227.292Z" fill="#263238"/>
<path d="M450.063 193.582C445.122 206.12 414.165 236.174 414.165 236.174L398.786 207.528L449.519 179.475C452.434 182.513 452.397 187.665 450.063 193.582Z" fill="#263238"/>
<path d="M396.538 265.29C396.538 265.29 383.988 295.332 388.422 318.184H526.799C522.302 256.062 491.334 202.673 473.039 185.391C458.29 171.457 442.763 172.705 431.954 179.833C429.409 181.525 401.331 220.325 398.292 226.465C386.236 250.688 396.538 265.29 396.538 265.29Z" fill="#FFBE15"/>
<path d="M432.917 178.004C432.917 178.004 424.27 202.871 429.285 204.168C441.762 207.379 458.5 187.01 459.5 184.934C459.747 184.403 460.859 170.481 461.687 159.648C462.218 152.681 462.625 146.986 462.625 146.986L431.842 157.548L432.83 176.633L432.917 178.004Z" fill="#EB9481"/>
<path d="M431.793 157.548L432.781 176.633C439.044 175.756 452.817 172.359 461.637 159.648C462.169 152.681 462.576 146.986 462.576 146.986L458.722 148.222L431.793 157.548Z" fill="#263238"/>
<path d="M408.866 130.829C408.496 140.526 409.459 148.37 411.818 153.583C413.84 158.035 417.056 161.84 421.11 164.575C425.164 167.309 429.897 168.866 434.782 169.073C438.488 169.209 449.161 168.233 456.882 162.353C462.885 157.783 466.504 149.543 468.555 135.053C473.249 101.923 458.092 90.7808 443.158 89.4467C428.223 88.1126 410.101 97.4019 408.866 130.829Z" fill="#EB9481"/>
<path d="M417.427 123.442C418.205 123.331 418.921 123.108 419.675 122.935C420.494 122.862 421.269 122.528 421.886 121.984C422.04 121.772 422.124 121.517 422.124 121.255C422.124 120.993 422.04 120.738 421.886 120.526C421.501 120.169 421.029 119.92 420.517 119.805C420.005 119.69 419.471 119.713 418.971 119.872C417.905 120.041 416.941 120.6 416.265 121.441C416.106 121.635 416.01 121.874 415.989 122.124C415.969 122.375 416.026 122.626 416.152 122.844C416.278 123.061 416.468 123.235 416.696 123.342C416.924 123.449 417.178 123.484 417.427 123.442Z" fill="#263238"/>
<path d="M439.253 124.27C438.495 124.136 437.745 123.963 437.005 123.751C436.186 123.682 435.412 123.344 434.806 122.787C434.652 122.576 434.568 122.32 434.568 122.058C434.568 121.796 434.652 121.541 434.806 121.33C435.194 120.973 435.67 120.727 436.184 120.616C436.699 120.505 437.234 120.534 437.734 120.7C438.808 120.871 439.777 121.44 440.452 122.293C440.606 122.491 440.697 122.731 440.712 122.981C440.727 123.232 440.666 123.481 440.536 123.696C440.405 123.91 440.213 124.08 439.984 124.183C439.755 124.285 439.5 124.316 439.253 124.27Z" fill="#263238"/>
<path d="M433.793 132.62C433.793 132.534 433.966 132.731 433.966 132.83C433.781 135.091 433.966 137.771 435.98 138.586C435.98 138.586 435.98 138.722 435.98 138.71C433.46 138.241 433.262 134.732 433.793 132.62Z" fill="#263238"/>
<path d="M435.944 130.334C439.649 130.236 439.551 137.586 436.141 137.684C432.732 137.783 432.917 130.421 435.944 130.334Z" fill="#263238"/>
<path d="M437.389 130.742C438.019 131.162 438.624 131.904 439.415 131.978C440.205 132.052 440.996 131.311 441.589 130.569C441.65 130.495 441.712 130.569 441.712 130.656C441.712 132.064 441.169 133.509 439.649 133.707C438.13 133.905 437.302 132.62 436.956 131.237C436.895 130.94 437.129 130.569 437.389 130.742Z" fill="#263238"/>
<path d="M421.626 131.657C421.626 131.57 421.453 131.768 421.453 131.854C421.453 134.14 421.219 136.795 419.156 137.512C419.094 137.512 419.094 137.648 419.156 137.635C421.688 137.29 422.059 133.806 421.626 131.657Z" fill="#263238"/>
<path d="M419.6 129.273C415.894 128.989 415.635 136.338 419.032 136.598C422.429 136.857 422.664 129.52 419.6 129.273Z" fill="#263238"/>
<path d="M418.094 129.705C417.501 130.075 416.858 130.755 416.204 130.779C415.549 130.804 414.832 129.976 414.351 129.198C414.351 129.112 414.239 129.198 414.227 129.272C414.141 130.681 414.536 132.151 415.882 132.484C417.229 132.818 418.057 131.607 418.439 130.224C418.464 129.952 418.279 129.556 418.094 129.705Z" fill="#263238"/>
<path d="M433.572 150.309C433.041 150.865 432.522 151.619 431.707 151.718C430.859 151.724 430.019 151.56 429.236 151.236C429.221 151.223 429.202 151.216 429.182 151.217C429.163 151.218 429.144 151.227 429.131 151.242C429.118 151.257 429.111 151.276 429.112 151.296C429.114 151.316 429.123 151.334 429.137 151.347C429.48 151.783 429.934 152.119 430.451 152.319C430.969 152.519 431.53 152.576 432.077 152.484C432.534 152.341 432.939 152.069 433.243 151.7C433.548 151.332 433.74 150.883 433.794 150.408C433.801 150.38 433.798 150.35 433.785 150.324C433.773 150.298 433.751 150.277 433.725 150.266C433.698 150.254 433.668 150.252 433.64 150.26C433.612 150.268 433.588 150.285 433.572 150.309Z" fill="#263238"/>
<path d="M424.27 141.872C424.27 141.872 423.727 145.269 423.702 146.875C423.702 147.024 424.085 147.098 424.628 147.147C424.628 147.147 424.628 147.147 424.69 147.147C426.054 147.417 427.465 147.308 428.771 146.834C430.078 146.359 431.229 145.536 432.102 144.454C432.213 144.306 432.015 144.133 431.867 144.232C429.791 145.584 427.336 146.233 424.863 146.085C424.764 145.628 425.987 140.304 425.728 140.279C424.464 140.357 423.216 140.611 422.022 141.032C422.948 133.93 424.999 127.037 425.802 119.958C425.802 119.711 425.468 119.625 425.394 119.847C422.726 126.913 421.491 135.066 420.342 142.367C420.243 143.293 423.578 142.144 424.27 141.872Z" fill="#263238"/>
<path d="M425.653 146.307C426.444 147.518 427.533 148.505 428.816 149.173C429.523 149.51 430.316 149.622 431.089 149.494C432.781 149.185 432.941 147.666 432.744 146.344C432.623 145.641 432.424 144.953 432.151 144.293C430.255 145.641 427.979 146.346 425.653 146.307Z" fill="#263238"/>
<path d="M428.815 149.173C429.522 149.51 430.316 149.622 431.088 149.494C432.781 149.185 432.941 147.666 432.744 146.344C431.866 146.305 431.001 146.563 430.288 147.076C429.575 147.59 429.056 148.328 428.815 149.173Z" fill="#FF98B9"/>
<path d="M467.95 132.077C464.306 132.188 453.966 123.096 452.089 105.629C452.089 105.629 454.868 121.194 456.252 123.38C457.635 125.567 450.471 118.254 448.754 104.196C448.754 104.196 441.465 110.546 434.968 113.016C428.47 115.487 424.406 115.808 423.85 115.363C423.294 114.918 432.843 110.941 435.215 107.655C435.215 107.655 418.254 117.537 410.151 118.871C409.212 119.02 410.793 104.431 422.664 95.0427C434.535 85.6546 450.854 88.0016 456.709 92.6957C456.709 92.6957 463.108 93.0292 470.816 101.738C478.524 110.447 471.866 131.953 467.95 132.077Z" fill="#263238"/>
<path d="M463.145 137.413C463.145 137.413 469.926 126.629 474.781 129C479.636 131.372 474.904 146.752 469.457 149.086C468.779 149.437 468.037 149.646 467.276 149.701C466.515 149.757 465.75 149.658 465.029 149.409C464.307 149.161 463.643 148.769 463.077 148.257C462.511 147.745 462.055 147.124 461.736 146.43L463.145 137.413Z" fill="#EB9481"/>
<path d="M473.311 133.411C473.41 133.411 473.422 133.522 473.311 133.559C469.494 135.325 467.629 139.044 466.369 142.861C467.468 141.354 469 140.489 471.001 141.774C471.1 141.835 471.001 142.008 470.902 141.984C470.214 141.815 469.492 141.86 468.83 142.112C468.169 142.363 467.599 142.809 467.196 143.392C466.53 144.39 465.967 145.454 465.516 146.566C465.356 146.925 464.713 146.776 464.837 146.369C464.831 146.336 464.831 146.303 464.837 146.27C464.491 141.279 468.012 134.139 473.311 133.411Z" fill="#263238"/>
<path d="M483.749 192.173C497.436 207.972 535.804 265.166 526.91 280.619C518.374 295.443 499.017 299.618 487.875 279.705C479.858 265.462 466.381 222.969 463.033 202.586C460.316 186.083 471.1 177.56 483.749 192.173Z" fill="#EB9481"/>
<path d="M470.964 242.807L516.323 226.143C516.323 226.143 490.864 191.296 479.141 184.662C467.418 178.029 457.66 182.031 461.242 204.773C463.17 217.751 466.428 230.496 470.964 242.807Z" fill="#FFBE15"/>
<path d="M508.269 219.671C505.799 220.474 503.328 221.116 500.858 221.956C498.387 222.796 496.015 223.648 493.619 224.55C488.764 226.354 483.922 228.157 479.117 230.096C476.424 231.184 473.731 232.357 471.1 233.592C470.976 233.592 471.026 233.852 471.1 233.815C480.982 230.974 490.568 227.194 500.104 223.426C502.871 222.327 505.527 220.955 508.257 219.856C508.442 219.807 508.356 219.634 508.269 219.671Z" fill="#263238"/>
<path d="M473.521 241.745C472.623 241.944 471.743 242.216 470.89 242.56C469.655 239.88 466.727 228.095 466.048 225.069C464.689 219.041 463.577 212.951 462.156 206.922C462.156 206.75 461.823 206.799 461.848 206.922C462.268 210.27 462.786 213.605 463.367 216.916C462.749 215.335 462.132 213.741 461.65 212.123C461.655 212.112 461.657 212.099 461.656 212.087C461.655 212.075 461.651 212.063 461.644 212.053C461.637 212.043 461.628 212.034 461.617 212.028C461.606 212.022 461.594 212.019 461.582 212.019C461.57 212.019 461.558 212.022 461.547 212.028C461.536 212.034 461.527 212.043 461.52 212.053C461.513 212.063 461.509 212.075 461.508 212.087C461.507 212.099 461.509 212.112 461.514 212.123C462.075 214.133 462.765 216.105 463.577 218.028C464.059 224.204 469.679 243.833 469.84 243.759C471.111 243.182 472.348 242.535 473.546 241.819C473.682 241.856 473.682 241.733 473.521 241.745Z" fill="#263238"/>
<path d="M451.088 125.468L438.179 180.574C437.623 182.192 438.451 183.489 440.032 183.464L464.676 188.48C465.539 188.401 466.362 188.078 467.049 187.548C467.736 187.019 468.258 186.305 468.554 185.49L481.463 130.384C482.019 128.766 481.191 127.469 479.61 127.506L454.966 122.479C454.103 122.558 453.28 122.881 452.593 123.41C451.906 123.939 451.384 124.653 451.088 125.468Z" fill="#A6A6A6"/>
<path d="M453.2 125.776L440.328 180.882C439.772 182.501 440.6 183.798 442.181 183.773L466.825 188.788C467.687 188.71 468.509 188.389 469.196 187.862C469.883 187.335 470.406 186.624 470.704 185.811L483.563 130.705C484.119 129.075 483.291 127.79 481.71 127.815L457.079 122.787C456.217 122.87 455.395 123.195 454.709 123.724C454.023 124.253 453.5 124.964 453.2 125.776Z" fill="#DBDBDB"/>
<path d="M461.007 128.148C461.019 128.642 460.883 129.129 460.615 129.545C460.348 129.961 459.962 130.287 459.507 130.481C459.053 130.675 458.55 130.728 458.065 130.634C457.58 130.54 457.134 130.302 456.786 129.951C456.437 129.601 456.201 129.154 456.109 128.668C456.018 128.182 456.073 127.68 456.27 127.227C456.467 126.773 456.795 126.389 457.212 126.124C457.629 125.859 458.116 125.725 458.61 125.739C459.247 125.743 459.857 125.998 460.306 126.449C460.755 126.901 461.007 127.511 461.007 128.148Z" fill="#263238"/>
<path d="M494.458 284.696C502.475 299.519 523.697 291.07 526.909 280.619C534.444 256.099 529.775 215.335 525.278 192.568C523.833 185.243 474.076 192.568 474.372 200.486C474.718 210.06 478.745 255.543 494.458 284.696Z" fill="#EB9481"/>
<path d="M524.723 203.451C527.23 192.649 527.381 181.434 525.168 170.568C522.549 158.722 513.989 133.596 479.574 122.392C471.408 119.724 457.882 121.713 469.691 130.903C478.042 137.438 485.305 139.056 489.456 143.75C489.456 143.75 472.557 148.321 470.21 156.597C468.155 163.842 466.616 171.222 465.603 178.684C466.926 179.18 468.279 179.593 469.654 179.919C468.929 187.125 470.605 194.369 474.423 200.524L524.723 203.451Z" fill="#EB9481"/>
<path d="M520.857 159.66C515.743 155.954 504.798 148.073 493.57 144.837C481.118 141.131 456.178 137.549 453.583 146.751C451.681 153.508 461.082 155.744 461.082 155.744C461.082 155.744 450.458 156.411 450.075 162.884C449.729 168.789 457.104 170.086 457.104 170.086C457.104 170.086 450.73 171.593 451.483 177.349C452.398 184.255 465.627 179.956 472.607 186.157C474.176 187.516 520.857 159.66 520.857 159.66Z" fill="#EB9481"/>
<path d="M491.914 158.586C486.528 155.819 472.668 152.693 461.279 155.522C461.019 155.522 460.933 155.806 461.18 155.806C471.495 155.528 481.807 156.498 491.889 158.697C491.951 158.721 491.976 158.61 491.914 158.586Z" fill="#263238"/>
<path d="M487.887 171.037C482.946 169.135 468.555 166.541 457.116 169.802C456.856 169.876 456.782 170.111 457.029 170.098C467.33 169.276 477.691 169.632 487.911 171.161C487.928 171.157 487.942 171.148 487.951 171.134C487.961 171.12 487.964 171.103 487.961 171.087C487.958 171.07 487.948 171.056 487.934 171.047C487.92 171.037 487.903 171.034 487.887 171.037Z" fill="#263238"/>
<path d="M489.912 274.369C489.542 273.133 489.184 271.898 488.788 270.774C487.973 268.304 487.269 265.833 486.552 263.362C485.095 258.421 483.699 253.406 482.476 248.366C480.035 238.32 478.183 228.141 476.93 217.879C476.584 215.038 476.287 212.197 475.978 209.356C475.67 206.515 475.571 203.562 475.027 200.709C475.027 200.561 473.582 198.386 473.014 197.312C472.424 196.194 471.908 195.038 471.47 193.853C470.546 191.434 469.92 188.912 469.604 186.342C469.598 186.326 469.587 186.313 469.573 186.303C469.558 186.293 469.541 186.288 469.524 186.288C469.507 186.288 469.49 186.293 469.476 186.303C469.461 186.313 469.45 186.326 469.444 186.342C469.283 189.267 469.652 192.196 470.531 194.989C471.292 197.326 472.606 199.445 474.36 201.166C474.36 201.536 474.447 206.107 474.595 208.664C474.743 211.221 474.978 213.778 475.262 216.323C475.843 221.437 476.559 226.539 477.461 231.616C479.223 241.886 481.675 252.026 484.798 261.967C484.798 262.127 484.91 262.288 484.959 262.448C484.959 262.819 484.959 263.189 484.959 263.56C484.977 264.474 485.052 265.385 485.181 266.29C485.435 268.09 485.878 269.858 486.503 271.565C486.497 271.58 486.496 271.596 486.498 271.611C486.5 271.627 486.505 271.642 486.515 271.655C486.524 271.669 486.536 271.679 486.55 271.687C486.564 271.694 486.58 271.698 486.596 271.698C486.612 271.698 486.627 271.694 486.641 271.687C486.656 271.679 486.668 271.669 486.677 271.655C486.686 271.642 486.692 271.627 486.694 271.611C486.696 271.596 486.694 271.58 486.688 271.565C486.25 269.779 485.953 267.962 485.799 266.129L485.577 264.252C486.256 266.253 486.972 268.254 487.677 270.243C488.171 271.626 488.677 272.973 489.245 274.319C489.814 275.666 490.258 276.975 490.925 278.223C490.925 278.322 491.123 278.223 491.098 278.149C490.789 276.827 490.295 275.616 489.912 274.369Z" fill="#263238"/>
<path d="M335.923 318.184V284.98L298.185 318.184H335.923Z" fill="#EBEBEB"/>
<path d="M141.97 388.584C152.841 435.883 175.323 492.582 184.921 501.785C197.064 513.422 277.394 534.767 281.397 535.2C291.279 536.2 311.204 464.789 300.63 463.244C284.571 460.922 226.068 457.747 222.572 454.153C219.077 450.558 194.247 419.256 168.875 384.088C151.358 359.789 135.213 359.234 141.97 388.584Z" fill="#AD6359"/>
<path d="M273.442 531.346C274.615 531.939 291.403 540.388 301.779 543.39C309.524 545.638 331.982 551.506 335.305 543.217C337.578 537.584 324.768 532.581 315.799 528.838C311.068 526.862 305.238 521.921 306.634 518.882C309.104 513.57 321.247 518.882 329.252 523.551C344.73 532.544 365.347 548.739 374.797 540.845C378.367 537.88 374.216 532.47 368.151 527.171C378.033 533.347 388.508 538.412 392.597 535.274C394.956 533.483 395.068 531.025 393.758 528.233C396.797 529.221 399.478 529.023 401.355 526.998C404.555 523.638 402.998 518.696 399.49 513.619C400.092 513.557 400.671 513.352 401.178 513.021C401.685 512.69 402.106 512.243 402.405 511.717C409.187 501.378 375.229 471.694 363.506 468.915C328.98 460.7 292.588 462.232 292.588 462.232C279.025 473.115 273.405 531.321 273.442 531.346Z" fill="#AD6359"/>
<path d="M324.211 499.562C332.432 500.846 340.285 503.865 347.249 508.419C356.007 514.2 361.813 520.969 369.151 527.776C369.18 527.814 369.195 527.862 369.193 527.91C369.191 527.958 369.173 528.005 369.141 528.041C369.109 528.077 369.065 528.101 369.018 528.109C368.97 528.117 368.921 528.109 368.879 528.085C365.383 524.848 350.881 512.668 347.138 509.901C340.368 504.807 332.528 501.318 324.211 499.698C324.1 499.685 324.125 499.537 324.211 499.562Z" fill="#263238"/>
<path d="M330.647 484.899C339.726 487.37 349.028 489.84 357.452 494.188C366.668 498.882 373.882 506.541 380.923 513.953C385.189 518.375 389.352 522.905 393.412 527.541C393.572 527.739 393.313 528.047 393.14 527.85C385.942 520.241 378.53 512.829 370.905 505.615C363.846 498.916 355.534 493.677 346.446 490.198C341.258 488.21 335.921 486.641 330.585 485.06C330.511 485.035 330.548 484.874 330.647 484.899Z" fill="#263238"/>
<path d="M340.344 472.089C349.164 473.905 356.86 475.449 364.667 480.168C375.006 486.431 384.987 496.968 388.483 500.711C392.35 504.837 396.08 509.086 399.737 513.397C399.885 513.57 399.588 513.842 399.428 513.669C391.048 504.216 382.065 495.316 372.536 487.024C368.053 483.009 362.978 479.709 357.49 477.24C351.927 475.056 346.186 473.354 340.332 472.151C340.332 472.151 340.27 472.077 340.344 472.089Z" fill="#263238"/>
<path d="M287.03 459.39L262.324 537.658C262.324 537.658 195.434 518.56 183.266 505.38C171.098 492.199 148.48 424.135 141.847 391.141C135.213 358.147 151.89 359.024 167.22 379.764C182.55 400.504 220.72 450.978 222.807 452.077C224.895 453.177 287.03 459.39 287.03 459.39Z" fill="#FFBE15"/>
<path opacity="0.1" d="M287.03 459.39L262.324 537.658C262.324 537.658 195.434 518.56 183.266 505.38C171.098 492.199 148.48 424.135 141.847 391.141C135.213 358.147 151.89 359.024 167.22 379.764C182.55 400.504 220.72 450.978 222.807 452.077C224.895 453.177 287.03 459.39 287.03 459.39Z" fill="black"/>
<path d="M255.9 502.885C258.902 493.657 261.965 484.455 264.609 475.116C266.116 469.816 267.648 464.505 269.105 459.193C269.167 458.983 268.834 458.872 268.759 459.07C265.387 468.211 262.027 477.389 259.075 486.678C256.123 495.967 253.121 505.207 250.304 514.435C248.711 519.722 247.266 525.034 245.993 530.407C245.993 530.506 246.141 530.568 246.178 530.469C249.86 521.439 252.886 512.174 255.9 502.885Z" fill="#263238"/>
<path d="M228.588 526.899L225.624 525.861C220.052 523.872 214.37 521.735 209.021 519.549C208.33 519.277 207.65 518.993 206.983 518.709C205.908 518.264 204.834 517.807 203.796 517.35L202.24 516.67L201.684 516.423L200.078 515.682C197.953 514.706 195.94 513.73 194.062 512.742L192.827 512.05C189.892 510.541 187.126 508.723 184.575 506.628C184.34 506.418 184.106 506.208 183.896 505.998C183.686 505.788 183.463 505.578 183.278 505.38C171.049 492.2 148.492 424.135 141.859 391.141L141.637 390.005V389.757C141.192 387.287 140.797 384.149 140.475 380.789C139.549 364.372 147.319 361.692 156.917 368.906C180.845 420.257 217.495 505.108 228.588 526.899Z" fill="#263238"/>
<path d="M193.889 540.042L48.126 540.808C48.2495 537.671 69.0023 445.889 85.5057 412.018C106.666 368.585 117.623 365.077 124.084 362.754C132.422 359.765 147.27 361.247 150.79 362.915C154.793 364.78 167.516 386.991 172.074 403.284C181.191 436.056 195.94 538.041 193.889 540.042Z" fill="#EBEBEB"/>
<path d="M116.61 366.188C116.61 366.188 135.139 434.808 136.066 439.367C137.462 445.988 146.702 540.462 146.702 540.462L45.0996 540.808C45.0996 540.808 67.2729 453.35 83.7763 415.056C101.787 373.057 116.61 366.188 116.61 366.188Z" fill="#FFBE15"/>
<g opacity="0.1">
<path d="M116.609 366.188C116.609 366.188 135.138 434.808 136.065 439.367C137.461 445.988 146.701 540.462 146.701 540.462L45.0986 540.808C45.0986 540.808 67.272 453.35 83.7754 415.056C101.786 373.057 116.609 366.188 116.609 366.188Z" fill="black"/>
</g>
<path d="M152.124 363.977C152.668 366.164 169.752 421.912 170.937 435.809C172.259 451.225 183.945 540.808 183.945 540.808H198.768C198.768 540.808 177.311 412.104 171.419 398.503C159.363 370.746 152.124 363.977 152.124 363.977Z" fill="#FFBE15"/>
<path opacity="0.1" d="M152.124 363.977C152.668 366.164 169.752 421.912 170.937 435.809C172.259 451.225 183.945 540.808 183.945 540.808H198.768C198.768 540.808 177.311 412.104 171.419 398.503C159.363 370.746 152.124 363.977 152.124 363.977Z" fill="black"/>
<path d="M97.426 382.235C73.0168 408.386 13.6738 507.604 32.4995 525.7C51.3252 543.797 155.843 519.438 185.193 505.442C193.926 501.291 160.747 446.84 150.481 445.568C141.933 444.518 98.2536 464.492 96.9813 461.985C95.5607 459.143 102.503 438.181 113.04 400.22C125.133 356.467 108.222 370.672 97.426 382.235Z" fill="#AD6359"/>
<path d="M193.864 428.002C215.086 425.037 221.04 427.545 237.581 415.538C248.464 407.657 258.173 411.227 251.96 423.74C241.806 444.221 215.222 453.782 205.019 454.449L193.864 428.002Z" fill="#AD6359"/>
<path d="M137.486 448.409C137.486 448.409 161.34 435.167 183.649 429.781C199.065 426.075 233.53 421.69 266.512 455.722C274.331 463.788 279.754 480.835 262.201 472.299C249.724 466.234 243.671 458.625 235.753 456.414C235.753 456.414 240.077 478.908 231.689 486.431C224.358 493.005 216.569 499.048 208.379 504.515C207.033 503.248 205.77 501.895 204.599 500.464C204.599 500.464 196.101 506.751 180.116 505.22L137.486 448.409Z" fill="#AD6359"/>
<path d="M198.942 428.645C206.353 432.486 221.807 440.899 232.084 452.189C243.511 464.74 262.126 491.965 252.775 500.365C245.932 506.48 237.952 496.659 237.952 496.659C237.952 496.659 243.276 509.543 235.877 513.706C229.144 517.511 223.388 509.58 223.388 509.58C223.388 509.58 225.278 517.943 218.076 520.352C209.429 523.243 206.885 505.232 195.582 500.587C193 499.476 198.942 428.645 198.942 428.645Z" fill="#AD6359"/>
<path d="M216.829 461.997C223.166 466.753 234.802 481.243 238.014 496.251C238.088 496.597 237.878 496.832 237.742 496.536C232.162 484.252 225.111 472.691 216.742 462.108C216.644 461.997 216.742 461.997 216.829 461.997Z" fill="#263238"/>
<path d="M204.5 473.893C209.553 478.562 220.88 494.028 223.61 509.358C223.672 509.704 223.437 509.926 223.326 509.617C218.38 497.065 212.027 485.113 204.389 473.991C204.315 473.917 204.389 473.831 204.5 473.893Z" fill="#263238"/>
<path d="M235.753 456.265C242.671 458.304 247.167 461.701 253.047 465.752C255.909 467.798 258.883 469.682 261.954 471.398C264.77 472.917 268.933 475.215 271.922 472.831C273.602 471.509 273.578 469.125 273.158 467.185C272.313 464.378 271.029 461.722 269.353 459.317C269.353 459.218 269.439 459.107 269.513 459.193C271.131 461.385 272.522 463.736 273.664 466.209C274.412 467.905 274.631 469.786 274.294 471.608C273.269 475.412 268.772 475.919 265.647 474.869C263.753 474.173 261.932 473.292 260.212 472.238C258.532 471.274 256.901 470.237 255.271 469.149C251.985 466.926 248.835 464.517 245.574 462.257C242.405 460.13 239.105 458.207 235.691 456.5C235.665 456.488 235.645 456.467 235.633 456.441C235.62 456.415 235.618 456.385 235.625 456.357C235.632 456.329 235.649 456.305 235.673 456.288C235.696 456.272 235.724 456.263 235.753 456.265Z" fill="#263238"/>
<path d="M250.243 480.6C248.452 476.66 238.755 460.23 235.617 456.426C235.605 456.407 235.601 456.385 235.603 456.363C235.606 456.341 235.616 456.32 235.631 456.304C235.647 456.289 235.668 456.279 235.69 456.276C235.712 456.273 235.734 456.278 235.753 456.29C241.151 461.404 249.81 474.98 251.812 479.328C253.813 483.676 256.11 489.124 256.11 493.904C256.11 501.131 251.318 502.551 249.551 502.86C247.437 503.243 245.256 502.885 243.375 501.847C241.174 500.503 239.273 498.72 237.791 496.61C237.717 496.511 237.853 496.375 237.939 496.474C240.41 499.327 244.61 502.131 248.526 501.613C249.394 501.53 250.238 501.275 251.006 500.861C251.774 500.448 252.451 499.884 252.998 499.204C254.068 497.466 254.48 495.401 254.159 493.386C253.581 488.934 252.257 484.612 250.243 480.6Z" fill="#263238"/>
<path d="M137.486 448.409L170.938 518.82C170.938 518.82 40.0965 548.195 28.806 525.416C17.5156 502.638 68.3351 413.5 91.2249 387.534C117.771 357.443 121.156 367.683 115.313 394.353C109.137 422.27 97.3643 462.639 97.3643 462.639L137.486 448.409Z" fill="#FFBE15"/>
<path opacity="0.1" d="M137.486 448.409L170.938 518.82C170.938 518.82 40.0965 548.195 28.806 525.416C17.5156 502.638 68.3351 413.5 91.2249 387.534C117.771 357.443 121.156 367.683 115.313 394.353C109.137 422.27 97.3643 462.639 97.3643 462.639L137.486 448.409Z" fill="black"/>
<path d="M57.5997 481.379C69.6683 472.997 82.9207 466.465 96.9187 461.997C100.884 460.762 104.886 459.588 108.889 458.439C109.012 458.439 109.062 458.6 108.889 458.637C101.908 460.896 95.0653 463.561 88.3953 466.617C81.733 469.582 75.1448 472.666 68.6307 475.869C64.9249 477.685 61.3179 479.674 57.6861 481.613C57.6618 481.608 57.6391 481.597 57.6203 481.58C57.6015 481.564 57.5871 481.543 57.5785 481.52C57.5699 481.496 57.5673 481.471 57.571 481.446C57.5747 481.422 57.5845 481.399 57.5997 481.379Z" fill="#263238"/>
<path d="M137.14 448.223C136.486 448.396 100.7 460.218 99.5261 460.762C99.6743 460.218 106.098 441.195 107.061 438.403C107.148 438.131 107.234 437.847 107.333 437.575C107.975 436.34 108.642 435.105 109.248 433.869C110.014 432.251 110.78 430.608 111.533 428.928H111.459L108.988 433.709C108.605 434.438 108.247 435.191 107.889 435.945C108.519 433.981 109.124 432.004 109.73 430.015C110.693 426.865 111.558 423.678 112.41 420.491C112.41 420.38 112.287 420.355 112.25 420.491C110.347 426.038 108.272 431.522 106.357 437.069C104.443 442.615 97.0802 463.01 97.142 463.01C97.2038 463.01 136.548 449.1 137.313 448.792C137.351 448.78 137.385 448.762 137.416 448.737C137.446 448.712 137.471 448.682 137.489 448.647C137.507 448.613 137.519 448.575 137.523 448.536C137.526 448.498 137.522 448.458 137.511 448.421C137.5 448.384 137.481 448.349 137.456 448.319C137.432 448.289 137.401 448.264 137.367 448.245C137.332 448.227 137.295 448.216 137.256 448.212C137.217 448.208 137.178 448.212 137.14 448.223Z" fill="#263238"/>
<path d="M139.549 494.115C135.844 486.271 132.249 478.377 128.284 470.644C126.023 466.259 123.787 461.861 121.49 457.501C121.403 457.34 121.107 457.501 121.181 457.637C124.565 465.666 127.975 473.695 131.73 481.589C135.485 489.482 139.142 497.277 142.959 505.059C145.133 509.481 147.443 513.834 149.889 518.116C149.889 518.203 150.086 518.116 150.049 518.116C146.936 509.939 143.268 502.045 139.549 494.115Z" fill="#263238"/>
<path d="M172.63 519.907C171.321 517.733 169.666 514.62 168.27 512.496C167.899 511.94 167.467 512.051 167.763 512.631C168.764 514.608 169.591 516.819 170.567 518.808C168.739 519.178 166.862 519.5 165.058 519.883C162.933 520.327 160.821 520.784 158.696 521.217C154.529 522.04 150.362 522.864 146.195 523.687C137.746 525.26 129.264 526.644 120.748 527.838C103.689 530.336 86.5124 531.948 69.2865 532.668C64.4689 532.841 59.6389 532.927 54.8213 532.865C50.0691 532.878 45.3194 532.647 40.5909 532.174C40.455 532.174 40.4303 532.384 40.5909 532.408C44.6597 533.268 48.7902 533.805 52.9437 534.014C57.3042 534.224 61.6771 534.323 66.05 534.274C74.697 534.175 83.4305 533.607 92.0898 532.816C109.26 531.235 126.381 528.912 143.354 525.911C148.114 525.087 152.862 524.194 157.597 523.23C159.993 522.748 162.377 522.267 164.762 521.735C167.146 521.204 172.853 520.278 172.63 519.907Z" fill="#263238"/>
<path d="M152.149 389.584C143.502 391.969 128.024 379.183 121.699 368.585C121.267 367.856 122.119 359.999 122.7 350.401C123.033 344.583 123.255 338.048 123.033 332.144C123.033 330.909 160.623 339.827 160.623 339.827C160.623 339.827 157.411 352.402 157.856 362.754C157.895 363.586 158.011 364.413 158.202 365.225C158.236 365.355 158.26 365.487 158.276 365.62C159.202 370.203 160.512 387.274 152.149 389.584Z" fill="#AD6359"/>
<path d="M125.331 332.292C127.431 342.273 134.571 366.299 154.459 366.015C155.735 366.003 157.007 365.887 158.264 365.669C158.279 365.534 158.279 365.397 158.264 365.262C158.08 364.449 157.961 363.623 157.905 362.791C157.473 352.427 160.673 339.84 160.673 339.84C160.673 339.84 133.472 333.416 125.331 332.292Z" fill="#263238"/>
<path d="M165.107 314.319C164.687 323.435 170.839 331.119 178.844 331.489C186.848 331.86 193.667 324.745 194.075 315.628C194.482 306.512 188.331 298.828 180.338 298.47C172.346 298.112 165.515 305.202 165.107 314.319Z" fill="#455A64"/>
<path d="M192.605 316.132C193.064 305.991 186.22 297.443 177.32 297.041C168.419 296.638 160.831 304.533 160.373 314.674C159.914 324.815 166.758 333.363 175.658 333.765C184.559 334.168 192.147 326.273 192.605 316.132Z" fill="#C7C7C7"/>
<path d="M127.938 284.845C121.465 297.05 121.057 335.85 128.666 346.004C139.698 360.704 161.377 366.102 174.743 352.057C187.75 338.394 187.379 287.822 178.547 278.224C165.564 264.055 137.499 266.822 127.938 284.845Z" fill="#AD6359"/>
<path d="M160.203 314.838C160.203 314.739 159.993 314.974 160.005 315.085C160.141 317.691 159.869 320.705 157.534 321.619C157.46 321.619 157.473 321.78 157.534 321.768C160.425 321.298 160.746 317.296 160.203 314.838Z" fill="#263238"/>
<path d="M157.807 312.169C153.594 311.947 153.458 320.384 157.349 320.582C161.241 320.779 161.339 312.355 157.807 312.169Z" fill="#263238"/>
<path d="M174.829 315.159C174.829 315.06 175.027 315.295 175.027 315.394C174.903 318.013 175.2 321.027 177.497 321.928C177.571 321.928 177.497 322.089 177.497 322.077C174.644 321.62 174.285 317.617 174.829 315.159Z" fill="#263238"/>
<path d="M177.212 312.528C181.412 312.268 181.61 320.705 177.707 320.94C173.803 321.175 173.68 312.676 177.212 312.528Z" fill="#263238"/>
<path d="M154.027 305.425C155.262 305.363 156.287 305.104 157.461 304.931C158.699 304.907 159.894 304.473 160.858 303.696C161.116 303.398 161.269 303.023 161.291 302.63C161.313 302.236 161.204 301.846 160.981 301.521C160.441 300.953 159.759 300.539 159.006 300.322C158.252 300.105 157.455 300.092 156.695 300.286C155.085 300.414 153.582 301.142 152.482 302.324C152.252 302.608 152.108 302.952 152.068 303.315C152.028 303.678 152.093 304.045 152.256 304.372C152.419 304.699 152.672 304.972 152.986 305.159C153.3 305.346 153.661 305.438 154.027 305.425Z" fill="#263238"/>
<path d="M181.178 306.351C180.05 306.103 178.937 305.794 177.843 305.425C176.628 305.278 175.495 304.735 174.619 303.881C174.397 303.554 174.29 303.164 174.315 302.77C174.34 302.377 174.494 302.002 174.755 301.706C175.359 301.2 176.087 300.864 176.864 300.731C177.641 300.599 178.439 300.675 179.177 300.953C180.757 301.285 182.157 302.192 183.105 303.498C183.29 303.808 183.383 304.164 183.373 304.525C183.362 304.886 183.25 305.237 183.048 305.536C182.845 305.835 182.562 306.071 182.231 306.215C181.9 306.36 181.535 306.407 181.178 306.351Z" fill="#263238"/>
<path d="M155.435 339.062C156.053 339.679 156.67 340.532 157.609 340.631C158.58 340.622 159.539 340.412 160.425 340.013C160.443 340.009 160.462 340.01 160.479 340.016C160.496 340.022 160.511 340.033 160.522 340.047C160.534 340.061 160.541 340.078 160.544 340.096C160.546 340.114 160.544 340.132 160.537 340.149C160.158 340.659 159.647 341.056 159.059 341.298C158.472 341.539 157.829 341.616 157.201 341.52C156.67 341.371 156.195 341.069 155.835 340.652C155.474 340.234 155.245 339.72 155.175 339.173C155.138 339.025 155.336 338.963 155.435 339.062Z" fill="#263238"/>
<path d="M158.313 331.279C158.958 332.323 159.813 333.223 160.823 333.92C161.833 334.617 162.976 335.098 164.181 335.331C165.232 335.555 166.309 335.626 167.38 335.541C167.587 335.533 167.794 335.513 167.998 335.479L168.566 335.393C168.706 335.37 168.835 335.302 168.933 335.199C169.031 335.097 169.093 334.965 169.11 334.825C169.116 334.734 169.116 334.643 169.11 334.553V334.318C169.196 332.305 169.11 329.241 169.11 329.241C169.839 329.624 173.569 331.378 173.52 330.328C173.149 321.607 172.729 311.922 170.518 303.337C170.505 303.283 170.475 303.234 170.431 303.199C170.387 303.164 170.333 303.145 170.277 303.145C170.221 303.145 170.167 303.164 170.123 303.199C170.079 303.234 170.049 303.283 170.036 303.337C170.036 311.725 171.568 320.051 171.729 328.475C170.406 327.835 169.001 327.382 167.553 327.129C167.269 327.215 167.936 333.046 167.825 333.948C167.828 333.98 167.828 334.013 167.825 334.046C164.428 334.417 161.896 333.355 158.659 331.032C158.363 330.896 158.153 331.057 158.313 331.279Z" fill="#263238"/>
<path d="M166.207 334.491C165.084 335.913 163.611 337.019 161.933 337.703C161.007 338.046 159.997 338.093 159.042 337.839C156.967 337.246 156.942 335.368 157.35 333.701C157.578 332.842 157.905 332.013 158.326 331.23C160.539 333.129 163.3 334.271 166.207 334.491Z" fill="#263238"/>
<path d="M161.933 337.703C161.007 338.045 159.997 338.093 159.042 337.838C156.967 337.245 156.942 335.368 157.35 333.7C159.586 333.972 161.772 335.528 161.933 337.703Z" fill="#FF98B9"/>
<path opacity="0.2" d="M123.083 312.244C125.628 311.836 131.73 303.226 134.312 299.804C136.893 296.382 138.388 278.039 138.623 273.863C134.093 276.425 130.383 280.22 127.925 284.808C125.035 290.293 123.367 301.077 123.083 312.244Z" fill="#263238"/>
<path d="M170.184 289.057C168.675 290.712 166.769 291.954 164.646 292.665C162.523 293.376 160.254 293.533 158.053 293.122C155.807 292.708 153.705 291.727 151.945 290.272C150.185 288.817 148.826 286.936 147.998 284.808C147.998 284.672 147.751 284.746 147.8 284.87C148.468 287.188 149.757 289.28 151.527 290.919C153.297 292.558 155.481 293.683 157.843 294.172C160.191 294.526 162.59 294.256 164.8 293.389C167.009 292.521 168.952 291.087 170.431 289.23C170.439 289.199 170.438 289.165 170.426 289.134C170.415 289.103 170.395 289.077 170.368 289.058C170.341 289.039 170.309 289.029 170.276 289.029C170.243 289.029 170.211 289.039 170.184 289.057Z" fill="#263238"/>
<path d="M157.634 256.174C150.012 256.1 142.897 260.09 139.944 265.179C138.305 268.079 137.695 271.449 138.215 274.74C138.215 274.876 138.499 274.851 138.487 274.74C138.423 271.84 139.14 268.976 140.564 266.448C141.987 263.921 144.064 261.822 146.578 260.374C149.33 258.687 152.435 257.662 155.651 257.379C158.866 257.096 162.103 257.563 165.107 258.743C168.035 259.827 170.48 261.921 172 264.648C172.148 264.932 172.716 264.771 172.605 264.487C170.678 259.645 164.514 256.236 157.634 256.174Z" fill="#263238"/>
<path d="M201.3 274.074C200.17 270.278 197.739 267.002 194.432 264.821C189.849 261.783 184.55 262.042 179.312 262.412C179.283 262.412 179.255 262.424 179.234 262.445C179.213 262.466 179.201 262.494 179.201 262.524C179.201 262.553 179.213 262.581 179.234 262.602C179.255 262.623 179.283 262.635 179.312 262.635C183.784 262.338 188.342 262.289 192.369 264.525C195.721 266.339 198.341 269.26 199.781 272.789C201.152 276.409 201.17 280.402 199.83 284.033C198.491 287.665 195.886 290.69 192.493 292.553C190.514 293.576 188.347 294.183 186.125 294.338C183.904 294.493 181.673 294.193 179.572 293.455C179.399 293.393 179.275 293.628 179.436 293.702C182.275 294.821 185.369 295.128 188.372 294.588C191.376 294.049 194.169 292.684 196.441 290.647C198.713 288.609 200.373 285.98 201.236 283.053C202.098 280.126 202.129 277.017 201.325 274.074H201.3Z" fill="#263238"/>
<path d="M125.183 292.319C125.183 292.319 118.438 278.446 124.763 270.788C128.345 266.452 139.685 267.44 139.685 267.44C139.685 267.44 143.576 261.054 153.063 259.238C162.55 257.422 173.742 263.364 173.742 263.364C173.742 263.364 182.957 258.534 191.233 263.672C202.783 270.837 200.659 288.736 188.577 294.073C180.103 297.779 169.06 290.046 169.06 290.046C167.961 290.157 156.571 296.457 148.517 286.216C148.517 286.216 141.451 292.047 135.46 287.563C134.441 289.313 132.909 290.708 131.07 291.559C129.232 292.409 127.177 292.675 125.183 292.319Z" fill="#263238"/>
<path d="M130.037 316.938C130.037 316.938 123.626 303.35 117.585 305.375C111.545 307.401 114.892 326.202 120.945 329.735C121.692 330.242 122.534 330.592 123.419 330.766C124.305 330.939 125.217 330.931 126.099 330.743C126.982 330.555 127.818 330.19 128.556 329.671C129.294 329.152 129.92 328.489 130.395 327.722L130.037 316.938Z" fill="#AD6359"/>
<path d="M118.673 310.724C118.574 310.724 118.524 310.848 118.673 310.897C122.897 313.516 124.565 318.148 125.479 322.805C124.429 320.891 122.737 319.655 120.217 320.866C120.191 320.883 120.171 320.908 120.16 320.937C120.149 320.966 120.147 320.998 120.155 321.029C120.164 321.059 120.181 321.085 120.205 321.105C120.23 321.125 120.26 321.136 120.291 321.138C121.134 321.023 121.993 321.172 122.749 321.563C123.505 321.954 124.122 322.569 124.516 323.324C125.156 324.593 125.661 325.927 126.023 327.302C126.171 327.746 126.937 327.648 126.863 327.153C126.868 327.117 126.868 327.079 126.863 327.042C127.9 321.273 124.8 312.392 118.673 310.724Z" fill="#263238"/>
<path d="M144.009 344.299L131.841 339.049L122.058 326.869L123.935 325.35L133.348 337.073L144.972 342.088L144.009 344.299Z" fill="#C7C7C7"/>
<path d="M142.711 342.36C143.946 338.814 153.829 340.124 152.037 345.485C150.246 350.846 141.513 345.88 142.711 342.36Z" fill="#FFBE15"/>
<path d="M117.4 305.005C117.4 305.005 116.078 285.08 121.909 274.123C128.406 261.881 155.336 250.232 173.791 263.388C173.791 263.388 143.81 258.027 129.839 275C123.959 282.14 124.108 305.561 124.108 305.561L117.4 305.005Z" fill="#C7C7C7"/>
<path d="M120.119 333.622C129.028 333.534 136.169 325.233 136.068 315.082C135.967 304.931 128.663 296.773 119.753 296.862C110.844 296.951 103.703 305.252 103.804 315.403C103.905 325.554 111.209 333.711 120.119 333.622Z" fill="#C7C7C7"/>
<path d="M131.359 314.553C131.446 323.682 125.035 331.143 117.03 331.217C109.025 331.291 102.454 323.966 102.367 314.837C102.281 305.709 108.692 298.248 116.696 298.173C124.701 298.099 131.273 305.425 131.359 314.553Z" fill="#455A64"/>
<path d="M158.128 365.002L149.419 386.99L122.02 359.345L114.337 368.288C114.337 368.288 141.204 412.277 141.365 410.288L150.321 391.326L163.439 404.433L162.204 371.401L158.128 365.002Z" fill="#EBEBEB"/>
<path d="M163.76 388.065C163.377 382.618 163.155 377.121 162.525 371.698C162.525 371.513 162.204 371.426 162.154 371.698C161.092 376.973 162.661 397.787 162.661 402.79H162.599C162.055 402.222 150.444 391.265 150.333 391.438C148.393 394.452 141.809 408.25 141.364 409.51C137.115 402.518 119.129 374.984 114.065 368.375C114.04 368.332 114 368.301 113.952 368.289C113.905 368.276 113.854 368.282 113.812 368.307C113.769 368.332 113.738 368.372 113.725 368.42C113.712 368.467 113.719 368.518 113.744 368.56C117.449 375.972 140.796 412.302 141.117 412.203C144.583 405.689 147.713 399.001 150.493 392.167C152.457 394.551 164.168 406.928 164.205 406.113C164.376 400.093 164.227 394.069 163.76 388.065Z" fill="#263238"/>
<path d="M457.425 307.19H419.218C415.514 307.187 411.962 305.714 409.343 303.095C406.723 300.475 405.25 296.923 405.247 293.219C405.247 289.514 406.719 285.96 409.339 283.34C411.959 280.72 415.513 279.248 419.218 279.248H457.425C461.131 279.248 464.684 280.72 467.304 283.34C469.925 285.96 471.396 289.514 471.396 293.219C471.396 295.054 471.035 296.871 470.333 298.566C469.631 300.261 468.602 301.801 467.304 303.098C466.007 304.395 464.467 305.425 462.772 306.127C461.077 306.829 459.26 307.19 457.425 307.19Z" fill="#455A64"/>
<path d="M427.569 292.972C427.596 292.53 427.741 292.104 427.989 291.737L428.335 291.231L429.064 290.502L429.916 289.884C431.09 289.137 432.4 288.629 433.77 288.389C436.931 287.759 440.184 287.759 443.344 288.389C444.697 288.621 445.991 289.121 447.149 289.859C447.445 290.057 447.742 290.279 448.026 290.489L448.742 291.206C448.929 291.477 449.103 291.757 449.261 292.046C449.382 292.343 449.481 292.649 449.557 292.96H443.294C443.246 292.966 443.196 292.957 443.154 292.932C443.112 292.907 443.078 292.87 443.06 292.824C442.889 292.492 442.633 292.211 442.318 292.009C442.004 291.808 441.642 291.692 441.269 291.675C439.446 291.558 437.619 291.558 435.796 291.675C435.426 291.691 435.066 291.804 434.754 292.004C434.441 292.203 434.187 292.482 434.018 292.812C434.018 292.898 433.931 292.96 433.808 292.96H427.569V292.972Z" fill="white"/>
<path d="M427.569 296.468V294.183H433.746C433.746 294.319 433.746 294.467 433.746 294.628V296.468C433.763 296.576 433.754 296.686 433.72 296.79C433.686 296.893 433.629 296.988 433.551 297.065C433.474 297.142 433.38 297.2 433.277 297.233C433.173 297.267 433.063 297.276 432.955 297.259H428.347C428.24 297.276 428.13 297.268 428.027 297.234C427.924 297.201 427.83 297.143 427.754 297.065C427.678 296.988 427.621 296.893 427.589 296.789C427.557 296.685 427.55 296.575 427.569 296.468Z" fill="white"/>
<path d="M443.344 296.542C443.344 295.764 443.344 294.986 443.344 294.22H449.459V294.356C449.459 295.072 449.459 295.801 449.459 296.517C449.471 296.621 449.459 296.726 449.425 296.824C449.39 296.922 449.334 297.011 449.261 297.085C449.187 297.159 449.098 297.215 448.999 297.249C448.901 297.283 448.796 297.295 448.693 297.283H444.036C443.94 297.287 443.844 297.271 443.754 297.234C443.665 297.198 443.585 297.142 443.519 297.072C443.453 297.002 443.404 296.918 443.374 296.826C443.343 296.735 443.333 296.638 443.344 296.542Z" fill="white"/>
<path d="M300.668 542.29H292.194V547.824H300.668V542.29Z" fill="#455A64"/>
<path d="M311.65 541.919H303.176V547.453H311.65V541.919Z" fill="#455A64"/>
<path d="M322.644 541.548H314.17V547.082H322.644V541.548Z" fill="#455A64"/>
<path d="M333.638 541.19H325.164V546.724H333.638V541.19Z" fill="#455A64"/>
<path d="M344.632 540.82H336.158V546.354H344.632V540.82Z" fill="#455A64"/>
<path d="M355.626 540.461H347.152V545.996H355.626V540.461Z" fill="#455A64"/>
<path d="M366.621 540.091H358.146V545.625H366.621V540.091Z" fill="#455A64"/>
<path d="M377.614 539.72H369.14V545.254H377.614V539.72Z" fill="#455A64"/>
<path d="M388.596 539.362H380.122V544.896H388.596V539.362Z" fill="#455A64"/>
<path d="M390.683 550.998H290.106V544.266L390.683 541.462V550.998Z" fill="#37474F"/>
<path d="M488.839 524.452H322.817L349.215 400.85H515.237L488.839 524.452Z" fill="#455A64"/>
<path d="M494.979 524.452H328.957L355.355 400.85H521.377L494.979 524.452Z" fill="#37474F"/>
<path d="M435.69 462.431C440.195 458.268 440.964 451.774 437.408 447.926C433.852 444.078 427.318 444.333 422.813 448.495C418.309 452.658 417.54 459.152 421.096 463C424.652 466.848 431.186 466.593 435.69 462.431Z" fill="#263238"/>
<path d="M448.025 556.73H366.373V550.381L448.025 547.75V556.73Z" fill="#455A64"/>
<path d="M470.223 556.717H426.383L399.973 487.455H443.813L470.223 556.717Z" fill="#455A64"/>
<path d="M477.437 556.717H433.597L407.199 487.455H451.039L477.437 556.717Z" fill="#263238"/>
<path d="M287.006 558.41H202.822C195.645 558.41 206.033 537.954 232.258 530.11C258.484 522.266 295.283 550.739 287.006 558.41Z" fill="#37474F"/>
<path d="M253.975 558.41C254.042 556.079 254.429 553.768 255.123 551.542C255.802 549.298 256.752 547.145 257.952 545.131C259.16 543.108 260.668 541.279 262.424 539.708C264.161 538.131 266.164 536.876 268.341 536.002C267.439 536.743 266.414 537.237 265.586 538.065L264.351 539.164L263.116 540.4C261.555 542.028 260.187 543.831 259.039 545.773C257.874 547.715 256.874 549.753 256.05 551.863C255.212 553.996 254.518 556.183 253.975 558.41Z" fill="#263238"/>
<path d="M263.943 538.942C268.944 540.597 273.675 542.973 277.989 545.995C280.168 547.502 282.141 549.287 283.856 551.307C284.698 552.34 285.423 553.462 286.018 554.655C286.605 555.846 286.941 557.145 287.006 558.472C286.711 557.214 286.197 556.018 285.487 554.939C284.815 553.857 284.028 552.85 283.14 551.937C281.34 550.113 279.376 548.459 277.272 546.996C275.184 545.489 272.973 544.142 270.762 542.808C269.65 542.141 268.514 541.499 267.377 540.881C266.241 540.264 265.092 539.572 263.943 538.942Z" fill="#263238"/>
<path d="M293.034 277.803C292.308 284.692 289.681 291.245 285.449 296.729C281.216 302.213 275.542 306.414 269.061 308.862C262.58 311.31 255.547 311.91 248.745 310.594C241.943 309.278 235.641 306.098 230.541 301.409L211.802 304.201L221.165 288.031C218.826 282.334 217.942 276.144 218.596 270.02C219.076 265.11 220.522 260.344 222.852 255.995C225.181 251.646 228.348 247.801 232.17 244.681C235.992 241.562 240.393 239.229 245.12 237.817C249.848 236.406 254.807 235.943 259.714 236.456C264.621 236.97 269.378 238.448 273.71 240.808C278.043 243.167 281.866 246.36 284.96 250.203C288.054 254.046 290.356 258.463 291.736 263.2C293.115 267.937 293.544 272.9 292.997 277.803H293.034Z" fill="white"/>
<path d="M293.034 277.803C292.315 284.698 289.703 291.261 285.486 296.764C284.439 298.133 283.308 299.437 282.102 300.668C280.85 301.856 279.531 302.97 278.149 304.003C275.396 306.098 272.36 307.791 269.131 309.031C265.903 310.295 262.515 311.102 259.064 311.427C257.335 311.59 255.597 311.623 253.863 311.526C252.127 311.486 250.396 311.308 248.687 310.995C241.782 309.728 235.366 306.562 230.158 301.854L230.603 301.99L211.913 304.868L210.566 305.115L211.246 303.88L220.56 287.66V288.303C218.374 282.989 217.429 277.248 217.797 271.514C218.165 265.781 219.836 260.207 222.682 255.216C225.529 250.226 229.476 245.951 234.224 242.715C238.972 239.48 244.395 237.371 250.081 236.548C255.767 235.724 261.566 236.209 267.036 237.964C272.507 239.72 277.505 242.7 281.65 246.678C285.795 250.656 288.979 255.527 290.958 260.92C292.937 266.314 293.66 272.088 293.071 277.803H293.034ZM293.034 277.803C293.62 272.173 292.909 266.484 290.956 261.172C289.002 255.859 285.857 251.065 281.763 247.157C277.669 243.249 272.734 240.33 267.336 238.626C261.939 236.921 256.223 236.475 250.627 237.323C245.077 238.15 239.791 240.238 235.173 243.425C230.606 246.639 226.789 250.802 223.982 255.629C221.22 260.482 219.59 265.895 219.213 271.466C218.868 277.047 219.776 282.635 221.869 287.821L222.005 288.154L221.82 288.451L212.407 304.596L211.74 303.608L230.467 300.989H230.726L230.912 301.162C235.91 305.841 242.112 309.036 248.823 310.39C250.497 310.726 252.194 310.932 253.9 311.007C255.603 311.125 257.312 311.125 259.014 311.007C262.432 310.746 265.796 310.006 269.008 308.808C272.236 307.642 275.274 306.006 278.025 303.954C279.404 302.929 280.723 301.828 281.978 300.656C283.188 299.437 284.323 298.146 285.375 296.789C289.638 291.292 292.289 284.719 293.034 277.803Z" fill="#263238"/>
<path d="M276.691 275.048C276.693 275.945 276.43 276.823 275.933 277.57C275.436 278.317 274.729 278.9 273.901 279.245C273.073 279.59 272.161 279.682 271.281 279.508C270.4 279.335 269.591 278.904 268.956 278.27C268.321 277.637 267.888 276.829 267.712 275.949C267.536 275.07 267.625 274.157 267.968 273.328C268.311 272.499 268.892 271.79 269.638 271.292C270.383 270.793 271.26 270.527 272.158 270.527C272.752 270.525 273.341 270.641 273.891 270.867C274.441 271.094 274.941 271.427 275.362 271.847C275.784 272.267 276.118 272.766 276.346 273.315C276.574 273.864 276.691 274.453 276.691 275.048Z" fill="#263238"/>
<path d="M260.46 275.048C260.462 275.946 260.198 276.824 259.701 277.571C259.203 278.319 258.496 278.902 257.667 279.246C256.838 279.591 255.925 279.682 255.045 279.507C254.164 279.333 253.355 278.901 252.72 278.266C252.086 277.631 251.654 276.822 251.479 275.942C251.305 275.061 251.395 274.149 251.74 273.32C252.085 272.491 252.668 271.783 253.415 271.286C254.163 270.789 255.041 270.524 255.938 270.527C257.137 270.527 258.287 271.003 259.135 271.851C259.983 272.699 260.46 273.849 260.46 275.048Z" fill="#263238"/>
<path d="M244.241 275.048C244.243 275.945 243.979 276.823 243.483 277.57C242.986 278.317 242.279 278.9 241.451 279.245C240.623 279.59 239.711 279.682 238.83 279.508C237.95 279.335 237.141 278.904 236.506 278.27C235.871 277.637 235.438 276.829 235.262 275.949C235.086 275.07 235.175 274.157 235.518 273.328C235.86 272.499 236.442 271.79 237.187 271.292C237.933 270.793 238.81 270.527 239.707 270.527C240.908 270.527 242.059 271.003 242.909 271.85C243.758 272.698 244.238 273.848 244.241 275.048Z" fill="#263238"/>
<path d="M308.882 83.8388C309.609 90.7282 312.235 97.2805 316.467 102.765C320.699 108.25 326.371 112.452 332.851 114.902C339.331 117.352 346.364 117.955 353.166 116.642C359.968 115.33 366.272 112.155 371.375 107.47L390.078 110.212L380.727 94.0423C382.871 88.7768 383.787 83.0918 383.405 77.4192C383.023 71.7467 381.352 66.2359 378.521 61.3057C375.689 56.3755 371.771 52.1556 367.064 48.9668C362.358 45.7779 356.986 43.704 351.357 42.9027C345.728 42.1014 339.991 42.5937 334.581 44.3423C329.171 46.0908 324.231 49.0496 320.137 52.9937C316.042 56.9379 312.9 61.7636 310.95 67.1041C309 72.4446 308.293 78.1594 308.882 83.8141V83.8388Z" fill="white"/>
<path d="M320.074 52.9442C324.148 48.9268 329.09 45.8994 334.52 44.096C339.949 42.2925 345.721 41.7612 351.388 42.5431C357.096 43.2959 362.555 45.3452 367.348 48.5342C374.609 53.381 379.971 60.5886 382.527 68.9362C385.082 77.2838 384.673 86.258 381.369 94.3386V93.6962L390.658 109.94L391.337 111.175L389.991 110.965L371.289 108.1L371.734 107.964C366.526 112.672 360.11 115.838 353.204 117.105C351.496 117.418 349.765 117.596 348.028 117.636C346.299 117.727 344.565 117.694 342.84 117.537C335.912 116.877 329.303 114.311 323.743 110.125C322.361 109.092 321.041 107.978 319.79 106.79C318.586 105.556 317.456 104.253 316.405 102.887C310.806 95.5706 308.084 86.4549 308.755 77.2664C309.427 68.0779 313.445 59.4548 320.049 53.0307L320.074 52.9442ZM316.541 102.714C317.593 104.067 318.728 105.354 319.938 106.568C321.187 107.748 322.507 108.849 323.891 109.866C326.642 111.929 329.685 113.57 332.921 114.733C336.13 115.925 339.489 116.665 342.902 116.932C344.609 117.049 346.322 117.049 348.028 116.932C349.73 116.856 351.423 116.65 353.093 116.314C359.805 114.961 366.007 111.766 371.005 107.087L371.19 106.914H371.449L390.176 109.533L389.509 110.521L380.096 94.3756L379.911 94.0668L380.047 93.7333C382.144 88.568 383.043 82.9948 382.677 77.4321C382.312 71.8695 380.69 66.462 377.935 61.6159C375.131 56.7858 371.313 52.6217 366.743 49.4113C362.129 46.2263 356.847 44.139 351.302 43.309C343.973 42.1773 336.472 43.2753 329.775 46.4604C323.077 49.6454 317.492 54.7704 313.744 61.17C309.996 67.5696 308.259 74.9481 308.758 82.3476C309.256 89.747 311.968 96.8256 316.541 102.664V102.714Z" fill="#263238"/>
<path d="M349.412 84.5181V89.1875C349.423 89.6526 349.338 90.1149 349.165 90.5466C348.992 90.9783 348.733 91.3704 348.404 91.6994C348.075 92.0284 347.683 92.2873 347.251 92.4606C346.819 92.634 346.357 92.7181 345.892 92.708C344.959 92.7048 344.066 92.3328 343.406 91.6733C342.747 91.0137 342.375 90.1202 342.371 89.1875V81.7758C342.371 81.7016 342.445 81.7016 342.445 81.6275C342.445 81.5534 342.371 81.5534 342.371 81.4916C342.396 80.5658 342.775 79.6848 343.43 79.0299C344.085 78.375 344.966 77.996 345.892 77.9711C346.999 78.058 348.113 77.915 349.162 77.5509C350.212 77.1868 351.174 76.6096 351.99 75.8555C352.806 75.1014 353.456 74.1868 353.901 73.169C354.347 72.1513 354.576 71.0525 354.576 69.9417C354.576 68.831 354.347 67.7322 353.901 66.7145C353.456 65.6967 352.806 64.7821 351.99 64.028C351.174 63.2739 350.212 62.6967 349.162 62.3326C348.113 61.9685 346.999 61.8255 345.892 61.9124C344.497 61.9068 343.125 62.2693 341.915 62.9633C340.704 63.6574 339.699 64.6584 338.999 65.8653C338.759 66.274 338.439 66.6308 338.06 66.9147C337.68 67.1987 337.247 67.4041 336.788 67.5191C336.328 67.6341 335.849 67.6563 335.381 67.5845C334.912 67.5126 334.462 67.3481 334.058 67.1006C333.66 66.8662 333.312 66.5554 333.034 66.1861C332.756 65.8168 332.554 65.3962 332.439 64.9485C332.324 64.5009 332.299 64.0349 332.365 63.5775C332.431 63.12 332.586 62.6801 332.823 62.283C334.072 60.1138 335.842 58.2896 337.972 56.9745C340.103 55.6594 342.527 54.8948 345.026 54.7496C347.525 54.6043 350.021 55.0829 352.29 56.1423C354.558 57.2017 356.527 58.8086 358.02 60.8183C359.513 62.828 360.482 65.1775 360.841 67.6551C361.2 70.1327 360.937 72.6607 360.076 75.0115C359.215 77.3622 357.783 79.4619 355.908 81.1214C354.034 82.7809 351.776 83.9482 349.338 84.5181H349.412ZM349.412 100.243V101.479C349.424 101.944 349.341 102.407 349.169 102.84C348.996 103.272 348.737 103.665 348.408 103.994C348.078 104.324 347.686 104.583 347.253 104.755C346.821 104.928 346.357 105.011 345.892 104.999C344.958 104.999 344.063 104.628 343.403 103.968C342.742 103.308 342.371 102.412 342.371 101.479V100.243C342.384 99.3135 342.759 98.4255 343.417 97.768C344.074 97.1105 344.962 96.7355 345.892 96.7227C346.356 96.7177 346.816 96.8054 347.245 96.9806C347.674 97.1557 348.064 97.4149 348.392 97.7428C348.72 98.0707 348.979 98.4608 349.155 98.8901C349.33 99.3195 349.417 99.7795 349.412 100.243Z" fill="#37474F"/>
</svg>
