<svg width="57" height="56" viewBox="0 0 57 56" fill="none" xmlns="http://www.w3.org/2000/svg">
<g clip-path="url(#clip0_2003_757)">
<path d="M1.78943 7H5.87276L7.62276 14M7.62276 14L13.4561 37.3333H43.7894L49.6228 14H7.62276Z" stroke="#176B87" stroke-width="2.66667" stroke-linecap="round" stroke-linejoin="round"/>
<path d="M13.4561 49C15.3891 49 16.9561 47.433 16.9561 45.5C16.9561 43.567 15.3891 42 13.4561 42C11.5231 42 9.95605 43.567 9.95605 45.5C9.95605 47.433 11.5231 49 13.4561 49Z" stroke="#176B87" stroke-width="2.66667" stroke-linecap="round" stroke-linejoin="round"/>
<path d="M43.7894 49C45.7224 49 47.2894 47.433 47.2894 45.5C47.2894 43.567 45.7224 42 43.7894 42C41.8564 42 40.2894 43.567 40.2894 45.5C40.2894 47.433 41.8564 49 43.7894 49Z" stroke="#176B87" stroke-width="2.66667" stroke-linecap="round" stroke-linejoin="round"/>
</g>
<defs>
<clipPath id="clip0_2003_757">
<rect width="56" height="56" fill="white" transform="translate(0.5)"/>
</clipPath>
</defs>
</svg>
