<svg width="57" height="56" viewBox="0 0 57 56" fill="none" xmlns="http://www.w3.org/2000/svg">
<g clip-path="url(#clip0_2170_1131)">
<path d="M1.78906 7H5.8724L7.6224 14M7.6224 14L13.4557 37.3333H43.7891L49.6224 14H7.6224Z" stroke="white" stroke-width="2.66667" stroke-linecap="round" stroke-linejoin="round"/>
<path d="M13.4561 49C15.3891 49 16.9561 47.433 16.9561 45.5C16.9561 43.567 15.3891 42 13.4561 42C11.5231 42 9.95605 43.567 9.95605 45.5C9.95605 47.433 11.5231 49 13.4561 49Z" stroke="white" stroke-width="2.66667" stroke-linecap="round" stroke-linejoin="round"/>
<path d="M43.7891 49C45.7221 49 47.2891 47.433 47.2891 45.5C47.2891 43.567 45.7221 42 43.7891 42C41.8561 42 40.2891 43.567 40.2891 45.5C40.2891 47.433 41.8561 49 43.7891 49Z" stroke="white" stroke-width="2.66667" stroke-linecap="round" stroke-linejoin="round"/>
</g>
<defs>
<clipPath id="clip0_2170_1131">
<rect width="56" height="56" fill="white" transform="translate(0.5)"/>
</clipPath>
</defs>
</svg>
