<svg width="56" height="56" viewBox="0 0 56 56" fill="none" xmlns="http://www.w3.org/2000/svg">
<path d="M25.1996 11.2C23.0632 11.2 21.0696 11.7964 19.37 12.8352C19.1943 11.8955 18.8741 10.9888 18.4208 10.1472C20.5524 8.96755 22.955 8.36459 25.391 8.3979C27.8271 8.43121 30.2122 9.09964 32.3108 10.3371C34.4094 11.5746 36.1487 13.3383 37.3569 15.4539C38.565 17.5695 39.2002 19.9637 39.1996 22.4H46.2024C47.3158 22.4007 48.3834 22.8436 49.1704 23.6311C49.9575 24.4187 50.3996 25.4866 50.3996 26.6V43.4C50.3996 44.5139 49.9571 45.5822 49.1695 46.3698C48.3818 47.1575 47.3135 47.6 46.1996 47.6H29.3996C28.2857 47.6 27.2174 47.1575 26.4298 46.3698C25.6421 45.5822 25.1996 44.5139 25.1996 43.4V36.4C23.2519 36.4024 21.3252 35.9971 19.5436 35.21C19.58 34.258 19.5996 33.2584 19.5996 32.2V32.102C21.246 33.054 23.1584 33.6 25.1996 33.6V26.6C25.1996 25.4861 25.6421 24.4178 26.4298 23.6301C27.2174 22.8425 28.2857 22.4 29.3996 22.4H36.3996C36.3996 19.4296 35.2196 16.5808 33.1192 14.4804C31.0188 12.38 28.17 11.2 25.1996 11.2ZM38.9196 25.2C38.3689 27.8896 37.0404 30.3582 35.0991 32.2995C33.1578 34.2408 30.6892 35.5692 27.9996 36.12V43.4C27.9996 43.7713 28.1471 44.1274 28.4097 44.3899C28.6722 44.6525 29.0283 44.8 29.3996 44.8H46.1996C46.5709 44.8 46.927 44.6525 47.1896 44.3899C47.4521 44.1274 47.5996 43.7713 47.5996 43.4V26.6C47.5996 26.2287 47.4521 25.8726 47.1896 25.61C46.927 25.3475 46.5709 25.2 46.1996 25.2H38.9196ZM36.0468 25.2H29.3996C29.0283 25.2 28.6722 25.3475 28.4097 25.61C28.1471 25.8726 27.9996 26.2287 27.9996 26.6V33.2472C29.9367 32.7453 31.7043 31.7346 33.1192 30.3196C34.5342 28.9047 35.545 27.1371 36.0468 25.2ZM12.8264 5.94999C13.0588 6.15327 13.2175 6.42769 13.2778 6.73052C13.338 7.03335 13.2965 7.34761 13.1596 7.62439C13.1359 7.7063 13.1237 7.79111 13.1232 7.87638C13.1232 8.05278 13.168 8.38878 13.5908 8.80878C13.7952 9.01318 13.952 9.15879 14.1228 9.31839C14.2628 9.44719 14.4112 9.58158 14.5988 9.76639C14.9628 10.1136 15.3464 10.5224 15.6908 11.0348C16.4048 12.1072 16.7996 13.4484 16.7996 15.4C16.7996 17.7884 15.9148 19.824 14.5344 21.0728L14.7136 21.28C15.4976 22.2432 15.954 23.492 16.2396 24.724C16.7996 27.16 16.7996 30.0888 16.7996 32.13V32.2C16.7996 40.0036 15.7384 44.4304 14.5708 46.9616C13.9828 48.2356 13.3584 49.0476 12.818 49.5572C12.5983 49.768 12.356 49.9539 12.0956 50.1116C11.9764 50.1834 11.8519 50.2461 11.7232 50.2992C11.7232 50.2992 11.4068 50.4 11.1996 50.4C10.9924 50.4 10.676 50.2992 10.676 50.2992C10.5459 50.2492 10.4212 50.1863 10.3036 50.1116C10.0432 49.9539 9.80091 49.768 9.58121 49.5572C9.04081 49.0448 8.41641 48.2356 7.82841 46.9616C6.66081 44.4304 5.59961 40.0036 5.59961 32.2V32.13C5.59961 30.086 5.59961 27.16 6.15961 24.724C6.44521 23.492 6.90161 22.2432 7.68561 21.28C7.74161 21.21 7.80321 21.14 7.86481 21.0728C6.48441 19.824 5.59961 17.7884 5.59961 15.4C5.59961 14.4872 5.84321 13.398 6.17921 12.3928C6.51521 11.3848 6.98561 10.3432 7.52881 9.50319C8.17561 8.41119 9.08561 7.49559 9.79121 6.87959C10.1781 6.53937 10.5818 6.21884 11.0008 5.91919L11.0848 5.86319L11.11 5.84359L11.1184 5.83799L11.124 5.83519C11.3808 5.66404 11.6869 5.58251 11.9947 5.60327C12.3026 5.62403 12.595 5.74592 12.8264 5.94999ZM11.1996 19.6C12.2832 19.5972 13.9996 18.396 13.9996 15.4C13.9996 13.8516 13.6944 13.0928 13.3584 12.5888C13.1541 12.2944 12.9185 12.0231 12.6556 11.7796L12.3084 11.4548C12.0816 11.242 11.8156 10.9956 11.6084 10.7912C11.3022 10.4881 11.0393 10.1442 10.8272 9.76919C10.4708 10.1439 10.1571 10.5571 9.89201 11.0012C9.50001 11.6032 9.11921 12.4292 8.83641 13.2804C8.54521 14.1484 8.39961 14.9156 8.39961 15.4C8.39961 18.4016 10.1216 19.6 11.1996 19.6ZM9.85561 23.0496C9.45801 23.534 9.12761 24.3068 8.88681 25.354C8.40521 27.4484 8.39961 30.0804 8.39961 32.2C8.39961 39.7964 9.43841 43.7696 10.3708 45.7884C10.6788 46.452 10.9672 46.8944 11.1996 47.1884C11.5304 46.7562 11.8087 46.2863 12.0284 45.7884C12.9608 43.7696 13.9996 39.7964 13.9996 32.2C13.9996 30.0804 13.994 27.4484 13.5096 25.354C13.2688 24.3068 12.9384 23.534 12.5436 23.0496C12.3892 22.8403 12.1861 22.6718 11.9519 22.5586C11.7177 22.4454 11.4595 22.391 11.1996 22.4H11.194C10.935 22.3917 10.6778 22.4465 10.4446 22.5596C10.2115 22.6728 10.0093 22.8409 9.85561 23.0496Z" fill="white"/>
</svg>
