<svg width="57" height="56" viewBox="0 0 57 56" fill="none" xmlns="http://www.w3.org/2000/svg">
<g clip-path="url(#clip0_2003_753)">
<path d="M25.1883 49.3976L25.1824 49.3959L19.8449 47.8471L19.8449 47.8471L19.837 47.8449C19.8305 47.843 19.8276 47.841 19.8258 47.8396C19.8233 47.8376 19.8196 47.8337 19.816 47.8272C19.809 47.8143 19.8055 47.7971 19.8109 47.7764C19.8111 47.7757 19.8112 47.7751 19.8114 47.7745L31.7528 6.64006L31.7529 6.64007L31.7551 6.63201C31.757 6.62549 31.759 6.62265 31.7604 6.62082C31.7625 6.61834 31.7663 6.61461 31.7728 6.61104C31.7858 6.60398 31.803 6.60056 31.8237 6.60594C31.8243 6.60609 31.8249 6.60625 31.8255 6.60642L37.1551 8.15291L37.1551 8.15294L37.163 8.15517C37.1695 8.15701 37.1724 8.15898 37.1742 8.16047C37.1767 8.16248 37.1804 8.16634 37.184 8.17288C37.191 8.18579 37.1944 8.20299 37.1891 8.22371C37.1889 8.22431 37.1888 8.22492 37.1886 8.22553L25.2488 49.3542C25.2487 49.3546 25.2486 49.3551 25.2484 49.3556C25.2414 49.3779 25.2295 49.3892 25.219 49.3949C25.2134 49.398 25.2086 49.3993 25.205 49.3997C25.2022 49.4 25.1972 49.4003 25.1883 49.3976ZM14.1992 39.8548L14.1992 39.8548L14.1922 39.8624C14.1872 39.8678 14.184 39.8694 14.1822 39.8702C14.1797 39.8713 14.1756 39.8726 14.1697 39.8728C14.1637 39.8729 14.157 39.872 14.1501 39.8694C14.1438 39.867 14.1355 39.8626 14.1257 39.8534L14.1252 39.853L1.51645 28.0317L1.51647 28.0317L1.51017 28.0259C1.50492 28.0211 1.5027 28.0173 1.50122 28.0138C1.49936 28.0095 1.4978 28.0032 1.4978 27.9956C1.4978 27.9881 1.49936 27.9818 1.50122 27.9775C1.5027 27.974 1.50492 27.9702 1.51017 27.9654L1.5102 27.9654L1.51618 27.9598L14.1249 16.1473L14.1257 16.1466C14.1507 16.1231 14.1826 16.1275 14.1992 16.1452L18.0055 20.2052L18.0054 20.2053L18.0133 20.2135C18.0185 20.2189 18.02 20.2224 18.0209 20.2246C18.022 20.2277 18.023 20.2325 18.0227 20.2389C18.0224 20.2454 18.0208 20.2519 18.018 20.2578C18.0156 20.2629 18.0116 20.2691 18.0036 20.2762C18.0035 20.2763 18.0035 20.2764 18.0034 20.2764L10.077 27.2492L9.22348 28L10.077 28.7508L18.0034 35.7236C18.0101 35.7295 18.0131 35.7343 18.0149 35.7382C18.0171 35.7429 18.0189 35.7493 18.0192 35.7571C18.0199 35.7728 18.0149 35.7847 18.0059 35.7943L18.0055 35.7948L14.1992 39.8548ZM55.4898 28.0346L55.4835 28.0405L42.8823 39.8547C42.8818 39.8553 42.8812 39.8558 42.8806 39.8562C42.8649 39.87 42.8486 39.8744 42.8344 39.874C42.8318 39.8739 42.8294 39.8736 42.8273 39.8733C42.8236 39.8726 42.8206 39.8717 42.8186 39.8707C42.8162 39.8696 42.8127 39.8678 42.8078 39.8624L42.8078 39.8623L42.8008 39.8548L38.9945 35.7948L38.9946 35.7948L38.9867 35.7865C38.9815 35.7811 38.9799 35.7776 38.9791 35.7754C38.9787 35.7742 38.9782 35.7727 38.9779 35.7709C38.9774 35.7682 38.9771 35.7649 38.9773 35.7611C38.9776 35.7546 38.9792 35.7481 38.982 35.7422C38.9844 35.7371 38.9885 35.7308 38.9966 35.7236L46.923 28.7508L47.776 28.0005L46.9235 27.2496L38.9966 20.2677C38.9965 20.2676 38.9965 20.2676 38.9964 20.2675C38.9898 20.2616 38.9869 20.2569 38.9851 20.2531C38.9829 20.2484 38.9811 20.242 38.9807 20.2342C38.98 20.2184 38.9851 20.2065 38.9941 20.197L38.9945 20.1965L42.7948 16.1428C42.8065 16.1314 42.8202 16.1256 42.8369 16.1251C42.8544 16.1246 42.866 16.1301 42.8746 16.1381C42.8746 16.1382 42.8747 16.1382 42.8748 16.1383L55.4833 27.968L55.4832 27.9681L55.4898 27.9741C55.4908 27.9751 55.4917 27.976 55.4925 27.9768C55.4959 27.9804 55.4976 27.9834 55.4988 27.9862C55.5006 27.9906 55.5022 27.9968 55.5022 28.0044C55.5022 28.012 55.5006 28.0182 55.4988 28.0226C55.4973 28.026 55.4951 28.0298 55.4898 28.0347L55.4898 28.0346Z" stroke="#176B87" stroke-width="2"/>
</g>
<defs>
<clipPath id="clip0_2003_753">
<rect width="56" height="56" fill="white" transform="translate(0.5)"/>
</clipPath>
</defs>
</svg>
