<svg width="56" height="56" viewBox="0 0 56 56" fill="none" xmlns="http://www.w3.org/2000/svg">
<path d="M25.2001 11.2C23.0637 11.2 21.0701 11.7964 19.3705 12.8352C19.1948 11.8955 18.8746 10.9888 18.4213 10.1472C20.5529 8.96755 22.9555 8.36459 25.3915 8.3979C27.8276 8.43121 30.2127 9.09964 32.3113 10.3371C34.4099 11.5746 36.1492 13.3383 37.3574 15.4539C38.5655 17.5695 39.2007 19.9637 39.2001 22.4H46.2029C47.3163 22.4007 48.3839 22.8436 49.1709 23.6311C49.958 24.4187 50.4001 25.4866 50.4001 26.6V43.4C50.4001 44.5139 49.9576 45.5822 49.1699 46.3698C48.3823 47.1575 47.314 47.6 46.2001 47.6H29.4001C28.2862 47.6 27.2179 47.1575 26.4302 46.3698C25.6426 45.5822 25.2001 44.5139 25.2001 43.4V36.4C23.2524 36.4024 21.3257 35.9971 19.5441 35.21C19.5805 34.258 19.6001 33.2584 19.6001 32.2V32.102C21.2465 33.054 23.1589 33.6 25.2001 33.6V26.6C25.2001 25.4861 25.6426 24.4178 26.4302 23.6301C27.2179 22.8425 28.2862 22.4 29.4001 22.4H36.4001C36.4001 19.4296 35.2201 16.5808 33.1197 14.4804C31.0193 12.38 28.1705 11.2 25.2001 11.2ZM38.9201 25.2C38.3694 27.8896 37.0409 30.3582 35.0996 32.2995C33.1583 34.2408 30.6897 35.5692 28.0001 36.12V43.4C28.0001 43.7713 28.1476 44.1274 28.4101 44.3899C28.6727 44.6525 29.0288 44.8 29.4001 44.8H46.2001C46.5714 44.8 46.9275 44.6525 47.19 44.3899C47.4526 44.1274 47.6001 43.7713 47.6001 43.4V26.6C47.6001 26.2287 47.4526 25.8726 47.19 25.61C46.9275 25.3475 46.5714 25.2 46.2001 25.2H38.9201ZM36.0473 25.2H29.4001C29.0288 25.2 28.6727 25.3475 28.4101 25.61C28.1476 25.8726 28.0001 26.2287 28.0001 26.6V33.2472C29.9372 32.7453 31.7048 31.7346 33.1197 30.3196C34.5347 28.9047 35.5454 27.1371 36.0473 25.2ZM12.8269 5.94999C13.0593 6.15327 13.218 6.42769 13.2783 6.73052C13.3385 7.03335 13.297 7.34761 13.1601 7.62439C13.1364 7.7063 13.1241 7.79111 13.1237 7.87638C13.1237 8.05278 13.1685 8.38878 13.5913 8.80878C13.7957 9.01318 13.9525 9.15879 14.1233 9.31839C14.2633 9.44719 14.4117 9.58158 14.5993 9.76639C14.9633 10.1136 15.3469 10.5224 15.6913 11.0348C16.4053 12.1072 16.8001 13.4484 16.8001 15.4C16.8001 17.7884 15.9153 19.824 14.5349 21.0728L14.7141 21.28C15.4981 22.2432 15.9545 23.492 16.2401 24.724C16.8001 27.16 16.8001 30.0888 16.8001 32.13V32.2C16.8001 40.0036 15.7389 44.4304 14.5713 46.9616C13.9833 48.2356 13.3589 49.0476 12.8185 49.5572C12.5988 49.768 12.3565 49.9539 12.0961 50.1116C11.9769 50.1834 11.8524 50.2461 11.7237 50.2992C11.7237 50.2992 11.4073 50.4 11.2001 50.4C10.9929 50.4 10.6765 50.2992 10.6765 50.2992C10.5464 50.2492 10.4217 50.1863 10.3041 50.1116C10.0437 49.9539 9.8014 49.768 9.5817 49.5572C9.0413 49.0448 8.4169 48.2356 7.8289 46.9616C6.6613 44.4304 5.6001 40.0036 5.6001 32.2V32.13C5.6001 30.086 5.6001 27.16 6.1601 24.724C6.4457 23.492 6.9021 22.2432 7.6861 21.28C7.7421 21.21 7.8037 21.14 7.8653 21.0728C6.4849 19.824 5.6001 17.7884 5.6001 15.4C5.6001 14.4872 5.8437 13.398 6.1797 12.3928C6.5157 11.3848 6.9861 10.3432 7.5293 9.50319C8.1761 8.41119 9.0861 7.49559 9.7917 6.87959C10.1785 6.53937 10.5823 6.21884 11.0013 5.91919L11.0853 5.86319L11.1105 5.84359L11.1189 5.83799L11.1245 5.83519C11.3812 5.66404 11.6873 5.58251 11.9952 5.60327C12.3031 5.62403 12.5955 5.74592 12.8269 5.94999ZM11.2001 19.6C12.2837 19.5972 14.0001 18.396 14.0001 15.4C14.0001 13.8516 13.6949 13.0928 13.3589 12.5888C13.1546 12.2944 12.919 12.0231 12.6561 11.7796L12.3089 11.4548C12.0821 11.242 11.8161 10.9956 11.6089 10.7912C11.3027 10.4881 11.0398 10.1442 10.8277 9.76919C10.4713 10.1439 10.1576 10.5571 9.8925 11.0012C9.5005 11.6032 9.1197 12.4292 8.8369 13.2804C8.5457 14.1484 8.4001 14.9156 8.4001 15.4C8.4001 18.4016 10.1221 19.6 11.2001 19.6ZM9.8561 23.0496C9.4585 23.534 9.1281 24.3068 8.8873 25.354C8.4057 27.4484 8.4001 30.0804 8.4001 32.2C8.4001 39.7964 9.4389 43.7696 10.3713 45.7884C10.6793 46.452 10.9677 46.8944 11.2001 47.1884C11.5309 46.7562 11.8091 46.2863 12.0289 45.7884C12.9613 43.7696 14.0001 39.7964 14.0001 32.2C14.0001 30.0804 13.9945 27.4484 13.5101 25.354C13.2693 24.3068 12.9389 23.534 12.5441 23.0496C12.3897 22.8403 12.1866 22.6718 11.9524 22.5586C11.7182 22.4454 11.46 22.391 11.2001 22.4H11.1945C10.9355 22.3917 10.6783 22.4465 10.4451 22.5596C10.212 22.6728 10.0098 22.8409 9.8561 23.0496Z" fill="#176B87"/>
</svg>
