<svg width="57" height="56" viewBox="0 0 57 56" fill="none" xmlns="http://www.w3.org/2000/svg">
<g clip-path="url(#clip0_2170_1128)">
<path d="M25.1886 49.3976L25.1827 49.3959L19.8452 47.8471L19.8452 47.8471L19.8372 47.8449C19.8307 47.843 19.8279 47.841 19.826 47.8396C19.8236 47.8376 19.8198 47.8337 19.8163 47.8272C19.8092 47.8143 19.8058 47.7971 19.8111 47.7764C19.8113 47.7757 19.8115 47.7751 19.8116 47.7745L31.7531 6.64006L31.7531 6.64007L31.7554 6.63201C31.7572 6.62549 31.7592 6.62265 31.7607 6.62082C31.7627 6.61834 31.7666 6.61461 31.7731 6.61104C31.786 6.60398 31.8032 6.60056 31.824 6.60594C31.8245 6.60609 31.8251 6.60625 31.8257 6.60642L37.1553 8.15291L37.1553 8.15294L37.1632 8.15517C37.1698 8.15701 37.1726 8.15898 37.1744 8.16047C37.1769 8.16248 37.1806 8.16634 37.1842 8.17288C37.1913 8.18579 37.1947 8.20299 37.1893 8.22371C37.1892 8.22431 37.189 8.22492 37.1888 8.22553L25.2491 49.3542C25.2489 49.3546 25.2488 49.3551 25.2487 49.3556C25.2417 49.3779 25.2297 49.3892 25.2192 49.3949C25.2137 49.398 25.2089 49.3993 25.2053 49.3997C25.2025 49.4 25.1975 49.4003 25.1886 49.3976ZM14.1994 39.8548L14.1994 39.8548L14.1925 39.8624C14.1875 39.8678 14.1842 39.8694 14.1825 39.8702C14.18 39.8713 14.1758 39.8726 14.1699 39.8728C14.164 39.8729 14.1572 39.872 14.1503 39.8694C14.144 39.867 14.1357 39.8626 14.1259 39.8534L14.1254 39.853L1.51669 28.0317L1.51672 28.0317L1.51042 28.0259C1.50516 28.0211 1.50294 28.0173 1.50146 28.0138C1.4996 28.0095 1.49805 28.0032 1.49805 27.9956C1.49805 27.9881 1.4996 27.9818 1.50146 27.9775C1.50294 27.974 1.50516 27.9702 1.51042 27.9654L1.51044 27.9654L1.51642 27.9598L14.1252 16.1473L14.1259 16.1466C14.151 16.1231 14.1828 16.1275 14.1994 16.1452L18.0057 20.2052L18.0056 20.2053L18.0136 20.2135C18.0187 20.2189 18.0203 20.2224 18.0211 20.2246C18.0222 20.2277 18.0233 20.2325 18.0229 20.2389C18.0226 20.2454 18.021 20.2519 18.0182 20.2578C18.0158 20.2629 18.0118 20.2691 18.0039 20.2762C18.0038 20.2763 18.0037 20.2764 18.0036 20.2764L10.0772 27.2492L9.22372 28L10.0772 28.7508L18.0036 35.7236C18.0103 35.7295 18.0133 35.7343 18.0151 35.7382C18.0173 35.7429 18.0191 35.7493 18.0195 35.7571C18.0202 35.7728 18.0152 35.7847 18.0062 35.7943L18.0057 35.7948L14.1994 39.8548ZM55.49 28.0346L55.4838 28.0405L42.8826 39.8547C42.882 39.8553 42.8815 39.8558 42.8809 39.8562C42.8651 39.87 42.8489 39.8744 42.8346 39.874C42.832 39.8739 42.8297 39.8736 42.8276 39.8733C42.8238 39.8726 42.8209 39.8717 42.8188 39.8707C42.8164 39.8696 42.813 39.8678 42.808 39.8624L42.808 39.8623L42.801 39.8548L38.9948 35.7948L38.9948 35.7948L38.9869 35.7865C38.9817 35.7811 38.9802 35.7776 38.9794 35.7754C38.9789 35.7742 38.9785 35.7727 38.9781 35.7709C38.9776 35.7682 38.9773 35.7649 38.9775 35.7611C38.9778 35.7546 38.9795 35.7481 38.9822 35.7422C38.9847 35.7371 38.9887 35.7308 38.9969 35.7236L46.9232 28.7508L47.7762 28.0005L46.9237 27.2496L38.9969 20.2677C38.9968 20.2676 38.9967 20.2676 38.9966 20.2675C38.9901 20.2616 38.9871 20.2569 38.9853 20.2531C38.9831 20.2484 38.9813 20.242 38.981 20.2342C38.9803 20.2184 38.9853 20.2065 38.9943 20.197L38.9948 20.1965L42.7951 16.1428C42.8067 16.1314 42.8205 16.1256 42.8371 16.1251C42.8546 16.1246 42.8662 16.1301 42.8748 16.1381C42.8749 16.1382 42.875 16.1382 42.875 16.1383L55.4835 27.968L55.4835 27.9681L55.4901 27.9741C55.4911 27.9751 55.492 27.976 55.4928 27.9768C55.4961 27.9804 55.4978 27.9834 55.499 27.9862C55.5009 27.9906 55.5024 27.9968 55.5024 28.0044C55.5024 28.012 55.5009 28.0182 55.499 28.0226C55.4975 28.026 55.4953 28.0298 55.4901 28.0347L55.49 28.0346Z" stroke="white" stroke-width="2"/>
</g>
<defs>
<clipPath id="clip0_2170_1128">
<rect width="56" height="56" fill="white" transform="translate(0.5)"/>
</clipPath>
</defs>
</svg>
