<svg width="38" height="38" viewBox="0 0 38 38" fill="none" xmlns="http://www.w3.org/2000/svg">
<path d="M19.4167 36.8334C29.0357 36.8334 36.8334 29.0357 36.8334 19.4167C36.8334 9.79772 29.0357 2 19.4167 2C9.79772 2 2 9.79772 2 19.4167C2 29.0357 9.79772 36.8334 19.4167 36.8334Z" stroke="black" stroke-opacity="0.6" stroke-width="2" stroke-linecap="round" stroke-linejoin="round"/>
<path d="M31.608 31.6084L28.9955 28.9959M7.22461 7.22507L9.83711 9.83757" stroke="black" stroke-opacity="0.6" stroke-width="1.5" stroke-linecap="round" stroke-linejoin="round"/>
<path d="M10.708 25.5125L11.4543 22.9M11.4543 22.9L14.1913 13.3208L16.9284 22.9M11.4543 22.9H16.9284M17.6747 25.5125L16.9284 22.9M28.9955 19.4167C28.9955 23.7708 25.8762 25.5125 22.0289 25.5125V13.3208C25.8762 13.3208 28.9955 15.0625 28.9955 19.4167Z" stroke="black" stroke-opacity="0.6" stroke-width="2" stroke-linecap="round" stroke-linejoin="round"/>
</svg>
