<svg width="38" height="34" viewBox="0 0 38 34" fill="none" xmlns="http://www.w3.org/2000/svg">
<g clip-path="url(#clip0_443_1053)">
<path d="M37.2688 33.4177H0.727883C0.534058 33.4177 0.34817 33.3408 0.211115 33.2041C0.0740603 33.0674 -0.00292969 32.882 -0.00292969 32.6887V0.728972C-0.00292969 0.535637 0.0740603 0.35022 0.211115 0.213511C0.34817 0.076803 0.534058 0 0.727883 0H37.2688C37.4626 0 37.6485 0.076803 37.7856 0.213511C37.9226 0.35022 37.9996 0.535637 37.9996 0.728972V32.6887C37.9996 32.882 37.9226 33.0674 37.7856 33.2041C37.6485 33.3408 37.4626 33.4177 37.2688 33.4177ZM1.46124 31.9578H36.538V1.45794H1.46124V31.9578Z" fill="black" fill-opacity="0.6"/>
<path d="M37.2688 6.10907H0.727883C0.534058 6.10907 0.348178 6.03226 0.211123 5.89556C0.0740681 5.75885 -0.00292969 5.57343 -0.00292969 5.3801C-0.00292969 5.18676 0.0740681 5.00134 0.211123 4.86463C0.348178 4.72793 0.534058 4.65112 0.727883 4.65112H37.2688C37.4626 4.65112 37.6485 4.72793 37.7856 4.86463C37.9226 5.00134 37.9996 5.18676 37.9996 5.3801C37.9996 5.57343 37.9226 5.75885 37.7856 5.89556C37.6485 6.03226 37.4626 6.10907 37.2688 6.10907Z" fill="black" fill-opacity="0.6"/>
<path d="M27.9733 3.78444H27.6351C27.4413 3.78444 27.2554 3.70764 27.1183 3.57093C26.9813 3.43422 26.9043 3.24881 26.9043 3.05547C26.9043 2.86214 26.9813 2.67672 27.1183 2.54001C27.2554 2.4033 27.4413 2.32651 27.6351 2.32651H27.9733C28.1671 2.32651 28.353 2.4033 28.4901 2.54001C28.6271 2.67672 28.7041 2.86214 28.7041 3.05547C28.7041 3.24881 28.6271 3.43422 28.4901 3.57093C28.353 3.70764 28.1671 3.78444 27.9733 3.78444Z" fill="black" fill-opacity="0.6"/>
<path d="M30.8479 3.78444H30.5091C30.3153 3.78444 30.1294 3.70764 29.9924 3.57093C29.8553 3.43422 29.7783 3.24881 29.7783 3.05547C29.7783 2.86214 29.8553 2.67672 29.9924 2.54001C30.1294 2.4033 30.3153 2.32651 30.5091 2.32651H30.8479C31.0418 2.32651 31.2277 2.4033 31.3647 2.54001C31.5018 2.67672 31.5788 2.86214 31.5788 3.05547C31.5788 3.24881 31.5018 3.43422 31.3647 3.57093C31.2277 3.70764 31.0418 3.78444 30.8479 3.78444Z" fill="black" fill-opacity="0.6"/>
<path d="M33.7229 3.78444H33.3841C33.1903 3.78444 33.0044 3.70764 32.8674 3.57093C32.7303 3.43422 32.6533 3.24881 32.6533 3.05547C32.6533 2.86214 32.7303 2.67672 32.8674 2.54001C33.0044 2.4033 33.1903 2.32651 33.3841 2.32651H33.7229C33.9168 2.32651 34.1027 2.4033 34.2397 2.54001C34.3768 2.67672 34.4538 2.86214 34.4538 3.05547C34.4538 3.24881 34.3768 3.43422 34.2397 3.57093C34.1027 3.70764 33.9168 3.78444 33.7229 3.78444Z" fill="black" fill-opacity="0.6"/>
<path d="M12.5181 27.6718H9.81272C9.61901 27.6718 9.43321 27.5951 9.29618 27.4585C9.15914 27.3219 9.08207 27.1367 9.0819 26.9435C9.08157 26.9128 9.08348 26.8822 9.0876 26.8519L9.20729 25.8949C8.67782 25.7452 8.16772 25.5342 7.68739 25.2663L7.094 26.0288C7.03496 26.1043 6.96159 26.1674 6.87808 26.2146C6.79456 26.2619 6.70254 26.2922 6.60727 26.3039C6.512 26.3157 6.41534 26.3086 6.32283 26.283C6.23031 26.2575 6.14374 26.214 6.06807 26.1551C6.04431 26.1367 6.02167 26.1169 6.0003 26.0957L4.08713 24.188C4.0192 24.1204 3.9653 24.04 3.92853 23.9516C3.89175 23.8631 3.87282 23.7683 3.87282 23.6726C3.87282 23.5768 3.89175 23.482 3.92853 23.3936C3.9653 23.3051 4.0192 23.2248 4.08713 23.1571C4.10857 23.1356 4.13142 23.1156 4.15553 23.0971L4.91928 22.5046C4.6496 22.0256 4.43705 21.5168 4.28599 20.9885L3.32718 21.1079C3.22422 21.121 3.11965 21.1121 3.02042 21.0817C2.92119 21.0514 2.82958 21.0003 2.75169 20.9318C2.6738 20.8634 2.61141 20.7792 2.56869 20.6849C2.52596 20.5905 2.50388 20.4882 2.50391 20.3846V17.6848C2.50398 17.5813 2.52614 17.479 2.5689 17.3847C2.61166 17.2904 2.67404 17.2062 2.7519 17.1378C2.82977 17.0694 2.92133 17.0183 3.02052 16.9879C3.11971 16.9575 3.22424 16.9485 3.32718 16.9615L4.28599 17.0809C4.43705 16.5526 4.6496 16.0438 4.91928 15.5648L4.15553 14.9723C4.07985 14.9135 4.01654 14.8403 3.96922 14.7571C3.92189 14.6738 3.89148 14.5821 3.87972 14.4871C3.86796 14.3922 3.87508 14.2958 3.90067 14.2036C3.92626 14.1113 3.96982 14.025 4.02887 13.9496C4.04735 13.9259 4.06723 13.9033 4.0884 13.882L5.99967 11.9705C6.13673 11.8338 6.32261 11.757 6.51644 11.757C6.71026 11.757 6.89615 11.8338 7.03321 11.9705C7.05453 11.9917 7.07441 12.0143 7.09273 12.0381L7.68676 12.8006C8.16692 12.5315 8.67703 12.3195 9.20666 12.1689L9.08696 11.2119C9.07383 11.1091 9.0828 11.0047 9.11327 10.9057C9.14375 10.8067 9.19502 10.7153 9.26369 10.6376C9.33237 10.5599 9.41685 10.4977 9.51152 10.4551C9.60619 10.4125 9.70887 10.3905 9.81272 10.3907H12.5181C12.6219 10.3906 12.7245 10.4127 12.8191 10.4553C12.9137 10.4979 12.9981 10.5601 13.0667 10.6378C13.1353 10.7155 13.1866 10.8069 13.217 10.9059C13.2474 11.0048 13.2564 11.1092 13.2433 11.2119L13.1236 12.1689C13.6532 12.3195 14.1633 12.5316 14.6435 12.8006L15.2369 12.0381C15.2956 11.9624 15.3687 11.8989 15.452 11.8513C15.5353 11.8038 15.6271 11.773 15.7224 11.7609C15.8176 11.7487 15.9142 11.7554 16.0069 11.7806C16.0995 11.8057 16.1862 11.8488 16.2622 11.9073C16.2871 11.9269 16.3108 11.948 16.3331 11.9705L18.2463 13.8795C18.3142 13.9471 18.3681 14.0275 18.4049 14.1159C18.4416 14.2044 18.4606 14.2992 18.4606 14.3949C18.4606 14.4907 18.4416 14.5855 18.4049 14.674C18.3681 14.7624 18.3142 14.8427 18.2463 14.9104C18.2247 14.933 18.2016 14.9541 18.1772 14.9736L17.4122 15.5661C17.6821 16.045 17.8947 16.5538 18.0455 17.0821L19.0043 16.9628C19.1072 16.9496 19.2118 16.9584 19.311 16.9887C19.4103 17.019 19.5019 17.07 19.5798 17.1384C19.6577 17.2068 19.7201 17.2909 19.7628 17.3852C19.8055 17.4796 19.8276 17.5819 19.8276 17.6854V20.3853C19.8275 20.4887 19.8054 20.591 19.7626 20.6853C19.7198 20.7796 19.6574 20.8637 19.5796 20.932C19.5017 21.0004 19.4101 21.0514 19.3109 21.0818C19.2117 21.1121 19.1072 21.121 19.0043 21.1079L18.0455 20.9885C17.8947 21.5169 17.6821 22.0257 17.4122 22.5046L18.1772 23.0971C18.3299 23.216 18.429 23.3905 18.4528 23.5823C18.4765 23.7741 18.423 23.9674 18.3039 24.1198C18.2845 24.1439 18.2633 24.1665 18.2406 24.1874L16.3274 26.0964C16.2596 26.1641 16.179 26.2179 16.0903 26.2546C16.0017 26.2913 15.9066 26.3101 15.8106 26.3101C15.7146 26.3101 15.6196 26.2913 15.5309 26.2546C15.4422 26.2179 15.3617 26.1641 15.2939 26.0964C15.2728 26.0749 15.253 26.0523 15.2343 26.0288L14.6473 25.2619C14.1672 25.5312 13.6571 25.7432 13.1274 25.8936L13.2471 26.85C13.2602 26.9527 13.2512 27.0571 13.2208 27.1561C13.1903 27.2551 13.139 27.3465 13.0703 27.4242C13.0017 27.5019 12.9172 27.5642 12.8225 27.6067C12.7278 27.6493 12.6252 27.6713 12.5213 27.6712L12.5181 27.6718ZM10.6404 26.2139H11.6904L11.5923 25.4242C11.5688 25.2394 11.6173 25.0527 11.7276 24.9024C11.838 24.7521 12.0019 24.6497 12.1857 24.6163C12.9807 24.4737 13.7355 24.1615 14.3984 23.701C14.552 23.5949 14.7405 23.5514 14.9251 23.5796C15.1098 23.6078 15.2767 23.7055 15.3914 23.8526L15.8822 24.4843L16.625 23.7433L15.9955 23.2531C15.8482 23.1387 15.7504 22.9724 15.7223 22.7883C15.6941 22.6041 15.7378 22.4163 15.8442 22.2633C16.3055 21.6016 16.6184 20.8486 16.7618 20.0555C16.7953 19.8724 16.8979 19.709 17.0484 19.5989C17.1989 19.4888 17.386 19.4404 17.5712 19.4636L18.3634 19.5622V18.5142L17.5712 18.6127C17.3859 18.6356 17.199 18.587 17.0485 18.4768C16.898 18.3667 16.7955 18.2033 16.7618 18.0202C16.6184 17.2273 16.3054 16.4745 15.8442 15.8131C15.7377 15.66 15.6941 15.472 15.7222 15.2878C15.7504 15.1036 15.8482 14.9371 15.9955 14.8226L16.625 14.3305L15.8815 13.5895L15.3914 14.2212C15.2767 14.3683 15.1098 14.466 14.9251 14.4942C14.7405 14.5224 14.552 14.479 14.3984 14.3728C13.7355 13.9124 12.9807 13.6001 12.1857 13.4575C12.0019 13.4241 11.838 13.3217 11.7276 13.1714C11.6173 13.0211 11.5688 12.8344 11.5923 12.6496L11.6923 11.86H10.6417L10.7405 12.6496C10.7636 12.8344 10.7149 13.0211 10.6045 13.1713C10.494 13.3216 10.3302 13.4239 10.1465 13.4575C9.35012 13.5997 8.59401 13.9119 7.92995 14.3728C7.77637 14.479 7.58787 14.5224 7.40319 14.4942C7.21851 14.466 7.05167 14.3683 6.93694 14.2212L6.44678 13.5895L5.70139 14.3305L6.33468 14.8201C6.48172 14.9349 6.57917 15.1014 6.60708 15.2856C6.63498 15.4697 6.59123 15.6575 6.48477 15.8106C6.02351 16.472 5.71053 17.2248 5.56714 18.0177C5.53363 18.2009 5.43111 18.3643 5.28061 18.4745C5.13011 18.5847 4.94304 18.6332 4.75779 18.6102L3.96554 18.5117V19.5596L4.75779 19.4611C4.94304 19.4381 5.13011 19.4866 5.28061 19.5968C5.43111 19.707 5.53363 19.8704 5.56714 20.0536C5.71017 20.8478 6.02315 21.6019 6.48477 22.2645C6.59128 22.4176 6.63489 22.6055 6.60662 22.7897C6.57834 22.9738 6.48033 23.1402 6.33278 23.2544L5.70393 23.7446L6.44678 24.4855L6.93758 23.8539C7.05219 23.7068 7.21892 23.6092 7.40349 23.581C7.58807 23.5528 7.77647 23.5962 7.92995 23.7023C8.59413 24.1629 9.35019 24.4752 10.1465 24.6176C10.3302 24.651 10.4942 24.7534 10.6047 24.9036C10.7152 25.0539 10.7638 25.2406 10.7405 25.4255L10.6404 26.2139Z" fill="black" fill-opacity="0.6"/>
<path d="M11.164 23.6441C10.2497 23.6441 9.35588 23.3737 8.59563 22.867C7.83537 22.3603 7.24283 21.6401 6.89292 20.7975C6.54302 19.9549 6.45147 19.0277 6.62985 18.1332C6.80823 17.2387 7.24853 16.417 7.89507 15.7721C8.54161 15.1272 9.36536 14.688 10.2621 14.5101C11.1589 14.3322 12.0885 14.4235 12.9332 14.7725C13.7779 15.1215 14.5 15.7126 15.0079 16.4709C15.5159 17.2292 15.7871 18.1208 15.7871 19.0328C15.7871 20.2558 15.3 21.4287 14.433 22.2935C13.566 23.1583 12.3901 23.6441 11.164 23.6441ZM11.164 15.8826C10.539 15.8826 9.92805 16.0674 9.40838 16.4138C8.8887 16.7602 8.48365 17.2525 8.24447 17.8284C8.00529 18.4044 7.94271 19.0382 8.06464 19.6497C8.18658 20.2611 8.48754 20.8228 8.9295 21.2636C9.37145 21.7044 9.93453 22.0046 10.5475 22.1263C11.1605 22.2479 11.7959 22.1855 12.3734 21.9469C12.9508 21.7083 13.4444 21.3043 13.7916 20.7859C14.1388 20.2676 14.3242 19.6581 14.3242 19.0347C14.3225 18.1992 13.989 17.3984 13.3967 16.8077C12.8045 16.2169 12.0016 15.8842 11.164 15.8826Z" fill="black" fill-opacity="0.6"/>
<path d="M28.0793 19.7612C26.161 19.7612 24.3428 19.2874 22.9642 18.427C21.4804 17.5003 20.6641 16.2319 20.6641 14.8561C20.6641 13.4803 21.4804 12.2137 22.9642 11.2851C24.3409 10.4248 26.1572 9.95102 28.0793 9.95102C30.0013 9.95102 31.8157 10.4248 33.195 11.2851C34.6782 12.2125 35.4957 13.4809 35.4957 14.8561C35.4957 16.2313 34.6782 17.4985 33.195 18.427C31.8163 19.2893 30 19.7612 28.0793 19.7612ZM28.0793 11.409C24.8533 11.409 22.1263 12.9882 22.1263 14.8561C22.1263 16.724 24.8495 18.3032 28.0793 18.3032C31.3091 18.3032 34.0322 16.724 34.0322 14.8561C34.0322 12.9882 31.3091 11.4102 28.0793 11.4102V11.409Z" fill="black" fill-opacity="0.6"/>
<path d="M28.0799 23.9391C25.4657 23.9391 23.1016 23.0712 21.7546 21.6158C21.044 20.847 20.6641 19.9557 20.6641 19.0328C20.6641 18.8395 20.7411 18.654 20.8781 18.5173C21.0152 18.3806 21.2011 18.3038 21.3949 18.3038C21.5887 18.3038 21.7746 18.3806 21.9117 18.5173C22.0487 18.654 22.1257 18.8395 22.1257 19.0328C22.1257 19.5887 22.3613 20.1262 22.8261 20.6272C23.885 21.7705 25.8976 22.4806 28.0786 22.4806C30.2597 22.4806 32.2717 21.7705 33.3312 20.6272C33.796 20.1262 34.0316 19.5887 34.0316 19.0328C34.0316 18.8395 34.1086 18.654 34.2456 18.5173C34.3827 18.3806 34.5686 18.3038 34.7624 18.3038C34.9562 18.3038 35.1421 18.3806 35.2792 18.5173C35.4162 18.654 35.4932 18.8395 35.4932 19.0328C35.4932 19.9538 35.117 20.847 34.4046 21.6158C33.0588 23.0712 30.6929 23.9391 28.0799 23.9391Z" fill="black" fill-opacity="0.6"/>
<path d="M28.0799 28.1159C26.1617 28.1159 24.3435 27.6415 22.9648 26.7811C21.481 25.8544 20.6641 24.586 20.6641 23.2102C20.6641 23.0168 20.7411 22.8314 20.8781 22.6947C21.0152 22.558 21.2011 22.4812 21.3949 22.4812C21.5887 22.4812 21.7746 22.558 21.9117 22.6947C22.0487 22.8314 22.1257 23.0168 22.1257 23.2102C22.1257 25.0781 24.852 26.6579 28.0786 26.6579C31.3053 26.6579 34.0316 25.0787 34.0316 23.2102C34.0316 23.0168 34.1086 22.8314 34.2456 22.6947C34.3827 22.558 34.5686 22.4812 34.7624 22.4812C34.9562 22.4812 35.1421 22.558 35.2792 22.6947C35.4162 22.8314 35.4932 23.0168 35.4932 23.2102C35.4932 24.586 34.6763 25.8525 33.1925 26.7811C31.8169 27.6427 30.0007 28.1159 28.0799 28.1159Z" fill="black" fill-opacity="0.6"/>
<path d="M34.763 23.9398C34.5692 23.9398 34.3833 23.863 34.2463 23.7263C34.1092 23.5895 34.0322 23.4041 34.0322 23.2108V14.858C34.0322 14.7622 34.0511 14.6674 34.0879 14.579C34.1246 14.4906 34.1784 14.4102 34.2463 14.3425C34.3141 14.2748 34.3947 14.2211 34.4834 14.1845C34.572 14.1479 34.6671 14.129 34.763 14.129C34.859 14.129 34.954 14.1479 35.0427 14.1845C35.1314 14.2211 35.2119 14.2748 35.2798 14.3425C35.3477 14.4102 35.4015 14.4906 35.4382 14.579C35.4749 14.6674 35.4939 14.7622 35.4939 14.858V23.2108C35.4939 23.3065 35.4749 23.4013 35.4382 23.4898C35.4015 23.5782 35.3477 23.6586 35.2798 23.7263C35.2119 23.7939 35.1314 23.8477 35.0427 23.8843C34.954 23.9209 34.859 23.9398 34.763 23.9398Z" fill="black" fill-opacity="0.6"/>
<path d="M21.3968 23.9398C21.203 23.9398 21.0171 23.863 20.8801 23.7263C20.743 23.5895 20.666 23.4041 20.666 23.2108V14.858C20.666 14.6646 20.743 14.4792 20.8801 14.3425C21.0171 14.2058 21.203 14.129 21.3968 14.129C21.5907 14.129 21.7765 14.2058 21.9136 14.3425C22.0507 14.4792 22.1276 14.6646 22.1276 14.858V23.2108C22.1276 23.3065 22.1087 23.4013 22.072 23.4898C22.0353 23.5782 21.9815 23.6586 21.9136 23.7263C21.8457 23.7939 21.7652 23.8477 21.6765 23.8843C21.5878 23.9209 21.4928 23.9398 21.3968 23.9398Z" fill="black" fill-opacity="0.6"/>
</g>
<defs>
<clipPath id="clip0_443_1053">
<rect width="38" height="33.4176" fill="white"/>
</clipPath>
</defs>
</svg>
