<svg width="39" height="39" viewBox="0 0 39 39" fill="none" xmlns="http://www.w3.org/2000/svg">
<path d="M6.4375 18.2052H8.8125C9.1404 18.2052 9.40625 17.8431 9.40625 17.3966C9.40625 16.9501 9.1404 16.5881 8.8125 16.5881H6.4375C6.1096 16.5881 5.84375 16.9501 5.84375 17.3966C5.84375 17.8431 6.1096 18.2052 6.4375 18.2052Z" fill="white" fill-opacity="0.6"/>
<path d="M10.766 17.9706C10.8787 18.1159 11.033 18.2051 11.1875 18.2051C11.3417 18.2051 11.4963 18.1159 11.609 17.9706C11.7157 17.817 11.7812 17.6066 11.7812 17.3966C11.7812 17.1862 11.7157 16.9762 11.609 16.8226C11.5554 16.7496 11.4902 16.6931 11.4131 16.6524C11.2704 16.5719 11.1043 16.5719 10.9617 16.6524C10.8845 16.6931 10.8251 16.7496 10.766 16.8226C10.659 16.9762 10.5938 17.1862 10.5938 17.3966C10.5938 17.5016 10.6114 17.6066 10.641 17.7037C10.6709 17.8009 10.7123 17.8897 10.766 17.9706Z" fill="white" fill-opacity="0.6"/>
<path d="M11.1875 21.4392H8.8125C8.4846 21.4392 8.21875 21.8008 8.21875 22.2477C8.21875 22.6946 8.4846 23.0562 8.8125 23.0562H11.1875C11.5154 23.0562 11.7812 22.6946 11.7812 22.2477C11.7812 21.8008 11.5154 21.4392 11.1875 21.4392Z" fill="white" fill-opacity="0.6"/>
<path d="M6.85904 21.6737C6.79961 21.6011 6.74017 21.5442 6.66306 21.504C6.4433 21.3824 6.18208 21.455 6.01596 21.6737C5.96233 21.7543 5.92087 21.8356 5.89101 21.9406C5.86143 22.0377 5.84375 22.1427 5.84375 22.2477C5.84375 22.4657 5.90289 22.6678 6.01596 22.8217C6.12874 22.9749 6.27718 23.0562 6.4375 23.0562C6.59782 23.0562 6.74626 22.9749 6.85904 22.8217C6.97182 22.6678 7.03125 22.4657 7.03125 22.2477C7.03125 22.1427 7.01328 22.0377 6.9837 21.9406C6.95384 21.8435 6.91238 21.7543 6.85904 21.6737Z" fill="white" fill-opacity="0.6"/>
<path d="M8.8125 26.2903H6.4375C6.1096 26.2903 5.84375 26.6519 5.84375 27.0988C5.84375 27.5457 6.1096 27.9073 6.4375 27.9073H8.8125C9.1404 27.9073 9.40625 27.5457 9.40625 27.0988C9.40625 26.6519 9.1404 26.2903 8.8125 26.2903Z" fill="white" fill-opacity="0.6"/>
<path d="M10.766 26.525C10.659 26.6781 10.5938 26.889 10.5938 27.099C10.5938 27.204 10.6114 27.309 10.641 27.4061C10.6709 27.5032 10.7123 27.5917 10.766 27.673C10.8787 27.8262 11.0272 27.9075 11.1875 27.9075C11.3478 27.9075 11.4963 27.8262 11.609 27.673C11.6624 27.5917 11.7038 27.5032 11.7395 27.4061C11.7694 27.309 11.7812 27.204 11.7812 27.099C11.7812 26.889 11.7157 26.6781 11.609 26.525C11.3893 26.2257 10.9915 26.2257 10.766 26.525Z" fill="white" fill-opacity="0.6"/>
<path d="M36.7188 6.88599H18.9062C18.5784 6.88599 18.3125 7.248 18.3125 7.6945V15.7796H14.75V12.5456C14.75 10.3237 11.3643 9.31152 8.21875 9.31152C5.07315 9.31152 1.6875 10.3237 1.6875 12.5456V17.3966V22.2477V27.0988C1.6875 29.3206 5.07315 30.3328 8.21875 30.3328C11.3643 30.3328 14.75 29.3206 14.75 27.0988V25.4817H18.3125V33.5668C18.3125 34.0137 18.5784 34.3753 18.9062 34.3753H36.7188C37.0466 34.3753 37.3125 34.0137 37.3125 33.5668V7.6945C37.3125 7.248 37.0466 6.88599 36.7188 6.88599ZM36.125 8.50301V13.3541H19.5V8.50301H36.125ZM13.525 22.3306C13.5164 22.3456 13.502 22.3626 13.4907 22.3786C13.477 22.398 13.4657 22.4167 13.448 22.4373C13.4344 22.4532 13.4152 22.4705 13.3993 22.487C13.3774 22.5097 13.3577 22.5318 13.3314 22.5556C13.312 22.573 13.2871 22.5915 13.2654 22.6095C13.2362 22.6335 13.2093 22.6572 13.1758 22.682C13.1501 22.7011 13.1187 22.7208 13.0905 22.7402C13.0542 22.765 13.0205 22.7897 12.98 22.815C12.9511 22.833 12.9167 22.8514 12.8858 22.8695C12.8397 22.8966 12.7957 22.9235 12.745 22.9507C12.7078 22.9706 12.6646 22.9905 12.6249 23.0104C12.5742 23.0358 12.5259 23.0612 12.4711 23.0864C12.4223 23.1089 12.3672 23.1308 12.3151 23.1529C12.2625 23.1753 12.213 23.198 12.1571 23.22C12.1028 23.2414 12.0423 23.2617 11.9849 23.2826C11.9245 23.3046 11.8671 23.327 11.8032 23.3484C11.7425 23.3687 11.6755 23.3875 11.6117 23.4071C11.5447 23.4276 11.4806 23.4489 11.4102 23.4685C11.3427 23.4874 11.2688 23.5043 11.1982 23.5222C11.1246 23.5409 11.0541 23.5605 10.9771 23.578C10.8909 23.5977 10.7979 23.6148 10.7074 23.6328C10.6398 23.6463 10.5757 23.6611 10.5057 23.6736C10.4194 23.689 10.3265 23.7016 10.2366 23.7154C10.155 23.728 10.0766 23.742 9.99199 23.7532C9.91078 23.7639 9.8234 23.7714 9.73944 23.7808C9.64032 23.7918 9.54411 23.8043 9.44115 23.8132C9.29195 23.8261 9.13543 23.8349 8.97815 23.8431C8.9347 23.8454 8.89433 23.8495 8.85026 23.8513C8.64638 23.8601 8.4359 23.8647 8.21875 23.8647C4.74207 23.8647 2.96342 22.6843 2.875 22.2477V19.363C2.88243 19.3681 2.89153 19.3722 2.89899 19.3772C3.04341 19.4744 3.19815 19.5656 3.36228 19.6511C3.40301 19.6723 3.44737 19.691 3.48919 19.7115C3.61806 19.7746 3.75062 19.8351 3.88924 19.8915C3.95117 19.9167 4.01455 19.9405 4.07823 19.9644C4.20847 20.0132 4.34191 20.0591 4.47886 20.1025C4.54304 20.1227 4.6062 20.1436 4.67172 20.1627C4.84089 20.212 5.01423 20.2571 5.19118 20.2984C5.22478 20.3063 5.25681 20.3157 5.29066 20.3233C5.50183 20.3705 5.71796 20.4113 5.93707 20.4474C6.00092 20.458 6.06565 20.4662 6.13004 20.4759C6.29004 20.4998 6.4508 20.5214 6.61337 20.5396C6.69063 20.5482 6.76761 20.556 6.84523 20.5634C7.00487 20.5785 7.16468 20.5907 7.32533 20.6005C7.39597 20.6048 7.46605 20.61 7.53672 20.6133C7.76445 20.6239 7.99214 20.6307 8.21875 20.6307C8.44576 20.6307 8.67392 20.6238 8.90208 20.6132C8.97152 20.61 9.04037 20.6049 9.10977 20.6006C9.27126 20.5908 9.43198 20.5786 9.59249 20.5634C9.67 20.556 9.74694 20.5482 9.82409 20.5396C9.98728 20.5213 10.1487 20.4995 10.3093 20.4756C10.3728 20.466 10.4368 20.4579 10.4998 20.4475C10.7193 20.4113 10.9357 20.3705 11.1472 20.3232C11.1805 20.3157 11.2119 20.3065 11.2449 20.2988C11.4227 20.2573 11.5968 20.2119 11.7667 20.1624C11.8314 20.1435 11.8939 20.1229 11.9574 20.1028C12.0953 20.0592 12.2296 20.013 12.3606 19.9638C12.4236 19.9402 12.4863 19.9167 12.5475 19.8918C12.6883 19.8345 12.823 19.7731 12.9538 19.7089C12.9934 19.6894 13.0355 19.6717 13.0741 19.6516C13.2392 19.5657 13.3947 19.4739 13.5399 19.3762C13.5471 19.3714 13.5557 19.3675 13.5628 19.3626L13.5634 22.2198C13.5632 22.2259 13.5626 22.2317 13.5626 22.2378C13.5598 22.2511 13.551 22.2669 13.5453 22.2815C13.5389 22.2977 13.5351 22.313 13.525 22.3306ZM3.36228 14.8C3.40301 14.8212 3.44737 14.8399 3.48919 14.8604C3.61806 14.9236 3.75062 14.984 3.88924 15.0404C3.95117 15.0656 4.01455 15.0894 4.07823 15.1133C4.20847 15.1622 4.34191 15.2081 4.47886 15.2514C4.54304 15.2717 4.6062 15.2925 4.67172 15.3116C4.84089 15.3609 5.01423 15.406 5.19118 15.4473C5.22478 15.4552 5.25681 15.4647 5.29066 15.4722C5.50183 15.5194 5.71796 15.5602 5.93707 15.5964C6.00092 15.6069 6.06565 15.6152 6.13004 15.6248C6.29004 15.6487 6.4508 15.6703 6.61337 15.6885C6.69063 15.6971 6.76761 15.7049 6.84523 15.7123C7.00487 15.7274 7.16468 15.7396 7.32533 15.7494C7.39597 15.7537 7.46605 15.7589 7.53672 15.7622C7.76445 15.7728 7.99214 15.7796 8.21875 15.7796C8.44576 15.7796 8.67392 15.7727 8.90208 15.7621C8.97152 15.7589 9.04037 15.7538 9.10977 15.7495C9.27126 15.7397 9.43198 15.7275 9.59249 15.7123C9.67 15.7049 9.74694 15.6971 9.82409 15.6885C9.98728 15.6702 10.1487 15.6485 10.3093 15.6245C10.3728 15.615 10.4368 15.6069 10.4998 15.5965C10.7193 15.5603 10.9357 15.5194 11.1472 15.4721C11.1805 15.4647 11.2119 15.4554 11.2449 15.4477C11.4227 15.4062 11.5968 15.3608 11.7667 15.3113C11.8314 15.2924 11.8939 15.2718 11.9574 15.2518C12.0953 15.2082 12.2296 15.1619 12.3606 15.1128C12.4236 15.0891 12.4863 15.0656 12.5475 15.0407C12.6883 14.9834 12.823 14.922 12.9538 14.8578C12.9934 14.8383 13.0355 14.8206 13.0741 14.8005C13.2392 14.7146 13.3947 14.6228 13.5399 14.5251C13.5471 14.5203 13.5557 14.5164 13.5628 14.5116L13.5632 16.5833C13.5632 16.585 13.5625 16.5864 13.5625 16.5881C13.5625 16.5898 13.5632 16.5912 13.5632 16.5929L13.5634 17.369C13.5632 17.375 13.5627 17.3807 13.5626 17.3867C13.5593 17.4024 13.5496 17.4208 13.5422 17.4382C13.5364 17.452 13.5337 17.4645 13.5252 17.4793C13.5143 17.4985 13.4968 17.5199 13.4814 17.5406C13.4702 17.5558 13.4622 17.5699 13.4486 17.5858C13.4311 17.6063 13.4071 17.6285 13.3857 17.65C13.3676 17.6681 13.3527 17.6855 13.3319 17.7043C13.3109 17.7233 13.2838 17.7434 13.2599 17.7631C13.2321 17.7858 13.207 17.808 13.1754 17.8314C13.1519 17.8488 13.123 17.8669 13.0974 17.8846C13.0591 17.911 13.023 17.9372 12.98 17.9641C12.9531 17.9809 12.9209 17.9979 12.8922 18.0149C12.844 18.0432 12.7977 18.0716 12.7444 18.1001C12.7175 18.1145 12.6859 18.1287 12.6577 18.1431C12.5968 18.1742 12.5368 18.2053 12.4697 18.2361C12.4398 18.2499 12.4053 18.2631 12.3742 18.2768C12.3032 18.308 12.2329 18.3392 12.1555 18.3697C12.1205 18.3835 12.0807 18.3965 12.0443 18.4101C11.9654 18.4396 11.8874 18.4693 11.8023 18.4977C11.7569 18.5129 11.7062 18.5268 11.659 18.5416C11.5769 18.5673 11.4966 18.5935 11.4092 18.6178C11.3597 18.6316 11.3049 18.6439 11.2537 18.6572C11.1624 18.6809 11.0728 18.7052 10.9761 18.7272C10.9282 18.7381 10.8754 18.7472 10.8262 18.7577C10.7203 18.7801 10.6156 18.8029 10.5036 18.823C10.4373 18.8348 10.3654 18.8441 10.297 18.855C10.1965 18.871 10.0982 18.8882 9.99308 18.902C9.88751 18.9159 9.77492 18.9263 9.66464 18.9379C9.58966 18.9458 9.5183 18.9555 9.44115 18.9622C9.29159 18.9752 9.13467 18.9839 8.97699 18.9921C8.93394 18.9944 8.89393 18.9984 8.85026 19.0003C8.64638 19.009 8.4359 19.0136 8.21875 19.0136C4.74207 19.0136 2.96342 17.8336 2.875 17.3966V14.512C2.88243 14.517 2.89153 14.5211 2.89899 14.5262C3.04341 14.6233 3.19815 14.7145 3.36228 14.8ZM8.21875 10.9285C11.6619 10.9285 13.4395 12.0858 13.5601 12.544C13.5565 12.5585 13.5475 12.5752 13.5405 12.5912C13.5342 12.6057 13.5304 12.6192 13.5212 12.6348C13.5104 12.6532 13.4935 12.6735 13.4788 12.6932C13.4667 12.7093 13.4573 12.7245 13.4425 12.7415C13.4235 12.7634 13.3983 12.7868 13.3749 12.8098C13.3581 12.8263 13.3441 12.8422 13.325 12.8593C13.2965 12.8847 13.2616 12.9113 13.2281 12.9377C13.2078 12.9537 13.1905 12.9692 13.1684 12.9854C13.1304 13.0134 13.0858 13.0422 13.0423 13.0708C13.0185 13.0865 12.9977 13.1019 12.9723 13.1177C12.9236 13.1479 12.8683 13.1785 12.8136 13.2091C12.7876 13.2236 12.7646 13.2381 12.7373 13.2527C12.6797 13.2834 12.6152 13.314 12.5516 13.3445C12.5212 13.3592 12.494 13.3739 12.4622 13.3884C12.3959 13.4187 12.3228 13.4484 12.2506 13.4782C12.2158 13.4925 12.1843 13.5072 12.1481 13.5214C12.0751 13.55 11.9952 13.5776 11.9165 13.6053C11.8751 13.6199 11.837 13.6351 11.7941 13.6493C11.7108 13.6771 11.6205 13.7032 11.5313 13.7295C11.4875 13.7424 11.4471 13.7562 11.4019 13.7687C11.3071 13.7951 11.2052 13.8193 11.1041 13.8438C11.0586 13.8549 11.0165 13.8669 10.9698 13.8776C10.8679 13.9006 10.7589 13.9212 10.651 13.942C10.5993 13.952 10.5511 13.9634 10.498 13.9728C10.3944 13.9912 10.2838 14.0066 10.1751 14.0228C10.1116 14.0322 10.0517 14.0432 9.98641 14.0518C9.88142 14.0656 9.76955 14.0759 9.65993 14.0873C9.58488 14.0952 9.51334 14.1048 9.43611 14.1115C9.31192 14.1222 9.18059 14.1289 9.05078 14.1363C8.98228 14.1403 8.9173 14.1463 8.84725 14.1494C8.64428 14.158 8.43485 14.1626 8.21875 14.1626C8.00146 14.1626 7.7908 14.1579 7.58677 14.1492C4.53717 14.0183 2.96998 12.9632 2.87692 12.5503C2.98187 12.0967 4.7587 10.9285 8.21875 10.9285ZM8.21875 28.7158C4.74207 28.7158 2.96342 27.5354 2.875 27.0988V24.2145C2.88319 24.2201 2.89326 24.2246 2.90153 24.2302C3.04453 24.3262 3.19775 24.4164 3.36007 24.501C3.40442 24.5241 3.45262 24.5446 3.49829 24.5669C3.62342 24.6279 3.75175 24.6865 3.88605 24.7413C3.95045 24.7675 4.01629 24.7923 4.08258 24.8171C4.21029 24.8649 4.34107 24.9099 4.47527 24.9524C4.54123 24.9733 4.6062 24.9946 4.67357 25.0143C4.84064 25.0629 5.01183 25.1074 5.18644 25.1483C5.22191 25.1566 5.25573 25.1665 5.29149 25.1745C5.50234 25.2217 5.71818 25.2624 5.93699 25.2985C6.00089 25.3091 6.06565 25.3174 6.13004 25.3269C6.29004 25.3509 6.4508 25.3724 6.61337 25.3906C6.69063 25.3993 6.76761 25.4071 6.84523 25.4144C7.00487 25.4296 7.16468 25.4418 7.32533 25.4515C7.39597 25.4559 7.46605 25.4611 7.53672 25.4644C7.76445 25.4749 7.99214 25.4817 8.21875 25.4817C8.44576 25.4817 8.67392 25.4749 8.90208 25.4643C8.97152 25.4611 9.04037 25.4559 9.10977 25.4517C9.27126 25.4419 9.43198 25.4296 9.59249 25.4144C9.67 25.407 9.74694 25.3993 9.82409 25.3906C9.98728 25.3724 10.1487 25.3506 10.3093 25.3266C10.3728 25.3171 10.4368 25.309 10.4998 25.2986C10.7193 25.2624 10.9357 25.2215 11.1472 25.1742C11.1805 25.1668 11.2119 25.1575 11.2449 25.1498C11.4227 25.1083 11.5968 25.063 11.7667 25.0134C11.8314 24.9946 11.8939 24.9739 11.9574 24.9539C12.0953 24.9103 12.2296 24.864 12.3606 24.8149C12.4236 24.7913 12.4863 24.7678 12.5475 24.7428C12.6883 24.6856 12.823 24.6242 12.9538 24.5599C12.9934 24.5405 13.0355 24.5228 13.0741 24.5027C13.2392 24.4168 13.3947 24.3249 13.5399 24.2272C13.5471 24.2224 13.5557 24.2185 13.5628 24.2137L13.5629 24.6707L13.5625 24.6732L13.5629 24.6758L13.5634 27.0869C13.4741 27.5354 11.6954 28.7158 8.21875 28.7158ZM14.75 23.8647V22.2477V17.3966H18.3125V23.8647H14.75ZM19.5 32.7583V14.9711H36.125V32.7583H19.5Z" fill="white" fill-opacity="0.6"/>
<path d="M22.4688 11.7371H27.2188C27.5466 11.7371 27.8125 11.3751 27.8125 10.9286C27.8125 10.4821 27.5466 10.1201 27.2188 10.1201H22.4688C22.1409 10.1201 21.875 10.4821 21.875 10.9286C21.875 11.3751 22.1409 11.7371 22.4688 11.7371Z" fill="white" fill-opacity="0.6"/>
<path d="M31.9688 11.7371H33.1562C33.4841 11.7371 33.75 11.3751 33.75 10.9286C33.75 10.4821 33.4841 10.1201 33.1562 10.1201H31.9688C31.6409 10.1201 31.375 10.4821 31.375 10.9286C31.375 11.3751 31.6409 11.7371 31.9688 11.7371Z" fill="white" fill-opacity="0.6"/>
<path d="M21.875 24.6732H26.625C26.9529 24.6732 27.2188 24.3116 27.2188 23.8647V17.3966C27.2188 16.9501 26.9529 16.5881 26.625 16.5881H21.875C21.5471 16.5881 21.2812 16.9501 21.2812 17.3966V23.8647C21.2812 24.3116 21.5471 24.6732 21.875 24.6732ZM22.4688 18.2052H26.0312V23.0562H22.4688V18.2052Z" fill="white" fill-opacity="0.6"/>
<path d="M33.75 26.2903H21.875C21.5471 26.2903 21.2812 26.6519 21.2812 27.0988V30.3328C21.2812 30.7797 21.5471 31.1413 21.875 31.1413H33.75C34.0779 31.1413 34.3438 30.7797 34.3438 30.3328V27.0988C34.3438 26.6519 34.0779 26.2903 33.75 26.2903ZM33.1563 29.5243H22.4688V27.9073H33.1563V29.5243Z" fill="white" fill-opacity="0.6"/>
<path d="M33.75 16.5881H29C28.6721 16.5881 28.4062 16.9501 28.4062 17.3966C28.4062 17.8431 28.6721 18.2052 29 18.2052H33.75C34.0779 18.2052 34.3438 17.8431 34.3438 17.3966C34.3438 16.9501 34.0779 16.5881 33.75 16.5881Z" fill="white" fill-opacity="0.6"/>
<path d="M33.75 19.8223H29C28.6721 19.8223 28.4062 20.1843 28.4062 20.6308C28.4062 21.0773 28.6721 21.4393 29 21.4393H33.75C34.0779 21.4393 34.3438 21.0773 34.3438 20.6308C34.3438 20.1843 34.0779 19.8223 33.75 19.8223Z" fill="white" fill-opacity="0.6"/>
<path d="M33.75 23.0562H29C28.6721 23.0562 28.4062 23.4178 28.4062 23.8647C28.4062 24.3116 28.6721 24.6732 29 24.6732H33.75C34.0779 24.6732 34.3438 24.3116 34.3438 23.8647C34.3438 23.4178 34.0779 23.0562 33.75 23.0562Z" fill="white" fill-opacity="0.6"/>
</svg>
