<svg width="38" height="38" viewBox="0 0 38 38" fill="none" xmlns="http://www.w3.org/2000/svg">
<path d="M5.9375 17.7872H8.3125C8.6404 17.7872 8.90625 17.4252 8.90625 16.9787C8.90625 16.5322 8.6404 16.1702 8.3125 16.1702H5.9375C5.6096 16.1702 5.34375 16.5322 5.34375 16.9787C5.34375 17.4252 5.6096 17.7872 5.9375 17.7872Z" fill="black" fill-opacity="0.6"/>
<path d="M10.266 17.5527C10.3787 17.698 10.533 17.7872 10.6875 17.7872C10.8417 17.7872 10.9963 17.698 11.109 17.5527C11.2157 17.3991 11.2812 17.1887 11.2812 16.9787C11.2812 16.7683 11.2157 16.5583 11.109 16.4047C11.0554 16.3317 10.9902 16.2752 10.9131 16.2345C10.7704 16.154 10.6043 16.154 10.4617 16.2345C10.3845 16.2752 10.3251 16.3317 10.266 16.4047C10.159 16.5583 10.0938 16.7683 10.0938 16.9787C10.0938 17.0837 10.1114 17.1887 10.141 17.2858C10.1709 17.383 10.2123 17.4718 10.266 17.5527Z" fill="black" fill-opacity="0.6"/>
<path d="M10.6875 21.0213H8.3125C7.9846 21.0213 7.71875 21.3829 7.71875 21.8298C7.71875 22.2767 7.9846 22.6383 8.3125 22.6383H10.6875C11.0154 22.6383 11.2812 22.2767 11.2812 21.8298C11.2812 21.3829 11.0154 21.0213 10.6875 21.0213Z" fill="black" fill-opacity="0.6"/>
<path d="M6.35904 21.2558C6.29961 21.1831 6.24017 21.1263 6.16306 21.086C5.9433 20.9644 5.68208 21.0371 5.51596 21.2558C5.46233 21.3363 5.42087 21.4176 5.39101 21.5226C5.36143 21.6197 5.34375 21.7248 5.34375 21.8298C5.34375 22.0477 5.40289 22.2498 5.51596 22.4038C5.62874 22.557 5.77718 22.6383 5.9375 22.6383C6.09782 22.6383 6.24626 22.557 6.35904 22.4038C6.47182 22.2498 6.53125 22.0477 6.53125 21.8298C6.53125 21.7248 6.51328 21.6197 6.4837 21.5226C6.45384 21.4255 6.41238 21.3363 6.35904 21.2558Z" fill="black" fill-opacity="0.6"/>
<path d="M8.3125 25.8723H5.9375C5.6096 25.8723 5.34375 26.234 5.34375 26.6809C5.34375 27.1277 5.6096 27.4894 5.9375 27.4894H8.3125C8.6404 27.4894 8.90625 27.1277 8.90625 26.6809C8.90625 26.234 8.6404 25.8723 8.3125 25.8723Z" fill="black" fill-opacity="0.6"/>
<path d="M10.266 26.107C10.159 26.2602 10.0938 26.471 10.0938 26.681C10.0938 26.7861 10.1114 26.8911 10.141 26.9882C10.1709 27.0853 10.2123 27.1737 10.266 27.2551C10.3787 27.4082 10.5272 27.4896 10.6875 27.4896C10.8478 27.4896 10.9963 27.4082 11.109 27.2551C11.1624 27.1737 11.2038 27.0853 11.2395 26.9882C11.2694 26.8911 11.2812 26.7861 11.2812 26.681C11.2812 26.471 11.2157 26.2602 11.109 26.107C10.8893 25.8078 10.4915 25.8078 10.266 26.107Z" fill="black" fill-opacity="0.6"/>
<path d="M36.2188 6.46808H18.4062C18.0784 6.46808 17.8125 6.83009 17.8125 7.27659V15.3617H14.25V12.1277C14.25 9.90583 10.8643 8.89361 7.71875 8.89361C4.57315 8.89361 1.1875 9.90583 1.1875 12.1277V16.9787V21.8298V26.6808C1.1875 28.9027 4.57315 29.9149 7.71875 29.9149C10.8643 29.9149 14.25 28.9027 14.25 26.6808V25.0638H17.8125V33.1489C17.8125 33.5958 18.0784 33.9574 18.4062 33.9574H36.2188C36.5466 33.9574 36.8125 33.5958 36.8125 33.1489V7.27659C36.8125 6.83009 36.5466 6.46808 36.2188 6.46808ZM35.625 8.0851V12.9362H19V8.0851H35.625ZM13.025 21.9127C13.0164 21.9277 13.002 21.9447 12.9907 21.9606C12.977 21.9801 12.9657 21.9987 12.948 22.0194C12.9344 22.0353 12.9152 22.0526 12.8993 22.0691C12.8774 22.0918 12.8577 22.1139 12.8314 22.1377C12.812 22.1551 12.7871 22.1736 12.7654 22.1915C12.7362 22.2156 12.7093 22.2393 12.6758 22.2641C12.6501 22.2832 12.6187 22.3029 12.5905 22.3223C12.5542 22.3471 12.5205 22.3718 12.48 22.3971C12.4511 22.4151 12.4167 22.4334 12.3858 22.4516C12.3397 22.4787 12.2957 22.5056 12.245 22.5328C12.2078 22.5527 12.1646 22.5726 12.1249 22.5924C12.0742 22.6179 12.0259 22.6433 11.9711 22.6685C11.9223 22.6909 11.8672 22.7129 11.8151 22.735C11.7625 22.7574 11.713 22.7801 11.6571 22.8021C11.6028 22.8234 11.5423 22.8438 11.4849 22.8647C11.4245 22.8867 11.3671 22.9091 11.3032 22.9305C11.2425 22.9508 11.1755 22.9696 11.1117 22.9892C11.0447 23.0097 10.9806 23.0309 10.9102 23.0506C10.8427 23.0695 10.7688 23.0864 10.6982 23.1043C10.6246 23.123 10.5541 23.1426 10.4771 23.1601C10.3909 23.1798 10.2979 23.1969 10.2074 23.2149C10.1398 23.2284 10.0757 23.2431 10.0057 23.2557C9.91944 23.2711 9.82652 23.2837 9.73664 23.2975C9.655 23.3101 9.57665 23.3241 9.49199 23.3353C9.41078 23.346 9.3234 23.3535 9.23944 23.3629C9.14032 23.3739 9.04411 23.3864 8.94115 23.3953C8.79195 23.4082 8.63543 23.4169 8.47815 23.4252C8.4347 23.4275 8.39433 23.4316 8.35026 23.4334C8.14638 23.4422 7.9359 23.4468 7.71875 23.4468C4.24207 23.4468 2.46342 22.2664 2.375 21.8298V18.9451C2.38243 18.9502 2.39153 18.9543 2.39899 18.9593C2.54341 19.0564 2.69815 19.1477 2.86228 19.2332C2.90301 19.2544 2.94737 19.2731 2.98919 19.2936C3.11806 19.3567 3.25062 19.4172 3.38924 19.4736C3.45117 19.4988 3.51455 19.5226 3.57823 19.5465C3.70847 19.5953 3.84191 19.6412 3.97886 19.6845C4.04304 19.7048 4.1062 19.7256 4.17172 19.7447C4.34089 19.7941 4.51423 19.8391 4.69118 19.8805C4.72478 19.8883 4.75681 19.8978 4.79066 19.9054C5.00183 19.9526 5.21796 19.9934 5.43707 20.0295C5.50092 20.0401 5.56565 20.0483 5.63004 20.058C5.79004 20.0819 5.9508 20.1035 6.11337 20.1217C6.19063 20.1303 6.26761 20.1381 6.34523 20.1454C6.50487 20.1606 6.66468 20.1728 6.82533 20.1826C6.89597 20.1869 6.96605 20.1921 7.03672 20.1954C7.26445 20.2059 7.49214 20.2128 7.71875 20.2128C7.94576 20.2128 8.17392 20.2059 8.40208 20.1953C8.47152 20.1921 8.54037 20.1869 8.60977 20.1827C8.77126 20.1729 8.93198 20.1606 9.09249 20.1454C9.17 20.138 9.24694 20.1303 9.32409 20.1217C9.48728 20.1034 9.64865 20.0816 9.80927 20.0577C9.87283 20.0481 9.93676 20.04 9.99982 20.0296C10.2193 19.9934 10.4357 19.9525 10.6472 19.9053C10.6805 19.8978 10.7119 19.8885 10.7449 19.8808C10.9227 19.8393 11.0968 19.794 11.2667 19.7445C11.3314 19.7256 11.3939 19.705 11.4574 19.6849C11.5953 19.6413 11.7296 19.5951 11.8606 19.5459C11.9236 19.5223 11.9863 19.4988 12.0475 19.4739C12.1883 19.4166 12.323 19.3552 12.4538 19.2909C12.4934 19.2715 12.5355 19.2538 12.5741 19.2337C12.7392 19.1478 12.8947 19.056 13.0399 18.9582C13.0471 18.9535 13.0557 18.9496 13.0628 18.9447L13.0634 21.8018C13.0632 21.808 13.0626 21.8138 13.0626 21.8199C13.0598 21.8332 13.051 21.849 13.0453 21.8636C13.0389 21.8798 13.0351 21.8951 13.025 21.9127ZM2.86228 14.3821C2.90301 14.4033 2.94737 14.422 2.98919 14.4425C3.11806 14.5057 3.25062 14.5661 3.38924 14.6225C3.45117 14.6477 3.51455 14.6715 3.57823 14.6954C3.70847 14.7443 3.84191 14.7902 3.97886 14.8335C4.04304 14.8538 4.1062 14.8746 4.17172 14.8937C4.34089 14.943 4.51423 14.9881 4.69118 15.0294C4.72478 15.0373 4.75681 15.0468 4.79066 15.0543C5.00183 15.1015 5.21796 15.1423 5.43707 15.1785C5.50092 15.189 5.56565 15.1973 5.63004 15.2069C5.79004 15.2308 5.9508 15.2524 6.11337 15.2706C6.19063 15.2792 6.26761 15.287 6.34523 15.2944C6.50487 15.3095 6.66468 15.3217 6.82533 15.3315C6.89597 15.3358 6.96605 15.341 7.03672 15.3443C7.26445 15.3549 7.49214 15.3617 7.71875 15.3617C7.94576 15.3617 8.17392 15.3548 8.40208 15.3442C8.47152 15.341 8.54037 15.3359 8.60977 15.3316C8.77126 15.3218 8.93198 15.3096 9.09249 15.2944C9.17 15.287 9.24694 15.2792 9.32409 15.2706C9.48728 15.2523 9.64865 15.2306 9.80927 15.2066C9.87283 15.1971 9.93676 15.189 9.99982 15.1786C10.2193 15.1423 10.4357 15.1015 10.6472 15.0542C10.6805 15.0468 10.7119 15.0375 10.7449 15.0298C10.9227 14.9883 11.0968 14.9429 11.2667 14.8934C11.3314 14.8745 11.3939 14.8539 11.4574 14.8339C11.5953 14.7903 11.7296 14.744 11.8606 14.6949C11.9236 14.6712 11.9863 14.6477 12.0475 14.6228C12.1883 14.5655 12.323 14.5041 12.4538 14.4399C12.4934 14.4204 12.5355 14.4027 12.5741 14.3826C12.7392 14.2967 12.8947 14.2049 13.0399 14.1072C13.0471 14.1024 13.0557 14.0985 13.0628 14.0937L13.0632 16.1654C13.0632 16.1671 13.0625 16.1685 13.0625 16.1702C13.0625 16.1719 13.0632 16.1733 13.0632 16.175L13.0634 16.9511C13.0632 16.9571 13.0627 16.9628 13.0626 16.9688C13.0593 16.9845 13.0496 17.0029 13.0422 17.0203C13.0364 17.0341 13.0337 17.0466 13.0252 17.0614C13.0143 17.0806 12.9968 17.102 12.9814 17.1227C12.9702 17.1379 12.9622 17.152 12.9486 17.1679C12.9311 17.1883 12.9071 17.2106 12.8857 17.2321C12.8676 17.2502 12.8527 17.2675 12.8319 17.2863C12.8109 17.3054 12.7838 17.3255 12.7599 17.3452C12.7321 17.3679 12.707 17.3901 12.6754 17.4135C12.6519 17.4309 12.623 17.449 12.5974 17.4667C12.5591 17.4931 12.523 17.5193 12.48 17.5462C12.4531 17.563 12.4209 17.58 12.3922 17.597C12.344 17.6253 12.2977 17.6536 12.2444 17.6822C12.2175 17.6966 12.1859 17.7108 12.1577 17.7252C12.0968 17.7563 12.0368 17.7874 11.9697 17.8182C11.9398 17.832 11.9053 17.8452 11.8742 17.8589C11.8032 17.8901 11.7329 17.9213 11.6555 17.9518C11.6205 17.9656 11.5807 17.9786 11.5443 17.9922C11.4654 18.0217 11.3874 18.0514 11.3023 18.0798C11.2569 18.095 11.2062 18.1089 11.159 18.1237C11.0769 18.1494 10.9966 18.1755 10.9092 18.1999C10.8597 18.2137 10.8049 18.226 10.7537 18.2393C10.6624 18.263 10.5728 18.2873 10.4761 18.3093C10.4282 18.3202 10.3754 18.3293 10.3262 18.3398C10.2203 18.3622 10.1156 18.385 10.0036 18.4051C9.93734 18.4169 9.86537 18.4262 9.79698 18.4371C9.69649 18.4531 9.59825 18.4702 9.49308 18.4841C9.38751 18.498 9.27492 18.5084 9.16464 18.52C9.08966 18.5279 9.0183 18.5376 8.94115 18.5443C8.79159 18.5572 8.63467 18.566 8.47699 18.5742C8.43394 18.5764 8.39393 18.5805 8.35026 18.5824C8.14638 18.5911 7.9359 18.5957 7.71875 18.5957C4.24207 18.5957 2.46342 17.4157 2.375 16.9787V14.0941C2.38243 14.0991 2.39153 14.1032 2.39899 14.1083C2.54341 14.2054 2.69815 14.2966 2.86228 14.3821ZM7.71875 10.5106C11.1619 10.5106 12.9395 11.6679 13.0601 12.1261C13.0565 12.1406 13.0475 12.1573 13.0405 12.1733C13.0342 12.1878 13.0304 12.2013 13.0212 12.2169C13.0104 12.2353 12.9935 12.2556 12.9788 12.2753C12.9667 12.2914 12.9573 12.3066 12.9425 12.3236C12.9235 12.3455 12.8983 12.3689 12.8749 12.3919C12.8581 12.4084 12.8441 12.4243 12.825 12.4414C12.7965 12.4668 12.7616 12.4934 12.7281 12.5198C12.7078 12.5358 12.6905 12.5513 12.6684 12.5675C12.6304 12.5955 12.5858 12.6243 12.5423 12.6529C12.5185 12.6686 12.4977 12.6839 12.4723 12.6998C12.4236 12.73 12.3683 12.7606 12.3136 12.7912C12.2876 12.8057 12.2646 12.8202 12.2373 12.8348C12.1797 12.8655 12.1152 12.896 12.0516 12.9266C12.0212 12.9412 11.994 12.956 11.9622 12.9705C11.8959 13.0008 11.8228 13.0305 11.7506 13.0603C11.7158 13.0746 11.6843 13.0893 11.6481 13.1035C11.5751 13.1321 11.4952 13.1597 11.4165 13.1874C11.3751 13.2019 11.337 13.2171 11.2941 13.2314C11.2108 13.2591 11.1205 13.2852 11.0313 13.3116C10.9875 13.3245 10.9471 13.3383 10.9019 13.3508C10.8071 13.3772 10.7052 13.4014 10.6041 13.4259C10.5586 13.4369 10.5165 13.449 10.4698 13.4596C10.3679 13.4827 10.2589 13.5033 10.151 13.5241C10.0993 13.5341 10.0511 13.5455 9.99797 13.5549C9.89443 13.5733 9.78383 13.5887 9.67507 13.6049C9.61158 13.6143 9.55168 13.6253 9.48641 13.6339C9.38142 13.6477 9.26955 13.658 9.15993 13.6694C9.08488 13.6773 9.01334 13.6869 8.93611 13.6936C8.81192 13.7043 8.68059 13.711 8.55078 13.7184C8.48228 13.7224 8.4173 13.7284 8.34725 13.7314C8.14428 13.7401 7.93485 13.7447 7.71875 13.7447C7.50146 13.7447 7.2908 13.74 7.08677 13.7313C4.03717 13.6004 2.46998 12.5453 2.37692 12.1324C2.48187 11.6788 4.2587 10.5106 7.71875 10.5106ZM7.71875 28.2979C4.24207 28.2979 2.46342 27.1175 2.375 26.6808V23.7966C2.38319 23.8022 2.39326 23.8067 2.40153 23.8123C2.54453 23.9083 2.69775 23.9985 2.86007 24.0831C2.90442 24.1062 2.95262 24.1267 2.99829 24.149C3.12342 24.21 3.25175 24.2686 3.38605 24.3234C3.45045 24.3496 3.51629 24.3744 3.58258 24.3992C3.71029 24.447 3.84107 24.492 3.97527 24.5345C4.04123 24.5554 4.1062 24.5767 4.17357 24.5964C4.34064 24.645 4.51183 24.6895 4.68644 24.7304C4.72191 24.7387 4.75573 24.7486 4.79149 24.7566C5.00234 24.8038 5.21818 24.8445 5.43699 24.8806C5.50089 24.8912 5.56565 24.8994 5.63004 24.909C5.79004 24.933 5.9508 24.9545 6.11337 24.9727C6.19063 24.9814 6.26761 24.9892 6.34523 24.9965C6.50487 25.0117 6.66468 25.0239 6.82533 25.0336C6.89597 25.038 6.96605 25.0431 7.03672 25.0465C7.26445 25.057 7.49214 25.0638 7.71875 25.0638C7.94576 25.0638 8.17392 25.057 8.40208 25.0464C8.47152 25.0431 8.54037 25.038 8.60977 25.0338C8.77126 25.0239 8.93198 25.0117 9.09249 24.9965C9.17 24.9891 9.24694 24.9814 9.32409 24.9727C9.48728 24.9545 9.64865 24.9327 9.80927 24.9087C9.87283 24.8992 9.93676 24.8911 9.99982 24.8807C10.2193 24.8445 10.4357 24.8036 10.6472 24.7563C10.6805 24.7489 10.7119 24.7396 10.7449 24.7319C10.9227 24.6904 11.0968 24.6451 11.2667 24.5955C11.3314 24.5767 11.3939 24.556 11.4574 24.536C11.5953 24.4924 11.7296 24.4461 11.8606 24.397C11.9236 24.3734 11.9863 24.3499 12.0475 24.3249C12.1883 24.2676 12.323 24.2063 12.4538 24.142C12.4934 24.1226 12.5355 24.1049 12.5741 24.0848C12.7392 23.9989 12.8947 23.907 13.0399 23.8093C13.0471 23.8045 13.0557 23.8006 13.0628 23.7958L13.0629 24.2527L13.0625 24.2553L13.0629 24.2579L13.0634 26.669C12.9741 27.1175 11.1954 28.2979 7.71875 28.2979ZM14.25 23.4468V21.8298V16.9787H17.8125V23.4468H14.25ZM19 32.3404V14.5532H35.625V32.3404H19Z" fill="black" fill-opacity="0.6"/>
<path d="M21.9688 11.3192H26.7188C27.0466 11.3192 27.3125 10.9572 27.3125 10.5107C27.3125 10.0642 27.0466 9.70215 26.7188 9.70215H21.9688C21.6409 9.70215 21.375 10.0642 21.375 10.5107C21.375 10.9572 21.6409 11.3192 21.9688 11.3192Z" fill="black" fill-opacity="0.6"/>
<path d="M31.4688 11.3192H32.6562C32.9841 11.3192 33.25 10.9572 33.25 10.5107C33.25 10.0642 32.9841 9.70215 32.6562 9.70215H31.4688C31.1409 9.70215 30.875 10.0642 30.875 10.5107C30.875 10.9572 31.1409 11.3192 31.4688 11.3192Z" fill="black" fill-opacity="0.6"/>
<path d="M21.375 24.2553H26.125C26.4529 24.2553 26.7188 23.8937 26.7188 23.4468V16.9787C26.7188 16.5322 26.4529 16.1702 26.125 16.1702H21.375C21.0471 16.1702 20.7812 16.5322 20.7812 16.9787V23.4468C20.7812 23.8937 21.0471 24.2553 21.375 24.2553ZM21.9688 17.7872H25.5312V22.6383H21.9688V17.7872Z" fill="black" fill-opacity="0.6"/>
<path d="M33.25 25.8723H21.375C21.0471 25.8723 20.7812 26.234 20.7812 26.6809V29.9149C20.7812 30.3618 21.0471 30.7234 21.375 30.7234H33.25C33.5779 30.7234 33.8438 30.3618 33.8438 29.9149V26.6809C33.8438 26.234 33.5779 25.8723 33.25 25.8723ZM32.6563 29.1064H21.9688V27.4894H32.6563V29.1064Z" fill="black" fill-opacity="0.6"/>
<path d="M33.25 16.1702H28.5C28.1721 16.1702 27.9062 16.5322 27.9062 16.9787C27.9062 17.4252 28.1721 17.7872 28.5 17.7872H33.25C33.5779 17.7872 33.8438 17.4252 33.8438 16.9787C33.8438 16.5322 33.5779 16.1702 33.25 16.1702Z" fill="black" fill-opacity="0.6"/>
<path d="M33.25 19.4042H28.5C28.1721 19.4042 27.9062 19.7662 27.9062 20.2127C27.9062 20.6592 28.1721 21.0213 28.5 21.0213H33.25C33.5779 21.0213 33.8438 20.6592 33.8438 20.2127C33.8438 19.7662 33.5779 19.4042 33.25 19.4042Z" fill="black" fill-opacity="0.6"/>
<path d="M33.25 22.6383H28.5C28.1721 22.6383 27.9062 22.9999 27.9062 23.4468C27.9062 23.8937 28.1721 24.2553 28.5 24.2553H33.25C33.5779 24.2553 33.8438 23.8937 33.8438 23.4468C33.8438 22.9999 33.5779 22.6383 33.25 22.6383Z" fill="black" fill-opacity="0.6"/>
</svg>
