<svg width="39" height="34" viewBox="0 0 39 34" fill="none" xmlns="http://www.w3.org/2000/svg">
<g clip-path="url(#clip0_910_5862)">
<path d="M37.7688 33.4177H1.22788C1.03406 33.4177 0.84817 33.3408 0.711115 33.2041C0.57406 33.0674 0.49707 32.882 0.49707 32.6887V0.728972C0.49707 0.535637 0.57406 0.35022 0.711115 0.213511C0.84817 0.076803 1.03406 0 1.22788 0H37.7688C37.9626 0 38.1485 0.076803 38.2856 0.213511C38.4226 0.35022 38.4996 0.535637 38.4996 0.728972V32.6887C38.4996 32.882 38.4226 33.0674 38.2856 33.2041C38.1485 33.3408 37.9626 33.4177 37.7688 33.4177ZM1.96124 31.9578H37.038V1.45794H1.96124V31.9578Z" fill="white" fill-opacity="0.6"/>
<path d="M37.7688 6.10907H1.22788C1.03406 6.10907 0.848178 6.03226 0.711123 5.89556C0.574068 5.75885 0.49707 5.57343 0.49707 5.3801C0.49707 5.18676 0.574068 5.00134 0.711123 4.86463C0.848178 4.72793 1.03406 4.65112 1.22788 4.65112H37.7688C37.9626 4.65112 38.1485 4.72793 38.2856 4.86463C38.4226 5.00134 38.4996 5.18676 38.4996 5.3801C38.4996 5.57343 38.4226 5.75885 38.2856 5.89556C38.1485 6.03226 37.9626 6.10907 37.7688 6.10907Z" fill="white" fill-opacity="0.6"/>
<path d="M28.4733 3.78448H28.1351C27.9413 3.78448 27.7554 3.70767 27.6183 3.57096C27.4813 3.43426 27.4043 3.24884 27.4043 3.0555C27.4043 2.86217 27.4813 2.67675 27.6183 2.54004C27.7554 2.40333 27.9413 2.32654 28.1351 2.32654H28.4733C28.6671 2.32654 28.853 2.40333 28.9901 2.54004C29.1271 2.67675 29.2041 2.86217 29.2041 3.0555C29.2041 3.24884 29.1271 3.43426 28.9901 3.57096C28.853 3.70767 28.6671 3.78448 28.4733 3.78448Z" fill="white" fill-opacity="0.6"/>
<path d="M31.3479 3.78448H31.0091C30.8153 3.78448 30.6294 3.70767 30.4924 3.57096C30.3553 3.43426 30.2783 3.24884 30.2783 3.0555C30.2783 2.86217 30.3553 2.67675 30.4924 2.54004C30.6294 2.40333 30.8153 2.32654 31.0091 2.32654H31.3479C31.5418 2.32654 31.7277 2.40333 31.8647 2.54004C32.0018 2.67675 32.0788 2.86217 32.0788 3.0555C32.0788 3.24884 32.0018 3.43426 31.8647 3.57096C31.7277 3.70767 31.5418 3.78448 31.3479 3.78448Z" fill="white" fill-opacity="0.6"/>
<path d="M34.2229 3.78448H33.8841C33.6903 3.78448 33.5044 3.70767 33.3674 3.57096C33.2303 3.43426 33.1533 3.24884 33.1533 3.0555C33.1533 2.86217 33.2303 2.67675 33.3674 2.54004C33.5044 2.40333 33.6903 2.32654 33.8841 2.32654H34.2229C34.4168 2.32654 34.6027 2.40333 34.7397 2.54004C34.8768 2.67675 34.9538 2.86217 34.9538 3.0555C34.9538 3.24884 34.8768 3.43426 34.7397 3.57096C34.6027 3.70767 34.4168 3.78448 34.2229 3.78448Z" fill="white" fill-opacity="0.6"/>
<path d="M13.0181 27.6718H10.3127C10.119 27.6718 9.93321 27.595 9.79618 27.4585C9.65914 27.3219 9.58207 27.1367 9.5819 26.9434C9.58157 26.9128 9.58348 26.8822 9.5876 26.8518L9.70729 25.8948C9.17782 25.7451 8.66772 25.5342 8.18739 25.2663L7.594 26.0287C7.53496 26.1042 7.46159 26.1674 7.37808 26.2146C7.29456 26.2618 7.20254 26.2922 7.10727 26.3039C7.012 26.3156 6.91534 26.3085 6.82283 26.283C6.73031 26.2575 6.64374 26.214 6.56807 26.1551C6.54431 26.1367 6.52167 26.1168 6.5003 26.0957L4.58713 24.188C4.5192 24.1203 4.4653 24.04 4.42853 23.9515C4.39175 23.8631 4.37282 23.7683 4.37282 23.6725C4.37282 23.5768 4.39175 23.482 4.42853 23.3935C4.4653 23.3051 4.5192 23.2247 4.58713 23.1571C4.60857 23.1356 4.63142 23.1155 4.65553 23.0971L5.41928 22.5045C5.1496 22.0256 4.93705 21.5168 4.78599 20.9885L3.82718 21.1079C3.72422 21.121 3.61965 21.112 3.52042 21.0817C3.42119 21.0513 3.32958 21.0002 3.25169 20.9318C3.1738 20.8634 3.11141 20.7792 3.06869 20.6848C3.02596 20.5905 3.00388 20.4881 3.00391 20.3846V17.6848C3.00398 17.5813 3.02614 17.4789 3.0689 17.3846C3.11166 17.2903 3.17404 17.2062 3.2519 17.1378C3.32977 17.0694 3.42133 17.0183 3.52052 16.9879C3.61971 16.9575 3.72424 16.9485 3.82718 16.9615L4.78599 17.0809C4.93705 16.5526 5.1496 16.0438 5.41928 15.5648L4.65553 14.9723C4.57985 14.9134 4.51654 14.8403 4.46922 14.7571C4.42189 14.6738 4.39148 14.5821 4.37972 14.4871C4.36796 14.3921 4.37508 14.2958 4.40067 14.2035C4.42626 14.1113 4.46982 14.025 4.52887 13.9496C4.54735 13.9259 4.56723 13.9033 4.5884 13.882L6.49967 11.9705C6.63673 11.8338 6.82261 11.757 7.01644 11.757C7.21026 11.757 7.39615 11.8338 7.53321 11.9705C7.55453 11.9917 7.57441 12.0143 7.59273 12.0381L8.18676 12.8005C8.66692 12.5315 9.17703 12.3195 9.70666 12.1688L9.58696 11.2118C9.57383 11.1091 9.5828 11.0047 9.61327 10.9057C9.64375 10.8067 9.69502 10.7153 9.76369 10.6375C9.83237 10.5598 9.91685 10.4976 10.0115 10.4551C10.1062 10.4125 10.2089 10.3905 10.3127 10.3906H13.0181C13.1219 10.3906 13.2245 10.4126 13.3191 10.4553C13.4137 10.4979 13.4981 10.5601 13.5667 10.6378C13.6353 10.7155 13.6866 10.8069 13.717 10.9058C13.7474 11.0048 13.7564 11.1091 13.7433 11.2118L13.6236 12.1688C14.1532 12.3195 14.6633 12.5315 15.1435 12.8005L15.7369 12.0381C15.7956 11.9623 15.8687 11.8989 15.952 11.8513C16.0353 11.8037 16.1271 11.773 16.2224 11.7609C16.3176 11.7487 16.4142 11.7554 16.5069 11.7805C16.5995 11.8057 16.6862 11.8487 16.7622 11.9073C16.7871 11.9268 16.8108 11.9479 16.8331 11.9705L18.7463 13.8795C18.8142 13.9471 18.8681 14.0274 18.9049 14.1159C18.9416 14.2043 18.9606 14.2992 18.9606 14.3949C18.9606 14.4907 18.9416 14.5855 18.9049 14.6739C18.8681 14.7624 18.8142 14.8427 18.7463 14.9104C18.7247 14.9329 18.7016 14.954 18.6772 14.9735L17.9122 15.5661C18.1821 16.0449 18.3947 16.5538 18.5455 17.0821L19.5043 16.9627C19.6072 16.9495 19.7118 16.9584 19.811 16.9887C19.9103 17.0189 20.0019 17.07 20.0798 17.1383C20.1577 17.2067 20.2201 17.2909 20.2628 17.3852C20.3055 17.4795 20.3276 17.5819 20.3276 17.6854V20.3852C20.3275 20.4887 20.3054 20.591 20.2626 20.6853C20.2198 20.7795 20.1574 20.8637 20.0796 20.932C20.0017 21.0004 19.9101 21.0514 19.8109 21.0817C19.7117 21.1121 19.6072 21.121 19.5043 21.1079L18.5455 20.9885C18.3947 21.5168 18.1821 22.0257 17.9122 22.5045L18.6772 23.0971C18.8299 23.216 18.929 23.3905 18.9528 23.5823C18.9765 23.774 18.923 23.9674 18.8039 24.1198C18.7845 24.1439 18.7633 24.1665 18.7406 24.1874L16.8274 26.0963C16.7596 26.1641 16.679 26.2179 16.5903 26.2545C16.5017 26.2912 16.4066 26.3101 16.3106 26.3101C16.2146 26.3101 16.1196 26.2912 16.0309 26.2545C15.9422 26.2179 15.8617 26.1641 15.7939 26.0963C15.7728 26.0749 15.753 26.0523 15.7343 26.0287L15.1473 25.2619C14.6672 25.5312 14.1571 25.7432 13.6274 25.8936L13.7471 26.8499C13.7602 26.9527 13.7512 27.057 13.7208 27.1561C13.6903 27.2551 13.639 27.3465 13.5703 27.4242C13.5017 27.5019 13.4172 27.5641 13.3225 27.6067C13.2278 27.6493 13.1252 27.6712 13.0213 27.6711L13.0181 27.6718ZM11.1404 26.2138H12.1904L12.0923 25.4242C12.0688 25.2394 12.1173 25.0526 12.2276 24.9024C12.338 24.7521 12.5019 24.6497 12.6857 24.6163C13.4807 24.4736 14.2355 24.1614 14.8984 23.701C15.052 23.5948 15.2405 23.5514 15.4251 23.5796C15.6098 23.6078 15.7767 23.7055 15.8914 23.8526L16.3822 24.4843L17.125 23.7433L16.4955 23.2531C16.3482 23.1387 16.2504 22.9723 16.2223 22.7882C16.1941 22.6041 16.2378 22.4163 16.3442 22.2632C16.8055 21.6016 17.1184 20.8486 17.2618 20.0555C17.2953 19.8723 17.3979 19.7089 17.5484 19.5989C17.6989 19.4888 17.886 19.4404 18.0712 19.4636L18.8634 19.5621V18.5142L18.0712 18.6127C17.8859 18.6356 17.699 18.587 17.5485 18.4768C17.398 18.3666 17.2955 18.2033 17.2618 18.0202C17.1184 17.2273 16.8054 16.4745 16.3442 15.8131C16.2377 15.6599 16.1941 15.472 16.2222 15.2878C16.2504 15.1036 16.3482 14.9371 16.4955 14.8226L17.125 14.3305L16.3815 13.5895L15.8914 14.2212C15.7767 14.3683 15.6098 14.466 15.4251 14.4942C15.2405 14.5224 15.052 14.4789 14.8984 14.3728C14.2355 13.9123 13.4807 13.6001 12.6857 13.4575C12.5019 13.4241 12.338 13.3217 12.2276 13.1714C12.1173 13.0211 12.0688 12.8344 12.0923 12.6495L12.1923 11.8599H11.1417L11.2405 12.6495C11.2636 12.8344 11.2149 13.0211 11.1045 13.1713C10.994 13.3215 10.8302 13.4239 10.6465 13.4575C9.85012 13.5997 9.09401 13.9119 8.42995 14.3728C8.27637 14.4789 8.08787 14.5224 7.90319 14.4942C7.71851 14.466 7.55167 14.3683 7.43694 14.2212L6.94678 13.5895L6.20139 14.3305L6.83468 14.82C6.98172 14.9348 7.07917 15.1014 7.10708 15.2855C7.13498 15.4697 7.09123 15.6575 6.98477 15.8105C6.52351 16.472 6.21053 17.2247 6.06714 18.0177C6.03363 18.2008 5.93111 18.3643 5.78061 18.4745C5.63011 18.5847 5.44304 18.6332 5.25779 18.6102L4.46554 18.5116V19.5596L5.25779 19.4611C5.44304 19.438 5.63011 19.4866 5.78061 19.5968C5.93111 19.707 6.03363 19.8704 6.06714 20.0536C6.21017 20.8478 6.52315 21.6019 6.98477 22.2645C7.09128 22.4175 7.13489 22.6055 7.10662 22.7897C7.07834 22.9738 6.98033 23.1401 6.83278 23.2544L6.20393 23.7445L6.94678 24.4855L7.43758 23.8538C7.55219 23.7068 7.71892 23.6091 7.90349 23.5809C8.08807 23.5527 8.27647 23.5961 8.42995 23.7022C9.09413 24.1629 9.85019 24.4751 10.6465 24.6175C10.8302 24.651 10.9942 24.7533 11.1047 24.9036C11.2152 25.0538 11.2638 25.2406 11.2405 25.4255L11.1404 26.2138Z" fill="white" fill-opacity="0.6"/>
<path d="M11.664 23.6442C10.7497 23.6442 9.85588 23.3737 9.09563 22.867C8.33537 22.3603 7.74283 21.6401 7.39292 20.7975C7.04302 19.9549 6.95147 19.0277 7.12985 18.1332C7.30823 17.2387 7.74853 16.417 8.39507 15.7721C9.04161 15.1272 9.86536 14.688 10.7621 14.5101C11.6589 14.3322 12.5885 14.4235 13.4332 14.7725C14.2779 15.1215 15 15.7126 15.5079 16.4709C16.0159 17.2293 16.2871 18.1208 16.2871 19.0328C16.2871 20.2558 15.8 21.4288 14.933 22.2935C14.066 23.1583 12.8901 23.6442 11.664 23.6442ZM11.664 15.8826C11.039 15.8826 10.4281 16.0675 9.90838 16.4138C9.3887 16.7602 8.98365 17.2525 8.74447 17.8285C8.50529 18.4045 8.44271 19.0382 8.56464 19.6497C8.68658 20.2611 8.98754 20.8228 9.4295 21.2636C9.87145 21.7045 10.4345 22.0047 11.0475 22.1263C11.6605 22.2479 12.2959 22.1855 12.8734 21.9469C13.4508 21.7083 13.9444 21.3043 14.2916 20.786C14.6388 20.2676 14.8242 19.6582 14.8242 19.0347C14.8225 18.1992 14.489 17.3985 13.8967 16.8077C13.3045 16.2169 12.5016 15.8843 11.664 15.8826Z" fill="white" fill-opacity="0.6"/>
<path d="M28.5793 19.7612C26.661 19.7612 24.8428 19.2874 23.4642 18.4271C21.9804 17.5004 21.1641 16.2319 21.1641 14.8561C21.1641 13.4803 21.9804 12.2138 23.4642 11.2852C24.8409 10.4248 26.6572 9.95105 28.5793 9.95105C30.5013 9.95105 32.3157 10.4248 33.695 11.2852C35.1782 12.2125 35.9957 13.4809 35.9957 14.8561C35.9957 16.2313 35.1782 17.4985 33.695 18.4271C32.3163 19.2893 30.5 19.7612 28.5793 19.7612ZM28.5793 11.409C25.3533 11.409 22.6263 12.9882 22.6263 14.8561C22.6263 16.724 25.3495 18.3033 28.5793 18.3033C31.8091 18.3033 34.5322 16.724 34.5322 14.8561C34.5322 12.9882 31.8091 11.4103 28.5793 11.4103V11.409Z" fill="white" fill-opacity="0.6"/>
<path d="M28.5799 23.9391C25.9657 23.9391 23.6016 23.0712 22.2546 21.6158C21.544 20.847 21.1641 19.9557 21.1641 19.0328C21.1641 18.8395 21.2411 18.654 21.3781 18.5173C21.5152 18.3806 21.7011 18.3038 21.8949 18.3038C22.0887 18.3038 22.2746 18.3806 22.4117 18.5173C22.5487 18.654 22.6257 18.8395 22.6257 19.0328C22.6257 19.5887 22.8613 20.1262 23.3261 20.6272C24.385 21.7705 26.3976 22.4806 28.5786 22.4806C30.7597 22.4806 32.7717 21.7705 33.8312 20.6272C34.296 20.1262 34.5316 19.5887 34.5316 19.0328C34.5316 18.8395 34.6086 18.654 34.7456 18.5173C34.8827 18.3806 35.0686 18.3038 35.2624 18.3038C35.4562 18.3038 35.6421 18.3806 35.7792 18.5173C35.9162 18.654 35.9932 18.8395 35.9932 19.0328C35.9932 19.9538 35.617 20.847 34.9046 21.6158C33.5588 23.0712 31.1929 23.9391 28.5799 23.9391Z" fill="white" fill-opacity="0.6"/>
<path d="M28.5799 28.1159C26.6617 28.1159 24.8435 27.6415 23.4648 26.7811C21.981 25.8544 21.1641 24.586 21.1641 23.2102C21.1641 23.0168 21.2411 22.8314 21.3781 22.6947C21.5152 22.558 21.7011 22.4812 21.8949 22.4812C22.0887 22.4812 22.2746 22.558 22.4117 22.6947C22.5487 22.8314 22.6257 23.0168 22.6257 23.2102C22.6257 25.0781 25.352 26.6579 28.5786 26.6579C31.8053 26.6579 34.5316 25.0787 34.5316 23.2102C34.5316 23.0168 34.6086 22.8314 34.7456 22.6947C34.8827 22.558 35.0686 22.4812 35.2624 22.4812C35.4562 22.4812 35.6421 22.558 35.7792 22.6947C35.9162 22.8314 35.9932 23.0168 35.9932 23.2102C35.9932 24.586 35.1763 25.8525 33.6925 26.7811C32.3169 27.6427 30.5007 28.1159 28.5799 28.1159Z" fill="white" fill-opacity="0.6"/>
<path d="M35.263 23.9398C35.0692 23.9398 34.8833 23.863 34.7463 23.7263C34.6092 23.5896 34.5322 23.4042 34.5322 23.2108V14.858C34.5322 14.7623 34.5511 14.6675 34.5879 14.579C34.6246 14.4906 34.6784 14.4102 34.7463 14.3425C34.8141 14.2748 34.8947 14.2212 34.9834 14.1845C35.072 14.1479 35.1671 14.129 35.263 14.129C35.359 14.129 35.454 14.1479 35.5427 14.1845C35.6314 14.2212 35.7119 14.2748 35.7798 14.3425C35.8477 14.4102 35.9015 14.4906 35.9382 14.579C35.9749 14.6675 35.9939 14.7623 35.9939 14.858V23.2108C35.9939 23.3066 35.9749 23.4013 35.9382 23.4898C35.9015 23.5782 35.8477 23.6586 35.7798 23.7263C35.7119 23.794 35.6314 23.8477 35.5427 23.8843C35.454 23.9209 35.359 23.9398 35.263 23.9398Z" fill="white" fill-opacity="0.6"/>
<path d="M21.8968 23.9398C21.703 23.9398 21.5171 23.863 21.3801 23.7263C21.243 23.5896 21.166 23.4042 21.166 23.2108V14.858C21.166 14.6647 21.243 14.4792 21.3801 14.3425C21.5171 14.2058 21.703 14.129 21.8968 14.129C22.0907 14.129 22.2765 14.2058 22.4136 14.3425C22.5507 14.4792 22.6276 14.6647 22.6276 14.858V23.2108C22.6276 23.3066 22.6087 23.4013 22.572 23.4898C22.5353 23.5782 22.4815 23.6586 22.4136 23.7263C22.3457 23.794 22.2652 23.8477 22.1765 23.8843C22.0878 23.9209 21.9928 23.9398 21.8968 23.9398Z" fill="white" fill-opacity="0.6"/>
</g>
<defs>
<clipPath id="clip0_910_5862">
<rect width="38" height="33.4176" fill="white" transform="translate(0.5)"/>
</clipPath>
</defs>
</svg>
