<svg width="39" height="38" viewBox="0 0 39 38" fill="none" xmlns="http://www.w3.org/2000/svg">
<path d="M3.875 4.75H6.64583L7.83333 9.5M7.83333 9.5L11.7917 25.3333H32.375L36.3333 9.5H7.83333Z" stroke="white" stroke-opacity="0.6" stroke-width="2.66667" stroke-linecap="round" stroke-linejoin="round"/>
<path d="M11.792 33.25C13.1037 33.25 14.167 32.1867 14.167 30.875C14.167 29.5633 13.1037 28.5 11.792 28.5C10.4803 28.5 9.41699 29.5633 9.41699 30.875C9.41699 32.1867 10.4803 33.25 11.792 33.25Z" stroke="white" stroke-opacity="0.6" stroke-width="2.66667" stroke-linecap="round" stroke-linejoin="round"/>
<path d="M32.375 33.25C33.6867 33.25 34.75 32.1867 34.75 30.875C34.75 29.5633 33.6867 28.5 32.375 28.5C31.0633 28.5 30 29.5633 30 30.875C30 32.1867 31.0633 33.25 32.375 33.25Z" stroke="white" stroke-opacity="0.6" stroke-width="2.66667" stroke-linecap="round" stroke-linejoin="round"/>
</svg>
