<svg width="38" height="38" viewBox="0 0 38 38" fill="none" xmlns="http://www.w3.org/2000/svg">
<g clip-path="url(#clip0_443_1048)">
<path d="M0.875 4.75H3.64583L4.83333 9.5M4.83333 9.5L8.79167 25.3333H29.375L33.3333 9.5H4.83333Z" stroke="black" stroke-opacity="0.6" stroke-width="2.66667" stroke-linecap="round" stroke-linejoin="round"/>
<path d="M8.79199 33.25C10.1037 33.25 11.167 32.1867 11.167 30.875C11.167 29.5633 10.1037 28.5 8.79199 28.5C7.48032 28.5 6.41699 29.5633 6.41699 30.875C6.41699 32.1867 7.48032 33.25 8.79199 33.25Z" stroke="black" stroke-opacity="0.6" stroke-width="2.66667" stroke-linecap="round" stroke-linejoin="round"/>
<path d="M29.375 33.25C30.6867 33.25 31.75 32.1867 31.75 30.875C31.75 29.5633 30.6867 28.5 29.375 28.5C28.0633 28.5 27 29.5633 27 30.875C27 32.1867 28.0633 33.25 29.375 33.25Z" stroke="black" stroke-opacity="0.6" stroke-width="2.66667" stroke-linecap="round" stroke-linejoin="round"/>
</g>
<defs>
<clipPath id="clip0_443_1048">
<rect width="38" height="38" fill="white"/>
</clipPath>
</defs>
</svg>
