<svg width="39" height="38" viewBox="0 0 39 38" fill="none" xmlns="http://www.w3.org/2000/svg">
<g clip-path="url(#clip0_910_5858)">
<path d="M25.0085 5.76138L17.0632 33.1303L13.9906 32.2387L21.9358 4.86981L25.0085 5.76138ZM9.7579 26.6144L1.63318 18.9971L9.75783 11.3856L11.941 13.7143L6.78591 18.2492L5.93239 19L6.78591 19.7509L11.941 24.2858L9.7579 26.6144ZM9.56093 11.1755L9.56125 11.1759L9.56093 11.1755ZM29.2411 11.3798L37.3661 19.0029L29.2441 26.6176L27.058 24.2858L32.2132 19.7509L33.0661 19.0005L32.2136 18.2496L27.0579 13.7085L29.2411 11.3798ZM26.8549 13.9251L26.8553 13.9246L26.8549 13.9251Z" stroke="white" stroke-opacity="0.6" stroke-width="2"/>
</g>
<defs>
<clipPath id="clip0_910_5858">
<rect width="38" height="38" fill="white" transform="translate(0.5)"/>
</clipPath>
</defs>
</svg>
