<svg width="38" height="38" viewBox="0 0 38 38" fill="none" xmlns="http://www.w3.org/2000/svg">
<g clip-path="url(#clip0_443_1050)">
<path d="M24.5085 5.76135L16.5632 33.1302L13.4906 32.2387L21.4358 4.86978L24.5085 5.76135ZM9.2579 26.6144L1.13318 18.9971L9.25783 11.3855L11.441 13.7143L6.28591 18.2492L5.43239 19L6.28591 19.7508L11.441 24.2857L9.2579 26.6144ZM9.06093 11.1755L9.06125 11.1759L9.06093 11.1755ZM28.7411 11.3798L36.8661 19.0029L28.7441 26.6176L26.558 24.2857L31.7132 19.7508L32.5661 19.0005L31.7136 18.2496L26.5579 13.7085L28.7411 11.3798ZM26.3549 13.9251L26.3553 13.9246L26.3549 13.9251Z" stroke="black" stroke-opacity="0.6" stroke-width="2"/>
</g>
<defs>
<clipPath id="clip0_443_1050">
<rect width="38" height="38" fill="white"/>
</clipPath>
</defs>
</svg>
