<svg width="39" height="39" viewBox="0 0 39 39" fill="none" xmlns="http://www.w3.org/2000/svg">
<g clip-path="url(#clip0_910_5941)">
<path d="M24.1788 35.0582C21.1492 35.0582 21.0158 33.2607 21.0103 33.1615L20.7258 30.0376H23.7884C24.0386 30.0376 24.2408 29.8305 24.2408 29.5742C24.2408 29.3179 24.0386 29.1108 23.7884 29.1108H1.94113C1.69187 29.1108 1.48875 28.9032 1.48875 28.6474V25.8956H22.6009C22.8511 25.8956 23.0533 25.6885 23.0533 25.4322C23.0533 25.1759 22.8511 24.9688 22.6009 24.9688H1.48875V6.09483C1.48875 5.83949 1.69187 5.63142 1.94113 5.63142H33.9846C34.2343 5.63142 34.437 5.83949 34.437 6.09483V17.6584C34.437 17.9142 34.6392 18.1218 34.8894 18.1218C35.1396 18.1218 35.3418 17.9142 35.3418 17.6584V6.09483C35.3418 5.32835 34.7329 4.70459 33.9846 4.70459H1.94113C1.19289 4.70459 0.583984 5.32835 0.583984 6.09483V28.6474C0.583984 29.4139 1.19289 30.0376 1.94113 30.0376H15.2004L14.9145 33.1842C14.9104 33.2607 14.777 35.0582 11.7469 35.0582C11.4972 35.0582 11.2946 35.2654 11.2946 35.5217C11.2946 35.7779 11.4972 35.9851 11.7469 35.9851H24.1788C24.429 35.9851 24.6312 35.7779 24.6312 35.5217C24.6312 35.2654 24.4285 35.0582 24.1788 35.0582ZM14.8376 35.0582C15.7672 34.264 15.817 33.2477 15.8166 33.2477L16.1088 30.0376H19.8174L20.1078 33.2199C20.1083 33.2366 20.1581 34.2612 21.09 35.0582H14.8376ZM37.9859 23.8756L36.271 23.7857C36.1909 23.5368 36.0918 23.2935 35.9756 23.0581L37.1273 21.7522C37.2884 21.5692 37.282 21.2883 37.1115 21.1141L35.6005 19.5668C35.43 19.3921 35.1563 19.3851 34.9776 19.5505L33.7028 20.7295C33.4734 20.6108 33.2364 20.5098 32.993 20.4273L32.9053 18.6705C32.893 18.424 32.694 18.2307 32.4533 18.2307H30.3167C30.0761 18.2307 29.877 18.424 29.8648 18.6701L29.7766 20.4269C29.5332 20.5093 29.2962 20.6104 29.0677 20.729L27.7924 19.5501C27.6142 19.3846 27.3396 19.3916 27.1695 19.5663L25.6586 21.1136C25.4885 21.2879 25.4812 21.5682 25.6427 21.7518L26.7936 23.0591C26.6773 23.2945 26.5787 23.5373 26.4991 23.7852L24.7837 23.8751C24.5434 23.8876 24.3548 24.0915 24.3548 24.3381V26.5263C24.3548 26.7729 24.5434 26.9768 24.7837 26.9893L26.4991 27.0796C26.5792 27.328 26.6778 27.5713 26.7936 27.8063L25.6427 29.1131C25.4817 29.2966 25.488 29.577 25.6586 29.7512L27.1691 31.2986C27.3392 31.4737 27.6128 31.4811 27.792 31.3148L29.0677 30.1359C29.2975 30.255 29.5346 30.3564 29.7775 30.438L29.8648 32.1939C29.877 32.4404 30.0761 32.6337 30.3167 32.6337H32.4533C32.694 32.6337 32.893 32.4404 32.9053 32.1943L32.993 30.438C33.2359 30.356 33.4734 30.2545 33.7028 30.1359L34.9776 31.3148C35.1563 31.4793 35.43 31.4737 35.6005 31.2986L37.1115 29.7512C37.282 29.577 37.2888 29.2966 37.1273 29.1131L35.9765 27.8063C36.0932 27.5709 36.1918 27.3276 36.2714 27.0792L37.9864 26.9893C38.2266 26.9768 38.4152 26.7729 38.4152 26.5263V24.3381C38.4152 24.092 38.2266 23.8881 37.9859 23.8756ZM37.5105 26.0865L35.9045 26.1713C35.7068 26.1815 35.539 26.3224 35.4897 26.5184C35.392 26.9077 35.2391 27.2845 35.0355 27.6385C34.9351 27.8132 34.9568 28.0343 35.0893 28.1844L36.1674 29.4088L35.2644 30.3333L34.0697 29.2285C33.9226 29.0927 33.706 29.0709 33.5359 29.1738C33.1925 29.3819 32.8256 29.5385 32.4443 29.6386C32.2529 29.6891 32.1149 29.8611 32.105 30.0636L32.0222 31.7087H30.7456L30.6637 30.064C30.6537 29.8611 30.5162 29.6891 30.3244 29.6386C29.9431 29.5385 29.5762 29.3819 29.2319 29.1738C29.0627 29.0705 28.8456 29.0927 28.6986 29.2285L27.5029 30.3333L26.6004 29.4088L27.6784 28.1844C27.811 28.0343 27.8327 27.8132 27.7323 27.6385C27.5292 27.2854 27.3767 26.9091 27.279 26.5194C27.2297 26.3229 27.0618 26.182 26.8642 26.1718L25.2573 26.087V24.7792L26.8642 24.6944C27.0618 24.6842 27.2297 24.5434 27.279 24.3469C27.3762 23.9585 27.5292 23.5822 27.7323 23.2277C27.8327 23.0535 27.811 22.8324 27.6784 22.6823L26.6004 21.4575L27.5034 20.533L28.6986 21.6378C28.8451 21.7735 29.0627 21.7958 29.2319 21.6924C29.5739 21.4853 29.9412 21.3291 30.324 21.2272C30.5153 21.1767 30.6524 21.0047 30.6623 20.8027L30.7451 19.1576H32.0222L32.105 20.8022C32.1149 21.0043 32.2525 21.1762 32.4438 21.2272C32.8265 21.3287 33.1939 21.4853 33.5363 21.6929C33.7064 21.7953 33.9226 21.7735 34.0697 21.6378L35.2644 20.533L36.1674 21.4575L35.0884 22.6814C34.9559 22.8315 34.9337 23.053 35.0346 23.2277C35.2382 23.5809 35.3911 23.9571 35.4888 24.3473C35.5381 24.5438 35.7059 24.6847 35.9041 24.6949L37.5105 24.7792V26.0865ZM31.3843 22.8959C30.0186 22.8959 28.908 24.0341 28.908 25.4331C28.908 26.8322 30.0186 27.9703 31.3843 27.9703C32.7501 27.9703 33.8607 26.8322 33.8607 25.4331C33.8607 24.0341 32.7501 22.8959 31.3843 22.8959ZM31.3843 27.043C30.518 27.043 29.8128 26.3206 29.8128 25.4327C29.8128 24.5448 30.518 23.8223 31.3843 23.8223C32.2507 23.8223 32.9559 24.5448 32.9559 25.4327C32.9559 26.3206 32.2511 27.043 31.3843 27.043Z" fill="white" fill-opacity="0.6"/>
</g>
<defs>
<clipPath id="clip0_910_5941">
<rect width="38" height="38" fill="white" transform="translate(0.5 0.417969)"/>
</clipPath>
</defs>
</svg>
