<svg width="39" height="38" viewBox="0 0 39 38" fill="none" xmlns="http://www.w3.org/2000/svg">
<g clip-path="url(#clip0_1143_911)">
<path d="M24.1792 34.6403C21.1496 34.6403 21.0161 32.8427 21.0107 32.7435L20.7262 29.6196H23.7888C24.0389 29.6196 24.2412 29.4125 24.2412 29.1562C24.2412 28.9 24.0389 28.6928 23.7888 28.6928H1.94149C1.69223 28.6928 1.48911 28.4852 1.48911 28.2294V25.4776H22.6013C22.8514 25.4776 23.0537 25.2705 23.0537 25.0142C23.0537 24.758 22.8514 24.5508 22.6013 24.5508H1.48911V5.67686C1.48911 5.42152 1.69223 5.21345 1.94149 5.21345H33.985C34.2347 5.21345 34.4374 5.42152 34.4374 5.67686V17.2404C34.4374 17.4963 34.6396 17.7039 34.8898 17.7039C35.1399 17.7039 35.3421 17.4963 35.3421 17.2404V5.67686C35.3421 4.91038 34.7332 4.28662 33.985 4.28662H1.94149C1.19326 4.28662 0.584351 4.91038 0.584351 5.67686V28.2294C0.584351 28.9959 1.19326 29.6196 1.94149 29.6196H15.2008L14.9149 32.7662C14.9108 32.8427 14.7774 34.6403 11.7473 34.6403C11.4976 34.6403 11.2949 34.8474 11.2949 35.1037C11.2949 35.36 11.4976 35.5671 11.7473 35.5671H24.1792C24.4294 35.5671 24.6316 35.36 24.6316 35.1037C24.6316 34.8474 24.4289 34.6403 24.1792 34.6403ZM14.838 34.6403C15.7676 33.846 15.8174 32.8297 15.8169 32.8297L16.1092 29.6196H19.8178L20.1082 32.8019C20.1087 32.8186 20.1584 33.8432 21.0903 34.6403H14.838ZM37.9863 23.4576L36.2713 23.3677C36.1913 23.1189 36.0922 22.8756 35.9759 22.6402L37.1277 21.3343C37.2887 21.1512 37.2824 20.8704 37.1118 20.6961L35.6009 19.1488C35.4304 18.9741 35.1567 18.9671 34.978 19.1326L33.7032 20.3115C33.4738 20.1929 33.2368 20.0918 32.9934 20.0094L32.9056 18.2525C32.8934 18.006 32.6944 17.8128 32.4537 17.8128H30.3171C30.0764 17.8128 29.8774 18.006 29.8652 18.2521L29.7769 20.0089C29.5336 20.0914 29.2965 20.1924 29.0681 20.311L27.7928 19.1321C27.6146 18.9667 27.34 18.9736 27.1699 19.1483L25.6589 20.6957C25.4888 20.8699 25.4816 21.1503 25.6431 21.3338L26.7939 22.6411C26.6777 22.8765 26.5791 23.1193 26.4994 23.3673L24.784 23.4572C24.5438 23.4697 24.3552 23.6736 24.3552 23.9201V26.1084C24.3552 26.3549 24.5438 26.5588 24.784 26.5713L26.4994 26.6617C26.5795 26.9101 26.6781 27.1534 26.7939 27.3883L25.6431 28.6951C25.482 28.8786 25.4884 29.159 25.6589 29.3333L27.1694 30.8806C27.3395 31.0558 27.6132 31.0632 27.7924 30.8968L29.0681 29.7179C29.2979 29.837 29.5349 29.9385 29.7779 30.02L29.8652 31.7759C29.8774 32.0224 30.0764 32.2157 30.3171 32.2157H32.4537C32.6944 32.2157 32.8934 32.0224 32.9056 31.7764L32.9934 30.02C33.2363 29.938 33.4738 29.8365 33.7032 29.7179L34.978 30.8968C35.1567 31.0613 35.4304 31.0558 35.6009 30.8806L37.1118 29.3333C37.2824 29.159 37.2892 28.8786 37.1277 28.6951L35.9768 27.3883C36.0935 27.1529 36.1922 26.9096 36.2718 26.6612L37.9868 26.5713C38.227 26.5588 38.4156 26.3549 38.4156 26.1084V23.9201C38.4156 23.674 38.227 23.4701 37.9863 23.4576ZM37.5108 25.6686L35.9049 25.7534C35.7072 25.7636 35.5394 25.9044 35.4901 26.1005C35.3924 26.4897 35.2394 26.8665 35.0359 27.2205C34.9354 27.3953 34.9572 27.6163 35.0897 27.7664L36.1677 28.9908L35.2648 29.9153L34.07 28.8105C33.923 28.6747 33.7063 28.653 33.5362 28.7558C33.1929 28.9639 32.826 29.1205 32.4446 29.2206C32.2533 29.2712 32.1153 29.4431 32.1053 29.6456L32.0226 31.2907H30.7459L30.6641 29.6461C30.6541 29.4431 30.5166 29.2712 30.3248 29.2206C29.9434 29.1205 29.5765 28.9639 29.2323 28.7558C29.0631 28.6525 28.8459 28.6747 28.6989 28.8105L27.5033 29.9153L26.6008 28.9908L27.6788 27.7664C27.8114 27.6163 27.8331 27.3953 27.7326 27.2205C27.5295 26.8674 27.3771 26.4911 27.2794 26.1014C27.23 25.9049 27.0622 25.764 26.8645 25.7538L25.2577 25.669V24.3613L26.8645 24.2765C27.0622 24.2663 27.23 24.1254 27.2794 23.9289C27.3766 23.5406 27.5295 23.1643 27.7326 22.8098C27.8331 22.6355 27.8114 22.4145 27.6788 22.2643L26.6008 21.0395L27.5037 20.115L28.6989 21.2198C28.8455 21.3556 29.0631 21.3778 29.2323 21.2745C29.5743 21.0673 29.9416 20.9112 30.3243 20.8092C30.5157 20.7587 30.6528 20.5868 30.6627 20.3847L30.7455 18.7396H32.0226L32.1053 20.3843C32.1153 20.5863 32.2528 20.7582 32.4442 20.8092C32.8269 20.9107 33.1942 21.0673 33.5367 21.2749C33.7068 21.3774 33.923 21.3556 34.07 21.2198L35.2648 20.115L36.1677 21.0395L35.0888 22.2634C34.9563 22.4135 34.9341 22.6351 35.035 22.8098C35.2385 23.1629 35.3914 23.5392 35.4892 23.9294C35.5385 24.1259 35.7063 24.2667 35.9044 24.2769L37.5108 24.3613V25.6686ZM31.3847 22.478C30.019 22.478 28.9084 23.6161 28.9084 25.0152C28.9084 26.4142 30.019 27.5524 31.3847 27.5524C32.7505 27.5524 33.861 26.4142 33.861 25.0152C33.861 23.6161 32.7505 22.478 31.3847 22.478ZM31.3847 26.6251C30.5184 26.6251 29.8131 25.9026 29.8131 25.0147C29.8131 24.1268 30.5184 23.4043 31.3847 23.4043C32.251 23.4043 32.9563 24.1268 32.9563 25.0147C32.9563 25.9026 32.2515 26.6251 31.3847 26.6251Z" fill="black" fill-opacity="0.6"/>
</g>
<defs>
<clipPath id="clip0_1143_911">
<rect width="38" height="38" fill="white" transform="translate(0.5)"/>
</clipPath>
</defs>
</svg>
