<svg width="38" height="38" viewBox="0 0 38 38" fill="none" xmlns="http://www.w3.org/2000/svg">
<mask id="path-1-inside-1_443_1041" fill="white">
<path fill-rule="evenodd" clip-rule="evenodd" d="M32.692 7.157V3.29115C32.6904 2.83814 32.5266 2.4042 32.2364 2.08405C31.9462 1.7639 31.5531 1.58352 31.1429 1.58228H2.54819C2.13822 1.58401 1.74547 1.76458 1.4555 2.08466C1.16552 2.40473 1.0018 2.83838 1 3.29115V7.157H32.692ZM11.9455 5.36975C11.8614 5.37463 11.7772 5.36054 11.6981 5.32834C11.6191 5.29613 11.5468 5.24649 11.4856 5.18243C11.4245 5.11837 11.3758 5.04124 11.3426 4.95573C11.3093 4.87023 11.2921 4.77813 11.2921 4.68507C11.2921 4.592 11.3093 4.49991 11.3426 4.4144C11.3758 4.32889 11.4245 4.25176 11.4856 4.1877C11.5468 4.12364 11.6191 4.074 11.6981 4.04179C11.7772 4.00959 11.8614 3.9955 11.9455 4.00038H29.561C29.6451 3.9955 29.7293 4.00959 29.8083 4.04179C29.8874 4.074 29.9597 4.12364 30.0208 4.1877C30.082 4.25176 30.1307 4.32889 30.1639 4.4144C30.1972 4.49991 30.2143 4.592 30.2143 4.68507C30.2143 4.77813 30.1972 4.87023 30.1639 4.95573C30.1307 5.04124 30.082 5.11837 30.0208 5.18243C29.9597 5.24649 29.8874 5.29613 29.8083 5.32834C29.7293 5.36054 29.6451 5.37463 29.561 5.36975H11.9455ZM9.0736 4.00038C9.15776 3.9955 9.24193 4.00959 9.32099 4.04179C9.40006 4.074 9.47235 4.12364 9.53349 4.1877C9.59462 4.25176 9.6433 4.32889 9.67657 4.4144C9.70984 4.49991 9.72699 4.592 9.72699 4.68507C9.72699 4.77813 9.70984 4.87023 9.67657 4.95573C9.6433 5.04124 9.59462 5.11837 9.53349 5.18243C9.47235 5.24649 9.40006 5.29613 9.32099 5.32834C9.24193 5.36054 9.15776 5.37463 9.0736 5.36975C8.98945 5.37463 8.90528 5.36054 8.82621 5.32834C8.74715 5.29613 8.67485 5.24649 8.61372 5.18243C8.55259 5.11837 8.5039 5.04124 8.47064 4.95573C8.43737 4.87023 8.42021 4.77813 8.42021 4.68507C8.42021 4.592 8.43737 4.49991 8.47064 4.4144C8.5039 4.32889 8.55259 4.25176 8.61372 4.1877C8.67485 4.12364 8.74715 4.074 8.82621 4.04179C8.90528 4.00959 8.98945 3.9955 9.0736 4.00038ZM6.60359 4.00038C6.68775 3.9955 6.77192 4.00959 6.85098 4.04179C6.93005 4.074 7.00235 4.12364 7.06348 4.1877C7.12461 4.25176 7.17329 4.32889 7.20656 4.4144C7.23982 4.49991 7.25698 4.592 7.25698 4.68507C7.25698 4.77813 7.23982 4.87023 7.20656 4.95573C7.17329 5.04124 7.12461 5.11837 7.06348 5.18243C7.00235 5.24649 6.93005 5.29613 6.85098 5.32834C6.77192 5.36054 6.68775 5.37463 6.60359 5.36975C6.51944 5.37463 6.43527 5.36054 6.3562 5.32834C6.27714 5.29613 6.20484 5.24649 6.14371 5.18243C6.08258 5.11837 6.03389 5.04124 6.00063 4.95573C5.96736 4.87023 5.9502 4.77813 5.9502 4.68507C5.9502 4.592 5.96736 4.49991 6.00063 4.4144C6.03389 4.32889 6.08258 4.25176 6.14371 4.1877C6.20484 4.12364 6.27714 4.074 6.3562 4.04179C6.43527 4.00959 6.51944 3.9955 6.60359 4.00038ZM4.13358 4.00038C4.21774 3.9955 4.30191 4.00959 4.38097 4.04179C4.46004 4.074 4.53234 4.12364 4.59347 4.1877C4.6546 4.25176 4.70328 4.32889 4.73655 4.4144C4.76981 4.49991 4.78697 4.592 4.78697 4.68507C4.78697 4.77813 4.76981 4.87023 4.73655 4.95573C4.70328 5.04124 4.6546 5.11837 4.59347 5.18243C4.53234 5.24649 4.46004 5.29613 4.38097 5.32834C4.30191 5.36054 4.21774 5.37463 4.13358 5.36975C4.04943 5.37463 3.96526 5.36054 3.88619 5.32834C3.80713 5.29613 3.73483 5.24649 3.6737 5.18243C3.61257 5.11837 3.56388 5.04124 3.53062 4.95573C3.49735 4.87023 3.48019 4.77813 3.48019 4.68507C3.48019 4.592 3.49735 4.49991 3.53062 4.4144C3.56388 4.32889 3.61257 4.25176 3.6737 4.1877C3.73483 4.12364 3.80713 4.074 3.88619 4.04179C3.96526 4.00959 4.04943 3.9955 4.13358 4.00038ZM4.2238 29.7458C4.13964 29.7507 4.05547 29.7366 3.97641 29.7044C3.89734 29.6722 3.82504 29.6226 3.76391 29.5585C3.70278 29.4945 3.6541 29.4173 3.62083 29.3318C3.58756 29.2463 3.57041 29.1542 3.57041 29.0612C3.57041 28.9681 3.58756 28.876 3.62083 28.7905C3.6541 28.705 3.70278 28.6279 3.76391 28.5638C3.82504 28.4997 3.89734 28.4501 3.97641 28.4179C4.05547 28.3857 4.13964 28.3716 4.2238 28.3765H24.2165C24.3006 28.3716 24.3848 28.3857 24.4639 28.4179C24.5429 28.4501 24.6152 28.4997 24.6764 28.5638C24.7375 28.6279 24.7862 28.705 24.8194 28.7905C24.8527 28.876 24.8699 28.9681 24.8699 29.0612C24.8699 29.1542 24.8527 29.2463 24.8194 29.3318C24.7862 29.4173 24.7375 29.4945 24.6764 29.5585C24.6152 29.6226 24.5429 29.6722 24.4639 29.7044C24.3848 29.7366 24.3006 29.7507 24.2165 29.7458H4.2238ZM4.2238 33.8657C4.065 33.8565 3.91547 33.7804 3.80602 33.653C3.69657 33.5256 3.63555 33.3567 3.63555 33.1811C3.63555 33.0054 3.69657 32.8365 3.80602 32.7091C3.91547 32.5817 4.065 32.5056 4.2238 32.4964H24.2165C24.3006 32.4915 24.3848 32.5056 24.4639 32.5378C24.5429 32.57 24.6152 32.6196 24.6764 32.6837C24.7375 32.7477 24.7862 32.8249 24.8194 32.9104C24.8527 32.9959 24.8699 33.088 24.8699 33.1811C24.8699 33.2741 24.8527 33.3662 24.8194 33.4517C24.7862 33.5372 24.7375 33.6144 24.6764 33.6784C24.6152 33.7425 24.5429 33.7921 24.4639 33.8243C24.3848 33.8565 24.3006 33.8706 24.2165 33.8657H4.2238ZM36.9039 18.6271L35.2903 17.5028C35.2431 17.4711 35.1867 17.4608 35.1328 17.474C35.079 17.4872 35.0318 17.5229 35.0012 17.5736L28.4814 28.9809L30.4481 30.3503L36.968 18.9468C36.9827 18.9208 36.9926 18.8918 36.9971 18.8616C37.0017 18.8314 37.0008 18.8005 36.9945 18.7706C36.9824 18.7121 36.9498 18.6612 36.9039 18.629V18.6271ZM28.7366 31.6285L29.4045 31.2408L28.1616 30.3743L28.0987 31.213L28.0701 32.0157L28.7375 31.628L28.7366 31.6285ZM32.692 19.0539V8.52778H1V34.8734C1.0018 35.3261 1.16546 35.7597 1.45534 36.0797C1.74523 36.3998 2.13787 36.5804 2.54776 36.5823H31.1429C31.5528 36.5805 31.9455 36.3999 32.2353 36.0798C32.5252 35.7597 32.6887 35.3261 32.6903 34.8734V28.988L31.1758 31.6375C31.1176 31.7491 31.0317 31.8402 30.9283 31.9L27.6968 33.7774C27.5986 33.8346 27.4884 33.8615 27.3775 33.8554C27.2667 33.8493 27.1594 33.8105 27.0669 33.7429C26.9743 33.6753 26.8999 33.5815 26.8514 33.4713C26.8029 33.3611 26.7821 33.2385 26.7912 33.1164L26.8622 31.1332V31.1039L27.0097 29.141C27.019 29.0146 27.06 28.8936 27.1281 28.7915L32.692 19.0539ZM20.9153 14.1951C21.8569 15.2347 22.443 16.6027 22.5737 18.0661C22.7043 19.5294 22.3715 20.9976 21.6319 22.2203C20.8923 23.4431 19.7917 24.3447 18.5177 24.7717C17.2436 25.1987 15.8748 25.1246 14.6447 24.5621C13.4145 23.9995 12.3991 22.9832 11.7713 21.6864C11.1436 20.3897 10.9424 18.8926 11.202 17.4504C11.4617 16.0082 12.1661 14.71 13.1953 13.7771C14.2245 12.8442 15.5147 12.3342 16.8462 12.3341C17.602 12.333 18.3506 12.4969 19.0489 12.8162C19.7472 13.1356 20.3814 13.6042 20.9153 14.1951ZM16.8462 10.9629C18.4648 10.9625 20.0335 11.5819 21.2849 12.7156C22.5363 13.8493 23.3931 15.4272 23.7092 17.1803C24.0254 18.9335 23.7813 20.7535 23.0186 22.3302C22.2559 23.9068 21.0218 25.1427 19.5265 25.8271C18.0313 26.5116 16.3674 26.6023 14.8184 26.0837C13.2694 25.5652 11.9311 24.4695 11.0316 22.9834C10.132 21.4973 9.7269 19.7127 9.88521 17.9337C10.0435 16.1547 10.7555 14.4913 11.8998 13.2271C12.5486 12.5085 13.3196 11.9387 14.1685 11.5503C15.0173 11.1619 15.9274 10.9626 16.8462 10.9638V10.9629ZM17.4277 17.7153L18.9575 18.6894L17.4311 19.6626H17.429L15.9017 20.6367V18.6889H15.9043V16.7411L17.4277 17.7129V17.7153ZM16.0757 15.2754L18.0455 16.5324L20.0153 17.7885C20.1585 17.8786 20.2777 18.0089 20.3607 18.1662V18.1691C20.4227 18.2875 20.4628 18.4183 20.4789 18.5539C20.4949 18.6896 20.4866 18.8274 20.4543 18.9595C20.422 19.0915 20.3664 19.2152 20.2907 19.3235C20.215 19.4318 20.1207 19.5225 20.0131 19.5904L18.0464 20.845L16.0783 22.1043H16.0757C15.8596 22.2414 15.6031 22.2787 15.3623 22.2079C15.1214 22.1372 14.9156 21.9641 14.7896 21.7266C14.7059 21.5681 14.6616 21.3879 14.6614 21.2043H14.6635V18.6889H14.6614V16.1769C14.6618 15.9942 14.7061 15.815 14.7896 15.6575V15.6546C14.851 15.5357 14.9332 15.4314 15.0314 15.3478C15.1296 15.2643 15.2419 15.2032 15.3617 15.168C15.4815 15.1329 15.6065 15.1244 15.7293 15.1431C15.8521 15.1618 15.9703 15.2072 16.077 15.2769L16.0757 15.2754Z"/>
</mask>
<path fill-rule="evenodd" clip-rule="evenodd" d="M32.692 7.157V3.29115C32.6904 2.83814 32.5266 2.4042 32.2364 2.08405C31.9462 1.7639 31.5531 1.58352 31.1429 1.58228H2.54819C2.13822 1.58401 1.74547 1.76458 1.4555 2.08466C1.16552 2.40473 1.0018 2.83838 1 3.29115V7.157H32.692ZM11.9455 5.36975C11.8614 5.37463 11.7772 5.36054 11.6981 5.32834C11.6191 5.29613 11.5468 5.24649 11.4856 5.18243C11.4245 5.11837 11.3758 5.04124 11.3426 4.95573C11.3093 4.87023 11.2921 4.77813 11.2921 4.68507C11.2921 4.592 11.3093 4.49991 11.3426 4.4144C11.3758 4.32889 11.4245 4.25176 11.4856 4.1877C11.5468 4.12364 11.6191 4.074 11.6981 4.04179C11.7772 4.00959 11.8614 3.9955 11.9455 4.00038H29.561C29.6451 3.9955 29.7293 4.00959 29.8083 4.04179C29.8874 4.074 29.9597 4.12364 30.0208 4.1877C30.082 4.25176 30.1307 4.32889 30.1639 4.4144C30.1972 4.49991 30.2143 4.592 30.2143 4.68507C30.2143 4.77813 30.1972 4.87023 30.1639 4.95573C30.1307 5.04124 30.082 5.11837 30.0208 5.18243C29.9597 5.24649 29.8874 5.29613 29.8083 5.32834C29.7293 5.36054 29.6451 5.37463 29.561 5.36975H11.9455ZM9.0736 4.00038C9.15776 3.9955 9.24193 4.00959 9.32099 4.04179C9.40006 4.074 9.47235 4.12364 9.53349 4.1877C9.59462 4.25176 9.6433 4.32889 9.67657 4.4144C9.70984 4.49991 9.72699 4.592 9.72699 4.68507C9.72699 4.77813 9.70984 4.87023 9.67657 4.95573C9.6433 5.04124 9.59462 5.11837 9.53349 5.18243C9.47235 5.24649 9.40006 5.29613 9.32099 5.32834C9.24193 5.36054 9.15776 5.37463 9.0736 5.36975C8.98945 5.37463 8.90528 5.36054 8.82621 5.32834C8.74715 5.29613 8.67485 5.24649 8.61372 5.18243C8.55259 5.11837 8.5039 5.04124 8.47064 4.95573C8.43737 4.87023 8.42021 4.77813 8.42021 4.68507C8.42021 4.592 8.43737 4.49991 8.47064 4.4144C8.5039 4.32889 8.55259 4.25176 8.61372 4.1877C8.67485 4.12364 8.74715 4.074 8.82621 4.04179C8.90528 4.00959 8.98945 3.9955 9.0736 4.00038ZM6.60359 4.00038C6.68775 3.9955 6.77192 4.00959 6.85098 4.04179C6.93005 4.074 7.00235 4.12364 7.06348 4.1877C7.12461 4.25176 7.17329 4.32889 7.20656 4.4144C7.23982 4.49991 7.25698 4.592 7.25698 4.68507C7.25698 4.77813 7.23982 4.87023 7.20656 4.95573C7.17329 5.04124 7.12461 5.11837 7.06348 5.18243C7.00235 5.24649 6.93005 5.29613 6.85098 5.32834C6.77192 5.36054 6.68775 5.37463 6.60359 5.36975C6.51944 5.37463 6.43527 5.36054 6.3562 5.32834C6.27714 5.29613 6.20484 5.24649 6.14371 5.18243C6.08258 5.11837 6.03389 5.04124 6.00063 4.95573C5.96736 4.87023 5.9502 4.77813 5.9502 4.68507C5.9502 4.592 5.96736 4.49991 6.00063 4.4144C6.03389 4.32889 6.08258 4.25176 6.14371 4.1877C6.20484 4.12364 6.27714 4.074 6.3562 4.04179C6.43527 4.00959 6.51944 3.9955 6.60359 4.00038ZM4.13358 4.00038C4.21774 3.9955 4.30191 4.00959 4.38097 4.04179C4.46004 4.074 4.53234 4.12364 4.59347 4.1877C4.6546 4.25176 4.70328 4.32889 4.73655 4.4144C4.76981 4.49991 4.78697 4.592 4.78697 4.68507C4.78697 4.77813 4.76981 4.87023 4.73655 4.95573C4.70328 5.04124 4.6546 5.11837 4.59347 5.18243C4.53234 5.24649 4.46004 5.29613 4.38097 5.32834C4.30191 5.36054 4.21774 5.37463 4.13358 5.36975C4.04943 5.37463 3.96526 5.36054 3.88619 5.32834C3.80713 5.29613 3.73483 5.24649 3.6737 5.18243C3.61257 5.11837 3.56388 5.04124 3.53062 4.95573C3.49735 4.87023 3.48019 4.77813 3.48019 4.68507C3.48019 4.592 3.49735 4.49991 3.53062 4.4144C3.56388 4.32889 3.61257 4.25176 3.6737 4.1877C3.73483 4.12364 3.80713 4.074 3.88619 4.04179C3.96526 4.00959 4.04943 3.9955 4.13358 4.00038ZM4.2238 29.7458C4.13964 29.7507 4.05547 29.7366 3.97641 29.7044C3.89734 29.6722 3.82504 29.6226 3.76391 29.5585C3.70278 29.4945 3.6541 29.4173 3.62083 29.3318C3.58756 29.2463 3.57041 29.1542 3.57041 29.0612C3.57041 28.9681 3.58756 28.876 3.62083 28.7905C3.6541 28.705 3.70278 28.6279 3.76391 28.5638C3.82504 28.4997 3.89734 28.4501 3.97641 28.4179C4.05547 28.3857 4.13964 28.3716 4.2238 28.3765H24.2165C24.3006 28.3716 24.3848 28.3857 24.4639 28.4179C24.5429 28.4501 24.6152 28.4997 24.6764 28.5638C24.7375 28.6279 24.7862 28.705 24.8194 28.7905C24.8527 28.876 24.8699 28.9681 24.8699 29.0612C24.8699 29.1542 24.8527 29.2463 24.8194 29.3318C24.7862 29.4173 24.7375 29.4945 24.6764 29.5585C24.6152 29.6226 24.5429 29.6722 24.4639 29.7044C24.3848 29.7366 24.3006 29.7507 24.2165 29.7458H4.2238ZM4.2238 33.8657C4.065 33.8565 3.91547 33.7804 3.80602 33.653C3.69657 33.5256 3.63555 33.3567 3.63555 33.1811C3.63555 33.0054 3.69657 32.8365 3.80602 32.7091C3.91547 32.5817 4.065 32.5056 4.2238 32.4964H24.2165C24.3006 32.4915 24.3848 32.5056 24.4639 32.5378C24.5429 32.57 24.6152 32.6196 24.6764 32.6837C24.7375 32.7477 24.7862 32.8249 24.8194 32.9104C24.8527 32.9959 24.8699 33.088 24.8699 33.1811C24.8699 33.2741 24.8527 33.3662 24.8194 33.4517C24.7862 33.5372 24.7375 33.6144 24.6764 33.6784C24.6152 33.7425 24.5429 33.7921 24.4639 33.8243C24.3848 33.8565 24.3006 33.8706 24.2165 33.8657H4.2238ZM36.9039 18.6271L35.2903 17.5028C35.2431 17.4711 35.1867 17.4608 35.1328 17.474C35.079 17.4872 35.0318 17.5229 35.0012 17.5736L28.4814 28.9809L30.4481 30.3503L36.968 18.9468C36.9827 18.9208 36.9926 18.8918 36.9971 18.8616C37.0017 18.8314 37.0008 18.8005 36.9945 18.7706C36.9824 18.7121 36.9498 18.6612 36.9039 18.629V18.6271ZM28.7366 31.6285L29.4045 31.2408L28.1616 30.3743L28.0987 31.213L28.0701 32.0157L28.7375 31.628L28.7366 31.6285ZM32.692 19.0539V8.52778H1V34.8734C1.0018 35.3261 1.16546 35.7597 1.45534 36.0797C1.74523 36.3998 2.13787 36.5804 2.54776 36.5823H31.1429C31.5528 36.5805 31.9455 36.3999 32.2353 36.0798C32.5252 35.7597 32.6887 35.3261 32.6903 34.8734V28.988L31.1758 31.6375C31.1176 31.7491 31.0317 31.8402 30.9283 31.9L27.6968 33.7774C27.5986 33.8346 27.4884 33.8615 27.3775 33.8554C27.2667 33.8493 27.1594 33.8105 27.0669 33.7429C26.9743 33.6753 26.8999 33.5815 26.8514 33.4713C26.8029 33.3611 26.7821 33.2385 26.7912 33.1164L26.8622 31.1332V31.1039L27.0097 29.141C27.019 29.0146 27.06 28.8936 27.1281 28.7915L32.692 19.0539ZM20.9153 14.1951C21.8569 15.2347 22.443 16.6027 22.5737 18.0661C22.7043 19.5294 22.3715 20.9976 21.6319 22.2203C20.8923 23.4431 19.7917 24.3447 18.5177 24.7717C17.2436 25.1987 15.8748 25.1246 14.6447 24.5621C13.4145 23.9995 12.3991 22.9832 11.7713 21.6864C11.1436 20.3897 10.9424 18.8926 11.202 17.4504C11.4617 16.0082 12.1661 14.71 13.1953 13.7771C14.2245 12.8442 15.5147 12.3342 16.8462 12.3341C17.602 12.333 18.3506 12.4969 19.0489 12.8162C19.7472 13.1356 20.3814 13.6042 20.9153 14.1951ZM16.8462 10.9629C18.4648 10.9625 20.0335 11.5819 21.2849 12.7156C22.5363 13.8493 23.3931 15.4272 23.7092 17.1803C24.0254 18.9335 23.7813 20.7535 23.0186 22.3302C22.2559 23.9068 21.0218 25.1427 19.5265 25.8271C18.0313 26.5116 16.3674 26.6023 14.8184 26.0837C13.2694 25.5652 11.9311 24.4695 11.0316 22.9834C10.132 21.4973 9.7269 19.7127 9.88521 17.9337C10.0435 16.1547 10.7555 14.4913 11.8998 13.2271C12.5486 12.5085 13.3196 11.9387 14.1685 11.5503C15.0173 11.1619 15.9274 10.9626 16.8462 10.9638V10.9629ZM17.4277 17.7153L18.9575 18.6894L17.4311 19.6626H17.429L15.9017 20.6367V18.6889H15.9043V16.7411L17.4277 17.7129V17.7153ZM16.0757 15.2754L18.0455 16.5324L20.0153 17.7885C20.1585 17.8786 20.2777 18.0089 20.3607 18.1662V18.1691C20.4227 18.2875 20.4628 18.4183 20.4789 18.5539C20.4949 18.6896 20.4866 18.8274 20.4543 18.9595C20.422 19.0915 20.3664 19.2152 20.2907 19.3235C20.215 19.4318 20.1207 19.5225 20.0131 19.5904L18.0464 20.845L16.0783 22.1043H16.0757C15.8596 22.2414 15.6031 22.2787 15.3623 22.2079C15.1214 22.1372 14.9156 21.9641 14.7896 21.7266C14.7059 21.5681 14.6616 21.3879 14.6614 21.2043H14.6635V18.6889H14.6614V16.1769C14.6618 15.9942 14.7061 15.815 14.7896 15.6575V15.6546C14.851 15.5357 14.9332 15.4314 15.0314 15.3478C15.1296 15.2643 15.2419 15.2032 15.3617 15.168C15.4815 15.1329 15.6065 15.1244 15.7293 15.1431C15.8521 15.1618 15.9703 15.2072 16.077 15.2769L16.0757 15.2754Z" stroke="black" stroke-opacity="0.6" stroke-width="1.6" mask="url(#path-1-inside-1_443_1041)"/>
</svg>
