<svg width="39" height="39" viewBox="0 0 39 39" fill="none" xmlns="http://www.w3.org/2000/svg">
<mask id="path-1-inside-1_910_5877" fill="white">
<path fill-rule="evenodd" clip-rule="evenodd" d="M33.192 7.57461V3.70875C33.1904 3.25574 33.0266 2.82181 32.7364 2.50165C32.4462 2.1815 32.0531 2.00112 31.6429 1.99988H3.04819C2.63822 2.00162 2.24547 2.18219 1.9555 2.50226C1.66552 2.82233 1.5018 3.25598 1.5 3.70875V7.57461H33.192ZM12.4455 5.78735C12.3614 5.79223 12.2772 5.77814 12.1981 5.74594C12.1191 5.71374 12.0468 5.66409 11.9856 5.60004C11.9245 5.53598 11.8758 5.45884 11.8426 5.37334C11.8093 5.28783 11.7921 5.19574 11.7921 5.10267C11.7921 5.0096 11.8093 4.91751 11.8426 4.832C11.8758 4.74649 11.9245 4.66936 11.9856 4.6053C12.0468 4.54124 12.1191 4.4916 12.1981 4.4594C12.2772 4.42719 12.3614 4.4131 12.4455 4.41799H30.061C30.1451 4.4131 30.2293 4.42719 30.3083 4.4594C30.3874 4.4916 30.4597 4.54124 30.5208 4.6053C30.582 4.66936 30.6307 4.74649 30.6639 4.832C30.6972 4.91751 30.7143 5.0096 30.7143 5.10267C30.7143 5.19574 30.6972 5.28783 30.6639 5.37334C30.6307 5.45884 30.582 5.53598 30.5208 5.60004C30.4597 5.66409 30.3874 5.71374 30.3083 5.74594C30.2293 5.77814 30.1451 5.79223 30.061 5.78735H12.4455ZM9.5736 4.41799C9.65776 4.4131 9.74193 4.42719 9.82099 4.4594C9.90006 4.4916 9.97235 4.54124 10.0335 4.6053C10.0946 4.66936 10.1433 4.74649 10.1766 4.832C10.2098 4.91751 10.227 5.0096 10.227 5.10267C10.227 5.19574 10.2098 5.28783 10.1766 5.37334C10.1433 5.45884 10.0946 5.53598 10.0335 5.60004C9.97235 5.66409 9.90006 5.71374 9.82099 5.74594C9.74193 5.77814 9.65776 5.79223 9.5736 5.78735C9.48945 5.79223 9.40528 5.77814 9.32621 5.74594C9.24715 5.71374 9.17485 5.66409 9.11372 5.60004C9.05259 5.53598 9.0039 5.45884 8.97064 5.37334C8.93737 5.28783 8.92021 5.19574 8.92021 5.10267C8.92021 5.0096 8.93737 4.91751 8.97064 4.832C9.0039 4.74649 9.05259 4.66936 9.11372 4.6053C9.17485 4.54124 9.24715 4.4916 9.32621 4.4594C9.40528 4.42719 9.48945 4.4131 9.5736 4.41799ZM7.10359 4.41799C7.18775 4.4131 7.27192 4.42719 7.35098 4.4594C7.43005 4.4916 7.50235 4.54124 7.56348 4.6053C7.62461 4.66936 7.67329 4.74649 7.70656 4.832C7.73982 4.91751 7.75698 5.0096 7.75698 5.10267C7.75698 5.19574 7.73982 5.28783 7.70656 5.37334C7.67329 5.45884 7.62461 5.53598 7.56348 5.60004C7.50235 5.66409 7.43005 5.71374 7.35098 5.74594C7.27192 5.77814 7.18775 5.79223 7.10359 5.78735C7.01944 5.79223 6.93527 5.77814 6.8562 5.74594C6.77714 5.71374 6.70484 5.66409 6.64371 5.60004C6.58258 5.53598 6.53389 5.45884 6.50063 5.37334C6.46736 5.28783 6.4502 5.19574 6.4502 5.10267C6.4502 5.0096 6.46736 4.91751 6.50063 4.832C6.53389 4.74649 6.58258 4.66936 6.64371 4.6053C6.70484 4.54124 6.77714 4.4916 6.8562 4.4594C6.93527 4.42719 7.01944 4.4131 7.10359 4.41799ZM4.63358 4.41799C4.71774 4.4131 4.80191 4.42719 4.88097 4.4594C4.96004 4.4916 5.03234 4.54124 5.09347 4.6053C5.1546 4.66936 5.20328 4.74649 5.23655 4.832C5.26981 4.91751 5.28697 5.0096 5.28697 5.10267C5.28697 5.19574 5.26981 5.28783 5.23655 5.37334C5.20328 5.45884 5.1546 5.53598 5.09347 5.60004C5.03234 5.66409 4.96004 5.71374 4.88097 5.74594C4.80191 5.77814 4.71774 5.79223 4.63358 5.78735C4.54943 5.79223 4.46526 5.77814 4.38619 5.74594C4.30713 5.71374 4.23483 5.66409 4.1737 5.60004C4.11257 5.53598 4.06388 5.45884 4.03062 5.37334C3.99735 5.28783 3.98019 5.19574 3.98019 5.10267C3.98019 5.0096 3.99735 4.91751 4.03062 4.832C4.06388 4.74649 4.11257 4.66936 4.1737 4.6053C4.23483 4.54124 4.30713 4.4916 4.38619 4.4594C4.46526 4.42719 4.54943 4.4131 4.63358 4.41799ZM4.7238 30.1634C4.63964 30.1683 4.55547 30.1542 4.47641 30.122C4.39734 30.0898 4.32504 30.0402 4.26391 29.9761C4.20278 29.9121 4.1541 29.8349 4.12083 29.7494C4.08756 29.6639 4.07041 29.5718 4.07041 29.4788C4.07041 29.3857 4.08756 29.2936 4.12083 29.2081C4.1541 29.1226 4.20278 29.0455 4.26391 28.9814C4.32504 28.9173 4.39734 28.8677 4.47641 28.8355C4.55547 28.8033 4.63964 28.7892 4.7238 28.7941H24.7165C24.8006 28.7892 24.8848 28.8033 24.9639 28.8355C25.0429 28.8677 25.1152 28.9173 25.1764 28.9814C25.2375 29.0455 25.2862 29.1226 25.3194 29.2081C25.3527 29.2936 25.3699 29.3857 25.3699 29.4788C25.3699 29.5718 25.3527 29.6639 25.3194 29.7494C25.2862 29.8349 25.2375 29.9121 25.1764 29.9761C25.1152 30.0402 25.0429 30.0898 24.9639 30.122C24.8848 30.1542 24.8006 30.1683 24.7165 30.1634H4.7238ZM4.7238 34.2833C4.565 34.2741 4.41547 34.198 4.30602 34.0706C4.19657 33.9432 4.13555 33.7743 4.13555 33.5987C4.13555 33.423 4.19657 33.2541 4.30602 33.1267C4.41547 32.9993 4.565 32.9232 4.7238 32.914H24.7165C24.8006 32.9091 24.8848 32.9232 24.9639 32.9554C25.0429 32.9876 25.1152 33.0372 25.1764 33.1013C25.2375 33.1654 25.2862 33.2425 25.3194 33.328C25.3527 33.4135 25.3699 33.5056 25.3699 33.5987C25.3699 33.6917 25.3527 33.7838 25.3194 33.8693C25.2862 33.9548 25.2375 34.032 25.1764 34.096C25.1152 34.1601 25.0429 34.2097 24.9639 34.2419C24.8848 34.2741 24.8006 34.2882 24.7165 34.2833H4.7238ZM37.4039 19.0447L35.7903 17.9204C35.7431 17.8887 35.6867 17.8784 35.6328 17.8916C35.579 17.9048 35.5318 17.9405 35.5012 17.9912L28.9814 29.3985L30.9481 30.7679L37.468 19.3644C37.4827 19.3384 37.4926 19.3094 37.4971 19.2792C37.5017 19.249 37.5008 19.2181 37.4945 19.1882C37.4824 19.1297 37.4498 19.0788 37.4039 19.0466V19.0447ZM29.2366 32.0461L29.9045 31.6584L28.6616 30.7919L28.5987 31.6306L28.5701 32.4333L29.2375 32.0456L29.2366 32.0461ZM33.192 19.4715V8.94539H1.5V35.291C1.5018 35.7437 1.66546 36.1773 1.95534 36.4973C2.24523 36.8174 2.63787 36.998 3.04776 36.9999H31.6429C32.0528 36.9981 32.4455 36.8175 32.7353 36.4974C33.0252 36.1773 33.1887 35.7437 33.1903 35.291V29.4056L31.6758 32.0551C31.6176 32.1667 31.5317 32.2578 31.4283 32.3176L28.1968 34.195C28.0986 34.2522 27.9884 34.2791 27.8775 34.273C27.7667 34.2669 27.6594 34.2281 27.5669 34.1605C27.4743 34.0929 27.3999 33.9991 27.3514 33.8889C27.3029 33.7787 27.2821 33.6561 27.2912 33.534L27.3622 31.5508V31.5215L27.5097 29.5586C27.519 29.4322 27.56 29.3112 27.6281 29.2091L33.192 19.4715ZM21.4153 14.6127C22.3569 15.6523 22.943 17.0203 23.0737 18.4837C23.2043 19.9471 22.8715 21.4152 22.1319 22.6379C21.3923 23.8607 20.2917 24.7623 19.0177 25.1894C17.7436 25.6164 16.3748 25.5422 15.1447 24.9797C13.9145 24.4171 12.8991 23.4008 12.2713 22.104C11.6436 20.8073 11.4424 19.3102 11.702 17.868C11.9617 16.4258 12.6661 15.1276 13.6953 14.1947C14.7245 13.2618 16.0147 12.7518 17.3462 12.7517C18.102 12.7506 18.8506 12.9145 19.5489 13.2338C20.2472 13.5532 20.8814 14.0218 21.4153 14.6127ZM17.3462 11.3805C18.9648 11.3801 20.5335 11.9995 21.7849 13.1332C23.0363 14.2669 23.8931 15.8448 24.2092 17.5979C24.5254 19.3511 24.2813 21.1711 23.5186 22.7478C22.7559 24.3244 21.5218 25.5603 20.0265 26.2447C18.5313 26.9292 16.8674 27.0199 15.3184 26.5013C13.7694 25.9828 12.4311 24.8871 11.5316 23.401C10.632 21.9149 10.2269 20.1303 10.3852 18.3513C10.5435 16.5723 11.2555 14.9089 12.3998 13.6447C13.0486 12.9261 13.8196 12.3563 14.6685 11.9679C15.5173 11.5795 16.4274 11.3802 17.3462 11.3814V11.3805ZM17.9277 18.1329L19.4575 19.107L17.9311 20.0802H17.929L16.4017 21.0543V19.1065H16.4043V17.1587L17.9277 18.1305V18.1329ZM16.5757 15.693L18.5455 16.95L20.5153 18.2061C20.6585 18.2962 20.7777 18.4265 20.8607 18.5838V18.5867C20.9227 18.7051 20.9628 18.8359 20.9789 18.9716C20.9949 19.1072 20.9866 19.245 20.9543 19.3771C20.922 19.5091 20.8664 19.6328 20.7907 19.7411C20.715 19.8494 20.6207 19.9401 20.5131 20.008L18.5464 21.2626L16.5783 22.5219H16.5757C16.3596 22.659 16.1031 22.6963 15.8623 22.6255C15.6214 22.5548 15.4156 22.3817 15.2896 22.1442C15.2059 21.9857 15.1616 21.8055 15.1614 21.6219H15.1635V19.1065H15.1614V16.5945C15.1618 16.4118 15.2061 16.2326 15.2896 16.0751V16.0722C15.351 15.9533 15.4332 15.849 15.5314 15.7654C15.6296 15.6819 15.7419 15.6208 15.8617 15.5856C15.9815 15.5505 16.1065 15.542 16.2293 15.5607C16.3521 15.5794 16.4703 15.6248 16.577 15.6945L16.5757 15.693Z"/>
</mask>
<path fill-rule="evenodd" clip-rule="evenodd" d="M33.192 7.57461V3.70875C33.1904 3.25574 33.0266 2.82181 32.7364 2.50165C32.4462 2.1815 32.0531 2.00112 31.6429 1.99988H3.04819C2.63822 2.00162 2.24547 2.18219 1.9555 2.50226C1.66552 2.82233 1.5018 3.25598 1.5 3.70875V7.57461H33.192ZM12.4455 5.78735C12.3614 5.79223 12.2772 5.77814 12.1981 5.74594C12.1191 5.71374 12.0468 5.66409 11.9856 5.60004C11.9245 5.53598 11.8758 5.45884 11.8426 5.37334C11.8093 5.28783 11.7921 5.19574 11.7921 5.10267C11.7921 5.0096 11.8093 4.91751 11.8426 4.832C11.8758 4.74649 11.9245 4.66936 11.9856 4.6053C12.0468 4.54124 12.1191 4.4916 12.1981 4.4594C12.2772 4.42719 12.3614 4.4131 12.4455 4.41799H30.061C30.1451 4.4131 30.2293 4.42719 30.3083 4.4594C30.3874 4.4916 30.4597 4.54124 30.5208 4.6053C30.582 4.66936 30.6307 4.74649 30.6639 4.832C30.6972 4.91751 30.7143 5.0096 30.7143 5.10267C30.7143 5.19574 30.6972 5.28783 30.6639 5.37334C30.6307 5.45884 30.582 5.53598 30.5208 5.60004C30.4597 5.66409 30.3874 5.71374 30.3083 5.74594C30.2293 5.77814 30.1451 5.79223 30.061 5.78735H12.4455ZM9.5736 4.41799C9.65776 4.4131 9.74193 4.42719 9.82099 4.4594C9.90006 4.4916 9.97235 4.54124 10.0335 4.6053C10.0946 4.66936 10.1433 4.74649 10.1766 4.832C10.2098 4.91751 10.227 5.0096 10.227 5.10267C10.227 5.19574 10.2098 5.28783 10.1766 5.37334C10.1433 5.45884 10.0946 5.53598 10.0335 5.60004C9.97235 5.66409 9.90006 5.71374 9.82099 5.74594C9.74193 5.77814 9.65776 5.79223 9.5736 5.78735C9.48945 5.79223 9.40528 5.77814 9.32621 5.74594C9.24715 5.71374 9.17485 5.66409 9.11372 5.60004C9.05259 5.53598 9.0039 5.45884 8.97064 5.37334C8.93737 5.28783 8.92021 5.19574 8.92021 5.10267C8.92021 5.0096 8.93737 4.91751 8.97064 4.832C9.0039 4.74649 9.05259 4.66936 9.11372 4.6053C9.17485 4.54124 9.24715 4.4916 9.32621 4.4594C9.40528 4.42719 9.48945 4.4131 9.5736 4.41799ZM7.10359 4.41799C7.18775 4.4131 7.27192 4.42719 7.35098 4.4594C7.43005 4.4916 7.50235 4.54124 7.56348 4.6053C7.62461 4.66936 7.67329 4.74649 7.70656 4.832C7.73982 4.91751 7.75698 5.0096 7.75698 5.10267C7.75698 5.19574 7.73982 5.28783 7.70656 5.37334C7.67329 5.45884 7.62461 5.53598 7.56348 5.60004C7.50235 5.66409 7.43005 5.71374 7.35098 5.74594C7.27192 5.77814 7.18775 5.79223 7.10359 5.78735C7.01944 5.79223 6.93527 5.77814 6.8562 5.74594C6.77714 5.71374 6.70484 5.66409 6.64371 5.60004C6.58258 5.53598 6.53389 5.45884 6.50063 5.37334C6.46736 5.28783 6.4502 5.19574 6.4502 5.10267C6.4502 5.0096 6.46736 4.91751 6.50063 4.832C6.53389 4.74649 6.58258 4.66936 6.64371 4.6053C6.70484 4.54124 6.77714 4.4916 6.8562 4.4594C6.93527 4.42719 7.01944 4.4131 7.10359 4.41799ZM4.63358 4.41799C4.71774 4.4131 4.80191 4.42719 4.88097 4.4594C4.96004 4.4916 5.03234 4.54124 5.09347 4.6053C5.1546 4.66936 5.20328 4.74649 5.23655 4.832C5.26981 4.91751 5.28697 5.0096 5.28697 5.10267C5.28697 5.19574 5.26981 5.28783 5.23655 5.37334C5.20328 5.45884 5.1546 5.53598 5.09347 5.60004C5.03234 5.66409 4.96004 5.71374 4.88097 5.74594C4.80191 5.77814 4.71774 5.79223 4.63358 5.78735C4.54943 5.79223 4.46526 5.77814 4.38619 5.74594C4.30713 5.71374 4.23483 5.66409 4.1737 5.60004C4.11257 5.53598 4.06388 5.45884 4.03062 5.37334C3.99735 5.28783 3.98019 5.19574 3.98019 5.10267C3.98019 5.0096 3.99735 4.91751 4.03062 4.832C4.06388 4.74649 4.11257 4.66936 4.1737 4.6053C4.23483 4.54124 4.30713 4.4916 4.38619 4.4594C4.46526 4.42719 4.54943 4.4131 4.63358 4.41799ZM4.7238 30.1634C4.63964 30.1683 4.55547 30.1542 4.47641 30.122C4.39734 30.0898 4.32504 30.0402 4.26391 29.9761C4.20278 29.9121 4.1541 29.8349 4.12083 29.7494C4.08756 29.6639 4.07041 29.5718 4.07041 29.4788C4.07041 29.3857 4.08756 29.2936 4.12083 29.2081C4.1541 29.1226 4.20278 29.0455 4.26391 28.9814C4.32504 28.9173 4.39734 28.8677 4.47641 28.8355C4.55547 28.8033 4.63964 28.7892 4.7238 28.7941H24.7165C24.8006 28.7892 24.8848 28.8033 24.9639 28.8355C25.0429 28.8677 25.1152 28.9173 25.1764 28.9814C25.2375 29.0455 25.2862 29.1226 25.3194 29.2081C25.3527 29.2936 25.3699 29.3857 25.3699 29.4788C25.3699 29.5718 25.3527 29.6639 25.3194 29.7494C25.2862 29.8349 25.2375 29.9121 25.1764 29.9761C25.1152 30.0402 25.0429 30.0898 24.9639 30.122C24.8848 30.1542 24.8006 30.1683 24.7165 30.1634H4.7238ZM4.7238 34.2833C4.565 34.2741 4.41547 34.198 4.30602 34.0706C4.19657 33.9432 4.13555 33.7743 4.13555 33.5987C4.13555 33.423 4.19657 33.2541 4.30602 33.1267C4.41547 32.9993 4.565 32.9232 4.7238 32.914H24.7165C24.8006 32.9091 24.8848 32.9232 24.9639 32.9554C25.0429 32.9876 25.1152 33.0372 25.1764 33.1013C25.2375 33.1654 25.2862 33.2425 25.3194 33.328C25.3527 33.4135 25.3699 33.5056 25.3699 33.5987C25.3699 33.6917 25.3527 33.7838 25.3194 33.8693C25.2862 33.9548 25.2375 34.032 25.1764 34.096C25.1152 34.1601 25.0429 34.2097 24.9639 34.2419C24.8848 34.2741 24.8006 34.2882 24.7165 34.2833H4.7238ZM37.4039 19.0447L35.7903 17.9204C35.7431 17.8887 35.6867 17.8784 35.6328 17.8916C35.579 17.9048 35.5318 17.9405 35.5012 17.9912L28.9814 29.3985L30.9481 30.7679L37.468 19.3644C37.4827 19.3384 37.4926 19.3094 37.4971 19.2792C37.5017 19.249 37.5008 19.2181 37.4945 19.1882C37.4824 19.1297 37.4498 19.0788 37.4039 19.0466V19.0447ZM29.2366 32.0461L29.9045 31.6584L28.6616 30.7919L28.5987 31.6306L28.5701 32.4333L29.2375 32.0456L29.2366 32.0461ZM33.192 19.4715V8.94539H1.5V35.291C1.5018 35.7437 1.66546 36.1773 1.95534 36.4973C2.24523 36.8174 2.63787 36.998 3.04776 36.9999H31.6429C32.0528 36.9981 32.4455 36.8175 32.7353 36.4974C33.0252 36.1773 33.1887 35.7437 33.1903 35.291V29.4056L31.6758 32.0551C31.6176 32.1667 31.5317 32.2578 31.4283 32.3176L28.1968 34.195C28.0986 34.2522 27.9884 34.2791 27.8775 34.273C27.7667 34.2669 27.6594 34.2281 27.5669 34.1605C27.4743 34.0929 27.3999 33.9991 27.3514 33.8889C27.3029 33.7787 27.2821 33.6561 27.2912 33.534L27.3622 31.5508V31.5215L27.5097 29.5586C27.519 29.4322 27.56 29.3112 27.6281 29.2091L33.192 19.4715ZM21.4153 14.6127C22.3569 15.6523 22.943 17.0203 23.0737 18.4837C23.2043 19.9471 22.8715 21.4152 22.1319 22.6379C21.3923 23.8607 20.2917 24.7623 19.0177 25.1894C17.7436 25.6164 16.3748 25.5422 15.1447 24.9797C13.9145 24.4171 12.8991 23.4008 12.2713 22.104C11.6436 20.8073 11.4424 19.3102 11.702 17.868C11.9617 16.4258 12.6661 15.1276 13.6953 14.1947C14.7245 13.2618 16.0147 12.7518 17.3462 12.7517C18.102 12.7506 18.8506 12.9145 19.5489 13.2338C20.2472 13.5532 20.8814 14.0218 21.4153 14.6127ZM17.3462 11.3805C18.9648 11.3801 20.5335 11.9995 21.7849 13.1332C23.0363 14.2669 23.8931 15.8448 24.2092 17.5979C24.5254 19.3511 24.2813 21.1711 23.5186 22.7478C22.7559 24.3244 21.5218 25.5603 20.0265 26.2447C18.5313 26.9292 16.8674 27.0199 15.3184 26.5013C13.7694 25.9828 12.4311 24.8871 11.5316 23.401C10.632 21.9149 10.2269 20.1303 10.3852 18.3513C10.5435 16.5723 11.2555 14.9089 12.3998 13.6447C13.0486 12.9261 13.8196 12.3563 14.6685 11.9679C15.5173 11.5795 16.4274 11.3802 17.3462 11.3814V11.3805ZM17.9277 18.1329L19.4575 19.107L17.9311 20.0802H17.929L16.4017 21.0543V19.1065H16.4043V17.1587L17.9277 18.1305V18.1329ZM16.5757 15.693L18.5455 16.95L20.5153 18.2061C20.6585 18.2962 20.7777 18.4265 20.8607 18.5838V18.5867C20.9227 18.7051 20.9628 18.8359 20.9789 18.9716C20.9949 19.1072 20.9866 19.245 20.9543 19.3771C20.922 19.5091 20.8664 19.6328 20.7907 19.7411C20.715 19.8494 20.6207 19.9401 20.5131 20.008L18.5464 21.2626L16.5783 22.5219H16.5757C16.3596 22.659 16.1031 22.6963 15.8623 22.6255C15.6214 22.5548 15.4156 22.3817 15.2896 22.1442C15.2059 21.9857 15.1616 21.8055 15.1614 21.6219H15.1635V19.1065H15.1614V16.5945C15.1618 16.4118 15.2061 16.2326 15.2896 16.0751V16.0722C15.351 15.9533 15.4332 15.849 15.5314 15.7654C15.6296 15.6819 15.7419 15.6208 15.8617 15.5856C15.9815 15.5505 16.1065 15.542 16.2293 15.5607C16.3521 15.5794 16.4703 15.6248 16.577 15.6945L16.5757 15.693Z" stroke="white" stroke-opacity="0.6" stroke-width="1.6" mask="url(#path-1-inside-1_910_5877)"/>
</svg>
