<svg width="38" height="38" viewBox="0 0 38 38" fill="none" xmlns="http://www.w3.org/2000/svg">
<path d="M23.0423 30.4206L17.4088 24.7887L18.5298 23.6677L23.0423 28.1802L32.0483 19.1742L33.1693 20.2936L23.0423 30.4206ZM30.1673 15.8333H28.584V8.89041C28.584 8.64763 28.4827 8.42438 28.28 8.22066C28.0763 8.01799 27.853 7.91666 27.6102 7.91666H23.834V11.4475H11.1673V7.91666H7.39107C7.14829 7.91666 6.92504 8.01799 6.72132 8.22066C6.51865 8.42438 6.41732 8.64763 6.41732 8.89041V29.1096C6.41732 29.3524 6.51865 29.5756 6.72132 29.7793C6.92504 29.982 7.14829 30.0833 7.39107 30.0833H15.9173V31.6667H7.39107C6.68385 31.6667 6.0806 31.4176 5.58132 30.9193C5.0831 30.4211 4.83398 29.8179 4.83398 29.1096V8.89041C4.83398 8.18319 5.0831 7.57994 5.58132 7.08066C6.07954 6.58244 6.68279 6.33333 7.39107 6.33333H14.733C14.8808 5.71372 15.2096 5.19333 15.7194 4.77216C16.2292 4.35099 16.823 4.14041 17.5007 4.14041C18.191 4.14041 18.7895 4.35152 19.2962 4.77374C19.8028 5.19386 20.13 5.71372 20.2778 6.33333H27.6087C28.318 6.33333 28.9218 6.58244 29.42 7.08066C29.9182 7.57888 30.1673 8.18213 30.1673 8.89041V15.8333ZM17.5007 8.28083C17.868 8.28083 18.173 8.15944 18.4158 7.91666C18.6586 7.67494 18.78 7.37041 18.78 7.00308C18.78 6.63574 18.6586 6.33069 18.4158 6.08791C18.173 5.84513 17.868 5.72374 17.5007 5.72374C17.1333 5.72374 16.8283 5.84513 16.5855 6.08791C16.3427 6.33069 16.2213 6.63574 16.2213 7.00308C16.2213 7.37041 16.3427 7.67547 16.5855 7.91824C16.8283 8.16102 17.1333 8.28083 17.5007 8.28083Z" fill="black" fill-opacity="0.6"/>
</svg>
