<svg width="39" height="38" viewBox="0 0 39 38" fill="none" xmlns="http://www.w3.org/2000/svg">
<path d="M26.0423 30.4205L20.4088 24.7886L21.5298 23.6676L26.0423 28.1801L35.0483 19.1741L36.1693 20.2935L26.0423 30.4205ZM33.1673 15.8333H31.584V8.89038C31.584 8.6476 31.4827 8.42435 31.28 8.22063C31.0763 8.01796 30.853 7.91663 30.6102 7.91663H26.834V11.4475H14.1673V7.91663H10.3911C10.1483 7.91663 9.92504 8.01796 9.72132 8.22063C9.51865 8.42435 9.41732 8.6476 9.41732 8.89038V29.1095C9.41732 29.3523 9.51865 29.5756 9.72132 29.7793C9.92504 29.982 10.1483 30.0833 10.3911 30.0833H18.9173V31.6666H10.3911C9.68385 31.6666 9.0806 31.4175 8.58132 30.9193C8.0831 30.4211 7.83398 29.8178 7.83398 29.1095V8.89038C7.83398 8.18316 8.0831 7.57991 8.58132 7.08063C9.07954 6.58241 9.68279 6.3333 10.3911 6.3333H17.733C17.8808 5.71369 18.2096 5.1933 18.7194 4.77213C19.2292 4.35096 19.823 4.14038 20.5007 4.14038C21.191 4.14038 21.7895 4.35149 22.2962 4.77371C22.8028 5.19383 23.13 5.71369 23.2778 6.3333H30.6087C31.318 6.3333 31.9218 6.58241 32.42 7.08063C32.9182 7.57885 33.1673 8.1821 33.1673 8.89038V15.8333ZM20.5007 8.2808C20.868 8.2808 21.173 8.15941 21.4158 7.91663C21.6586 7.67491 21.78 7.37038 21.78 7.00305C21.78 6.63571 21.6586 6.33066 21.4158 6.08788C21.173 5.8451 20.868 5.72371 20.5007 5.72371C20.1333 5.72371 19.8283 5.8451 19.5855 6.08788C19.3427 6.33066 19.2213 6.63571 19.2213 7.00305C19.2213 7.37038 19.3427 7.67544 19.5855 7.91821C19.8283 8.16099 20.1333 8.2808 20.5007 8.2808Z" fill="white" fill-opacity="0.6"/>
</svg>
