<svg width="38" height="38" viewBox="0 0 38 38" fill="none" xmlns="http://www.w3.org/2000/svg">
<mask id="path-1-inside-1_910_5561" fill="white">
<path d="M30.2602 19.6291V17.6884H36.5287V19.6291H30.2602ZM32.3658 32.17L27.3491 28.407L28.5581 26.8699L33.5749 30.631L32.3658 32.17ZM28.4087 10.2982L27.1996 8.7611L32.2164 5L33.4255 6.53705L28.4087 10.2982ZM6.15066 30.2293V22.839H4.13619C3.26675 22.839 2.5267 22.5337 1.91602 21.923C1.30534 21.3124 1 20.5723 1 19.7029V17.6146C1 16.7452 1.30534 16.0051 1.91602 15.3945C2.5267 14.7838 3.26675 14.4784 4.13619 14.4784H11.3751L19.0642 9.92553V27.392L11.3751 22.839H8.09137V30.2293H6.15066ZM17.1235 23.9355V13.3819L11.9223 16.4192H4.13425C3.83538 16.4192 3.5611 16.5434 3.31139 16.7918C3.06298 17.0415 2.93877 17.3158 2.93877 17.6146V19.7029C2.93877 20.0017 3.06298 20.276 3.31139 20.5257C3.5611 20.7741 3.83538 20.8983 4.13425 20.8983H11.9185L17.1235 23.9355ZM22.4992 24.2655V13.052C23.1474 13.6536 23.6701 14.4442 24.0673 15.4236C24.4632 16.4017 24.6612 17.4794 24.6612 18.6568C24.6612 19.8342 24.4632 20.9119 24.0673 21.89C23.6701 22.8694 23.1468 23.66 22.4973 24.2616"/>
</mask>
<path d="M30.2602 19.6291H27.2602V22.6291H30.2602V19.6291ZM30.2602 17.6884V14.6884H27.2602V17.6884H30.2602ZM36.5287 17.6884H39.5287V14.6884H36.5287V17.6884ZM36.5287 19.6291V22.6291H39.5287V19.6291H36.5287ZM32.3658 32.17L30.5657 34.5699L32.9125 36.3302L34.7249 34.0233L32.3658 32.17ZM27.3491 28.407L24.9912 26.5522L23.0933 28.9649L25.5489 30.8068L27.3491 28.407ZM28.5581 26.8699L30.3577 24.4696L28.0124 22.7113L26.2002 25.0151L28.5581 26.8699ZM33.5749 30.631L35.9339 32.4844L37.8296 30.0714L35.3744 28.2307L33.5749 30.631ZM28.4087 10.2982L26.0508 12.1529L27.863 14.4567L30.2083 12.6985L28.4087 10.2982ZM27.1996 8.7611L25.4001 6.36077L22.9434 8.20259L24.8417 10.6159L27.1996 8.7611ZM32.2164 5L34.5743 3.14522L32.7621 0.841404L30.4168 2.59967L32.2164 5ZM33.4255 6.53705L35.225 8.93738L37.6817 7.09556L35.7834 4.68227L33.4255 6.53705ZM6.15066 30.2293H3.15066V33.2293H6.15066V30.2293ZM6.15066 22.839H9.15066V19.839H6.15066V22.839ZM11.3751 14.4784V17.4784H12.1966L12.9036 17.0599L11.3751 14.4784ZM19.0642 9.92553H22.0642V4.66268L17.5357 7.34413L19.0642 9.92553ZM19.0642 27.392L17.5357 29.9734L22.0642 32.6548V27.392H19.0642ZM11.3751 22.839L12.9036 20.2576L12.1966 19.839H11.3751V22.839ZM8.09137 22.839V19.839H5.09137V22.839H8.09137ZM8.09137 30.2293V33.2293H11.0914V30.2293H8.09137ZM17.1235 23.9355L15.6115 26.5267L20.1235 29.1595V23.9355H17.1235ZM17.1235 13.3819H20.1235V8.15603L15.6106 10.7913L17.1235 13.3819ZM11.9223 16.4192V19.4192H12.7341L13.4352 19.0098L11.9223 16.4192ZM3.31139 16.7918L1.19559 14.665L1.19006 14.6705L1.18457 14.676L3.31139 16.7918ZM3.31139 20.5257L1.18457 22.6415L1.19006 22.647L1.19559 22.6525L3.31139 20.5257ZM11.9185 20.8983L13.4304 18.3072L12.7297 17.8983H11.9185V20.8983ZM22.4992 13.052L24.5401 10.8532L19.4992 6.17454V13.052H22.4992ZM24.0673 15.4236L26.8482 14.298L26.8474 14.2961L24.0673 15.4236ZM24.0673 21.89L26.8474 23.0175L26.8482 23.0156L24.0673 21.89ZM33.2602 19.6291V17.6884H27.2602V19.6291H33.2602ZM30.2602 20.6884H36.5287V14.6884H30.2602V20.6884ZM33.5287 17.6884V19.6291H39.5287V17.6884H33.5287ZM36.5287 16.6291H30.2602V22.6291H36.5287V16.6291ZM34.166 29.7701L29.1492 26.0071L25.5489 30.8068L30.5657 34.5699L34.166 29.7701ZM29.707 30.2617L30.9161 28.7247L26.2002 25.0151L24.9912 26.5522L29.707 30.2617ZM26.7586 29.2702L31.7753 33.0313L35.3744 28.2307L30.3577 24.4696L26.7586 29.2702ZM31.2158 28.7777L30.0068 30.3167L34.7249 34.0233L35.9339 32.4844L31.2158 28.7777ZM30.7666 8.44337L29.5576 6.90633L24.8417 10.6159L26.0508 12.1529L30.7666 8.44337ZM28.9992 11.1614L34.0159 7.40033L30.4168 2.59967L25.4001 6.36077L28.9992 11.1614ZM29.8585 6.85478L31.0675 8.39183L35.7834 4.68227L34.5743 3.14522L29.8585 6.85478ZM31.6259 4.13671L26.6092 7.89782L30.2083 12.6985L35.225 8.93738L31.6259 4.13671ZM9.15066 30.2293V22.839H3.15066V30.2293H9.15066ZM6.15066 19.839H4.13619V25.839H6.15066V19.839ZM4.13619 19.839C4.09503 19.839 4.07349 19.8355 4.06753 19.8344C4.06213 19.8333 4.06538 19.8336 4.07327 19.8368C4.08119 19.8401 4.08473 19.8427 4.08209 19.8409C4.07902 19.8388 4.06368 19.8281 4.03734 19.8017L-0.205303 24.0443C0.972228 25.2219 2.47713 25.839 4.13619 25.839V19.839ZM4.03734 19.8017C4.01099 19.7754 4.00025 19.76 3.99816 19.757C3.99637 19.7543 3.99897 19.7579 4.00223 19.7658C4.00549 19.7737 4.00571 19.7769 4.00468 19.7715C4.00355 19.7656 4 19.744 4 19.7029H-2C-2 21.3619 -1.38283 22.8668 -0.205303 24.0443L4.03734 19.8017ZM4 19.7029V17.6146H-2V19.7029H4ZM4 17.6146C4 17.5735 4.00355 17.5519 4.00468 17.546C4.00571 17.5406 4.00549 17.5438 4.00223 17.5517C3.99897 17.5596 3.99637 17.5632 3.99816 17.5605C4.00025 17.5575 4.01099 17.5421 4.03734 17.5158L-0.205303 13.2731C-1.38283 14.4507 -2 15.9556 -2 17.6146H4ZM4.03734 17.5158C4.06368 17.4894 4.07902 17.4787 4.08209 17.4766C4.08473 17.4748 4.08119 17.4774 4.07327 17.4807C4.06538 17.4839 4.06213 17.4842 4.06753 17.4831C4.07349 17.482 4.09503 17.4784 4.13619 17.4784V11.4784C2.47713 11.4784 0.972228 12.0956 -0.205303 13.2731L4.03734 17.5158ZM4.13619 17.4784H11.3751V11.4784H4.13619V17.4784ZM12.9036 17.0599L20.5927 12.5069L17.5357 7.34413L9.84655 11.897L12.9036 17.0599ZM16.0642 9.92553V27.392H22.0642V9.92553H16.0642ZM20.5927 24.8106L12.9036 20.2576L9.84655 25.4205L17.5357 29.9734L20.5927 24.8106ZM11.3751 19.839H8.09137V25.839H11.3751V19.839ZM5.09137 22.839V30.2293H11.0914V22.839H5.09137ZM8.09137 27.2293H6.15066V33.2293H8.09137V27.2293ZM20.1235 23.9355V13.3819H14.1235V23.9355H20.1235ZM15.6106 10.7913L10.4095 13.8285L13.4352 19.0098L18.6363 15.9726L15.6106 10.7913ZM11.9223 13.4192H4.13425V19.4192H11.9223V13.4192ZM4.13425 13.4192C2.90217 13.4192 1.89951 13.9647 1.19559 14.665L5.42719 18.9186C5.3402 19.0051 5.1817 19.1366 4.94191 19.2452C4.69324 19.3578 4.41491 19.4192 4.13425 19.4192V13.4192ZM1.18457 14.676C0.48429 15.3799 -0.0612262 16.3826 -0.0612262 17.6146H5.93877C5.93877 17.8953 5.87739 18.1736 5.76479 18.4223C5.6562 18.6621 5.52476 18.8206 5.43821 18.9076L1.18457 14.676ZM-0.0612262 17.6146V19.7029H5.93877V17.6146H-0.0612262ZM-0.0612262 19.7029C-0.0612262 20.9349 0.48429 21.9376 1.18457 22.6415L5.43821 18.4099C5.52476 18.4969 5.6562 18.6554 5.76479 18.8952C5.87739 19.1439 5.93877 19.4222 5.93877 19.7029H-0.0612262ZM1.19559 22.6525C1.89951 23.3528 2.90217 23.8983 4.13425 23.8983V17.8983C4.41491 17.8983 4.69324 17.9597 4.94191 18.0723C5.1817 18.1809 5.3402 18.3123 5.42719 18.3989L1.19559 22.6525ZM4.13425 23.8983H11.9185V17.8983H4.13425V23.8983ZM10.4065 23.4895L15.6115 26.5267L18.6354 21.3444L13.4304 18.3072L10.4065 23.4895ZM25.4992 24.2655V13.052H19.4992V24.2655H25.4992ZM20.4584 15.2509C20.7281 15.5012 21.0233 15.9002 21.2873 16.551L26.8474 14.2961C26.3169 12.9881 25.5668 11.8061 24.5401 10.8532L20.4584 15.2509ZM21.2865 16.5492C21.5218 17.1305 21.6612 17.8206 21.6612 18.6568H27.6612C27.6612 17.1382 27.4047 15.6729 26.8482 14.298L21.2865 16.5492ZM21.6612 18.6568C21.6612 19.493 21.5218 20.1831 21.2865 20.7645L26.8482 23.0156C27.4047 21.6407 27.6612 20.1754 27.6612 18.6568H21.6612ZM21.2873 20.7626C21.0238 21.4121 20.7287 21.8106 20.4586 22.0607L24.536 26.4625C25.5649 25.5094 26.3164 24.3268 26.8474 23.0175L21.2873 20.7626Z" fill="white" fill-opacity="0.6" mask="url(#path-1-inside-1_910_5561)"/>
</svg>
