<svg width="38" height="38" viewBox="0 0 38 38" fill="none" xmlns="http://www.w3.org/2000/svg">
<path d="M17.4163 27.9999H16.9163H6.33351C5.20655 27.9988 4.12607 27.5506 3.32919 26.7537C2.53237 25.9569 2.08419 24.8765 2.08301 23.7497V6.33352C2.08419 5.20665 2.53237 4.12626 3.32919 3.32944C4.12602 2.53261 5.2064 2.08444 6.33328 2.08325H31.6661C32.793 2.08444 33.8733 2.53261 34.6702 3.32944C35.467 4.12632 35.9152 5.20679 35.9163 6.33375V23.7494C35.9152 24.8764 35.467 25.9569 34.6702 26.7537C33.8733 27.5506 32.7928 27.9988 31.6658 27.9999H21.083H20.583H17.4163ZM21.083 33.7499H24.833V35.9166H13.1663V33.7499H16.9163H17.4163H20.583H21.083ZM20.083 28.9999V32.7499H17.9163V28.9999H20.083ZM6.33301 4.24992C5.78047 4.24992 5.25057 4.46941 4.85987 4.86011C4.46917 5.25081 4.24967 5.78072 4.24967 6.33325V23.7499C4.24967 24.3025 4.46917 24.8324 4.85987 25.2231C5.25057 25.6138 5.78047 25.8333 6.33301 25.8333H31.6663C32.2189 25.8333 32.7488 25.6138 33.1395 25.2231C33.5302 24.8324 33.7497 24.3025 33.7497 23.7499V6.33325C33.7497 5.78072 33.5302 5.25081 33.1395 4.86011C32.7488 4.46941 32.2189 4.24992 31.6663 4.24992H6.33301Z" stroke="white" stroke-opacity="0.6"/>
<path d="M25.3337 23.7499L22.3032 13.6483L20.5837 20.5833L18.5111 15.8333H17.987L15.8337 22.1666L14.0017 15.7272L13.1562 17.4166H7.91699V15.8333H12.1777L14.2503 11.0833L15.9413 16.9622L16.847 14.2499H19.4896L20.2607 15.7905L22.167 6.33325L25.3337 18.9999L26.347 15.8333H30.0837V17.4166H27.487L25.3337 23.7499Z" fill="white" fill-opacity="0.6"/>
</svg>
