<svg width="38" height="38" viewBox="0 0 38 38" fill="none" xmlns="http://www.w3.org/2000/svg">
<path d="M17.8333 28.4167H17.3333H6.7505C5.62354 28.4155 4.54306 27.9674 3.74619 27.1705C2.94936 26.3737 2.50119 25.2933 2.5 24.1664V6.75027C2.50119 5.62339 2.94936 4.54301 3.74619 3.74619C4.54301 2.94936 5.62339 2.50119 6.75027 2.5H32.0831C33.2099 2.50119 34.2903 2.94936 35.0872 3.74619C35.884 4.54307 36.3322 5.62354 36.3333 6.7505V24.1662C36.3322 25.2931 35.884 26.3736 35.0872 27.1705C34.2903 27.9674 33.2098 28.4155 32.0828 28.4167H21.5H21H17.8333ZM21.5 34.1667H25.25V36.3333H13.5833V34.1667H17.3333H17.8333H21H21.5ZM20.5 29.4167V33.1667H18.3333V29.4167H20.5ZM6.75 4.66667C6.19747 4.66667 5.66756 4.88616 5.27686 5.27686C4.88616 5.66756 4.66667 6.19747 4.66667 6.75V24.1667C4.66667 24.7192 4.88616 25.2491 5.27686 25.6398C5.66756 26.0305 6.19747 26.25 6.75 26.25H32.0833C32.6359 26.25 33.1658 26.0305 33.5565 25.6398C33.9472 25.2491 34.1667 24.7192 34.1667 24.1667V6.75C34.1667 6.19747 33.9472 5.66756 33.5565 5.27686C33.1658 4.88616 32.6359 4.66667 32.0833 4.66667H6.75Z" stroke="black" stroke-opacity="0.6"/>
<path d="M22.8327 23.75L19.8022 13.6484L18.0827 20.5834L16.0101 15.8334H15.486L13.3327 22.1667L11.5008 15.7273L10.6553 17.4167H5.41602V15.8334H9.67677L11.7493 11.0834L13.4403 16.9623L14.346 14.25H16.9886L17.7597 15.7906L19.666 6.33337L22.8327 19L23.846 15.8334H27.5827V17.4167H24.986L22.8327 23.75Z" fill="black" fill-opacity="0.6"/>
</svg>
