<svg width="38" height="38" viewBox="0 0 38 38" fill="none" xmlns="http://www.w3.org/2000/svg">
<path d="M22.563 9.11316L24.0984 10.602C24.5622 11.0518 25.3137 11.0518 25.7776 10.602L29.7705 6.73008C29.9381 7.16871 30.3643 7.48484 30.8755 7.48484C31.5318 7.48484 32.063 6.96925 32.063 6.33333V4.0303C32.063 3.39438 31.5318 2.87878 30.8755 2.87878H28.5005C27.8441 2.87878 27.313 3.39438 27.313 4.0303C27.313 4.52558 27.6388 4.93913 28.0914 5.10169L24.938 8.15956L23.4026 6.67069C22.9387 6.22088 22.1872 6.22088 21.7234 6.67069L18.9768 9.33406C18.9855 9.48517 19.0005 9.63473 19.0005 9.78788C19.0005 11.1122 18.6633 12.3596 18.0771 13.463L22.563 9.11316Z" fill="black" fill-opacity="0.6"/>
<path d="M10.6875 16.697C12.2239 16.697 13.6444 16.2182 14.8094 15.4132L15.5891 16.1693C15.3541 16.6036 15.4087 17.1459 15.7854 17.5111L16.1333 17.8485H21.8667L18.6521 14.7313C18.2754 14.366 17.7162 14.313 17.2683 14.541L16.4886 13.7849C17.3188 12.6552 17.8125 11.2777 17.8125 9.78788C17.8125 5.97798 14.6165 2.87878 10.6875 2.87878C6.75854 2.87878 3.5625 5.97798 3.5625 9.78788C3.5625 13.5978 6.75854 16.697 10.6875 16.697ZM10.6875 5.18181C13.3072 5.18181 15.4375 7.24813 15.4375 9.78788C15.4375 12.3276 13.3072 14.3939 10.6875 14.3939C8.06781 14.3939 5.9375 12.3276 5.9375 9.78788C5.9375 7.24813 8.06781 5.18181 10.6875 5.18181Z" fill="black" fill-opacity="0.6"/>
<path d="M33.25 19H2.375C1.71863 19 1.1875 19.5156 1.1875 20.1515V33.9697C1.1875 34.6056 1.71863 35.1212 2.375 35.1212H33.25C33.9064 35.1212 34.4375 34.6056 34.4375 33.9697V20.1515C34.4375 19.5156 33.9064 19 33.25 19ZM32.0625 25.9091H17.0846L18.668 21.303H32.0625V25.9091ZM13.5221 25.9091L15.1055 21.303H16.1654L14.582 25.9091H13.5221ZM3.5625 21.303H12.6029L11.0195 25.9091H3.5625V21.303ZM32.0625 32.8182H3.5625V28.2121H32.0625V32.8182Z" fill="black" fill-opacity="0.6"/>
<path d="M5.9375 24.7576C6.59334 24.7576 7.125 24.242 7.125 23.606C7.125 22.9701 6.59334 22.4545 5.9375 22.4545C5.28166 22.4545 4.75 22.9701 4.75 23.606C4.75 24.242 5.28166 24.7576 5.9375 24.7576Z" fill="black" fill-opacity="0.6"/>
<path d="M9.5 24.7576C10.1558 24.7576 10.6875 24.242 10.6875 23.606C10.6875 22.9701 10.1558 22.4545 9.5 22.4545C8.84416 22.4545 8.3125 22.9701 8.3125 23.606C8.3125 24.242 8.84416 24.7576 9.5 24.7576Z" fill="black" fill-opacity="0.6"/>
</svg>
