<svg width="38" height="38" viewBox="0 0 38 38" fill="none" xmlns="http://www.w3.org/2000/svg">
<path d="M31.5779 2.90002H10.2979V4.61754H31.5399C32.2619 4.61754 32.8319 5.29551 32.8319 6.15426V23.465L34.2379 25.1373C34.2759 24.9565 34.2759 24.7757 34.2759 24.6401V6.19946C34.3139 4.39155 33.0599 2.90002 31.5779 2.90002Z" fill="black" fill-opacity="0.6"/>
<path d="M4.25553 26.2221C3.53353 26.2221 2.96353 25.5441 2.96353 24.6854V6.19949C2.96353 5.34073 3.53353 4.66277 4.25553 4.66277H7.78953V2.94525H4.25553C2.73553 2.94525 1.51953 4.39158 1.51953 6.19949V24.6854C1.51953 26.4933 2.73553 27.9396 4.25553 27.9396H14.4395L14.4775 33.1826H9.95553C9.57553 33.1826 9.23353 33.5893 9.23353 34.0413C9.23353 34.4933 9.57553 34.9001 9.95553 34.9001H25.8395C26.2195 34.9001 26.5615 34.4933 26.5615 34.0413C26.5615 33.5893 26.2195 33.1826 25.8395 33.1826H21.3935L21.3555 27.9396H31.5395L30.0955 26.2221H4.25553ZM15.9215 33.1826L15.8835 27.9396H19.9115L19.9495 33.1826H15.9215Z" fill="black" fill-opacity="0.6"/>
<path d="M18.3916 16.4C18.3916 18.15 18.8856 19.75 19.8356 21C20.7476 22.2 22.0016 22.9 23.3316 22.9C24.3956 22.9 25.4216 22.45 26.2576 21.6C26.2576 21.6 26.2576 21.65 26.2956 21.65L30.6276 27.35C30.5136 27.6 30.5136 27.95 30.7036 28.2L34.1616 32.75L35.7576 30.65L32.2996 26.1C32.1096 25.85 31.8816 25.85 31.6536 26L27.2836 20.3C27.2836 20.3 27.2456 20.3 27.2456 20.25C27.8916 19.15 28.2336 17.8 28.2336 16.4C28.2336 14.65 27.7396 13.05 26.7896 11.8C25.8776 10.6 24.6236 9.90002 23.2936 9.90002C21.9636 9.90002 20.7476 10.55 19.7976 11.8C18.8856 13.05 18.3916 14.65 18.3916 16.4ZM20.8236 13.15C21.4696 12.3 22.3436 11.8 23.2936 11.8C24.2056 11.8 25.0796 12.3 25.7636 13.15C27.1316 14.95 27.1316 17.85 25.7636 19.6C25.1176 20.45 24.2436 20.95 23.2936 20.95C22.3816 20.95 21.5076 20.45 20.8236 19.6C19.4936 17.85 19.4936 14.95 20.8236 13.15Z" fill="black" fill-opacity="0.6"/>
<path d="M9.76645 6.44995V1.69995H8.32244V6.44995H7.10645L9.04444 10.9L10.9824 6.44995H9.76645Z" fill="black" fill-opacity="0.6"/>
<path d="M11.6659 16.4501H5.43391C5.05391 16.4501 4.71191 16.05 4.71191 15.5C4.71191 15 5.01591 14.55 5.43391 14.55H11.7039C12.0839 14.55 12.4259 14.95 12.4259 15.5C12.3879 16 12.0839 16.4501 11.6659 16.4501Z" fill="black" fill-opacity="0.6"/>
<path d="M15.1999 20.4501H5.43391C5.05391 20.4501 4.71191 20.05 4.71191 19.5C4.71191 18.95 5.01591 18.55 5.43391 18.55H15.1999C15.5799 18.55 15.9219 18.95 15.9219 19.5C15.9219 20.05 15.5799 20.4501 15.1999 20.4501Z" fill="black" fill-opacity="0.6"/>
<path d="M15.1999 24.5H5.43391C5.05391 24.5 4.71191 24.1 4.71191 23.55C4.71191 23.05 5.01591 22.6 5.43391 22.6H15.1999C15.5799 22.6 15.9219 23 15.9219 23.55C15.9219 24.1 15.5799 24.5 15.1999 24.5Z" fill="black" fill-opacity="0.6"/>
</svg>
