<svg width="38" height="38" viewBox="0 0 38 38" fill="none" xmlns="http://www.w3.org/2000/svg">
<path d="M23.4368 22.9583C23.1219 22.9583 22.8199 23.0834 22.5972 23.3061C22.3745 23.5288 22.2493 23.8309 22.2493 24.1458C22.2493 24.4608 22.3745 24.7628 22.5972 24.9855C22.8199 25.2082 23.1219 25.3333 23.4368 25.3333H27.3952C27.7101 25.3333 28.0122 25.2082 28.2349 24.9855C28.4576 24.7628 28.5827 24.4608 28.5827 24.1458C28.5827 23.8309 28.4576 23.5288 28.2349 23.3061C28.0122 23.0834 27.7101 22.9583 27.3952 22.9583H23.4368ZM1.66602 13.0625C1.66602 11.6977 2.20816 10.3889 3.1732 9.42384C4.13823 8.45881 5.44709 7.91666 6.81185 7.91666H28.1868C28.8626 7.91666 29.5318 8.04976 30.1561 8.30836C30.7804 8.56696 31.3477 8.946 31.8255 9.42384C32.3033 9.90167 32.6824 10.4689 32.941 11.0933C33.1996 11.7176 33.3327 12.3867 33.3327 13.0625V24.9375C33.3327 25.6133 33.1996 26.2824 32.941 26.9067C32.6824 27.531 32.3033 28.0983 31.8255 28.5761C31.3477 29.054 30.7804 29.433 30.1561 29.6916C29.5318 29.9502 28.8626 30.0833 28.1868 30.0833H6.81185C5.44709 30.0833 4.13823 29.5412 3.1732 28.5761C2.20816 27.6111 1.66602 26.3022 1.66602 24.9375V13.0625ZM30.9577 15.0417V13.0625C30.9577 12.3276 30.6658 11.6228 30.1461 11.1032C29.6265 10.5836 28.9217 10.2917 28.1868 10.2917H6.81185C6.07698 10.2917 5.37221 10.5836 4.85257 11.1032C4.33294 11.6228 4.04102 12.3276 4.04102 13.0625V15.0417H30.9577ZM4.04102 17.4167V24.9375C4.04102 26.467 5.28235 27.7083 6.81185 27.7083H28.1868C28.9217 27.7083 29.6265 27.4164 30.1461 26.8968C30.6658 26.3771 30.9577 25.6724 30.9577 24.9375V17.4167H4.04102Z" fill="black" fill-opacity="0.6"/>
</svg>
