<svg width="39" height="38" viewBox="0 0 39 38" fill="none" xmlns="http://www.w3.org/2000/svg">
<path d="M26.4368 22.9583C26.1219 22.9583 25.8199 23.0834 25.5972 23.3061C25.3745 23.5288 25.2493 23.8308 25.2493 24.1458C25.2493 24.4607 25.3745 24.7628 25.5972 24.9855C25.8199 25.2082 26.1219 25.3333 26.4368 25.3333H30.3952C30.7101 25.3333 31.0122 25.2082 31.2349 24.9855C31.4576 24.7628 31.5827 24.4607 31.5827 24.1458C31.5827 23.8308 31.4576 23.5288 31.2349 23.3061C31.0122 23.0834 30.7101 22.9583 30.3952 22.9583H26.4368ZM4.66602 13.0625C4.66602 11.6977 5.20816 10.3888 6.1732 9.42381C7.13823 8.45877 8.44709 7.91663 9.81185 7.91663H31.1868C31.8626 7.91663 32.5318 8.04973 33.1561 8.30833C33.7804 8.56693 34.3477 8.94597 34.8255 9.42381C35.3033 9.90164 35.6824 10.4689 35.941 11.0932C36.1996 11.7176 36.3327 12.3867 36.3327 13.0625V24.9375C36.3327 25.6132 36.1996 26.2824 35.941 26.9067C35.6824 27.531 35.3033 28.0983 34.8255 28.5761C34.3477 29.0539 33.7804 29.433 33.1561 29.6916C32.5318 29.9502 31.8626 30.0833 31.1868 30.0833H9.81185C8.44709 30.0833 7.13823 29.5411 6.1732 28.5761C5.20816 27.6111 4.66602 26.3022 4.66602 24.9375V13.0625ZM33.9577 15.0416V13.0625C33.9577 12.3276 33.6658 11.6228 33.1461 11.1032C32.6265 10.5836 31.9217 10.2916 31.1868 10.2916H9.81185C9.07698 10.2916 8.37221 10.5836 7.85257 11.1032C7.33294 11.6228 7.04102 12.3276 7.04102 13.0625V15.0416H33.9577ZM7.04102 17.4166V24.9375C7.04102 26.467 8.28235 27.7083 9.81185 27.7083H31.1868C31.9217 27.7083 32.6265 27.4164 33.1461 26.8967C33.6658 26.3771 33.9577 25.6723 33.9577 24.9375V17.4166H7.04102Z" fill="white" fill-opacity="0.6"/>
</svg>
