<svg width="39" height="39" viewBox="0 0 39 39" fill="none" xmlns="http://www.w3.org/2000/svg">
<path d="M4.91014 19.2704H8.71508C8.96018 19.2704 9.16918 19.0816 9.20908 18.8241C10.0371 13.4419 14.3653 9.53556 19.5006 9.53556C21.0028 9.53556 22.4357 9.87029 23.7323 10.4783L22.3468 12.2081C21.4363 11.8584 20.4806 11.6809 19.5006 11.6809C17.5858 11.6809 15.7116 12.3839 14.2239 13.6598C12.7587 14.9166 11.7209 16.6775 11.3017 18.6184C11.2398 18.905 11.4081 19.1904 11.6776 19.2563C11.7152 19.2656 11.7528 19.27 11.79 19.27C12.018 19.27 12.224 19.1031 12.2772 18.8569C13.0543 15.2586 16.0244 12.7458 19.5006 12.7458C20.2355 12.7458 20.9545 12.8589 21.6465 13.0821L20.1588 14.9396C19.9429 14.9113 19.7233 14.8952 19.5002 14.8952C16.5271 14.8952 14.108 17.4679 14.108 20.6299C14.108 23.792 16.5271 26.3663 19.5002 26.3663C22.4734 26.3663 24.8909 23.7928 24.8909 20.6299C24.8909 19.1629 24.3699 17.8236 23.5153 16.8085L24.2578 14.5863C25.4947 15.6867 26.3608 17.1796 26.7218 18.8569C26.775 19.1035 26.9809 19.2704 27.2089 19.2704C27.2458 19.2704 27.2834 19.266 27.321 19.2567C27.5904 19.1912 27.7588 18.9054 27.6972 18.6188C27.2598 16.5862 26.17 14.7917 24.6124 13.5244L25.3203 11.4065C27.6414 13.0599 29.3084 15.6916 29.7903 18.8233C29.8298 19.0808 30.0388 19.2696 30.2843 19.2696H34.0892C34.2325 19.2696 34.3685 19.2045 34.4635 19.0905C34.5585 18.9765 34.603 18.8249 34.5859 18.6738C33.6674 10.5717 27.1819 4.46216 19.5002 4.46216C11.8185 4.46216 5.33194 10.5721 4.41348 18.6742C4.39638 18.8253 4.44084 18.9769 4.53584 19.0909C4.63084 19.2049 4.76726 19.2704 4.91014 19.2704ZM24.2267 11.5027L22.7139 16.0287C22.275 15.6811 21.7844 15.4037 21.2574 15.2097L24.2267 11.5027ZM16.4827 24.0184C16.6392 23.2552 17.3358 22.686 18.1623 22.686H20.8378C21.6647 22.686 22.3613 23.2552 22.5174 24.0188C21.7301 24.8128 20.6684 25.3015 19.501 25.3015C18.3336 25.3015 17.2704 24.8128 16.4827 24.0184ZM18.2105 19.3149C18.2105 18.5589 18.7893 17.9441 19.501 17.9441C20.2127 17.9441 20.7896 18.5589 20.7896 19.3149C20.7896 19.9666 20.4746 21.3119 19.501 21.3119C18.611 21.3119 18.2105 20.144 18.2105 19.3149ZM23.2391 23.0753C22.8119 22.2635 21.9877 21.698 21.0339 21.6293C21.531 21.0322 21.7905 20.1586 21.7905 19.3149C21.7905 17.972 20.7634 16.8793 19.501 16.8793C18.2386 16.8793 17.21 17.972 17.21 19.3149C17.21 20.1586 17.4699 21.0322 17.9669 21.6293C17.0128 21.698 16.1885 22.2635 15.7614 23.0753C15.3487 22.3634 15.1097 21.5258 15.1097 20.6295C15.1097 18.0544 17.0796 15.9596 19.501 15.9596C21.9224 15.9596 23.8908 18.0544 23.8908 20.6295C23.8908 21.5258 23.6521 22.3634 23.2391 23.0753ZM19.0005 8.48207C16.5522 8.59607 14.1989 9.54567 12.2966 11.1898L10.3316 9.09937C12.6982 6.97097 15.7208 5.65875 19.0005 5.53707V8.48207ZM25.8595 8.49461C25.6505 8.36646 25.3849 8.41497 25.2284 8.61022L24.4003 9.64431C23.0297 8.95263 21.534 8.55363 20.0015 8.48207V5.53707C23.2809 5.65875 26.3026 6.97097 28.6689 9.09937L26.7035 11.1902C26.3695 10.9015 26.0214 10.6339 25.6612 10.3889L26.0807 9.13414C26.1616 8.89199 26.0685 8.62316 25.8595 8.49461ZM33.5143 18.2052H30.7019C30.2451 15.8088 29.1089 13.6056 27.4536 11.898L29.4114 9.81531C31.5333 12.0132 33.0172 14.919 33.5143 18.2052ZM9.58908 9.81612L11.5465 11.8984C9.89118 13.606 8.75498 15.8092 8.29822 18.2056H5.48584C5.98326 14.9198 7.46678 12.0141 9.58908 9.81612ZM34.1979 20.0975H27.4122C27.136 20.0975 26.9118 20.3361 26.9118 20.6299C26.9118 24.9781 23.5871 28.5158 19.5006 28.5158C15.4141 28.5158 12.088 24.9781 12.088 20.6299C12.088 20.3361 11.8638 20.0975 11.5875 20.0975H4.80222C4.52596 20.0975 4.30176 20.3361 4.30176 20.6299V22.6407C4.30176 22.8481 4.415 23.0369 4.59246 23.1238L7.3619 24.4853L8.3556 27.0358L7.3011 30.081C7.23346 30.2759 7.27868 30.4946 7.41662 30.6413L10.0903 33.4857C10.2282 33.6324 10.4338 33.6805 10.617 33.609L13.4795 32.4872L15.8769 33.5443L17.1568 36.4905C17.2385 36.6789 17.4159 36.7994 17.6109 36.7994H21.3892C21.5842 36.7994 21.7616 36.6789 21.8433 36.4905L23.1232 33.5443L25.5225 32.4872L28.385 33.609C28.5682 33.6805 28.7741 33.6328 28.9121 33.4857L31.5842 30.6413C31.7222 30.4946 31.7674 30.2759 31.6998 30.081L30.6449 27.0358L31.6386 24.4853L34.408 23.1238C34.5851 23.0369 34.6987 22.8481 34.6987 22.6407V20.6299C34.6987 20.3361 34.4741 20.0975 34.1979 20.0975ZM33.6974 22.3003L31.0412 23.6061C30.9272 23.6623 30.8372 23.7621 30.7889 23.8854L29.6451 26.8203C29.5968 26.944 29.5942 27.0827 29.6379 27.2084L30.6498 30.1295L28.4302 32.492L25.6847 31.4159C25.5666 31.3694 25.4366 31.3722 25.3203 31.4236L22.5596 32.6404C22.4433 32.6917 22.3495 32.7875 22.297 32.9088L21.0696 35.7345H17.9312L16.7038 32.9088C16.651 32.7875 16.5575 32.6917 16.4412 32.6404L13.6824 31.4236C13.5662 31.3722 13.4362 31.3694 13.3176 31.4159L10.5718 32.492L8.35066 30.1291L9.36222 27.2084C9.40554 27.0827 9.40326 26.9444 9.355 26.8203L8.2112 23.8854C8.16294 23.7617 8.07288 23.6623 7.95888 23.6061L5.30268 22.3003V21.1623H11.1022C11.3618 25.8509 15.0299 29.5806 19.501 29.5806C23.9721 29.5806 27.6383 25.8509 27.8982 21.1623H33.6978L33.6974 22.3003Z" fill="white" fill-opacity="0.6"/>
</svg>
