<svg width="39" height="38" viewBox="0 0 39 38" fill="none" xmlns="http://www.w3.org/2000/svg">
<path d="M4.91026 18.8525H8.7152C8.9603 18.8525 9.1693 18.6637 9.2092 18.4062C10.0372 13.0239 14.3654 9.11759 19.5007 9.11759C21.0029 9.11759 22.4359 9.45232 23.7324 10.0603L22.3469 11.7901C21.4365 11.4404 20.4808 11.263 19.5007 11.263C17.5859 11.263 15.7118 11.966 14.2241 13.2418C12.7588 14.4986 11.721 16.2596 11.3019 18.2004C11.2399 18.487 11.4083 18.7724 11.6777 18.8383C11.7153 18.8476 11.7529 18.8521 11.7902 18.8521C12.0182 18.8521 12.2241 18.6851 12.2773 18.4389C13.0544 14.8406 16.0245 12.3278 19.5007 12.3278C20.2357 12.3278 20.9546 12.441 21.6466 12.6641L20.1589 14.5217C19.9431 14.4934 19.7234 14.4772 19.5004 14.4772C16.5272 14.4772 14.1082 17.0499 14.1082 20.212C14.1082 23.3741 16.5272 25.9484 19.5004 25.9484C22.4735 25.9484 24.891 23.3749 24.891 20.212C24.891 18.7449 24.3701 17.4056 23.5154 16.3905L24.258 14.1684C25.4949 15.2687 26.3609 16.7617 26.7219 18.4389C26.7751 18.6855 26.981 18.8525 27.209 18.8525C27.2459 18.8525 27.2835 18.848 27.3211 18.8387C27.5906 18.7732 27.7589 18.4874 27.6973 18.2008C27.26 16.1682 26.1701 14.3737 24.6125 13.1064L25.3204 10.9885C27.6415 12.6419 29.3085 15.2736 29.7904 18.4054C29.8299 18.6629 30.0389 18.8517 30.2844 18.8517H34.0893C34.2326 18.8517 34.3686 18.7866 34.4636 18.6726C34.5586 18.5586 34.6031 18.407 34.586 18.2558C33.6675 10.1537 27.1821 4.04419 19.5004 4.04419C11.8187 4.04419 5.33206 10.1541 4.4136 18.2562C4.3965 18.4074 4.44096 18.559 4.53596 18.673C4.63096 18.787 4.76738 18.8525 4.91026 18.8525ZM24.2268 11.0847L22.714 15.6107C22.2751 15.2631 21.7845 14.9858 21.2575 14.7917L24.2268 11.0847ZM16.4828 23.6004C16.6393 22.8372 17.3359 22.268 18.1624 22.268H20.838C21.6648 22.268 22.3614 22.8372 22.5176 23.6008C21.7302 24.3948 20.6685 24.8836 19.5011 24.8836C18.3338 24.8836 17.2705 24.3948 16.4828 23.6004ZM18.2106 18.8969C18.2106 18.141 18.7894 17.5261 19.5011 17.5261C20.2129 17.5261 20.7897 18.141 20.7897 18.8969C20.7897 19.5486 20.4747 20.894 19.5011 20.894C18.6112 20.894 18.2106 19.7261 18.2106 18.8969ZM23.2392 22.6573C22.8121 21.8456 21.9878 21.28 21.034 21.2113C21.5311 20.6142 21.7906 19.7406 21.7906 18.8969C21.7906 17.554 20.7635 16.4613 19.5011 16.4613C18.2388 16.4613 17.2101 17.554 17.2101 18.8969C17.2101 19.7406 17.47 20.6142 17.9671 21.2113C17.0129 21.28 16.1887 21.8456 15.7615 22.6573C15.3489 21.9454 15.1098 21.1078 15.1098 20.2116C15.1098 17.6365 17.0798 15.5416 19.5011 15.5416C21.9225 15.5416 23.8909 17.6365 23.8909 20.2116C23.8909 21.1078 23.6522 21.9454 23.2392 22.6573ZM19.0007 8.0641C16.5523 8.1781 14.199 9.1277 12.2967 10.7718L10.3317 8.6814C12.6984 6.553 15.7209 5.24079 19.0007 5.1191V8.0641ZM25.8597 8.07664C25.6507 7.94849 25.385 7.997 25.2285 8.19225L24.4005 9.22634C23.0298 8.53466 21.5341 8.13566 20.0016 8.0641V5.1191C23.281 5.24079 26.3027 6.553 28.669 8.6814L26.7036 10.7722C26.3696 10.4836 26.0215 10.216 25.6613 9.97098L26.0808 8.71617C26.1618 8.47402 26.0687 8.20519 25.8597 8.07664ZM33.5144 17.7873H30.702C30.2452 15.3908 29.109 13.1876 27.4538 11.4801L29.4115 9.39734C31.5334 11.5953 33.0173 14.5011 33.5144 17.7873ZM9.5892 9.39815L11.5466 11.4805C9.8913 13.188 8.7551 15.3912 8.29834 17.7877H5.48596C5.98338 14.5019 7.4669 11.5961 9.5892 9.39815ZM34.198 19.6796H27.4123C27.1361 19.6796 26.9119 19.9181 26.9119 20.212C26.9119 24.5601 23.5873 28.0978 19.5007 28.0978C15.4142 28.0978 12.0881 24.5601 12.0881 20.212C12.0881 19.9181 11.8639 19.6796 11.5876 19.6796H4.80234C4.52608 19.6796 4.30188 19.9181 4.30188 20.212V22.2227C4.30188 22.4301 4.41512 22.6189 4.59258 22.7058L7.36202 24.0674L8.35572 26.6178L7.30122 29.6631C7.23358 29.8579 7.2788 30.0766 7.41674 30.2234L10.0904 33.0677C10.2284 33.2144 10.4339 33.2625 10.6171 33.191L13.4796 32.0692L15.8771 33.1263L17.1569 36.0725C17.2386 36.2609 17.4161 36.3814 17.611 36.3814H21.3893C21.5843 36.3814 21.7617 36.2609 21.8434 36.0725L23.1233 33.1263L25.5226 32.0692L28.3851 33.191C28.5683 33.2625 28.7743 33.2148 28.9122 33.0677L31.5844 30.2234C31.7223 30.0766 31.7675 29.8579 31.6999 29.6631L30.645 26.6178L31.6387 24.0674L34.4081 22.7058C34.5852 22.6189 34.6988 22.4301 34.6988 22.2227V20.212C34.6988 19.9181 34.4743 19.6796 34.198 19.6796ZM33.6975 21.8824L31.0413 23.1881C30.9273 23.2443 30.8373 23.3441 30.789 23.4674L29.6452 26.4023C29.597 26.526 29.5943 26.6647 29.638 26.7904L30.6499 29.7116L28.4304 32.074L25.6849 30.9979C25.5667 30.9514 25.4367 30.9543 25.3204 31.0056L22.5597 32.2224C22.4435 32.2737 22.3496 32.3696 22.2972 32.4908L21.0698 35.3166H17.9313L16.7039 32.4908C16.6511 32.3696 16.5576 32.2737 16.4414 32.2224L13.6826 31.0056C13.5663 30.9543 13.4363 30.9514 13.3178 30.9979L10.5719 32.074L8.35078 29.7112L9.36234 26.7904C9.40566 26.6647 9.40338 26.5264 9.35512 26.4023L8.21132 23.4674C8.16306 23.3437 8.073 23.2443 7.959 23.1881L5.3028 21.8824V20.7444H11.1024C11.3619 25.4329 15.03 29.1626 19.5011 29.1626C23.9722 29.1626 27.6384 25.4329 27.8984 20.7444H33.6979L33.6975 21.8824Z" fill="black" fill-opacity="0.6"/>
</svg>
