<svg width="38" height="38" viewBox="0 0 38 38" fill="none" xmlns="http://www.w3.org/2000/svg">
<path d="M16.4178 14.2499C16.4178 11.4158 14.701 8.97194 12.2536 7.90461C14.073 8.07451 15.5175 8.6623 16.7947 9.5196V22.712L14.6114 18.9017C15.7291 17.6738 16.4178 16.0439 16.4178 14.2499ZM2.8877 16.2851C3.6897 18.8824 5.98462 20.8335 8.76445 21.129L9.17068 21.7338L9.14182 21.1587C9.2604 21.1648 9.37975 21.1679 9.4998 21.1679C9.96148 21.1679 10.4102 21.1212 10.8432 21.0345L11.9388 22.9488C9.36411 22.7333 6.42355 23.2166 2.8877 24.6325V16.2851ZM27.2655 27.2835C28.9407 27.2891 31.0413 27.6933 33.7834 28.8346C30.6719 27.7432 28.033 27.4125 25.6985 27.6615L25.6981 27.6615C24.7627 27.7616 23.8974 27.9489 23.089 28.1979C24.0469 27.7649 25.0364 27.4614 26.164 27.342L26.1717 27.3411C26.4545 27.3097 26.7461 27.2903 27.0538 27.2835H27.2655ZM21.1529 24.2637V9.52103C22.5339 8.59598 24.0982 7.98588 26.1194 7.87296L26.1213 7.87285C26.3503 7.85976 26.5963 7.85303 26.8447 7.85303C26.8531 7.85303 26.8661 7.85337 26.9181 7.85549L26.9229 7.85569C26.9624 7.85731 27.0267 7.85994 27.0985 7.86038C29.1711 7.91164 31.773 8.47664 35.06 9.84819V24.6315C31.3854 23.1593 28.3472 22.6961 25.7004 22.9781C23.9657 23.1595 22.4752 23.6493 21.1529 24.2637ZM25.8481 24.3586C25.8474 24.3587 25.8467 24.3588 25.846 24.3588L36.56 26.7886C36.046 26.545 35.5462 26.3214 35.06 26.1167V26.2534C31.9794 24.9536 29.4413 24.4125 27.2721 24.4001C27.2706 24.4001 27.2692 24.4 27.2678 24.4C27.1906 24.3996 27.1139 24.3999 27.0377 24.4008C27.0281 24.4009 27.0185 24.401 27.0089 24.4012C26.6139 24.4067 26.2313 24.43 25.8599 24.4696L25.8481 24.3586ZM27.0377 25.7835C26.6814 25.7909 26.34 25.8132 26.0061 25.8503L27.0377 25.7835ZM11.7913 27.342C12.9235 27.4617 13.9215 27.7718 14.8853 28.2087C14.0712 27.9555 13.1975 27.7635 12.2504 27.6616L12.2491 27.6615C9.9115 27.4121 7.27307 27.7441 4.15619 28.8385C6.88328 27.704 8.97528 27.3003 10.6497 27.2835C11.0514 27.2837 11.4333 27.3036 11.7892 27.3418L11.7913 27.342ZM11.0601 12.1867C11.6825 12.6564 12.0818 13.4029 12.0818 14.2499C12.0818 15.6851 10.9351 16.8319 9.4998 16.8319C9.30076 16.8319 9.10722 16.8098 8.9215 16.7679L8.89976 16.3345C8.82011 14.7473 9.38855 13.4491 10.7823 12.3965L11.0601 12.1867ZM4.91726 9.07306C3.97846 9.90517 3.26653 10.9879 2.8877 12.2148V9.84888C3.59562 9.55396 4.2716 9.29633 4.91726 9.07306Z" stroke="white" stroke-opacity="0.6" stroke-width="3"/>
</svg>
