<svg width="38" height="38" viewBox="0 0 38 38" fill="none" xmlns="http://www.w3.org/2000/svg">
<g clip-path="url(#clip0_443_1057)">
<path d="M13.9178 14.25C13.9178 11.4159 12.201 8.97206 9.7536 7.90473C11.573 8.07463 13.0175 8.66242 14.2947 9.51972V22.7122L12.1114 18.9018C13.2291 17.674 13.9178 16.044 13.9178 14.25ZM0.387695 16.2852C1.1897 18.8826 3.48462 20.8336 6.26445 21.1291L6.67068 21.734L6.64182 21.1588C6.7604 21.1649 6.87975 21.168 6.9998 21.168C7.46148 21.168 7.91022 21.1213 8.34316 21.0346L9.43876 22.9489C6.86411 22.7335 3.92355 23.2168 0.387695 24.6326V16.2852ZM24.7655 27.2836C26.4407 27.2892 28.5413 27.6935 31.2834 28.8347C28.1719 27.7433 25.533 27.4126 23.1985 27.6616L23.1981 27.6617C22.2627 27.7617 21.3974 27.949 20.589 28.198C21.5469 27.765 22.5364 27.4615 23.664 27.3421L23.6717 27.3412C23.9545 27.3098 24.2461 27.2904 24.5538 27.2836H24.7655ZM18.6529 24.2638V9.52115C20.0339 8.59611 21.5982 7.986 23.6194 7.87308L23.6213 7.87297C23.8503 7.85989 24.0963 7.85315 24.3447 7.85315C24.3531 7.85315 24.3661 7.85349 24.4181 7.85561L24.4229 7.85581C24.4624 7.85743 24.5267 7.86006 24.5985 7.86051C26.6711 7.91176 29.273 8.47676 32.56 9.84831V24.6316C28.8854 23.1595 25.8472 22.6963 23.2004 22.9782C21.4657 23.1596 19.9752 23.6494 18.6529 24.2638ZM23.3481 24.3588C23.3474 24.3588 23.3467 24.3589 23.346 24.359L34.06 26.7887C33.546 26.5452 33.0462 26.3215 32.56 26.1169V26.2535C29.4794 24.9538 26.9413 24.4126 24.7721 24.4002C24.7706 24.4002 24.7692 24.4002 24.7678 24.4002C24.6906 24.3997 24.6139 24.4 24.5377 24.4009C24.5281 24.401 24.5185 24.4011 24.5089 24.4013C24.1139 24.4069 23.7313 24.4302 23.3599 24.4697L23.3481 24.3588ZM24.5377 25.7836C24.1814 25.791 23.84 25.8133 23.5061 25.8504L24.5377 25.7836ZM9.29125 27.3421C10.4235 27.4618 11.4215 27.7719 12.3853 28.2088C11.5712 27.9556 10.6975 27.7636 9.75041 27.6617L9.74914 27.6616C7.4115 27.4123 4.77307 27.7442 1.65619 28.8387C4.38328 27.7041 6.47528 27.3004 8.14975 27.2836C8.55136 27.2838 8.93331 27.3037 9.28922 27.3419L9.29125 27.3421ZM8.56011 12.1868C9.18246 12.6565 9.58184 13.403 9.58184 14.25C9.58184 15.6853 8.43505 16.8321 6.9998 16.8321C6.80076 16.8321 6.60722 16.81 6.4215 16.7681L6.39976 16.3346C6.32011 14.7474 6.88855 13.4492 8.28229 12.3966L8.56011 12.1868ZM2.41726 9.07318C1.47846 9.9053 0.76653 10.988 0.387695 12.2149V9.84901C1.09562 9.55409 1.7716 9.29645 2.41726 9.07318Z" stroke="black" stroke-opacity="0.6" stroke-width="3"/>
</g>
<defs>
<clipPath id="clip0_443_1057">
<rect width="38" height="38" fill="white"/>
</clipPath>
</defs>
</svg>
