<svg width="38" height="38" viewBox="0 0 38 38" fill="none" xmlns="http://www.w3.org/2000/svg">
<g clip-path="url(#clip0_807_363)">
<path d="M16.3474 1.88483C12.6372 1.88483 8.92734 3.3871 6.10015 6.39061C0.445784 12.3976 0.445784 22.1563 6.10015 28.1634C11.2404 33.6242 19.2991 34.1189 24.9702 29.651L27.5219 32.3623L27.2721 32.6264C27.214 32.688 27.1679 32.7611 27.1365 32.8417C27.105 32.9222 27.0888 33.0086 27.0888 33.0958C27.0888 33.1829 27.105 33.2693 27.1365 33.3498C27.1679 33.4304 27.214 33.5035 27.2721 33.5651L32.6388 39.2621C33.8807 40.5813 35.8582 40.7251 37.0465 39.4627C38.2348 38.2004 38.0995 36.0989 36.8576 34.7796L31.4958 29.0826C31.4378 29.0209 31.369 28.9719 31.2932 28.9385C31.2174 28.9051 31.1361 28.8879 31.054 28.8879C30.972 28.8879 30.8907 28.9051 30.8149 28.9385C30.7391 28.9719 30.6703 29.0209 30.6123 29.0826L30.4575 29.2471L27.918 26.5488C32.2082 20.5188 31.7681 11.8854 26.5958 6.39061C23.7686 3.3871 20.0575 1.88483 16.3474 1.88483ZM16.3474 3.20031C19.7356 3.20031 23.1272 4.57523 25.716 7.32542C30.8935 12.8258 30.8935 21.723 25.716 27.2234C20.5385 32.7237 12.1623 32.7237 6.98485 27.2234C1.80737 21.723 1.80737 12.8258 6.98485 7.32542C9.57359 4.57523 12.9591 3.20031 16.3474 3.20031ZM21.0597 10.35C20.8942 10.3493 20.7353 10.4185 20.6178 10.5423C20.5003 10.6662 20.434 10.8345 20.4333 11.0103V23.5436C20.434 23.7194 20.5003 23.8878 20.6178 24.0116C20.7353 24.1354 20.8942 24.2046 21.0597 24.204H24.3755C24.5401 24.2033 24.6978 24.1335 24.8142 24.0098C24.9306 23.8861 24.9963 23.7185 24.997 23.5436V11.0103C24.9963 10.8354 24.9306 10.6679 24.8142 10.5442C24.6978 10.4205 24.5401 10.3507 24.3755 10.35H21.0597ZM21.6812 11.6758H23.7491V22.8781H21.6812V11.6758ZM14.6901 14.4414C14.5254 14.4421 14.3677 14.5119 14.2513 14.6356C14.1349 14.7593 14.0692 14.9269 14.0686 15.1018V23.5436C14.0692 23.7185 14.1349 23.8861 14.2513 24.0098C14.3677 24.1335 14.5254 24.2033 14.6901 24.204H18.0059C18.1713 24.2046 18.3303 24.1354 18.4478 24.0116C18.5652 23.8878 18.6316 23.7194 18.6322 23.5436V15.1018C18.6316 14.926 18.5652 14.7576 18.4478 14.6338C18.3303 14.51 18.1713 14.4408 18.0059 14.4414H14.6901ZM15.3164 15.7673H17.3844V22.8781H15.3164V15.7673ZM8.32409 18.3115C8.15926 18.3122 8.00137 18.3822 7.88493 18.5061C7.76849 18.6301 7.70294 18.798 7.7026 18.9731V23.5436C7.70326 23.7185 7.76895 23.8861 7.88536 24.0098C8.00177 24.1335 8.15947 24.2033 8.32409 24.204H11.6411C11.8066 24.2046 11.9655 24.1354 12.083 24.0116C12.2005 23.8878 12.2668 23.7194 12.2675 23.5436V18.9731C12.2673 18.886 12.251 18.7997 12.2194 18.7192C12.1878 18.6388 12.1416 18.5658 12.0834 18.5043C12.0253 18.4428 11.9562 18.3942 11.8803 18.3611C11.8044 18.328 11.7232 18.3112 11.6411 18.3115H8.32409ZM8.95045 19.6386H11.0184V22.8781H8.95045V19.6386ZM27.1222 27.5729L29.5753 30.1793L28.9782 30.8163L28.4042 31.4261L25.9426 28.8146C26.1651 28.6056 26.383 28.3894 26.5958 28.1634C26.7772 27.9706 26.9524 27.7732 27.1222 27.5729ZM31.0534 30.4875L35.9729 35.7131C36.7891 36.5802 36.8229 37.8204 36.1618 38.5228C35.5007 39.2252 34.3349 39.1893 33.5187 38.3221L28.5992 33.0951L31.0534 30.4875Z" fill="black" fill-opacity="0.6"/>
</g>
<defs>
<clipPath id="clip0_807_363">
<rect width="38" height="38" fill="white"/>
</clipPath>
</defs>
</svg>
