<svg width="40" height="38" viewBox="0 0 40 38" fill="none" xmlns="http://www.w3.org/2000/svg">
<path fill-rule="evenodd" clip-rule="evenodd" d="M27.3245 32.8249H11.6C11.3607 32.8249 11.1311 32.92 10.9618 33.0892C10.7926 33.2585 10.6975 33.488 10.6975 33.7274C10.6975 33.9667 10.7926 34.1963 10.9618 34.3655C11.1311 34.5348 11.3607 34.6299 11.6 34.6299H27.3245C27.5638 34.6299 27.7934 34.5348 27.9627 34.3655C28.1319 34.1963 28.227 33.9667 28.227 33.7274C28.227 33.488 28.1319 33.2585 27.9627 33.0892C27.7934 32.92 27.5638 32.8249 27.3245 32.8249ZM5.04818 28.1833C4.94219 28.18 4.84166 28.1356 4.76785 28.0595C4.69405 27.9833 4.65278 27.8815 4.65278 27.7754C4.65278 27.6694 4.69405 27.5675 4.76785 27.4914C4.84166 27.4152 4.94219 27.3708 5.04818 27.3675H5.16139C5.26737 27.3708 5.36791 27.4152 5.44171 27.4914C5.51551 27.5675 5.55678 27.6694 5.55678 27.7754C5.55678 27.8815 5.51551 27.9833 5.44171 28.0595C5.36791 28.1356 5.26737 28.18 5.16139 28.1833H5.04818ZM21.9586 32.0102V29.9519H16.9663V32.0102H21.9586ZM20.264 6.81743H18.6605C18.5663 6.81826 18.4761 6.85606 18.4095 6.92269C18.3429 6.98932 18.3051 7.07946 18.3042 7.17368V8.02829H18.3023C18.3021 8.13616 18.2651 8.24075 18.1976 8.32485C18.13 8.40895 18.0359 8.46756 17.9306 8.49102C17.14 8.66623 16.3855 8.9762 15.7001 9.40737C15.6087 9.47814 15.4946 9.51315 15.3793 9.50587C15.2639 9.49858 15.1552 9.44949 15.0734 9.36779L14.469 8.76335C14.4017 8.69714 14.3111 8.66003 14.2167 8.66003C14.1223 8.66003 14.0316 8.69714 13.9643 8.76335L12.8295 9.89583C12.763 9.9631 12.7258 10.0538 12.7258 10.1484C12.7258 10.2429 12.763 10.3336 12.8295 10.4009L13.4335 11.0054C13.5103 11.0819 13.5585 11.1825 13.5703 11.2903C13.582 11.398 13.5565 11.5066 13.498 11.5979C13.0624 12.2808 12.7478 13.0338 12.5682 13.8237C12.5534 13.9383 12.4973 14.0435 12.4104 14.1198C12.3236 14.196 12.2119 14.2379 12.0964 14.2377H11.2418C11.1475 14.2385 11.0573 14.2762 10.9907 14.3429C10.924 14.4095 10.8863 14.4997 10.8855 14.594V16.1975C10.8863 16.2918 10.924 16.3819 10.9907 16.4486C11.0573 16.5153 11.1475 16.553 11.2418 16.5537H12.096V16.5557C12.2039 16.5559 12.3085 16.5928 12.3926 16.6604C12.4767 16.728 12.5353 16.8221 12.5587 16.9274C12.7336 17.7181 13.0433 18.4727 13.4743 19.1583C13.545 19.2497 13.5801 19.3638 13.5728 19.4791C13.5655 19.5945 13.5164 19.7032 13.4347 19.7849L12.8307 20.3894C12.7647 20.457 12.7277 20.5477 12.7277 20.6421C12.7277 20.7366 12.7647 20.8273 12.8307 20.8949L13.9647 22.0293C14.0321 22.0955 14.1228 22.1327 14.2173 22.1327C14.3117 22.1327 14.4024 22.0955 14.4698 22.0293L15.0742 21.4249C15.1506 21.3488 15.2506 21.3009 15.3578 21.2892C15.465 21.2775 15.573 21.3026 15.664 21.3604C16.0036 21.5772 16.3612 21.7644 16.7328 21.9201L16.7565 21.9292C17.1232 22.0811 17.5021 22.202 17.889 22.2906C18.0036 22.3054 18.1089 22.3615 18.1851 22.4483C18.2613 22.5352 18.3032 22.6468 18.3031 22.7624V23.6166C18.3039 23.7108 18.3417 23.801 18.4083 23.8676C18.4749 23.9342 18.5651 23.972 18.6593 23.9729H20.2628C20.357 23.972 20.4472 23.9342 20.5138 23.8676C20.5804 23.801 20.6182 23.7108 20.6191 23.6166V22.7636H20.623C20.6231 22.6556 20.66 22.551 20.7276 22.4668C20.7951 22.3826 20.8894 22.3239 20.9947 22.3005C21.7854 22.1257 22.54 21.8157 23.2252 21.3841C23.3166 21.3133 23.4307 21.2783 23.546 21.2856C23.6614 21.2929 23.7701 21.342 23.8518 21.4237L24.4563 22.0281C24.5236 22.0944 24.6143 22.1315 24.7088 22.1315C24.8033 22.1315 24.894 22.0944 24.9614 22.0281L26.0954 20.8941C26.1617 20.8267 26.1988 20.736 26.1988 20.6415C26.1988 20.547 26.1617 20.4563 26.0954 20.389L25.4918 19.7857C25.4157 19.7093 25.3678 19.6093 25.3561 19.5021C25.3444 19.395 25.3695 19.287 25.4273 19.1959C25.8627 18.5129 26.1772 17.76 26.3571 16.9702C26.3719 16.8556 26.428 16.7503 26.5148 16.6741C26.6017 16.5979 26.7134 16.5559 26.8289 16.5561H27.6831C27.7773 16.5553 27.8675 16.5175 27.9341 16.4509C28.0007 16.3842 28.0385 16.2941 28.0394 16.1999V14.5944C28.0385 14.5001 28.0007 14.41 27.9341 14.3434C27.8675 14.2767 27.7773 14.2389 27.6831 14.2381H26.8297V14.2361C26.7218 14.236 26.6171 14.1992 26.5329 14.1316C26.4487 14.064 26.39 13.9698 26.3666 13.8645C26.1925 13.0736 25.8832 12.3187 25.4522 11.6331C25.3814 11.5418 25.3464 11.4277 25.3537 11.3124C25.361 11.197 25.4101 11.0883 25.4918 11.0065L26.0962 10.4021C26.1625 10.3347 26.1996 10.244 26.1996 10.1496C26.1996 10.0551 26.1625 9.96439 26.0962 9.89702L24.9614 8.76296C24.894 8.69672 24.8033 8.6596 24.7088 8.6596C24.6143 8.6596 24.5236 8.69672 24.4563 8.76296L23.8518 9.36739C23.7755 9.44349 23.6754 9.49134 23.5683 9.50306C23.4611 9.51479 23.3531 9.4897 23.2621 9.43191C22.579 8.9965 21.8261 8.68197 21.0363 8.5021C20.9216 8.48707 20.8164 8.43073 20.7403 8.34365C20.6642 8.25656 20.6225 8.14472 20.623 8.02908V7.17448C20.6222 7.08025 20.5844 6.99011 20.5178 6.92348C20.4511 6.85685 20.361 6.81905 20.2668 6.81823L20.264 6.81743ZM18.6605 5.86743H20.264C20.6107 5.86796 20.943 6.00577 21.1884 6.25071C21.4337 6.49566 21.572 6.82781 21.573 7.17448V7.65818C22.2262 7.83509 22.8541 8.09489 23.4414 8.43125L23.7834 8.08885C24.0291 7.84394 24.3619 7.70642 24.7088 7.70642C25.0558 7.70642 25.3885 7.84394 25.6343 8.08885L26.7683 9.22291C27.0133 9.46865 27.1508 9.80144 27.1508 10.1484C27.1508 10.4953 27.0133 10.8281 26.7683 11.0738L26.4263 11.4158C26.7627 12.0032 27.0228 12.6311 27.2006 13.2842H27.6839C28.0308 13.285 28.3632 13.4232 28.6085 13.6685C28.8537 13.9138 28.9918 14.2463 28.9925 14.5932V16.1967C28.992 16.5437 28.854 16.8762 28.6087 17.1216C28.3634 17.367 28.0309 17.5051 27.6839 17.5057H27.2006C27.0228 18.1588 26.7627 18.7867 26.4263 19.3741L26.7683 19.7161C27.0133 19.9618 27.1508 20.2946 27.1508 20.6415C27.1508 20.9885 27.0133 21.3212 26.7683 21.567L25.6343 22.7022C25.3885 22.9471 25.0558 23.0847 24.7088 23.0847C24.3619 23.0847 24.0291 22.9471 23.7834 22.7022L23.4414 22.3602C22.854 22.6966 22.2261 22.9567 21.573 23.1345V23.6178C21.5724 23.9647 21.4343 24.2973 21.1889 24.5426C20.9435 24.7879 20.611 24.9259 20.264 24.9264H18.6605C18.3136 24.9257 17.9811 24.7876 17.7358 24.5423C17.4905 24.2971 17.3523 23.9647 17.3515 23.6178V23.1345C17.0253 23.0461 16.7051 22.937 16.3928 22.8079L16.3686 22.7968C16.0649 22.6701 15.7693 22.5247 15.4835 22.3614L15.1411 22.7034C14.8954 22.9483 14.5626 23.0858 14.2157 23.0858C13.8687 23.0858 13.536 22.9483 13.2902 22.7034L12.1562 21.5682C11.9113 21.3228 11.7737 20.9903 11.7737 20.6437C11.7737 20.2971 11.9113 19.9646 12.1562 19.7192L12.4986 19.3772C12.1616 18.7901 11.9014 18.1622 11.7243 17.5089H11.2418C10.8948 17.5084 10.5621 17.3703 10.3167 17.1249C10.0714 16.8795 9.93328 16.5469 9.93276 16.1999V14.5944C9.93349 14.2474 10.0716 13.9149 10.317 13.6696C10.5623 13.4242 10.8948 13.2861 11.2418 13.2854H11.7251C11.8133 12.9598 11.9223 12.6402 12.0517 12.3286C12.1813 12.0159 12.3308 11.7118 12.4993 11.4182L12.1573 11.0758C11.9123 10.8301 11.7748 10.4973 11.7748 10.1504C11.7748 9.80338 11.9123 9.47057 12.1573 9.22489L13.2914 8.09083C13.5371 7.84592 13.8699 7.7084 14.2169 7.7084C14.5638 7.7084 14.8966 7.84592 15.1423 8.09083L15.4847 8.43283C16.0718 8.09632 16.6996 7.83626 17.3527 7.65898V7.17448C17.3535 6.8276 17.4917 6.49517 17.737 6.24992C17.9823 6.00468 18.3148 5.86658 18.6617 5.86585L18.6605 5.86743ZM22.7914 12.067C23.5621 12.8376 24.0417 13.8516 24.1485 14.9362C24.2554 16.0208 23.9828 17.1089 23.3772 18.0151C22.7717 18.9212 21.8707 19.5894 20.8277 19.9056C19.7848 20.2219 18.6644 20.1667 17.6576 19.7495C16.6507 19.3323 15.8197 18.5788 15.3062 17.6176C14.7926 16.6563 14.6282 15.5467 14.8411 14.4778C15.054 13.4089 15.631 12.447 16.4736 11.7558C17.3163 11.0647 18.3726 10.6871 19.4624 10.6875C20.0808 10.6867 20.6932 10.8081 21.2645 11.0447C21.8358 11.2813 22.3547 11.6285 22.7914 12.0662V12.067ZM19.4624 9.7375C20.772 9.73747 22.0411 10.1915 23.0534 11.0223C24.0658 11.8531 24.7587 13.0092 25.0142 14.2936C25.2697 15.578 25.0719 16.9113 24.4546 18.0662C23.8372 19.2212 22.8385 20.1263 21.6286 20.6275C20.4187 21.1286 19.0725 21.1947 17.8193 20.8146C16.5661 20.4344 15.4835 19.6315 14.756 18.5426C14.0285 17.4537 13.701 16.1462 13.8294 14.8429C13.9578 13.5397 14.5341 12.3212 15.4602 11.3952C15.9852 10.8689 16.6091 10.4515 17.2959 10.167C17.9827 9.88253 18.719 9.73656 19.4624 9.7375ZM17.8091 16.2806C17.9065 16.3566 17.9705 16.4675 17.9875 16.5899C18.0045 16.7122 17.9732 16.8364 17.9002 16.936C17.8272 17.0357 17.7182 17.103 17.5964 17.1236C17.4746 17.1442 17.3495 17.1166 17.2478 17.0466L15.5239 15.7799C15.4224 15.7054 15.3546 15.5936 15.3354 15.4691C15.3162 15.3447 15.3473 15.2177 15.4218 15.1161C15.4526 15.0744 15.4899 15.0379 15.5322 15.008L17.2478 13.7481C17.3495 13.6795 17.4739 13.6529 17.5948 13.6739C17.7157 13.695 17.8238 13.7621 17.8964 13.861C17.969 13.96 18.0004 14.0833 17.9841 14.2049C17.9678 14.3266 17.9051 14.4372 17.8091 14.5136L16.6069 15.3979L17.8091 16.2806ZM21.6771 17.0466C21.5754 17.1181 21.4497 17.1469 21.327 17.1268C21.2042 17.1067 21.0943 17.0393 21.0208 16.939C20.9472 16.8387 20.9159 16.7136 20.9336 16.5905C20.9513 16.4674 21.0166 16.3561 21.1154 16.2806L22.318 15.3979L21.1154 14.5144C21.0629 14.4784 21.0181 14.4323 20.9838 14.3786C20.9495 14.325 20.9263 14.265 20.9156 14.2022C20.9049 14.1395 20.9069 14.0752 20.9216 14.0132C20.9362 13.9513 20.9632 13.8929 21.0009 13.8415C21.0385 13.7902 21.0861 13.7469 21.1409 13.7144C21.1956 13.6818 21.2563 13.6606 21.3194 13.6519C21.3825 13.6433 21.4466 13.6474 21.5081 13.6641C21.5696 13.6807 21.627 13.7096 21.6771 13.7489L23.3939 15.0072C23.4556 15.0505 23.5062 15.1079 23.5414 15.1747C23.5766 15.2414 23.5953 15.3156 23.5961 15.391C23.5969 15.4665 23.5798 15.541 23.546 15.6085C23.5123 15.676 23.463 15.7345 23.4022 15.7791L21.6787 17.0458L21.6771 17.0466ZM19.0001 17.6862C18.9773 17.7458 18.9426 17.8002 18.8983 17.8461C18.854 17.892 18.8008 17.9285 18.7421 17.9534C18.6833 17.9783 18.6202 17.9911 18.5564 17.9911C18.4925 17.991 18.4294 17.9781 18.3707 17.9532C18.3119 17.9282 18.2589 17.8916 18.2146 17.8457C18.1703 17.7997 18.1357 17.7453 18.113 17.6857C18.0902 17.6261 18.0796 17.5625 18.082 17.4987C18.0843 17.435 18.0994 17.3723 18.1265 17.3145L19.9256 13.106C19.9778 12.9946 20.0712 12.9078 20.1861 12.8639C20.301 12.82 20.4285 12.8223 20.5417 12.8705C20.6549 12.9187 20.745 13.0089 20.793 13.1221C20.841 13.2354 20.8432 13.3629 20.7992 13.4777L19.0001 17.6862ZM32.673 20.6403C33.3179 20.9549 33.8621 21.4436 34.2438 22.0511C34.6256 22.6587 34.8299 23.361 34.8334 24.0785C34.8356 24.7919 34.6403 25.4919 34.2694 26.1012C34.2282 26.1686 34.2075 26.2466 34.2099 26.3255C34.2123 26.4045 34.2377 26.481 34.2828 26.5458L36.0962 29.4722C36.1069 29.4935 36.1195 29.5139 36.1338 29.5331L36.7113 30.4653L34.1431 32.057L32.4707 29.3578C32.4592 29.3364 32.446 29.316 32.4311 29.2968L31.7064 28.1192C31.6668 28.0552 31.6103 28.0033 31.5431 27.9695C31.4759 27.9357 31.4006 27.9212 31.3256 27.9276C30.6149 27.9883 29.9013 27.8513 29.2637 27.5318C28.3964 27.0954 27.7262 26.3472 27.3877 25.4372C27.0491 24.5273 27.0673 23.523 27.4385 22.6258L29.0218 25.1797C29.0564 25.2357 29.1041 25.2825 29.1608 25.316C29.2175 25.3495 29.2814 25.3688 29.3472 25.3721L31.5694 25.4873C31.6565 25.4918 31.7428 25.4681 31.8154 25.4198C31.8881 25.3714 31.9432 25.301 31.9728 25.2189L32.8487 23.2002C32.8747 23.1403 32.8858 23.0749 32.8811 23.0098C32.8763 22.9447 32.8558 22.8816 32.8214 22.8261L31.231 20.2595C31.7323 20.291 32.2226 20.4199 32.6746 20.6391L32.673 20.6403ZM31.3766 29.1333L31.1415 28.7537C30.323 28.7798 29.5121 28.5898 28.7903 28.2029C28.0686 27.8159 27.4614 27.2458 27.03 26.5497C26.9659 26.446 26.9062 26.3405 26.8511 26.2331H2.87109V29.1333H31.3766ZM35.1287 26.2339C35.1165 26.258 35.1038 26.2817 35.0911 26.3051L36.0538 27.8587V26.2358L35.1287 26.2339ZM30.465 19.4679C30.3969 19.4755 30.3319 19.5002 30.2759 19.5397C30.2199 19.5792 30.1748 19.6323 30.1447 19.6938C30.1147 19.7554 30.1007 19.8236 30.104 19.8921C30.1073 19.9605 30.1279 20.027 30.1638 20.0854L32.0155 23.0739L31.3268 24.6604L29.5978 24.571L27.7524 21.5927C27.7162 21.5342 27.6658 21.4859 27.6058 21.4522C27.5458 21.4185 27.4783 21.4006 27.4095 21.4001C27.3407 21.3997 27.273 21.4166 27.2126 21.4495C27.1521 21.4823 27.101 21.53 27.064 21.588C26.5915 22.33 26.3377 23.1901 26.3317 24.0698C26.3285 24.5254 26.3926 24.9789 26.5221 25.4157H2.87109V4.95108H36.0538V25.4157H35.4557C35.6734 24.6784 35.7052 23.8986 35.5484 23.146C35.3915 22.3934 35.0508 21.6913 34.5566 21.1024C34.0624 20.5135 33.4302 20.056 32.7163 19.7708C32.0024 19.4856 31.2289 19.3815 30.465 19.4679Z" fill="black"/>
</svg>
