<svg width="38" height="38" viewBox="0 0 38 38" fill="none" xmlns="http://www.w3.org/2000/svg">
<g clip-path="url(#clip0_807_365)">
<path fill-rule="evenodd" clip-rule="evenodd" d="M26.1334 35.2057H11.0938C10.868 35.2113 10.6531 35.3216 10.4951 35.513C10.337 35.7044 10.2486 35.9616 10.2486 36.2294C10.2486 36.4973 10.337 36.7545 10.4951 36.9459C10.6531 37.1372 10.868 37.2476 11.0938 37.2532H26.1334C26.3592 37.2476 26.5742 37.1372 26.7322 36.9459C26.8902 36.7545 26.9787 36.4973 26.9787 36.2294C26.9787 35.9616 26.8902 35.7044 26.7322 35.513C26.5742 35.3216 26.3592 35.2113 26.1334 35.2057ZM4.82646 29.9408C4.72511 29.937 4.62898 29.8866 4.55841 29.8003C4.48784 29.7139 4.44838 29.5984 4.44838 29.4782C4.44838 29.3579 4.48784 29.2424 4.55841 29.156C4.62898 29.0697 4.72511 29.0193 4.82646 29.0155H4.93438C4.98663 29.0136 5.03867 29.0241 5.08742 29.0465C5.13617 29.0689 5.18064 29.1026 5.21817 29.1458C5.25571 29.1889 5.28555 29.2406 5.30593 29.2977C5.32631 29.3548 5.33682 29.4162 5.33682 29.4782C5.33682 29.5402 5.32631 29.6015 5.30593 29.6586C5.28555 29.7157 5.25571 29.7674 5.21817 29.8105C5.18064 29.8537 5.13617 29.8874 5.08742 29.9098C5.03867 29.9322 4.98663 29.9427 4.93438 29.9408H4.82646ZM21.0004 34.2822V31.9454H16.2265V34.2822H21.0004ZM19.3805 5.70601H17.8464C17.7557 5.70601 17.6687 5.74875 17.6046 5.82482C17.5404 5.90088 17.5044 6.00406 17.5044 6.11163V7.08106C17.5044 7.20354 17.4691 7.32234 17.4045 7.41782C17.3398 7.5133 17.2496 7.57972 17.1487 7.60611C16.3927 7.80472 15.6712 8.15628 15.0158 8.64539C14.9282 8.72534 14.8191 8.76484 14.7088 8.75655C14.5985 8.74826 14.4945 8.69274 14.4161 8.60032L13.8382 7.91483C13.7741 7.83901 13.6872 7.79643 13.5967 7.79643C13.5061 7.79643 13.4193 7.83901 13.3552 7.91483L12.2695 9.20109C12.2056 9.27712 12.1697 9.38012 12.1697 9.4875C12.1697 9.59488 12.2056 9.69788 12.2695 9.77391L12.8475 10.4594C12.92 10.5463 12.9656 10.6597 12.9768 10.7813C12.988 10.9028 12.9641 11.0253 12.9091 11.1287C12.4927 11.9032 12.1918 12.757 12.0195 13.6525C12.0049 13.7823 11.9512 13.9014 11.8683 13.9878C11.7853 14.0741 11.6788 14.1219 11.5684 14.1221H10.7514C10.6607 14.1221 10.5737 14.1649 10.5096 14.2409C10.4455 14.317 10.4094 14.4202 10.4094 14.5278V16.3472C10.4094 16.4548 10.4455 16.5579 10.5096 16.634C10.5737 16.7101 10.6607 16.7528 10.7514 16.7528H11.5684C11.6717 16.7529 11.7718 16.7947 11.8523 16.8714C11.9328 16.9481 11.9888 17.0551 12.0111 17.1746C12.1785 18.0715 12.4749 18.9274 12.8874 19.7048C12.9547 19.8086 12.9879 19.9379 12.981 20.0686C12.974 20.1993 12.9272 20.3226 12.8494 20.4155L12.2714 21.101C12.2079 21.1777 12.1727 21.2811 12.1734 21.3886C12.1732 21.4417 12.1818 21.4943 12.1989 21.5434C12.2159 21.5925 12.2409 21.6372 12.2726 21.6747L13.3571 22.9615C13.4215 23.0365 13.5082 23.0786 13.5986 23.0786C13.6889 23.0786 13.7756 23.0365 13.8401 22.9615L14.418 22.276C14.4911 22.1895 14.5868 22.1351 14.6894 22.1219C14.792 22.1086 14.8953 22.1372 14.9823 22.2029C15.3075 22.4486 15.6497 22.6609 16.0053 22.8375L16.0281 22.8479C16.3787 23.0206 16.741 23.1576 17.1111 23.2576C17.2206 23.2748 17.3211 23.3386 17.3939 23.437C17.4667 23.5355 17.5069 23.662 17.5071 23.793V24.7619C17.5071 24.8695 17.5431 24.9727 17.6072 25.0488C17.6714 25.1248 17.7584 25.1676 17.8491 25.1676H19.3805C19.4712 25.1676 19.5582 25.1248 19.6223 25.0488C19.6864 24.9727 19.7225 24.8695 19.7225 24.7619V23.7943C19.7225 23.6719 19.7578 23.5531 19.8225 23.4576C19.8871 23.3622 19.9773 23.2957 20.0781 23.2693C20.8344 23.0709 21.5561 22.7191 22.2115 22.2295C22.299 22.1496 22.4081 22.1101 22.5184 22.1184C22.6287 22.1267 22.7327 22.1822 22.8111 22.2746L23.3891 22.9601C23.4535 23.0352 23.5402 23.0772 23.6306 23.0772C23.7209 23.0772 23.8076 23.0352 23.8721 22.9601L24.9566 21.6734C25.0205 21.5974 25.0564 21.4944 25.0564 21.387C25.0564 21.2796 25.0205 21.1766 24.9566 21.1006L24.3786 20.4151C24.3069 20.3278 24.2621 20.2143 24.2515 20.0931C24.241 19.9719 24.2653 19.85 24.3205 19.7472C24.7371 18.9728 25.0379 18.119 25.2097 17.2233C25.2243 17.0936 25.2781 16.9745 25.3611 16.8882C25.4441 16.8019 25.5507 16.7543 25.6611 16.7541H26.4781C26.5688 16.7541 26.6558 16.7114 26.7199 16.6353C26.7841 16.5593 26.8201 16.4561 26.8201 16.3485V14.5273C26.8201 14.4197 26.7841 14.3166 26.7199 14.2405C26.6558 14.1644 26.5688 14.1217 26.4781 14.1217H25.6611V14.1194C25.5578 14.1194 25.4577 14.0776 25.3772 14.0009C25.2967 13.9242 25.2406 13.8172 25.2184 13.6976C25.051 12.8008 24.7546 11.9448 24.3421 11.1674C24.2748 11.0636 24.2416 10.9343 24.2486 10.8036C24.2556 10.6729 24.3023 10.5496 24.3801 10.4567L24.9581 9.77121C25.0214 9.69477 25.0568 9.59192 25.0568 9.4848C25.0568 9.37767 25.0214 9.27482 24.9581 9.19838L23.8732 7.91212C23.8091 7.83644 23.7223 7.79395 23.6319 7.79395C23.5415 7.79395 23.4547 7.83644 23.3906 7.91212L22.8126 8.59762C22.7397 8.68412 22.6441 8.73854 22.5415 8.7519C22.439 8.76525 22.3357 8.73674 22.2487 8.67108C21.5957 8.17719 20.8758 7.82029 20.1207 7.61602C20.0107 7.59937 19.9097 7.53579 19.8364 7.43716C19.7631 7.33854 19.7226 7.21162 19.7225 7.08016V6.11073C19.7225 6.00315 19.6864 5.89998 19.6223 5.82391C19.5582 5.74785 19.4712 5.70601 19.3805 5.70601ZM17.8464 4.62437H19.3805C19.7122 4.62508 20.0303 4.78172 20.2649 5.05997C20.4995 5.33823 20.6316 5.71542 20.6322 6.10893V6.65922C21.2574 6.86027 21.8584 7.15547 22.4205 7.5376L22.7476 7.14956C22.9827 6.87187 23.3009 6.71596 23.6327 6.71596C23.9644 6.71596 24.2826 6.87187 24.5177 7.14956L25.6014 8.43492C25.8357 8.71369 25.9672 9.09122 25.9672 9.4848C25.9672 9.87837 25.8357 10.2559 25.6014 10.5347L25.2743 10.9227C25.596 11.5886 25.8448 12.3004 26.0149 13.0409H26.477C26.8088 13.0417 27.1268 13.1983 27.3614 13.4765C27.596 13.7548 27.7281 14.132 27.7287 14.5255V16.3449C27.7281 16.7384 27.596 17.1156 27.3614 17.3939C27.1268 17.6721 26.8088 17.8288 26.477 17.8295H26.0149C25.8448 18.57 25.596 19.2818 25.2743 19.9477L25.6014 20.3358C25.8357 20.6145 25.9672 20.9921 25.9672 21.3856C25.9672 21.7792 25.8357 22.1567 25.6014 22.4355L24.5169 23.7222C24.2819 24 23.9636 24.156 23.6317 24.156C23.2999 24.156 22.9815 24 22.7465 23.7222L22.4205 23.3369C22.1385 23.5279 21.8466 23.6974 21.5465 23.8443C21.2482 23.9909 20.9423 24.1147 20.6307 24.2148V24.7633C20.6301 25.1565 20.4982 25.5334 20.2639 25.8116C20.0296 26.0898 19.712 26.2467 19.3805 26.2479H17.8464C17.5146 26.2471 17.1966 26.0905 16.962 25.8123C16.7274 25.534 16.5953 25.1568 16.5947 24.7633V24.2153C16.2827 24.1149 15.9764 23.991 15.6777 23.8443C15.6698 23.8408 15.6621 23.8367 15.6546 23.8322C15.364 23.6877 15.0813 23.5221 14.8079 23.3364L14.4807 23.7245C14.2457 24.0023 13.9274 24.1583 13.5955 24.1583C13.2637 24.1583 12.9454 24.0023 12.7103 23.7245L11.6258 22.4378C11.3915 22.1595 11.2599 21.7823 11.2599 21.389C11.2599 20.9957 11.3915 20.6185 11.6258 20.3403L11.953 19.9522C11.792 19.6188 11.6491 19.2737 11.5251 18.9188C11.4014 18.565 11.2969 18.2022 11.2124 17.8326H10.7503C10.4181 17.8326 10.0995 17.6763 9.86437 17.398C9.62927 17.1197 9.49688 16.7421 9.49628 16.3481V14.5273C9.49688 14.1333 9.62927 13.7557 9.86437 13.4774C10.0995 13.1991 10.4181 13.0427 10.7503 13.0427H11.2124C11.297 12.6734 11.4014 12.3107 11.5247 11.957C11.649 11.6022 11.7921 11.2571 11.953 10.9236L11.6258 10.5356C11.3915 10.2568 11.26 9.87927 11.26 9.4857C11.26 9.09212 11.3915 8.71459 11.6258 8.43582L12.7103 7.14956C12.9454 6.87173 13.2637 6.71573 13.5955 6.71573C13.9274 6.71573 14.2457 6.87173 14.4807 7.14956L14.8079 7.5376C15.3692 7.15555 15.9694 6.86035 16.5939 6.65922V6.11073C16.5945 5.71722 16.7266 5.34003 16.9612 5.06178C17.1958 4.78352 17.5138 4.62688 17.8456 4.62617L17.8464 4.62437ZM21.7984 11.6591C22.5349 12.5328 22.9933 13.6823 23.0953 14.9118C23.1974 16.1414 22.9368 17.3748 22.3581 18.402C21.7793 19.4293 20.9181 20.1867 19.9212 20.5453C18.9244 20.9039 17.8536 20.8414 16.8912 20.3686C15.9288 19.8958 15.1344 19.0418 14.6434 17.9522C14.1523 16.8626 13.995 15.6048 14.1983 14.3931C14.4015 13.1814 14.9527 12.0907 15.758 11.3069C16.5632 10.5232 17.5727 10.0948 18.6144 10.0948C19.2058 10.0939 19.7916 10.2316 20.338 10.5001C20.8844 10.7685 21.3807 11.1624 21.7984 11.6591ZM18.6144 9.01495C19.867 9.01478 21.081 9.52975 22.0494 10.4721C23.0177 11.4145 23.6807 12.726 23.9251 14.183C24.1696 15.6401 23.9806 17.1527 23.3901 18.463C22.7997 19.7732 21.8445 20.8002 20.6872 21.3688C19.53 21.9374 18.2423 22.0125 17.0435 21.5813C15.8448 21.1501 14.8093 20.2392 14.1133 19.004C13.4174 17.7687 13.1041 16.2855 13.2269 14.8069C13.3496 13.3284 13.9009 11.9462 14.7866 10.8957C15.2887 10.2985 15.8854 9.82499 16.5422 9.50223C17.1991 9.17947 17.9033 9.01388 18.6144 9.01495ZM17.0324 16.4387C17.1179 16.5279 17.1721 16.6519 17.1844 16.7861C17.1966 16.9204 17.1661 17.0553 17.0988 17.1642C17.0315 17.2731 16.9323 17.3482 16.8206 17.3748C16.709 17.4013 16.593 17.3773 16.4955 17.3076L14.8471 15.8713C14.7502 15.7865 14.6856 15.6597 14.6672 15.5187C14.6488 15.3776 14.6783 15.2336 14.749 15.1182C14.7785 15.0708 14.8142 15.0293 14.8547 14.9951L16.4955 13.566C16.593 13.4962 16.709 13.4723 16.8206 13.4988C16.9323 13.5254 17.0315 13.6005 17.0988 13.7094C17.1661 13.8183 17.1966 13.9532 17.1844 14.0874C17.1721 14.2217 17.1179 14.3456 17.0324 14.4349L15.8845 15.4372L17.0343 16.4387H17.0324ZM20.7317 17.3076C20.6342 17.3773 20.5183 17.4013 20.4066 17.3748C20.295 17.3482 20.1957 17.2731 20.1284 17.1642C20.0611 17.0553 20.0306 16.9204 20.0429 16.7861C20.0552 16.6519 20.1094 16.5279 20.1948 16.4387L21.3447 15.4372L20.1948 14.4354C20.1094 14.3461 20.0552 14.2221 20.0429 14.0879C20.0306 13.9536 20.0611 13.8188 20.1284 13.7098C20.1957 13.6009 20.295 13.5258 20.4066 13.4993C20.5183 13.4727 20.6342 13.4967 20.7317 13.5664L22.3722 14.9956C22.4129 15.0296 22.4487 15.0711 22.4782 15.1186C22.549 15.2341 22.5784 15.378 22.56 15.5191C22.5417 15.6602 22.477 15.7869 22.3802 15.8717L20.7317 17.3076ZM18.1705 18.0345C18.1234 18.166 18.0341 18.2699 17.9224 18.3233C17.8106 18.3767 17.6856 18.3753 17.5747 18.3194C17.4638 18.2634 17.3763 18.1576 17.3312 18.025C17.2862 17.8925 17.2874 17.7442 17.3345 17.6127L19.0563 12.8386C19.1035 12.7071 19.1928 12.6032 19.3045 12.5498C19.4162 12.4964 19.5413 12.4978 19.6522 12.5537C19.763 12.6097 19.8506 12.7156 19.8956 12.8481C19.9407 12.9806 19.9395 13.1289 19.8923 13.2604L18.1705 18.0345ZM31.2479 21.3859C31.8652 21.7422 32.3861 22.2964 32.7516 22.9857C33.1172 23.675 33.3127 24.4718 33.3162 25.2861C33.3182 26.0952 33.1316 26.8893 32.777 27.5805C32.7375 27.657 32.7177 27.7454 32.72 27.835C32.7223 27.9246 32.7466 28.0114 32.7899 28.0849L34.5238 31.4042C34.5341 31.4284 34.5462 31.4515 34.5599 31.4731L35.1125 32.5309L32.6558 34.3363L31.0563 31.2748C31.0461 31.2505 31.034 31.2272 31.0202 31.2054L30.3245 29.8696C30.2866 29.7969 30.2325 29.7381 30.1682 29.6997C30.1039 29.6614 30.0318 29.645 29.96 29.6523C29.2806 29.7221 28.5981 29.5674 27.9882 29.2053C27.3761 28.8398 26.8622 28.2789 26.5044 27.5858C26.1465 26.8926 25.959 26.0948 25.9628 25.282C25.9662 24.7187 26.0611 24.1613 26.2425 23.6406L27.7557 26.5372C27.7887 26.6007 27.8343 26.6537 27.8884 26.6917C27.9426 26.7297 28.0037 26.7515 28.0665 26.7553L30.1922 26.8865C30.2755 26.8915 30.358 26.8646 30.4274 26.8099C30.4968 26.7551 30.5496 26.6753 30.5779 26.5823L31.4139 24.2923C31.4388 24.2243 31.4495 24.1502 31.445 24.0763C31.4405 24.0024 31.421 23.9308 31.3881 23.8678L29.8681 20.9559C30.3476 20.9919 30.8166 21.1383 31.249 21.3868L31.2479 21.3859ZM30.0087 31.0197L29.7841 30.5893C29.0012 30.619 28.2256 30.4035 27.5353 29.9645C26.845 29.5256 26.2643 28.8787 25.8519 28.0889C25.7903 27.9714 25.7332 27.8521 25.6805 27.7311H2.74482V31.0211L30.0087 31.0197ZM35.2626 31.068L35.9785 32.4376C36.0053 32.4891 36.0233 32.5464 36.0315 32.6062C36.0396 32.6659 36.0378 32.727 36.026 32.786C36.0143 32.8449 35.9929 32.9005 35.963 32.9496C35.9331 32.9987 35.8954 33.0403 35.8519 33.0722L32.7359 35.363C32.6925 35.3948 32.6442 35.4162 32.5938 35.4258C32.5434 35.4355 32.4919 35.4333 32.4422 35.4194C32.3925 35.4055 32.3456 35.38 32.3042 35.3446C32.2628 35.3092 32.2277 35.2644 32.2009 35.2129L30.4939 31.9454H21.7813V34.2822H26.1334C26.5693 34.2822 26.9874 34.4876 27.2956 34.8532C27.6038 35.2187 27.7769 35.7145 27.7769 36.2315C27.7769 36.7484 27.6038 37.2442 27.2956 37.6098C26.9874 37.9753 26.5693 38.1807 26.1334 38.1807H11.0938C10.6579 38.1807 10.2399 37.9753 9.93167 37.6098C9.62345 37.2442 9.4503 36.7484 9.4503 36.2315C9.4503 35.7145 9.62345 35.2187 9.93167 34.8532C10.2399 34.4876 10.6579 34.2822 11.0938 34.2822H15.4459V31.9454H2.4222C2.30138 31.9451 2.18562 31.8879 2.10034 31.7863C2.05785 31.7362 2.0241 31.6767 2.00101 31.6111C1.97793 31.5456 1.96597 31.4752 1.96582 31.4042V3.20696C1.96623 3.0636 2.01461 2.92629 2.10034 2.82522C2.18556 2.72355 2.30133 2.66617 2.4222 2.66568H34.8047C34.9261 2.66532 35.0427 2.7221 35.1289 2.82357C35.2151 2.92504 35.2639 3.06292 35.2645 3.20696V31.068H35.2626ZM33.5974 27.7329C33.586 27.7599 33.5738 27.787 33.5617 27.8135L34.4824 29.5757V27.7311L33.5974 27.7329ZM29.137 20.0559C29.0718 20.0645 29.0095 20.0925 28.9559 20.1374C28.9023 20.1822 28.8591 20.2424 28.8304 20.3123C28.8017 20.3822 28.7883 20.4596 28.7915 20.5373C28.7948 20.615 28.8145 20.6905 28.8489 20.7567L30.6201 24.1468L29.9612 25.9468L28.3074 25.8449L26.5427 22.467C26.5121 22.4078 26.4703 22.3577 26.4207 22.3206C26.3777 22.288 26.3297 22.2658 26.2795 22.2552C26.2292 22.2446 26.1777 22.2459 26.1279 22.259C26.078 22.2721 26.0309 22.2966 25.989 22.3313C25.9472 22.366 25.9116 22.4101 25.8842 22.4612C25.4322 23.3029 25.1894 24.2787 25.1838 25.2766C25.1807 25.7939 25.242 26.3089 25.3658 26.8049H2.74482V3.59139H34.4824V26.8054H33.9105C34.1191 25.9688 34.1499 25.084 34 24.2299C33.8501 23.3758 33.5243 22.579 33.0516 21.9107C32.5789 21.2423 31.974 20.7231 31.2909 20.3995C30.6079 20.0758 29.8679 19.9578 29.137 20.0559Z" fill="black" fill-opacity="0.6"/>
</g>
<defs>
<clipPath id="clip0_807_365">
<rect width="38" height="38" fill="white"/>
</clipPath>
</defs>
</svg>
