<svg width="38" height="38" viewBox="0 0 38 38" fill="none" xmlns="http://www.w3.org/2000/svg">
<g clip-path="url(#clip0_807_364)">
<path d="M34.4375 13.9333H30.3531C29.4625 12.2176 29.4625 10.5823 30.3531 8.86666H34.4375C34.4456 8.86666 34.4549 8.86666 34.4607 8.86666C35.1171 8.86666 35.6482 8.30012 35.6482 7.59999C35.6482 7.36373 35.5879 7.14107 35.4812 6.95181C34.5453 4.29849 32.1692 2.53333 29.4706 2.53333C29.321 2.53333 28.5835 2.54198 28.4153 2.55435C25.6391 2.76588 24.0214 4.61887 22.922 6.20963C22.3213 7.08046 21.3576 7.59999 20.3417 7.59999H5.9375C3.97302 7.59999 2.375 9.30455 2.375 11.4C2.375 12.8656 3.16524 14.1253 4.3073 14.759C5.09232 13.9184 6.00295 13.215 7.00077 12.6667H5.9375C5.28229 12.6667 4.75 12.0989 4.75 11.4C4.75 10.7011 5.28229 10.1333 5.9375 10.1333H20.3417C22.1091 10.1333 23.7894 9.22786 24.8343 7.71132C26.0659 5.93007 27.1165 5.19283 28.58 5.0815C28.7331 5.07161 29.3454 5.06666 29.495 5.06666C30.5932 5.06666 31.6114 5.54042 32.3501 6.33333H29.6875C29.2909 6.33333 28.9198 6.54485 28.6995 6.89739C26.8591 9.84264 26.8591 12.9573 28.6995 15.9026C28.9198 16.2551 29.2909 16.4667 29.6875 16.4667H32.3501C31.6114 17.2596 30.5932 17.7333 29.495 17.7333H29.4706C29.3454 17.7333 28.7331 17.7284 28.5847 17.7197C27.1165 17.6072 26.0659 16.8699 24.8343 15.0887C23.7871 13.5721 22.1079 12.6667 20.3417 12.6667H16.7492C17.9141 13.3068 18.9508 14.169 19.8186 15.2H20.3417C21.3564 15.2 22.3213 15.7195 22.9232 16.5904C24.0214 18.1811 25.6391 20.0341 28.4188 20.2469C28.5835 20.258 29.321 20.2667 29.4706 20.2667H29.495C32.2527 20.2667 34.6915 18.3914 35.5635 15.6008C35.6853 15.2148 35.6238 14.7893 35.4012 14.459C35.1774 14.1288 34.819 13.9333 34.4375 13.9333Z" fill="black" fill-opacity="0.6"/>
<path d="M22.2146 29.5044C21.7507 29.0096 20.9993 29.0096 20.5354 29.5044L20.1875 29.8755L19.3701 29.0036C20.6217 27.2871 21.375 25.1378 21.375 22.8C21.375 17.2126 17.1132 12.6667 11.875 12.6667C6.63678 12.6667 2.375 17.2126 2.375 22.8C2.375 28.3874 6.63678 32.9333 11.875 32.9333C14.0667 32.9333 16.0817 32.1298 17.6909 30.7947L18.5083 31.6667L18.1604 32.0378C17.6965 32.5325 17.6965 33.3341 18.1604 33.8289L21.2312 37.1044C21.7728 37.6821 22.4918 38 23.2583 38C24.0237 38 24.7427 37.6821 25.2866 37.1032C26.4022 35.9107 26.4022 33.9711 25.2854 32.7799L22.2146 29.5044ZM4.75 22.8C4.75 18.6091 7.94604 15.2 11.875 15.2C15.804 15.2 19 18.6091 19 22.8C19 26.9909 15.804 30.4 11.875 30.4C7.94604 30.4 4.75 26.9909 4.75 22.8ZM23.6074 35.312C23.3522 35.5829 23.1586 35.578 22.9104 35.3133L20.6792 32.9333L21.375 32.1911L23.6062 34.5711C23.7975 34.7752 23.7975 35.1092 23.6074 35.312Z" fill="black" fill-opacity="0.6"/>
<path d="M15.4371 19H13.0621C12.4058 19 11.8746 19.5665 11.8746 20.2667C11.8746 20.8119 12.2004 21.2666 12.653 21.4453L10.6871 23.5422L9.15172 21.9044C8.68785 21.4096 7.93639 21.4096 7.47252 21.9044L6.00098 23.4741C6.09926 24.4473 6.38932 25.3549 6.85449 26.146L8.31212 24.5911L9.84752 26.2289C10.3114 26.7237 11.0629 26.7237 11.5267 26.2289L14.3322 23.2364C14.4997 23.7192 14.9259 24.0667 15.4371 24.0667C16.0935 24.0667 16.6246 23.5001 16.6246 22.8V20.2667C16.6246 19.5665 16.0935 19 15.4371 19Z" fill="black" fill-opacity="0.6"/>
</g>
<defs>
<clipPath id="clip0_807_364">
<rect width="38" height="38" fill="white"/>
</clipPath>
</defs>
</svg>
