<svg width="39" height="38" viewBox="0 0 39 38" fill="none" xmlns="http://www.w3.org/2000/svg">
<path d="M21.1407 3.90613H16.3791C16.1143 3.90613 15.8955 4.11848 15.8955 4.37554C15.8955 4.6326 16.1143 4.84495 16.3791 4.84495H21.1407C21.4055 4.84495 21.6243 4.6326 21.6243 4.37554C21.6243 4.11848 21.4055 3.90613 21.1407 3.90613Z" fill="white" fill-opacity="0.6"/>
<path d="M34.8782 8.81259H30.2433V6.89582C30.2433 6.89023 30.2491 6.88465 30.2491 6.87906C30.2491 6.87347 30.2433 6.86788 30.2433 6.86229V4.54876C30.2433 2.81641 28.7924 1.40259 27.0076 1.40259H10.5179C8.73303 1.40259 7.28212 2.81082 7.28212 4.54876V6.86788C7.28212 6.87347 7.27637 6.87906 7.27637 6.88465C7.27637 6.89023 7.28212 6.89582 7.28212 6.90141V8.71759C7.28212 8.97465 7.50091 9.187 7.76576 9.187C8.03061 9.187 8.2494 8.97465 8.2494 8.71759V7.35406H29.2703V8.81818H20.4842C19.1024 8.81818 17.9797 9.90788 17.9797 11.2491V25.2252C17.9797 26.5664 19.1024 27.6561 20.4842 27.6561H29.2703V28.9973H8.25515V24.9626C8.25515 24.7055 8.03637 24.4932 7.77152 24.4932C7.50667 24.4932 7.28788 24.7055 7.28788 24.9626V29.4499C7.28788 29.4555 7.28212 29.4611 7.28212 29.4667C7.28212 29.4723 7.28788 29.4779 7.28788 29.4835V32.3446C7.28788 34.077 8.73879 35.4852 10.5236 35.4852H27.0133C27.2149 35.4852 27.3933 35.4685 27.5546 35.4405L27.4624 34.9823L27.6409 35.4294C27.7503 35.4126 27.8482 35.3846 27.9461 35.3567C28.5391 35.1891 29.063 34.8538 29.443 34.4235C29.4949 34.3676 29.5467 34.3173 29.5985 34.2446C29.6849 34.1329 29.7655 34.0155 29.8518 33.8591C29.8806 33.8088 29.9036 33.7641 29.9209 33.7361C30.0188 33.5461 30.0994 33.3282 30.1685 33.0711C30.1858 32.9817 30.203 32.8923 30.2145 32.7973C30.2145 32.7917 30.2145 32.7917 30.2145 32.7861C30.2261 32.7191 30.2376 32.6464 30.2376 32.5738C30.2433 32.5346 30.2433 32.5067 30.2433 32.4788C30.2433 32.4676 30.2433 32.4564 30.2433 32.4396V29.517C30.2433 29.5002 30.2549 29.4891 30.2549 29.4723C30.2549 29.4555 30.2491 29.4444 30.2433 29.4276V27.6617H34.8839C36.2658 27.6617 37.3885 26.572 37.3885 25.2308V11.2435C37.3827 9.90229 36.26 8.81259 34.8782 8.81259ZM8.2494 6.40965V4.54876C8.2494 3.33053 9.26849 2.34141 10.5179 2.34141H27.0076C28.257 2.34141 29.2761 3.33053 29.2761 4.54876V6.41523H8.2494V6.40965ZM29.2645 32.4396C29.2588 32.462 29.2588 32.4844 29.2588 32.5123C29.2588 32.557 29.253 32.6017 29.2415 32.6464C29.2415 32.6576 29.2358 32.6688 29.2358 32.6855C29.23 32.747 29.2185 32.8085 29.207 32.8532C29.1609 33.0264 29.1033 33.1773 29.0285 33.3282C29.0227 33.3449 29.0112 33.3673 28.9997 33.3841C28.9939 33.3896 28.9709 33.4344 28.9709 33.4399C28.9191 33.5294 28.8615 33.6076 28.8097 33.6802C28.7924 33.7026 28.7694 33.7249 28.7233 33.7752C28.447 34.0938 28.0785 34.3285 27.6582 34.4458C27.5891 34.4682 27.5258 34.4849 27.4567 34.4961L27.3645 34.5129C27.2609 34.5296 27.14 34.5408 27.0018 34.5408H10.5179C9.26849 34.5408 8.2494 33.5517 8.2494 32.3391V29.9305H29.2645V32.4285C29.2645 32.4341 29.2645 32.4396 29.2645 32.4396ZM36.4155 25.2196C36.4155 26.0411 35.7245 26.7117 34.8782 26.7117H29.7655C29.7597 26.7117 29.7597 26.7117 29.7539 26.7117C29.7482 26.7117 29.7482 26.7117 29.7424 26.7117H20.4842C19.6379 26.7117 18.947 26.0411 18.947 25.2196V11.2435C18.947 10.422 19.6379 9.75141 20.4842 9.75141H34.8782C35.7245 9.75141 36.4155 10.422 36.4155 11.2435V25.2196Z" fill="white" fill-opacity="0.6"/>
<path d="M34.5153 11.1262H20.8411C20.5762 11.1262 20.3574 11.3386 20.3574 11.5956V14.9933C20.3574 15.2503 20.5762 15.4627 20.8411 15.4627H34.5153C34.7801 15.4627 34.9989 15.2503 34.9989 14.9933V11.5956C34.9989 11.3386 34.7801 11.1262 34.5153 11.1262ZM34.0317 14.5239H21.3247V12.065H34.0317V14.5239Z" fill="white" fill-opacity="0.6"/>
<path d="M34.5158 16.4629H29.76C29.4952 16.4629 29.2764 16.6752 29.2764 16.9323V20.33C29.2764 20.587 29.4952 20.7994 29.76 20.7994H34.5158C34.7806 20.7994 34.9994 20.587 34.9994 20.33V16.9323C34.9994 16.6752 34.7806 16.4629 34.5158 16.4629ZM34.0321 19.8605H30.2436V17.4017H34.0321V19.8605Z" fill="white" fill-opacity="0.6"/>
<path d="M25.5968 16.4629H20.8411C20.5762 16.4629 20.3574 16.6752 20.3574 16.9323V20.33C20.3574 20.587 20.5762 20.7994 20.8411 20.7994H25.5968C25.8617 20.7994 26.0805 20.587 26.0805 20.33V16.9323C26.0805 16.6752 25.8617 16.4629 25.5968 16.4629ZM25.1132 19.8605H21.3247V17.4017H25.1132V19.8605Z" fill="white" fill-opacity="0.6"/>
<path d="M8.31318 20.0171C10.075 19.9947 11.4971 18.5809 11.4798 16.8709C11.4568 15.1721 10.0232 13.803 8.27288 13.803C8.26136 13.803 8.24985 13.803 8.23833 13.803C6.47076 13.8253 5.0544 15.2336 5.07743 16.9436C5.08894 17.7762 5.42864 18.553 6.0447 19.1342C6.64924 19.7042 7.43803 20.0171 8.27864 20.0171C8.2844 20.0171 8.29591 20.0171 8.31318 20.0171ZM6.03894 16.9324C6.02167 15.7365 7.01197 14.753 8.24409 14.7418C8.24985 14.7418 8.26136 14.7418 8.26712 14.7418C9.48773 14.7418 10.4895 15.6974 10.5068 16.8821C10.5183 18.078 9.52803 19.0615 8.29591 19.0783C7.70288 19.0894 7.13864 18.8659 6.71258 18.458C6.28652 18.0556 6.0447 17.5136 6.03894 16.9324Z" fill="white" fill-opacity="0.6"/>
<path d="M7.88736 23.2918L8.81433 23.2806C9.31524 23.275 9.75858 22.9453 9.89676 22.4759L10.0925 21.7941C10.3055 21.7215 10.5128 21.6377 10.7143 21.5371L11.3592 21.8724C11.8025 22.1015 12.3552 22.0177 12.7065 21.6656L13.3571 21.0174C13.7083 20.6709 13.7774 20.1288 13.5355 19.7041L13.1786 19.0838C13.2707 18.8994 13.3455 18.7094 13.4146 18.5138C13.4204 18.5027 13.4204 18.4915 13.4262 18.4803L14.1286 18.268C14.6065 18.1227 14.9346 17.6868 14.9289 17.2006L14.9174 16.3009C14.9116 15.8147 14.5719 15.3844 14.0883 15.2503L13.3801 15.0547C13.3743 15.0324 13.3628 15.01 13.3571 14.9877C13.288 14.8033 13.2074 14.6244 13.1152 14.4456L13.4549 13.8197C13.691 13.3894 13.6046 12.853 13.2477 12.5121L12.5913 11.9085C12.2343 11.5677 11.6758 11.495 11.2383 11.7353L10.5762 12.0985L9.98312 11.8694L9.76433 11.1709C9.62039 10.7071 9.1713 10.3941 8.66464 10.3885L7.73767 10.3997C7.23676 10.4053 6.79342 10.735 6.65524 11.1988L6.45373 11.8862C6.2407 11.9588 6.03342 12.0483 5.83767 12.1433L5.19858 11.808C4.75524 11.5788 4.19676 11.6627 3.84555 12.0091L3.2007 12.6518C2.84949 12.9983 2.78039 13.5403 3.02797 13.965L3.37918 14.5741C3.27555 14.7753 3.19494 14.9821 3.12585 15.1833L2.42342 15.3956C1.94555 15.5409 1.61736 15.9768 1.62312 16.463L1.63464 17.3627C1.64039 17.8488 1.98009 18.2791 2.45797 18.4077L3.16615 18.6033C3.241 18.81 3.33312 19.0112 3.431 19.2068L3.0913 19.8271C2.85524 20.2574 2.94161 20.7938 3.29858 21.1347L3.95494 21.7662C4.31191 22.1071 4.87039 22.1797 5.30221 21.9394L5.9413 21.593C6.14282 21.688 6.35009 21.7662 6.56312 21.8388L6.77615 22.515C6.92009 22.9733 7.36918 23.2918 7.86433 23.2918C7.87585 23.2918 7.88161 23.2918 7.88736 23.2918ZM7.70888 22.2412L7.421 21.3247C7.37494 21.1738 7.24827 21.0565 7.08706 21.0118C6.76464 20.9224 6.45373 20.7994 6.16585 20.6486C6.09676 20.6094 6.01615 20.5927 5.93555 20.5927C5.85494 20.5927 5.77433 20.615 5.69948 20.6541L4.83585 21.1235C4.77252 21.1571 4.68615 21.1459 4.63433 21.0956L3.97221 20.4697C3.92039 20.4194 3.90312 20.3356 3.94342 20.2741L4.40403 19.4303C4.47888 19.2906 4.47888 19.1174 4.39827 18.9777C4.2313 18.6983 4.09888 18.3965 4.001 18.0835C3.95494 17.9271 3.82827 17.8097 3.67282 17.7706L2.72282 17.508C2.64797 17.4856 2.60191 17.4241 2.59615 17.3515L2.58464 16.4518C2.58464 16.3791 2.6307 16.3121 2.70555 16.2897L3.64979 16.0047C3.80524 15.96 3.93191 15.8371 3.97221 15.6806C4.05282 15.3844 4.17948 15.0938 4.34645 14.7865C4.42706 14.6468 4.4213 14.4735 4.3407 14.3338L3.85706 13.5012C3.82252 13.4397 3.82827 13.3559 3.88585 13.3056L4.5307 12.663C4.58252 12.6127 4.66888 12.5959 4.73221 12.635L5.60161 13.0877C5.74555 13.1659 5.92403 13.1603 6.06797 13.0821C6.35585 12.92 6.661 12.7971 6.98342 12.6965C7.13888 12.6518 7.25979 12.5288 7.30585 12.378L7.58221 11.4503C7.60524 11.3833 7.66858 11.333 7.74342 11.333L8.67039 11.3218C8.74524 11.3218 8.81433 11.3665 8.83736 11.4391L9.12524 12.3556C9.16555 12.4897 9.26918 12.6015 9.40736 12.6518L10.4322 13.0485C10.5704 13.0988 10.7201 13.0933 10.8468 13.0206L11.7104 12.5512C11.7737 12.5121 11.8601 12.5233 11.9119 12.5791L12.574 13.2106C12.6258 13.2609 12.6374 13.3447 12.6028 13.4062L12.1365 14.25C12.0558 14.3897 12.0616 14.563 12.1422 14.7027C12.2631 14.9038 12.361 15.1162 12.4416 15.323C12.4704 15.4124 12.5049 15.5018 12.5337 15.5912C12.5798 15.7421 12.7065 15.865 12.8619 15.9041L13.8177 16.1668C13.8925 16.1891 13.9386 16.2506 13.9443 16.3233L13.9558 17.223C13.9558 17.2956 13.9098 17.3627 13.8349 17.385L12.8907 17.6644C12.8677 17.67 12.8446 17.6812 12.8274 17.6868C12.7007 17.7427 12.6028 17.8544 12.5625 17.9885C12.5395 18.0668 12.5165 18.1394 12.4934 18.2121C12.4128 18.4412 12.3149 18.6647 12.194 18.8827C12.1192 19.0224 12.1192 19.19 12.1998 19.3297L12.6834 20.1624C12.718 20.2238 12.7065 20.3077 12.6546 20.358L12.0155 21.0118C11.9637 21.0621 11.8774 21.0788 11.814 21.0397L10.9389 20.5871C10.7949 20.5144 10.6165 20.5144 10.4725 20.5927C10.1789 20.7547 9.87373 20.8777 9.56282 20.9727C9.40161 21.0174 9.2807 21.1403 9.23464 21.2968L8.96403 22.2244C8.941 22.2971 8.87767 22.3418 8.80282 22.3474L7.87585 22.353C7.78373 22.353 7.73191 22.3083 7.70888 22.2412Z" fill="white" fill-opacity="0.6"/>
<path d="M25.5968 21.8835H20.8411C20.5762 21.8835 20.3574 22.0959 20.3574 22.353C20.3574 22.61 20.5762 22.8224 20.8411 22.8224H25.5968C25.8617 22.8224 26.0805 22.61 26.0805 22.353C26.0805 22.0903 25.8617 21.8835 25.5968 21.8835Z" fill="white" fill-opacity="0.6"/>
<path d="M24.0596 23.9121H20.8469C20.5821 23.9121 20.3633 24.1245 20.3633 24.3815C20.3633 24.6386 20.5821 24.8509 20.8469 24.8509H24.0596C24.3245 24.8509 24.5433 24.6386 24.5433 24.3815C24.5375 24.1189 24.3245 23.9121 24.0596 23.9121Z" fill="white" fill-opacity="0.6"/>
<path d="M34.5158 21.8835H29.76C29.4952 21.8835 29.2764 22.0959 29.2764 22.353C29.2764 22.61 29.4952 22.8224 29.76 22.8224H34.5158C34.7806 22.8224 34.9994 22.61 34.9994 22.353C34.9994 22.0903 34.7806 21.8835 34.5158 21.8835Z" fill="white" fill-opacity="0.6"/>
<path d="M32.9727 23.9121H29.76C29.4952 23.9121 29.2764 24.1245 29.2764 24.3815C29.2764 24.6386 29.4952 24.8509 29.76 24.8509H32.9727C33.2376 24.8509 33.4564 24.6386 33.4564 24.3815C33.4564 24.1189 33.2433 23.9121 32.9727 23.9121Z" fill="white" fill-opacity="0.6"/>
<path d="M18.7629 30.6962C17.8878 30.6962 17.1738 31.3891 17.1738 32.2385C17.1738 33.0879 17.8878 33.7809 18.7629 33.7809C19.6381 33.7809 20.352 33.0879 20.352 32.2385C20.352 31.3891 19.6381 30.6962 18.7629 30.6962ZM18.7629 32.842C18.4232 32.842 18.1411 32.5738 18.1411 32.2385C18.1411 31.9032 18.4175 31.635 18.7629 31.635C19.1084 31.635 19.3847 31.9032 19.3847 32.2385C19.3847 32.5682 19.1026 32.842 18.7629 32.842Z" fill="white" fill-opacity="0.6"/>
</svg>
