<svg width="38" height="38" viewBox="0 0 38 38" fill="none" xmlns="http://www.w3.org/2000/svg">
<path d="M20.6407 3.90619H15.8791C15.6143 3.90619 15.3955 4.11854 15.3955 4.3756C15.3955 4.63266 15.6143 4.84501 15.8791 4.84501H20.6407C20.9055 4.84501 21.1243 4.63266 21.1243 4.3756C21.1243 4.11854 20.9055 3.90619 20.6407 3.90619Z" fill="black" fill-opacity="0.6"/>
<path d="M34.3782 8.81265H29.7433V6.89588C29.7433 6.8903 29.7491 6.88471 29.7491 6.87912C29.7491 6.87353 29.7433 6.86794 29.7433 6.86235V4.54883C29.7433 2.81647 28.2924 1.40265 26.5076 1.40265H10.0179C8.23303 1.40265 6.78212 2.81088 6.78212 4.54883V6.86794C6.78212 6.87353 6.77637 6.87912 6.77637 6.88471C6.77637 6.8903 6.78212 6.89588 6.78212 6.90147V8.71765C6.78212 8.97471 7.00091 9.18706 7.26576 9.18706C7.53061 9.18706 7.7494 8.97471 7.7494 8.71765V7.35412H28.7703V8.81824H19.9842C18.6024 8.81824 17.4797 9.90794 17.4797 11.2491V25.2253C17.4797 26.5665 18.6024 27.6562 19.9842 27.6562H28.7703V28.9974H7.75515V24.9626C7.75515 24.7056 7.53637 24.4932 7.27152 24.4932C7.00667 24.4932 6.78788 24.7056 6.78788 24.9626V29.45C6.78788 29.4556 6.78212 29.4612 6.78212 29.4668C6.78212 29.4724 6.78788 29.4779 6.78788 29.4835V32.3447C6.78788 34.0771 8.23879 35.4853 10.0236 35.4853H26.5133C26.7149 35.4853 26.8933 35.4685 27.0546 35.4406L26.9624 34.9824L27.1409 35.4294C27.2503 35.4127 27.3482 35.3847 27.4461 35.3568C28.0391 35.1891 28.563 34.8538 28.943 34.4235C28.9949 34.3676 29.0467 34.3174 29.0985 34.2447C29.1849 34.1329 29.2655 34.0156 29.3518 33.8591C29.3806 33.8088 29.4036 33.7641 29.4209 33.7362C29.5188 33.5462 29.5994 33.3282 29.6685 33.0712C29.6858 32.9818 29.703 32.8924 29.7145 32.7974C29.7145 32.7918 29.7145 32.7918 29.7145 32.7862C29.7261 32.7191 29.7376 32.6465 29.7376 32.5738C29.7433 32.5347 29.7433 32.5068 29.7433 32.4788C29.7433 32.4676 29.7433 32.4565 29.7433 32.4397V29.5171C29.7433 29.5003 29.7549 29.4891 29.7549 29.4724C29.7549 29.4556 29.7491 29.4444 29.7433 29.4277V27.6618H34.3839C35.7658 27.6618 36.8885 26.5721 36.8885 25.2309V11.2435C36.8827 9.90236 35.76 8.81265 34.3782 8.81265ZM7.7494 6.40971V4.54883C7.7494 3.33059 8.76849 2.34147 10.0179 2.34147H26.5076C27.757 2.34147 28.7761 3.33059 28.7761 4.54883V6.4153H7.7494V6.40971ZM28.7645 32.4397C28.7588 32.4621 28.7588 32.4844 28.7588 32.5124C28.7588 32.5571 28.753 32.6018 28.7415 32.6465C28.7415 32.6576 28.7358 32.6688 28.7358 32.6856C28.73 32.7471 28.7185 32.8085 28.707 32.8532C28.6609 33.0265 28.6033 33.1774 28.5285 33.3282C28.5227 33.345 28.5112 33.3674 28.4997 33.3841C28.4939 33.3897 28.4709 33.4344 28.4709 33.44C28.4191 33.5294 28.3615 33.6077 28.3097 33.6803C28.2924 33.7026 28.2694 33.725 28.2233 33.7753C27.947 34.0938 27.5785 34.3285 27.1582 34.4459C27.0891 34.4682 27.0258 34.485 26.9567 34.4962L26.8645 34.5129C26.7609 34.5297 26.64 34.5409 26.5018 34.5409H10.0179C8.76849 34.5409 7.7494 33.5518 7.7494 32.3391V29.9306H28.7645V32.4285C28.7645 32.4341 28.7645 32.4397 28.7645 32.4397ZM35.9155 25.2197C35.9155 26.0412 35.2245 26.7118 34.3782 26.7118H29.2655C29.2597 26.7118 29.2597 26.7118 29.2539 26.7118C29.2482 26.7118 29.2482 26.7118 29.2424 26.7118H19.9842C19.1379 26.7118 18.447 26.0412 18.447 25.2197V11.2435C18.447 10.4221 19.1379 9.75147 19.9842 9.75147H34.3782C35.2245 9.75147 35.9155 10.4221 35.9155 11.2435V25.2197Z" fill="black" fill-opacity="0.6"/>
<path d="M34.0153 11.1262H20.3411C20.0762 11.1262 19.8574 11.3385 19.8574 11.5956V14.9932C19.8574 15.2503 20.0762 15.4626 20.3411 15.4626H34.0153C34.2801 15.4626 34.4989 15.2503 34.4989 14.9932V11.5956C34.4989 11.3385 34.2801 11.1262 34.0153 11.1262ZM33.5317 14.5238H20.8247V12.065H33.5317V14.5238Z" fill="black" fill-opacity="0.6"/>
<path d="M34.0158 16.463H29.26C28.9952 16.463 28.7764 16.6753 28.7764 16.9324V20.33C28.7764 20.5871 28.9952 20.7994 29.26 20.7994H34.0158C34.2806 20.7994 34.4994 20.5871 34.4994 20.33V16.9324C34.4994 16.6753 34.2806 16.463 34.0158 16.463ZM33.5321 19.8606H29.7436V17.4018H33.5321V19.8606Z" fill="black" fill-opacity="0.6"/>
<path d="M25.0968 16.463H20.3411C20.0762 16.463 19.8574 16.6753 19.8574 16.9324V20.33C19.8574 20.5871 20.0762 20.7994 20.3411 20.7994H25.0968C25.3617 20.7994 25.5805 20.5871 25.5805 20.33V16.9324C25.5805 16.6753 25.3617 16.463 25.0968 16.463ZM24.6132 19.8606H20.8247V17.4018H24.6132V19.8606Z" fill="black" fill-opacity="0.6"/>
<path d="M7.81318 20.017C9.575 19.9947 10.9971 18.5809 10.9798 16.8709C10.9568 15.172 9.52318 13.8029 7.77288 13.8029C7.76136 13.8029 7.74985 13.8029 7.73833 13.8029C5.97076 13.8253 4.5544 15.2335 4.57743 16.9435C4.58894 17.7762 4.92864 18.5529 5.5447 19.1341C6.14924 19.7041 6.93803 20.017 7.77864 20.017C7.7844 20.017 7.79591 20.017 7.81318 20.017ZM5.53894 16.9323C5.52167 15.7364 6.51197 14.7529 7.74409 14.7417C7.74985 14.7417 7.76136 14.7417 7.76712 14.7417C8.98773 14.7417 9.98955 15.6973 10.0068 16.882C10.0183 18.0779 9.02803 19.0614 7.79591 19.0782C7.20288 19.0894 6.63864 18.8659 6.21258 18.4579C5.78652 18.0556 5.5447 17.5135 5.53894 16.9323Z" fill="black" fill-opacity="0.6"/>
<path d="M7.38736 23.2918L8.31433 23.2806C8.81524 23.275 9.25858 22.9453 9.39676 22.4759L9.59251 21.7941C9.80555 21.7215 10.0128 21.6377 10.2143 21.5371L10.8592 21.8724C11.3025 22.1015 11.8552 22.0177 12.2065 21.6656L12.8571 21.0174C13.2083 20.6709 13.2774 20.1288 13.0355 19.7041L12.6786 19.0838C12.7707 18.8994 12.8455 18.7094 12.9146 18.5138C12.9204 18.5027 12.9204 18.4915 12.9262 18.4803L13.6286 18.268C14.1065 18.1227 14.4346 17.6868 14.4289 17.2006L14.4174 16.3009C14.4116 15.8147 14.0719 15.3844 13.5883 15.2503L12.8801 15.0547C12.8743 15.0324 12.8628 15.01 12.8571 14.9877C12.788 14.8033 12.7074 14.6244 12.6152 14.4456L12.9549 13.8197C13.191 13.3894 13.1046 12.853 12.7477 12.5121L12.0913 11.9085C11.7343 11.5677 11.1758 11.495 10.7383 11.7353L10.0762 12.0985L9.48312 11.8694L9.26433 11.1709C9.12039 10.7071 8.6713 10.3941 8.16464 10.3885L7.23767 10.3997C6.73676 10.4053 6.29342 10.735 6.15524 11.1988L5.95373 11.8862C5.7407 11.9588 5.53342 12.0483 5.33767 12.1433L4.69858 11.808C4.25524 11.5788 3.69676 11.6627 3.34555 12.0091L2.7007 12.6518C2.34949 12.9983 2.28039 13.5403 2.52797 13.965L2.87918 14.5741C2.77555 14.7753 2.69494 14.9821 2.62585 15.1833L1.92342 15.3956C1.44555 15.5409 1.11736 15.9768 1.12312 16.463L1.13464 17.3627C1.14039 17.8488 1.48009 18.2791 1.95797 18.4077L2.66615 18.6033C2.741 18.81 2.83312 19.0112 2.931 19.2068L2.5913 19.8271C2.35524 20.2574 2.44161 20.7938 2.79858 21.1347L3.45494 21.7662C3.81191 22.1071 4.37039 22.1797 4.80221 21.9394L5.4413 21.593C5.64282 21.688 5.85009 21.7662 6.06312 21.8388L6.27615 22.515C6.42009 22.9733 6.86918 23.2918 7.36433 23.2918C7.37585 23.2918 7.38161 23.2918 7.38736 23.2918ZM7.20888 22.2412L6.921 21.3247C6.87494 21.1738 6.74827 21.0565 6.58706 21.0118C6.26464 20.9224 5.95373 20.7994 5.66585 20.6486C5.59676 20.6094 5.51615 20.5927 5.43555 20.5927C5.35494 20.5927 5.27433 20.615 5.19948 20.6541L4.33585 21.1235C4.27252 21.1571 4.18615 21.1459 4.13433 21.0956L3.47221 20.4697C3.42039 20.4194 3.40312 20.3356 3.44342 20.2741L3.90403 19.4303C3.97888 19.2906 3.97888 19.1174 3.89827 18.9777C3.7313 18.6983 3.59888 18.3965 3.501 18.0835C3.45494 17.9271 3.32827 17.8097 3.17282 17.7706L2.22282 17.508C2.14797 17.4856 2.10191 17.4241 2.09615 17.3515L2.08464 16.4518C2.08464 16.3791 2.1307 16.3121 2.20555 16.2897L3.14979 16.0047C3.30524 15.96 3.43191 15.8371 3.47221 15.6806C3.55282 15.3844 3.67948 15.0938 3.84645 14.7865C3.92706 14.6468 3.9213 14.4735 3.8407 14.3338L3.35706 13.5012C3.32252 13.4397 3.32827 13.3559 3.38585 13.3056L4.0307 12.663C4.08252 12.6127 4.16888 12.5959 4.23221 12.635L5.10161 13.0877C5.24555 13.1659 5.42403 13.1603 5.56797 13.0821C5.85585 12.92 6.161 12.7971 6.48342 12.6965C6.63888 12.6518 6.75979 12.5288 6.80585 12.378L7.08221 11.4503C7.10524 11.3833 7.16858 11.333 7.24342 11.333L8.17039 11.3218C8.24524 11.3218 8.31433 11.3665 8.33736 11.4391L8.62524 12.3556C8.66555 12.4897 8.76918 12.6015 8.90736 12.6518L9.93221 13.0485C10.0704 13.0988 10.2201 13.0933 10.3468 13.0206L11.2104 12.5512C11.2737 12.5121 11.3601 12.5233 11.4119 12.5791L12.074 13.2106C12.1258 13.2609 12.1374 13.3447 12.1028 13.4062L11.6365 14.25C11.5558 14.3897 11.5616 14.563 11.6422 14.7027C11.7631 14.9038 11.861 15.1162 11.9416 15.323C11.9704 15.4124 12.0049 15.5018 12.0337 15.5912C12.0798 15.7421 12.2065 15.865 12.3619 15.9041L13.3177 16.1668C13.3925 16.1891 13.4386 16.2506 13.4443 16.3233L13.4558 17.223C13.4558 17.2956 13.4098 17.3627 13.3349 17.385L12.3907 17.6644C12.3677 17.67 12.3446 17.6812 12.3274 17.6868C12.2007 17.7427 12.1028 17.8544 12.0625 17.9885C12.0395 18.0668 12.0165 18.1394 11.9934 18.2121C11.9128 18.4412 11.8149 18.6647 11.694 18.8827C11.6192 19.0224 11.6192 19.19 11.6998 19.3297L12.1834 20.1624C12.218 20.2238 12.2065 20.3077 12.1546 20.358L11.5155 21.0118C11.4637 21.0621 11.3774 21.0788 11.314 21.0397L10.4389 20.5871C10.2949 20.5144 10.1165 20.5144 9.97252 20.5927C9.67888 20.7547 9.37373 20.8777 9.06282 20.9727C8.90161 21.0174 8.7807 21.1403 8.73464 21.2968L8.46403 22.2244C8.441 22.2971 8.37767 22.3418 8.30282 22.3474L7.37585 22.353C7.28373 22.353 7.23191 22.3083 7.20888 22.2412Z" fill="black" fill-opacity="0.6"/>
<path d="M25.0968 21.8835H20.3411C20.0762 21.8835 19.8574 22.0959 19.8574 22.353C19.8574 22.61 20.0762 22.8224 20.3411 22.8224H25.0968C25.3617 22.8224 25.5805 22.61 25.5805 22.353C25.5805 22.0903 25.3617 21.8835 25.0968 21.8835Z" fill="black" fill-opacity="0.6"/>
<path d="M23.5596 23.912H20.3469C20.0821 23.912 19.8633 24.1244 19.8633 24.3815C19.8633 24.6385 20.0821 24.8509 20.3469 24.8509H23.5596C23.8245 24.8509 24.0433 24.6385 24.0433 24.3815C24.0375 24.1188 23.8245 23.912 23.5596 23.912Z" fill="black" fill-opacity="0.6"/>
<path d="M34.0158 21.8835H29.26C28.9952 21.8835 28.7764 22.0959 28.7764 22.353C28.7764 22.61 28.9952 22.8224 29.26 22.8224H34.0158C34.2806 22.8224 34.4994 22.61 34.4994 22.353C34.4994 22.0903 34.2806 21.8835 34.0158 21.8835Z" fill="black" fill-opacity="0.6"/>
<path d="M32.4727 23.912H29.26C28.9952 23.912 28.7764 24.1244 28.7764 24.3815C28.7764 24.6385 28.9952 24.8509 29.26 24.8509H32.4727C32.7376 24.8509 32.9564 24.6385 32.9564 24.3815C32.9564 24.1188 32.7433 23.912 32.4727 23.912Z" fill="black" fill-opacity="0.6"/>
<path d="M18.2629 30.6962C17.3878 30.6962 16.6738 31.3891 16.6738 32.2385C16.6738 33.0879 17.3878 33.7809 18.2629 33.7809C19.1381 33.7809 19.852 33.0879 19.852 32.2385C19.852 31.3891 19.1381 30.6962 18.2629 30.6962ZM18.2629 32.842C17.9232 32.842 17.6411 32.5738 17.6411 32.2385C17.6411 31.9032 17.9175 31.635 18.2629 31.635C18.6084 31.635 18.8847 31.9032 18.8847 32.2385C18.8847 32.5682 18.6026 32.842 18.2629 32.842Z" fill="black" fill-opacity="0.6"/>
</svg>
