<svg width="39" height="39" viewBox="0 0 39 39" fill="none" xmlns="http://www.w3.org/2000/svg">
<path fill-rule="evenodd" clip-rule="evenodd" d="M28.1241 17.2169C26.3065 17.2169 25.3945 19.4658 26.6797 20.7784C26.9164 21.0202 26.9164 21.4123 26.6797 21.654L25.3743 22.9873C25.1376 23.229 24.7536 23.229 24.5169 22.9873C23.2316 21.6747 21.0296 22.6061 21.0296 24.4624C21.0296 24.8044 20.7581 25.0817 20.4232 25.0817H18.5774C18.2425 25.0817 17.971 24.8048 17.971 24.4624C17.971 22.604 15.7706 21.673 14.4837 22.9873C14.247 23.229 13.863 23.229 13.6263 22.9873L12.3209 21.654C12.0842 21.4123 12.0842 21.0202 12.3209 20.7784C13.6061 19.4658 12.6941 17.2169 10.8765 17.2169C10.5416 17.2169 10.2701 16.9396 10.2701 16.5976V14.7126C10.2701 14.3706 10.5412 14.0933 10.8765 14.0933C12.6941 14.0933 13.6061 11.8444 12.3209 10.5318C12.0842 10.29 12.0842 9.8979 12.3209 9.65615L13.6263 8.32292C13.863 8.08118 14.247 8.08118 14.4837 8.32292C15.769 9.63554 17.971 8.70413 17.971 6.84779C17.971 6.50579 18.2425 6.22847 18.5774 6.22847H20.4232C20.7581 6.22847 21.0296 6.50539 21.0296 6.84779C21.0296 8.70413 23.2316 9.63554 24.5169 8.32292C24.7536 8.08118 25.1376 8.08118 25.3743 8.32292L26.6797 9.65615C26.9164 9.8979 26.9164 10.29 26.6797 10.5318C25.3945 11.8444 26.3065 14.0933 28.1241 14.0933C28.459 14.0933 28.7305 14.3706 28.7305 14.7126V16.5976C28.7301 16.9396 28.459 17.2169 28.1241 17.2169ZM27.0336 34.5821H3.93712V35.7161H27.0332L27.0336 34.5821ZM2.94239 36.7324V33.5662H36.059V36.7324H2.94239ZM36.5562 37.7483H2.44483C2.17012 37.7483 1.94727 37.5207 1.94727 37.2401V33.0581C1.94727 32.7775 2.17012 32.5499 2.44483 32.5499H36.5562C36.8309 32.5499 37.0537 32.7775 37.0537 33.0581V37.2405C37.0537 37.5207 36.8309 37.7483 36.5562 37.7483ZM13.6952 25.3117L11.3028 25.4092C11.154 25.4047 11.0047 25.4682 10.903 25.5951C10.791 25.7346 10.7641 25.9169 10.8159 26.0766L11.3717 28.4455C11.435 28.7172 11.7022 28.8854 11.9682 28.8207C12.2342 28.756 12.3988 28.4831 12.3355 28.2115L12.0857 27.1471C14.5229 28.7908 17.3681 29.5407 20.1778 29.3967C27.0886 29.043 32.6089 23.4053 32.9553 16.3474C33.1183 13.0289 32.1106 9.66141 29.9323 6.94643C29.7585 6.72935 29.445 6.69741 29.2328 6.87488C29.0203 7.05235 28.989 7.37252 29.1628 7.5892C31.1811 10.1053 32.1153 13.2249 31.9641 16.2993C31.6435 22.828 26.5238 28.0566 20.1311 28.3841C17.5657 28.5155 14.9678 27.842 12.731 26.364L13.7336 26.3232C14.0071 26.3123 14.2205 26.0766 14.2098 25.7973C14.1995 25.5183 13.9691 25.3004 13.6952 25.3117ZM25.3058 5.99886L27.6982 5.90143C27.847 5.90588 27.9963 5.84241 28.098 5.71547C28.21 5.57601 28.2369 5.39369 28.1851 5.23401L27.6293 2.86507C27.566 2.59341 27.2988 2.42524 27.0328 2.48992C26.7664 2.5546 26.6017 2.82747 26.6651 3.09913L26.9149 4.16354C24.4777 2.52024 21.6325 1.76994 18.8228 1.91386C11.912 2.26758 6.39168 7.90532 6.04533 14.9632C5.88225 18.2817 6.89004 21.6492 9.06831 24.3642C9.24208 24.5813 9.55518 24.6132 9.76775 24.4357C9.98031 24.2583 10.0116 23.9381 9.83781 23.7214C7.81945 21.2053 6.88529 18.0857 7.03649 15.0113C7.35712 8.4826 12.4768 3.25396 18.8695 2.92652C21.4349 2.79473 24.0328 3.46822 26.2696 4.94577L25.267 4.9866C24.9935 4.99752 24.7801 5.2332 24.7908 5.51254C24.8015 5.79188 25.0319 6.00977 25.3058 5.99886ZM19.5005 11.126C17.0511 11.126 15.0656 13.1538 15.0656 15.6553C15.0656 18.1568 17.0511 20.1846 19.5005 20.1846C21.9499 20.1846 23.9354 18.1568 23.9354 15.6553C23.9354 13.1538 21.9499 11.126 19.5005 11.126Z" fill="white" fill-opacity="0.6"/>
</svg>
