<svg width="38" height="38" viewBox="0 0 38 38" fill="none" xmlns="http://www.w3.org/2000/svg">
<path fill-rule="evenodd" clip-rule="evenodd" d="M27.6241 16.7989C25.8065 16.7989 24.8945 19.0478 26.1797 20.3604C26.4164 20.6021 26.4164 20.9943 26.1797 21.236L24.8743 22.5693C24.6376 22.811 24.2536 22.811 24.0169 22.5693C22.7316 21.2566 20.5296 22.188 20.5296 24.0444C20.5296 24.3864 20.2581 24.6637 19.9232 24.6637H18.0774C17.7425 24.6637 17.471 24.3868 17.471 24.0444C17.471 22.186 15.2706 21.255 13.9837 22.5693C13.747 22.811 13.363 22.811 13.1263 22.5693L11.8209 21.236C11.5842 20.9943 11.5842 20.6021 11.8209 20.3604C13.1061 19.0478 12.1941 16.7989 10.3765 16.7989C10.0416 16.7989 9.77006 16.5216 9.77006 16.1796V14.2945C9.77006 13.9525 10.0412 13.6752 10.3765 13.6752C12.1941 13.6752 13.1061 11.4264 11.8209 10.1137C11.5842 9.872 11.5842 9.47987 11.8209 9.23812L13.1263 7.90489C13.363 7.66315 13.747 7.66315 13.9837 7.90489C15.269 9.21751 17.471 8.2861 17.471 6.42976C17.471 6.08776 17.7425 5.81044 18.0774 5.81044H19.9232C20.2581 5.81044 20.5296 6.08736 20.5296 6.42976C20.5296 8.2861 22.7316 9.21751 24.0169 7.90489C24.2536 7.66315 24.6376 7.66315 24.8743 7.90489L26.1797 9.23812C26.4164 9.47987 26.4164 9.872 26.1797 10.1137C24.8945 11.4264 25.8065 13.6752 27.6241 13.6752C27.959 13.6752 28.2305 13.9525 28.2305 14.2945V16.1796C28.2301 16.5216 27.959 16.7989 27.6241 16.7989ZM26.5336 34.1641H3.43712V35.298H26.5332L26.5336 34.1641ZM2.44239 36.3143V33.1482H35.559V36.3143H2.44239ZM36.0562 37.3302H1.94483C1.67012 37.3302 1.44727 37.1026 1.44727 36.8221V32.6401C1.44727 32.3595 1.67012 32.1319 1.94483 32.1319H36.0562C36.3309 32.1319 36.5537 32.3595 36.5537 32.6401V36.8225C36.5537 37.1026 36.3309 37.3302 36.0562 37.3302ZM13.1952 24.8937L10.8028 24.9911C10.654 24.9867 10.5047 25.0502 10.403 25.1771C10.291 25.3166 10.2641 25.4989 10.3159 25.6586L10.8717 28.0275C10.935 28.2992 11.2022 28.4673 11.4682 28.4027C11.7342 28.338 11.8988 28.0651 11.8355 27.7934L11.5857 26.729C14.0229 28.3727 16.8681 29.1226 19.6778 28.9787C26.5886 28.625 32.1089 22.9872 32.4553 15.9294C32.6183 12.6108 31.6106 9.24338 29.4323 6.5284C29.2585 6.31132 28.945 6.27938 28.7328 6.45685C28.5203 6.63432 28.489 6.95449 28.6628 7.17117C30.6811 9.68725 31.6153 12.8069 31.4641 15.8813C31.1435 22.41 26.0238 27.6386 19.6311 27.9661C17.0657 28.0974 14.4678 27.424 12.231 25.946L13.2336 25.9052C13.5071 25.8943 13.7205 25.6586 13.7098 25.3792C13.6995 25.1003 13.4691 24.8824 13.1952 24.8937ZM24.8058 5.58083L27.1982 5.4834C27.347 5.48785 27.4963 5.42438 27.598 5.29744C27.71 5.15798 27.7369 4.97566 27.6851 4.81598L27.1293 2.44704C27.066 2.17538 26.7988 2.00721 26.5328 2.07189C26.2664 2.13657 26.1017 2.40944 26.1651 2.6811L26.4149 3.74551C23.9777 2.10221 21.1325 1.35191 18.3228 1.49583C11.412 1.84955 5.89168 7.48729 5.54533 14.5452C5.38225 17.8637 6.39004 21.2312 8.56831 23.9461C8.74208 24.1632 9.05518 24.1952 9.26775 24.0177C9.48031 23.8402 9.51158 23.5201 9.33781 23.3034C7.31945 20.7873 6.38529 17.6677 6.53649 14.5933C6.85712 8.06457 11.9768 2.83593 18.3695 2.50849C20.9349 2.3767 23.5328 3.05019 25.7696 4.52774L24.767 4.56857C24.4935 4.57949 24.2801 4.81517 24.2908 5.09451C24.3015 5.37385 24.5319 5.59174 24.8058 5.58083ZM19.0005 10.708C16.5511 10.708 14.5656 12.7357 14.5656 15.2373C14.5656 17.7388 16.5511 19.7665 19.0005 19.7665C21.4499 19.7665 23.4354 17.7388 23.4354 15.2373C23.4354 12.7357 21.4499 10.708 19.0005 10.708Z" fill="black" fill-opacity="0.6"/>
</svg>
