<svg width="38" height="38" viewBox="0 0 38 38" fill="none" xmlns="http://www.w3.org/2000/svg">
<path d="M31.107 23.6819V28.3472C31.1071 28.7575 31.0264 29.1638 30.8695 29.5429C30.7125 29.922 30.4824 30.2665 30.1923 30.5567C29.9023 30.8468 29.5578 31.077 29.1788 31.234C28.7997 31.3911 28.3934 31.4719 27.9831 31.4719H4.18642C3.77611 31.4719 3.36983 31.3911 2.99076 31.234C2.6117 31.077 2.26729 30.8468 1.97719 30.5567C1.6871 30.2665 1.45701 29.922 1.30007 29.5429C1.14312 29.1638 1.0624 28.7575 1.0625 28.3472V9.65278C1.0624 9.24241 1.14315 8.83604 1.30014 8.45689C1.45714 8.07773 1.6873 7.73323 1.97747 7.44305C2.26765 7.15287 2.61216 6.92271 2.99131 6.76572C3.37047 6.60872 3.77684 6.52797 4.18721 6.52808H27.9831C28.3934 6.52808 28.7997 6.6089 29.1788 6.76595C29.5578 6.92299 29.9023 7.15316 30.1923 7.44333C30.4824 7.7335 30.7125 8.07797 30.8695 8.45707C31.0264 8.83617 31.1071 9.24248 31.107 9.65278V14.4804" stroke="black" stroke-opacity="0.6" stroke-width="2" stroke-linecap="round" stroke-linejoin="round"/>
<path d="M30.9829 23.6906H22.7741C21.5517 23.6906 20.3794 23.205 19.515 22.3407C18.6506 21.4763 18.165 20.304 18.165 19.0816C18.1649 18.4762 18.2841 17.8768 18.5157 17.3175C18.7472 16.7582 19.0867 16.25 19.5147 15.8219C19.9427 15.3939 20.4509 15.0543 21.0101 14.8226C21.5694 14.5909 22.1688 14.4717 22.7741 14.4717H30.9837C31.5102 14.4717 31.9377 14.8992 31.9377 15.4264V22.7367C31.9377 23.2631 31.5102 23.6906 30.9829 23.6906Z" stroke="black" stroke-opacity="0.6" stroke-width="2" stroke-linecap="round" stroke-linejoin="round"/>
<path d="M23.1961 21.2768C24.3788 21.2768 25.3376 20.318 25.3376 19.1354C25.3376 17.9527 24.3788 16.9939 23.1961 16.9939C22.0135 16.9939 21.0547 17.9527 21.0547 19.1354C21.0547 20.318 22.0135 21.2768 23.1961 21.2768Z" stroke="black" stroke-opacity="0.6" stroke-width="2" stroke-linecap="round" stroke-linejoin="round"/>
</svg>
