<svg width="38" height="38" viewBox="0 0 38 38" fill="none" xmlns="http://www.w3.org/2000/svg">
<path d="M33.607 23.6819V28.3472C33.6071 28.7575 33.5264 29.1638 33.3695 29.5429C33.2125 29.922 32.9824 30.2665 32.6923 30.5567C32.4023 30.8468 32.0578 31.077 31.6788 31.234C31.2997 31.3911 30.8934 31.4719 30.4831 31.4719H6.68642C6.27611 31.4719 5.86983 31.3911 5.49076 31.234C5.1117 31.077 4.76729 30.8468 4.47719 30.5567C4.1871 30.2665 3.95701 29.922 3.80007 29.5429C3.64312 29.1638 3.5624 28.7575 3.5625 28.3472V9.65278C3.5624 9.24241 3.64315 8.83604 3.80014 8.45689C3.95714 8.07773 4.1873 7.73323 4.47747 7.44305C4.76765 7.15287 5.11216 6.92271 5.49131 6.76572C5.87047 6.60872 6.27684 6.52797 6.68721 6.52808H30.4831C30.8934 6.52808 31.2997 6.6089 31.6788 6.76595C32.0578 6.92299 32.4023 7.15316 32.6923 7.44333C32.9824 7.7335 33.2125 8.07797 33.3695 8.45707C33.5264 8.83617 33.6071 9.24248 33.607 9.65278V14.4804" stroke="white" stroke-opacity="0.6" stroke-width="2" stroke-linecap="round" stroke-linejoin="round"/>
<path d="M33.4829 23.6906H25.2741C24.0517 23.6906 22.8794 23.205 22.015 22.3407C21.1506 21.4763 20.665 20.304 20.665 19.0816C20.6649 18.4762 20.7841 17.8768 21.0157 17.3175C21.2472 16.7582 21.5867 16.25 22.0147 15.8219C22.4427 15.3939 22.9509 15.0543 23.5101 14.8226C24.0694 14.5909 24.6688 14.4717 25.2741 14.4717H33.4837C34.0102 14.4717 34.4377 14.8992 34.4377 15.4264V22.7367C34.4377 23.2631 34.0102 23.6906 33.4829 23.6906Z" stroke="white" stroke-opacity="0.6" stroke-width="2" stroke-linecap="round" stroke-linejoin="round"/>
<path d="M25.6961 21.2768C26.8788 21.2768 27.8376 20.318 27.8376 19.1354C27.8376 17.9527 26.8788 16.9939 25.6961 16.9939C24.5135 16.9939 23.5547 17.9527 23.5547 19.1354C23.5547 20.318 24.5135 21.2768 25.6961 21.2768Z" stroke="white" stroke-opacity="0.6" stroke-width="2" stroke-linecap="round" stroke-linejoin="round"/>
</svg>
