<svg width="40" height="40" viewBox="0 0 40 40" fill="none" xmlns="http://www.w3.org/2000/svg">
<rect x="0.6" y="0.6" width="38.8" height="38.8" rx="7.4" stroke="#FF0000" stroke-width="1.2"/>
<g clip-path="url(#clip0_1694_560)">
<path d="M31.4479 13.7417C31.3045 13.2118 31.0248 12.7287 30.6366 12.3405C30.2484 11.9523 29.7653 11.6725 29.2354 11.5291C27.2953 11 19.4873 11 19.4873 11C19.4873 11 11.6789 11.016 9.73889 11.5451C9.20895 11.6885 8.72584 11.9683 8.33766 12.3565C7.94948 12.7447 7.66977 13.2279 7.52639 13.7578C6.93957 17.2049 6.71193 22.4574 7.5425 25.7666C7.68589 26.2965 7.96561 26.7796 8.35379 27.1678C8.74197 27.556 9.22508 27.8358 9.755 27.9792C11.695 28.5083 19.5032 28.5083 19.5032 28.5083C19.5032 28.5083 27.3113 28.5083 29.2513 27.9792C29.7812 27.8358 30.2644 27.5561 30.6525 27.1679C31.0408 26.7797 31.3205 26.2965 31.4639 25.7666C32.0828 22.3146 32.2736 17.0653 31.4479 13.7417Z" fill="#FF0000"/>
<path d="M17.002 23.506L23.4793 19.7542L17.002 16.0024V23.506Z" fill="white"/>
</g>
<defs>
<clipPath id="clip0_1694_560">
<rect width="25" height="17.5781" fill="white" transform="translate(7 11)"/>
</clipPath>
</defs>
</svg>
