<svg width="40" height="40" viewBox="0 0 40 40" fill="none" xmlns="http://www.w3.org/2000/svg">
<rect x="0.6" y="0.6" width="38.8" height="38.8" rx="7.4" stroke="url(#paint0_radial_1694_552)" stroke-width="1.2"/>
<g clip-path="url(#clip0_1694_552)">
<path d="M26.1406 7H12.8594C9.62333 7 7 9.62333 7 12.8594V26.1406C7 29.3767 9.62333 32 12.8594 32H26.1406C29.3767 32 32 29.3767 32 26.1406V12.8594C32 9.62333 29.3767 7 26.1406 7Z" fill="url(#paint1_radial_1694_552)"/>
<path d="M26.1406 7H12.8594C9.62333 7 7 9.62333 7 12.8594V26.1406C7 29.3767 9.62333 32 12.8594 32H26.1406C29.3767 32 32 29.3767 32 26.1406V12.8594C32 9.62333 29.3767 7 26.1406 7Z" fill="url(#paint2_radial_1694_552)"/>
<path d="M19.5009 9.73438C16.8487 9.73438 16.5158 9.746 15.4742 9.79336C14.4346 9.84102 13.7249 10.0056 13.104 10.2471C12.4616 10.4965 11.9168 10.8302 11.374 11.3731C10.8308 11.916 10.4971 12.4608 10.2469 13.1029C10.0047 13.724 9.83994 14.434 9.79316 15.4731C9.74658 16.5148 9.73438 16.8479 9.73438 19.5001C9.73438 22.1523 9.74609 22.4842 9.79336 23.5258C9.84121 24.5654 10.0058 25.2751 10.2471 25.896C10.4967 26.5384 10.8304 27.0832 11.3733 27.626C11.916 28.1692 12.4608 28.5037 13.1027 28.7531C13.7241 28.9946 14.4339 29.1592 15.4733 29.2068C16.515 29.2542 16.8477 29.2658 19.4997 29.2658C22.1521 29.2658 22.484 29.2542 23.5256 29.2068C24.5652 29.1592 25.2757 28.9946 25.8971 28.7531C26.5392 28.5037 27.0832 28.1692 27.6258 27.626C28.169 27.0832 28.5026 26.5384 28.7529 25.8963C28.993 25.2751 29.1578 24.5652 29.2066 23.526C29.2534 22.4844 29.2656 22.1523 29.2656 19.5001C29.2656 16.8479 29.2534 16.515 29.2066 15.4733C29.1578 14.4337 28.993 13.7241 28.7529 13.1032C28.5026 12.4608 28.169 11.916 27.6258 11.3731C27.0826 10.83 26.5394 10.4963 25.8965 10.2472C25.2739 10.0056 24.5639 9.84092 23.5242 9.79336C22.4825 9.746 22.1509 9.73438 19.4979 9.73438H19.5009ZM18.6248 11.4942C18.8849 11.4938 19.175 11.4942 19.5009 11.4942C22.1084 11.4942 22.4174 11.5036 23.4471 11.5504C24.3992 11.5939 24.916 11.753 25.2603 11.8867C25.716 12.0637 26.0409 12.2753 26.3825 12.6172C26.7243 12.959 26.9358 13.2845 27.1133 13.7402C27.247 14.084 27.4062 14.6008 27.4496 15.5529C27.4964 16.5824 27.5065 16.8916 27.5065 19.4979C27.5065 22.1041 27.4964 22.4134 27.4496 23.4428C27.4061 24.3949 27.247 24.9117 27.1133 25.2556C26.9363 25.7113 26.7243 26.0358 26.3825 26.3774C26.0407 26.7192 25.7162 26.9308 25.2603 27.1078C24.9164 27.2421 24.3992 27.4008 23.4471 27.4443C22.4176 27.4911 22.1084 27.5013 19.5009 27.5013C16.8933 27.5013 16.5842 27.4911 15.5548 27.4443C14.6026 27.4004 14.0858 27.2413 13.7413 27.1076C13.2856 26.9306 12.9601 26.719 12.6183 26.3772C12.2765 26.0354 12.0649 25.7107 11.8875 25.2548C11.7538 24.9109 11.5945 24.3941 11.5512 23.442C11.5044 22.4125 11.495 22.1033 11.495 19.4954C11.495 16.8876 11.5044 16.58 11.5512 15.5505C11.5947 14.5983 11.7538 14.0815 11.8875 13.7373C12.0646 13.2815 12.2765 12.9561 12.6184 12.6143C12.9602 12.2725 13.2856 12.0608 13.7414 11.8835C14.0856 11.7492 14.6026 11.5905 15.5548 11.5468C16.4557 11.5061 16.8048 11.4938 18.6248 11.4918V11.4942ZM24.7138 13.1157C24.0668 13.1157 23.5419 13.6401 23.5419 14.2872C23.5419 14.9342 24.0668 15.4591 24.7138 15.4591C25.3607 15.4591 25.8856 14.9342 25.8856 14.2872C25.8856 13.6402 25.3607 13.1153 24.7138 13.1153V13.1157ZM19.5009 14.485C16.7313 14.485 14.4858 16.7305 14.4858 19.5001C14.4858 22.2697 16.7313 24.5142 19.5009 24.5142C22.2705 24.5142 24.5152 22.2697 24.5152 19.5001C24.5152 16.7306 22.2703 14.485 19.5007 14.485H19.5009ZM19.5009 16.2448C21.2986 16.2448 22.7562 17.7021 22.7562 19.5001C22.7562 21.2979 21.2986 22.7554 19.5009 22.7554C17.703 22.7554 16.2457 21.2979 16.2457 19.5001C16.2457 17.7021 17.703 16.2448 19.5009 16.2448Z" fill="white"/>
</g>
<defs>
<radialGradient id="paint0_radial_1694_552" cx="0" cy="0" r="1" gradientUnits="userSpaceOnUse" gradientTransform="translate(10.625 43.0808) rotate(-90) scale(39.643 36.8711)">
<stop stop-color="#FFDD55"/>
<stop offset="0.1" stop-color="#FFDD55"/>
<stop offset="0.5" stop-color="#FF543E"/>
<stop offset="1" stop-color="#C837AB"/>
</radialGradient>
<radialGradient id="paint1_radial_1694_552" cx="0" cy="0" r="1" gradientUnits="userSpaceOnUse" gradientTransform="translate(13.6406 33.9255) rotate(-90) scale(24.7769 23.0444)">
<stop stop-color="#FFDD55"/>
<stop offset="0.1" stop-color="#FFDD55"/>
<stop offset="0.5" stop-color="#FF543E"/>
<stop offset="1" stop-color="#C837AB"/>
</radialGradient>
<radialGradient id="paint2_radial_1694_552" cx="0" cy="0" r="1" gradientUnits="userSpaceOnUse" gradientTransform="translate(2.8124 8.80088) rotate(78.681) scale(11.0754 45.6531)">
<stop stop-color="#3771C8"/>
<stop offset="0.128" stop-color="#3771C8"/>
<stop offset="1" stop-color="#6600FF" stop-opacity="0"/>
</radialGradient>
<clipPath id="clip0_1694_552">
<rect width="25" height="25" fill="white" transform="translate(7 7)"/>
</clipPath>
</defs>
</svg>
