<svg width="40" height="40" viewBox="0 0 40 40" fill="none" xmlns="http://www.w3.org/2000/svg">
<rect x="0.6" y="0.6" width="38.8" height="38.8" rx="7.4" stroke="#1877F2" stroke-width="1.2"/>
<path d="M32 19.5764C32 12.6307 26.4035 7 19.5 7C12.5965 7 7 12.6307 7 19.5764C7 25.8536 11.5711 31.0566 17.5469 32V23.2118H14.373V19.5764H17.5469V16.8057C17.5469 13.6537 19.4131 11.9127 22.2684 11.9127C23.6359 11.9127 25.0664 12.1583 25.0664 12.1583V15.2533H23.4902C21.9374 15.2533 21.4531 16.2227 21.4531 17.2173V19.5764H24.9199L24.3657 23.2118H21.4531V32C27.4289 31.0566 32 25.8537 32 19.5764Z" fill="#1877F2"/>
</svg>
