<svg width="40" height="40" viewBox="0 0 40 40" fill="none" xmlns="http://www.w3.org/2000/svg">
<rect x="0.6" y="0.6" width="38.8" height="38.8" rx="7.4" stroke="#60D669" stroke-width="1.2"/>
<g clip-path="url(#clip0_1694_564)">
<path d="M7.53345 19.4467C7.53286 21.5636 8.08599 23.6306 9.13774 25.4524L7.43286 31.6772L13.8032 30.0069C15.5651 30.9661 17.5392 31.4687 19.5454 31.4688H19.5506C26.1732 31.4688 31.5641 26.0799 31.5669 19.4562C31.5682 16.2465 30.3194 13.2283 28.0504 10.9576C25.7819 8.68711 22.7648 7.43604 19.5501 7.43457C12.9268 7.43457 7.53628 12.8232 7.53354 19.4467" fill="url(#paint0_linear_1694_564)"/>
<path d="M7.10449 19.443C7.10381 21.636 7.67676 23.777 8.76602 25.6641L7 32.112L13.5987 30.3818C15.4169 31.3731 17.464 31.8958 19.547 31.8966H19.5523C26.4125 31.8966 31.9971 26.3138 32 19.4529C32.0012 16.1279 30.7074 13.0013 28.3574 10.6492C26.0071 8.29746 22.8821 7.00137 19.5523 7C12.691 7 7.10723 12.582 7.10449 19.443ZM11.0343 25.3391L10.7879 24.9479C9.75215 23.3011 9.20547 21.3979 9.20625 19.4437C9.2084 13.7411 13.8494 9.10156 19.5563 9.10156C22.3199 9.10273 24.9172 10.1801 26.8707 12.1348C28.8241 14.0896 29.899 16.6883 29.8983 19.4521C29.8958 25.1548 25.2547 29.7949 19.5523 29.7949H19.5482C17.6915 29.7939 15.8705 29.2953 14.2824 28.353L13.9045 28.1289L9.98867 29.1556L11.0343 25.3391Z" fill="url(#paint1_linear_1694_564)"/>
<path d="M16.4412 14.2409C16.2082 13.7231 15.9629 13.7126 15.7414 13.7035C15.5599 13.6957 15.3525 13.6963 15.1453 13.6963C14.9378 13.6963 14.6008 13.7743 14.316 14.0854C14.0308 14.3967 13.2273 15.149 13.2273 16.6792C13.2273 18.2095 14.3418 19.6883 14.4972 19.896C14.6528 20.1033 16.6489 23.344 19.8102 24.5906C22.4375 25.6267 22.9722 25.4206 23.5424 25.3687C24.1127 25.3169 25.3827 24.6165 25.6417 23.8902C25.901 23.1641 25.901 22.5416 25.8233 22.4115C25.7456 22.2819 25.5381 22.2041 25.2271 22.0486C24.916 21.8931 23.3869 21.1406 23.1018 21.0368C22.8167 20.9331 22.6093 20.8814 22.4019 21.1928C22.1945 21.5037 21.5989 22.2041 21.4173 22.4115C21.236 22.6194 21.0544 22.6453 20.7435 22.4898C20.4323 22.3337 19.4306 22.0057 18.2422 20.9462C17.3176 20.1218 16.6934 19.1037 16.512 18.7923C16.3305 18.4814 16.4925 18.3128 16.6485 18.1578C16.7882 18.0185 16.9596 17.7946 17.1153 17.6131C17.2704 17.4315 17.3221 17.3019 17.4258 17.0944C17.5296 16.8868 17.4777 16.7052 17.4 16.5496C17.3221 16.3941 16.7177 14.8559 16.4412 14.2409Z" fill="white"/>
</g>
<defs>
<linearGradient id="paint0_linear_1694_564" x1="1214.14" y1="2431.7" x2="1214.14" y2="7.43457" gradientUnits="userSpaceOnUse">
<stop stop-color="#1FAF38"/>
<stop offset="1" stop-color="#60D669"/>
</linearGradient>
<linearGradient id="paint1_linear_1694_564" x1="1257" y1="2518.2" x2="1257" y2="7" gradientUnits="userSpaceOnUse">
<stop stop-color="#F9F9F9"/>
<stop offset="1" stop-color="white"/>
</linearGradient>
<clipPath id="clip0_1694_564">
<rect width="25" height="25.1953" fill="white" transform="translate(7 7)"/>
</clipPath>
</defs>
</svg>
