<svg width="40" height="41" viewBox="0 0 40 41" fill="none" xmlns="http://www.w3.org/2000/svg">
<rect x="0.5" y="1.13086" width="39" height="39" rx="7.5" stroke="white"/>
<path d="M20 24.6309C21.0609 24.6309 22.0783 24.2094 22.8284 23.4593C23.5786 22.7091 24 21.6917 24 20.6309C24 19.57 23.5786 18.5526 22.8284 17.8024C22.0783 17.0523 21.0609 16.6309 20 16.6309C18.9391 16.6309 17.9217 17.0523 17.1716 17.8024C16.4214 18.5526 16 19.57 16 20.6309C16 21.6917 16.4214 22.7091 17.1716 23.4593C17.9217 24.2094 18.9391 24.6309 20 24.6309V24.6309Z" stroke="white" stroke-width="1.5" stroke-linecap="round" stroke-linejoin="round"/>
<path d="M11 24.6309V16.6309C11 15.3048 11.5268 14.033 12.4645 13.0953C13.4021 12.1576 14.6739 11.6309 16 11.6309H24C25.3261 11.6309 26.5979 12.1576 27.5355 13.0953C28.4732 14.033 29 15.3048 29 16.6309V24.6309C29 25.9569 28.4732 27.2287 27.5355 28.1664C26.5979 29.1041 25.3261 29.6309 24 29.6309H16C14.6739 29.6309 13.4021 29.1041 12.4645 28.1664C11.5268 27.2287 11 25.9569 11 24.6309Z" stroke="white" stroke-width="1.5"/>
<path d="M25.5 15.1409L25.51 15.1299" stroke="white" stroke-width="1.5" stroke-linecap="round" stroke-linejoin="round"/>
</svg>
