<svg width="40" height="41" viewBox="0 0 40 41" fill="none" xmlns="http://www.w3.org/2000/svg">
<rect x="0.5" y="1.13086" width="39" height="39" rx="7.5" stroke="white"/>
<path d="M31 11.6409C31 11.6409 28.982 12.8329 27.86 13.1709C27.2577 12.4784 26.4573 11.9876 25.567 11.7648C24.6767 11.5421 23.7395 11.5981 22.8821 11.9254C22.0247 12.2526 21.2884 12.8353 20.773 13.5946C20.2575 14.3539 19.9877 15.2533 20 16.1709V17.1709C18.2426 17.2165 16.5013 16.8267 14.931 16.0364C13.3607 15.246 12.0103 14.0796 11 12.6409C11 12.6409 7 21.6409 16 25.6409C13.9405 27.0389 11.4872 27.7398 9 27.6409C18 32.6409 29 27.6409 29 16.1409C29 15.8629 28.972 15.5849 28.92 15.3109C29.94 14.3049 31 11.6409 31 11.6409Z" stroke="white" stroke-width="1.5" stroke-linecap="round" stroke-linejoin="round"/>
</svg>
