<svg width="40" height="41" viewBox="0 0 40 41" fill="none" xmlns="http://www.w3.org/2000/svg">
<rect x="0.5" y="1.13086" width="39" height="39" rx="7.5" stroke="white"/>
<path d="M22 20.6309L18.5 22.6309V18.6309L22 20.6309Z" fill="white" stroke="white" stroke-width="1.5" stroke-linecap="round" stroke-linejoin="round"/>
<path d="M10 21.3379V19.9229C10 17.0279 10 15.5799 10.905 14.6489C11.811 13.7169 13.237 13.6769 16.088 13.5959C17.438 13.5579 18.818 13.5309 20 13.5309C21.181 13.5309 22.561 13.5579 23.912 13.5959C26.763 13.6769 28.189 13.7169 29.094 14.6489C30 15.5799 30 17.0289 30 19.9229V21.3379C30 24.2339 30 25.6809 29.095 26.6129C28.189 27.5439 26.764 27.5849 23.912 27.6649C22.562 27.7039 21.182 27.7309 20 27.7309C18.6958 27.727 17.3916 27.705 16.088 27.6649C13.237 27.5849 11.811 27.5449 10.905 26.6129C10 25.6809 10 24.2329 10 21.3389V21.3379Z" stroke="white" stroke-width="1.5"/>
</svg>
