<svg width="121" height="120" viewBox="0 0 121 120" fill="none" xmlns="http://www.w3.org/2000/svg">
<path d="M48.3331 56.3979H19.4744C19.0668 56.3979 18.6592 55.9862 18.6592 55.5745C18.6592 55.1629 19.0668 54.7512 19.4744 54.7512H48.3331C48.7407 54.7512 49.1483 55.1629 49.1483 55.5745C49.1483 55.9862 48.7407 56.3979 48.3331 56.3979Z" fill="white" fill-opacity="0.83"/>
<path d="M48.3331 60.9264H19.4744C19.0668 60.9264 18.6592 60.5148 18.6592 60.1031C18.6592 59.6914 19.0668 59.2798 19.4744 59.2798H48.3331C48.7407 59.2798 49.1483 59.6914 49.1483 60.1031C49.1483 60.5148 48.7407 60.9264 48.3331 60.9264Z" fill="white" fill-opacity="0.83"/>
<path d="M98.0003 90.1544H12.0356C8.73401 90.1544 5.86035 87.4786 5.86035 83.9795V22.2299C5.86035 18.9366 8.55058 16.0549 12.0356 16.0549H97.7965C101.098 16.0549 103.972 18.7307 103.972 22.2299V56.1922C103.972 56.6038 103.564 57.0155 103.157 57.0155H67.4908L60.8875 61.1321L67.4908 65.2487H103.36C103.768 65.2487 104.176 65.6604 104.176 66.0721V83.9795C104.176 87.4786 101.282 90.1544 97.98 90.1544H98.0003ZM12.0356 17.9074C9.56961 17.9074 7.49079 19.9657 7.49079 22.4357V84.1852C7.49079 86.6552 9.54922 88.7136 12.0356 88.7136H97.7965C100.263 88.7136 102.341 86.6552 102.341 84.1852V66.8954H67.0832C66.9473 66.8954 66.8115 66.8268 66.6756 66.6895L58.8495 61.7496C58.6457 61.5437 58.4419 61.3379 58.4419 61.1321C58.4419 60.9263 58.6457 60.7204 58.8495 60.5146L66.6756 55.5746C66.8794 55.5746 66.8794 55.3688 67.0832 55.3688H102.545V22.4357C102.545 19.9657 100.487 17.9074 98.0003 17.9074H12.0356Z" fill="white" fill-opacity="0.83"/>
<path d="M97.7958 73.6878H12.0349C11.6273 73.6878 11.2197 73.2761 11.2197 72.8644V22.4356C11.2197 22.024 11.6273 21.6123 12.0349 21.6123H97.7958C98.2034 21.6123 98.6111 22.024 98.6111 22.4356V56.1921C98.6111 56.6038 98.2034 57.0154 97.7958 57.0154H67.4901L60.8869 61.1321L67.4901 65.2487H97.9997C98.4073 65.2487 98.8149 65.6603 98.8149 66.072V72.8644C98.6111 73.2761 98.2035 73.6878 97.7755 73.6878H97.7958ZM12.8705 72.0411H97.1844V66.8953H67.0825C66.9466 66.8953 66.8108 66.8267 66.6749 66.6895L58.8488 61.7495C58.645 61.5437 58.4412 61.3379 58.4412 61.1321C58.4412 60.9262 58.645 60.7204 58.8488 60.5145L66.6749 55.5746C66.8787 55.5746 66.8787 55.3687 67.0825 55.3687H96.9806V23.259H12.8705V72.0411Z" fill="white" fill-opacity="0.83"/>
<path d="M70.5885 107.65H39.4676C39.2638 107.65 39.0599 107.444 38.8561 107.444C38.6523 107.238 38.6523 107.032 38.6523 106.827L43.1972 89.3308C43.1972 88.9192 43.6048 88.7134 44.0124 88.7134H66.064C66.4716 88.7134 66.6754 88.9192 66.8793 89.3308L71.4241 106.621V106.827C71.4241 107.238 71.0165 107.65 70.6089 107.65H70.5885ZM40.4866 106.003H69.5491L65.4322 90.1542H44.6034L40.4866 106.003Z" fill="white" fill-opacity="0.83"/>
<path d="M84.406 111.973H25.6492C25.2416 111.973 24.834 111.561 24.834 111.149V106.827C24.834 106.415 25.2416 106.003 25.6492 106.003H84.406C84.8136 106.003 85.2212 106.415 85.2212 106.827V111.149C85.2212 111.561 84.8136 111.973 84.406 111.973ZM26.4644 110.326H83.5704V107.65H26.4644V110.326Z" fill="white" fill-opacity="0.83"/>
<path d="M55.1186 86.6554C53.6716 86.6554 52.2246 85.4204 52.2246 83.7737C52.2246 82.1271 53.4678 80.8921 55.1186 80.8921C56.5657 80.8921 58.0127 82.1271 58.0127 83.7737C58.0127 85.4204 56.5657 86.6554 55.1186 86.6554ZM55.1186 82.7446C54.5072 82.7446 53.8754 83.3621 53.8754 83.9796C53.8754 84.5971 54.4869 85.2145 55.1186 85.2145C55.7504 85.2145 56.3619 84.5971 56.3619 83.9796C56.3619 83.3621 55.7504 82.7446 55.1186 82.7446Z" fill="white" fill-opacity="0.83"/>
<path d="M72.2388 115.883H6.26737C5.85976 115.883 5.45215 115.472 5.45215 115.06C5.45215 114.648 5.85976 114.237 6.26737 114.237H72.2388C72.6465 114.237 73.0541 114.648 73.0541 115.06C73.0541 115.472 72.6465 115.883 72.2388 115.883Z" fill="white" fill-opacity="0.83"/>
<path d="M90.5809 120H44.8064C44.3988 120 43.9912 119.588 43.9912 119.177C43.9912 118.765 44.3988 118.353 44.8064 118.353H90.3771C90.7847 118.353 91.1923 118.765 91.1923 119.177C91.1923 119.588 90.9885 120 90.5809 120Z" fill="white" fill-opacity="0.83"/>
<path d="M100.893 120H95.1258C94.7182 120 94.3105 119.588 94.3105 119.177C94.3105 118.765 94.7182 118.353 95.1258 118.353H100.893C101.301 118.353 101.709 118.765 101.709 119.177C101.709 119.588 101.301 120 100.893 120Z" fill="white" fill-opacity="0.83"/>
<path d="M25.2424 119.794H3.59842C3.19082 119.794 2.7832 119.383 2.7832 118.971C2.7832 118.559 3.19082 118.147 3.59842 118.147H25.2424C25.6501 118.147 26.0577 118.559 26.0577 118.971C26.0577 119.383 25.6501 119.794 25.2424 119.794Z" fill="white" fill-opacity="0.83"/>
<path d="M98.6325 17.9074C98.4966 17.9074 98.4966 17.9074 98.6325 17.9074H58.0143C57.8105 17.9074 57.6067 17.7015 57.4029 17.4957C57.199 17.2899 57.199 17.0841 57.4029 16.6724C58.2181 14.8199 60.0931 13.3791 62.3553 13.1732V12.9674C62.3553 9.67414 64.8213 6.99832 68.123 6.79249C68.9382 4.11668 71.2208 2.26416 74.0944 2.26416C74.9097 2.26416 75.9491 2.46997 76.7847 2.88163C78.2317 1.02915 80.2901 0 82.5523 0C86.4654 0 89.767 3.29331 89.767 7.20412C90.3784 6.99828 90.8064 6.99827 91.4178 6.99827C95.3309 6.99827 98.6325 10.2916 98.6325 14.2024V15.2315C99.0401 15.6432 99.4477 16.2607 99.6719 16.6724C99.8757 16.8782 99.6719 17.2899 99.6719 17.4957C99.0605 17.7015 98.8567 17.9074 98.6325 17.9074ZM59.4613 16.2607H96.9817L96.7779 16.0549C96.7779 15.8491 96.5741 15.6432 96.5741 15.4374C96.5741 15.0257 96.7779 14.6141 96.7779 14.2024C96.7779 11.1149 94.3118 8.64496 91.214 8.64496C90.3988 8.64496 89.767 8.85076 89.1556 9.05659C88.9518 9.26242 88.5442 9.05664 88.3404 8.85081C88.1366 8.64498 87.9328 8.43909 88.1366 8.02743V7.20412C88.1366 4.11664 85.6705 1.64669 82.5727 1.64669C80.5143 1.64669 78.8635 2.67583 77.8241 4.32248C77.6203 4.73415 77.2126 4.73416 76.7847 4.52833C75.9694 4.11666 75.1338 3.91079 74.3186 3.91079C72.0564 3.91079 69.998 5.5575 69.57 7.82165C69.57 8.23331 69.1624 8.43912 68.7548 8.43912C66.0849 8.43912 64.0061 10.4974 64.0061 13.1732V13.9966C64.0061 14.2024 64.0061 14.4082 63.8023 14.6141C63.5985 14.8199 63.3947 14.8199 63.1909 14.8199C61.7439 14.8199 60.5211 15.2315 59.4817 16.2607H59.4613Z" fill="white" fill-opacity="0.83"/>
<path d="M1.31522 45.0773C0.907612 45.0773 0.5 44.6656 0.5 44.2539V17.9075C0.5 14.2025 3.59784 11.115 7.30708 11.115H22.572C22.9796 11.115 23.3872 11.5267 23.3872 11.9384C23.3872 12.35 22.9796 12.7617 22.572 12.7617H7.30708C4.41305 12.7617 2.15081 15.0258 2.15081 17.9075V44.2539C2.15081 44.6656 1.74321 45.0773 1.33561 45.0773H1.31522ZM108.741 29.8457C108.333 29.8457 107.925 29.4341 107.925 29.0224V17.9075C107.925 15.0258 105.663 12.7617 102.769 12.7617C102.361 12.7617 101.954 12.35 101.954 11.9384C101.954 11.5267 102.361 11.115 102.769 11.115C106.478 11.115 109.576 14.2025 109.576 17.9075V29.0224C109.576 29.4341 109.169 29.8457 108.761 29.8457H108.741Z" fill="white" fill-opacity="0.83"/>
<path d="M38.8355 47.7531H27.076C26.6684 47.7531 26.2607 47.3414 26.2607 46.9298V35.1973C26.2607 34.7857 26.6684 34.374 27.076 34.374H38.8355C39.2431 34.374 39.6507 34.7857 39.6507 35.1973V46.9298C39.6507 47.5473 39.4469 47.7531 38.8355 47.7531ZM27.9116 46.3122H38.2241V36.0207H27.9116V46.3122Z" fill="white" fill-opacity="0.83"/>
<path d="M62.1304 47.7531H47.701C47.4972 47.7531 47.0896 47.5472 47.0896 47.3414C47.0896 47.1356 46.8858 46.7239 47.0896 46.5181L54.3043 34.7856C54.5081 34.5798 54.7119 34.374 54.9157 34.374C55.1195 34.374 55.5271 34.5798 55.5271 34.7856L62.7418 46.5181C62.7418 46.7239 62.9456 46.7239 62.9456 46.9298C62.9456 47.5473 62.538 47.7531 62.1304 47.7531ZM49.148 46.3122H60.7037L54.9361 36.844L49.1684 46.3122H49.148Z" fill="white" fill-opacity="0.83"/>
<path d="M76.988 47.5473C73.2788 47.5473 70.3848 44.4597 70.3848 40.9606C70.3848 37.2556 73.4826 34.374 76.988 34.374C80.4935 34.374 83.5913 37.4615 83.5913 40.9606C83.5913 44.6656 80.4935 47.5473 76.988 47.5473ZM76.988 35.8148C74.094 35.8148 71.8318 38.079 71.8318 40.9606C71.8318 43.8423 74.094 46.1064 76.988 46.1064C79.882 46.1064 82.1443 43.8423 82.1443 40.9606C81.9405 38.079 79.6782 35.8148 76.988 35.8148Z" fill="white" fill-opacity="0.83"/>
<path d="M109.149 66.8955H67.0837C66.9478 66.8955 66.812 66.8269 66.6761 66.6897L58.85 61.7497C58.6462 61.5439 58.4424 61.3381 58.4424 61.1322C58.4424 60.9264 58.6462 60.7205 58.85 60.5147L66.6761 55.5747C66.8799 55.5747 66.8799 55.3689 67.0837 55.3689H109.149C109.557 55.3689 109.964 55.7806 109.964 56.1923V66.0722C109.964 66.4838 109.557 66.8955 109.149 66.8955ZM67.4913 65.4547H108.517V57.2214H67.4913L60.888 61.3381L67.4913 65.4547Z" fill="white" fill-opacity="0.83"/>
<path d="M112.226 66.8955H109.128C108.72 66.8955 108.312 66.4838 108.312 66.0722V56.1923C108.312 55.7806 108.72 55.3689 109.128 55.3689H112.226C112.633 55.3689 113.041 55.7806 113.041 56.1923V66.0722C113.041 66.4838 112.633 66.8955 112.226 66.8955ZM109.963 65.4547H111.41V57.2214H109.963V65.4547Z" fill="white" fill-opacity="0.83"/>
<path d="M115.956 66.8955H112.247C111.839 66.8955 111.432 66.4838 111.432 66.0722V56.1923C111.432 55.7806 111.839 55.3689 112.247 55.3689H115.956C118.422 55.3689 120.501 57.4272 120.501 59.8972V62.1614C120.501 64.8372 118.646 66.8955 115.956 66.8955ZM113.062 65.4547H116.16C117.811 65.4547 119.258 64.0139 119.258 62.3672V60.1031C119.258 58.4564 117.811 57.0156 116.16 57.0156H113.062V65.4547Z" fill="white" fill-opacity="0.83"/>
<path d="M74.2976 66.8952C73.89 66.8952 73.4824 66.4836 73.4824 66.0719V58.4561C73.4824 58.0445 73.89 57.6328 74.2976 57.6328C74.7053 57.6328 75.1129 58.0445 75.1129 58.4561V66.0719C75.1129 66.4836 74.9091 66.8952 74.2976 66.8952Z" fill="white" fill-opacity="0.83"/>
<path d="M109.148 61.9555H84.2019C83.7943 61.9555 83.3867 61.5438 83.3867 61.1322C83.3867 60.7205 83.7943 60.3088 84.2019 60.3088H109.148C109.555 60.3088 109.963 60.7205 109.963 61.1322C109.963 61.5438 109.555 61.9555 109.148 61.9555Z" fill="white" fill-opacity="0.83"/>
<path d="M41.5252 99.8285H7.30643C6.89882 99.8285 6.49121 99.4169 6.49121 99.0052C6.49121 98.5935 6.89882 98.1819 7.30643 98.1819H41.3214C41.729 98.1819 42.1366 98.5935 42.1366 99.0052C42.1366 99.6227 41.9328 99.8285 41.5252 99.8285Z" fill="white" fill-opacity="0.83"/>
<path d="M102.749 99.8285H69.1414C68.7338 99.8285 68.3262 99.4169 68.3262 99.0052C68.3262 98.5935 68.7338 98.1819 69.1414 98.1819H102.749C103.156 98.1819 103.564 98.5935 103.564 99.0052C103.564 99.6227 103.156 99.8285 102.749 99.8285Z" fill="white" fill-opacity="0.83"/>
</svg>
