<svg width="59" height="59" viewBox="0 0 59 59" fill="none" xmlns="http://www.w3.org/2000/svg">
<path d="M23.4702 27.7H9.31015C9.11015 27.7 8.91016 27.5 8.91016 27.3C8.91016 27.1 9.11015 26.9 9.31015 26.9H23.4702C23.6702 26.9 23.8702 27.1 23.8702 27.3C23.8702 27.5 23.6702 27.7 23.4702 27.7Z" fill="#010101"/>
<path d="M23.4702 29.9H9.31015C9.11015 29.9 8.91016 29.7 8.91016 29.5C8.91016 29.3 9.11015 29.1 9.31015 29.1H23.4702C23.6702 29.1 23.8702 29.3 23.8702 29.5C23.8702 29.7 23.6702 29.9 23.4702 29.9Z" fill="#010101"/>
<path d="M47.8399 44.1H5.65989C4.03989 44.1 2.62988 42.8 2.62988 41.1V11.1C2.62988 9.50001 3.94989 8.10001 5.65989 8.10001H47.7399C49.3599 8.10001 50.7699 9.40001 50.7699 11.1V27.6C50.7699 27.8 50.5699 28 50.3699 28H32.8699L29.6299 30L32.8699 32H50.4699C50.6699 32 50.8699 32.2 50.8699 32.4V41.1C50.8699 42.8 49.4499 44.1 47.8299 44.1H47.8399ZM5.65989 9C4.44989 9 3.42989 9.99998 3.42989 11.2V41.2C3.42989 42.4 4.43989 43.4 5.65989 43.4H47.7399C48.9499 43.4 49.9699 42.4 49.9699 41.2V32.8H32.6699C32.6032 32.8 32.5366 32.7666 32.4699 32.7L28.6299 30.3C28.5299 30.2 28.4299 30.1 28.4299 30C28.4299 29.9 28.5299 29.8 28.6299 29.7L32.4699 27.3C32.5699 27.3 32.5699 27.2 32.6699 27.2H50.0699V11.2C50.0699 9.99998 49.0599 9 47.8399 9H5.65989Z" fill="#010101"/>
<path d="M47.7398 36.1H5.65977C5.45977 36.1 5.25977 35.9 5.25977 35.7V11.2C5.25977 11 5.45977 10.8 5.65977 10.8H47.7398C47.9398 10.8 48.1398 11 48.1398 11.2V27.6C48.1398 27.8 47.9398 28 47.7398 28H32.8698L29.6298 30L32.8698 32H47.8398C48.0398 32 48.2398 32.2 48.2398 32.4V35.7C48.1398 35.9 47.9398 36.1 47.7298 36.1H47.7398ZM6.06976 35.3H47.4398V32.8H32.6698C32.6031 32.8 32.5364 32.7666 32.4698 32.7L28.6298 30.3C28.5298 30.2 28.4298 30.1 28.4298 30C28.4298 29.9 28.5298 29.8 28.6298 29.7L32.4698 27.3C32.5698 27.3 32.5698 27.2 32.6698 27.2H47.3398V11.6H6.06976V35.3Z" fill="#010101"/>
<path d="M34.3897 52.6H19.1197C19.0197 52.6 18.9197 52.5 18.8197 52.5C18.7197 52.4 18.7197 52.3 18.7197 52.2L20.9497 43.7C20.9497 43.5 21.1497 43.4 21.3497 43.4H32.1697C32.3697 43.4 32.4697 43.5 32.5697 43.7L34.7997 52.1V52.2C34.7997 52.4 34.5997 52.6 34.3997 52.6H34.3897ZM19.6197 51.8H33.8797L31.8597 44.1H21.6397L19.6197 51.8Z" fill="#010101"/>
<path d="M41.1704 54.7H12.3404C12.1404 54.7 11.9404 54.5 11.9404 54.3V52.2C11.9404 52 12.1404 51.8 12.3404 51.8H41.1704C41.3704 51.8 41.5704 52 41.5704 52.2V54.3C41.5704 54.5 41.3704 54.7 41.1704 54.7ZM12.7404 53.9H40.7604V52.6H12.7404V53.9Z" fill="#010101"/>
<path d="M26.7999 42.4C26.0899 42.4 25.3799 41.8 25.3799 41C25.3799 40.2 25.9899 39.6 26.7999 39.6C27.5099 39.6 28.2199 40.2 28.2199 41C28.2199 41.8 27.5099 42.4 26.7999 42.4ZM26.7999 40.5C26.4999 40.5 26.1899 40.8 26.1899 41.1C26.1899 41.4 26.4899 41.7 26.7999 41.7C27.1099 41.7 27.4099 41.4 27.4099 41.1C27.4099 40.8 27.1099 40.5 26.7999 40.5Z" fill="#010101"/>
<path d="M35.1997 56.6H2.82969C2.62969 56.6 2.42969 56.4 2.42969 56.2C2.42969 56 2.62969 55.8 2.82969 55.8H35.1997C35.3997 55.8 35.5997 56 35.5997 56.2C35.5997 56.4 35.3997 56.6 35.1997 56.6Z" fill="#010101"/>
<path d="M44.1998 58.6H21.7398C21.5398 58.6 21.3398 58.4 21.3398 58.2C21.3398 58 21.5398 57.8 21.7398 57.8H44.0998C44.2998 57.8 44.4998 58 44.4998 58.2C44.4998 58.4 44.3998 58.6 44.1998 58.6Z" fill="#010101"/>
<path d="M49.2603 58.6H46.4303C46.2303 58.6 46.0303 58.4 46.0303 58.2C46.0303 58 46.2303 57.8 46.4303 57.8H49.2603C49.4603 57.8 49.6603 58 49.6603 58.2C49.6603 58.4 49.4603 58.6 49.2603 58.6Z" fill="#010101"/>
<path d="M12.1401 58.5H1.52012C1.32012 58.5 1.12012 58.3 1.12012 58.1C1.12012 57.9 1.32012 57.7 1.52012 57.7H12.1401C12.3401 57.7 12.5401 57.9 12.5401 58.1C12.5401 58.3 12.3401 58.5 12.1401 58.5Z" fill="#010101"/>
<path d="M48.1497 9C48.0831 9 48.0831 9 48.1497 9H28.2197C28.1197 9 28.0197 8.89999 27.9197 8.79999C27.8197 8.69999 27.8197 8.59999 27.9197 8.39999C28.3197 7.49999 29.2397 6.79998 30.3497 6.69998V6.60001C30.3497 5.00001 31.5597 3.70001 33.1797 3.60001C33.5797 2.30001 34.6997 1.39999 36.1097 1.39999C36.5097 1.39999 37.0197 1.49998 37.4297 1.69998C38.1397 0.799982 39.1497 0.299988 40.2597 0.299988C42.1797 0.299988 43.7997 1.89999 43.7997 3.79999C44.0997 3.69999 44.3097 3.69998 44.6097 3.69998C46.5297 3.69998 48.1497 5.29998 48.1497 7.19998V7.69998C48.3497 7.89998 48.5497 8.19999 48.6597 8.39999C48.7597 8.49999 48.6597 8.69999 48.6597 8.79999C48.3597 8.89999 48.2597 9 48.1497 9ZM28.9297 8.19998H47.3397L47.2397 8.10001C47.2397 8.00001 47.1397 7.89999 47.1397 7.79999C47.1397 7.59999 47.2397 7.39998 47.2397 7.19998C47.2397 5.69998 46.0297 4.5 44.5097 4.5C44.1097 4.5 43.7997 4.59998 43.4997 4.69998C43.3997 4.79998 43.1997 4.70001 43.0997 4.60001C42.9997 4.50001 42.8997 4.39998 42.9997 4.19998V3.79999C42.9997 2.29999 41.7897 1.10001 40.2697 1.10001C39.2597 1.10001 38.4497 1.59999 37.9397 2.39999C37.8397 2.59999 37.6397 2.6 37.4297 2.5C37.0297 2.3 36.6197 2.19998 36.2197 2.19998C35.1097 2.19998 34.0997 3.00001 33.8897 4.10001C33.8897 4.30001 33.6897 4.39999 33.4897 4.39999C32.1797 4.39999 31.1597 5.39998 31.1597 6.69998V7.10001C31.1597 7.20001 31.1597 7.29999 31.0597 7.39999C30.9597 7.49999 30.8597 7.5 30.7597 7.5C30.0497 7.5 29.4497 7.69998 28.9397 8.19998H28.9297Z" fill="#010101"/>
<path d="M0.400002 22.2C0.200002 22.2 0 22 0 21.8V9C0 7.2 1.52 5.69998 3.34 5.69998H10.83C11.03 5.69998 11.23 5.90001 11.23 6.10001C11.23 6.30001 11.03 6.5 10.83 6.5H3.34C1.92 6.5 0.809998 7.6 0.809998 9V21.8C0.809998 22 0.610004 22.2 0.410004 22.2H0.400002ZM53.11 14.8C52.91 14.8 52.71 14.6 52.71 14.4V9C52.71 7.6 51.6 6.5 50.18 6.5C49.98 6.5 49.78 6.30001 49.78 6.10001C49.78 5.90001 49.98 5.69998 50.18 5.69998C52 5.69998 53.52 7.2 53.52 9V14.4C53.52 14.6 53.32 14.8 53.12 14.8H53.11Z" fill="#010101"/>
<path d="M18.8096 23.5H13.0396C12.8396 23.5 12.6396 23.3 12.6396 23.1V17.4C12.6396 17.2 12.8396 17 13.0396 17H18.8096C19.0096 17 19.2096 17.2 19.2096 17.4V23.1C19.2096 23.4 19.1096 23.5 18.8096 23.5ZM13.4496 22.8H18.5097V17.8H13.4496V22.8Z" fill="#010101"/>
<path d="M30.2399 23.5H23.1599C23.0599 23.5 22.8599 23.4 22.8599 23.3C22.8599 23.2 22.7599 23 22.8599 22.9L26.3999 17.2C26.4999 17.1 26.5999 17 26.6999 17C26.7999 17 26.9999 17.1 26.9999 17.2L30.5399 22.9C30.5399 23 30.6399 23 30.6399 23.1C30.6399 23.4 30.4399 23.5 30.2399 23.5ZM23.8699 22.8H29.5399L26.7099 18.2L23.8799 22.8H23.8699Z" fill="#010101"/>
<path d="M37.53 23.4C35.71 23.4 34.29 21.9 34.29 20.2C34.29 18.4 35.81 17 37.53 17C39.25 17 40.77 18.5 40.77 20.2C40.77 22 39.25 23.4 37.53 23.4ZM37.53 17.7C36.11 17.7 35 18.8 35 20.2C35 21.6 36.11 22.7 37.53 22.7C38.95 22.7 40.06 21.6 40.06 20.2C39.96 18.8 38.85 17.7 37.53 17.7Z" fill="#010101"/>
<path d="M53.3097 32.8H32.6697C32.603 32.8 32.5364 32.7666 32.4697 32.7L28.6297 30.3C28.5297 30.2 28.4297 30.1 28.4297 30C28.4297 29.9 28.5297 29.8 28.6297 29.7L32.4697 27.3C32.5697 27.3 32.5697 27.2 32.6697 27.2H53.3097C53.5097 27.2 53.7097 27.4 53.7097 27.6V32.4C53.7097 32.6 53.5097 32.8 53.3097 32.8ZM32.8697 32.1H52.9997V28.1H32.8697L29.6297 30.1L32.8697 32.1Z" fill="#010101"/>
<path d="M54.8204 32.8H53.3004C53.1004 32.8 52.9004 32.6 52.9004 32.4V27.6C52.9004 27.4 53.1004 27.2 53.3004 27.2H54.8204C55.0204 27.2 55.2204 27.4 55.2204 27.6V32.4C55.2204 32.6 55.0204 32.8 54.8204 32.8ZM53.7104 32.1H54.4204V28.1H53.7104V32.1Z" fill="#010101"/>
<path d="M56.6497 32.8H54.8297C54.6297 32.8 54.4297 32.6 54.4297 32.4V27.6C54.4297 27.4 54.6297 27.2 54.8297 27.2H56.6497C57.8597 27.2 58.8797 28.2 58.8797 29.4V30.5C58.8797 31.8 57.9697 32.8 56.6497 32.8ZM55.2297 32.1H56.7497C57.5597 32.1 58.2697 31.4 58.2697 30.6V29.5C58.2697 28.7 57.5597 28 56.7497 28H55.2297V32.1Z" fill="#010101"/>
<path d="M36.2096 32.8C36.0096 32.8 35.8096 32.6 35.8096 32.4V28.7C35.8096 28.5 36.0096 28.3 36.2096 28.3C36.4096 28.3 36.6096 28.5 36.6096 28.7V32.4C36.6096 32.6 36.5096 32.8 36.2096 32.8Z" fill="#010101"/>
<path d="M53.3099 30.4H41.0699C40.8699 30.4 40.6699 30.2 40.6699 30C40.6699 29.8 40.8699 29.6 41.0699 29.6H53.3099C53.5099 29.6 53.7099 29.8 53.7099 30C53.7099 30.2 53.5099 30.4 53.3099 30.4Z" fill="#010101"/>
<path d="M20.1304 48.8H3.34043C3.14043 48.8 2.94043 48.6 2.94043 48.4C2.94043 48.2 3.14043 48 3.34043 48H20.0304C20.2304 48 20.4304 48.2 20.4304 48.4C20.4304 48.7 20.3304 48.8 20.1304 48.8Z" fill="#010101"/>
<path d="M50.1703 48.8H33.6803C33.4803 48.8 33.2803 48.6 33.2803 48.4C33.2803 48.2 33.4803 48 33.6803 48H50.1703C50.3703 48 50.5703 48.2 50.5703 48.4C50.5703 48.7 50.3703 48.8 50.1703 48.8Z" fill="#010101"/>
</svg>
