<svg width="60" height="55" viewBox="0 0 60 55" fill="none" xmlns="http://www.w3.org/2000/svg">
<path d="M50.2693 51.1H13.1393C12.9393 51.1 12.7393 50.9 12.7393 50.7V3.10001C12.7393 2.90001 12.9393 2.70001 13.1393 2.70001H43.4893C43.5893 2.70001 43.6892 2.69999 43.7892 2.79999L50.5693 9.5C50.6693 9.6 50.6693 9.69999 50.6693 9.79999V17.2C50.6693 17.3 50.6693 17.4 50.5693 17.5C50.4693 17.6 50.3693 17.6 50.2693 17.6H36.2093V31.5H50.2693C50.4693 31.5 50.6693 31.7 50.6693 31.9V41.7C50.6693 41.9 50.4693 42.1 50.2693 42.1H29.6293L25.8893 44.2L29.6293 46.4H50.2693C50.4693 46.4 50.6693 46.6 50.6693 46.8V50.7C50.6693 50.9 50.4693 51.1 50.2693 51.1ZM13.4492 50.3H49.8692V47.2H29.5392C29.4726 47.2 29.4059 47.1667 29.3392 47.1L24.9893 44.6C24.8893 44.5 24.7892 44.4 24.7892 44.3C24.7892 44.2 24.8893 44 24.9893 44L29.3392 41.5C29.4392 41.5 29.4392 41.4 29.5392 41.4H49.9693V32.3H35.8092C35.6092 32.3 35.4093 32.1 35.4093 31.9V17.2C35.4093 17 35.6092 16.8 35.8092 16.8H49.7693V9.89999L43.1893 3.39999H13.4492V50.3Z" fill="#010101"/>
<path d="M13.1486 48.4H9.2086C9.0086 48.4 8.80859 48.2 8.80859 48V0.399994C8.80859 0.199994 9.0086 0 9.2086 0H39.5586C39.7586 0 39.9586 0.199994 39.9586 0.399994L40.0586 3.10001C40.0586 3.20001 40.0586 3.29999 39.9586 3.39999C39.8586 3.49999 39.7586 3.5 39.6586 3.5H13.4586V48C13.4586 48.2 13.3586 48.4 13.1586 48.4H13.1486ZM9.4986 47.6H12.7386V3.10001C12.7386 2.90001 12.9386 2.70001 13.1386 2.70001H39.1386V0.799988H9.4986V47.6Z" fill="#010101"/>
<path d="M40.6593 8.70004H13.1393C12.9393 8.70004 12.7393 8.50002 12.7393 8.30002C12.7393 8.10002 12.9393 7.90002 13.1393 7.90002H40.6593C40.8593 7.90002 41.0592 8.10002 41.0592 8.30002C41.0592 8.50002 40.8593 8.70004 40.6593 8.70004Z" fill="#010101"/>
<path d="M58.5692 32.2H35.8092C35.6092 32.2 35.4092 32 35.4092 31.8V17.2C35.4092 17 35.6092 16.8 35.8092 16.8H58.5692C58.7692 16.8 58.9692 17 58.9692 17.2V31.8C58.9692 32.1 58.7692 32.2 58.5692 32.2ZM36.2092 31.5H58.1592V17.6H36.2092V31.5Z" fill="#010101"/>
<path d="M58.5692 32.2H35.8092C35.6092 32.2 35.5092 32.1 35.4092 31.9C35.4092 31.7 35.4092 31.6 35.6092 31.5L44.7092 25.6C44.8092 25.5 45.0092 25.5 45.2192 25.6L47.2392 27.5L49.2592 25.6C49.3592 25.5 49.5592 25.5 49.7692 25.6L58.8692 31.5C58.9692 31.6 59.0692 31.8 59.0692 31.9C58.8692 32.1 58.7692 32.2 58.5592 32.2H58.5692ZM37.1192 31.5H57.3492L49.5592 26.5L47.5392 28.5C47.4392 28.6 47.1392 28.6 47.0292 28.5L45.0092 26.5L37.1192 31.5Z" fill="#010101"/>
<path d="M47.2388 28.6C47.1388 28.6 47.0388 28.6 46.9388 28.5L35.6088 17.5C35.5088 17.4 35.5088 17.2 35.5088 17.1C35.5088 17 35.7088 16.9 35.8088 16.9H58.5688C58.7688 16.9 58.8688 17 58.8688 17.1C58.9688 17.2 58.8688 17.4 58.7688 17.5L47.4388 28.5C47.4388 28.5 47.3388 28.6 47.2388 28.6ZM36.8188 17.6L47.2388 27.7L57.6588 17.6H36.8188Z" fill="#010101"/>
<path d="M6.76903 46.4H0.399017C0.199017 46.4 -0.000976562 46.2 -0.000976562 46V5.20001C-0.000976562 5.00001 0.199017 4.79999 0.399017 4.79999H6.76903C6.96903 4.79999 7.16902 5.00001 7.16902 5.20001V46C7.16902 46.2 7.06903 46.4 6.76903 46.4ZM0.909027 45.7H6.46902V5.70001H0.909027V45.7Z" fill="#010101"/>
<path d="M3.22862 8.39996H0.498627C0.298627 8.39996 0.0986328 8.19997 0.0986328 7.99997C0.0986328 7.79997 0.298627 7.59998 0.498627 7.59998H3.22862C3.42862 7.59998 3.62863 7.79997 3.62863 7.99997C3.62863 8.19997 3.42862 8.39996 3.22862 8.39996Z" fill="#010101"/>
<path d="M4.34938 10.8H0.509369C0.309369 10.8 0.109375 10.6 0.109375 10.4C0.109375 10.2 0.309369 10 0.509369 10H4.34938C4.54938 10 4.74937 10.2 4.74937 10.4C4.74937 10.6 4.54938 10.8 4.34938 10.8Z" fill="#010101"/>
<path d="M3.22862 13.1H0.498627C0.298627 13.1 0.0986328 12.9 0.0986328 12.7C0.0986328 12.5 0.298627 12.3 0.498627 12.3H3.22862C3.42862 12.3 3.62863 12.5 3.62863 12.7C3.52863 12.9 3.42862 13.1 3.22862 13.1Z" fill="#010101"/>
<path d="M4.34938 15.5H0.509369C0.309369 15.5 0.109375 15.3 0.109375 15.1C0.109375 14.9 0.309369 14.7 0.509369 14.7H4.34938C4.54938 14.7 4.74937 14.9 4.74937 15.1C4.74937 15.3 4.54938 15.5 4.34938 15.5Z" fill="#010101"/>
<path d="M3.22862 17.8H0.498627C0.298627 17.8 0.0986328 17.6 0.0986328 17.4C0.0986328 17.2 0.298627 17 0.498627 17H3.22862C3.42862 17 3.62863 17.2 3.62863 17.4C3.52863 17.7 3.42862 17.8 3.22862 17.8Z" fill="#010101"/>
<path d="M4.34938 20.2H0.509369C0.309369 20.2 0.109375 20 0.109375 19.8C0.109375 19.6 0.309369 19.4 0.509369 19.4H4.34938C4.54938 19.4 4.74937 19.6 4.74937 19.8C4.74937 20.1 4.54938 20.2 4.34938 20.2Z" fill="#010101"/>
<path d="M3.22862 22.5H0.498627C0.298627 22.5 0.0986328 22.3 0.0986328 22.1C0.0986328 21.9 0.298627 21.7 0.498627 21.7H3.22862C3.42862 21.7 3.62863 21.9 3.62863 22.1C3.52863 22.4 3.42862 22.5 3.22862 22.5Z" fill="#010101"/>
<path d="M4.34938 24.9H0.509369C0.309369 24.9 0.109375 24.7 0.109375 24.5C0.109375 24.3 0.309369 24.1 0.509369 24.1H4.34938C4.54938 24.1 4.74937 24.3 4.74937 24.5C4.74937 24.8 4.54938 24.9 4.34938 24.9Z" fill="#010101"/>
<path d="M3.22862 27.3H0.498627C0.298627 27.3 0.0986328 27.1 0.0986328 26.9C0.0986328 26.7 0.298627 26.5 0.498627 26.5H3.22862C3.42862 26.5 3.62863 26.7 3.62863 26.9C3.52863 27.1 3.42862 27.3 3.22862 27.3Z" fill="#010101"/>
<path d="M4.34938 29.7H0.509369C0.309369 29.7 0.109375 29.5 0.109375 29.3C0.109375 29.1 0.309369 28.9 0.509369 28.9H4.34938C4.54938 28.9 4.74937 29.1 4.74937 29.3C4.74937 29.5 4.54938 29.7 4.34938 29.7Z" fill="#010101"/>
<path d="M3.22862 32H0.498627C0.298627 32 0.0986328 31.8 0.0986328 31.6C0.0986328 31.4 0.298627 31.2 0.498627 31.2H3.22862C3.42862 31.2 3.62863 31.4 3.62863 31.6C3.62863 31.8 3.42862 32 3.22862 32Z" fill="#010101"/>
<path d="M4.34938 34.4H0.509369C0.309369 34.4 0.109375 34.2 0.109375 34C0.109375 33.8 0.309369 33.6 0.509369 33.6H4.34938C4.54938 33.6 4.74937 33.8 4.74937 34C4.74937 34.2 4.54938 34.4 4.34938 34.4Z" fill="#010101"/>
<path d="M3.22862 36.7H0.498627C0.298627 36.7 0.0986328 36.5 0.0986328 36.3C0.0986328 36.1 0.298627 35.9 0.498627 35.9H3.22862C3.42862 35.9 3.62863 36.1 3.62863 36.3C3.62863 36.5 3.42862 36.7 3.22862 36.7Z" fill="#010101"/>
<path d="M4.34938 39.1H0.509369C0.309369 39.1 0.109375 38.9 0.109375 38.7C0.109375 38.5 0.309369 38.3 0.509369 38.3H4.34938C4.54938 38.3 4.74937 38.5 4.74937 38.7C4.74937 38.9 4.54938 39.1 4.34938 39.1Z" fill="#010101"/>
<path d="M3.22862 41.4H0.498627C0.298627 41.4 0.0986328 41.2 0.0986328 41C0.0986328 40.8 0.298627 40.6 0.498627 40.6H3.22862C3.42862 40.6 3.62863 40.8 3.62863 41C3.62863 41.2 3.42862 41.4 3.22862 41.4Z" fill="#010101"/>
<path d="M4.34938 43.8H0.509369C0.309369 43.8 0.109375 43.6 0.109375 43.4C0.109375 43.2 0.309369 43 0.509369 43H4.34938C4.54938 43 4.74937 43.2 4.74937 43.4C4.74937 43.6 4.54938 43.8 4.34938 43.8Z" fill="#010101"/>
<path d="M52.6993 47.2H29.4293C29.3626 47.2 29.296 47.1667 29.2293 47.1L24.9793 44.6C24.8793 44.5 24.7793 44.4 24.7793 44.3C24.7793 44.2 24.8793 44 24.9793 44L29.3293 41.5C29.4293 41.5 29.4293 41.4 29.5293 41.4H52.7993C52.9993 41.4 53.1993 41.6 53.1993 41.8V46.8C53.0993 47 52.8993 47.2 52.6893 47.2H52.6993ZM29.6393 46.4H52.3993V42.1H29.6393L25.8993 44.2L29.6393 46.4Z" fill="#010101"/>
<path d="M54.4188 47.2H52.6988C52.4988 47.2 52.2988 47 52.2988 46.8V41.8C52.2988 41.6 52.4988 41.4 52.6988 41.4H54.4188C54.6188 41.4 54.8188 41.6 54.8188 41.8V46.8C54.8188 47 54.6188 47.2 54.4188 47.2ZM53.0988 46.4H54.0088V42.1H53.0988V46.4Z" fill="#010101"/>
<path d="M56.5385 47.2H54.4185C54.2185 47.2 54.0186 47 54.0186 46.8V41.8C54.0186 41.6 54.2185 41.4 54.4185 41.4H56.5385C57.9585 41.4 59.0686 42.5 59.0686 43.9V44.8C59.0686 46.1 57.9585 47.2 56.5385 47.2ZM54.8186 46.4H56.5385C57.4485 46.4 58.2585 45.6 58.2585 44.7V43.8C58.2585 42.9 57.4485 42.1 56.5385 42.1H54.8186V46.4Z" fill="#010101"/>
<path d="M33.4791 46C33.2791 46 33.0791 45.8 33.0791 45.6V41.7C33.0791 41.5 33.2791 41.3 33.4791 41.3C33.6791 41.3 33.8791 41.5 33.8791 41.7V45.6C33.8791 45.8 33.6791 46 33.4791 46Z" fill="#010101"/>
<path d="M52.6991 44.7H38.9391C38.7391 44.7 38.5391 44.5 38.5391 44.3C38.5391 44.1 38.7391 43.9 38.9391 43.9H52.6991C52.8991 43.9 53.0991 44.1 53.0991 44.3C53.0991 44.5 52.8991 44.7 52.6991 44.7Z" fill="#010101"/>
<path d="M40.2586 53.3H4.24863C4.04863 53.3 3.84863 53.1 3.84863 52.9C3.84863 52.7 4.04863 52.5 4.24863 52.5H40.2586C40.4586 52.5 40.6586 52.7 40.6586 52.9C40.5586 53.1 40.4586 53.3 40.2586 53.3Z" fill="#010101"/>
<path d="M50.2689 55H25.2789C25.0789 55 24.8789 54.8 24.8789 54.6C24.8789 54.4 25.0789 54.2 25.2789 54.2H50.2689C50.4689 54.2 50.6689 54.4 50.6689 54.6C50.5689 54.8 50.4689 55 50.2689 55Z" fill="#010101"/>
<path d="M55.9394 55H52.7994C52.5994 55 52.3994 54.8 52.3994 54.6C52.3994 54.4 52.5994 54.2 52.7994 54.2H55.9394C56.1394 54.2 56.3394 54.4 56.3394 54.6C56.2394 54.8 56.1394 55 55.9394 55Z" fill="#010101"/>
<path d="M14.5587 55H2.82872C2.62872 55 2.42871 54.8 2.42871 54.6C2.42871 54.4 2.62872 54.2 2.82872 54.2H14.6687C14.8687 54.2 15.0687 54.4 15.0687 54.6C14.9687 54.8 14.7687 55 14.5587 55Z" fill="#010101"/>
<path d="M28.5191 16H15.7691C15.5691 16 15.3691 15.8 15.3691 15.6C15.3691 15.4 15.5691 15.2 15.7691 15.2H28.5191C28.7191 15.2 28.9191 15.4 28.9191 15.6C28.9191 15.8 28.7191 16 28.5191 16Z" fill="#010101"/>
<path d="M24.9795 19.2H15.8795C15.6795 19.2 15.4795 19 15.4795 18.8C15.4795 18.6 15.6795 18.4 15.8795 18.4H24.9795C25.1795 18.4 25.3795 18.6 25.3795 18.8C25.2795 19 25.1795 19.2 24.9795 19.2Z" fill="#010101"/>
<path d="M33.2788 22.4H18.4088C18.2088 22.4 18.0088 22.2 18.0088 22C18.0088 21.8 18.2088 21.6 18.4088 21.6H33.2788C33.4788 21.6 33.6788 21.8 33.6788 22C33.6788 22.2 33.4788 22.4 33.2788 22.4Z" fill="#010101"/>
<path d="M33.2789 25.6H15.7789C15.5789 25.6 15.3789 25.4 15.3789 25.2C15.3789 25 15.5789 24.8 15.7789 24.8H33.2789C33.4789 24.8 33.6789 25 33.6789 25.2C33.6789 25.4 33.4789 25.6 33.2789 25.6Z" fill="#010101"/>
</svg>
