<svg width="125" height="116" viewBox="0 0 125 116" fill="none" xmlns="http://www.w3.org/2000/svg">
<path d="M106.232 107.775H27.9218C27.4999 107.775 27.0781 107.353 27.0781 106.931V6.53845C27.0781 6.11663 27.4999 5.69482 27.9218 5.69482H91.9328C92.1437 5.69482 92.3546 5.69477 92.5655 5.90568L106.865 20.0367C107.076 20.2476 107.076 20.4584 107.076 20.6694V36.2767C107.076 36.4876 107.076 36.6985 106.865 36.9094C106.654 37.1203 106.443 37.1203 106.232 37.1203H76.5786V66.4368H106.232C106.654 66.4368 107.076 66.8586 107.076 67.2804V87.9496C107.076 88.3714 106.654 88.7932 106.232 88.7932H62.7008L54.8127 93.2223L62.7008 97.8623H106.232C106.654 97.8623 107.076 98.2841 107.076 98.7059V106.931C107.076 107.353 106.654 107.775 106.232 107.775ZM28.5756 106.088H105.389V99.5496H62.5109C62.3703 99.5496 62.2297 99.4793 62.0891 99.3387L52.9146 94.0659C52.7036 93.855 52.4927 93.6441 52.4927 93.4332C52.4927 93.2223 52.7036 92.8005 52.9146 92.8005L62.0891 87.5277C62.3 87.5277 62.3 87.3168 62.5109 87.3168H105.6V68.124H75.735C75.3131 68.124 74.8913 67.7022 74.8913 67.2804V36.2767C74.8913 35.8549 75.3131 35.433 75.735 35.433H105.178V20.8803L91.3001 7.17115H28.5756V106.088Z" fill="white" fill-opacity="0.83"/>
<path d="M27.9425 102.08H19.6327C19.2109 102.08 18.7891 101.658 18.7891 101.237V0.843626C18.7891 0.421806 19.2109 0 19.6327 0H83.6438C84.0656 0 84.4874 0.421806 84.4874 0.843626L84.6983 6.53821C84.6983 6.74912 84.6983 6.96 84.4874 7.17091C84.2765 7.38182 84.0656 7.38184 83.8547 7.38184H28.5964V101.237C28.5964 101.658 28.3855 102.08 27.9636 102.08H27.9425ZM20.2443 100.393H27.0778V6.53821C27.0778 6.11639 27.4996 5.69459 27.9215 5.69459H82.758V1.68725H20.2443V100.393Z" fill="white" fill-opacity="0.83"/>
<path d="M85.9641 18.3484H27.9218C27.4999 18.3484 27.0781 17.9266 27.0781 17.5048C27.0781 17.0829 27.4999 16.6611 27.9218 16.6611H85.9641C86.3859 16.6611 86.8077 17.0829 86.8077 17.5048C86.8077 17.9266 86.3859 18.3484 85.9641 18.3484Z" fill="white" fill-opacity="0.83"/>
<path d="M123.735 67.9128H75.7323C75.3105 67.9128 74.8887 67.4909 74.8887 67.0691V36.2763C74.8887 35.8545 75.3105 35.4326 75.7323 35.4326H123.735C124.157 35.4326 124.579 35.8545 124.579 36.2763V67.0691C124.579 67.7018 124.157 67.9128 123.735 67.9128ZM76.576 66.4364H122.871V37.1199H76.576V66.4364Z" fill="white" fill-opacity="0.83"/>
<path d="M123.735 67.9127H75.7323C75.3105 67.9127 75.0996 67.7018 74.8887 67.2799C74.8887 66.8581 74.8887 66.6472 75.3105 66.4363L94.5033 53.9927C94.7142 53.7817 95.136 53.7817 95.5789 53.9927L99.8393 57.9999L104.1 53.9927C104.311 53.7817 104.732 53.7817 105.175 53.9927L124.368 66.4363C124.579 66.6472 124.79 67.069 124.79 67.2799C124.368 67.7018 124.157 67.9127 123.714 67.9127H123.735ZM78.4952 66.4363H121.162L104.732 55.8908L100.472 60.109C100.261 60.3199 99.6284 60.3199 99.3964 60.109L95.136 55.8908L78.4952 66.4363Z" fill="white" fill-opacity="0.83"/>
<path d="M99.8413 60.32C99.6304 60.32 99.4195 60.32 99.2085 60.1091L75.3125 36.909C75.1016 36.6981 75.1016 36.2763 75.1016 36.0654C75.1016 35.8545 75.5234 35.6436 75.7343 35.6436H123.737C124.159 35.6436 124.37 35.8545 124.37 36.0654C124.581 36.2763 124.37 36.6981 124.159 36.909L100.263 60.1091C100.263 60.1091 100.052 60.32 99.8413 60.32ZM77.8645 37.1199L99.8413 58.4218L121.818 37.1199H77.8645Z" fill="white" fill-opacity="0.83"/>
<path d="M14.4856 97.8624H1.05066C0.628838 97.8624 0.207031 97.4406 0.207031 97.0188V10.9677C0.207031 10.5459 0.628838 10.124 1.05066 10.124H14.4856C14.9074 10.124 15.3292 10.5459 15.3292 10.9677V97.0188C15.3292 97.4406 15.1183 97.8624 14.4856 97.8624ZM2.12632 96.3861H13.8529V12.0223H2.12632V96.3861Z" fill="white" fill-opacity="0.83"/>
<path d="M7.01942 17.7165H1.26159C0.839775 17.7165 0.417969 17.2947 0.417969 16.8729C0.417969 16.4511 0.839775 16.0293 1.26159 16.0293H7.01942C7.44124 16.0293 7.86308 16.4511 7.86308 16.8729C7.86308 17.2947 7.44124 17.7165 7.01942 17.7165Z" fill="white" fill-opacity="0.83"/>
<path d="M9.38203 22.7776H1.28308C0.861259 22.7776 0.439453 22.3558 0.439453 21.934C0.439453 21.5121 0.861259 21.0903 1.28308 21.0903H9.38203C9.80385 21.0903 10.2257 21.5121 10.2257 21.934C10.2257 22.3558 9.80385 22.7776 9.38203 22.7776Z" fill="white" fill-opacity="0.83"/>
<path d="M7.01942 27.6292H1.26159C0.839775 27.6292 0.417969 27.2074 0.417969 26.7856C0.417969 26.3638 0.839775 25.9419 1.26159 25.9419H7.01942C7.44124 25.9419 7.86308 26.3638 7.86308 26.7856C7.65217 27.2074 7.44124 27.6292 7.01942 27.6292Z" fill="white" fill-opacity="0.83"/>
<path d="M9.38203 32.6902H1.28308C0.861259 32.6902 0.439453 32.2684 0.439453 31.8466C0.439453 31.4247 0.861259 31.0029 1.28308 31.0029H9.38203C9.80385 31.0029 10.2257 31.4247 10.2257 31.8466C10.2257 32.2684 9.80385 32.6902 9.38203 32.6902Z" fill="white" fill-opacity="0.83"/>
<path d="M7.01942 37.5417H1.26159C0.839775 37.5417 0.417969 37.1199 0.417969 36.6981C0.417969 36.2763 0.839775 35.8545 1.26159 35.8545H7.01942C7.44124 35.8545 7.86308 36.2763 7.86308 36.6981C7.65217 37.3308 7.44124 37.5417 7.01942 37.5417Z" fill="white" fill-opacity="0.83"/>
<path d="M9.38203 42.6038H1.28308C0.861259 42.6038 0.439453 42.1819 0.439453 41.7601C0.439453 41.3383 0.861259 40.9165 1.28308 40.9165H9.38203C9.80385 40.9165 10.2257 41.3383 10.2257 41.7601C10.2257 42.3929 9.80385 42.6038 9.38203 42.6038Z" fill="white" fill-opacity="0.83"/>
<path d="M7.01942 47.4553H1.26159C0.839775 47.4553 0.417969 47.0335 0.417969 46.6117C0.417969 46.1899 0.839775 45.7681 1.26159 45.7681H7.01942C7.44124 45.7681 7.86308 46.1899 7.86308 46.6117C7.65217 47.2444 7.44124 47.4553 7.01942 47.4553Z" fill="white" fill-opacity="0.83"/>
<path d="M9.38203 52.5164H1.28308C0.861259 52.5164 0.439453 52.0945 0.439453 51.6727C0.439453 51.2509 0.861259 50.8291 1.28308 50.8291H9.38203C9.80385 50.8291 10.2257 51.2509 10.2257 51.6727C10.2257 52.3055 9.80385 52.5164 9.38203 52.5164Z" fill="white" fill-opacity="0.83"/>
<path d="M7.01942 57.5779H1.26159C0.839775 57.5779 0.417969 57.1561 0.417969 56.7343C0.417969 56.3124 0.839775 55.8906 1.26159 55.8906H7.01942C7.44124 55.8906 7.86308 56.3124 7.86308 56.7343C7.65217 57.1561 7.44124 57.5779 7.01942 57.5779Z" fill="white" fill-opacity="0.83"/>
<path d="M9.38203 62.6404H1.28308C0.861259 62.6404 0.439453 62.2186 0.439453 61.7968C0.439453 61.3749 0.861259 60.9531 1.28308 60.9531H9.38203C9.80385 60.9531 10.2257 61.3749 10.2257 61.7968C10.2257 62.2186 9.80385 62.6404 9.38203 62.6404Z" fill="white" fill-opacity="0.83"/>
<path d="M7.01942 67.4905H1.26159C0.839775 67.4905 0.417969 67.0687 0.417969 66.6468C0.417969 66.225 0.839775 65.8032 1.26159 65.8032H7.01942C7.44124 65.8032 7.86308 66.225 7.86308 66.6468C7.86308 67.0687 7.44124 67.4905 7.01942 67.4905Z" fill="white" fill-opacity="0.83"/>
<path d="M9.38203 72.5535H1.28308C0.861259 72.5535 0.439453 72.1317 0.439453 71.7098C0.439453 71.288 0.861259 70.8662 1.28308 70.8662H9.38203C9.80385 70.8662 10.2257 71.288 10.2257 71.7098C10.2257 72.1317 9.80385 72.5535 9.38203 72.5535Z" fill="white" fill-opacity="0.83"/>
<path d="M7.01942 77.4041H1.26159C0.839775 77.4041 0.417969 76.9822 0.417969 76.5604C0.417969 76.1386 0.839775 75.7168 1.26159 75.7168H7.01942C7.44124 75.7168 7.86308 76.1386 7.86308 76.5604C7.86308 76.9822 7.44124 77.4041 7.01942 77.4041Z" fill="white" fill-opacity="0.83"/>
<path d="M9.38203 82.4656H1.28308C0.861259 82.4656 0.439453 82.0438 0.439453 81.622C0.439453 81.2002 0.861259 80.7783 1.28308 80.7783H9.38203C9.80385 80.7783 10.2257 81.2002 10.2257 81.622C10.2257 82.0438 9.80385 82.4656 9.38203 82.4656Z" fill="white" fill-opacity="0.83"/>
<path d="M7.01942 87.3166H1.26159C0.839775 87.3166 0.417969 86.8948 0.417969 86.473C0.417969 86.0512 0.839775 85.6294 1.26159 85.6294H7.01942C7.44124 85.6294 7.86308 86.0512 7.86308 86.473C7.86308 86.8948 7.44124 87.3166 7.01942 87.3166Z" fill="white" fill-opacity="0.83"/>
<path d="M9.38203 92.3782H1.28308C0.861259 92.3782 0.439453 91.9564 0.439453 91.5345C0.439453 91.1127 0.861259 90.6909 1.28308 90.6909H9.38203C9.80385 90.6909 10.2257 91.1127 10.2257 91.5345C10.2257 91.9564 9.80385 92.3782 9.38203 92.3782Z" fill="white" fill-opacity="0.83"/>
<path d="M111.355 99.5497H62.276C62.1354 99.5497 61.9948 99.4794 61.8542 99.3388L52.8906 94.066C52.6797 93.8551 52.4688 93.6442 52.4688 93.4333C52.4688 93.2224 52.6797 92.8006 52.8906 92.8006L62.0651 87.5278C62.2761 87.5278 62.276 87.3169 62.487 87.3169H111.566C111.987 87.3169 112.409 87.7387 112.409 88.1605V98.706C112.198 99.1278 111.777 99.5497 111.334 99.5497H111.355ZM62.719 97.8624H110.722V88.7933H62.719L54.8309 93.2224L62.719 97.8624Z" fill="white" fill-opacity="0.83"/>
<path d="M114.985 99.5497H111.357C110.935 99.5497 110.514 99.1278 110.514 98.706V88.1605C110.514 87.7387 110.935 87.3169 111.357 87.3169H114.985C115.407 87.3169 115.829 87.7387 115.829 88.1605V98.706C115.829 99.1278 115.407 99.5497 114.985 99.5497ZM112.201 97.8624H114.12V88.7933H112.201V97.8624Z" fill="white" fill-opacity="0.83"/>
<path d="M119.456 99.5497H114.984C114.562 99.5497 114.141 99.1278 114.141 98.706V88.1605C114.141 87.7387 114.562 87.3169 114.984 87.3169H119.456C122.45 87.3169 124.792 89.6369 124.792 92.5896V94.4878C124.792 97.2296 122.45 99.5497 119.456 99.5497ZM115.828 97.8624H119.456C121.375 97.8624 123.083 96.1751 123.083 94.277V92.3787C123.083 90.4805 121.375 88.7933 119.456 88.7933H115.828V97.8624Z" fill="white" fill-opacity="0.83"/>
<path d="M70.8202 97.0182C70.3984 97.0182 69.9766 96.5964 69.9766 96.1746V87.9492C69.9766 87.5273 70.3984 87.1055 70.8202 87.1055C71.242 87.1055 71.6638 87.5273 71.6638 87.9492V96.1746C71.6638 96.5964 71.242 97.0182 70.8202 97.0182Z" fill="white" fill-opacity="0.83"/>
<path d="M111.357 94.2757H82.3358C81.914 94.2757 81.4922 93.8538 81.4922 93.432C81.4922 93.0102 81.914 92.5884 82.3358 92.5884H111.357C111.779 92.5884 112.201 93.0102 112.201 93.432C112.201 93.8538 111.779 94.2757 111.357 94.2757Z" fill="white" fill-opacity="0.83"/>
<path d="M85.1203 112.414H9.17175C8.74993 112.414 8.32812 111.992 8.32812 111.571C8.32812 111.149 8.74993 110.727 9.17175 110.727H85.1203C85.5421 110.727 85.964 111.149 85.964 111.571C85.7531 111.992 85.5421 112.414 85.1203 112.414Z" fill="white" fill-opacity="0.83"/>
<path d="M106.23 116H53.5233C53.1015 116 52.6797 115.578 52.6797 115.156C52.6797 114.734 53.1015 114.312 53.5233 114.312H106.23C106.651 114.312 107.073 114.734 107.073 115.156C106.862 115.578 106.651 116 106.23 116Z" fill="white" fill-opacity="0.83"/>
<path d="M118.191 116H111.568C111.146 116 110.725 115.578 110.725 115.156C110.725 114.734 111.146 114.312 111.568 114.312H118.191C118.613 114.312 119.034 114.734 119.034 115.156C118.824 115.578 118.613 116 118.191 116Z" fill="white" fill-opacity="0.83"/>
<path d="M30.9154 116H6.17569C5.75387 116 5.33203 115.578 5.33203 115.156C5.33203 114.734 5.75387 114.312 6.17569 114.312H31.1474C31.5692 114.312 31.991 114.734 31.991 115.156C31.7801 115.578 31.3583 116 30.9154 116Z" fill="white" fill-opacity="0.83"/>
<path d="M60.3577 33.7454H33.4667C33.0449 33.7454 32.623 33.3236 32.623 32.9017C32.623 32.4799 33.0449 32.0581 33.4667 32.0581H60.3577C60.7795 32.0581 61.2013 32.4799 61.2013 32.9017C61.2013 33.3236 60.7795 33.7454 60.3577 33.7454Z" fill="white" fill-opacity="0.83"/>
<path d="M52.8919 40.4944H33.6991C33.2773 40.4944 32.8555 40.0726 32.8555 39.6508C32.8555 39.2289 33.2773 38.8071 33.6991 38.8071H52.8919C53.3137 38.8071 53.7355 39.2289 53.7355 39.6508C53.5246 40.0726 53.3137 40.4944 52.8919 40.4944Z" fill="white" fill-opacity="0.83"/>
<path d="M70.3973 47.2439H39.0351C38.6132 47.2439 38.1914 46.8221 38.1914 46.4003C38.1914 45.9784 38.6132 45.5566 39.0351 45.5566H70.3973C70.8191 45.5566 71.2409 45.9784 71.2409 46.4003C71.2409 46.8221 70.8191 47.2439 70.3973 47.2439Z" fill="white" fill-opacity="0.83"/>
<path d="M70.3973 53.9925H33.4882C33.0663 53.9925 32.6445 53.5707 32.6445 53.1489C32.6445 52.727 33.0663 52.3052 33.4882 52.3052H70.3973C70.8192 52.3052 71.241 52.727 71.241 53.1489C71.241 53.5707 70.8192 53.9925 70.3973 53.9925Z" fill="white" fill-opacity="0.83"/>
</svg>
