<svg width="120" height="136" viewBox="0 0 120 136" fill="none" xmlns="http://www.w3.org/2000/svg">
<path d="M107.738 120.381H8.5014C3.78361 120.381 0 116.651 0 111.989V36.2249C0 31.5626 3.78361 27.8326 8.5014 27.8326H107.505C112.223 27.8326 116.006 31.5626 116.006 36.2249V111.989C116.006 116.651 112.223 120.381 107.738 120.381ZM8.5014 29.6976C4.71782 29.6976 1.89178 32.7282 1.89178 36.2249V111.989C1.89178 115.718 4.97473 118.516 8.5014 118.516H107.505C111.288 118.516 114.114 115.485 114.114 111.989V36.2249C114.114 32.495 111.055 29.6976 107.505 29.6976H8.5014Z" fill="white" fill-opacity="0.83"/>
<path d="M93.3291 112.688H8.9928C8.52569 112.688 8.05859 112.222 8.05859 111.755V36.458C8.05859 35.9917 8.52569 35.5255 8.9928 35.5255H93.3291C93.7962 35.5255 94.2633 35.9917 94.2633 36.458V111.988C94.2633 112.455 93.7962 112.688 93.3291 112.688ZM9.927 111.056H92.3716V37.3904H9.927V111.056Z" fill="white" fill-opacity="0.83"/>
<path d="M103.954 96.3696C101.128 96.3696 98.7461 94.0384 98.7461 91.2409C98.7461 88.4435 101.105 86.1123 103.954 86.1123C106.804 86.1123 109.163 88.4435 109.163 91.2409C109.163 94.0384 106.804 96.3696 103.954 96.3696ZM103.954 87.9773C102.063 87.9773 100.638 89.6091 100.638 91.4741C100.638 93.339 102.063 94.7377 103.954 94.7377C105.846 94.7377 107.504 93.339 107.504 91.4741C107.271 89.376 105.846 87.9773 103.954 87.9773Z" fill="white" fill-opacity="0.83"/>
<path d="M103.954 108.725C101.128 108.725 98.7461 106.394 98.7461 103.596C98.7461 100.799 101.105 98.4677 103.954 98.4677C106.804 98.4677 109.163 100.799 109.163 103.596C109.163 106.627 106.804 108.725 103.954 108.725ZM103.954 100.333C102.063 100.333 100.638 101.964 100.638 103.829C100.638 105.694 102.063 107.093 103.954 107.093C105.846 107.093 107.504 105.694 107.504 103.829C107.271 101.964 105.846 100.333 103.954 100.333Z" fill="white" fill-opacity="0.83"/>
<path d="M107.505 59.0708H100.405C99.9378 59.0708 99.4707 58.6045 99.4707 58.1383C99.4707 57.672 99.9378 57.2058 100.405 57.2058H107.505C107.972 57.2058 108.439 57.672 108.439 58.1383C108.439 58.6045 107.972 59.0708 107.505 59.0708Z" fill="white" fill-opacity="0.83"/>
<path d="M107.505 64.1993H100.405C99.9378 64.1993 99.4707 63.733 99.4707 63.2668C99.4707 62.8006 99.9378 62.3344 100.405 62.3344H107.505C107.972 62.3344 108.439 62.8006 108.439 63.2668C108.439 63.733 107.972 64.1993 107.505 64.1993Z" fill="white" fill-opacity="0.83"/>
<path d="M94.9859 29.6973H79.1509C78.6838 29.6973 78.1934 29.4641 78.1934 28.9979V28.0654C78.1934 23.1699 82.2105 19.4401 86.9283 19.4401C91.646 19.4401 95.6632 23.403 95.6632 28.0654V28.9979C95.6632 29.4641 95.1961 29.6973 94.9625 29.6973H94.9859ZM80.0851 27.8323H94.0283C94.0283 24.1024 90.9454 21.0719 86.9283 21.0719C83.1447 21.0719 80.0851 24.1024 80.0851 27.8323Z" fill="white" fill-opacity="0.83"/>
<path d="M86.9513 21.0722H86.7177L26.9513 1.72331C26.4842 1.49019 26.2507 1.02395 26.4842 0.557715C26.7178 0.0914771 27.1848 -0.14167 27.6753 0.0914486L87.2082 19.4404C87.6753 19.6735 87.9088 20.1397 87.6753 20.606C87.6753 20.8391 87.4418 21.0722 86.9747 21.0722H86.9513Z" fill="white" fill-opacity="0.83"/>
<path d="M27.8868 125.975H17.7272C17.2601 125.975 16.793 125.509 16.793 125.043V119.448C16.793 118.982 17.2601 118.516 17.7272 118.516H27.8868C28.3539 118.516 28.8211 118.982 28.8211 119.448V125.043C28.8211 125.742 28.3539 125.975 27.8868 125.975ZM18.6614 124.344H26.9292V120.381H18.6614V124.344Z" fill="white" fill-opacity="0.83"/>
<path d="M98.5137 125.975H88.3541C87.887 125.975 87.4199 125.509 87.4199 125.043V119.448C87.4199 118.982 87.887 118.516 88.3541 118.516H98.5137C98.9808 118.516 99.4479 118.982 99.4479 119.448V125.043C99.4479 125.742 98.9808 125.975 98.5137 125.975ZM89.3117 124.344H97.5795V120.381H89.3117V124.344Z" fill="white" fill-opacity="0.83"/>
<path d="M51.0312 88.2105C39.6805 88.2105 29.0538 83.3149 21.7435 74.6895C21.51 74.4564 21.51 73.9902 21.7435 73.5239C29.0771 64.8985 39.7038 60.0031 51.0312 60.0031C62.3586 60.0031 73.0086 64.8985 80.3189 73.5239C80.5524 73.757 80.5524 74.2233 80.3189 74.6895C72.9853 83.3149 62.3586 88.2105 51.0312 88.2105ZM23.6354 74.2233C30.4785 81.9162 40.6381 86.5786 51.0312 86.5786C61.4244 86.5786 71.584 82.1494 78.4271 74.2233C71.584 66.5304 61.4244 61.868 51.0312 61.868C40.6381 61.868 30.7121 66.2973 23.6354 74.2233Z" fill="white" fill-opacity="0.83"/>
<path d="M51.0322 88.21C43.2315 88.21 36.8555 81.9158 36.8555 74.2229C36.8555 66.5299 43.2315 60.2357 51.0322 60.2357C58.8329 60.2357 65.2089 66.5299 65.2089 74.2229C65.4425 81.9158 59.0665 88.21 51.0322 88.21ZM51.0322 61.8675C44.1891 61.8675 38.5138 67.4624 38.5138 74.2229C38.5138 80.9833 44.1891 86.5781 51.0322 86.5781C57.8753 86.5781 63.5507 80.9833 63.5507 74.2229C63.5507 67.4624 57.8753 61.8675 51.0322 61.8675Z" fill="white" fill-opacity="0.83"/>
<path d="M51.0306 80.7504C47.247 80.7504 44.1875 77.7198 44.1875 73.9899C44.1875 70.26 47.247 67.2295 51.0306 67.2295C54.8142 67.2295 57.8737 70.26 57.8737 73.9899C57.8737 77.9529 54.7908 80.7504 51.0306 80.7504ZM51.0306 69.0944C48.2046 69.0944 46.0793 71.4256 46.0793 73.9899C46.0793 76.7874 48.4382 78.8854 51.0306 78.8854C53.8566 78.8854 55.9819 76.5542 55.9819 73.9899C56.2155 71.4256 53.8566 69.0944 51.0306 69.0944Z" fill="white" fill-opacity="0.83"/>
<path d="M76.5583 95.4369H25.7604C25.2933 95.4369 24.8262 94.9707 24.8262 94.5045C24.8262 94.0382 25.2933 93.572 25.7604 93.572H76.7919C77.259 93.572 77.7261 94.0382 77.7261 94.5045C77.7261 94.9707 77.0255 95.4369 76.535 95.4369H76.5583Z" fill="white" fill-opacity="0.83"/>
<path d="M76.5583 101.265H25.7604C25.2933 101.265 24.8262 100.799 24.8262 100.332C24.8262 99.8662 25.0597 99.4 25.7604 99.4H76.7919C77.259 99.4 77.7261 99.8662 77.7261 100.332C77.7261 100.799 77.0255 101.265 76.535 101.265H76.5583Z" fill="white" fill-opacity="0.83"/>
<path d="M107.74 76.5542H100.172C99.7053 76.5542 99.2148 76.0879 99.2148 75.6217V70.4931C99.2148 70.0269 99.682 69.5607 100.172 69.5607H107.74C108.207 69.5607 108.674 70.0269 108.674 70.4931V75.6217C108.674 76.0879 108.207 76.5542 107.74 76.5542ZM100.896 74.6892H106.805V71.4256H100.896V74.6892Z" fill="white" fill-opacity="0.83"/>
<path d="M84.8255 136H6.14123C5.67412 136 5.20703 135.534 5.20703 135.067C5.20703 134.601 5.67412 134.135 6.14123 134.135H84.8255C85.2926 134.135 85.7597 134.601 85.7597 135.067C85.7597 135.534 85.2926 136 84.8255 136Z" fill="white" fill-opacity="0.83"/>
<path d="M106.78 131.104H52.4322C51.9651 131.104 51.498 130.638 51.498 130.172C51.498 129.706 51.9651 129.239 52.4322 129.239H106.78C107.247 129.239 107.738 129.706 107.738 130.172C107.738 130.871 107.271 131.104 106.78 131.104Z" fill="white" fill-opacity="0.83"/>
<path d="M119.066 131.104H112.223C111.756 131.104 111.266 130.638 111.266 130.172C111.266 129.706 111.733 129.239 112.223 129.239H119.066C119.533 129.239 120.001 129.706 120.001 130.172C120.001 130.871 119.533 131.104 119.066 131.104Z" fill="white" fill-opacity="0.83"/>
<path d="M28.8203 131.338H3.0592C2.59209 131.338 2.125 130.871 2.125 130.405C2.125 129.939 2.59209 129.473 3.0592 129.473H28.8203C29.2874 129.473 29.7545 129.939 29.7545 130.405C29.7545 130.871 29.5209 131.338 28.8203 131.338Z" fill="white" fill-opacity="0.83"/>
</svg>
