<svg width="52" height="58" viewBox="0 0 52 58" fill="none" xmlns="http://www.w3.org/2000/svg">
<path d="M45.9463 51.3389H3.62462C1.61262 51.3389 -0.000976562 49.7482 -0.000976562 47.7598V15.4488C-0.000976562 13.4605 1.61262 11.8698 3.62462 11.8698H45.8467C47.8587 11.8698 49.4723 13.4605 49.4723 15.4488V47.7598C49.4723 49.7482 47.8587 51.3389 45.9463 51.3389ZM3.62462 12.6651C2.01104 12.6651 0.805812 13.9576 0.805812 15.4488V47.7598C0.805812 49.3505 2.1206 50.5435 3.62462 50.5435H45.8467C47.4603 50.5435 48.6655 49.2511 48.6655 47.7598V15.4488C48.6655 13.8582 47.3607 12.6651 45.8467 12.6651H3.62462Z" fill="black" fill-opacity="0.83"/>
<path d="M39.8009 48.0581H3.83396C3.63475 48.0581 3.43555 47.8592 3.43555 47.6604V15.5483C3.43555 15.3494 3.63475 15.1506 3.83396 15.1506H39.8009C40.0001 15.1506 40.1993 15.3494 40.1993 15.5483V47.7598C40.1993 47.9586 40.0001 48.0581 39.8009 48.0581ZM4.23237 47.3621H39.3925V15.9459H4.23237V47.3621Z" fill="black" fill-opacity="0.83"/>
<path d="M44.3325 41.0988C43.1273 41.0988 42.1113 40.1046 42.1113 38.9116C42.1113 37.7185 43.1173 36.7243 44.3325 36.7243C45.5477 36.7243 46.5537 37.7185 46.5537 38.9116C46.5537 40.1046 45.5477 41.0988 44.3325 41.0988ZM44.3325 37.5197C43.5257 37.5197 42.9181 38.2156 42.9181 39.011C42.9181 39.8063 43.5257 40.4028 44.3325 40.4028C45.1393 40.4028 45.8465 39.8063 45.8465 39.011C45.7469 38.1162 45.1393 37.5197 44.3325 37.5197Z" fill="black" fill-opacity="0.83"/>
<path d="M44.3325 46.368C43.1273 46.368 42.1113 45.3738 42.1113 44.1807C42.1113 42.9877 43.1173 41.9936 44.3325 41.9936C45.5477 41.9936 46.5537 42.9877 46.5537 44.1807C46.5537 45.4732 45.5477 46.368 44.3325 46.368ZM44.3325 42.7889C43.5257 42.7889 42.9181 43.4848 42.9181 44.2802C42.9181 45.0755 43.5257 45.672 44.3325 45.672C45.1393 45.672 45.8465 45.0755 45.8465 44.2802C45.7469 43.4848 45.1393 42.7889 44.3325 42.7889Z" fill="black" fill-opacity="0.83"/>
<path d="M45.8463 25.1919H42.8183C42.6191 25.1919 42.4199 24.9931 42.4199 24.7942C42.4199 24.5954 42.6191 24.3966 42.8183 24.3966H45.8463C46.0455 24.3966 46.2447 24.5954 46.2447 24.7942C46.2447 24.9931 46.0455 25.1919 45.8463 25.1919Z" fill="black" fill-opacity="0.83"/>
<path d="M45.8463 27.3791H42.8183C42.6191 27.3791 42.4199 27.1803 42.4199 26.9814C42.4199 26.7826 42.6191 26.5838 42.8183 26.5838H45.8463C46.0455 26.5838 46.2447 26.7826 46.2447 26.9814C46.2447 27.1803 46.0455 27.3791 45.8463 27.3791Z" fill="black" fill-opacity="0.83"/>
<path d="M40.5082 12.665H33.7551C33.5559 12.665 33.3467 12.5656 33.3467 12.3667V11.9691C33.3467 9.88129 35.0599 8.29062 37.0719 8.29062C39.0839 8.29062 40.7971 9.98071 40.7971 11.9691V12.3667C40.7971 12.5656 40.5978 12.665 40.4982 12.665H40.5082ZM34.1535 11.8697H40.0998C40.0998 10.279 38.785 8.98653 37.0719 8.98653C35.4583 8.98653 34.1535 10.279 34.1535 11.8697Z" fill="black" fill-opacity="0.83"/>
<path d="M37.0814 8.98665H36.9818L11.4932 0.734941C11.2939 0.635522 11.1944 0.436686 11.294 0.237849C11.3936 0.0390123 11.5928 -0.0604182 11.8019 0.0390002L37.191 8.29074C37.3902 8.39016 37.4898 8.589 37.3902 8.78783C37.3902 8.88725 37.2906 8.98665 37.0914 8.98665H37.0814Z" fill="black" fill-opacity="0.83"/>
<path d="M11.8913 53.7248H7.5586C7.35939 53.7248 7.16016 53.526 7.16016 53.3272V50.9411C7.16016 50.7423 7.35939 50.5435 7.5586 50.5435H11.8913C12.0905 50.5435 12.2898 50.7423 12.2898 50.9411V53.3272C12.2898 53.6254 12.0905 53.7248 11.8913 53.7248ZM7.95701 53.0289H11.483V51.3388H7.95701V53.0289Z" fill="black" fill-opacity="0.83"/>
<path d="M42.0124 53.7248H37.6797C37.4805 53.7248 37.2812 53.526 37.2812 53.3272V50.9411C37.2812 50.7423 37.4805 50.5435 37.6797 50.5435H42.0124C42.2116 50.5435 42.4108 50.7423 42.4108 50.9411V53.3272C42.4108 53.6254 42.2116 53.7248 42.0124 53.7248ZM38.088 53.0289H41.614V51.3388H38.088V53.0289Z" fill="black" fill-opacity="0.83"/>
<path d="M21.7623 37.6192C16.9216 37.6192 12.3896 35.5314 9.27197 31.8529C9.17236 31.7535 9.17236 31.5546 9.27197 31.3558C12.3995 27.6773 16.9315 25.5895 21.7623 25.5895C26.5931 25.5895 31.135 27.6773 34.2526 31.3558C34.3522 31.4552 34.3522 31.654 34.2526 31.8529C31.1251 35.5314 26.5931 37.6192 21.7623 37.6192ZM10.0788 31.6541C12.9972 34.9349 17.3299 36.9232 21.7623 36.9232C26.1947 36.9232 30.5275 35.0343 33.4458 31.6541C30.5275 28.3733 26.1947 26.3849 21.7623 26.3849C17.3299 26.3849 13.0968 28.2738 10.0788 31.6541Z" fill="black" fill-opacity="0.83"/>
<path d="M21.7628 37.619C18.436 37.619 15.7168 34.9347 15.7168 31.6539C15.7168 28.3731 18.436 25.6888 21.7628 25.6888C25.0895 25.6888 27.8087 28.3731 27.8087 31.6539C27.9083 34.9347 25.1891 37.619 21.7628 37.619ZM21.7628 26.3847C18.8444 26.3847 16.424 28.7707 16.424 31.6539C16.424 34.537 18.8444 36.923 21.7628 36.923C24.6812 36.923 27.1015 34.537 27.1015 31.6539C27.1015 28.7707 24.6812 26.3847 21.7628 26.3847Z" fill="black" fill-opacity="0.83"/>
<path d="M21.7621 34.4377C20.1486 34.4377 18.8438 33.1452 18.8438 31.5546C18.8438 29.9639 20.1486 28.6714 21.7621 28.6714C23.3757 28.6714 24.6805 29.9639 24.6805 31.5546C24.6805 33.2447 23.3658 34.4377 21.7621 34.4377ZM21.7621 29.4668C20.5569 29.4668 19.6505 30.4609 19.6505 31.5546C19.6505 32.7476 20.6565 33.6423 21.7621 33.6423C22.9673 33.6423 23.8737 32.6482 23.8737 31.5546C23.9733 30.4609 22.9673 29.4668 21.7621 29.4668Z" fill="black" fill-opacity="0.83"/>
<path d="M32.6492 40.701H10.9853C10.7861 40.701 10.5869 40.5022 10.5869 40.3034C10.5869 40.1045 10.7861 39.9057 10.9853 39.9057H32.7488C32.948 39.9057 33.1472 40.1045 33.1472 40.3034C33.1472 40.5022 32.8484 40.701 32.6392 40.701H32.6492Z" fill="black" fill-opacity="0.83"/>
<path d="M32.6492 43.1865H10.9853C10.7861 43.1865 10.5869 42.9877 10.5869 42.7888C10.5869 42.59 10.6865 42.3912 10.9853 42.3912H32.7488C32.948 42.3912 33.1472 42.59 33.1472 42.7888C33.1472 42.9877 32.8484 43.1865 32.6392 43.1865H32.6492Z" fill="black" fill-opacity="0.83"/>
<path d="M45.9461 32.6481H42.7189C42.5197 32.6481 42.3105 32.4492 42.3105 32.2504V30.0632C42.3105 29.8644 42.5098 29.6656 42.7189 29.6656H45.9461C46.1453 29.6656 46.3445 29.8644 46.3445 30.0632V32.2504C46.3445 32.4492 46.1453 32.6481 45.9461 32.6481ZM43.0277 31.8527H45.5477V30.4609H43.0277V31.8527Z" fill="black" fill-opacity="0.83"/>
<path d="M36.1747 58H2.61814C2.41893 58 2.21973 57.8011 2.21973 57.6023C2.21973 57.4034 2.41893 57.2046 2.61814 57.2046H36.1747C36.3739 57.2046 36.5731 57.4034 36.5731 57.6023C36.5731 57.8011 36.3739 58 36.1747 58Z" fill="black" fill-opacity="0.83"/>
<path d="M45.5372 55.9121H22.3593C22.1601 55.9121 21.9609 55.7133 21.9609 55.5145C21.9609 55.3156 22.1601 55.1168 22.3593 55.1168H45.5372C45.7364 55.1168 45.9455 55.3156 45.9455 55.5145C45.9455 55.8127 45.7463 55.9121 45.5372 55.9121Z" fill="black" fill-opacity="0.83"/>
<path d="M50.777 55.9121H47.8586C47.6594 55.9121 47.4502 55.7133 47.4502 55.5145C47.4502 55.3156 47.6494 55.1168 47.8586 55.1168H50.777C50.9762 55.1168 51.1754 55.3156 51.1754 55.5145C51.1754 55.8127 50.9762 55.9121 50.777 55.9121Z" fill="black" fill-opacity="0.83"/>
<path d="M12.29 56.0116H1.30368C1.10448 56.0116 0.905273 55.8127 0.905273 55.6139C0.905273 55.4151 1.10448 55.2162 1.30368 55.2162H12.29C12.4892 55.2162 12.6884 55.4151 12.6884 55.6139C12.6884 55.8127 12.5888 56.0116 12.29 56.0116Z" fill="black" fill-opacity="0.83"/>
</svg>
