<svg width="63" height="59" viewBox="0 0 63 59" fill="none" xmlns="http://www.w3.org/2000/svg">
<path d="M46.205 4.44702C47.0999 4.44702 47.8109 5.12936 47.8109 5.97642C47.8109 6.82348 47.0876 7.50583 46.205 7.50583C45.3224 7.50583 44.5869 6.82348 44.5869 5.97642C44.5869 5.12936 45.3102 4.44702 46.205 4.44702Z" fill="black" fill-opacity="0.83"/>
<path d="M50.8021 4.44702C51.697 4.44702 52.408 5.12936 52.408 5.97642C52.408 6.82348 51.6847 7.50583 50.8021 7.50583C49.9195 7.50583 49.1963 6.82348 49.1963 5.97642C49.1963 5.12936 49.9195 4.44702 50.8021 4.44702Z" fill="black" fill-opacity="0.83"/>
<path d="M55.5097 4.44702C56.4046 4.44702 57.1156 5.12936 57.1156 5.97642C57.1156 6.82348 56.3923 7.50583 55.5097 7.50583C54.6271 7.50583 53.8916 6.82348 53.8916 5.97642C53.8916 5.12936 54.6149 4.44702 55.5097 4.44702Z" fill="black" fill-opacity="0.83"/>
<path d="M10.8636 22.9175C11.4765 22.9175 11.9791 23.3881 11.9791 23.9764C11.9791 24.5646 11.4765 25.0352 10.8636 25.0352C10.2506 25.0352 9.74805 24.5646 9.74805 23.9764C9.74805 23.3881 10.2506 22.9175 10.8636 22.9175Z" fill="black" fill-opacity="0.83"/>
<path d="M13.9651 22.9175C14.578 22.9175 15.0806 23.3881 15.0806 23.9764C15.0806 24.5646 14.578 25.0352 13.9651 25.0352C13.3522 25.0352 12.8496 24.5646 12.8496 23.9764C12.8496 23.3881 13.3522 22.9175 13.9651 22.9175Z" fill="black" fill-opacity="0.83"/>
<path d="M17.0667 22.9175C17.6796 22.9175 18.1822 23.3881 18.1822 23.9764C18.1822 24.5646 17.6796 25.0352 17.0667 25.0352C16.4538 25.0352 15.9512 24.5646 15.9512 23.9764C15.9512 23.3881 16.4538 22.9175 17.0667 22.9175Z" fill="black" fill-opacity="0.83"/>
<path d="M57.4949 0.799988H5.40899C2.67537 0.799988 0.444336 2.91763 0.444336 5.50587V54.0941C0.444336 56.6823 2.67537 58.8 5.40899 58.8H57.4949C60.2285 58.8 62.4595 56.6823 62.4595 54.0941V5.50587C62.4595 2.91763 60.2285 0.799988 57.4949 0.799988ZM60.8414 5.50587V9.62352H37.6485V2.21175H57.4949C59.3581 2.3294 60.8414 3.74116 60.8414 5.50587ZM1.93986 9.62352V6.68234H36.0427V9.62352H1.93986ZM5.40899 2.3294H36.0427V5.27058H2.06243C2.18502 3.50587 3.68055 2.3294 5.40899 2.3294ZM57.4949 57.3882H5.40899C3.54571 57.3882 1.93986 55.9765 1.93986 54.0941V11.1529H60.8414V54.2117C60.8414 55.9764 59.3581 57.3882 57.4949 57.3882Z" fill="black" fill-opacity="0.83"/>
<path d="M55.5094 15.5059H7.39522C7.02747 15.5059 6.64746 15.8588 6.64746 16.2117V52.2117C6.64746 52.5647 7.01521 52.9176 7.39522 52.9176H55.5094C55.8771 52.9176 56.2572 52.5647 56.2572 52.2117V16.2117C56.2572 15.8588 55.8894 15.5059 55.5094 15.5059ZM54.639 17.0353V19.9765H8.14299V17.0353H54.639ZM19.0529 49.5059C19.0529 49.1529 18.6852 48.9176 18.4278 48.9176L14.0883 48.3294V47.1529L18.4278 46.5647C18.7955 46.5647 19.0529 46.2117 19.0529 45.9764C19.1755 45.1529 19.4207 44.3294 19.8007 43.5059C19.9233 43.1529 19.8007 42.9176 19.5555 42.6823L16.0864 40.0941L16.7116 39.0353L20.8059 40.5647C21.1737 40.6823 21.4311 40.5647 21.6762 40.3294C22.3014 39.6235 22.9143 39.0353 23.5395 38.5647C23.7847 38.3294 23.9073 37.9764 23.7847 37.7411L22.1788 33.7412L23.2944 33.1529L26.028 36.447C26.2731 36.6823 26.6532 36.8 26.8983 36.6823C27.7687 36.3294 28.639 36.2117 29.4971 35.9764C29.8648 35.9764 30.1223 35.6235 30.1223 35.3882L30.7475 31.2706H31.9855L32.6107 35.3882C32.6107 35.7411 32.9785 35.9764 33.2359 35.9764C34.1063 36.0941 34.9766 36.3294 35.8347 36.6823C36.2024 36.8 36.4599 36.6823 36.705 36.447L39.4386 33.1529L40.5542 33.7412L38.9361 37.6235C38.8135 37.9764 38.936 38.2117 39.1812 38.447C39.929 38.9176 40.5419 39.6235 41.0445 40.2117C41.2897 40.447 41.6697 40.5647 41.9148 40.447L46.0091 38.9176L46.6343 39.9764L43.1652 42.5647C42.92 42.8 42.7974 43.1529 42.92 43.3882C43.2878 44.2117 43.4104 45.0353 43.6678 45.8588C43.6678 46.2117 44.0356 46.447 44.293 46.447L48.6324 47.0353V48.2117L44.293 48.8C43.9252 48.8 43.6678 49.1529 43.6678 49.3882C43.5452 50.0941 43.4226 50.6823 43.1775 51.3882H38.5928C39.3406 50.2117 39.8309 48.6823 39.8309 47.2706C39.8309 42.9176 36.1166 39.2706 31.3971 39.2706C26.6777 39.2706 22.9634 42.8 22.9634 47.2706C22.9634 48.6823 23.3311 50.0941 24.2015 51.3882H19.6168C19.3717 50.9176 19.2491 50.2117 19.1265 49.5059H19.0529ZM26.126 51.5059C25.1331 50.3294 24.6428 48.9176 24.6428 47.3882C24.6428 43.7412 27.7442 40.9176 31.4584 40.9176C35.1727 40.9176 38.2741 43.8588 38.2741 47.3882C38.2741 48.9176 37.7838 50.3294 36.7908 51.5059H26.126ZM44.9672 51.5059C45.0898 51.1529 45.2123 50.6823 45.3349 50.3294L49.797 49.7412C50.1647 49.7412 50.4222 49.3882 50.4222 49.0353V46.5647C50.4222 46.2117 50.177 45.8588 49.797 45.8588L45.3349 45.2706C45.2123 44.6823 45.0898 44.0941 44.8446 43.6235L48.3137 40.9176C48.5589 40.6823 48.6815 40.3294 48.5589 39.9764L47.3208 37.8588C47.0756 37.5059 46.6956 37.3882 46.3279 37.5059L42.111 39.0353C41.7432 38.5647 41.2406 38.2117 40.7503 37.7411L42.3562 33.7412C42.4787 33.3882 42.3561 33.0353 41.9884 32.8L39.7574 31.5059C39.3896 31.2706 39.0096 31.3882 38.7644 31.7412L35.9082 35.0353C35.283 34.8 34.6701 34.6823 34.1675 34.5647L33.5424 30.3294C33.5424 29.9765 33.1746 29.7412 32.7946 29.7412H30.1958C29.8281 29.7412 29.4481 29.9765 29.4481 30.3294L28.8229 34.5647C28.1977 34.6823 27.5848 34.8 27.0822 35.0353L24.226 31.7412C23.9808 31.5059 23.6008 31.3882 23.2331 31.5059L21.002 32.8C20.6343 33.0353 20.5117 33.3882 20.6343 33.7412L22.2401 37.7411C21.7498 38.0941 21.3698 38.5647 20.8794 39.0353L16.6626 37.5059C16.2948 37.3882 15.9148 37.5059 15.6696 37.8588L14.309 39.9764C14.0638 40.3294 14.1864 40.6823 14.5541 40.9176L18.0232 43.6235C17.7781 44.2117 17.6555 44.8 17.5329 45.2706L13.1934 45.7411C12.8257 45.7411 12.5683 46.0941 12.5683 46.447V48.9176C12.5683 49.2706 12.8134 49.6235 13.1934 49.6235L17.6555 50.2117C17.7781 50.5647 17.9007 51.0353 18.0232 51.3882H8.22878V21.3882H54.7249V51.5059H44.9304H44.9672Z" fill="black" fill-opacity="0.83"/>
<path d="M52.4077 28.7999H45.4694C45.1017 28.7999 44.7217 29.1528 44.7217 29.5058C44.7217 29.8587 45.0894 30.2117 45.4694 30.2117H52.4077C52.7754 30.2117 53.1555 29.8587 53.1555 29.5058C53.1555 29.0352 52.7877 28.7999 52.4077 28.7999Z" fill="black" fill-opacity="0.83"/>
<path d="M52.4077 25.8587H45.4694C45.1017 25.8587 44.7217 26.2116 44.7217 26.5646C44.7217 26.9175 45.0894 27.2705 45.4694 27.2705H52.4077C52.7754 27.2705 53.1555 26.9175 53.1555 26.5646C53.1555 26.094 52.7877 25.8587 52.4077 25.8587Z" fill="black" fill-opacity="0.83"/>
<path d="M52.4077 22.9175H45.4694C45.1017 22.9175 44.7217 23.2705 44.7217 23.6234C44.7217 23.9764 45.0894 24.3293 45.4694 24.3293H52.4077C52.7754 24.3293 53.1555 23.9764 53.1555 23.6234C53.1555 23.1528 52.7877 22.9175 52.4077 22.9175Z" fill="black" fill-opacity="0.83"/>
</svg>
