<svg width="121" height="120" viewBox="0 0 121 120" fill="none" xmlns="http://www.w3.org/2000/svg">
<path d="M85.5275 25.3926C87.0851 25.3926 88.3226 26.5803 88.3226 28.0547C88.3226 29.5291 87.0637 30.7168 85.5275 30.7168C83.9912 30.7168 82.7109 29.5291 82.7109 28.0547C82.7109 26.5803 83.9698 25.3926 85.5275 25.3926Z" fill="white" fill-opacity="0.83"/>
<path d="M93.5295 25.3926C95.0871 25.3926 96.3247 26.5803 96.3247 28.0547C96.3247 29.5291 95.0658 30.7168 93.5295 30.7168C91.9933 30.7168 90.7344 29.5291 90.7344 28.0547C90.7344 26.5803 91.9933 25.3926 93.5295 25.3926Z" fill="white" fill-opacity="0.83"/>
<path d="M101.723 25.3926C103.28 25.3926 104.518 26.5803 104.518 28.0547C104.518 29.5291 103.259 30.7168 101.723 30.7168C100.186 30.7168 98.9062 29.5291 98.9062 28.0547C98.9062 26.5803 100.165 25.3926 101.723 25.3926Z" fill="white" fill-opacity="0.83"/>
<path d="M22.0721 15.1537C25.102 15.1537 27.4704 12.9011 27.4704 10.0342C27.4704 7.16735 25.102 4.91479 22.0721 4.91479C19.0422 4.91479 16.6738 7.16735 16.6738 10.0342C16.6738 12.9011 19.0422 15.1537 22.0721 15.1537ZM22.0721 7.57689C23.5871 7.57689 24.8886 8.80556 24.8886 10.239C24.8886 11.6725 23.5871 12.9011 22.0721 12.9011C20.5572 12.9011 19.277 11.6725 19.277 10.239C19.277 8.60078 20.5785 7.57689 22.0721 7.57689Z" fill="white" fill-opacity="0.83"/>
<path d="M96.9861 13.9249C101.083 13.9249 104.326 10.8533 104.326 6.96247C104.326 3.07169 101.083 0 96.9861 0C92.8893 0 89.6461 3.07169 89.6461 6.96247C89.4327 10.8533 92.8893 13.9249 96.9861 13.9249ZM96.9861 2.45733C99.5679 2.45733 101.744 4.50514 101.744 6.96247C101.744 9.41981 99.5892 11.4676 96.9861 11.4676C94.3829 11.4676 92.2279 9.41981 92.2279 6.96247C92.2279 4.50514 94.3829 2.45733 96.9861 2.45733Z" fill="white" fill-opacity="0.83"/>
<path d="M2.44169 17.8157C3.50854 17.8157 4.38337 18.6348 4.38337 19.6587C4.38337 20.6826 3.50854 21.5017 2.44169 21.5017C1.37483 21.5017 0.5 20.6826 0.5 19.6587C0.5 18.6348 1.37483 17.8157 2.44169 17.8157Z" fill="white" fill-opacity="0.83"/>
<path d="M40.2093 5.11938C41.2761 5.11938 42.151 5.93852 42.151 6.96241C42.151 7.9863 41.2761 8.8054 40.2093 8.8054C39.1424 8.8054 38.2676 7.9863 38.2676 6.96241C38.2676 5.93852 39.1424 5.11938 40.2093 5.11938Z" fill="white" fill-opacity="0.83"/>
<path d="M77.9749 7.57666C79.0417 7.57666 79.9165 8.39579 79.9165 9.41968C79.9165 10.4436 79.0417 11.2627 77.9749 11.2627C76.908 11.2627 76.0332 10.4436 76.0332 9.41968C76.0332 8.39579 76.908 7.57666 77.9749 7.57666Z" fill="white" fill-opacity="0.83"/>
<path d="M24.014 57.5427C25.0808 57.5427 25.9556 58.3618 25.9556 59.3857C25.9556 60.4096 25.0808 61.2287 24.014 61.2287C22.9471 61.2287 22.0723 60.4096 22.0723 59.3857C22.0723 58.3618 22.9471 57.5427 24.014 57.5427Z" fill="white" fill-opacity="0.83"/>
<path d="M29.4124 57.5427C30.4792 57.5427 31.3541 58.3618 31.3541 59.3857C31.3541 60.4096 30.4792 61.2287 29.4124 61.2287C28.3455 61.2287 27.4707 60.4096 27.4707 59.3857C27.4707 58.3618 28.3455 57.5427 29.4124 57.5427Z" fill="white" fill-opacity="0.83"/>
<path d="M34.8089 57.5427C35.8757 57.5427 36.7506 58.3618 36.7506 59.3857C36.7506 60.4096 35.8757 61.2287 34.8089 61.2287C33.742 61.2287 32.8672 60.4096 32.8672 59.3857C32.8672 58.3618 33.742 57.5427 34.8089 57.5427Z" fill="white" fill-opacity="0.83"/>
<path d="M53.7991 12.696C54.8659 12.696 55.7408 13.5152 55.7408 14.5391C55.7408 15.563 54.8659 16.3821 53.7991 16.3821C52.7322 16.3821 51.8574 15.563 51.8574 14.5391C51.8574 13.5152 52.7322 12.696 53.7991 12.696Z" fill="white" fill-opacity="0.83"/>
<path d="M118.559 17.8157C119.626 17.8157 120.501 18.6348 120.501 19.6587C120.501 20.6826 119.626 21.5017 118.559 21.5017C117.492 21.5017 116.617 20.6826 116.617 19.6587C116.617 18.6348 117.492 17.8157 118.559 17.8157Z" fill="white" fill-opacity="0.83"/>
<path d="M105.18 19.0444H14.5185C9.76032 19.0444 5.87695 22.7304 5.87695 27.2356V111.809C5.87695 116.314 9.76032 120 14.5185 120H105.18C109.938 120 113.821 116.314 113.821 111.809V27.2356C113.821 22.7304 109.938 19.0444 105.18 19.0444ZM111.005 27.2356V34.4028H70.6351V21.5018H105.18C108.423 21.7065 111.005 24.1639 111.005 27.2356ZM8.48009 34.4028V29.2833H67.84V34.4028H8.48009ZM14.5185 21.7066H67.84V26.826H8.69344C8.90681 23.7543 11.51 21.7066 14.5185 21.7066ZM105.18 117.543H14.5185C11.2753 117.543 8.48009 115.085 8.48009 111.809V37.0649H111.005V112.014C111.005 115.085 108.423 117.543 105.18 117.543Z" fill="white" fill-opacity="0.83"/>
<path d="M101.724 44.6418H17.9754C17.3353 44.6418 16.6738 45.2562 16.6738 45.8705V108.533C16.6738 109.147 17.3139 109.761 17.9754 109.761H101.724C102.364 109.761 103.025 109.147 103.025 108.533V45.8705C103.025 45.2562 102.385 44.6418 101.724 44.6418ZM100.209 47.304V52.4234H19.277V47.304H100.209ZM38.267 103.823C38.267 103.208 37.6269 102.799 37.1788 102.799L29.6255 101.775V99.7272L37.1788 98.7033C37.8189 98.7033 38.267 98.0889 38.267 97.6794C38.4804 96.2459 38.9071 94.8125 39.5686 93.3791C39.7819 92.7647 39.5686 92.3552 39.1418 91.9456L33.1034 87.4405L34.1916 85.5975L41.3182 88.2596C41.9583 88.4644 42.4064 88.2596 42.8331 87.85C43.9213 86.6214 44.9882 85.5975 46.0764 84.7784C46.5031 84.3688 46.7165 83.7545 46.5031 83.3449L43.708 76.3825L45.6496 75.3586L50.4078 81.0924C50.8346 81.5019 51.496 81.7067 51.9228 81.5019C53.4377 80.8876 54.9526 80.6828 56.4462 80.2732C57.0863 80.2732 57.5344 79.6589 57.5344 79.2493L58.6226 72.0821H60.7777L61.8658 79.2493C61.8658 79.8637 62.506 80.2732 62.9541 80.2732C64.469 80.478 65.9839 80.8876 67.4775 81.5019C68.1176 81.7067 68.5657 81.5019 68.9925 81.0924L73.7506 75.3586L75.6923 76.3825L72.8758 83.1401C72.6624 83.7545 72.8758 84.164 73.3025 84.5736C74.6041 85.3927 75.671 86.6214 76.5458 87.6453C76.9725 88.0548 77.634 88.2596 78.0607 88.0548L85.1873 85.3927L86.2755 87.2357L80.2371 91.7408C79.8104 92.1504 79.597 92.7647 79.8104 93.1743C80.4505 94.6077 80.6639 96.0412 81.1119 97.4746C81.1119 98.0889 81.7521 98.4985 82.2002 98.4985L89.7535 99.5224V101.57L82.2002 102.594C81.56 102.594 81.1119 103.208 81.1119 103.618C80.8986 104.847 80.6852 105.871 80.2585 107.099H72.2784C73.5799 105.051 74.4334 102.389 74.4334 99.9319C74.4334 92.3552 67.9683 86.007 59.7535 86.007C51.5387 86.007 45.0735 92.1504 45.0735 99.9319C45.0735 102.389 45.7137 104.847 47.2286 107.099H39.2485C38.8218 106.28 38.6084 105.051 38.395 103.823H38.267ZM50.5785 107.304C48.8502 105.256 47.9967 102.799 47.9967 100.137C47.9967 93.7886 53.395 88.8739 59.8602 88.8739C66.3253 88.8739 71.7236 93.9934 71.7236 100.137C71.7236 102.799 70.8701 105.256 69.1418 107.304H50.5785ZM83.3737 107.304C83.587 106.69 83.8004 105.871 84.0138 105.256L91.7805 104.232C92.4206 104.232 92.8687 103.618 92.8687 103.004V98.7033C92.8687 98.0889 92.442 97.4746 91.7805 97.4746L84.0138 96.4507C83.8004 95.4268 83.5871 94.4029 83.1603 93.5838L89.1987 88.8739C89.6255 88.4644 89.8388 87.85 89.6255 87.2357L87.4704 83.5497C87.0437 82.9354 86.3822 82.7306 85.7421 82.9354L78.4021 85.5975C77.762 84.7784 76.8872 84.164 76.0337 83.3449L78.8289 76.3825C79.0423 75.7681 78.8289 75.1538 78.1888 74.7442L74.3054 72.4917C73.6653 72.0821 73.0038 72.2869 72.5771 72.9012L67.6055 78.635C66.5173 78.2255 65.4505 78.0207 64.5757 77.8159L63.4875 70.4439C63.4875 69.8296 62.8474 69.42 62.1859 69.42H57.6625C57.0223 69.42 56.3609 69.8296 56.3609 70.4439L55.2727 77.8159C54.1845 78.0207 53.1176 78.2255 52.2428 78.635L47.2713 72.9012C46.8445 72.4917 46.1831 72.2869 45.543 72.4917L41.6596 74.7442C41.0195 75.1538 40.8061 75.7681 41.0195 76.3825L43.8147 83.3449C42.9612 83.9592 42.2997 84.7784 41.4462 85.5975L34.1063 82.9354C33.4661 82.7306 32.8047 82.9354 32.378 83.5497L30.0095 87.2357C29.5828 87.85 29.7962 88.4644 30.4363 88.8739L36.4747 93.5838C36.0479 94.6077 35.8346 95.6316 35.6212 96.4507L28.0678 97.2698C27.4277 97.2698 26.9797 97.8842 26.9797 98.4985V102.799C26.9797 103.413 27.4064 104.028 28.0678 104.028L35.8346 105.051C36.0479 105.666 36.2613 106.485 36.4747 107.099H19.4263V54.8808H100.358V107.304H83.3097H83.3737Z" fill="white" fill-opacity="0.83"/>
<path d="M96.3257 67.7815H84.2488C83.6087 67.7815 82.9473 68.3958 82.9473 69.0101C82.9473 69.6245 83.5874 70.2388 84.2488 70.2388H96.3257C96.9658 70.2388 97.6272 69.6245 97.6272 69.0101C97.6272 68.191 96.9871 67.7815 96.3257 67.7815Z" fill="white" fill-opacity="0.83"/>
<path d="M96.3257 62.6621H84.2488C83.6087 62.6621 82.9473 63.2764 82.9473 63.8908C82.9473 64.5051 83.5874 65.1194 84.2488 65.1194H96.3257C96.9658 65.1194 97.6272 64.5051 97.6272 63.8908C97.6272 63.0716 96.9871 62.6621 96.3257 62.6621Z" fill="white" fill-opacity="0.83"/>
<path d="M96.3257 57.5427H84.2488C83.6087 57.5427 82.9473 58.157 82.9473 58.7714C82.9473 59.3857 83.5874 60.0001 84.2488 60.0001H96.3257C96.9658 60.0001 97.6272 59.3857 97.6272 58.7714C97.6272 57.9523 96.9871 57.5427 96.3257 57.5427Z" fill="white" fill-opacity="0.83"/>
</svg>
