<svg width="60" height="53" viewBox="0 0 60 53" fill="none" xmlns="http://www.w3.org/2000/svg">
<path d="M21.7843 48.2C21.6843 48.2 21.5843 48.2 21.5843 48.1C20.4743 47.3 20.3743 45.1 20.3743 42.9C20.3743 41.1 20.3743 39.3 19.7643 38.6C19.1543 37.9 18.3443 37.7 17.4343 37.7C17.0343 37.7 16.6243 37.7 16.2243 37.8C15.8243 37.8 15.3143 37.9 14.9043 37.9H14.8043C13.3843 37.9 12.2743 37.5 11.6643 36.8C10.5543 35.6 10.7543 33.8 10.9543 32.1C11.0543 30.7 11.2543 29.4 10.5543 29.2C10.4543 29.1 10.3543 29.1 10.1543 29.1H9.9543C8.4343 28.8 7.6243 28.4 7.4243 27.7C7.1243 26.8 7.9343 25.9 9.0443 24.8C9.6543 24.1 10.3643 23.3 10.9643 22.5C11.4743 21.7 11.4743 20.3 11.4743 18.7C11.4743 14.8 11.3743 8.90001 18.8543 3.60001C22.1943 1.30001 26.4443 0 30.7943 0C36.0543 0 41.0143 1.90001 44.2443 5.10001C47.4843 8.40001 49.1043 12.5 48.7943 17.1C48.4943 21.4 46.5643 25.7 43.2343 29.2C41.8143 30.8 41.8143 33.8 41.9143 37C42.0143 39.3 42.0143 41.6 41.5143 43.5C41.5143 43.6 41.4143 43.7 41.2143 43.8L21.7943 48.2H21.7843ZM17.4343 37C18.3443 37 19.4543 37.1 20.2643 38.1C21.0743 39 21.0743 40.9 21.0743 42.9C21.0743 44.7 21.0743 46.7 21.7843 47.4L40.6043 43C41.0143 41.2 41.0143 39 40.9043 36.9C40.8043 33.5 40.7043 30.4 42.4243 28.6C49.1043 21.4 49.6043 11.7 43.4343 5.5C40.2943 2.4 35.6443 0.600006 30.5843 0.600006C26.3343 0.600006 22.1843 1.80001 19.0543 4.10001C11.9743 9.20001 11.9743 14.6 11.9743 18.5C11.9743 20.3 11.9743 21.7 11.3643 22.7C10.7543 23.6 10.0543 24.4 9.34429 25.2C8.53429 26.1 7.7243 26.9 7.9243 27.4C8.0243 27.6 8.43429 28 9.94429 28.3H10.1443C10.3443 28.3 10.4443 28.4 10.6543 28.4C11.8643 28.9 11.7643 30.5 11.5643 32.1C11.4643 33.6 11.2643 35.3 12.0743 36.2C12.5843 36.8 13.3843 37 14.7043 37H14.8043C15.2043 37 15.7143 37 16.1243 36.9C16.6343 37 17.0343 37 17.4343 37Z" fill="#010101"/>
<path d="M31.6942 35.2H26.4342C24.9142 35.2 23.7043 34 23.7043 32.5V29C21.2743 27.3 19.8643 24.5 19.8643 21.6C19.8643 16.6 24.0142 12.5 29.0742 12.5C34.1342 12.5 38.2842 16.6 38.2842 21.6C38.2842 24.5 36.8642 27.3 34.4442 29V32.5C34.4442 34 33.2342 35.2 31.7142 35.2H31.6942ZM29.0742 13.2C24.4242 13.2 20.6743 16.9 20.6743 21.5C20.6743 24.3 22.0942 26.8 24.3142 28.4C24.4142 28.5 24.5143 28.6 24.5143 28.7V32.4C24.5143 33.5 25.4242 34.3 26.4342 34.3H31.6942C32.8042 34.3 33.6143 33.4 33.6143 32.4V28.8C33.6143 28.7 33.7142 28.6 33.8142 28.5C36.1442 26.9 37.4543 24.4 37.4543 21.6C37.4543 17 33.7143 13.2 29.0543 13.2H29.0742Z" fill="#010101"/>
<path d="M29.0748 35.2C28.8748 35.2 28.6748 35 28.6748 34.8V21.6C28.6748 21.5 28.7748 21.3 28.8748 21.3L33.4248 19.1C33.6248 19 33.8248 19.1 33.9348 19.3C34.0348 19.5 33.9348 19.7 33.7348 19.8L29.3848 21.8V34.8C29.3848 35 29.2848 35.2 29.0848 35.2H29.0748Z" fill="#010101"/>
<path d="M29.0742 35.1C28.8742 35.1 28.6742 34.9 28.6742 34.7V21.8L24.3242 19.7C24.1242 19.6 24.0242 19.4 24.1242 19.2C24.2242 19 24.4242 18.9 24.6342 19L29.1842 21.2C29.2842 21.3 29.3842 21.4 29.3842 21.5V34.6C29.3842 34.9 29.2842 35.1 29.0842 35.1H29.0742Z" fill="#010101"/>
<path d="M34.6342 12.5C34.5676 12.5 34.5009 12.4667 34.4342 12.4C34.2342 12.3 34.2342 12.1 34.3342 11.9L35.7542 9.50003C35.8542 9.30003 36.0542 9.30004 36.2642 9.40004C36.4642 9.50004 36.4642 9.70004 36.3642 9.90004L34.9442 12.3C34.8442 12.4 34.7442 12.5 34.6442 12.5H34.6342Z" fill="#010101"/>
<path d="M38.6744 16.5C38.5744 16.5 38.3744 16.4 38.3744 16.3C38.2744 16.1 38.3744 15.9 38.4744 15.8L40.8045 14.4C41.0045 14.3 41.2144 14.4 41.3144 14.5C41.4144 14.7 41.3144 14.9 41.2144 15L38.8844 16.4C38.7844 16.5 38.6844 16.5 38.6844 16.5H38.6744Z" fill="#010101"/>
<path d="M42.924 22H40.1939C39.9939 22 39.7939 21.8 39.7939 21.6C39.7939 21.4 39.9939 21.2 40.1939 21.2H42.924C43.124 21.2 43.3239 21.4 43.3239 21.6C43.2239 21.8 43.124 22 42.924 22Z" fill="#010101"/>
<path d="M23.9147 12.5C23.8147 12.5 23.6148 12.4 23.6148 12.3L22.1947 9.9C22.0947 9.7 22.1947 9.5 22.2947 9.4C22.3947 9.3 22.6948 9.4 22.8048 9.5L24.2247 11.9C24.3247 12.1 24.2247 12.3 24.1247 12.4C24.0247 12.4 24.0248 12.5 23.9248 12.5H23.9147Z" fill="#010101"/>
<path d="M19.8641 16.5C19.7974 16.5 19.7307 16.4667 19.664 16.4L17.234 15.1C17.034 15 17.034 14.8 17.134 14.6C17.234 14.4 17.4341 14.4 17.6441 14.5L19.974 15.9C20.174 16 20.174 16.2 20.074 16.4C20.074 16.4 19.974 16.5 19.874 16.5H19.8641Z" fill="#010101"/>
<path d="M18.3439 22H15.6139C15.4139 22 15.2139 21.8 15.2139 21.6C15.2139 21.4 15.4139 21.2 15.6139 21.2H18.3439C18.5439 21.2 18.7439 21.4 18.7439 21.6C18.7439 21.8 18.5439 22 18.3439 22Z" fill="#010101"/>
<path d="M29.0748 10.4C28.8748 10.4 28.6748 10.2 28.6748 9.99998V7.69998C28.6748 7.49998 28.8748 7.29999 29.0748 7.29999C29.2748 7.29999 29.4748 7.49998 29.4748 7.69998V9.99998C29.3748 10.2 29.2748 10.4 29.0748 10.4Z" fill="#010101"/>
<path d="M32.5046 37.1H26.3346C26.1346 37.1 25.9346 36.9 25.9346 36.7V34.8C25.9346 34.6 26.1346 34.4 26.3346 34.4H32.5046C32.7046 34.4 32.9046 34.6 32.9046 34.8V36.6C32.9046 36.9 32.7046 37.1 32.5046 37.1ZM26.7446 36.3H32.1046V35.2H26.7446V36.3Z" fill="#010101"/>
<path d="M31.5947 38.9H27.2447C27.0447 38.9 26.8447 38.7 26.8447 38.5V36.7C26.8447 36.5 27.0447 36.3 27.2447 36.3H31.5947C31.7947 36.3 31.9947 36.5 31.9947 36.7V38.5C31.9947 38.7 31.8947 38.9 31.5947 38.9ZM27.6547 38.1H31.2947V37H27.6547V38.1Z" fill="#010101"/>
<path d="M30.7839 40.7H28.1539C27.9539 40.7 27.7539 40.5 27.7539 40.3V38.5C27.7539 38.3 27.9539 38.1 28.1539 38.1H30.7839C30.9839 38.1 31.1839 38.3 31.1839 38.5V40.3C31.1839 40.6 30.9839 40.7 30.7839 40.7ZM28.5639 40H30.3839V38.9H28.5639V40Z" fill="#010101"/>
<path d="M41.8139 52.8H2.36389C2.16389 52.8 1.96387 52.6 1.96387 52.4C1.96387 52.2 2.16389 52 2.36389 52H41.8139C42.0139 52 42.2239 52.2 42.2239 52.4C42.2239 52.7 42.0239 52.8 41.8139 52.8Z" fill="#010101"/>
<path d="M52.7442 50.1H25.4342C25.2342 50.1 25.0342 49.9 25.0342 49.7C25.0342 49.5 25.2342 49.3 25.4342 49.3H52.7442C52.9442 49.3 53.1442 49.5 53.1442 49.7C53.1442 50 53.0442 50.1 52.7442 50.1Z" fill="#010101"/>
<path d="M59.0148 50.1H55.5748C55.3748 50.1 55.1748 49.9 55.1748 49.7C55.1748 49.5 55.3748 49.3 55.5748 49.3H59.0148C59.2148 49.3 59.4148 49.5 59.4148 49.7C59.4148 50 59.2148 50.1 59.0148 50.1Z" fill="#010101"/>
<path d="M13.7943 50.2H0.84433C0.64433 50.2 0.444336 50 0.444336 49.8C0.444336 49.6 0.64433 49.4 0.84433 49.4H13.7943C13.9943 49.4 14.1943 49.6 14.1943 49.8C14.0943 50.1 13.9943 50.2 13.7943 50.2Z" fill="#010101"/>
<path d="M47.3848 35.4C47.2848 35.4 47.1848 35.4 47.0848 35.3L44.2548 31.8C43.5448 32 42.8348 32.2 42.1348 32.4L41.8348 34.6C41.8348 34.8 41.6348 34.9 41.4348 34.9C41.2348 34.9 41.1348 34.7 41.1348 34.5C41.1348 32.4 41.3348 30.1 42.6548 28.7C48.7248 22.1 49.7348 13.3 44.9848 7.09997C44.8848 6.99997 44.8848 6.79997 44.9848 6.59997L47.2148 3.89997C47.3148 3.79997 47.5148 3.69997 47.7248 3.79997L49.8448 4.99996C50.0448 5.09996 50.0448 5.29996 50.0448 5.49996L48.3248 9.69996C48.9348 10.2 49.4348 10.7 49.9448 11.3L54.1948 9.59997C54.3948 9.49997 54.5948 9.59997 54.7048 9.79996L55.9148 11.9C56.0148 12.1 56.0148 12.3 55.8148 12.4L52.2748 15.2C52.5748 15.9 52.6748 16.6 52.8848 17.3L57.4348 18C57.6348 18 57.7348 18.2 57.7348 18.4V20.8C57.7348 21 57.6348 21.1 57.4348 21.2L52.6848 21.8C52.5848 22.5 52.3848 23.2 52.0748 23.9L55.7148 26.8C55.8148 26.9 55.9148 27.1 55.8148 27.3L54.6048 29.4C54.5048 29.6 54.3048 29.6 54.0948 29.6L49.8448 27.9C49.3348 28.5 48.8348 29 48.2248 29.5L49.9448 33.7C50.0448 33.9 49.9448 34.1 49.7448 34.2L47.6248 35.3C47.5248 35.4 47.4248 35.4 47.4248 35.4H47.3848ZM44.3448 30.9C44.4448 30.9 44.5448 30.9 44.6448 31L47.4748 34.5L49.0948 33.6L47.4748 29.4C47.3748 29.2 47.4748 29.1 47.5748 29C48.2848 28.5 48.8848 27.8 49.3948 27.2C49.4948 27.1 49.6948 27 49.8048 27.1L54.0548 28.7L54.9648 27.1L51.4248 24.3C51.3248 24.2 51.2248 24 51.3248 23.9C51.6248 23.1 51.8348 22.2 52.0348 21.4C52.0348 21.2 52.2348 21.1 52.3348 21.1L56.7848 20.4V18.6L52.3348 17.9C52.1348 17.9 52.0348 17.7 52.0348 17.6C51.9348 16.8 51.6248 15.9 51.3248 15.1C51.2248 14.9 51.3248 14.8 51.4248 14.7L54.9648 11.9L54.0548 10.3L49.8048 11.9C49.6048 12 49.5048 11.9 49.3948 11.8C48.8848 11.1 48.1848 10.5 47.5748 9.99996C48.5848 12.4 48.9948 15.1 48.5848 17.9C48.0748 21.9 46.1548 25.8 43.1248 29.1C42.5148 29.7 42.2148 30.6 42.0148 31.5C42.8248 31.4 43.5348 31.2 44.2448 30.9H44.3448ZM45.6648 6.79996C46.3748 7.69997 46.8748 8.69997 47.3848 9.79996V9.69996L49.0048 5.49996L47.3848 4.59997L45.6648 6.79996Z" fill="#010101"/>
</svg>
