<svg width="131" height="116" viewBox="0 0 131 116" fill="none" xmlns="http://www.w3.org/2000/svg">
<path d="M47.6068 105.894C47.3871 105.894 47.1674 105.894 47.1674 105.674C44.7288 103.917 44.509 99.0835 44.509 94.2502C44.509 90.2956 44.5091 86.341 43.1689 84.8032C41.8288 83.2653 40.0492 82.8259 38.0499 82.8259C37.1711 82.8259 36.2704 82.8259 35.3916 83.0456C34.5128 83.0456 33.3923 83.2653 32.4916 83.2653H32.2719C29.1522 83.2653 26.7136 82.3865 25.3734 80.8486C22.9348 78.2122 23.3742 74.2577 23.8136 70.5228C24.0333 67.4471 24.4727 64.591 22.9348 64.1516C22.7151 63.9319 22.4954 63.9319 22.056 63.9319H21.6166C18.2772 63.2728 16.4977 62.394 16.0583 60.8561C15.3992 58.8789 17.1787 56.9016 19.6174 54.4849C20.9575 52.9471 22.5173 51.1895 23.8355 49.4319C24.956 47.6743 24.956 44.5985 24.956 41.0834C24.956 32.5152 24.7363 19.5531 41.1697 7.90912C48.5075 2.85608 57.8447 0 67.4015 0C78.9576 0 89.8545 4.17426 96.9508 11.2046C104.069 18.4546 107.628 27.4622 106.947 37.5682C106.288 47.0152 102.048 56.4622 94.7319 64.1516C91.6122 67.6668 91.6122 74.2577 91.8319 81.288C92.0516 86.341 92.0516 91.3941 90.9531 95.5683C90.9531 95.788 90.7333 96.0077 90.2939 96.2274L47.6288 105.894H47.6068ZM38.0499 81.288C40.0492 81.288 42.4879 81.5077 44.2674 83.7047C46.0469 85.682 46.0469 89.8562 46.0469 94.2502C46.0469 98.2047 46.0469 102.599 47.6068 104.137L88.9538 94.4698C89.8546 90.5153 89.8546 85.682 89.6129 81.0683C89.3932 73.5986 89.1735 66.788 92.9523 62.8334C107.628 47.0152 108.727 25.7046 95.1712 12.0834C88.2727 5.27274 78.0569 1.3182 66.9402 1.3182C57.603 1.3182 48.4856 3.95456 41.6091 9.0076C26.0545 20.2122 26.0545 32.0758 26.0545 40.644C26.0545 44.5985 26.0545 47.6743 24.7144 49.8713C23.3742 51.8486 21.8363 53.6061 20.2764 55.3637C18.4969 57.341 16.7174 59.0986 17.1568 60.1971C17.3765 60.6365 18.2772 61.5152 21.5946 62.1743H22.034C22.4734 62.1743 22.6931 62.3941 23.1545 62.3941C25.8128 63.4925 25.5931 67.0077 25.1537 70.5228C24.934 73.8183 24.4946 77.5531 26.2742 79.5304C27.3946 80.8486 29.1522 81.288 32.0522 81.288H32.2719C33.1507 81.288 34.2711 81.288 35.1719 81.0683C36.2924 81.288 37.1711 81.288 38.0499 81.288Z" fill="white" fill-opacity="0.83"/>
<path d="M69.3788 77.3337H57.8227C54.4833 77.3337 51.825 74.6973 51.825 71.4019V63.7125C46.4864 59.9776 43.3887 53.8261 43.3887 47.4549C43.3887 36.47 52.5061 27.4624 63.6228 27.4624C74.7395 27.4624 83.8569 36.47 83.8569 47.4549C83.8569 53.8261 80.7372 59.9776 75.4205 63.7125V71.4019C75.4205 74.6973 72.7622 77.3337 69.4228 77.3337H69.3788ZM63.6228 29.0003C53.4069 29.0003 45.1682 37.1291 45.1682 47.2352C45.1682 53.3867 48.2879 58.8791 53.1652 62.3943C53.3849 62.614 53.6046 62.8337 53.6046 63.0534V71.1822C53.6046 73.5988 55.6038 75.3564 57.8227 75.3564H69.3788C71.8175 75.3564 73.5971 73.3792 73.5971 71.1822V63.2731C73.5971 63.0534 73.8167 62.8337 74.0364 62.614C79.1554 59.0988 82.0334 53.6064 82.0334 47.4549C82.0334 37.3488 73.8168 29.0003 63.5789 29.0003H63.6228Z" fill="white" fill-opacity="0.83"/>
<path d="M63.6229 77.3344C63.1835 77.3344 62.7441 76.895 62.7441 76.4556V47.4556C62.7441 47.2359 62.9638 46.7965 63.1835 46.7965L73.1798 41.9631C73.6192 41.7434 74.0585 41.9631 74.3002 42.4025C74.5199 42.8419 74.3002 43.2813 73.8608 43.501L64.304 47.895V76.4556C64.304 76.895 64.0843 77.3344 63.6449 77.3344H63.6229Z" fill="white" fill-opacity="0.83"/>
<path d="M63.6214 77.1137C63.182 77.1137 62.7426 76.6743 62.7426 76.2349V47.894L53.1858 43.2803C52.7464 43.0606 52.5266 42.6212 52.7463 42.1818C52.966 41.7424 53.4055 41.5227 53.8668 41.7424L63.863 46.5758C64.0827 46.7955 64.3024 47.0152 64.3024 47.2349V76.0152C64.3024 76.6743 64.0828 77.1137 63.6434 77.1137H63.6214Z" fill="white" fill-opacity="0.83"/>
<path d="M75.8366 27.4617C75.6901 27.4617 75.5436 27.3885 75.3972 27.2421C74.9578 27.0224 74.9578 26.583 75.1775 26.1436L78.2972 20.8708C78.5169 20.4314 78.9563 20.4315 79.4177 20.6512C79.8571 20.8708 79.8571 21.3102 79.6374 21.7496L76.5177 27.0224C76.298 27.2421 76.0783 27.4617 75.8586 27.4617H75.8366Z" fill="white" fill-opacity="0.83"/>
<path d="M84.713 36.2505C84.4933 36.2505 84.0539 36.0308 84.0539 35.8111C83.8342 35.3717 84.0539 34.9323 84.2736 34.7127L89.3926 31.6369C89.832 31.4172 90.2933 31.6369 90.513 31.8566C90.7327 32.296 90.513 32.7354 90.2933 32.9551L85.1744 36.0308C84.9547 36.2505 84.7349 36.2505 84.7349 36.2505H84.713Z" fill="white" fill-opacity="0.83"/>
<path d="M94.0504 48.3333H88.0526C87.6132 48.3333 87.1738 47.8939 87.1738 47.4545C87.1738 47.0151 87.6132 46.5757 88.0526 46.5757H94.0504C94.4898 46.5757 94.9291 47.0151 94.9291 47.4545C94.7094 47.8939 94.4898 48.3333 94.0504 48.3333Z" fill="white" fill-opacity="0.83"/>
<path d="M52.2839 27.4621C52.0642 27.4621 51.6248 27.2425 51.6248 27.0228L48.5051 21.75C48.2854 21.3106 48.5051 20.8712 48.7248 20.6516C48.9445 20.4319 49.6036 20.6515 49.8453 20.8712L52.9649 26.144C53.1846 26.5834 52.9649 27.0228 52.7452 27.2425C52.5255 27.2425 52.5255 27.4621 52.3058 27.4621H52.2839Z" fill="white" fill-opacity="0.83"/>
<path d="M43.3882 36.2507C43.2417 36.2507 43.0952 36.1774 42.9487 36.031L37.6101 33.1749C37.1707 32.9552 37.1707 32.5158 37.3904 32.0764C37.6101 31.637 38.0495 31.637 38.5109 31.8567L43.6298 34.9325C44.0692 35.1522 44.0692 35.5916 43.8495 36.031C43.8495 36.031 43.6298 36.2507 43.4101 36.2507H43.3882Z" fill="white" fill-opacity="0.83"/>
<path d="M40.0484 48.3333H34.0507C33.6113 48.3333 33.1719 47.8939 33.1719 47.4545C33.1719 47.0151 33.6113 46.5757 34.0507 46.5757H40.0484C40.4878 46.5757 40.9272 47.0151 40.9272 47.4545C40.9272 47.8939 40.4878 48.3333 40.0484 48.3333Z" fill="white" fill-opacity="0.83"/>
<path d="M63.6229 22.8482C63.1835 22.8482 62.7441 22.4088 62.7441 21.9694V16.9164C62.7441 16.477 63.1835 16.0376 63.6229 16.0376C64.0623 16.0376 64.5017 16.477 64.5017 16.9164V21.9694C64.282 22.4088 64.0623 22.8482 63.6229 22.8482Z" fill="white" fill-opacity="0.83"/>
<path d="M71.1568 81.5075H57.6015C57.1621 81.5075 56.7227 81.0681 56.7227 80.6287V76.4545C56.7227 76.0151 57.1621 75.5757 57.6015 75.5757H71.1568C71.5962 75.5757 72.0356 76.0151 72.0356 76.4545V80.409C72.0356 81.0681 71.5962 81.5075 71.1568 81.5075ZM58.5022 79.7499H70.278V77.3332H58.5022V79.7499Z" fill="white" fill-opacity="0.83"/>
<path d="M69.1583 85.4621H59.6014C59.162 85.4621 58.7227 85.0227 58.7227 84.5833V80.6288C58.7227 80.1894 59.162 79.75 59.6014 79.75H69.1583C69.5977 79.75 70.0371 80.1894 70.0371 80.6288V84.5833C70.0371 85.0227 69.8174 85.4621 69.1583 85.4621ZM60.5022 83.7046H68.4992V81.2879H60.5022V83.7046Z" fill="white" fill-opacity="0.83"/>
<path d="M67.3795 89.4167H61.6014C61.162 89.4167 60.7227 88.9773 60.7227 88.5379V84.5834C60.7227 84.144 61.162 83.7046 61.6014 83.7046H67.3795C67.8189 83.7046 68.2583 84.144 68.2583 84.5834V88.5379C68.2583 89.197 67.8189 89.4167 67.3795 89.4167ZM62.5022 87.8788H66.5007V85.4622H62.5022V87.8788Z" fill="white" fill-opacity="0.83"/>
<path d="M91.6119 116H4.94134C4.50195 116 4.0625 115.56 4.0625 115.121C4.0625 114.682 4.50195 114.242 4.94134 114.242H91.6119C92.0513 114.242 92.5127 114.682 92.5127 115.121C92.5127 115.78 92.0733 116 91.6119 116Z" fill="white" fill-opacity="0.83"/>
<path d="M115.624 110.068H55.6249C55.1855 110.068 54.7461 109.629 54.7461 109.189C54.7461 108.75 55.1855 108.311 55.6249 108.311H115.624C116.064 108.311 116.503 108.75 116.503 109.189C116.503 109.848 116.283 110.068 115.624 110.068Z" fill="white" fill-opacity="0.83"/>
<path d="M129.401 110.068H121.844C121.404 110.068 120.965 109.629 120.965 109.189C120.965 108.75 121.404 108.311 121.844 108.311H129.401C129.841 108.311 130.28 108.75 130.28 109.189C130.28 109.848 129.841 110.068 129.401 110.068Z" fill="white" fill-opacity="0.83"/>
<path d="M30.0523 110.287H1.60143C1.16204 110.287 0.722656 109.848 0.722656 109.409C0.722656 108.969 1.16204 108.53 1.60143 108.53H30.0523C30.4917 108.53 30.931 108.969 30.931 109.409C30.7113 110.068 30.4917 110.287 30.0523 110.287Z" fill="white" fill-opacity="0.83"/>
<path d="M103.848 77.7732C103.629 77.7732 103.409 77.7732 103.189 77.5535L96.9717 69.8641C95.4119 70.3035 93.852 70.7429 92.3142 71.1823L91.6551 76.0156C91.6551 76.455 91.2156 76.6747 90.7763 76.6747C90.3369 76.6747 90.1172 76.2353 90.1172 75.7959C90.1172 71.1822 90.5566 66.1292 93.4566 63.0534C106.792 48.5534 109.011 29.2201 98.5755 15.5988C98.3559 15.3791 98.3559 14.9397 98.5755 14.5003L103.475 8.56852C103.694 8.34882 104.134 8.12911 104.595 8.34881L109.253 10.9852C109.692 11.2049 109.692 11.6443 109.692 12.0837L105.913 21.3109C107.254 22.4094 108.352 23.5079 109.473 24.8261L118.81 21.0913C119.249 20.8716 119.688 21.0913 119.93 21.5307L122.588 26.1443C122.808 26.5837 122.808 27.0231 122.369 27.2428L114.591 33.3943C115.251 34.9322 115.47 36.4701 115.932 38.008L125.928 39.5458C126.367 39.5458 126.587 39.9852 126.587 40.4246V45.6974C126.587 46.1368 126.367 46.3564 125.928 46.5761L115.492 47.8943C115.273 49.4322 114.833 50.9701 114.152 52.508L122.149 58.8792C122.369 59.0989 122.588 59.5383 122.369 59.9777L119.71 64.5913C119.491 65.0307 119.051 65.0307 118.59 65.0307L109.253 61.2959C108.132 62.6141 107.034 63.7125 105.694 64.811L109.473 74.0383C109.692 74.4777 109.472 74.9171 109.033 75.1368L104.376 77.5535C104.156 77.7732 103.936 77.7732 103.936 77.7732H103.848ZM97.1695 67.8868C97.3891 67.8868 97.6089 67.8868 97.8286 68.1065L104.046 75.7959L107.605 73.8186L104.046 64.5913C103.826 64.1519 104.046 63.9322 104.266 63.7125C105.826 62.614 107.144 61.0762 108.264 59.758C108.484 59.5383 108.923 59.3186 109.165 59.5383L118.502 63.0534L120.501 59.5383L112.724 53.3868C112.504 53.1671 112.285 52.7277 112.504 52.508C113.163 50.7504 113.625 48.7731 114.064 47.0156C114.064 46.5762 114.504 46.3565 114.723 46.3565L124.5 44.8186V40.864L114.723 39.3261C114.284 39.3261 114.064 38.8867 114.064 38.667C113.844 36.9095 113.163 34.9322 112.504 33.1746C112.285 32.7352 112.504 32.5155 112.724 32.2958L120.501 26.1443L118.502 22.6291L109.165 26.1443C108.726 26.364 108.506 26.1443 108.264 25.9246C107.144 24.3867 105.606 23.0685 104.266 21.97C106.485 27.2428 107.385 33.1746 106.485 39.3261C105.364 48.114 101.146 56.6822 94.4891 63.9322C93.149 65.2504 92.4899 67.2277 92.0505 69.205C93.8301 68.9853 95.3899 68.5459 96.9497 67.8868H97.1695ZM100.069 14.9397C101.629 16.917 102.728 19.114 103.848 21.5307V21.3109L107.407 12.0837L103.848 10.1064L100.069 14.9397Z" fill="white" fill-opacity="0.83"/>
</svg>
