<svg width="52" height="59" viewBox="0 0 52 59" fill="none" xmlns="http://www.w3.org/2000/svg">
<path d="M40.8597 46.9H19.0097C18.9097 46.9 18.8097 46.9 18.7097 46.8L7.77969 35.9C7.67969 35.8 7.67969 35.7 7.67969 35.6V2.49997C7.67969 2.29997 7.87968 2.09998 8.07968 2.09998H40.9597C41.1597 2.09998 41.3597 2.29997 41.3597 2.49997V46.5C41.2597 46.7 41.0597 46.9 40.8497 46.9H40.8597ZM19.2097 46.2H40.5497V2.89998H8.37968V35.6L19.1997 46.2H19.2097Z" fill="#010101"/>
<path d="M26.2902 54.1L2.2102 53C2.0102 53 1.9102 52.8 1.8102 52.6L0.700195 28.8C0.700195 28.6 0.800192 28.5 0.900192 28.4C1.00019 28.3 1.20019 28.4 1.30019 28.5L26.4902 53.4C26.5902 53.5 26.5902 53.6 26.5902 53.7C26.6902 54 26.4902 54.1 26.2902 54.1ZM2.62019 52.3L25.3802 53.3L1.6102 29.8L2.62019 52.3Z" fill="#010101"/>
<path d="M15.6701 48.5C15.6035 48.5 15.6035 48.5 15.6701 48.5L7.17012 48.1C6.97012 48.1 6.87012 47.9 6.77012 47.7L6.37012 39.4C6.37012 39.2 6.47012 39.1 6.57012 39C6.67012 38.9 6.87012 39 6.97012 39.1L15.7701 47.8C15.8701 47.9 15.8701 48 15.8701 48.1C15.9701 48.3 15.8701 48.5 15.6701 48.5ZM7.57012 47.4L14.6501 47.7L7.27012 40.4L7.57012 47.4Z" fill="#010101"/>
<path d="M49.6599 45.1H42.7799C42.5799 45.1 42.3799 44.9 42.3799 44.7V5.80002C42.3799 5.60002 42.5799 5.40002 42.7799 5.40002H49.6599C49.8599 5.40002 50.0599 5.60002 50.0599 5.80002V44.7C50.0599 45 49.8599 45.1 49.6599 45.1ZM43.1799 44.4H49.3499V6.20003H43.1799V44.4Z" fill="#010101"/>
<path d="M49.6601 8.89998H46.7301C46.5301 8.89998 46.3301 8.69997 46.3301 8.49997C46.3301 8.29997 46.5301 8.09998 46.7301 8.09998H49.6601C49.8601 8.09998 50.0601 8.29997 50.0601 8.49997C50.0601 8.69997 49.8601 8.89998 49.6601 8.89998Z" fill="#010101"/>
<path d="M49.6598 11.2H45.4098C45.2098 11.2 45.0098 11 45.0098 10.8C45.0098 10.6 45.2098 10.4 45.4098 10.4H49.6598C49.8598 10.4 50.0598 10.6 50.0598 10.8C50.0598 11 49.8598 11.2 49.6598 11.2Z" fill="#010101"/>
<path d="M49.6601 13.4H46.7301C46.5301 13.4 46.3301 13.2 46.3301 13C46.3301 12.8 46.5301 12.6 46.7301 12.6H49.6601C49.8601 12.6 50.0601 12.8 50.0601 13C50.0601 13.2 49.8601 13.4 49.6601 13.4Z" fill="#010101"/>
<path d="M49.6598 15.7H45.4098C45.2098 15.7 45.0098 15.5 45.0098 15.3C45.0098 15.1 45.2098 14.9 45.4098 14.9H49.6598C49.8598 14.9 50.0598 15.1 50.0598 15.3C50.0598 15.5 49.8598 15.7 49.6598 15.7Z" fill="#010101"/>
<path d="M49.6601 17.9H46.7301C46.5301 17.9 46.3301 17.7 46.3301 17.5C46.3301 17.3 46.5301 17.1 46.7301 17.1H49.6601C49.8601 17.1 50.0601 17.3 50.0601 17.5C50.0601 17.7 49.8601 17.9 49.6601 17.9Z" fill="#010101"/>
<path d="M49.6598 20.2H45.4098C45.2098 20.2 45.0098 20 45.0098 19.8C45.0098 19.6 45.2098 19.4 45.4098 19.4H49.6598C49.8598 19.4 50.0598 19.6 50.0598 19.8C50.0598 20 49.8598 20.2 49.6598 20.2Z" fill="#010101"/>
<path d="M49.6601 22.4H46.7301C46.5301 22.4 46.3301 22.2 46.3301 22C46.3301 21.8 46.5301 21.6 46.7301 21.6H49.6601C49.8601 21.6 50.0601 21.8 50.0601 22C50.0601 22.2 49.8601 22.4 49.6601 22.4Z" fill="#010101"/>
<path d="M49.6598 24.7H45.4098C45.2098 24.7 45.0098 24.5 45.0098 24.3C45.0098 24.1 45.2098 23.9 45.4098 23.9H49.6598C49.8598 23.9 50.0598 24.1 50.0598 24.3C50.0598 24.5 49.8598 24.7 49.6598 24.7Z" fill="#010101"/>
<path d="M49.6601 26.9H46.7301C46.5301 26.9 46.3301 26.7 46.3301 26.5C46.3301 26.3 46.5301 26.1 46.7301 26.1H49.6601C49.8601 26.1 50.0601 26.3 50.0601 26.5C50.0601 26.7 49.8601 26.9 49.6601 26.9Z" fill="#010101"/>
<path d="M49.6598 29.2H45.4098C45.2098 29.2 45.0098 29 45.0098 28.8C45.0098 28.6 45.2098 28.4 45.4098 28.4H49.6598C49.8598 28.4 50.0598 28.6 50.0598 28.8C50.0598 29 49.8598 29.2 49.6598 29.2Z" fill="#010101"/>
<path d="M49.6601 31.4H46.7301C46.5301 31.4 46.3301 31.2 46.3301 31C46.3301 30.8 46.5301 30.6 46.7301 30.6H49.6601C49.8601 30.6 50.0601 30.8 50.0601 31C50.0601 31.2 49.8601 31.4 49.6601 31.4Z" fill="#010101"/>
<path d="M49.6598 33.6H45.4098C45.2098 33.6 45.0098 33.4 45.0098 33.2C45.0098 33 45.2098 32.8 45.4098 32.8H49.6598C49.8598 32.8 50.0598 33 50.0598 33.2C50.0598 33.4 49.8598 33.6 49.6598 33.6Z" fill="#010101"/>
<path d="M49.6601 35.9H46.7301C46.5301 35.9 46.3301 35.7 46.3301 35.5C46.3301 35.3 46.5301 35.1 46.7301 35.1H49.6601C49.8601 35.1 50.0601 35.3 50.0601 35.5C50.0601 35.7 49.8601 35.9 49.6601 35.9Z" fill="#010101"/>
<path d="M49.6598 38.1H45.4098C45.2098 38.1 45.0098 37.9 45.0098 37.7C45.0098 37.5 45.2098 37.3 45.4098 37.3H49.6598C49.8598 37.3 50.0598 37.5 50.0598 37.7C50.0598 37.9 49.8598 38.1 49.6598 38.1Z" fill="#010101"/>
<path d="M49.6601 40.3H46.7301C46.5301 40.3 46.3301 40.1 46.3301 39.9C46.3301 39.7 46.5301 39.5 46.7301 39.5H49.6601C49.8601 39.5 50.0601 39.7 50.0601 39.9C50.0601 40.1 49.8601 40.3 49.6601 40.3Z" fill="#010101"/>
<path d="M49.6598 42.6H45.4098C45.2098 42.6 45.0098 42.4 45.0098 42.2C45.0098 42 45.2098 41.8 45.4098 41.8H49.6598C49.8598 41.8 50.0598 42 50.0598 42.2C50.0598 42.4 49.8598 42.6 49.6598 42.6Z" fill="#010101"/>
<path d="M22.3395 23.5C18.9995 23.5 16.2695 20.8 16.2695 17.5C16.2695 14.2 18.9995 11.5 22.3395 11.5C25.6795 11.5 28.4095 14.2 28.4095 17.5C28.4095 20.8 25.6795 23.5 22.3395 23.5ZM22.3395 12.3C19.4095 12.3 17.0795 14.7 17.0795 17.5C17.0795 20.3 19.5095 22.7 22.3395 22.7C25.1695 22.7 27.5995 20.3 27.5995 17.5C27.5995 14.7 25.2695 12.3 22.3395 12.3Z" fill="#010101"/>
<path d="M32.36 17.9H22.65C22.45 17.9 22.25 17.7 22.25 17.5V7.90001C22.25 7.70001 22.45 7.5 22.65 7.5H32.36C32.56 7.5 32.76 7.70001 32.76 7.90001V17.6C32.66 17.8 32.56 17.9 32.36 17.9ZM23.05 17.2H31.95V8.40001H23.05V17.2Z" fill="#010101"/>
<path d="M50.0596 56.2H15.4596C15.2596 56.2 15.0596 56 15.0596 55.8C15.0596 55.6 15.2596 55.4 15.4596 55.4H50.0596C50.2596 55.4 50.4596 55.6 50.4596 55.8C50.4596 56 50.2596 56.2 50.0596 56.2Z" fill="#010101"/>
<path d="M29.83 58.3H5.85996C5.65996 58.3 5.45996 58.1 5.45996 57.9C5.45996 57.7 5.65996 57.5 5.85996 57.5H29.83C30.03 57.5 30.23 57.7 30.23 57.9C30.13 58.1 30.03 58.3 29.83 58.3Z" fill="#010101"/>
<path d="M3.43 58.3H0.399994C0.199994 58.3 0 58.1 0 57.9C0 57.7 0.199994 57.5 0.399994 57.5H3.43C3.63 57.5 3.82999 57.7 3.82999 57.9C3.72999 58.1 3.63 58.3 3.43 58.3Z" fill="#010101"/>
<path d="M51.4804 58.2H40.0504C39.8504 58.2 39.6504 58 39.6504 57.8C39.6504 57.6 39.8504 57.4 40.0504 57.4H51.3804C51.5804 57.4 51.7804 57.6 51.7804 57.8C51.7804 58 51.6804 58.2 51.4804 58.2Z" fill="#010101"/>
<path d="M37.2097 43.7H25.5797C25.3797 43.7 25.1797 43.5 25.1797 43.3C25.1797 43.1 25.3797 42.9 25.5797 42.9H36.9097V31.1C36.9097 30.9 37.1097 30.7 37.3097 30.7C37.5097 30.7 37.7097 30.9 37.7097 31.1V43.4C37.6097 43.5 37.4097 43.7 37.1997 43.7H37.2097Z" fill="#010101"/>
<path d="M5.8502 16.1C5.6502 16.1 5.4502 15.9 5.4502 15.7V0.400009C5.4502 0.200009 5.6502 0 5.8502 0H26.3902C26.5902 0 26.7902 0.200009 26.7902 0.400009C26.7902 0.600009 26.5902 0.800003 26.3902 0.800003H6.26019V15.8C6.26019 16 6.1602 16.1 5.8602 16.1H5.8502Z" fill="#010101"/>
</svg>
