<svg width="59" height="59" viewBox="0 0 59 59" fill="none" xmlns="http://www.w3.org/2000/svg">
<path d="M26.6062 53.0384H26.4061L5.76156 44.1994C5.66154 44.1001 5.56152 44.0008 5.56152 43.9015C5.56152 43.8022 5.66154 43.6035 5.76156 43.6035L26.6062 34.7645H26.9062L48.0509 43.6035C48.1509 43.7028 48.251 43.8022 48.251 43.9015C48.251 44.0008 48.1509 44.1994 48.0509 44.1994L26.7062 53.0384H26.6062ZM6.88181 43.8021L26.6162 52.2439L47.0507 43.8021L26.9162 35.3603L6.88181 43.8021Z" fill="black" fill-opacity="0.83"/>
<path d="M47.9603 44.1993H47.8602L26.9156 35.3602L6.17101 44.1993C6.07099 44.2986 5.87093 44.1993 5.77091 44.0999C5.67089 44.0006 5.6709 43.802 5.6709 43.7027L26.5155 0.997257C26.6155 0.897942 26.7156 0.798615 26.8156 0.798615C26.9156 0.798615 27.1156 0.897942 27.1156 0.997257L48.2603 43.7027C48.3603 43.802 48.2603 44.0006 48.1603 44.0999C48.1603 44.0999 48.0603 44.1993 47.9603 44.1993ZM26.8056 34.5657H26.9056L47.1401 43.0075L26.7055 1.89106L6.67112 43.0075L26.6055 34.5657H26.8056Z" fill="black" fill-opacity="0.83"/>
<path d="M41.3793 58.6001H1.92061C1.72056 58.6001 1.52051 58.4014 1.52051 58.2028C1.52051 58.0042 1.72056 57.8056 1.92061 57.8056H41.3793C41.5794 57.8056 41.7794 58.0042 41.7794 58.2028C41.7794 58.4014 41.5794 58.6001 41.3793 58.6001Z" fill="black" fill-opacity="0.83"/>
<path d="M52.3118 55.3227H24.9958C24.7957 55.3227 24.5957 55.1241 24.5957 54.9254C24.5957 54.7268 24.7957 54.5282 24.9958 54.5282H52.3118C52.5119 54.5282 52.7119 54.7268 52.7119 54.9254C52.7119 55.2234 52.6119 55.3227 52.3118 55.3227Z" fill="black" fill-opacity="0.83"/>
<path d="M58.583 55.3227H55.1423C54.9422 55.3227 54.7422 55.1241 54.7422 54.9254C54.7422 54.7268 54.9422 54.5282 55.1423 54.5282H58.583C58.7831 54.5282 58.9831 54.7268 58.9831 54.9254C58.9831 55.2234 58.7831 55.3227 58.583 55.3227Z" fill="black" fill-opacity="0.83"/>
<path d="M13.3529 55.422H0.400082C0.200038 55.422 0 55.2234 0 55.0247C0 54.8261 0.200038 54.6275 0.400082 54.6275H13.3529C13.553 54.6275 13.753 54.8261 13.753 55.0247C13.653 55.3227 13.553 55.422 13.3529 55.422Z" fill="black" fill-opacity="0.83"/>
<path d="M41.3788 19.7678H35.9176C35.8175 19.7678 35.6175 19.6685 35.6175 19.5692L32.2768 12.9151C32.1767 12.8158 32.2768 12.6171 32.2768 12.5178C32.3768 12.4185 32.4768 12.3192 32.5768 12.3192H41.3788C41.5788 12.3192 41.7789 12.5178 41.7789 12.7164V19.3706C41.6788 19.6685 41.5788 19.7678 41.3788 19.7678ZM36.1176 19.0726H40.9787V13.1137H33.187L36.1176 19.0726ZM17.8036 19.7678H10.5219C10.4553 19.7678 10.3886 19.7347 10.3219 19.6685L4.55063 16.3911C4.45061 16.2918 4.35059 16.1925 4.35059 16.0932C4.35059 15.9939 4.45061 15.7952 4.55063 15.7952L10.3219 12.4185C10.4219 12.4185 10.4219 12.3192 10.5219 12.3192H21.0443C21.1443 12.3192 21.2443 12.4185 21.3444 12.5178C21.4444 12.6171 21.4444 12.7164 21.3444 12.9151L18.1036 19.5692C18.1036 19.7678 17.9036 19.7678 17.8036 19.7678ZM10.622 19.0726H17.6035L20.4341 13.1137H10.622L5.46083 16.0932L10.622 19.0726Z" fill="black" fill-opacity="0.83"/>
<path d="M43.6101 19.7678H41.3796C41.1795 19.7678 40.9795 19.5692 40.9795 19.3706V12.7164C40.9795 12.5178 41.1795 12.3192 41.3796 12.3192H43.6101C43.8101 12.3192 44.0102 12.5178 44.0102 12.7164V19.3706C44.0102 19.6685 43.8101 19.7678 43.6101 19.7678ZM41.6796 19.0726H43.2V13.1137H41.6796V19.0726Z" fill="black" fill-opacity="0.83"/>
<path d="M46.3401 19.7678H43.5095C43.3094 19.7678 43.1094 19.5692 43.1094 19.3706V12.7164C43.1094 12.5178 43.3094 12.3192 43.5095 12.3192H46.3401C48.0605 12.3192 49.4808 13.7096 49.4808 15.398V16.5897C49.5808 18.3774 48.1605 19.7678 46.3401 19.7678ZM44.0096 19.0726H46.4401C47.7504 19.0726 48.8707 17.9801 48.8707 16.689V15.4972C48.8707 14.2062 47.7604 13.1137 46.4401 13.1137H44.0096V19.0726Z" fill="black" fill-opacity="0.83"/>
<path d="M15.7829 18.2782C15.5829 18.2782 15.3828 18.0796 15.3828 17.881V12.8159C15.3828 12.6172 15.5829 12.4186 15.7829 12.4186C15.983 12.4186 16.183 12.6172 16.183 12.8159V17.881C16.183 18.0796 15.983 18.2782 15.7829 18.2782Z" fill="black" fill-opacity="0.83"/>
<path d="M41.3791 16.4903H34.2975C34.0975 16.4903 33.8975 16.2917 33.8975 16.0931C33.8975 15.8945 34.0975 15.6958 34.2975 15.6958H41.3791C41.5792 15.6958 41.7792 15.8945 41.7792 16.0931C41.6792 16.2917 41.5792 16.4903 41.3791 16.4903Z" fill="black" fill-opacity="0.83"/>
<path d="M49.4708 31.0896H41.4791C41.3791 31.0896 41.179 30.9903 41.179 30.8909L36.9281 22.2505C36.828 22.1512 36.9281 21.9526 36.9281 21.8533C37.0281 21.754 37.1281 21.6547 37.2281 21.6547H49.4708C49.6709 21.6547 49.8709 21.8533 49.8709 22.0519V30.6923C49.7709 30.8909 49.6709 31.0896 49.4708 31.0896ZM41.6791 30.2951H49.0607V22.4492H37.7282L41.6791 30.2951ZM12.3426 31.0896H4.45088C4.25083 31.0896 4.05078 30.8909 4.05078 30.6923V22.0519C4.05078 21.8533 4.25083 21.6547 4.45088 21.6547H16.5936C16.6936 21.6547 16.7936 21.754 16.8936 21.8533C16.9937 21.9526 16.9937 22.0519 16.8936 22.2505L12.6427 30.8909C12.6427 30.9903 12.4426 31.0896 12.3426 31.0896ZM4.85096 30.2951H12.1326L15.9734 22.4492H4.84096V30.2951H4.85096Z" fill="black" fill-opacity="0.83"/>
<path d="M46.3405 26.1238C46.1405 26.1238 45.9404 25.9252 45.9404 25.7265V22.0519C45.9404 21.8533 46.1405 21.6547 46.3405 21.6547C46.5406 21.6547 46.7406 21.8533 46.7406 22.0519V25.7265C46.7406 25.9252 46.5406 26.1238 46.3405 26.1238Z" fill="black" fill-opacity="0.83"/>
<path d="M43.7097 27.7128C43.5096 27.7128 43.3096 27.5143 43.3096 27.3156V22.0519C43.3096 21.8533 43.5096 21.6547 43.7097 21.6547C43.9097 21.6547 44.1098 21.8533 44.1098 22.0519V27.3156C44.1098 27.5143 43.9097 27.7128 43.7097 27.7128Z" fill="black" fill-opacity="0.83"/>
<path d="M41.1794 26.1238C40.9794 26.1238 40.7793 25.9252 40.7793 25.7265V22.0519C40.7793 21.8533 40.9794 21.6547 41.1794 21.6547C41.3794 21.6547 41.5795 21.8533 41.5795 22.0519V25.7265C41.5795 25.9252 41.3794 26.1238 41.1794 26.1238Z" fill="black" fill-opacity="0.83"/>
<path d="M12.5427 27.7128C12.3426 27.7128 12.1426 27.5143 12.1426 27.3156V22.0519C12.1426 21.8533 12.3426 21.6547 12.5427 21.6547C12.7427 21.6547 12.9427 21.8533 12.9427 22.0519V27.3156C12.8427 27.5143 12.7427 27.7128 12.5427 27.7128Z" fill="black" fill-opacity="0.83"/>
<path d="M10.0124 26.1238C9.81234 26.1238 9.6123 25.9252 9.6123 25.7265V22.0519C9.6123 21.8533 9.81234 21.6547 10.0124 21.6547C10.2124 21.6547 10.4125 21.8533 10.4125 22.0519V25.7265C10.3124 25.9252 10.2124 26.1238 10.0124 26.1238Z" fill="black" fill-opacity="0.83"/>
<path d="M7.28193 27.7128C7.08189 27.7128 6.88184 27.5143 6.88184 27.3156V22.0519C6.88184 21.8533 7.08189 21.6547 7.28193 21.6547C7.48198 21.6547 7.68202 21.8533 7.68202 22.0519V27.3156C7.68202 27.5143 7.48198 27.7128 7.28193 27.7128Z" fill="black" fill-opacity="0.83"/>
<path d="M26.8058 35.2609C26.6057 35.2609 26.4057 35.0623 26.4057 34.8637L26.3057 0.99726C26.3057 0.79863 26.5057 0.599976 26.7058 0.599976C26.9058 0.599976 27.1058 0.79863 27.1058 0.99726L27.2059 34.8637C27.2059 35.1616 27.0058 35.2609 26.8058 35.2609Z" fill="black" fill-opacity="0.83"/>
</svg>
