<svg width="56" height="59" viewBox="0 0 56 59" fill="none" xmlns="http://www.w3.org/2000/svg">
<path d="M39.9938 53.2288H28.4929C28.2934 53.2288 28.084 53.0298 28.084 52.8309V1.29741C28.084 1.09844 28.2835 0.899449 28.3832 0.899449C28.9917 0.899449 29.5902 0.799988 30.2984 0.799988C35.1461 0.799988 39.6846 2.19278 43.3154 4.77941C46.8465 7.26654 49.1706 10.1516 50.3775 13.4346C51.385 16.2202 51.385 18.9063 51.2852 21.095C51.2852 22.8857 51.2853 24.378 51.794 25.2734C52.4024 26.1688 53.2104 27.0641 53.9086 27.86C55.0158 29.0538 55.9235 30.0487 55.6243 31.0435C55.4248 31.7399 54.5171 32.2374 52.9012 32.5358H52.7017C52.5687 32.5358 52.4324 32.569 52.2927 32.6353C51.4848 32.9338 51.5845 34.3266 51.784 35.9183C51.9835 37.7091 52.193 39.6988 50.976 40.9921C50.2678 41.788 49.1606 42.1859 47.5447 42.1859H47.3452C46.8365 42.1859 46.3378 42.1859 45.9288 42.0864C45.4201 42.0864 45.0211 41.9869 44.6221 41.9869C43.6147 41.9869 42.8067 42.1859 42.0985 42.9818C41.3903 43.7777 41.3903 45.7674 41.3903 47.6576C41.3903 50.1447 41.3903 52.4329 40.0736 53.3283C40.1734 53.2288 40.0736 53.2288 39.9739 53.2288H39.9938ZM28.8919 52.5324H39.8941C40.702 51.836 40.7021 49.5479 40.8018 47.5581C40.8018 45.3695 40.8018 43.3797 41.7095 42.3849C42.7169 41.2906 43.8241 41.1911 44.8416 41.1911C45.2406 41.1911 45.7493 41.191 46.1483 41.2905C46.5572 41.2905 47.056 41.39 47.5647 41.39H47.7642C49.0709 41.39 50.0883 41.0916 50.587 40.4946C51.4947 39.4998 51.2952 37.6096 51.1955 36.0178C50.996 34.2271 50.8962 32.5358 52.2029 32.0384C52.4024 31.9389 52.6019 31.9389 52.7117 31.9389H52.9111C54.5271 31.6405 55.0258 31.2425 55.1355 30.9441C55.335 30.4466 54.4273 29.4518 53.5196 28.5564C52.8114 27.7605 52.0034 26.8651 51.4049 25.8703C50.6967 24.7759 50.6967 23.2837 50.6967 21.294C50.6967 17.0161 50.7965 11.047 43.0262 5.57528C39.5948 3.08814 35.1561 1.79484 30.5178 1.79484H29.0016V52.5324H28.9019H28.8919Z" fill="black" fill-opacity="0.83"/>
<path d="M44.7419 20.4981C44.6422 20.4981 44.5425 20.3986 44.4427 20.2991C44.0437 19.7022 44.0437 18.8068 44.0437 17.8119C44.0437 15.6233 44.0437 12.5392 40.1037 9.65412C38.0888 8.16184 35.3657 7.46548 32.6326 7.76394C32.4331 7.76394 32.2236 7.6644 32.2236 7.46543C32.2236 7.26646 32.3234 7.06753 32.5229 7.06753C35.4455 6.86855 38.3781 7.56493 40.4927 9.1567C44.8317 12.2407 44.8317 15.6232 44.8317 17.9114C44.8317 18.8068 44.8317 19.6027 45.131 20.0006C45.2307 20.1996 45.2307 20.3986 45.0312 20.4981C44.8317 20.3986 44.732 20.4981 44.732 20.4981H44.7419Z" fill="black" fill-opacity="0.83"/>
<path d="M25.6703 53.1292H16.7928C16.5933 53.1292 16.3838 52.9302 16.3838 52.7312V1.59577C16.3838 1.39679 16.5833 1.1978 16.7928 1.1978H25.6703C25.8698 1.1978 26.0793 1.39679 26.0793 1.59577V52.8308C26.0793 53.0297 25.8798 53.1292 25.6703 53.1292ZM17.1917 52.4328H25.2613V1.99367H17.1917V52.4328Z" fill="black" fill-opacity="0.83"/>
<path d="M20.6227 6.6697H16.8922C16.6927 6.6697 16.4932 6.47076 16.4932 6.27179C16.4932 6.07282 16.6927 5.87383 16.8922 5.87383H20.6227C20.8222 5.87383 21.0217 6.07282 21.0217 6.27179C21.0217 6.47076 20.8222 6.6697 20.6227 6.6697Z" fill="black" fill-opacity="0.83"/>
<path d="M22.239 9.65422H16.7928C16.5933 9.65422 16.3838 9.45529 16.3838 9.25632C16.3838 9.05735 16.5833 8.85835 16.7928 8.85835H22.239C22.4385 8.85835 22.6479 9.05735 22.6479 9.25632C22.6479 9.45529 22.4484 9.65422 22.239 9.65422Z" fill="black" fill-opacity="0.83"/>
<path d="M20.6227 12.4397H16.8922C16.6927 12.4397 16.4932 12.2408 16.4932 12.0418C16.4932 11.8428 16.6927 11.6438 16.8922 11.6438H20.6227C20.8222 11.6438 21.0217 11.8428 21.0217 12.0418C21.0217 12.2408 20.8222 12.4397 20.6227 12.4397Z" fill="black" fill-opacity="0.83"/>
<path d="M22.239 15.4242H16.7928C16.5933 15.4242 16.3838 15.2253 16.3838 15.0263C16.3838 14.8274 16.5833 14.6284 16.7928 14.6284H22.239C22.4385 14.6284 22.6479 14.8274 22.6479 15.0263C22.6479 15.2253 22.4484 15.4242 22.239 15.4242Z" fill="black" fill-opacity="0.83"/>
<path d="M20.6227 18.21H16.8922C16.6927 18.21 16.4932 18.011 16.4932 17.812C16.4932 17.6131 16.6927 17.4141 16.8922 17.4141H20.6227C20.8222 17.4141 21.0217 17.6131 21.0217 17.812C21.0217 18.1105 20.8222 18.21 20.6227 18.21Z" fill="black" fill-opacity="0.83"/>
<path d="M22.239 21.1945H16.7928C16.5933 21.1945 16.3838 20.9955 16.3838 20.7966C16.3838 20.5976 16.5833 20.3986 16.7928 20.3986H22.239C22.4385 20.3986 22.6479 20.5976 22.6479 20.7966C22.6479 20.9955 22.4484 21.1945 22.239 21.1945Z" fill="black" fill-opacity="0.83"/>
<path d="M20.6227 23.9801H16.8922C16.6927 23.9801 16.4932 23.7811 16.4932 23.5821C16.4932 23.3831 16.6927 23.1842 16.8922 23.1842H20.6227C20.8222 23.1842 21.0217 23.3831 21.0217 23.5821C21.0217 23.8806 20.8222 23.9801 20.6227 23.9801Z" fill="black" fill-opacity="0.83"/>
<path d="M22.239 26.9647H16.7928C16.5933 26.9647 16.3838 26.7657 16.3838 26.5667C16.3838 26.3678 16.5833 26.1688 16.7928 26.1688H22.239C22.4385 26.1688 22.6479 26.3678 22.6479 26.5667C22.6479 26.7657 22.4484 26.9647 22.239 26.9647Z" fill="black" fill-opacity="0.83"/>
<path d="M20.6227 29.7503H16.8922C16.6927 29.7503 16.4932 29.5513 16.4932 29.3523C16.4932 29.1534 16.6927 28.9544 16.8922 28.9544H20.6227C20.8222 28.9544 21.0217 29.1534 21.0217 29.3523C21.0217 29.5513 20.8222 29.7503 20.6227 29.7503Z" fill="black" fill-opacity="0.83"/>
<path d="M22.239 32.7348H16.7928C16.5933 32.7348 16.3838 32.5358 16.3838 32.3369C16.3838 32.1379 16.5833 31.939 16.7928 31.939H22.239C22.4385 31.939 22.6479 32.1379 22.6479 32.3369C22.6479 32.5358 22.4484 32.7348 22.239 32.7348Z" fill="black" fill-opacity="0.83"/>
<path d="M20.6227 35.5205H16.8922C16.6927 35.5205 16.4932 35.3216 16.4932 35.1226C16.4932 34.9236 16.6927 34.7246 16.8922 34.7246H20.6227C20.8222 34.7246 21.0217 34.9236 21.0217 35.1226C21.0217 35.3216 20.8222 35.5205 20.6227 35.5205Z" fill="black" fill-opacity="0.83"/>
<path d="M22.239 38.5051H16.7928C16.5933 38.5051 16.3838 38.3061 16.3838 38.1072C16.3838 37.9082 16.5833 37.7092 16.7928 37.7092H22.239C22.4385 37.7092 22.6479 37.9082 22.6479 38.1072C22.6479 38.3061 22.4484 38.5051 22.239 38.5051Z" fill="black" fill-opacity="0.83"/>
<path d="M20.6227 41.2904H16.8922C16.6927 41.2904 16.4932 41.0915 16.4932 40.8925C16.4932 40.6935 16.6927 40.4945 16.8922 40.4945H20.6227C20.8222 40.4945 21.0217 40.6935 21.0217 40.8925C21.0217 41.0915 20.8222 41.2904 20.6227 41.2904Z" fill="black" fill-opacity="0.83"/>
<path d="M22.239 44.1756H16.7928C16.5933 44.1756 16.3838 43.9767 16.3838 43.7777C16.3838 43.5787 16.5833 43.3798 16.7928 43.3798H22.239C22.4385 43.3798 22.6479 43.5787 22.6479 43.7777C22.6479 43.9767 22.4484 44.1756 22.239 44.1756Z" fill="black" fill-opacity="0.83"/>
<path d="M20.6227 47.0607H16.8922C16.6927 47.0607 16.4932 46.8617 16.4932 46.6627C16.4932 46.4638 16.6927 46.2648 16.8922 46.2648H20.6227C20.8222 46.2648 21.0217 46.4638 21.0217 46.6627C21.0217 46.8617 20.8222 47.0607 20.6227 47.0607Z" fill="black" fill-opacity="0.83"/>
<path d="M22.239 49.9459H16.7928C16.5933 49.9459 16.3838 49.7469 16.3838 49.548C16.3838 49.349 16.5833 49.15 16.7928 49.15H22.239C22.4385 49.15 22.6479 49.349 22.6479 49.548C22.6479 49.8464 22.4484 49.9459 22.239 49.9459Z" fill="black" fill-opacity="0.83"/>
<path d="M22.239 4.18259H16.7928C16.5933 4.18259 16.3838 3.98366 16.3838 3.78468C16.3838 3.58571 16.5833 3.38672 16.7928 3.38672H22.239C22.4385 3.38672 22.6479 3.58571 22.6479 3.78468C22.6479 3.98366 22.4484 4.18259 22.239 4.18259Z" fill="black" fill-opacity="0.83"/>
<path d="M14.0605 44.7726H6.58941C6.38992 44.7726 6.19043 44.5737 6.19043 44.3747V9.15686L9.92098 2.59084C10.0207 2.49136 10.1205 2.39186 10.2202 2.39186C10.32 2.39186 10.5195 2.49136 10.5195 2.59084L14.25 9.15686V44.3747C14.4495 44.5737 14.25 44.7726 14.0505 44.7726H14.0605ZM6.99838 43.9768H13.6615V9.4553L10.3299 3.5857L6.99838 9.4553V43.9768Z" fill="black" fill-opacity="0.83"/>
<path d="M14.0605 47.3591H6.58941C6.38992 47.3591 6.19043 47.1601 6.19043 46.9611V44.3745C6.19043 44.1755 6.38992 43.9765 6.58941 43.9765H14.0605C14.26 43.9765 14.4595 44.1755 14.4595 44.3745V46.9611C14.4595 47.1601 14.26 47.3591 14.0605 47.3591ZM6.99838 46.5632H13.6615V44.7724H6.99838V46.5632Z" fill="black" fill-opacity="0.83"/>
<path d="M10.9381 53.6267H9.93063C7.91573 53.6267 6.2998 52.035 6.2998 50.0452V46.8617C6.2998 46.6627 6.49932 46.4637 6.69882 46.4637H14.1699C14.3694 46.4637 14.5789 46.6627 14.5789 46.8617V50.1447C14.4791 52.0349 12.8632 53.6267 10.948 53.6267H10.9381ZM6.99805 47.3591V50.1447C6.99805 51.637 8.30476 52.9303 9.82092 52.9303H10.8284C12.3445 52.9303 13.6512 51.637 13.6512 50.1447V47.3591H6.98807H6.99805Z" fill="black" fill-opacity="0.83"/>
<path d="M14.0596 15.7228H8.40387C8.20437 15.7228 8.00488 15.5238 8.00488 15.3248C8.00488 15.1258 8.20437 14.9268 8.40387 14.9268H14.1593C14.3588 14.9268 14.5683 15.1258 14.5683 15.3248C14.4685 15.6233 14.269 15.7228 14.0596 15.7228Z" fill="black" fill-opacity="0.83"/>
<path d="M10.3296 44.7725C10.1302 44.7725 9.93066 44.5735 9.93066 44.3746V23.5821C9.93066 23.3831 10.1302 23.1842 10.3296 23.1842C10.5291 23.1842 10.7286 23.3831 10.7286 23.5821V44.3746C10.7286 44.5735 10.6289 44.7725 10.3296 44.7725Z" fill="black" fill-opacity="0.83"/>
<path d="M33.1318 56.1139H2.15018C1.95068 56.1139 1.74121 55.9149 1.74121 55.7159C1.74121 55.517 1.94071 55.318 2.15018 55.318H33.1318C33.3313 55.318 33.5308 55.517 33.5308 55.7159C33.431 56.0144 33.3313 56.1139 33.1318 56.1139Z" fill="black" fill-opacity="0.83"/>
<path d="M41.7102 58.7999H20.2146C20.0151 58.7999 19.8057 58.601 19.8057 58.402C19.8057 58.203 20.0052 58.0041 20.2146 58.0041H41.7102C41.9097 58.0041 42.1092 58.203 42.1092 58.402C42.1092 58.601 41.9097 58.7999 41.7102 58.7999Z" fill="black" fill-opacity="0.83"/>
<path d="M46.5577 58.7999H43.8345C43.635 58.7999 43.4355 58.601 43.4355 58.402C43.4355 58.203 43.635 58.0041 43.8345 58.0041H46.5577C46.7571 58.0041 46.9566 58.203 46.9566 58.402C46.9566 58.601 46.7571 58.7999 46.5577 58.7999Z" fill="black" fill-opacity="0.83"/>
<path d="M11.0375 58.7004H0.843351C0.643855 58.7004 0.444336 58.5015 0.444336 58.3025C0.444336 58.1036 0.643855 57.9046 0.843351 57.9046H11.0375C11.237 57.9046 11.4465 58.1036 11.4465 58.3025C11.4465 58.5015 11.247 58.7004 11.0375 58.7004Z" fill="black" fill-opacity="0.83"/>
<path d="M3.06815 47.0606C2.86865 47.0606 2.65918 46.8616 2.65918 46.6627V21.4929C2.65918 21.2939 2.85868 21.0949 3.06815 21.0949C3.27762 21.0949 3.46713 21.2939 3.46713 21.4929V46.6627C3.46713 46.8616 3.26764 47.0606 3.06815 47.0606Z" fill="black" fill-opacity="0.83"/>
<path d="M43.1259 29.0538C41.9189 29.0538 40.8018 28.059 40.8018 26.7657C40.8018 25.5719 41.8092 24.4775 43.1259 24.4775C44.3328 24.4775 45.45 25.4724 45.45 26.7657C45.3502 28.059 44.3428 29.0538 43.1259 29.0538ZM43.1259 25.3729C42.3179 25.3729 41.6097 26.0693 41.6097 26.8652C41.6097 27.661 42.3179 28.3574 43.1259 28.3574C43.9338 28.3574 44.642 27.661 44.642 26.8652C44.642 25.9698 43.9338 25.3729 43.1259 25.3729Z" fill="black" fill-opacity="0.83"/>
</svg>
