<svg width="120" height="126" viewBox="0 0 120 126" fill="none" xmlns="http://www.w3.org/2000/svg">
<path d="M85.9181 113.897H60.9333C60.4999 113.897 60.0449 113.465 60.0449 113.033V1.08062C60.0449 0.648371 60.4783 0.216071 60.695 0.216071C62.0168 0.216071 63.317 0 64.8555 0C75.3868 0 85.2463 3.02573 93.1339 8.64494C100.805 14.048 105.854 20.3155 108.476 27.4476C110.664 33.499 110.664 39.3344 110.448 44.0891C110.448 47.9793 110.448 51.2212 111.553 53.1663C112.875 55.1114 114.63 57.0565 116.147 58.7855C118.552 61.379 120.524 63.5402 119.874 65.7015C119.44 67.2143 117.469 68.295 113.958 68.9433H113.525C113.236 68.9433 112.94 69.0154 112.636 69.1595C110.881 69.8079 111.098 72.8336 111.531 76.2916C111.965 80.1818 112.42 84.5042 109.776 87.3138C108.237 89.0428 105.832 89.9073 102.322 89.9073H101.888C100.783 89.9073 99.6997 89.9074 98.8113 89.6913C97.7061 89.6913 96.8394 89.4751 95.9726 89.4751C93.784 89.4751 92.0288 89.9073 90.4903 91.6363C88.9517 93.3653 88.9518 97.6878 88.9518 101.794C88.9518 107.197 88.9517 112.168 86.0914 114.113C86.3081 113.897 86.0914 113.897 85.8747 113.897H85.9181ZM61.8001 112.384H85.7014C87.4566 110.871 87.4566 105.901 87.6733 101.578C87.6733 96.8233 87.6732 92.5008 89.6451 90.3396C91.8337 87.9622 94.2391 87.7461 96.4493 87.7461C97.3161 87.7461 98.4212 87.746 99.288 87.9622C100.176 87.9622 101.26 88.1784 102.365 88.1784H102.798C105.637 88.1784 107.847 87.53 108.931 86.2332C110.903 84.072 110.469 79.9656 110.253 76.5077C109.819 72.6174 109.603 68.9433 112.441 67.8627C112.875 67.6466 113.308 67.6466 113.546 67.6466H113.98C117.49 66.9983 118.574 66.1338 118.812 65.4854C119.245 64.4048 117.274 62.2435 115.302 60.2984C113.763 58.5694 112.008 56.6243 110.708 54.463C109.169 52.0857 109.169 48.8439 109.169 44.5214C109.169 35.2281 109.386 22.2607 92.5055 10.3739C85.0513 4.97081 75.4085 2.16124 65.3322 2.16124H62.0385V112.384H61.8218H61.8001Z" fill="white" fill-opacity="0.83"/>
<path d="M96.234 42.7924C96.0173 42.7924 95.8006 42.5763 95.584 42.3601C94.7172 41.0634 94.7172 39.1183 94.7172 36.9571C94.7172 32.2023 94.7172 25.5025 86.1578 19.2349C81.7806 15.9931 75.8649 14.4803 69.9275 15.1286C69.4941 15.1286 69.0391 14.9124 69.0391 14.4802C69.0391 14.0479 69.2557 13.6157 69.6891 13.6157C76.0382 13.1835 82.409 14.6963 87.0029 18.1543C96.4291 24.8541 96.429 32.2023 96.429 37.1731C96.429 39.1182 96.4291 40.8473 97.0791 41.7118C97.2958 42.1441 97.2958 42.5763 96.8624 42.7924C96.429 42.5763 96.2124 42.7924 96.2124 42.7924H96.234Z" fill="white" fill-opacity="0.83"/>
<path d="M54.8011 113.681H35.5154C35.082 113.681 34.627 113.248 34.627 112.816V1.72868C34.627 1.29644 35.0603 0.864136 35.5154 0.864136H54.8011C55.2345 0.864136 55.6895 1.29644 55.6895 1.72868V113.032C55.6895 113.465 55.2561 113.681 54.8011 113.681ZM36.3822 112.168H53.9126V2.5931H36.3822V112.168Z" fill="white" fill-opacity="0.83"/>
<path d="M43.8364 12.7514H35.7321C35.2987 12.7514 34.8652 12.3193 34.8652 11.887C34.8652 11.4548 35.2987 11.0225 35.7321 11.0225H43.8364C44.2697 11.0225 44.7031 11.4548 44.7031 11.887C44.7031 12.3193 44.2697 12.7514 43.8364 12.7514Z" fill="white" fill-opacity="0.83"/>
<path d="M47.3468 19.2351H35.5154C35.082 19.2351 34.627 18.8029 34.627 18.3707C34.627 17.9384 35.0603 17.5061 35.5154 17.5061H47.3468C47.7802 17.5061 48.2353 17.9384 48.2353 18.3707C48.2353 18.8029 47.8019 19.2351 47.3468 19.2351Z" fill="white" fill-opacity="0.83"/>
<path d="M43.8364 25.2863H35.7321C35.2987 25.2863 34.8652 24.8542 34.8652 24.4219C34.8652 23.9897 35.2987 23.5574 35.7321 23.5574H43.8364C44.2697 23.5574 44.7031 23.9897 44.7031 24.4219C44.7031 24.8542 44.2697 25.2863 43.8364 25.2863Z" fill="white" fill-opacity="0.83"/>
<path d="M47.3468 31.77H35.5154C35.082 31.77 34.627 31.3378 34.627 30.9056C34.627 30.4733 35.0603 30.041 35.5154 30.041H47.3468C47.7802 30.041 48.2353 30.4733 48.2353 30.9056C48.2353 31.3378 47.8019 31.77 47.3468 31.77Z" fill="white" fill-opacity="0.83"/>
<path d="M43.8364 37.8217H35.7321C35.2987 37.8217 34.8652 37.3894 34.8652 36.9572C34.8652 36.525 35.2987 36.0927 35.7321 36.0927H43.8364C44.2697 36.0927 44.7031 36.525 44.7031 36.9572C44.7031 37.6056 44.2697 37.8217 43.8364 37.8217Z" fill="white" fill-opacity="0.83"/>
<path d="M47.3468 44.3054H35.5154C35.082 44.3054 34.627 43.8731 34.627 43.4408C34.627 43.0086 35.0603 42.5763 35.5154 42.5763H47.3468C47.7802 42.5763 48.2353 43.0086 48.2353 43.4408C48.2353 43.8731 47.8019 44.3054 47.3468 44.3054Z" fill="white" fill-opacity="0.83"/>
<path d="M43.8364 50.3566H35.7321C35.2987 50.3566 34.8652 49.9243 34.8652 49.4921C34.8652 49.0599 35.2987 48.6277 35.7321 48.6277H43.8364C44.2697 48.6277 44.7031 49.0599 44.7031 49.4921C44.7031 50.1405 44.2697 50.3566 43.8364 50.3566Z" fill="white" fill-opacity="0.83"/>
<path d="M47.3468 56.8405H35.5154C35.082 56.8405 34.627 56.4082 34.627 55.976C34.627 55.5437 35.0603 55.1116 35.5154 55.1116H47.3468C47.7802 55.1116 48.2353 55.5437 48.2353 55.976C48.2353 56.4082 47.8019 56.8405 47.3468 56.8405Z" fill="white" fill-opacity="0.83"/>
<path d="M43.8364 62.892H35.7321C35.2987 62.892 34.8652 62.4597 34.8652 62.0275C34.8652 61.5953 35.2987 61.1631 35.7321 61.1631H43.8364C44.2697 61.1631 44.7031 61.5953 44.7031 62.0275C44.7031 62.4597 44.2697 62.892 43.8364 62.892Z" fill="white" fill-opacity="0.83"/>
<path d="M47.3468 69.3757H35.5154C35.082 69.3757 34.627 68.9434 34.627 68.5111C34.627 68.0789 35.0603 67.6467 35.5154 67.6467H47.3468C47.7802 67.6467 48.2353 68.0789 48.2353 68.5111C48.2353 68.9434 47.8019 69.3757 47.3468 69.3757Z" fill="white" fill-opacity="0.83"/>
<path d="M43.8364 75.4273H35.7321C35.2987 75.4273 34.8652 74.9952 34.8652 74.5629C34.8652 74.1307 35.2987 73.6984 35.7321 73.6984H43.8364C44.2697 73.6984 44.7031 74.1307 44.7031 74.5629C44.7031 74.9952 44.2697 75.4273 43.8364 75.4273Z" fill="white" fill-opacity="0.83"/>
<path d="M47.3468 81.911H35.5154C35.082 81.911 34.627 81.4788 34.627 81.0466C34.627 80.6143 35.0603 80.182 35.5154 80.182H47.3468C47.7802 80.182 48.2353 80.6143 48.2353 81.0466C48.2353 81.4788 47.8019 81.911 47.3468 81.911Z" fill="white" fill-opacity="0.83"/>
<path d="M43.8364 87.962H35.7321C35.2987 87.962 34.8652 87.5298 34.8652 87.0976C34.8652 86.6653 35.2987 86.233 35.7321 86.233H43.8364C44.2697 86.233 44.7031 86.6653 44.7031 87.0976C44.7031 87.5298 44.2697 87.962 43.8364 87.962Z" fill="white" fill-opacity="0.83"/>
<path d="M47.3468 94.2298H35.5154C35.082 94.2298 34.627 93.7975 34.627 93.3653C34.627 92.933 35.0603 92.5009 35.5154 92.5009H47.3468C47.7802 92.5009 48.2353 92.933 48.2353 93.3653C48.2353 93.7975 47.8019 94.2298 47.3468 94.2298Z" fill="white" fill-opacity="0.83"/>
<path d="M43.8364 100.497H35.7321C35.2987 100.497 34.8652 100.065 34.8652 99.6329C34.8652 99.2006 35.2987 98.7683 35.7321 98.7683H43.8364C44.2697 98.7683 44.7031 99.2006 44.7031 99.6329C44.7031 100.065 44.2697 100.497 43.8364 100.497Z" fill="white" fill-opacity="0.83"/>
<path d="M47.3468 106.765H35.5154C35.082 106.765 34.627 106.333 34.627 105.901C34.627 105.469 35.0603 105.036 35.5154 105.036H47.3468C47.7802 105.036 48.2353 105.469 48.2353 105.901C48.2353 106.549 47.8019 106.765 47.3468 106.765Z" fill="white" fill-opacity="0.83"/>
<path d="M47.3468 7.34847H35.5154C35.082 7.34847 34.627 6.9163 34.627 6.48405C34.627 6.05181 35.0603 5.61951 35.5154 5.61951H47.3468C47.7802 5.61951 48.2353 6.05181 48.2353 6.48405C48.2353 6.9163 47.8019 7.34847 47.3468 7.34847Z" fill="white" fill-opacity="0.83"/>
<path d="M29.5795 95.5267H13.3492C12.9158 95.5267 12.4824 95.0945 12.4824 94.6623V18.1545L20.5867 3.8904C20.8034 3.67428 21.0201 3.45813 21.2368 3.45813C21.4535 3.45813 21.8869 3.67428 21.8869 3.8904L29.9912 18.1545V94.6623C30.4246 95.0945 29.9912 95.5267 29.5578 95.5267H29.5795ZM14.2376 93.7977H28.7127V18.8028L21.4752 6.05164L14.2376 18.8028V93.7977Z" fill="white" fill-opacity="0.83"/>
<path d="M29.5795 101.145H13.3492C12.9158 101.145 12.4824 100.713 12.4824 100.281V94.6618C12.4824 94.2295 12.9158 93.7972 13.3492 93.7972H29.5795C30.0129 93.7972 30.4463 94.2295 30.4463 94.6618V100.281C30.4463 100.713 30.0129 101.145 29.5795 101.145ZM14.2376 99.4165H28.7127V95.5262H14.2376V99.4165Z" fill="white" fill-opacity="0.83"/>
<path d="M22.797 114.761H20.6084C16.2312 114.761 12.7207 111.304 12.7207 106.981V100.065C12.7207 99.6329 13.1541 99.2006 13.5875 99.2006H29.8178C30.2512 99.2006 30.7063 99.6329 30.7063 100.065V107.197C30.4896 111.304 26.9791 114.761 22.8186 114.761H22.797ZM14.2376 101.146V107.197C14.2376 110.439 17.0763 113.249 20.37 113.249H22.5586C25.8523 113.249 28.691 110.439 28.691 107.197V101.146H14.2159H14.2376Z" fill="white" fill-opacity="0.83"/>
<path d="M29.5791 32.4185H17.2925C16.8592 32.4185 16.4258 31.9862 16.4258 31.554C16.4258 31.1218 16.8592 30.6895 17.2925 30.6895H29.7957C30.2291 30.6895 30.6842 31.1218 30.6842 31.554C30.4675 32.2024 30.0341 32.4185 29.5791 32.4185Z" fill="white" fill-opacity="0.83"/>
<path d="M21.4742 95.5264C21.0408 95.5264 20.6074 95.0942 20.6074 94.662V49.4921C20.6074 49.0599 21.0408 48.6277 21.4742 48.6277C21.9076 48.6277 22.3409 49.0599 22.3409 49.4921V94.662C22.3409 95.0942 22.1243 95.5264 21.4742 95.5264Z" fill="white" fill-opacity="0.83"/>
<path d="M71.0097 120.165H3.70486C3.27147 120.165 2.81641 119.732 2.81641 119.3C2.81641 118.868 3.2498 118.436 3.70486 118.436H71.0097C71.4431 118.436 71.8765 118.868 71.8765 119.3C71.6598 119.949 71.4431 120.165 71.0097 120.165Z" fill="white" fill-opacity="0.83"/>
<path d="M89.6463 126H42.949C42.5156 126 42.0605 125.568 42.0605 125.135C42.0605 124.703 42.4939 124.271 42.949 124.271H89.6463C90.0797 124.271 90.5131 124.703 90.5131 125.135C90.5131 125.568 90.0797 126 89.6463 126Z" fill="white" fill-opacity="0.83"/>
<path d="M100.177 126H94.2613C93.8279 126 93.3945 125.568 93.3945 125.135C93.3945 124.703 93.8279 124.271 94.2613 124.271H100.177C100.61 124.271 101.044 124.703 101.044 125.135C101.044 125.568 100.61 126 100.177 126Z" fill="white" fill-opacity="0.83"/>
<path d="M23.0128 125.784H0.866825C0.433439 125.784 0 125.351 0 124.919C0 124.487 0.433439 124.055 0.866825 124.055H23.0128C23.4462 124.055 23.9012 124.487 23.9012 124.919C23.9012 125.351 23.4678 125.784 23.0128 125.784Z" fill="white" fill-opacity="0.83"/>
<path d="M5.699 100.497C5.26561 100.497 4.81055 100.065 4.81055 99.6326V44.9534C4.81055 44.5212 5.24394 44.0889 5.699 44.0889C6.15405 44.0889 6.56575 44.5212 6.56575 44.9534V99.6326C6.56575 100.065 6.13238 100.497 5.699 100.497Z" fill="white" fill-opacity="0.83"/>
<path d="M92.7227 61.3791C90.1008 61.3791 87.6738 59.2179 87.6738 56.4083C87.6738 53.8148 89.8624 51.4375 92.7227 51.4375C95.3447 51.4375 97.7717 53.5987 97.7717 56.4083C97.555 59.2179 95.3664 61.3791 92.7227 61.3791ZM92.7227 53.3825C90.9675 53.3825 89.429 54.8954 89.429 56.6244C89.429 58.3534 90.9675 59.8662 92.7227 59.8662C94.478 59.8662 96.0165 58.3534 96.0165 56.6244C96.0165 54.6793 94.478 53.3825 92.7227 53.3825Z" fill="white" fill-opacity="0.83"/>
</svg>
