<svg width="120" height="118" viewBox="0 0 120 118" fill="none" xmlns="http://www.w3.org/2000/svg">
<path d="M54.1294 106.685H53.7224L11.7214 88.7023C11.5179 88.5002 11.3145 88.2982 11.3145 88.0961C11.3145 87.8941 11.5179 87.4899 11.7214 87.4899L54.1294 69.5071H54.7399L97.7584 87.4899C97.9619 87.6919 98.1654 87.8941 98.1654 88.0961C98.1654 88.2982 97.9619 88.7023 97.7584 88.7023L54.3329 106.685H54.1294ZM14.0005 87.894L54.1498 105.069L95.7235 87.894L54.7603 70.7194L14.0005 87.894Z" fill="white" fill-opacity="0.83"/>
<path d="M97.575 88.702H97.3715L54.76 70.7191L12.5556 88.702C12.3521 88.904 11.9451 88.7019 11.7416 88.4999C11.5381 88.2978 11.5381 87.8938 11.5381 87.6917L53.9461 0.808187C54.1496 0.606132 54.3531 0.404053 54.5566 0.404053C54.7601 0.404053 55.167 0.606132 55.167 0.808187L98.1855 87.6917C98.389 87.8938 98.1855 88.2978 97.982 88.4999C97.982 88.4999 97.7785 88.702 97.575 88.702ZM54.5362 69.1027H54.7397L95.9064 86.2773L54.3327 2.62661L13.573 86.2773L54.1292 69.1027H54.5362Z" fill="white" fill-opacity="0.83"/>
<path d="M84.1858 118H3.90774C3.50076 118 3.09375 117.596 3.09375 117.192C3.09375 116.788 3.50076 116.384 3.90774 116.384H84.1858C84.5928 116.384 84.9998 116.788 84.9998 117.192C84.9998 117.596 84.5928 118 84.1858 118Z" fill="white" fill-opacity="0.83"/>
<path d="M106.427 111.332H50.853C50.446 111.332 50.0391 110.928 50.0391 110.524C50.0391 110.12 50.446 109.716 50.853 109.716H106.427C106.834 109.716 107.241 110.12 107.241 110.524C107.241 111.13 107.038 111.332 106.427 111.332Z" fill="white" fill-opacity="0.83"/>
<path d="M119.185 111.332H112.185C111.778 111.332 111.371 110.928 111.371 110.524C111.371 110.12 111.778 109.716 112.185 109.716H119.185C119.592 109.716 119.999 110.12 119.999 110.524C119.999 111.13 119.592 111.332 119.185 111.332Z" fill="white" fill-opacity="0.83"/>
<path d="M27.1663 111.535H0.813961C0.406974 111.535 0 111.13 0 110.726C0 110.322 0.406974 109.918 0.813961 109.918H27.1663C27.5733 109.918 27.9803 110.322 27.9803 110.726C27.7768 111.332 27.5733 111.535 27.1663 111.535Z" fill="white" fill-opacity="0.83"/>
<path d="M84.1848 38.9965H73.074C72.8705 38.9965 72.4636 38.7946 72.4636 38.5925L65.6669 25.0548C65.4634 24.8528 65.6669 24.4486 65.6669 24.2465C65.8704 24.0445 66.0739 23.8424 66.2774 23.8424H84.1848C84.5918 23.8424 84.9987 24.2466 84.9987 24.6507V38.1884C84.7952 38.7945 84.5918 38.9965 84.1848 38.9965ZM73.481 37.5822H83.3708V25.4589H67.5187L73.481 37.5822ZM36.2214 38.9965H21.4071C21.2714 38.9965 21.1358 38.9292 21.0001 38.7945L9.25854 32.1267C9.05505 31.9247 8.85156 31.7226 8.85156 31.5206C8.85156 31.3185 9.05505 30.9143 9.25854 30.9143L21.0001 24.0445C21.2036 24.0445 21.2036 23.8424 21.4071 23.8424H42.8146C43.0181 23.8424 43.2216 24.0445 43.4251 24.2465C43.6286 24.4486 43.6286 24.6507 43.4251 25.0548L36.8319 38.5925C36.8319 38.9966 36.4249 38.9965 36.2214 38.9965ZM21.6106 37.5822H35.8144L41.5733 25.4589H21.6106L11.1103 31.5206L21.6106 37.5822Z" fill="white" fill-opacity="0.83"/>
<path d="M88.7229 38.9965H84.1851C83.7781 38.9965 83.3711 38.5925 83.3711 38.1884V24.6507C83.3711 24.2466 83.7781 23.8424 84.1851 23.8424H88.7229C89.1299 23.8424 89.5369 24.2466 89.5369 24.6507V38.1884C89.5369 38.7945 89.1299 38.9965 88.7229 38.9965ZM84.7955 37.5822H87.8886V25.4589H84.7955V37.5822Z" fill="white" fill-opacity="0.83"/>
<path d="M94.2799 38.9965H88.521C88.114 38.9965 87.707 38.5925 87.707 38.1884V24.6507C87.707 24.2466 88.114 23.8424 88.521 23.8424H94.2799C97.7799 23.8424 100.67 26.6712 100.67 30.1062V32.5309C100.873 36.1678 97.9834 38.9965 94.2799 38.9965ZM89.5385 37.5822H94.4834C97.1491 37.5822 99.4283 35.3596 99.4283 32.7329V30.3082C99.4283 27.6815 97.1695 25.4589 94.4834 25.4589H89.5385V37.5822Z" fill="white" fill-opacity="0.83"/>
<path d="M32.1109 35.9661C31.7039 35.9661 31.2969 35.562 31.2969 35.1579V24.8531C31.2969 24.449 31.7039 24.0449 32.1109 24.0449C32.5179 24.0449 32.9248 24.449 32.9248 24.8531V35.1579C32.9248 35.562 32.5179 35.9661 32.1109 35.9661Z" fill="white" fill-opacity="0.83"/>
<path d="M84.1861 32.3287H69.7788C69.3718 32.3287 68.9648 31.9247 68.9648 31.5205C68.9648 31.1164 69.3718 30.7123 69.7788 30.7123H84.1861C84.5931 30.7123 85.0001 31.1164 85.0001 31.5205C84.7966 31.9247 84.5931 32.3287 84.1861 32.3287Z" fill="white" fill-opacity="0.83"/>
<path d="M100.648 62.0306H84.3884C84.1849 62.0306 83.7779 61.8286 83.7779 61.6265L75.1295 44.0477C74.926 43.8457 75.1295 43.4416 75.1295 43.2396C75.333 43.0375 75.5365 42.8354 75.74 42.8354H100.648C101.055 42.8354 101.462 43.2396 101.462 43.6437V61.2224C101.258 61.6265 101.055 62.0306 100.648 62.0306ZM84.7954 60.4142H99.8132V44.4519H76.7574L84.7954 60.4142ZM25.1108 62.0306H9.0552C8.64822 62.0306 8.24121 61.6265 8.24121 61.2224V43.6437C8.24121 43.2396 8.64822 42.8354 9.0552 42.8354H33.7593C33.9628 42.8354 34.1663 43.0375 34.3698 43.2396C34.5733 43.4416 34.5733 43.6436 34.3698 44.0477L25.7213 61.6265C25.7213 61.8286 25.3143 62.0306 25.1108 62.0306ZM9.86916 60.4142H24.6835L32.4976 44.4519H9.84883V60.4142H9.86916Z" fill="white" fill-opacity="0.83"/>
<path d="M94.2788 51.9279C93.8718 51.9279 93.4648 51.5238 93.4648 51.1196V43.6437C93.4648 43.2396 93.8718 42.8354 94.2788 42.8354C94.6858 42.8354 95.0928 43.2396 95.0928 43.6437V51.1196C95.0928 51.5238 94.6858 51.9279 94.2788 51.9279Z" fill="white" fill-opacity="0.83"/>
<path d="M88.9273 55.1607C88.5203 55.1607 88.1133 54.7567 88.1133 54.3526V43.6437C88.1133 43.2396 88.5203 42.8354 88.9273 42.8354C89.3343 42.8354 89.7412 43.2396 89.7412 43.6437V54.3526C89.7412 54.7567 89.3343 55.1607 88.9273 55.1607Z" fill="white" fill-opacity="0.83"/>
<path d="M83.7788 51.9279C83.3718 51.9279 82.9648 51.5238 82.9648 51.1196V43.6437C82.9648 43.2396 83.3718 42.8354 83.7788 42.8354C84.1858 42.8354 84.5928 43.2396 84.5928 43.6437V51.1196C84.5928 51.5238 84.1858 51.9279 83.7788 51.9279Z" fill="white" fill-opacity="0.83"/>
<path d="M25.519 55.1607C25.1121 55.1607 24.7051 54.7567 24.7051 54.3526V43.6437C24.7051 43.2396 25.1121 42.8354 25.519 42.8354C25.926 42.8354 26.333 43.2396 26.333 43.6437V54.3526C26.1295 54.7567 25.926 55.1607 25.519 55.1607Z" fill="white" fill-opacity="0.83"/>
<path d="M20.3696 51.9279C19.9626 51.9279 19.5557 51.5238 19.5557 51.1196V43.6437C19.5557 43.2396 19.9626 42.8354 20.3696 42.8354C20.7766 42.8354 21.1836 43.2396 21.1836 43.6437V51.1196C20.9801 51.5238 20.7766 51.9279 20.3696 51.9279Z" fill="white" fill-opacity="0.83"/>
<path d="M14.814 55.1607C14.407 55.1607 14 54.7567 14 54.3526V43.6437C14 43.2396 14.407 42.8354 14.814 42.8354C15.221 42.8354 15.628 43.2396 15.628 43.6437V54.3526C15.628 54.7567 15.221 55.1607 14.814 55.1607Z" fill="white" fill-opacity="0.83"/>
<path d="M54.536 70.5171C54.129 70.5171 53.7221 70.113 53.7221 69.7089L53.5186 0.808268C53.5186 0.404159 53.9256 0 54.3325 0C54.7395 0 55.1465 0.404159 55.1465 0.808268L55.35 69.7089C55.35 70.315 54.943 70.5171 54.536 70.5171Z" fill="white" fill-opacity="0.83"/>
</svg>
