<svg width="115" height="130" viewBox="0 0 115 130" fill="none" xmlns="http://www.w3.org/2000/svg">
<path d="M90.4454 104.062H42.3605C42.1404 104.062 41.9204 104.062 41.7003 103.842L17.6468 79.8543C17.4268 79.6342 17.4268 79.4141 17.4268 79.1941V6.35145C17.4268 5.91131 17.8669 5.47119 18.307 5.47119H90.6655C91.1056 5.47119 91.5457 5.91131 91.5457 6.35145V103.181C91.3257 103.622 90.8855 104.062 90.4234 104.062H90.4454ZM42.8006 102.521H89.7632V7.23174H18.9672V79.1941L42.7786 102.521H42.8006Z" fill="white" fill-opacity="0.83"/>
<path d="M58.3819 119.907L5.38944 117.486C4.9493 117.486 4.72923 117.046 4.50916 116.606L2.06641 64.2297C2.06641 63.7896 2.28647 63.5695 2.50654 63.3495C2.7266 63.1294 3.16674 63.3494 3.38681 63.5695L58.822 118.367C59.0421 118.587 59.0421 118.807 59.0421 119.027C59.2621 119.687 58.822 119.907 58.3819 119.907ZM6.29171 115.946L56.3792 118.146L4.06904 66.4304L6.29171 115.946Z" fill="white" fill-opacity="0.83"/>
<path d="M35.0113 107.583C34.8646 107.583 34.8646 107.583 35.0113 107.583L16.3055 106.702C15.8653 106.702 15.6453 106.262 15.4252 105.822L14.5449 87.5564C14.5449 87.1163 14.765 86.8962 14.9851 86.6761C15.2051 86.456 15.6453 86.6761 15.8653 86.8962L35.2313 106.042C35.4514 106.262 35.4514 106.482 35.4514 106.702C35.6715 107.142 35.4514 107.583 35.0113 107.583ZM17.1858 105.162L32.7666 105.822L16.5255 89.7571L17.1858 105.162Z" fill="white" fill-opacity="0.83"/>
<path d="M109.81 100.101H94.6693C94.2292 100.101 93.7891 99.6609 93.7891 99.2207V13.6141C93.7891 13.174 94.2292 12.7339 94.6693 12.7339H109.81C110.25 12.7339 110.69 13.174 110.69 13.6141V99.2207C110.69 99.8809 110.25 100.101 109.81 100.101ZM95.5496 98.5605H109.128V14.4944H95.5496V98.5605Z" fill="white" fill-opacity="0.83"/>
<path d="M109.811 20.4363H103.363C102.923 20.4363 102.482 19.9962 102.482 19.556C102.482 19.1159 102.923 18.6758 103.363 18.6758H109.811C110.251 18.6758 110.691 19.1159 110.691 19.556C110.691 19.9962 110.251 20.4363 109.811 20.4363Z" fill="white" fill-opacity="0.83"/>
<path d="M109.81 25.4979H100.457C100.017 25.4979 99.5771 25.0577 99.5771 24.6176C99.5771 24.1774 100.017 23.7373 100.457 23.7373H109.81C110.25 23.7373 110.691 24.1774 110.691 24.6176C110.691 25.0577 110.25 25.4979 109.81 25.4979Z" fill="white" fill-opacity="0.83"/>
<path d="M109.811 30.3387H103.363C102.923 30.3387 102.482 29.8985 102.482 29.4584C102.482 29.0182 102.923 28.5781 103.363 28.5781H109.811C110.251 28.5781 110.691 29.0182 110.691 29.4584C110.691 29.8985 110.251 30.3387 109.811 30.3387Z" fill="white" fill-opacity="0.83"/>
<path d="M109.81 35.4002H100.457C100.017 35.4002 99.5771 34.96 99.5771 34.5199C99.5771 34.0798 100.017 33.6396 100.457 33.6396H109.81C110.25 33.6396 110.691 34.0798 110.691 34.5199C110.691 34.96 110.25 35.4002 109.81 35.4002Z" fill="white" fill-opacity="0.83"/>
<path d="M109.811 40.2425H103.363C102.923 40.2425 102.482 39.8023 102.482 39.3622C102.482 38.9221 102.923 38.4819 103.363 38.4819H109.811C110.251 38.4819 110.691 38.9221 110.691 39.3622C110.691 39.8023 110.251 40.2425 109.811 40.2425Z" fill="white" fill-opacity="0.83"/>
<path d="M109.81 45.304H100.457C100.017 45.304 99.5771 44.8639 99.5771 44.4237C99.5771 43.9836 100.017 43.5435 100.457 43.5435H109.81C110.25 43.5435 110.691 43.9836 110.691 44.4237C110.691 44.8639 110.25 45.304 109.81 45.304Z" fill="white" fill-opacity="0.83"/>
<path d="M109.811 50.1463H103.363C102.923 50.1463 102.482 49.7061 102.482 49.266C102.482 48.8259 102.923 48.3857 103.363 48.3857H109.811C110.251 48.3857 110.691 48.8259 110.691 49.266C110.691 49.7061 110.251 50.1463 109.811 50.1463Z" fill="white" fill-opacity="0.83"/>
<path d="M109.81 55.2064H100.457C100.017 55.2064 99.5771 54.7662 99.5771 54.3261C99.5771 53.8859 100.017 53.4458 100.457 53.4458H109.81C110.25 53.4458 110.691 53.8859 110.691 54.3261C110.691 54.7662 110.25 55.2064 109.81 55.2064Z" fill="white" fill-opacity="0.83"/>
<path d="M109.811 60.0482H103.363C102.923 60.0482 102.482 59.608 102.482 59.1679C102.482 58.7277 102.923 58.2876 103.363 58.2876H109.811C110.251 58.2876 110.691 58.7277 110.691 59.1679C110.691 59.608 110.251 60.0482 109.811 60.0482Z" fill="white" fill-opacity="0.83"/>
<path d="M109.81 65.1097H100.457C100.017 65.1097 99.5771 64.6695 99.5771 64.2294C99.5771 63.7892 100.017 63.3491 100.457 63.3491H109.81C110.25 63.3491 110.691 63.7892 110.691 64.2294C110.691 64.6695 110.25 65.1097 109.81 65.1097Z" fill="white" fill-opacity="0.83"/>
<path d="M109.811 69.952H103.363C102.923 69.952 102.482 69.5118 102.482 69.0717C102.482 68.6315 102.923 68.1914 103.363 68.1914H109.811C110.251 68.1914 110.691 68.6315 110.691 69.0717C110.691 69.5118 110.251 69.952 109.811 69.952Z" fill="white" fill-opacity="0.83"/>
<path d="M109.81 74.7928H100.457C100.017 74.7928 99.5771 74.3527 99.5771 73.9125C99.5771 73.4724 100.017 73.0322 100.457 73.0322H109.81C110.25 73.0322 110.691 73.4724 110.691 73.9125C110.691 74.3527 110.25 74.7928 109.81 74.7928Z" fill="white" fill-opacity="0.83"/>
<path d="M109.811 79.8543H103.363C102.923 79.8543 102.482 79.4141 102.482 78.974C102.482 78.5339 102.923 78.0938 103.363 78.0938H109.811C110.251 78.0938 110.691 78.5339 110.691 78.974C110.691 79.4141 110.251 79.8543 109.811 79.8543Z" fill="white" fill-opacity="0.83"/>
<path d="M109.81 84.6961H100.457C100.017 84.6961 99.5771 84.256 99.5771 83.8158C99.5771 83.3757 100.017 82.9355 100.457 82.9355H109.81C110.25 82.9355 110.691 83.3757 110.691 83.8158C110.691 84.256 110.25 84.6961 109.81 84.6961Z" fill="white" fill-opacity="0.83"/>
<path d="M109.811 89.5384H103.363C102.923 89.5384 102.482 89.0983 102.482 88.6581C102.482 88.218 102.923 87.7778 103.363 87.7778H109.811C110.251 87.7778 110.691 88.218 110.691 88.6581C110.691 89.0983 110.251 89.5384 109.811 89.5384Z" fill="white" fill-opacity="0.83"/>
<path d="M109.81 94.5999H100.457C100.017 94.5999 99.5771 94.1598 99.5771 93.7196C99.5771 93.2795 100.017 92.8394 100.457 92.8394H109.81C110.25 92.8394 110.691 93.2795 110.691 93.7196C110.691 94.1598 110.25 94.5999 109.81 94.5999Z" fill="white" fill-opacity="0.83"/>
<path d="M49.6872 52.5669C42.337 52.5669 36.3291 46.625 36.3291 39.3628C36.3291 32.1005 42.337 26.1587 49.6872 26.1587C57.0375 26.1587 63.0454 32.1005 63.0454 39.3628C63.0454 46.625 57.0375 52.5669 49.6872 52.5669ZM49.6872 27.9192C43.2392 27.9192 38.1116 33.2009 38.1116 39.3628C38.1116 45.5247 43.4593 50.8064 49.6872 50.8064C55.9152 50.8064 61.2628 45.5247 61.2628 39.3628C61.2628 33.2009 56.1352 27.9192 49.6872 27.9192Z" fill="white" fill-opacity="0.83"/>
<path d="M71.7391 40.2421H50.3705C49.9304 40.2421 49.4902 39.8019 49.4902 39.3618V18.2353C49.4902 17.7951 49.9304 17.355 50.3705 17.355H71.7391C72.1793 17.355 72.6194 17.7951 72.6194 18.2353V39.5819C72.3993 40.022 72.1793 40.2421 71.7391 40.2421ZM51.2508 38.7016H70.8368V19.3356H51.2508V38.7016Z" fill="white" fill-opacity="0.83"/>
<path d="M110.691 124.528H34.5473C34.1071 124.528 33.667 124.087 33.667 123.647C33.667 123.207 34.1071 122.767 34.5473 122.767H110.691C111.131 122.767 111.571 123.207 111.571 123.647C111.571 124.087 111.131 124.528 110.691 124.528Z" fill="white" fill-opacity="0.83"/>
<path d="M66.1716 129.15H13.4213C12.9812 129.15 12.541 128.71 12.541 128.27C12.541 127.83 12.9812 127.39 13.4213 127.39H66.1716C66.6118 127.39 67.0519 127.83 67.0519 128.27C66.8318 128.71 66.6118 129.15 66.1716 129.15Z" fill="white" fill-opacity="0.83"/>
<path d="M8.07373 129.15H1.40565C0.965514 129.15 0.525391 128.71 0.525391 128.27C0.525391 127.83 0.965514 127.39 1.40565 127.39H8.07373C8.51387 127.39 8.95399 127.83 8.95399 128.27C8.73392 128.71 8.51387 129.15 8.07373 129.15Z" fill="white" fill-opacity="0.83"/>
<path d="M113.815 128.93H88.6615C88.2214 128.93 87.7812 128.49 87.7812 128.05C87.7812 127.61 88.2214 127.17 88.6615 127.17H113.595C114.035 127.17 114.476 127.61 114.476 128.05C114.476 128.49 114.255 128.93 113.815 128.93Z" fill="white" fill-opacity="0.83"/>
<path d="M82.4117 97.02H56.8178C56.3776 97.02 55.9375 96.5799 55.9375 96.1397C55.9375 95.6996 56.3776 95.2595 56.8178 95.2595H81.7515V69.2914C81.7515 68.8513 82.1916 68.4111 82.6318 68.4111C83.0719 68.4111 83.5121 68.8513 83.5121 69.2914V96.3598C83.292 96.5799 82.8518 97.02 82.3897 97.02H82.4117Z" fill="white" fill-opacity="0.83"/>
<path d="M13.4008 36.2811C12.9606 36.2811 12.5205 35.841 12.5205 35.4008V1.73039C12.5205 1.29025 12.9606 0.850098 13.4008 0.850098H58.6028C59.0429 0.850098 59.4831 1.29025 59.4831 1.73039C59.4831 2.17053 59.0429 2.61065 58.6028 2.61065H14.3031V35.6209C14.3031 36.061 14.083 36.2811 13.4228 36.2811H13.4008Z" fill="white" fill-opacity="0.83"/>
</svg>
