<svg width="117" height="118" viewBox="0 0 117 118" fill="none" xmlns="http://www.w3.org/2000/svg">
<path d="M59.2168 79.7283H55.9879C55.5893 79.7283 55.3899 79.5289 55.1707 79.1303L54.3735 73.5495C53.5762 73.3502 52.759 73.1509 51.9617 72.9516L48.3342 77.3365C48.1349 77.5358 47.7362 77.7351 47.3177 77.5358L44.4875 75.9413C44.0888 75.742 44.0888 75.3433 44.0888 74.9447L46.1019 69.5632C45.504 68.9652 44.8861 68.3674 44.2882 67.7694L38.8468 69.7626C38.4482 69.9619 38.0297 69.7626 37.8304 69.3639L36.216 66.5735C36.0167 66.1748 36.0166 65.7762 36.4152 65.5769L40.8599 61.9893C40.6606 61.192 40.262 60.3947 40.262 59.5975L34.6214 58.8003C34.2227 58.8003 34.0234 58.4016 34.0234 58.003V54.814C34.0234 54.4154 34.2227 54.216 34.6214 54.0167L40.262 53.2194C40.4613 52.4221 40.6606 51.625 40.8599 50.8277L36.4152 47.2399C36.2159 47.0406 36.0167 46.642 36.216 46.2434L37.8304 43.453C38.0297 43.0544 38.4283 43.0544 38.8468 43.0544L44.2882 45.0475C44.8861 44.4496 45.504 43.8516 46.1019 43.2536L44.0888 37.8722C43.8895 37.4736 44.0888 37.075 44.4875 36.8757L47.3177 35.2811C47.7163 35.0817 48.1349 35.0818 48.3342 35.4805L51.9617 39.8654C52.759 39.6661 53.5762 39.2674 54.3735 39.2674L55.39 34.0852C55.39 33.6866 55.7886 33.4873 56.1872 33.4873H59.4161C59.8147 33.4873 60.0141 33.6866 60.2134 34.0852L61.0106 39.666C61.8278 39.8653 62.6251 40.0646 63.4223 40.2639L67.0499 35.8791C67.2492 35.6798 67.6478 35.4804 68.0664 35.6797L70.8966 37.2742C71.2953 37.4735 71.2953 37.8722 71.2953 38.2708L69.2822 43.6523C69.8801 44.2502 70.4981 44.8482 71.096 45.4462L76.5373 43.453C76.9359 43.2537 77.3545 43.4531 77.5538 43.8517L79.1682 46.642C79.3675 47.0406 79.3675 47.4393 78.9688 47.6386L74.5242 51.2262C74.7235 52.0235 75.1221 52.8208 75.1221 53.618L80.7627 54.4153C81.1614 54.4153 81.3606 54.8139 81.3606 55.2125V58.4016C81.3606 58.8003 81.1614 58.9995 80.7627 59.1988L75.1221 59.9961C74.9228 60.7934 74.7235 61.5907 74.5242 62.3879L78.9688 65.9756C79.1682 66.1749 79.3675 66.5735 79.1682 66.9721L77.5538 69.7626C77.3545 70.1612 76.9558 70.1611 76.5373 70.1611L71.096 68.168C70.4981 68.7659 69.8801 69.3639 69.2822 69.9618L71.2953 75.3434C71.4946 75.742 71.2953 76.1406 70.8966 76.3399L68.0664 77.9344C67.6678 78.1337 67.2492 78.1338 67.0499 77.7352L63.4223 72.7523C62.6251 72.9516 61.8078 73.3502 61.0106 73.3502L60.2134 78.931C60.0141 79.3296 59.6154 79.7283 59.1969 79.7283H59.2168ZM56.8051 78.1337H58.8182L59.6155 72.5529C59.6155 72.1543 60.0141 71.955 60.2134 71.955C61.2299 71.7557 62.4258 71.5563 63.4423 71.1577C63.8409 70.9584 64.0402 71.1578 64.2594 71.3571L67.887 75.742L69.5014 74.7454L67.4883 69.5632C67.289 69.1646 67.4884 68.9653 67.6877 68.766C68.485 68.1681 69.3022 67.3708 70.0994 66.3742C70.2988 66.1749 70.6973 65.9755 70.8966 66.1748L76.1386 68.168L77.1551 66.5735L72.7105 62.9858C72.5112 62.7865 72.3118 62.3878 72.5111 62.1885C72.9097 61.192 73.1091 59.9961 73.3084 58.9995C73.3084 58.6009 73.707 58.4016 73.9063 58.4016L79.5469 57.6043V55.6112L73.9063 54.814C73.5077 54.814 73.3084 54.4153 73.3084 54.2159C73.1091 53.2194 72.9097 52.0235 72.5111 51.027C72.3118 50.6283 72.5112 50.429 72.7105 50.2297L77.1551 46.642L76.1386 45.0475L70.8966 47.0407C70.498 47.24 70.2988 47.0407 70.0994 46.8414C69.5015 46.0441 68.6843 45.2469 67.6877 44.4496C67.4884 44.2503 67.289 43.8516 67.4883 43.6523L69.5014 38.4702L67.887 37.4736L64.2594 41.8585C64.0601 42.0579 63.6615 42.0578 63.4423 42.0578C62.4258 41.6592 61.2299 41.4598 60.2134 41.2605C59.8148 41.2605 59.6155 40.8619 59.6155 40.6626L58.8182 35.0818H56.8051L56.0079 40.6626C56.0079 41.0612 55.6092 41.2605 55.4099 41.2605C54.3933 41.4598 53.1975 41.6592 52.181 42.0578C51.7823 42.2571 51.5831 42.0579 51.3838 41.8585L47.7562 37.4736L46.1418 38.4702L48.1549 43.6523C48.3542 44.0509 48.1548 44.2503 47.9555 44.4496C47.1582 45.0476 46.3411 45.8448 45.5439 46.8414C45.3446 47.0407 44.9459 47.24 44.7466 47.0407L39.5046 45.0475L38.4881 46.642L42.9129 50.2297C43.1122 50.429 43.3115 50.8276 43.1122 51.027C42.7135 52.0235 42.5143 53.2194 42.315 54.2159C42.315 54.6146 41.9163 54.814 41.717 54.814L36.0764 55.6112V57.6043L41.717 58.4016C42.1156 58.4016 42.315 58.8002 42.315 58.9995C42.5143 59.9961 42.7135 61.192 43.1122 62.1885C43.3115 62.5872 43.1122 62.7865 42.9129 62.9858L38.4881 66.5735L39.5046 68.168L44.7466 66.1748C45.1452 65.9755 45.3446 66.1749 45.5439 66.3742C46.1418 67.1715 46.9589 67.9688 47.9555 68.766C48.1548 68.9653 48.3542 69.3639 48.1549 69.5632L46.1418 74.7454L47.7562 75.742L51.3838 71.3571C51.5831 71.1578 51.9817 70.9584 52.181 71.1577C53.1975 71.5563 54.3933 71.7557 55.4099 71.955C55.8085 71.955 56.0079 72.3536 56.0079 72.5529L56.8051 78.1337Z" fill="white" fill-opacity="0.83"/>
<path d="M101.55 88.6966H13.852C13.4534 88.6966 13.0547 88.2979 13.0547 87.8993V25.1152C13.0547 24.7165 13.4534 24.3179 13.852 24.3179H101.55C101.949 24.3179 102.368 24.7165 102.368 25.1152V87.8993C102.368 88.2979 101.969 88.6966 101.55 88.6966ZM14.6493 87.3013H100.952V25.9125H14.6493V87.3013Z" fill="white" fill-opacity="0.83"/>
<path d="M101.55 25.9135H13.852C13.4534 25.9135 13.0547 25.5148 13.0547 25.1162V19.7347C13.0547 19.3361 13.4534 18.9375 13.852 18.9375H101.55C101.949 18.9375 102.368 19.3361 102.368 19.7347V25.1162C102.368 25.7141 101.969 25.9135 101.55 25.9135ZM14.6493 24.5183H100.952V20.532H14.6493V24.5183Z" fill="white" fill-opacity="0.83"/>
<path d="M57.6022 65.9763C52.3602 65.9763 48.1348 61.7907 48.1348 56.6085C48.1348 51.4264 52.3602 47.2407 57.6022 47.2407C62.8442 47.2407 67.0696 51.4264 67.0696 56.6085C67.269 61.7907 63.0435 65.9763 57.6022 65.9763ZM57.6022 48.6359C53.1575 48.6359 49.53 52.2236 49.53 56.6085C49.53 60.9934 53.1575 64.5811 57.6022 64.5811C62.0469 64.5811 65.6744 60.9934 65.6744 56.6085C65.6744 52.2236 62.0469 48.6359 57.6022 48.6359Z" fill="white" fill-opacity="0.83"/>
<path d="M102.368 108.231H12.8362C12.4376 108.231 12.0391 107.832 12.0391 107.434V91.8872C12.0391 91.4885 12.4376 91.0898 12.8362 91.0898H102.368C102.767 91.0898 103.166 91.4885 103.166 91.8872V107.434C103.166 107.832 102.966 108.231 102.368 108.231ZM13.6535 106.636H101.77V92.6845H13.6535V106.636Z" fill="white" fill-opacity="0.83"/>
<path d="M96.3128 108.23C95.9142 108.23 95.5156 107.831 95.5156 107.433V100.855C95.5156 100.457 95.9142 100.058 96.3128 100.058C96.7114 100.058 97.1101 100.457 97.1101 100.855V107.433C97.1101 107.831 96.7114 108.23 96.3128 108.23Z" fill="white" fill-opacity="0.83"/>
<path d="M91.0671 108.23C90.6685 108.23 90.25 107.831 90.25 107.432V97.8652C90.25 97.4665 90.6486 97.0679 91.0671 97.0679C91.4857 97.0679 91.8644 97.4665 91.8644 97.8652V107.432C91.8644 107.831 91.4658 108.23 91.0671 108.23Z" fill="white" fill-opacity="0.83"/>
<path d="M86.0278 108.23C85.6291 108.23 85.2305 107.831 85.2305 107.433V100.855C85.2305 100.457 85.6291 100.058 86.0278 100.058C86.4264 100.058 86.825 100.457 86.825 100.855V107.433C86.825 107.831 86.4264 108.23 86.0278 108.23Z" fill="white" fill-opacity="0.83"/>
<path d="M80.7821 108.23C80.3835 108.23 79.9648 107.831 79.9648 107.432V97.8652C79.9648 97.4665 80.3635 97.0679 80.7821 97.0679C81.2007 97.0679 81.5793 97.4665 81.5793 97.8652V107.432C81.38 107.831 81.1807 108.23 80.7821 108.23Z" fill="white" fill-opacity="0.83"/>
<path d="M75.7405 108.23C75.3419 108.23 74.9434 107.831 74.9434 107.433V100.855C74.9434 100.457 75.3419 100.058 75.7405 100.058C76.1392 100.058 76.5379 100.457 76.5379 100.855V107.433C76.3385 107.831 76.1392 108.23 75.7405 108.23Z" fill="white" fill-opacity="0.83"/>
<path d="M70.2973 108.23C69.8987 108.23 69.5 107.831 69.5 107.432V97.8652C69.5 97.4665 69.8987 97.0679 70.2973 97.0679C70.6959 97.0679 71.1144 97.4665 71.1144 97.8652V107.432C71.1144 107.831 70.7159 108.23 70.2973 108.23Z" fill="white" fill-opacity="0.83"/>
<path d="M65.2546 108.23C64.856 108.23 64.4375 107.831 64.4375 107.433V100.855C64.4375 100.457 64.8361 100.058 65.2546 100.058C65.6732 100.058 66.0519 100.457 66.0519 100.855V107.433C66.0519 107.831 65.6533 108.23 65.2546 108.23Z" fill="white" fill-opacity="0.83"/>
<path d="M60.0159 108.23C59.6173 108.23 59.2188 107.831 59.2188 107.432V97.8652C59.2188 97.4665 59.6173 97.0679 60.0159 97.0679C60.4146 97.0679 60.8332 97.4665 60.8332 97.8652V107.432C60.8332 107.831 60.4345 108.23 60.0159 108.23Z" fill="white" fill-opacity="0.83"/>
<path d="M54.9911 108.23C54.5925 108.23 54.1738 107.831 54.1738 107.433V100.855C54.1738 100.457 54.5725 100.058 54.9911 100.058C55.4096 100.058 55.7883 100.457 55.7883 100.855V107.433C55.7883 107.831 55.3897 108.23 54.9911 108.23Z" fill="white" fill-opacity="0.83"/>
<path d="M49.7289 108.23C49.3303 108.23 48.9316 107.831 48.9316 107.432V97.8652C48.9316 97.4665 49.3303 97.0679 49.7289 97.0679C50.1276 97.0679 50.5461 97.4665 50.5461 97.8652V107.432C50.3468 107.831 50.1475 108.23 49.7289 108.23Z" fill="white" fill-opacity="0.83"/>
<path d="M44.7078 108.23C44.3091 108.23 43.8906 107.831 43.8906 107.433V100.855C43.8906 100.457 44.2892 100.058 44.7078 100.058C45.1263 100.058 45.5051 100.457 45.5051 100.855V107.433C45.3058 107.831 45.1064 108.23 44.7078 108.23Z" fill="white" fill-opacity="0.83"/>
<path d="M39.2503 108.23C38.8517 108.23 38.4531 107.831 38.4531 107.432V97.8652C38.4531 97.4665 38.8517 97.0679 39.2503 97.0679C39.6489 97.0679 40.0476 97.4665 40.0476 97.8652V107.432C40.0476 107.831 39.8483 108.23 39.2503 108.23Z" fill="white" fill-opacity="0.83"/>
<path d="M34.225 108.23C33.8264 108.23 33.4277 107.831 33.4277 107.433V100.855C33.4277 100.457 33.8264 100.058 34.225 100.058C34.6237 100.058 35.0422 100.457 35.0422 100.855V107.433C35.0422 107.831 34.6436 108.23 34.225 108.23Z" fill="white" fill-opacity="0.83"/>
<path d="M28.9789 108.23C28.5803 108.23 28.1816 107.831 28.1816 107.432V97.8652C28.1816 97.4665 28.5803 97.0679 28.9789 97.0679C29.3776 97.0679 29.7761 97.4665 29.7761 97.8652V107.432C29.7761 107.831 29.3776 108.23 28.9789 108.23Z" fill="white" fill-opacity="0.83"/>
<path d="M23.9379 108.23C23.5393 108.23 23.1406 107.831 23.1406 107.433V100.855C23.1406 100.457 23.5393 100.058 23.9379 100.058C24.3366 100.058 24.7552 100.457 24.7552 100.855V107.433C24.7552 107.831 24.3565 108.23 23.9379 108.23Z" fill="white" fill-opacity="0.83"/>
<path d="M18.6956 108.23C18.297 108.23 17.8984 107.831 17.8984 107.432V97.8652C17.8984 97.4665 18.297 97.0679 18.6956 97.0679C19.0943 97.0679 19.4929 97.4665 19.4929 97.8652V107.432C19.4929 107.831 19.0943 108.23 18.6956 108.23Z" fill="white" fill-opacity="0.83"/>
<path d="M87.0414 16.1469H24.1376C24.0047 16.1469 23.8719 16.0805 23.739 15.9476L12.0393 9.17087C11.84 8.97156 11.6406 8.77227 11.6406 8.57295C11.6406 8.37364 11.84 7.97503 12.0393 7.97503L23.739 1.19829C23.9383 1.19829 23.9382 0.999023 24.1376 0.999023H87.0414C87.44 0.999023 87.8385 1.39758 87.8385 1.79621V15.549C87.8385 15.7483 87.44 16.1469 87.0414 16.1469ZM24.337 14.7517H86.244V2.59352H24.337L13.853 8.77222L24.337 14.7517Z" fill="white" fill-opacity="0.83"/>
<path d="M91.6873 16.147H87.0434C86.6448 16.147 86.2461 15.7484 86.2461 15.3497V1.59711C86.2461 1.19848 86.6448 0.799805 87.0434 0.799805H91.6873C92.086 0.799805 92.4846 1.19848 92.4846 1.59711V15.3497C92.4846 15.7484 92.086 16.147 91.6873 16.147ZM87.8406 14.7518H90.8702V2.59368H87.8406V14.7518Z" fill="white" fill-opacity="0.83"/>
<path d="M97.323 16.147H91.6824C91.2837 16.147 90.8652 15.7484 90.8652 15.3497V1.59711C90.8652 1.19848 91.2638 0.799805 91.6824 0.799805H97.323C100.951 0.799805 103.781 3.59023 103.781 7.17789V9.56969C103.781 13.3567 100.951 16.147 97.323 16.147ZM92.4797 14.7518H97.323C99.954 14.7518 102.166 12.5594 102.166 9.96835V7.57655C102.166 4.98546 99.954 2.79295 97.323 2.79295H92.4797V14.7518Z" fill="white" fill-opacity="0.83"/>
<path d="M35.0164 16.147C34.6177 16.147 34.1992 15.7484 34.1992 15.3497V1.59711C34.1992 1.19848 34.5978 0.799805 35.0164 0.799805C35.4349 0.799805 35.8137 1.19848 35.8137 1.59711V15.3497C35.8137 15.7484 35.415 16.147 35.0164 16.147Z" fill="white" fill-opacity="0.83"/>
<path d="M87.0375 11.5613H35.0164C34.6177 11.5613 34.1992 11.1626 34.1992 10.764C34.1992 10.3654 34.5978 9.9668 35.0164 9.9668H87.0375C87.4362 9.9668 87.8347 10.3654 87.8347 10.764C87.8347 11.1626 87.4362 11.5613 87.0375 11.5613Z" fill="white" fill-opacity="0.83"/>
<path d="M87.0375 6.97938H35.0164C34.6177 6.97938 34.1992 6.5807 34.1992 6.18207C34.1992 5.78344 34.5978 5.38477 35.0164 5.38477H87.0375C87.4362 5.38477 87.8347 5.78344 87.8347 6.18207C87.8347 6.5807 87.4362 6.97938 87.0375 6.97938Z" fill="white" fill-opacity="0.83"/>
<path d="M81.9986 112.416H4.36554C3.96692 112.416 3.56836 112.017 3.56836 111.619C3.56836 111.22 3.96692 110.821 4.36554 110.821H81.9986C82.3972 110.821 82.8157 111.22 82.8157 111.619C82.6164 112.017 82.4172 112.416 81.9986 112.416Z" fill="white" fill-opacity="0.83"/>
<path d="M103.364 117.2H49.7289C49.3303 117.2 48.9316 116.801 48.9316 116.403C48.9316 116.004 49.3303 115.605 49.7289 115.605H103.364C103.763 115.605 104.162 116.004 104.162 116.403C104.162 116.801 103.763 117.2 103.364 117.2Z" fill="white" fill-opacity="0.83"/>
<path d="M115.663 117.2H109.006C108.608 117.2 108.209 116.801 108.209 116.403C108.209 116.004 108.608 115.605 109.006 115.605H115.663C116.062 115.605 116.48 116.004 116.48 116.403C116.48 116.801 116.082 117.2 115.663 117.2Z" fill="white" fill-opacity="0.83"/>
<path d="M26.7494 117H1.33679C0.93816 117 0.519531 116.602 0.519531 116.203C0.519531 115.804 0.918228 115.406 1.33679 115.406H26.7494C27.148 115.406 27.5466 115.804 27.5466 116.203C27.5466 116.602 27.148 117 26.7494 117Z" fill="white" fill-opacity="0.83"/>
<path d="M29.3812 57.4055C28.9825 57.4055 28.584 57.0068 28.584 56.6082C28.584 46.4431 34.2245 36.876 43.094 31.6939C43.4926 31.4946 43.8913 31.6939 44.1105 31.8933C44.3099 32.0926 44.1106 32.6905 43.9113 32.8898C35.4404 37.6734 30.1984 46.8418 30.1984 56.4089C30.1984 57.0069 29.7997 57.4055 29.3812 57.4055Z" fill="white" fill-opacity="0.83"/>
<path d="M57.6039 85.3088C57.2053 85.3088 56.8066 84.9101 56.8066 84.5115C56.8066 84.1128 57.2053 83.7143 57.6039 83.7143C72.7319 83.7143 85.2289 71.5561 85.2289 56.4081C85.2289 56.0095 85.6276 55.6108 86.0262 55.6108C86.4249 55.6108 86.8234 56.0095 86.8234 56.4081C86.8234 72.3533 73.7085 85.3088 57.584 85.3088H57.6039Z" fill="white" fill-opacity="0.83"/>
</svg>
