<svg width="59" height="59" viewBox="0 0 59 59" fill="none" xmlns="http://www.w3.org/2000/svg">
<path d="M29.5179 39.6H27.8979C27.6979 39.6 27.5979 39.5 27.4879 39.3L27.088 36.5C26.688 36.4 26.2779 36.3 25.8779 36.2L24.0579 38.4C23.9579 38.5 23.7579 38.6 23.5479 38.5L22.1279 37.7C21.9279 37.6 21.9279 37.4 21.9279 37.2L22.9379 34.5C22.6379 34.2 22.328 33.9 22.028 33.6L19.2979 34.6C19.0979 34.7 18.888 34.6 18.788 34.4L17.978 33C17.878 32.8 17.8779 32.6 18.0779 32.5L20.3079 30.7C20.2079 30.3 20.0079 29.9 20.0079 29.5L17.1779 29.1C16.9779 29.1 16.8779 28.9 16.8779 28.7V27.1C16.8779 26.9 16.9779 26.8 17.1779 26.7L20.0079 26.3C20.1079 25.9 20.2079 25.5 20.3079 25.1L18.0779 23.3C17.9779 23.2 17.878 23 17.978 22.8L18.788 21.4C18.888 21.2 19.0879 21.2 19.2979 21.2L22.028 22.2C22.328 21.9 22.6379 21.6 22.9379 21.3L21.9279 18.6C21.8279 18.4 21.9279 18.2 22.1279 18.1L23.5479 17.3C23.7479 17.2 23.9579 17.2 24.0579 17.4L25.8779 19.6C26.2779 19.5 26.688 19.3 27.088 19.3L27.598 16.7C27.598 16.5 27.7979 16.4 27.9979 16.4H29.6179C29.8179 16.4 29.9179 16.5 30.0179 16.7L30.4179 19.5C30.8279 19.6 31.2279 19.7 31.6279 19.8L33.4479 17.6C33.5479 17.5 33.7479 17.4 33.9579 17.5L35.3779 18.3C35.5779 18.4 35.5779 18.6 35.5779 18.8L34.5679 21.5C34.8679 21.8 35.178 22.1 35.478 22.4L38.2079 21.4C38.4079 21.3 38.618 21.4 38.718 21.6L39.528 23C39.628 23.2 39.6279 23.4 39.4279 23.5L37.1979 25.3C37.2979 25.7 37.4979 26.1 37.4979 26.5L40.3279 26.9C40.5279 26.9 40.6279 27.1 40.6279 27.3V28.9C40.6279 29.1 40.5279 29.2 40.3279 29.3L37.4979 29.7C37.3979 30.1 37.2979 30.5 37.1979 30.9L39.4279 32.7C39.5279 32.8 39.628 33 39.528 33.2L38.718 34.6C38.618 34.8 38.4179 34.8 38.2079 34.8L35.478 33.8C35.178 34.1 34.8679 34.4 34.5679 34.7L35.5779 37.4C35.6779 37.6 35.5779 37.8 35.3779 37.9L33.9579 38.7C33.7579 38.8 33.5479 38.8 33.4479 38.6L31.6279 36.1C31.2279 36.2 30.8179 36.4 30.4179 36.4L30.0179 39.2C29.9179 39.4 29.7179 39.6 29.5079 39.6H29.5179ZM28.3079 38.8H29.3179L29.718 36C29.718 35.8 29.9179 35.7 30.0179 35.7C30.5279 35.6 31.1279 35.5 31.6379 35.3C31.8379 35.2 31.9379 35.3 32.0479 35.4L33.8679 37.6L34.6779 37.1L33.6679 34.5C33.5679 34.3 33.6679 34.2 33.7679 34.1C34.1679 33.8 34.578 33.4 34.978 32.9C35.078 32.8 35.2779 32.7 35.3779 32.8L38.0079 33.8L38.5179 33L36.288 31.2C36.188 31.1 36.0879 30.9 36.1879 30.8C36.3879 30.3 36.488 29.7 36.588 29.2C36.588 29 36.7879 28.9 36.8879 28.9L39.718 28.5V27.5L36.8879 27.1C36.6879 27.1 36.588 26.9 36.588 26.8C36.488 26.3 36.3879 25.7 36.1879 25.2C36.0879 25 36.188 24.9 36.288 24.8L38.5179 23L38.0079 22.2L35.3779 23.2C35.1779 23.3 35.078 23.2 34.978 23.1C34.678 22.7 34.2679 22.3 33.7679 21.9C33.6679 21.8 33.5679 21.6 33.6679 21.5L34.6779 18.9L33.8679 18.4L32.0479 20.6C31.9479 20.7 31.7479 20.7 31.6379 20.7C31.1279 20.5 30.5279 20.4 30.0179 20.3C29.8179 20.3 29.718 20.1 29.718 20L29.3179 17.2H28.3079L27.908 20C27.908 20.2 27.7079 20.3 27.6079 20.3C27.0979 20.4 26.4979 20.5 25.9879 20.7C25.7879 20.8 25.688 20.7 25.588 20.6L23.7679 18.4L22.9579 18.9L23.968 21.5C24.068 21.7 23.9679 21.8 23.8679 21.9C23.4679 22.2 23.058 22.6 22.658 23.1C22.558 23.2 22.3579 23.3 22.2579 23.2L19.6279 22.2L19.1179 23L21.338 24.8C21.438 24.9 21.5379 25.1 21.4379 25.2C21.2379 25.7 21.138 26.3 21.038 26.8C21.038 27 20.8379 27.1 20.7379 27.1L17.908 27.5V28.5L20.7379 28.9C20.9379 28.9 21.038 29.1 21.038 29.2C21.138 29.7 21.2379 30.3 21.4379 30.8C21.5379 31 21.438 31.1 21.338 31.2L19.1179 33L19.6279 33.8L22.2579 32.8C22.4579 32.7 22.558 32.8 22.658 32.9C22.958 33.3 23.3679 33.7 23.8679 34.1C23.9679 34.2 24.068 34.4 23.968 34.5L22.9579 37.1L23.7679 37.6L25.588 35.4C25.688 35.3 25.8879 35.2 25.9879 35.3C26.4979 35.5 27.0979 35.6 27.6079 35.7C27.8079 35.7 27.908 35.9 27.908 36L28.3079 38.8Z" fill="#010101"/>
<path d="M50.7584 44.1H6.75842C6.55842 44.1 6.3584 43.9 6.3584 43.7V12.2C6.3584 12 6.55842 11.8 6.75842 11.8H50.7584C50.9584 11.8 51.1684 12 51.1684 12.2V43.7C51.1684 43.9 50.9684 44.1 50.7584 44.1ZM7.15845 43.4H50.4584V12.6H7.15845V43.4Z" fill="#010101"/>
<path d="M50.7584 12.6H6.75842C6.55842 12.6 6.3584 12.4 6.3584 12.2V9.5C6.3584 9.3 6.55842 9.10004 6.75842 9.10004H50.7584C50.9584 9.10004 51.1684 9.3 51.1684 9.5V12.2C51.1684 12.5 50.9684 12.6 50.7584 12.6ZM7.15845 11.9H50.4584V9.90002H7.15845V11.9Z" fill="#010101"/>
<path d="M28.708 32.7C26.078 32.7 23.958 30.6 23.958 28C23.958 25.4 26.078 23.3 28.708 23.3C31.338 23.3 33.458 25.4 33.458 28C33.558 30.6 31.438 32.7 28.708 32.7ZM28.708 24C26.478 24 24.658 25.8 24.658 28C24.658 30.2 26.478 32 28.708 32C30.938 32 32.758 30.2 32.758 28C32.758 25.8 30.938 24 28.708 24Z" fill="#010101"/>
<path d="M51.1686 53.9H6.2486C6.0486 53.9 5.84863 53.7 5.84863 53.5V45.7C5.84863 45.5 6.0486 45.3 6.2486 45.3H51.1686C51.3686 45.3 51.5686 45.5 51.5686 45.7V53.5C51.5686 53.7 51.4686 53.9 51.1686 53.9ZM6.65863 53.1H50.8686V46.1H6.65863V53.1Z" fill="#010101"/>
<path d="M48.1285 53.9C47.9285 53.9 47.7285 53.7 47.7285 53.5V50.2C47.7285 50 47.9285 49.8 48.1285 49.8C48.3285 49.8 48.5285 50 48.5285 50.2V53.5C48.5285 53.7 48.3285 53.9 48.1285 53.9Z" fill="#010101"/>
<path d="M45.4979 53.9C45.2979 53.9 45.0879 53.7 45.0879 53.5V48.7C45.0879 48.5 45.2879 48.3 45.4979 48.3C45.7079 48.3 45.8979 48.5 45.8979 48.7V53.5C45.8979 53.7 45.6979 53.9 45.4979 53.9Z" fill="#010101"/>
<path d="M42.9684 53.9C42.7684 53.9 42.5684 53.7 42.5684 53.5V50.2C42.5684 50 42.7684 49.8 42.9684 49.8C43.1684 49.8 43.3683 50 43.3683 50.2V53.5C43.3683 53.7 43.1684 53.9 42.9684 53.9Z" fill="#010101"/>
<path d="M40.3387 53.9C40.1387 53.9 39.9287 53.7 39.9287 53.5V48.7C39.9287 48.5 40.1287 48.3 40.3387 48.3C40.5487 48.3 40.7387 48.5 40.7387 48.7V53.5C40.6387 53.7 40.5387 53.9 40.3387 53.9Z" fill="#010101"/>
<path d="M37.8082 53.9C37.6082 53.9 37.4082 53.7 37.4082 53.5V50.2C37.4082 50 37.6082 49.8 37.8082 49.8C38.0082 49.8 38.2082 50 38.2082 50.2V53.5C38.1082 53.7 38.0082 53.9 37.8082 53.9Z" fill="#010101"/>
<path d="M35.0787 53.9C34.8787 53.9 34.6787 53.7 34.6787 53.5V48.7C34.6787 48.5 34.8787 48.3 35.0787 48.3C35.2787 48.3 35.4887 48.5 35.4887 48.7V53.5C35.4887 53.7 35.2887 53.9 35.0787 53.9Z" fill="#010101"/>
<path d="M32.5486 53.9C32.3486 53.9 32.1387 53.7 32.1387 53.5V50.2C32.1387 50 32.3386 49.8 32.5486 49.8C32.7586 49.8 32.9487 50 32.9487 50.2V53.5C32.9487 53.7 32.7486 53.9 32.5486 53.9Z" fill="#010101"/>
<path d="M29.9185 53.9C29.7185 53.9 29.5186 53.7 29.5186 53.5V48.7C29.5186 48.5 29.7185 48.3 29.9185 48.3C30.1185 48.3 30.3286 48.5 30.3286 48.7V53.5C30.3286 53.7 30.1285 53.9 29.9185 53.9Z" fill="#010101"/>
<path d="M27.3983 53.9C27.1983 53.9 26.9883 53.7 26.9883 53.5V50.2C26.9883 50 27.1883 49.8 27.3983 49.8C27.6083 49.8 27.7983 50 27.7983 50.2V53.5C27.7983 53.7 27.5983 53.9 27.3983 53.9Z" fill="#010101"/>
<path d="M24.7584 53.9C24.5584 53.9 24.3584 53.7 24.3584 53.5V48.7C24.3584 48.5 24.5584 48.3 24.7584 48.3C24.9584 48.3 25.1684 48.5 25.1684 48.7V53.5C25.0684 53.7 24.9684 53.9 24.7584 53.9Z" fill="#010101"/>
<path d="M22.2381 53.9C22.0381 53.9 21.8281 53.7 21.8281 53.5V50.2C21.8281 50 22.0281 49.8 22.2381 49.8C22.4481 49.8 22.6381 50 22.6381 50.2V53.5C22.5381 53.7 22.4381 53.9 22.2381 53.9Z" fill="#010101"/>
<path d="M19.4986 53.9C19.2986 53.9 19.0986 53.7 19.0986 53.5V48.7C19.0986 48.5 19.2986 48.3 19.4986 48.3C19.6986 48.3 19.8986 48.5 19.8986 48.7V53.5C19.8986 53.7 19.7986 53.9 19.4986 53.9Z" fill="#010101"/>
<path d="M16.9781 53.9C16.7781 53.9 16.5781 53.7 16.5781 53.5V50.2C16.5781 50 16.7781 49.8 16.9781 49.8C17.1781 49.8 17.3881 50 17.3881 50.2V53.5C17.3881 53.7 17.1881 53.9 16.9781 53.9Z" fill="#010101"/>
<path d="M14.3483 53.9C14.1483 53.9 13.9482 53.7 13.9482 53.5V48.7C13.9482 48.5 14.1483 48.3 14.3483 48.3C14.5483 48.3 14.7482 48.5 14.7482 48.7V53.5C14.7482 53.7 14.5483 53.9 14.3483 53.9Z" fill="#010101"/>
<path d="M11.818 53.9C11.618 53.9 11.418 53.7 11.418 53.5V50.2C11.418 50 11.618 49.8 11.818 49.8C12.018 49.8 12.228 50 12.228 50.2V53.5C12.228 53.7 12.028 53.9 11.818 53.9Z" fill="#010101"/>
<path d="M9.18805 53.9C8.98805 53.9 8.78809 53.7 8.78809 53.5V48.7C8.78809 48.5 8.98805 48.3 9.18805 48.3C9.38805 48.3 9.58807 48.5 9.58807 48.7V53.5C9.58807 53.7 9.38805 53.9 9.18805 53.9Z" fill="#010101"/>
<path d="M43.4785 7.70001H11.9184C11.8517 7.70001 11.7851 7.6667 11.7184 7.60004L5.84845 4.20001C5.74845 4.10001 5.64844 4.00002 5.64844 3.90002C5.64844 3.80002 5.74845 3.60004 5.84845 3.60004L11.7184 0.200012C11.8184 0.200012 11.8184 0.100037 11.9184 0.100037H43.4785C43.6785 0.100037 43.8784 0.3 43.8784 0.5V7.40002C43.8784 7.50002 43.6785 7.70001 43.4785 7.70001ZM12.0184 7H43.0784V0.900024H12.0184L6.75842 4L12.0184 7Z" fill="#010101"/>
<path d="M45.8081 7.70001H43.4781C43.2781 7.70001 43.0781 7.49999 43.0781 7.29999V0.400024C43.0781 0.200024 43.2781 0 43.4781 0H45.8081C46.0081 0 46.2081 0.200024 46.2081 0.400024V7.29999C46.2081 7.49999 46.0081 7.70001 45.8081 7.70001ZM43.8781 7H45.3981V0.900024H43.8781V7Z" fill="#010101"/>
<path d="M48.6384 7.70001H45.8084C45.6084 7.70001 45.3984 7.49999 45.3984 7.29999V0.400024C45.3984 0.200024 45.5984 0 45.8084 0H48.6384C50.4584 0 51.8784 1.40001 51.8784 3.20001V4.40002C51.8784 6.30002 50.4584 7.70001 48.6384 7.70001ZM46.2084 7H48.6384C49.9584 7 51.0684 5.90004 51.0684 4.60004V3.40002C51.0684 2.10002 49.9584 1 48.6384 1H46.2084V7Z" fill="#010101"/>
<path d="M17.3787 7.70001C17.1787 7.70001 16.9688 7.49999 16.9688 7.29999V0.400024C16.9688 0.200024 17.1687 0 17.3787 0C17.5887 0 17.7787 0.200024 17.7787 0.400024V7.29999C17.7787 7.49999 17.5787 7.70001 17.3787 7.70001Z" fill="#010101"/>
<path d="M43.4788 5.40002H17.3787C17.1787 5.40002 16.9688 5.2 16.9688 5C16.9688 4.8 17.1687 4.60004 17.3787 4.60004H43.4788C43.6788 4.60004 43.8787 4.8 43.8787 5C43.8787 5.2 43.6788 5.40002 43.4788 5.40002Z" fill="#010101"/>
<path d="M43.4788 3.10004H17.3787C17.1787 3.10004 16.9688 2.90001 16.9688 2.70001C16.9688 2.50001 17.1687 2.29999 17.3787 2.29999H43.4788C43.6788 2.29999 43.8787 2.50001 43.8787 2.70001C43.8787 2.90001 43.6788 3.10004 43.4788 3.10004Z" fill="#010101"/>
<path d="M40.9486 56H1.9986C1.7986 56 1.59863 55.8 1.59863 55.6C1.59863 55.4 1.7986 55.2 1.9986 55.2H40.9486C41.1486 55.2 41.3586 55.4 41.3586 55.6C41.2586 55.8 41.1586 56 40.9486 56Z" fill="#010101"/>
<path d="M51.6684 58.4H24.7584C24.5584 58.4 24.3584 58.2 24.3584 58C24.3584 57.8 24.5584 57.6 24.7584 57.6H51.6684C51.8684 57.6 52.0684 57.8 52.0684 58C52.0684 58.2 51.8684 58.4 51.6684 58.4Z" fill="#010101"/>
<path d="M57.8386 58.4H54.4986C54.2986 58.4 54.0986 58.2 54.0986 58C54.0986 57.8 54.2986 57.6 54.4986 57.6H57.8386C58.0386 57.6 58.2486 57.8 58.2486 58C58.2486 58.2 58.0486 58.4 57.8386 58.4Z" fill="#010101"/>
<path d="M13.2284 58.3H0.478394C0.278394 58.3 0.0683594 58.1 0.0683594 57.9C0.0683594 57.7 0.268394 57.5 0.478394 57.5H13.2284C13.4284 57.5 13.6284 57.7 13.6284 57.9C13.6284 58.1 13.4284 58.3 13.2284 58.3Z" fill="#010101"/>
<path d="M14.5484 28.4C14.3484 28.4 14.1484 28.2 14.1484 28C14.1484 22.9 16.9784 18.1 21.4284 15.5C21.6284 15.4 21.8284 15.5 21.9384 15.6C22.0384 15.7 21.9384 16 21.8384 16.1C17.5884 18.5 14.9584 23.1 14.9584 27.9C14.9584 28.2 14.7584 28.4 14.5484 28.4Z" fill="#010101"/>
<path d="M28.7086 42.4C28.5086 42.4 28.3086 42.2 28.3086 42C28.3086 41.8 28.5086 41.6 28.7086 41.6C36.2986 41.6 42.5686 35.5 42.5686 27.9C42.5686 27.7 42.7686 27.5 42.9686 27.5C43.1686 27.5 43.3686 27.7 43.3686 27.9C43.3686 35.9 36.7886 42.4 28.6986 42.4H28.7086Z" fill="#010101"/>
</svg>
