<svg width="59" height="59" viewBox="0 0 59 59" fill="none" xmlns="http://www.w3.org/2000/svg">
<path d="M43.766 43.6168L47.5594 39.9374C47.7575 39.7453 47.8565 39.5532 47.8565 39.361L48.2527 37.8144C48.748 38.1026 49.3521 38.0065 49.7482 37.6222L53.6407 33.8468C55.7404 31.8102 55.7404 28.5247 53.6407 26.4881L43.9542 17.0928C43.459 16.6125 42.8548 16.2186 42.2606 16.0265C43.6571 14.768 44.4594 13.0196 44.4594 11.0887C44.4594 7.40934 41.3692 4.40247 37.5659 4.40247C33.7626 4.40247 30.6725 7.39973 30.6725 11.0887C30.6725 14.1916 32.8712 16.8046 35.7633 17.5732C32.168 21.0604 32.3661 20.8683 32.168 21.0604C27.4733 19.0238 25.3736 21.4446 23.68 22.607C23.68 22.3188 23.581 22.1267 23.2838 21.925L19.3914 18.1496C17.2917 16.113 13.8945 16.113 11.8046 18.1496L2.01913 27.6409C-0.0805952 29.6776 -0.0805952 32.963 2.01913 34.9996L5.9116 38.775C6.01064 38.8711 6.20873 39.0632 6.40682 39.0632L7.10999 41.292C7.20903 41.4841 7.30806 41.6762 7.4071 41.7723L9.19979 43.5111L4.00992 48.4489C2.51436 49.8995 2.51436 52.4165 4.00992 53.8767C5.50547 55.3273 8.10044 55.3273 9.6059 53.8767C10.6062 56.2976 13.6964 56.874 15.6971 55.4233C15.8951 55.8076 16.0932 56.2015 16.4993 56.5857C16.4993 56.5857 16.4993 56.6818 16.5984 56.6818C18.193 58.1324 20.6888 58.1324 22.1943 56.6818L22.4915 56.3936C23.5909 59.0066 26.9881 59.5926 28.9788 57.6521L34.3668 52.33C36.3675 52.8103 38.3582 51.9457 39.1605 50.1013C40.656 51.5519 43.251 51.5519 44.7565 50.1013C46.3511 48.5546 46.3511 46.1337 44.7565 44.6735C44.9546 44.6735 45.4597 45.1539 43.7561 43.6072L43.766 43.6168ZM33.2872 11.0695C33.2872 8.74467 35.2879 6.80413 37.6847 6.80413C40.0816 6.80413 42.0823 8.74467 42.0823 11.0695C42.0823 13.3943 40.0816 15.3348 37.6847 15.3348C35.2879 15.3348 33.2872 13.3943 33.2872 11.0695ZM38.18 18.822C39.2793 17.7557 41.1711 17.7557 42.2705 18.822L51.957 28.2173C53.0563 29.2837 53.0563 31.1185 51.957 32.1849L48.9658 35.0861L35.1889 21.7232L38.18 18.8124V18.822ZM26.0966 24.048C26.9979 23.366 27.7903 22.7896 28.9887 22.7896C29.791 22.7896 30.6824 23.0778 31.7818 23.5677C32.178 23.7598 32.584 23.7598 32.9802 23.5677L33.2773 23.3756L46.1629 35.8738L45.4597 38.4868L41.9634 41.878C26.4829 26.8628 27.3842 27.8331 27.1861 27.6409C26.9881 27.5449 26.7899 27.4488 26.5918 27.4488C26.3938 27.4488 26.1957 27.5449 25.3935 27.737C23.6008 28.2173 21.402 28.8033 19.5994 28.8033C18.6981 28.8033 18.0048 28.6112 17.4997 28.323C17.0044 28.0348 16.5984 27.6409 16.5984 27.4488C16.6974 27.0645 17.7968 26.0943 20.9959 25.8061C21.095 25.8061 21.194 25.8061 21.293 25.71C21.6892 25.71 21.9963 25.6139 22.4915 25.6139C23.987 25.6139 25.1855 24.7397 26.0868 24.0673L26.0966 24.048ZM4.02974 33.3473C2.93036 32.281 2.93036 30.4461 4.02974 29.3797L13.8153 19.8884C14.9146 18.822 16.8064 18.822 17.9058 19.8884L20.8968 22.7896C20.7978 22.7896 20.7978 22.8856 20.6988 22.9817L20.4016 23.2699L20.3026 23.366C15.6079 23.9424 14.5085 25.7869 14.2114 26.8532V26.9493C14.1124 27.6313 14.2114 28.3038 14.5086 28.8898L7.02088 36.2485L4.01983 33.3473H4.02974ZM16.8064 51.3693L14.6076 53.502C14.0034 54.0784 13.112 54.0784 12.5079 53.502C11.9037 52.9256 11.9037 52.0514 12.5079 51.5615C13.0031 51.0812 13.0031 50.303 12.5079 49.8227C12.0127 49.3424 11.2104 49.3424 10.7152 49.8227L8.12025 52.3396C7.52599 52.9256 6.52565 52.82 6.02053 52.3396C5.42627 51.7632 5.42627 50.793 6.02053 50.303L11.2104 45.3652L17.2025 51.1772C17.0044 51.1772 16.9054 51.2733 16.8064 51.3693ZM20.6988 55.0487C20.0946 55.6251 19.2032 55.6251 18.5991 55.0487C18.1039 54.5684 17.9949 53.6941 18.5991 53.1081C18.6981 53.0121 18.7971 52.916 18.7971 52.82C20.4908 54.4627 19.9955 53.9824 20.0946 54.0784C20.3917 54.3666 20.6988 54.5587 21.0949 54.7605L20.6988 55.0487ZM27.3941 56.115C26.7899 56.6914 25.8985 56.6914 25.2944 56.115C24.8982 55.7308 24.7992 55.1447 24.8982 54.6644C25.6014 54.2801 26.1957 53.5981 26.4928 52.82C26.6909 53.0121 26.889 53.2042 27.2951 53.502C27.8893 53.9823 28.6916 54.1841 29.3948 54.1841L27.3941 56.1246V56.115ZM43.2708 48.5546C42.7756 49.0349 41.7753 49.131 41.1711 48.5546L38.5762 46.0377C38.0809 45.5573 37.2787 45.5573 36.7835 46.0377C36.2883 46.518 36.2883 47.2961 36.7835 47.7861C37.6848 48.6603 36.9816 50.1109 35.6841 50.1109C35.2879 50.1109 34.8818 49.9187 34.5847 49.7266L32.3859 47.5939C31.8907 47.1136 31.0885 47.1136 30.5932 47.5939C30.098 48.0743 30.098 48.8524 30.5932 49.3424C31.1875 49.9188 31.0885 50.7929 30.5932 51.2829C29.9891 51.8689 29.0977 51.8689 28.4935 51.2829L25.7005 48.5738C25.2053 48.0935 24.502 48.0935 24.0068 48.5738C23.5116 49.0541 23.5116 49.7362 23.9078 50.2166C24.512 50.8986 24.5119 51.8593 23.8087 52.3492C23.7097 52.4453 23.6106 52.5414 23.5116 52.5414C23.4126 52.5414 23.3135 52.6374 23.3135 52.6374C22.8183 52.8296 22.2141 52.6374 21.7189 52.2532C18.0246 48.5738 21.0157 51.475 9.53657 40.3409L8.83333 37.824L16.321 30.4653C16.7172 30.6574 16.5191 30.5613 16.8162 30.6574C19.6093 31.7238 23.2046 30.6574 26.1065 29.8793C42.2804 45.5669 40.5867 44.0203 43.1817 46.3451C43.8849 47.1232 43.8849 47.9878 43.2807 48.5738L43.2708 48.5546Z" fill="black" fill-opacity="0.83"/>
<path d="M7.12026 33.0591C8.02156 33.0591 8.71485 32.377 8.71485 31.5124C8.71485 30.6478 8.01165 29.9658 7.12026 29.9658C6.72409 29.9658 6.31802 30.1579 6.02089 30.4461C5.42663 31.0225 5.42663 31.9928 6.02089 32.5788C6.31802 32.867 6.72409 33.0591 7.12026 33.0591ZM6.52602 30.9264C6.9222 30.5422 7.52636 30.5422 7.82349 30.9264C8.21967 31.3107 8.21967 31.8967 7.82349 32.1849C7.42732 32.5692 6.82315 32.5692 6.52602 32.1849C6.12985 31.8006 6.12985 31.2146 6.52602 30.9264Z" fill="black" fill-opacity="0.83"/>
<path d="M48.966 28.6977C48.5698 28.6977 48.1637 28.8898 47.8666 29.082C47.2723 29.668 47.2723 30.6287 47.8666 31.2147C48.4708 31.8007 49.4612 31.8007 50.0653 31.2147C50.9666 30.2444 50.2634 28.6977 48.966 28.6977ZM49.6593 30.7343L49.1641 30.35L48.6688 29.8697L49.4711 30.7439C48.8768 31.2242 47.8765 30.84 47.8765 29.9658C47.8765 29.0916 48.9759 28.7073 49.5701 29.2837C49.7682 29.4758 49.8672 29.668 49.8672 29.9658C49.8672 30.35 49.7682 30.5518 49.6692 30.7439L49.6593 30.7343Z" fill="black" fill-opacity="0.83"/>
<path d="M47.0645 51.6575C47.0645 52.3396 47.6587 52.916 48.3619 52.916H57.1471C57.8503 52.916 58.4446 52.33 58.4446 51.6575C58.4446 50.9851 57.8503 50.3991 57.1471 50.3991H48.3619C47.5597 50.4951 47.0645 50.9851 47.0645 51.6575Z" fill="black" fill-opacity="0.83"/>
<path d="M57.0485 54.0784H48.2633C47.5601 54.0784 46.9658 54.6644 46.9658 55.3369C46.9658 56.0094 47.57 56.5954 48.2633 56.5954H57.0485C57.7517 56.5954 58.3459 56.0094 58.3459 55.3369C58.2469 54.6548 57.7418 54.0784 57.0485 54.0784Z" fill="black" fill-opacity="0.83"/>
<path d="M16.1134 8.36041L15.6182 9.42673C16.2223 9.811 16.9156 10.0128 17.5198 10.0128V10.887H18.015V10.0128C19.0153 10.0128 19.8077 9.42673 19.8077 8.46607C19.8077 7.88006 19.5106 7.39973 18.9064 7.11153C18.4112 6.91939 18.0051 6.82334 18.0051 6.82334V5.85306C18.5003 5.94912 19.1045 6.23732 19.2035 6.33339L19.6988 5.36314C19.5007 5.26707 19.3026 5.17099 18.9955 5.07492C18.6984 4.97886 18.3914 4.88281 18.0943 4.88281V4.20071H17.599V4.88281C16.4997 4.97887 15.9054 5.66094 15.9054 6.52554C15.9054 7.39013 16.5096 7.68794 17.3019 7.88008L17.6981 7.97615V8.9464C16.8958 8.85033 16.2025 8.46608 16.1035 8.36041H16.1134ZM17.9061 8.07219C18.1042 8.16826 18.2032 8.16827 18.3022 8.26434C18.4013 8.3604 18.5003 8.45646 18.5003 8.55252C18.5003 8.74466 18.3022 8.93681 17.9061 8.93681V8.0626V8.07219ZM17.2028 6.62161C17.1038 6.52554 17.1038 6.42946 17.1038 6.33339C17.1038 6.04519 17.3019 5.94913 17.599 5.94913V6.82334C17.4009 6.72727 17.3019 6.63119 17.2028 6.63119V6.62161Z" fill="black" fill-opacity="0.83"/>
<path d="M17.7079 14.1724C21.5013 14.1724 24.6014 11.1655 24.6014 7.4862C24.6014 3.80686 21.5112 0.799988 17.7079 0.799988C13.9046 0.799988 10.8145 3.79725 10.8145 7.4862C10.8145 11.1752 13.9046 14.1724 17.7079 14.1724ZM17.7079 3.23047C20.1048 3.23047 22.1054 5.17101 22.1054 7.49582C22.1054 9.82063 20.1048 11.7612 17.7079 11.7612C15.3111 11.7612 13.3104 9.82063 13.3104 7.49582C13.3104 5.17101 15.3111 3.23047 17.7079 3.23047Z" fill="black" fill-opacity="0.83"/>
<path d="M37.9726 14.4606V13.5864C38.973 13.5864 39.7752 13.01 39.7752 12.0397C39.7752 11.4537 39.4781 10.9734 38.8739 10.6852C38.3787 10.4931 38.0717 10.397 37.9726 10.397V9.42673C38.4678 9.52279 39.072 9.81099 39.171 9.90706L39.6662 8.93681C39.4681 8.84074 39.2701 8.74466 38.9631 8.64859C38.656 8.55253 38.3589 8.45648 38.0617 8.45648V7.77438H37.5665V8.45648C36.4671 8.55254 35.8729 9.23461 35.8729 10.0992C35.8729 10.4835 35.9719 10.7717 36.17 10.9734C36.5662 11.3577 37.2694 11.4538 37.5665 11.5498V12.5201C36.9623 12.424 36.2691 12.0398 36.17 11.9341L35.6748 13.0004C36.2691 13.3847 36.9723 13.5768 37.5764 13.5768V14.451H37.9726V14.4606ZM37.8735 11.7515C38.0716 11.8476 38.1707 11.8476 38.2697 11.9437C38.3688 12.0397 38.4678 12.1358 38.4678 12.2319C38.4678 12.424 38.2697 12.6161 37.8636 12.6161V11.7419L37.8735 11.7515ZM37.1802 10.2049C37.0812 10.1088 37.0812 10.0127 37.0812 9.91668C37.0812 9.62848 37.2793 9.53242 37.5764 9.53242V10.4066C37.3783 10.3106 37.2793 10.3105 37.1802 10.2145V10.2049Z" fill="black" fill-opacity="0.83"/>
<path d="M51.3634 17.1793L50.8682 18.2456C51.4624 18.6299 52.1657 18.822 52.7698 18.822V19.6962H53.2651V18.726C53.9683 18.726 54.5625 18.4378 54.8597 17.8518C55.0577 17.4675 55.0577 16.8815 54.8597 16.5933C54.7606 16.3051 54.4635 16.0169 54.0574 15.9112C53.5622 15.7191 53.2551 15.623 53.1561 15.623V14.6527C53.6513 14.7488 54.2555 15.037 54.3545 15.1331L54.8497 14.1628C54.6516 14.0668 54.4535 13.9707 54.1465 13.8746C53.8494 13.7785 53.5424 13.6825 53.2452 13.6825V12.9043H52.75V13.5864C51.6506 13.6825 51.0563 14.3646 51.0563 15.2291C51.0563 16.0937 51.6605 16.3916 52.4529 16.5837L52.849 16.6798V17.65C52.0468 17.65 51.4525 17.2657 51.3535 17.1697L51.3634 17.1793ZM53.057 16.8815C53.2551 16.9776 53.3542 16.9776 53.4532 17.0736C53.5523 17.1697 53.6513 17.2658 53.6513 17.3618C53.6513 17.554 53.4532 17.7461 53.057 17.7461V16.8719V16.8815ZM52.3538 15.3348C52.2548 15.2388 52.2548 15.1427 52.2548 15.0466C52.2548 14.7584 52.4529 14.6624 52.75 14.6624V15.5366C52.5519 15.5366 52.4529 15.4405 52.3538 15.3444V15.3348Z" fill="black" fill-opacity="0.83"/>
<path d="M3.52451 18.9181L3.0293 19.9845C3.62356 20.3687 4.3268 20.5705 4.92106 20.5705V21.4447H5.41628V20.5705C6.41662 20.5705 7.20897 19.9845 7.20897 19.0238C7.20897 18.4474 6.9118 17.9575 6.30764 17.6693C5.81242 17.4771 5.50541 17.381 5.40637 17.381V16.4108C5.90159 16.5069 6.50571 16.7951 6.60476 16.8911L7.09998 15.9208C6.90189 15.8248 6.70384 15.7287 6.3968 15.6327C6.09967 15.5366 5.80251 15.4405 5.49547 15.4405V14.7585H5.00026V15.4405C4.29705 15.5366 3.70277 15.8248 3.50469 16.4108C3.3066 16.7951 3.3066 17.285 3.50469 17.5732C3.60373 17.8614 3.90088 18.0535 4.20792 18.2553C4.60409 18.4474 5.01018 18.5435 5.20827 18.5435V19.5137C4.30697 19.4177 3.61364 19.0334 3.5146 18.9373L3.52451 18.9181ZM5.32712 18.6299C5.5252 18.726 5.62427 18.726 5.72331 18.822C5.82236 18.9181 5.92135 19.0142 5.92135 19.1103C5.92135 19.3024 5.72328 19.4945 5.3172 19.4945V18.6203L5.32712 18.6299ZM4.62388 17.1793C4.52484 17.0833 4.52487 16.9872 4.52487 16.8911C4.52487 16.6029 4.72295 16.5068 5.02008 16.5068V17.381C4.822 17.285 4.72293 17.1889 4.62388 17.1889V17.1793Z" fill="black" fill-opacity="0.83"/>
</svg>
