<svg width="120" height="120" viewBox="0 0 120 120" fill="none" xmlns="http://www.w3.org/2000/svg">
<path d="M89.6311 88.5865L97.4795 80.9741C97.8893 80.5766 98.0942 80.1791 98.0942 79.7816L98.9139 76.5816C99.9385 77.1779 101.188 76.9791 102.008 76.184L110.061 68.3729C114.406 64.1592 114.406 57.3617 110.061 53.148L90.0205 33.7094C88.9959 32.7156 87.7458 31.9007 86.5163 31.5032C89.4057 28.8995 91.0656 25.2821 91.0656 21.287C91.0656 13.6746 84.6721 7.45349 76.8032 7.45349C68.9344 7.45349 62.541 13.6547 62.541 21.287C62.541 27.7069 67.0901 33.1132 73.0737 34.7032C65.6352 41.9181 66.045 41.5206 65.6352 41.9182C55.9221 37.7045 51.5778 42.7132 48.0737 45.1181C48.0737 44.5219 47.8689 44.1244 47.2541 43.707L39.2009 35.8958C34.8566 31.6821 27.8279 31.6821 23.5041 35.8958L3.25819 55.5331C-1.08606 59.7468 -1.08606 66.5443 3.25819 70.7579L11.3116 78.5692C11.5165 78.7679 11.9263 79.1654 12.3362 79.1654L13.791 83.7766C13.9959 84.1741 14.2008 84.5717 14.4057 84.7704L18.1147 88.3679L7.37706 98.5841C4.2828 101.585 4.2828 106.793 7.37706 109.814C10.4713 112.815 15.8402 112.815 18.955 109.814C21.0246 114.823 27.418 116.015 31.5573 113.014C31.9672 113.809 32.377 114.624 33.2172 115.419C33.2172 115.419 33.2172 115.618 33.4222 115.618C36.7213 118.619 41.8852 118.619 44.9999 115.618L45.6148 115.021C47.8894 120.428 54.918 121.64 59.0369 117.625L70.1844 106.614C74.3238 107.608 78.4426 105.819 80.1024 102.003C83.1966 105.004 88.5655 105.004 91.6803 102.003C94.9795 98.8027 94.9795 93.794 91.6803 90.7729C92.0901 90.7729 93.1352 91.7667 89.6106 88.5667L89.6311 88.5865ZM67.9508 21.2473C67.9508 16.4374 72.0901 12.4224 77.0491 12.4224C82.0081 12.4224 86.1475 16.4374 86.1475 21.2473C86.1475 26.0573 82.0081 30.0722 77.0491 30.0722C72.0901 30.0722 67.9508 26.0573 67.9508 21.2473ZM78.0737 37.2871C80.3483 35.0808 84.2622 35.0808 86.5368 37.2871L106.578 56.7256C108.852 58.9318 108.852 62.7281 106.578 64.9343L100.389 70.9369L71.8853 43.2896L78.0737 37.2672V37.2871ZM53.0737 48.0995C54.9385 46.6883 56.5779 45.4958 59.0574 45.4958C60.7172 45.4958 62.5615 46.092 64.8361 47.1057C65.6558 47.5032 66.4959 47.5032 67.3155 47.1057L67.9303 46.7082L94.5901 72.5666L93.1353 77.9729L85.9016 84.989C53.8729 53.9231 55.7377 55.9306 55.3279 55.5331C54.918 55.3343 54.5081 55.1356 54.0983 55.1356C53.6885 55.1356 53.2787 55.3343 51.6189 55.7318C47.9099 56.7256 43.3606 57.9381 39.6311 57.9381C37.7664 57.9381 36.3319 57.5405 35.2869 56.9443C34.2623 56.348 33.4222 55.5331 33.4222 55.1356C33.6271 54.3405 35.9017 52.3331 42.5205 51.7368C42.7254 51.7368 42.9303 51.7368 43.1353 51.538C43.9549 51.538 44.5902 51.3393 45.6148 51.3393C48.7091 51.3393 51.1886 49.5306 53.0533 48.1393L53.0737 48.0995ZM7.41809 67.3393C5.1435 65.1331 5.1435 61.3368 7.41809 59.1306L27.664 39.4933C29.9386 37.2871 33.8525 37.2871 36.1271 39.4933L42.3155 45.4958C42.1106 45.4958 42.1107 45.6946 41.9058 45.8933L41.2909 46.4896L41.0861 46.6883C31.373 47.8809 29.0983 51.6971 28.4836 53.9033V54.102C28.2787 55.5132 28.4837 56.9045 29.0984 58.1169L13.6066 73.3418L7.39757 67.3393H7.41809ZM33.8525 104.626L29.3033 109.039C28.0533 110.231 26.209 110.231 24.959 109.039C23.709 107.846 23.709 106.038 24.959 105.024C25.9836 104.03 25.9836 102.42 24.959 101.426C23.9345 100.433 22.2746 100.433 21.25 101.426L15.8812 106.634C14.6517 107.846 12.582 107.628 11.537 106.634C10.3074 105.441 10.3074 103.434 11.537 102.42L22.2746 92.2039L34.6721 104.229C34.2623 104.229 34.0575 104.428 33.8525 104.626ZM41.9058 112.239C40.6558 113.431 38.8115 113.431 37.5615 112.239C36.537 111.245 36.3115 109.436 37.5615 108.224C37.7665 108.025 37.9713 107.826 37.9713 107.628C41.4754 111.026 40.4508 110.033 40.6557 110.231C41.2705 110.828 41.9057 111.225 42.7254 111.642L41.9058 112.239ZM55.7581 114.445C54.5081 115.638 52.6639 115.638 51.4139 114.445C50.5942 113.65 50.3894 112.438 50.5943 111.444C52.0492 110.649 53.2787 109.238 53.8934 107.628C54.3033 108.025 54.7131 108.423 55.5533 109.039C56.7828 110.033 58.4426 110.45 59.8975 110.45L55.7581 114.465V114.445ZM88.6065 98.8027C87.5819 99.7965 85.5123 99.9953 84.2623 98.8027L78.8934 93.5953C77.8689 92.6015 76.209 92.6015 75.1844 93.5953C74.1598 94.5891 74.1598 96.199 75.1844 97.2127C77.0492 99.0214 75.5943 102.023 72.9099 102.023C72.0902 102.023 71.2499 101.625 70.6352 101.228L66.0861 96.8152C65.0615 95.8214 63.4017 95.8214 62.3771 96.8152C61.3525 97.8089 61.3525 99.4189 62.3771 100.433C63.6066 101.625 63.4017 103.434 62.3771 104.447C61.1271 105.66 59.2828 105.66 58.0328 104.447L52.2541 98.8425C51.2295 97.8487 49.7746 97.8487 48.75 98.8425C47.7254 99.8363 47.7254 101.247 48.5451 102.241C49.7951 103.652 49.795 105.64 48.3401 106.654C48.1352 106.852 47.9303 107.051 47.7254 107.051C47.5205 107.051 47.3155 107.25 47.3155 107.25C46.2909 107.647 45.041 107.25 44.0164 106.455C36.3729 98.8425 42.5615 104.845 18.8115 81.8089L17.3566 76.6014L32.8483 61.3766C33.668 61.7741 33.2582 61.5753 33.8729 61.7741C39.6516 63.9803 47.0901 61.7741 53.0942 60.1641C86.5573 92.6214 83.0532 89.4214 88.422 94.2313C89.877 95.8413 89.877 97.63 88.627 98.8425L88.6065 98.8027Z" fill="white" fill-opacity="0.83"/>
<path d="M13.8119 66.7429C15.6767 66.7429 17.1111 65.3318 17.1111 63.5429C17.1111 61.7541 15.6562 60.3429 13.8119 60.3429C12.9923 60.3429 12.1521 60.7404 11.5374 61.3367C10.3079 62.5292 10.3079 64.5367 11.5374 65.7491C12.1521 66.3454 12.9923 66.7429 13.8119 66.7429ZM12.5825 62.3305C13.4021 61.5354 14.6521 61.5354 15.2669 62.3305C16.0866 63.1255 16.0866 64.3379 15.2669 64.9342C14.4472 65.7292 13.1972 65.7292 12.5825 64.9342C11.7628 64.1392 11.7628 62.9268 12.5825 62.3305Z" fill="white" fill-opacity="0.83"/>
<path d="M100.39 57.7194C99.5704 57.7194 98.7302 58.1169 98.1155 58.5144C96.886 59.7269 96.886 61.7145 98.1155 62.9269C99.3655 64.1393 101.415 64.1393 102.665 62.9269C104.529 60.9194 103.074 57.7194 100.39 57.7194ZM101.824 61.9331L100.8 61.138L99.7753 60.1442L101.435 61.9529C100.206 62.9467 98.136 62.1517 98.136 60.343C98.136 58.5343 100.411 57.7393 101.64 58.9318C102.05 59.3293 102.255 59.7268 102.255 60.343C102.255 61.138 102.05 61.5554 101.845 61.9529L101.824 61.9331Z" fill="white" fill-opacity="0.83"/>
<path d="M96.4551 105.223C96.4551 106.634 97.6846 107.826 99.1395 107.826H117.316C118.771 107.826 120 106.614 120 105.223C120 103.831 118.771 102.619 117.316 102.619H99.1395C97.4797 102.818 96.4551 103.831 96.4551 105.223Z" fill="white" fill-opacity="0.83"/>
<path d="M117.111 110.231H98.9344C97.4795 110.231 96.25 111.444 96.25 112.835C96.25 114.226 97.5 115.439 98.9344 115.439H117.111C118.566 115.439 119.795 114.226 119.795 112.835C119.59 111.424 118.545 110.231 117.111 110.231Z" fill="white" fill-opacity="0.83"/>
<path d="M32.4191 15.6423L31.3945 17.8485C32.6445 18.6435 34.0789 19.0609 35.3289 19.0609V20.8696H36.3535V19.0609C38.4232 19.0609 40.0625 17.8485 40.0625 15.8609C40.0625 14.6485 39.4478 13.6547 38.1978 13.0584C37.1732 12.6609 36.333 12.4621 36.333 12.4621V10.4547C37.3576 10.6534 38.6076 11.2497 38.8125 11.4484L39.8371 9.44103C39.4273 9.24227 39.0174 9.04348 38.3822 8.84472C37.7674 8.64596 37.1322 8.44724 36.5175 8.44724V7.03601H35.4929V8.44724C33.2183 8.646 31.9887 10.0572 31.9887 11.846C31.9887 13.6348 33.2388 14.251 34.8782 14.6485L35.6978 14.8473V16.8547C34.0379 16.6559 32.6035 15.8609 32.3986 15.6423H32.4191ZM36.1281 15.046C36.538 15.2447 36.7428 15.2447 36.9477 15.4435C37.1526 15.6423 37.3576 15.841 37.3576 16.0398C37.3576 16.4373 36.9478 16.8348 36.1281 16.8348V15.0261V15.046ZM34.6732 12.0448C34.4682 11.846 34.4683 11.6472 34.4683 11.4484C34.4683 10.8522 34.8781 10.6534 35.4929 10.6534V12.4621C35.0831 12.2634 34.8781 12.0646 34.6732 12.0646V12.0448Z" fill="white" fill-opacity="0.83"/>
<path d="M35.7174 27.6671C43.5658 27.6671 49.9797 21.446 49.9797 13.8336C49.9797 6.22111 43.5862 0 35.7174 0C27.8486 0 21.4551 6.20124 21.4551 13.8336C21.4551 21.4659 27.8486 27.6671 35.7174 27.6671ZM35.7174 5.02858C40.6764 5.02858 44.8158 9.0435 44.8158 13.8534C44.8158 18.6634 40.6764 22.6783 35.7174 22.6783C30.7584 22.6783 26.619 18.6634 26.619 13.8534C26.619 9.0435 30.7584 5.02858 35.7174 5.02858Z" fill="white" fill-opacity="0.83"/>
<path d="M77.6447 28.2634V26.4547C79.7144 26.4547 81.3741 25.2621 81.3741 23.2547C81.3741 22.0423 80.7594 21.0485 79.5094 20.4522C78.4848 20.0547 77.8497 19.8559 77.6447 19.8559V17.8485C78.6693 18.0472 79.9192 18.6435 80.1242 18.8422L81.1487 16.8348C80.7389 16.6361 80.3292 16.4373 79.6939 16.2385C79.0587 16.0398 78.4438 15.841 77.8291 15.841V14.4298H76.8045V15.841C74.5299 16.0398 73.3005 17.451 73.3005 19.2398C73.3005 20.0348 73.5054 20.6311 73.9152 21.0485C74.7349 21.8435 76.1897 22.0423 76.8045 22.2411V24.2485C75.5545 24.0497 74.1201 23.2547 73.9152 23.0361L72.8906 25.2423C74.1201 26.0373 75.575 26.4348 76.825 26.4348V28.2435H77.6447V28.2634ZM77.4397 22.6584C77.8496 22.8572 78.0545 22.8571 78.2595 23.0559C78.4644 23.2547 78.6693 23.4535 78.6693 23.6522C78.6693 24.0497 78.2594 24.4472 77.4192 24.4472V22.6385L77.4397 22.6584ZM76.0053 19.4584C75.8004 19.2596 75.8004 19.0609 75.8004 18.8621C75.8004 18.2659 76.2103 18.0671 76.825 18.0671V19.8758C76.4152 19.6771 76.2102 19.677 76.0053 19.4783V19.4584Z" fill="white" fill-opacity="0.83"/>
<path d="M105.349 33.8882L104.324 36.0945C105.554 36.8895 107.009 37.287 108.259 37.287V39.0957H109.283V37.0883C110.738 37.0883 111.968 36.492 112.582 35.2796C112.992 34.4845 112.992 33.2721 112.582 32.6758C112.378 32.0795 111.763 31.4832 110.923 31.2646C109.898 30.8671 109.263 30.6683 109.058 30.6683V28.6609C110.082 28.8596 111.332 29.4559 111.537 29.6547L112.562 27.6472C112.152 27.4485 111.742 27.2497 111.107 27.0509C110.492 26.8522 109.857 26.6535 109.242 26.6535V25.0435H108.218V26.4547C105.943 26.6534 104.714 28.0646 104.714 29.8534C104.714 31.6423 105.964 32.2584 107.603 32.6559L108.423 32.8547V34.8621C106.763 34.8621 105.533 34.0671 105.328 33.8683L105.349 33.8882ZM108.853 33.2721C109.263 33.4708 109.468 33.4709 109.673 33.6696C109.878 33.8684 110.082 34.0671 110.082 34.2659C110.082 34.6634 109.673 35.0609 108.853 35.0609V33.2522V33.2721ZM107.398 30.0721C107.193 29.8733 107.193 29.6745 107.193 29.4758C107.193 28.8795 107.603 28.6808 108.218 28.6808V30.4895C107.808 30.4895 107.603 30.2907 107.398 30.0919V30.0721Z" fill="white" fill-opacity="0.83"/>
<path d="M6.37225 37.4857L5.34766 39.692C6.57716 40.487 8.03215 40.9044 9.26166 40.9044V42.7131H10.2862V40.9044C12.3559 40.9044 13.9953 39.692 13.9953 37.7044C13.9953 36.5118 13.3804 35.4982 12.1304 34.9019C11.1058 34.5044 10.4707 34.3056 10.2657 34.3056V32.2982C11.2903 32.4969 12.5402 33.0932 12.7452 33.292L13.7697 31.2845C13.3599 31.0857 12.9502 30.887 12.3149 30.6882C11.7002 30.4895 11.0853 30.2907 10.4501 30.2907V28.8795H9.4255V30.2907C7.97058 30.4894 6.74106 31.0857 6.33122 32.2982C5.92139 33.0932 5.92139 34.1068 6.33122 34.7031C6.53614 35.2994 7.15094 35.6969 7.78618 36.1143C8.60585 36.5118 9.44604 36.7106 9.85587 36.7106V38.718C7.99112 38.5193 6.55665 37.7243 6.35173 37.5255L6.37225 37.4857ZM10.1018 36.8895C10.5116 37.0882 10.7166 37.0882 10.9215 37.2869C11.1264 37.4857 11.3312 37.6845 11.3312 37.8833C11.3312 38.2808 10.9214 38.6783 10.0813 38.6783V36.8696L10.1018 36.8895ZM8.6468 33.8882C8.44189 33.6894 8.44194 33.4907 8.44194 33.292C8.44194 32.6957 8.85177 32.4969 9.46652 32.4969V34.3056C9.05669 34.1068 8.85172 33.9081 8.6468 33.9081V33.8882Z" fill="white" fill-opacity="0.83"/>
</svg>
