<svg width="58" height="59" viewBox="0 0 58 59" fill="none" xmlns="http://www.w3.org/2000/svg">
<path d="M8.10423 19.0883H5.61035V21.5599H8.10423V19.0883Z" fill="black" fill-opacity="0.83"/>
<path d="M10.5984 16.6166H8.10449V19.0883H10.5984V16.6166Z" fill="black" fill-opacity="0.83"/>
<path d="M8.10423 14.145H5.61035V16.6166H8.10423V14.145Z" fill="black" fill-opacity="0.83"/>
<path d="M10.5984 11.6734H8.10449V14.145H10.5984V11.6734Z" fill="black" fill-opacity="0.83"/>
<path d="M56.498 32.241C54.4989 30.2598 51.4111 30.2598 49.412 32.241L39.5353 42.0295C38.9415 40.4504 37.3383 39.2636 35.5471 39.0674L11.9043 37.0862C11.6074 37.0862 11.2016 37.1843 11.0037 37.3804L0.424275 46.6786C-0.0705509 47.169 -0.169492 47.9634 0.325334 48.4636L10.202 58.2521C10.5979 58.6445 11.3006 58.7426 11.7954 58.3502L15.9816 55.3882L38.229 56.8692C38.6249 56.8692 38.9317 56.7711 39.2285 56.4769L56.587 39.2734C58.4872 37.3902 58.4872 34.232 56.4881 32.2508L56.498 32.241ZM54.6968 37.4785L37.7342 54.2896L15.9816 52.8086L10.0932 47.6692C9.59837 47.1788 8.79674 47.2768 8.29202 47.7673C7.79719 48.2577 7.8962 49.0521 8.39102 49.5425L13.4778 53.8973L11.1818 55.7805L2.99741 47.6692L12.1813 39.6559L35.3293 41.6372C36.7247 41.7353 37.6253 43.1182 37.2294 44.4031C37.1305 44.5992 37.0316 44.6973 37.0316 44.8935C36.6357 45.5899 35.8341 45.9822 35.0324 45.9822L21.6622 45.3839C20.9596 45.3839 20.3658 45.8743 20.3658 46.5707C20.3658 47.267 20.8606 47.8555 21.5633 47.8555L34.9335 48.4538C36.8336 48.5519 38.6249 47.4632 39.4265 45.786L51.2034 34.0163C52.2029 33.0256 53.7962 33.0256 54.6968 34.0163C55.5974 35.0069 55.6964 36.586 54.6968 37.4785Z" fill="black" fill-opacity="0.83"/>
<path d="M16.7834 33.9182C18.6836 33.9182 41.6237 33.9182 40.5351 33.9182C41.3367 33.9182 41.9305 33.2218 41.7326 32.4372L39.2386 7.81874C39.1397 7.23026 38.6448 6.73006 38.0411 6.73006H34.2508V6.14156C34.2508 3.07162 31.7569 0.599976 28.6593 0.599976C25.5617 0.599976 23.0677 3.07162 23.0677 6.14156V6.73006H19.2774C18.6836 6.73006 18.0799 7.22045 18.0799 7.81874L15.5859 32.5451C15.5859 32.9374 15.685 33.2414 15.8829 33.5357C16.0808 33.8299 16.4766 33.928 16.7834 33.928V33.9182ZM18.1788 31.4466L18.4758 28.9749H38.9319L39.2287 31.4466H18.1788ZM25.5616 6.13174C25.5616 4.45455 26.9571 3.06183 28.6593 3.06183C30.3615 3.06183 31.747 4.44475 31.747 6.13174V6.72024H25.4627V6.13174H25.5616ZM20.4748 9.20169H23.0677V12.9582C23.0677 13.6546 23.6714 14.2431 24.3641 14.2431C25.0569 14.2431 25.6606 13.6546 25.6606 12.9582V9.20169H31.9449V12.9582C31.9449 13.6546 32.5387 14.2431 33.2414 14.2431C33.944 14.2431 34.5378 13.6546 34.5378 12.9582V9.20169H37.1307L38.9319 26.5032H18.9706L20.4649 9.20169H20.4748Z" fill="black" fill-opacity="0.83"/>
<path d="M46.7098 17.8034H44.2158V20.2751H46.7098V17.8034Z" fill="black" fill-opacity="0.83"/>
<path d="M54.202 24.0316H51.708V26.5033H54.202V24.0316Z" fill="black" fill-opacity="0.83"/>
<path d="M50.5105 12.8601H48.0166V17.8034H50.5105V12.8601Z" fill="black" fill-opacity="0.83"/>
<path d="M54.202 15.3318H51.708V22.7467H54.202V15.3318Z" fill="black" fill-opacity="0.83"/>
<path d="M46.7098 10.3885H44.2158V16.6167H46.7098V10.3885Z" fill="black" fill-opacity="0.83"/>
</svg>
