<svg width="120" height="121" viewBox="0 0 120 121" fill="none" xmlns="http://www.w3.org/2000/svg">
<path d="M16.7672 38.7517H11.6074V43.8654H16.7672V38.7517Z" fill="white" fill-opacity="0.83"/>
<path d="M21.9275 33.6379H16.7676V38.7517H21.9275V33.6379Z" fill="white" fill-opacity="0.83"/>
<path d="M16.7672 28.5242H11.6074V33.6379H16.7672V28.5242Z" fill="white" fill-opacity="0.83"/>
<path d="M21.9275 23.4104H16.7676V28.5241H21.9275V23.4104Z" fill="white" fill-opacity="0.83"/>
<path d="M116.892 65.9642C112.756 61.8651 106.368 61.8651 102.232 65.9642L81.7973 86.2163C80.5687 82.9492 77.2517 80.4938 73.5457 80.0879L24.6295 75.9888C24.0153 75.9888 23.1757 76.1917 22.7662 76.5976L0.87781 95.8351C-0.145967 96.8497 -0.350673 98.4934 0.673105 99.5283L21.1077 119.78C21.9267 120.592 23.3806 120.795 24.4043 119.983L33.0655 113.855L79.0945 116.919C79.9135 116.919 80.5483 116.716 81.1625 116.107L117.077 80.514C121.008 76.6179 121.008 70.0836 116.872 65.9845L116.892 65.9642ZM113.166 76.8005L78.0707 111.582L33.0655 108.518L20.8825 97.8846C19.8587 96.8699 18.2002 97.0729 17.1559 98.0875C16.1321 99.1021 16.337 100.746 17.3607 101.76L27.8851 110.77L23.1349 114.667L6.20153 97.8846L25.2028 81.3055L73.0951 85.4046C75.9822 85.6075 77.8454 88.4688 77.0264 91.1271C76.8217 91.533 76.617 91.7359 76.617 92.1418C75.798 93.5826 74.1394 94.3942 72.4809 94.3942L44.8184 93.1564C43.3646 93.1564 42.1361 94.171 42.1361 95.6118C42.1361 97.0526 43.1599 98.2701 44.6137 98.2701L72.2762 99.508C76.2075 99.711 79.9135 97.4585 81.5721 93.9884L105.938 69.6372C108.006 67.5876 111.303 67.5876 113.166 69.6372C115.029 71.6868 115.234 74.9539 113.166 76.8005Z" fill="white" fill-opacity="0.83"/>
<path d="M34.7237 69.4342C38.655 69.4342 86.1173 69.4342 83.865 69.4342C85.5235 69.4342 86.7521 67.9934 86.3426 66.37L81.1827 15.4354C80.978 14.2178 79.9542 13.1829 78.7051 13.1829H70.8631V11.9654C70.8631 5.61374 65.7032 0.5 59.2944 0.5C52.8855 0.5 47.7256 5.61374 47.7256 11.9654V13.1829H39.8836C38.655 13.1829 37.406 14.1975 37.406 15.4354L32.2461 66.5933C32.2461 67.405 32.4509 68.034 32.8605 68.6428C33.27 69.2516 34.0889 69.4545 34.7237 69.4545V69.4342ZM37.6107 64.3205L38.225 59.2067H80.548L81.1622 64.3205H37.6107ZM52.8855 11.945C52.8855 8.47499 55.7726 5.59348 59.2944 5.59348C62.8161 5.59348 65.6827 8.4547 65.6827 11.945V13.1626H52.6808V11.945H52.8855ZM42.361 18.2967H47.7256V26.0688C47.7256 27.5096 48.9746 28.7271 50.4079 28.7271C51.8412 28.7271 53.0902 27.5096 53.0902 26.0688V18.2967H66.0923V26.0688C66.0923 27.5096 67.3208 28.7271 68.7745 28.7271C70.2283 28.7271 71.4568 27.5096 71.4568 26.0688V18.2967H76.8214L80.548 54.093H39.2488L42.3405 18.2967H42.361Z" fill="white" fill-opacity="0.83"/>
<path d="M96.6423 36.0934H91.4824V41.2071H96.6423V36.0934Z" fill="white" fill-opacity="0.83"/>
<path d="M112.142 48.9791H106.982V54.0929H112.142V48.9791Z" fill="white" fill-opacity="0.83"/>
<path d="M104.504 25.8658H99.3438V36.0934H104.504V25.8658Z" fill="white" fill-opacity="0.83"/>
<path d="M112.142 30.9796H106.982V46.3209H112.142V30.9796Z" fill="white" fill-opacity="0.83"/>
<path d="M96.6423 20.7521H91.4824V33.6379H96.6423V20.7521Z" fill="white" fill-opacity="0.83"/>
</svg>
