<svg width="58" height="58" viewBox="0 0 58 58" fill="none" xmlns="http://www.w3.org/2000/svg">
<g clip-path="url(#clip0_807_695)">
<path d="M31.8988 56.2424H49.2988C50.0679 56.2424 50.8055 55.9462 51.3494 55.4188C51.8933 54.8914 52.1988 54.1761 52.1988 53.4303V40.3071H54.8465C55.4319 40.3071 56.0056 40.1478 56.5024 39.8474C56.9992 39.547 57.399 39.1175 57.6566 38.6076C57.9264 38.0885 58.0404 37.5063 57.9855 36.9274C57.9306 36.3485 57.7091 35.7961 57.3463 35.3334L43.0899 17.1408C42.8329 16.8073 42.5072 16.5292 42.1335 16.3242C41.7597 16.1192 41.3462 15.9918 40.919 15.95C40.4918 15.9083 40.0603 15.953 39.6519 16.0816C39.2435 16.2101 38.8671 16.4195 38.5466 16.6965L38.3378 13.5441C38.2645 12.414 37.7496 11.3535 36.8981 10.5787C36.0466 9.80386 34.9225 9.37295 33.7548 9.37375H30.8848C30.6329 6.82074 29.4089 4.45038 27.4517 2.7254C25.4945 1.00043 22.9446 0.0446472 20.2998 0.0446472C17.6549 0.0446472 15.105 1.00043 13.1479 2.7254C11.1907 4.45038 9.96664 6.82074 9.71476 9.37375H6.84086C5.67412 9.37362 4.55114 9.80446 3.70032 10.5786C2.84951 11.3528 2.33477 12.4122 2.26079 13.5413L0.00845514 47.7639C-0.0317064 48.37 0.0566773 48.9776 0.26815 49.5493C0.479622 50.121 0.809694 50.6446 1.23799 51.0878C1.66628 51.5309 2.18371 51.8843 2.75832 52.1259C3.33292 52.3676 3.95252 52.4925 4.57886 52.4929H28.9988V53.4303C28.9988 54.1761 29.3043 54.8914 29.8482 55.4188C30.392 55.9462 31.1297 56.2424 31.8988 56.2424ZM40.5988 17.8157C40.7832 17.8153 40.9651 17.8564 41.1302 17.936C41.2953 18.0156 41.439 18.1313 41.55 18.2741L55.8054 36.4639C55.9445 36.6429 56.0304 36.8554 56.0539 37.0783C56.0775 37.3013 56.0377 37.5263 55.939 37.7289C55.8403 37.9316 55.6863 38.1042 55.4938 38.2282C55.3012 38.3522 55.0774 38.4228 54.8465 38.4323H51.2321C50.9757 38.4323 50.7299 38.5311 50.5486 38.7069C50.3673 38.8827 50.2655 39.1211 50.2655 39.3697V53.4303C50.2655 53.6789 50.1636 53.9173 49.9823 54.0931C49.801 54.2689 49.5552 54.3677 49.2988 54.3677H31.8988C31.6424 54.3677 31.3965 54.2689 31.2153 54.0931C31.034 53.9173 30.9321 53.6789 30.9321 53.4303V39.3697C30.9321 39.1211 30.8303 38.8827 30.649 38.7069C30.4677 38.5311 30.2218 38.4323 29.9655 38.4323H26.3511C26.1207 38.4228 25.8973 38.3525 25.7051 38.229C25.5128 38.1054 25.359 37.9334 25.2601 37.7313C25.1613 37.5293 25.1211 37.3049 25.1441 37.0824C25.167 36.8599 25.2521 36.6476 25.3902 36.4685L39.6486 18.2722C39.7596 18.1299 39.9032 18.0145 40.0681 17.9353C40.2331 17.856 40.4147 17.8151 40.5988 17.8157ZM11.5988 10.3111C11.5988 8.07366 12.5154 5.92784 14.147 4.34571C15.7785 2.76359 17.9914 1.87476 20.2988 1.87476C22.6062 1.87476 24.8191 2.76359 26.4506 4.34571C28.0822 5.92784 28.9988 8.07366 28.9988 10.3111V14.998C28.9988 15.2466 28.8969 15.485 28.7157 15.6608C28.5344 15.8366 28.2885 15.9354 28.0321 15.9354C27.7757 15.9354 27.5299 15.8366 27.3486 15.6608C27.1673 15.485 27.0655 15.2466 27.0655 14.998V10.3111C27.0655 8.57088 26.3525 6.9019 25.0835 5.67136C23.8145 4.44082 22.0934 3.74951 20.2988 3.74951C18.5042 3.74951 16.783 4.44082 15.514 5.67136C14.245 6.9019 13.5321 8.57088 13.5321 10.3111V14.998C13.5321 15.2466 13.4303 15.485 13.249 15.6608C13.0677 15.8366 12.8218 15.9354 12.5655 15.9354C12.3091 15.9354 12.0632 15.8366 11.8819 15.6608C11.7006 15.485 11.5988 15.2466 11.5988 14.998V10.3111ZM25.0355 9.37375H15.5621C15.784 8.31425 16.3768 7.3617 17.24 6.67751C18.1033 5.99332 19.1839 5.61956 20.2988 5.61956C21.4137 5.61956 22.4943 5.99332 23.3576 6.67751C24.2208 7.3617 24.8136 8.31425 25.0355 9.37375ZM4.57886 50.6182C4.21676 50.618 3.85854 50.5459 3.52635 50.4061C3.19417 50.2664 2.89506 50.0621 2.64754 49.8058C2.40002 49.5495 2.20933 49.2467 2.08728 48.9162C1.96522 48.5856 1.91439 48.2343 1.93792 47.8839L4.19026 13.6575C4.23351 13.0045 4.53163 12.392 5.024 11.9445C5.51637 11.497 6.16602 11.2481 6.84086 11.2485H9.66545V14.998C9.66545 15.7438 9.97099 16.4591 10.5148 16.9865C11.0587 17.5138 11.7963 17.8101 12.5655 17.8101C13.3346 17.8101 14.0722 17.5138 14.6161 16.9865C15.1599 16.4591 15.4655 15.7438 15.4655 14.998V11.2485H25.1321V14.998C25.1321 15.7438 25.4377 16.4591 25.9815 16.9865C26.5254 17.5138 27.263 17.8101 28.0321 17.8101C28.8013 17.8101 29.5389 17.5138 30.0827 16.9865C30.6266 16.4591 30.9321 15.7438 30.9321 14.998V11.2485H33.7548C34.4301 11.2482 35.0801 11.4974 35.5726 11.9455C36.065 12.3936 36.3628 13.0068 36.4054 13.6604L36.7495 18.8731L23.8494 35.339C23.4872 35.8016 23.2662 36.3535 23.2117 36.9319C23.1572 37.5103 23.2713 38.0919 23.541 38.6104C23.7989 39.1197 24.199 39.5487 24.6957 39.8486C25.1925 40.1485 25.7659 40.3074 26.3511 40.3071H28.9988V50.6182H4.57886Z" fill="black" fill-opacity="0.83"/>
<path d="M34.7995 48.7434C35.0558 48.7434 35.3017 48.6446 35.4829 48.4688L47.0829 37.2203C47.259 37.0435 47.3564 36.8067 47.3542 36.5609C47.352 36.3152 47.2504 36.0801 47.0711 35.9063C46.8919 35.7325 46.6494 35.6339 46.396 35.6317C46.1425 35.6296 45.8983 35.7241 45.716 35.8948L34.116 47.1433C33.9809 47.2744 33.8889 47.4414 33.8516 47.6232C33.8143 47.805 33.8334 47.9935 33.9066 48.1647C33.9797 48.336 34.1036 48.4824 34.2625 48.5854C34.4215 48.6884 34.6083 48.7434 34.7995 48.7434Z" fill="black" fill-opacity="0.83"/>
<path d="M36.732 41.2445C37.3056 41.2445 37.8663 41.0795 38.3432 40.7705C38.8201 40.4615 39.1918 40.0223 39.4113 39.5085C39.6308 38.9946 39.6882 38.4292 39.5763 37.8837C39.4644 37.3382 39.1882 36.8371 38.7826 36.4439C38.3771 36.0506 37.8603 35.7827 37.2978 35.6742C36.7352 35.5657 36.1522 35.6214 35.6223 35.8343C35.0923 36.0471 34.6394 36.4075 34.3208 36.87C34.0021 37.3325 33.832 37.8761 33.832 38.4323C33.832 39.1782 34.1376 39.8934 34.6814 40.4208C35.2253 40.9482 35.9629 41.2445 36.732 41.2445ZM36.732 37.495C36.9232 37.495 37.1101 37.5499 37.2691 37.6529C37.428 37.7559 37.5519 37.9023 37.6251 38.0736C37.6983 38.2449 37.7174 38.4334 37.6801 38.6152C37.6428 38.797 37.5508 38.9641 37.4156 39.0952C37.2804 39.2262 37.1081 39.3155 36.9206 39.3517C36.7331 39.3879 36.5387 39.3693 36.3621 39.2983C36.1855 39.2274 36.0345 39.1073 35.9283 38.9531C35.8221 38.799 35.7654 38.6177 35.7654 38.4323C35.7654 38.1837 35.8672 37.9453 36.0485 37.7695C36.2298 37.5937 36.4757 37.495 36.732 37.495Z" fill="black" fill-opacity="0.83"/>
<path d="M44.4654 43.1192C43.8919 43.1192 43.3312 43.2841 42.8543 43.5931C42.3774 43.9021 42.0057 44.3413 41.7862 44.8552C41.5667 45.369 41.5093 45.9344 41.6212 46.4799C41.7331 47.0254 42.0093 47.5265 42.4148 47.9198C42.8204 48.3131 43.3371 48.5809 43.8997 48.6894C44.4622 48.7979 45.0453 48.7422 45.5752 48.5294C46.1051 48.3165 46.558 47.9561 46.8767 47.4937C47.1953 47.0312 47.3654 46.4875 47.3654 45.9313C47.3654 45.1855 47.0599 44.4702 46.516 43.9429C45.9722 43.4155 45.2346 43.1192 44.4654 43.1192ZM44.4654 46.8687C44.2742 46.8687 44.0873 46.8137 43.9284 46.7107C43.7694 46.6077 43.6455 46.4613 43.5723 46.29C43.4992 46.1188 43.48 45.9303 43.5173 45.7484C43.5546 45.5666 43.6467 45.3996 43.7819 45.2685C43.9171 45.1374 44.0893 45.0481 44.2768 45.012C44.4644 44.9758 44.6587 44.9944 44.8354 45.0653C45.012 45.1363 45.163 45.2564 45.2692 45.4105C45.3754 45.5647 45.4321 45.7459 45.4321 45.9313C45.4321 46.1799 45.3303 46.4184 45.149 46.5941C44.9677 46.7699 44.7218 46.8687 44.4654 46.8687Z" fill="black" fill-opacity="0.83"/>
</g>
<defs>
<clipPath id="clip0_807_695">
<rect width="58" height="58" fill="white" transform="translate(-0.000976562)"/>
</clipPath>
</defs>
</svg>
