<svg width="120" height="120" viewBox="0 0 120 120" fill="none" xmlns="http://www.w3.org/2000/svg">
<g clip-path="url(#clip0_910_5615)">
<path d="M65.9995 116.364H102C103.591 116.364 105.117 115.751 106.242 114.66C107.367 113.568 108 112.089 108 110.546V83.394H113.478C114.689 83.394 115.876 83.0645 116.904 82.4429C117.931 81.8214 118.759 80.9327 119.292 79.8779C119.85 78.8038 120.086 77.5992 119.972 76.4015C119.858 75.2037 119.4 74.061 118.65 73.1036L89.1535 35.4638C88.6218 34.7738 87.9479 34.1984 87.1747 33.7743C86.4015 33.3502 85.5458 33.0866 84.6619 33.0001C83.7781 32.9137 82.8853 33.0063 82.0404 33.2722C81.1954 33.5381 80.4166 33.9714 79.7535 34.5445L79.3215 28.0224C79.1698 25.6842 78.1047 23.4901 76.3429 21.887C74.5812 20.2839 72.2555 19.3923 69.8395 19.394H63.9015C63.3804 14.1119 60.8479 9.20772 56.7986 5.6388C52.7492 2.06988 47.4735 0.0924072 42.0015 0.0924072C36.5295 0.0924072 31.2538 2.06988 27.2045 5.6388C23.1551 9.20772 20.6227 14.1119 20.1015 19.394H14.1555C11.7416 19.3937 9.41816 20.2851 7.65786 21.8869C5.89757 23.4886 4.83258 25.6805 4.67951 28.0165L0.0195139 98.8219C-0.063579 100.076 0.119284 101.333 0.556813 102.516C0.994342 103.699 1.67725 104.782 2.56337 105.699C3.4495 106.616 4.52003 107.347 5.70888 107.847C6.89773 108.347 8.17965 108.605 9.47551 108.606H59.9995V110.546C59.9995 112.089 60.6317 113.568 61.7569 114.66C62.8821 115.751 64.4082 116.364 65.9995 116.364ZM83.9995 36.8602C84.381 36.8592 84.7574 36.9444 85.099 37.109C85.4406 37.2736 85.738 37.5131 85.9675 37.8085L115.462 75.4425C115.749 75.8129 115.927 76.2525 115.976 76.7138C116.024 77.1751 115.942 77.6406 115.738 78.0599C115.534 78.4791 115.215 78.8363 114.817 79.0928C114.418 79.3493 113.955 79.4954 113.478 79.5152H106C105.469 79.5152 104.96 79.7195 104.585 80.0832C104.21 80.447 104 80.9402 104 81.4546V110.546C104 111.06 103.789 111.553 103.414 111.917C103.039 112.281 102.53 112.485 102 112.485H65.9995C65.4691 112.485 64.9604 112.281 64.5853 111.917C64.2102 111.553 63.9995 111.06 63.9995 110.546V81.4546C63.9995 80.9402 63.7888 80.447 63.4137 80.0832C63.0387 79.7195 62.5299 79.5152 61.9995 79.5152H54.5215C54.0448 79.4955 53.5827 79.35 53.1849 79.0944C52.7872 78.8389 52.4689 78.4829 52.2643 78.0649C52.0598 77.6468 51.9768 77.1826 52.0242 76.7222C52.0716 76.2618 52.2477 75.8227 52.5335 75.4522L82.0335 37.8047C82.2632 37.5101 82.5604 37.2714 82.9016 37.1075C83.2428 36.9436 83.6187 36.8589 83.9995 36.8602ZM23.9995 21.3334C23.9995 16.7042 25.8959 12.2645 29.2716 8.99117C32.6472 5.7178 37.2256 3.87885 41.9995 3.87885C46.7734 3.87885 51.3518 5.7178 54.7274 8.99117C58.1031 12.2645 59.9995 16.7042 59.9995 21.3334V31.0304C59.9995 31.5447 59.7888 32.038 59.4137 32.4017C59.0387 32.7654 58.5299 32.9698 57.9995 32.9698C57.4691 32.9698 56.9604 32.7654 56.5853 32.4017C56.2102 32.038 55.9995 31.5447 55.9995 31.0304V21.3334C55.9995 17.7329 54.5245 14.2798 51.899 11.7339C49.2735 9.18793 45.7125 7.75764 41.9995 7.75764C38.2865 7.75764 34.7255 9.18793 32.1 11.7339C29.4745 14.2798 27.9995 17.7329 27.9995 21.3334V31.0304C27.9995 31.5447 27.7888 32.038 27.4137 32.4017C27.0387 32.7654 26.5299 32.9698 25.9995 32.9698C25.4691 32.9698 24.9604 32.7654 24.5853 32.4017C24.2102 32.038 23.9995 31.5447 23.9995 31.0304V21.3334ZM51.7995 19.394H32.1995C32.6585 17.2019 33.885 15.2311 35.671 13.8156C37.457 12.4 39.6928 11.6267 41.9995 11.6267C44.3062 11.6267 46.542 12.4 48.328 13.8156C50.1141 15.2311 51.3405 17.2019 51.7995 19.394ZM9.47551 104.727C8.72635 104.727 7.98521 104.578 7.29793 104.289C6.61064 103.999 5.99181 103.577 5.47969 103.047C4.96758 102.516 4.57306 101.89 4.32053 101.206C4.068 100.522 3.96283 99.7951 4.01151 99.0701L8.67151 28.257C8.761 26.9059 9.3778 25.6386 10.3965 24.7127C11.4152 23.7868 12.7593 23.272 14.1555 23.2728H19.9995V31.0304C19.9995 32.5734 20.6317 34.0533 21.7569 35.1444C22.8821 36.2356 24.4082 36.8485 25.9995 36.8485C27.5908 36.8485 29.1169 36.2356 30.2422 35.1444C31.3674 34.0533 31.9995 32.5734 31.9995 31.0304V23.2728H51.9995V31.0304C51.9995 32.5734 52.6317 34.0533 53.7569 35.1444C54.8821 36.2356 56.4082 36.8485 57.9995 36.8485C59.5908 36.8485 61.1169 36.2356 62.2422 35.1444C63.3674 34.0533 63.9995 32.5734 63.9995 31.0304V23.2728H69.8395C71.2367 23.2721 72.5816 23.7878 73.6005 24.7148C74.6193 25.6419 75.2355 26.9107 75.3235 28.2628L76.0355 39.0478L49.3455 73.1152C48.5962 74.0723 48.139 75.2141 48.0262 76.4108C47.9134 77.6075 48.1495 78.8108 48.7075 79.8837C49.2412 80.9374 50.0689 81.8249 51.0966 82.4454C52.1243 83.0659 53.3109 83.3945 54.5215 83.394H59.9995V104.727H9.47551Z" fill="white" fill-opacity="0.83"/>
<path d="M71.9996 100.849C72.53 100.848 73.0386 100.644 73.4136 100.28L97.4136 77.0075C97.7779 76.6418 97.9795 76.1519 97.9749 75.6434C97.9704 75.1349 97.76 74.6484 97.3892 74.2889C97.0184 73.9293 96.5168 73.7253 95.9924 73.7209C95.468 73.7165 94.9628 73.912 94.5856 74.2652L70.5856 97.538C70.306 97.8092 70.1155 98.1547 70.0384 98.5309C69.9613 98.907 70.0009 99.2969 70.1522 99.6512C70.3036 100.006 70.5598 100.308 70.8887 100.522C71.2175 100.735 71.6041 100.848 71.9996 100.849Z" fill="white" fill-opacity="0.83"/>
<path d="M76 85.3334C77.1867 85.3334 78.3467 84.9922 79.3334 84.3528C80.3201 83.7135 81.0891 82.8049 81.5433 81.7417C81.9974 80.6786 82.1162 79.5088 81.8847 78.3801C81.6532 77.2515 81.0818 76.2148 80.2426 75.4011C79.4035 74.5874 78.3344 74.0333 77.1705 73.8088C76.0067 73.5843 74.8003 73.6995 73.7039 74.1399C72.6075 74.5803 71.6705 75.326 71.0112 76.2828C70.3519 77.2396 70 78.3645 70 79.5152C70 81.0583 70.6321 82.5382 71.7574 83.6293C72.8826 84.7204 74.4087 85.3334 76 85.3334ZM76 77.5758C76.3956 77.5758 76.7822 77.6896 77.1111 77.9027C77.44 78.1158 77.6964 78.4187 77.8478 78.773C77.9991 79.1274 78.0387 79.5174 77.9616 79.8936C77.8844 80.2698 77.6939 80.6153 77.4142 80.8866C77.1345 81.1578 76.7781 81.3425 76.3902 81.4173C76.0022 81.4922 75.6001 81.4538 75.2346 81.307C74.8692 81.1602 74.5568 80.9116 74.3371 80.5927C74.1173 80.2737 74 79.8988 74 79.5152C74 79.0008 74.2107 78.5076 74.5858 78.1438C74.9609 77.7801 75.4696 77.5758 76 77.5758Z" fill="white" fill-opacity="0.83"/>
<path d="M92 89.2122C90.8133 89.2122 89.6533 89.5534 88.6666 90.1927C87.6799 90.832 86.9109 91.7407 86.4567 92.8038C86.0026 93.867 85.8838 95.0368 86.1153 96.1654C86.3468 97.294 86.9182 98.3307 87.7574 99.1444C88.5965 99.9581 89.6656 100.512 90.8295 100.737C91.9933 100.961 93.1997 100.846 94.2961 100.406C95.3925 99.9653 96.3295 99.2195 96.9888 98.2627C97.6481 97.306 98 96.1811 98 95.0303C98 93.4873 97.3679 92.0074 96.2426 90.9163C95.1174 89.8251 93.5913 89.2122 92 89.2122ZM92 96.9697C91.6044 96.9697 91.2178 96.856 90.8889 96.6429C90.56 96.4298 90.3036 96.1269 90.1522 95.7725C90.0009 95.4181 89.9613 95.0282 90.0384 94.652C90.1156 94.2758 90.3061 93.9302 90.5858 93.659C90.8655 93.3878 91.2219 93.203 91.6098 93.1282C91.9978 93.0534 92.3999 93.0918 92.7654 93.2386C93.1308 93.3854 93.4432 93.6339 93.6629 93.9529C93.8827 94.2718 94 94.6468 94 95.0303C94 95.5447 93.7893 96.038 93.4142 96.4017C93.0391 96.7654 92.5304 96.9697 92 96.9697Z" fill="white" fill-opacity="0.83"/>
</g>
<rect x="0.5" y="0.5" width="119" height="119" stroke="white" stroke-opacity="0.83"/>
<defs>
<clipPath id="clip0_910_5615">
<rect width="120" height="120" fill="white"/>
</clipPath>
</defs>
</svg>
