<svg width="121" height="121" viewBox="0 0 121 121" fill="none" xmlns="http://www.w3.org/2000/svg">
<path d="M111.724 102.135C113.963 100.256 115.396 97.1261 115.396 93.9956V34.726C115.396 28.8825 110.695 23.8738 104.784 23.8738H76.2162C73.1496 11.9782 62.5376 3.00424 49.6863 3.00424C36.8349 3.00424 26.2229 11.7695 23.1563 23.8738H16.2162C10.5067 23.8738 5.60423 28.6738 5.60423 34.726V93.9956C5.60423 97.3348 7.03663 100.256 9.27604 102.135C4.37355 102.135 0.5 106.309 0.5 111.317C0.5 116.326 4.57531 120.5 9.4778 120.5H111.522C116.425 120.5 120.5 116.326 120.5 111.317C120.5 106.309 116.626 102.343 111.724 102.135ZM91.1053 104.848H102.524V107.561H91.1053V104.848ZM17.2249 89.1955H103.957V93.1608H17.2249V89.1955ZM37.6419 66.8652H40.083V86.4825H37.4401C37.6419 82.726 37.6419 70.6217 37.6419 66.8652ZM47.8504 73.5433H50.2915V86.6913H47.6284C47.8302 82.7261 47.8302 77.5086 47.8302 73.5433H47.8504ZM45.1873 86.4825H42.5444V76.0477H45.1873V86.4825ZM34.9788 86.4825H32.3157V78.5521H34.9788V86.4825ZM29.8947 86.4825H27.2518V72.0826H29.8947V86.4825ZM103.977 38.2739H84.7905C84.1853 38.2739 83.5599 38.8999 83.5599 39.526C83.5599 40.1521 84.1651 40.7782 84.7905 40.7782H103.977V43.4912H87.4536C86.8483 43.4912 86.2229 44.1173 86.2229 44.7434C86.2229 45.3695 86.8282 45.9956 87.4536 45.9956H103.977V48.7086H91.1254C90.5202 48.7086 89.8948 49.3347 89.8948 49.9608C89.8948 50.5868 90.5 51.213 91.1254 51.213H103.977V53.926H93.7683C93.1631 53.926 92.5377 54.5521 92.5377 55.1782C92.5377 55.8042 93.1429 56.4304 93.7683 56.4304H103.977V86.4825H52.9546V72.0826C52.9546 71.4565 52.3494 70.8303 51.7239 70.8303H46.6197C46.0145 70.8303 45.389 71.4565 45.389 72.0826V73.3347H42.7259V65.4043C42.7259 64.7782 42.1207 64.152 41.4953 64.152H36.391C35.7858 64.152 35.1604 64.7782 35.1604 65.4043V75.8391H32.5175V70.6217C32.5175 69.9956 31.9122 69.3694 31.2868 69.3694H26.1826C25.5773 69.3694 24.9519 69.9956 24.9519 70.6217V86.2739H17.2048V35.5608H22.7125C24.7502 49.3348 36.391 59.1434 49.8477 59.1434C54.3467 59.1434 59.0272 57.8912 62.9008 55.8042L80.2512 73.5433C83.3177 76.6738 88.2202 76.6738 91.2666 73.5433C94.3332 70.4129 94.3332 65.4043 91.2666 62.2739L77.3864 48.0826L73.9163 44.5347C75.3487 41.613 76.3574 38.6913 76.9829 35.5608H104.118V38.2739H103.916H103.977ZM77.8504 52.4651L70.305 60.1869L68.6708 58.5174L76.2162 50.7956L77.8504 52.4651ZM89.2693 63.9434C91.307 66.0304 91.307 69.3695 89.2693 71.6652C87.2317 73.7521 83.9633 73.7521 81.7239 71.6652L72.3426 61.8564L79.888 54.1347L89.2693 63.9434ZM49.6863 5.71726C61.7306 5.71726 71.5155 14.2738 73.9768 25.5433C75.4092 32.2216 74.1786 38.6912 71.112 44.1173C70.9102 44.5347 70.9102 45.3695 71.3137 45.7868L74.3803 48.9173L66.8349 56.639L63.7683 53.5086C63.3648 53.0912 62.7394 53.0913 62.1342 53.3C58.2606 55.5956 53.9633 56.8477 49.4845 56.8477C35.806 56.8477 24.5888 45.7868 24.5888 31.1782C24.9923 16.5695 36.2296 5.71726 49.6863 5.71726ZM8.24713 93.9956V34.726C8.24713 30.1347 11.919 26.5868 16.2162 26.5868H22.5511C22.1476 28.6738 22.1476 30.9695 22.3494 33.0565H15.8127C15.2075 33.0565 14.582 33.6825 14.582 34.3086V94.4129C14.582 95.039 15.1873 95.6652 15.8127 95.6652H105.207C105.813 95.6652 106.438 95.039 106.438 94.4129V34.3086C106.438 33.6825 105.833 33.0565 105.207 33.0565H77.0434C77.2451 30.9695 77.0434 28.6738 76.6399 26.5868H104.602C109.101 26.5868 112.571 30.3434 112.571 34.726V93.9956C112.571 98.5869 108.899 102.135 104.602 102.135H72.9681C72.3628 102.135 71.7374 102.761 71.7374 103.387V107.352H49.081V103.387C49.081 102.761 48.4758 102.135 47.8504 102.135H16.2162C11.7172 102.135 8.24713 98.5869 8.24713 93.9956ZM18.4556 104.848H29.8746V107.561H18.4556V104.848ZM111.522 117.787H9.4778C6.00773 117.787 3.1429 114.865 3.1429 111.317C3.1429 107.77 6.00773 104.848 9.4778 104.848H15.8127V108.813C15.8127 109.439 16.4179 110.065 17.0434 110.065H31.1254C31.7307 110.065 32.3561 109.439 32.3561 108.813V104.848H46.4381V108.813C46.4381 109.439 47.0434 110.065 47.6688 110.065H73.1698C73.7751 110.065 74.4005 109.439 74.4005 108.813V104.848H88.4825V108.813C88.4825 109.439 89.0878 110.065 89.7132 110.065H103.795C104.4 110.065 105.026 109.439 105.026 108.813V104.848H111.563C115.033 104.848 117.897 107.77 117.897 111.317C117.897 114.865 115.033 117.787 111.563 117.787H111.522Z" fill="white" fill-opacity="0.83"/>
<path d="M49.4837 52.8827C55.3949 52.8827 60.9027 50.3783 64.5947 46.2044C64.5947 46.2044 64.7964 46.2045 64.7964 45.9958C72.3418 37.6479 72.3418 24.7088 64.7964 16.361L64.5947 16.1522C60.7211 12.187 55.4151 9.47403 49.4837 9.47403C37.8428 9.47403 28.2598 19.074 28.2598 31.1783C28.4615 43.074 37.8428 52.8827 49.4837 52.8827ZM35.1999 19.074C36.4306 20.1175 37.6411 21.1609 38.8718 21.787C38.2665 24.2913 37.8428 27.0044 37.8428 29.7174H30.9027C31.3062 25.7522 32.7386 21.9957 35.1798 19.074H35.1999ZM68.0446 29.9262H61.1044C61.1044 27.0044 60.7009 24.2914 60.0755 21.9958C61.3062 21.161 62.7184 20.3261 63.7473 19.2826C66.1885 21.9957 67.8227 25.7523 68.0244 29.9262H68.0446ZM63.7675 43.2826C62.5368 42.2391 61.3263 41.1957 60.0957 40.5696C60.7009 38.0653 61.1246 35.3522 61.1246 32.6392H68.0647C67.863 36.6044 66.2288 40.3609 63.7877 43.2826H63.7675ZM50.9161 40.361C53.1555 40.5697 55.1932 40.9871 57.251 41.8219C55.8186 46.2045 53.5792 49.1261 50.9161 49.9609V40.361ZM50.9161 37.6479V32.4306H58.6633C58.6633 34.9349 58.2598 37.2305 57.8563 39.3175C55.6169 38.274 53.1555 37.8566 50.9161 37.6479ZM50.9161 29.9262V24.7088C53.3573 24.5001 55.6169 24.0827 57.8563 23.0392C58.2598 25.1262 58.6633 27.4218 58.6633 29.9262H50.9161ZM50.9161 21.9958V12.187C53.559 13.0218 55.8186 16.1522 57.251 20.3261C55.2134 21.3696 52.9739 21.9958 50.9161 21.9958ZM48.253 21.9958C46.0136 21.7871 43.976 21.3697 41.9181 20.5349C43.3506 16.1523 45.59 13.2305 48.253 12.3957V21.9958ZM48.253 24.7088V29.9262H40.5059C40.5059 27.4218 40.9094 25.1262 41.3129 23.0392C43.5523 24.0827 45.8119 24.5001 48.253 24.7088ZM48.253 32.4306V37.6479C45.8119 37.8566 43.5523 38.274 41.3129 39.3175C40.9094 37.2305 40.5059 34.9349 40.5059 32.4306H48.253ZM48.253 40.361V50.1697C45.6101 49.3349 43.3506 46.2044 41.9181 42.0305C43.9558 40.987 45.9935 40.361 48.253 40.361ZM42.7453 48.9174C40.7077 48.0826 38.67 46.8305 37.0358 45.1609C37.8428 44.3262 38.8717 43.7001 39.6989 43.074C40.5059 45.3696 41.5348 47.2479 42.7655 48.9174H42.7453ZM59.2685 43.074C60.2974 43.7001 61.1044 44.3262 61.9114 45.1609C60.479 46.8305 58.4413 48.0826 56.4037 48.9174C57.4326 47.2479 58.6431 45.3696 59.2685 43.074ZM59.2685 19.2826C58.4615 16.987 57.4326 15.1087 56.2019 13.4392C58.2396 14.274 60.2773 15.5261 61.9114 17.1957C61.3062 18.0304 60.2772 18.6565 59.2685 19.2826ZM39.6787 19.2826C38.6498 18.6565 37.8428 18.0304 37.0156 17.1957C38.6498 15.7348 40.6875 14.4826 42.7251 13.4392C41.4945 15.1087 40.4857 16.987 39.6586 19.2826H39.6787ZM37.8428 32.4306C37.8428 35.3523 38.2463 38.0653 38.8718 40.361C37.6411 41.1957 36.2288 42.0305 35.1999 43.074C32.7588 40.1522 31.3264 36.3957 30.9229 32.2218H37.863V32.4306H37.8428Z" fill="white" fill-opacity="0.83"/>
<path d="M98.8721 17.4044C103.149 17.4044 106.619 13.8566 106.619 9.47402C106.619 5.09142 103.149 1.54349 98.8721 1.54349C94.5951 1.54349 91.125 5.30011 91.125 9.47402C91.125 13.6479 94.5951 17.4044 98.8721 17.4044ZM98.8721 4.25663C101.737 4.25663 103.976 6.55229 103.976 9.47402C103.976 12.3958 101.737 14.6914 98.8721 14.6914C96.0073 14.6914 93.7679 12.3958 93.7679 9.47402C93.7679 6.76098 96.0073 4.25663 98.8721 4.25663Z" fill="white" fill-opacity="0.83"/>
<path d="M13.3513 18.6564C16.2161 18.6564 18.4555 16.3608 18.4555 13.439C18.4555 10.5173 16.2161 8.22165 13.3513 8.22165C10.4865 8.22165 8.24707 10.5173 8.24707 13.439C8.24707 16.3608 10.4865 18.6564 13.3513 18.6564ZM13.3513 10.9347C14.7837 10.9347 16.0144 12.1869 16.0144 13.6478C16.0144 15.1087 14.7837 16.3608 13.3513 16.3608C11.9189 16.3608 10.7084 15.1087 10.7084 13.6478C10.7084 11.9782 11.9391 10.9347 13.3513 10.9347Z" fill="white" fill-opacity="0.83"/>
<path d="M112.127 12.1872C113.136 12.1872 113.963 13.0219 113.963 14.0653C113.963 15.1088 113.136 15.9437 112.127 15.9437C111.118 15.9437 110.291 15.1088 110.291 14.0653C110.291 13.0219 111.118 12.1872 112.127 12.1872Z" fill="white" fill-opacity="0.83"/>
<path d="M82.7519 8.43054C83.7607 8.43054 84.5878 9.26525 84.5878 10.3087C84.5878 11.3522 83.7607 12.187 82.7519 12.187C81.7432 12.187 80.916 11.3522 80.916 10.3087C80.916 9.26525 81.7432 8.43054 82.7519 8.43054Z" fill="white" fill-opacity="0.83"/>
<path d="M24.165 0.5C25.1738 0.5 26.0009 1.33483 26.0009 2.37831C26.0009 3.42179 25.1738 4.25662 24.165 4.25662C23.1563 4.25662 22.3291 3.42179 22.3291 2.37831C22.3291 1.33483 23.1563 0.5 24.165 0.5Z" fill="white" fill-opacity="0.83"/>
<path d="M4.9785 18.8653C5.98724 18.8653 6.81439 19.7 6.81439 20.7435C6.81439 21.787 5.98724 22.6218 4.9785 22.6218C3.96975 22.6218 3.14258 21.787 3.14258 20.7435C3.14258 19.7 3.96975 18.8653 4.9785 18.8653Z" fill="white" fill-opacity="0.83"/>
</svg>
