<svg width="60" height="59" viewBox="0 0 60 59" fill="none" xmlns="http://www.w3.org/2000/svg">
<path d="M54.9041 49.5343C56.0095 48.6071 56.7166 47.0618 56.7166 45.5165V16.259C56.7166 13.3744 54.3962 10.9019 51.4782 10.9019H37.3762C35.8624 5.02982 30.624 0.599976 24.2801 0.599976C17.9362 0.599976 12.6977 4.9268 11.184 10.9019H7.75807C4.93967 10.9019 2.51963 13.2714 2.51963 16.259V45.5165C2.51963 47.1649 3.22671 48.6071 4.33216 49.5343C1.91212 49.5343 0 51.5947 0 54.0672C0 56.5396 2.01172 58.6 4.43176 58.6H54.8045C57.2245 58.6 59.2362 56.5396 59.2362 54.0672C59.2362 51.5947 57.3241 49.6373 54.9041 49.5343ZM44.726 50.8735H50.3628V52.2128H44.726V50.8735ZM8.25602 43.147H51.0699V45.1044H8.25602V43.147ZM18.3346 32.124H19.5396V41.8078H18.235C18.3346 39.9534 18.3346 33.9784 18.3346 32.124ZM23.3738 35.4206H24.5789V41.9109H23.2643C23.3639 39.9535 23.3639 37.3779 23.3639 35.4206H23.3738ZM22.0592 41.8078H20.7546V36.6568H22.0592V41.8078ZM17.02 41.8078H15.7054V37.8931H17.02V41.8078ZM14.5103 41.8078H13.2057V34.6995H14.5103V41.8078ZM51.0798 18.0103H41.6088C41.31 18.0103 41.0013 18.3193 41.0013 18.6284C41.0013 18.9375 41.3001 19.2466 41.6088 19.2466H51.0798V20.5858H42.9234C42.6246 20.5858 42.3159 20.8948 42.3159 21.2039C42.3159 21.5129 42.6146 21.822 42.9234 21.822H51.0798V23.1613H44.7359C44.4371 23.1613 44.1284 23.4703 44.1284 23.7794C44.1284 24.0884 44.4272 24.3975 44.7359 24.3975H51.0798V25.7368H46.0405C45.7418 25.7368 45.433 26.0458 45.433 26.3549C45.433 26.6639 45.7318 26.973 46.0405 26.973H51.0798V41.8078H25.8935V34.6995C25.8935 34.3904 25.5947 34.0813 25.286 34.0813H22.7663C22.4676 34.0813 22.1588 34.3904 22.1588 34.6995V35.3176H20.8442V31.4028C20.8442 31.0938 20.5455 30.7847 20.2367 30.7847H17.7171C17.4183 30.7847 17.1096 31.0938 17.1096 31.4028V36.5538H15.805V33.9783C15.805 33.6693 15.5062 33.3602 15.1975 33.3602H12.6778C12.3791 33.3602 12.0703 33.6693 12.0703 33.9783V41.7048H8.24607V16.6711H10.9649C11.9707 23.4704 17.7171 28.3123 24.3598 28.3123C26.5806 28.3123 28.8911 27.6941 30.8032 26.6639L39.368 35.4206C40.8818 36.9659 43.3018 36.9659 44.8056 35.4206C46.3194 33.8753 46.3194 31.4028 44.8056 29.8576L37.9538 22.8522L36.2409 21.1009C36.948 19.6586 37.4459 18.2164 37.7547 16.6711H51.1495V18.0103H51.0499H51.0798ZM38.1829 25.0156L34.4582 28.8274L33.6515 28.0032L37.3762 24.1915L38.1829 25.0156ZM43.8197 30.6817C44.8256 31.7119 44.8256 33.3602 43.8197 34.4934C42.8138 35.5236 41.2005 35.5236 40.095 34.4934L35.4641 29.6515L39.1887 25.8398L43.8197 30.6817ZM24.2801 1.93922C30.2256 1.93922 35.0557 6.16302 36.2707 11.7261C36.9778 15.0227 36.3703 18.2163 34.8566 20.8948C34.757 21.1009 34.757 21.5129 34.9562 21.719L36.4699 23.2643L32.7452 27.076L31.2315 25.5307C31.0323 25.3247 30.7236 25.3247 30.4248 25.4277C28.5127 26.5609 26.3914 27.179 24.1805 27.179C17.4283 27.179 11.8911 21.719 11.8911 14.5076C12.0903 7.29625 17.6374 1.93922 24.2801 1.93922ZM3.82426 45.5165V16.259C3.82426 13.9925 5.6368 12.2412 7.75807 12.2412H10.8852C10.686 13.2714 10.686 14.4046 10.7856 15.4348H7.55889C7.26012 15.4348 6.95139 15.7439 6.95139 16.0529V45.7225C6.95139 46.0316 7.25016 46.3407 7.55889 46.3407H51.6873C51.9861 46.3407 52.2948 46.0316 52.2948 45.7225V16.0529C52.2948 15.7439 51.996 15.4348 51.6873 15.4348H37.7845C37.8841 14.4046 37.7845 13.2714 37.5853 12.2412H51.3885C53.6094 12.2412 55.3224 14.0956 55.3224 16.259V45.5165C55.3224 47.783 53.5098 49.5343 51.3885 49.5343H35.7728C35.474 49.5343 35.1653 49.8434 35.1653 50.1524V52.1098H23.9813V50.1524C23.9813 49.8434 23.6826 49.5343 23.3738 49.5343H7.75807C5.53721 49.5343 3.82426 47.783 3.82426 45.5165ZM8.86352 50.8735H14.5003V52.2128H8.86352V50.8735ZM54.8045 57.2607H4.43176C2.71881 57.2607 1.30463 55.8185 1.30463 54.0672C1.30463 52.3158 2.71881 50.8735 4.43176 50.8735H7.55889V52.8309C7.55889 53.14 7.85766 53.449 8.16639 53.449H15.1178C15.4166 53.449 15.7253 53.14 15.7253 52.8309V50.8735H22.6767V52.8309C22.6767 53.14 22.9754 53.449 23.2842 53.449H35.8724C36.1712 53.449 36.4799 53.14 36.4799 52.8309V50.8735H43.4313V52.8309C43.4313 53.14 43.7301 53.449 44.0388 53.449H50.9902C51.289 53.449 51.5977 53.14 51.5977 52.8309V50.8735H54.8244C56.5374 50.8735 57.9515 52.3158 57.9515 54.0672C57.9515 55.8185 56.5374 57.2607 54.8244 57.2607H54.8045Z" fill="black" fill-opacity="0.83"/>
<path d="M24.18 25.2217C27.098 25.2217 29.8168 23.9855 31.6393 21.9251C31.6393 21.9251 31.7389 21.9251 31.7389 21.8221C35.4636 17.7013 35.4636 11.3141 31.7389 7.19332L31.6393 7.09026C29.7272 5.13289 27.108 3.79369 24.18 3.79369C18.4337 3.79369 13.7031 8.53255 13.7031 14.5077C13.8027 20.3798 18.4337 25.2217 24.18 25.2217ZM17.129 8.53256C17.7365 9.04766 18.3341 9.56274 18.9416 9.8718C18.6428 11.108 18.4337 12.4473 18.4337 13.7865H15.0078C15.2069 11.8292 15.914 9.97483 17.1191 8.53256H17.129ZM33.3423 13.8896H29.9164C29.9164 12.4473 29.7172 11.1081 29.4085 9.97486C30.016 9.56278 30.7131 9.15065 31.221 8.63555C32.4261 9.97481 33.2328 11.8292 33.3324 13.8896H33.3423ZM31.231 20.4828C30.6235 19.9677 30.026 19.4526 29.4185 19.1436C29.7172 17.9073 29.9264 16.5681 29.9264 15.2288H33.3523C33.2527 17.1862 32.446 19.0405 31.241 20.4828H31.231ZM24.8871 19.0406C25.9926 19.1436 26.9984 19.3496 28.0142 19.7617C27.3071 21.9251 26.2017 23.3674 24.8871 23.7794V19.0406ZM24.8871 17.7013V15.1258H28.7114C28.7114 16.3621 28.5122 17.4953 28.313 18.5255C27.2076 18.0104 25.9926 17.8043 24.8871 17.7013ZM24.8871 13.8896V11.3141C26.0921 11.2111 27.2076 11.0051 28.313 10.49C28.5122 11.5202 28.7114 12.6534 28.7114 13.8896H24.8871ZM24.8871 9.97486V5.13293C26.1917 5.54501 27.3071 7.09026 28.0142 9.15065C27.0084 9.66575 25.9029 9.97486 24.8871 9.97486ZM23.5725 9.97486C22.4671 9.87184 21.4612 9.66579 20.4454 9.25371C21.1525 7.0903 22.2579 5.648 23.5725 5.23592V9.97486ZM23.5725 11.3141V13.8896H19.7483C19.7483 12.6534 19.9474 11.5202 20.1466 10.49C21.2521 11.0051 22.3675 11.2111 23.5725 11.3141ZM23.5725 15.1258V17.7013C22.3675 17.8043 21.2521 18.0104 20.1466 18.5255C19.9474 17.4953 19.7483 16.3621 19.7483 15.1258H23.5725ZM23.5725 19.0406V23.8825C22.2679 23.4704 21.1525 21.9251 20.4454 19.8647C21.4512 19.3496 22.4571 19.0406 23.5725 19.0406ZM20.8537 23.2643C19.8478 22.8523 18.842 22.2342 18.0353 21.41C18.4337 20.9979 18.9416 20.6889 19.3499 20.3798C19.7482 21.513 20.2562 22.4402 20.8637 23.2643H20.8537ZM29.0101 20.3798C29.518 20.6889 29.9164 20.9979 30.3148 21.41C29.6077 22.2342 28.6018 22.8523 27.596 23.2643C28.1039 22.4402 28.7014 21.513 29.0101 20.3798ZM29.0101 8.63555C28.6118 7.50234 28.1039 6.57518 27.4964 5.75102C28.5022 6.1631 29.5081 6.7812 30.3148 7.60536C30.016 8.01744 29.5081 8.3265 29.0101 8.63555ZM19.3399 8.63555C18.832 8.3265 18.4337 8.01744 18.0253 7.60536C18.832 6.88422 19.8379 6.26612 20.8437 5.75102C20.2362 6.57518 19.7383 7.50234 19.33 8.63555H19.3399ZM18.4337 15.1258C18.4337 16.5681 18.6328 17.9074 18.9416 19.0406C18.3341 19.4526 17.6369 19.8647 17.129 20.3798C15.924 18.9375 15.2169 17.0832 15.0177 15.0228H18.4436V15.1258H18.4337Z" fill="black" fill-opacity="0.83"/>
</svg>
