<svg width="121" height="120" viewBox="0 0 121 120" fill="none" xmlns="http://www.w3.org/2000/svg">
<path d="M60.602 97.3665C62.1458 97.3665 63.3723 98.6049 63.3723 100.142C63.3723 101.68 62.1246 102.918 60.602 102.918C59.0794 102.918 57.8105 101.68 57.8105 100.142C57.8105 98.6049 59.0583 97.3665 60.602 97.3665Z" fill="white" fill-opacity="0.83"/>
<path d="M110.023 112.1H96.5517C95.9173 112.1 95.2617 112.74 95.2617 113.381C95.2617 114.021 95.8961 114.662 96.5517 114.662H110.023C110.657 114.662 111.313 114.021 111.313 113.381C111.524 112.74 110.89 112.1 110.023 112.1Z" fill="white" fill-opacity="0.83"/>
<path d="M24.4387 112.1H10.9677C10.3333 112.1 9.67773 112.74 9.67773 113.381C9.67773 114.021 10.3122 114.662 10.9677 114.662H24.4387C25.0732 114.662 25.7287 114.021 25.7287 113.381C25.9402 112.74 25.3058 112.1 24.4387 112.1Z" fill="white" fill-opacity="0.83"/>
<path d="M112.582 21.3523H8.62065C4.13737 21.3523 0.5 24.9822 0.5 29.4661V101.21C0.5 105.694 4.13737 109.324 8.62065 109.324H36.4297C35.5838 110.391 35.1397 111.886 35.1397 113.381C35.1397 117.011 38.1426 120 41.78 120H79.2112C82.8486 120 85.8515 117.011 85.8515 113.381C85.8515 111.886 85.4286 110.391 84.5615 109.324H112.371C116.854 109.324 120.491 105.694 120.491 101.21V29.4661C120.703 24.9822 117.065 21.3523 112.582 21.3523ZM83.2715 113.381C83.2715 115.516 81.5586 117.438 79.2112 117.438H41.9915C39.8556 117.438 37.9312 115.729 37.9312 113.381C37.9312 111.245 39.6441 109.324 41.9915 109.324H79.4227C81.5586 109.324 83.2715 111.245 83.2715 113.381ZM118.144 101.21C118.144 104.199 115.585 106.762 112.582 106.762H8.62065C5.6177 106.762 3.05885 104.199 3.05885 101.21V29.4661C3.05885 26.4768 5.6177 23.9146 8.62065 23.9146H112.582C115.585 23.9146 118.144 26.4768 118.144 29.4661V101.21Z" fill="white" fill-opacity="0.83"/>
<path d="M24.4392 16.0141C28.0766 16.0141 31.0795 13.0247 31.0795 9.3948C31.0795 5.76491 28.0766 2.77563 24.4392 2.77563C20.8018 2.77563 17.7988 5.55138 17.7988 9.3948C17.7988 13.2382 20.8018 16.0141 24.4392 16.0141ZM24.4392 5.33794C26.5751 5.33794 28.4995 7.04604 28.4995 9.3948C28.4995 11.53 26.7866 13.4518 24.4392 13.4518C22.0918 13.4518 20.3788 11.7436 20.3788 9.3948C20.5903 7.04604 22.3033 5.33794 24.4392 5.33794Z" fill="white" fill-opacity="0.83"/>
<path d="M95.4734 17.2953C98.4763 17.2953 100.824 14.9466 100.824 11.9572C100.824 8.96793 98.4763 6.61917 95.4734 6.61917C92.4704 6.61917 90.123 8.96793 90.123 11.9572C90.123 14.9466 92.4704 17.2953 95.4734 17.2953ZM95.4734 9.39495C96.9749 9.39495 98.2437 10.6762 98.2437 12.1708C98.2437 13.6655 96.9537 14.9466 95.4734 14.9466C93.993 14.9466 92.7031 13.4519 92.7031 11.9572C92.7031 10.4626 93.993 9.39495 95.4734 9.39495Z" fill="white" fill-opacity="0.83"/>
<path d="M110.659 9.39508C111.716 9.39508 112.583 10.2492 112.583 11.3168C112.583 12.3845 111.716 13.2386 110.659 13.2386C109.601 13.2386 108.734 12.3845 108.734 11.3168C108.734 10.2492 109.601 9.39508 110.659 9.39508Z" fill="white" fill-opacity="0.83"/>
<path d="M78.5768 0C79.6342 0 80.5012 0.854014 80.5012 1.92163C80.5012 2.98924 79.6342 3.84339 78.5768 3.84339C77.5194 3.84339 76.6523 2.98924 76.6523 1.92163C76.6523 0.854014 77.5194 0 78.5768 0Z" fill="white" fill-opacity="0.83"/>
<path d="M39.8561 2.77563C40.9134 2.77563 41.7805 3.62978 41.7805 4.69739C41.7805 5.76501 40.9134 6.61902 39.8561 6.61902C38.7987 6.61902 37.9316 5.76501 37.9316 4.69739C37.9316 3.62978 38.7987 2.77563 39.8561 2.77563Z" fill="white" fill-opacity="0.83"/>
<path d="M7.75254 13.4518C8.80992 13.4518 9.67698 14.306 9.67698 15.3736C9.67698 16.4412 8.80992 17.2952 7.75254 17.2952C6.69517 17.2952 5.82812 16.4412 5.82812 15.3736C5.82812 14.306 6.69517 13.4518 7.75254 13.4518Z" fill="white" fill-opacity="0.83"/>
<path d="M61.2369 9.39508C62.2943 9.39508 63.1614 10.2492 63.1614 11.3168C63.1614 12.3845 62.2943 13.2386 61.2369 13.2386C60.1795 13.2386 59.3125 12.3845 59.3125 11.3168C59.3125 10.2492 60.1795 9.39508 61.2369 9.39508Z" fill="white" fill-opacity="0.83"/>
<path d="M111.525 29.2528H80.2898C79.6554 29.2528 78.9998 29.8933 78.9998 30.5339C78.9998 31.1745 79.6343 31.815 80.2898 31.815H110.235V34.5909H95.4738C94.8393 34.5909 94.1838 35.2314 94.1838 35.872C94.1838 36.5125 94.8182 37.1531 95.4738 37.1531H110.235V39.929H96.7638C96.1293 39.929 95.4738 40.5695 95.4738 41.21C95.4738 41.8506 96.1082 42.4911 96.7638 42.4911H110.235V45.267H98.2653C97.6308 45.267 96.9753 45.9076 96.9753 46.5481C96.9753 47.1887 97.6097 47.8292 98.2653 47.8292H110.235V90.5338H11.1796V47.8292H23.1491C23.7836 47.8292 24.4391 47.1887 24.4391 46.5481C24.4391 45.9076 23.8047 45.267 23.1491 45.267H11.1796V42.4911H24.6506C25.285 42.4911 25.9406 41.8506 25.9406 41.21C25.9406 40.5695 25.3062 39.929 24.6506 39.929H11.1796V37.1531H25.9406C26.575 37.1531 27.2306 36.5125 27.2306 35.872C27.2306 35.2314 26.5962 34.5909 25.9406 34.5909H11.1796V31.815H40.9131C41.5475 31.815 42.2031 31.1745 42.2031 30.5339C42.2031 29.8933 41.5686 29.2528 40.9131 29.2528H9.88961C9.25518 29.2528 8.59961 29.8933 8.59961 30.5339V92.0285C8.59961 92.6691 9.23404 93.3097 9.88961 93.3097H111.504C112.138 93.3097 112.794 92.6691 112.794 92.0285V30.7474C112.794 29.8933 112.159 29.2528 111.504 29.2528H111.525Z" fill="white" fill-opacity="0.83"/>
<path d="M80.9244 84.5552C80.5014 84.5552 80.0785 84.5552 79.8458 84.3417C78.9999 84.1282 78.3443 83.9146 77.9214 83.4876C77.7099 83.274 77.4985 83.2741 77.4985 83.2741L76.4199 85.4093C78.5558 86.904 83.0603 87.331 84.3291 84.9823C84.7521 84.1282 84.7521 83.0606 84.3291 82.2065C83.2506 79.8577 79.1903 80.4983 79.1903 79.0036C79.1903 78.3631 79.6132 78.1495 80.4803 78.1495C81.7703 78.1495 83.0391 79.0036 83.2506 79.2171L84.3291 77.2955C84.1176 77.082 83.9062 77.0819 83.4832 76.8684C80.2688 75.3737 76.8429 76.4414 76.8429 79.4307C76.8429 82.8471 81.9817 81.993 81.9817 83.7012C81.9817 84.3417 81.5588 84.5552 80.9032 84.5552H80.9244Z" fill="white" fill-opacity="0.83"/>
<path d="M94.1844 78.3629V76.4411H87.1211V86.6902H94.1844V84.555H89.4896V82.4197H93.3385V80.4981H89.4896V78.3629H94.1844Z" fill="white" fill-opacity="0.83"/>
<path d="M98.8995 86.2633C100.189 86.9039 101.67 86.9039 102.96 86.2633C104.884 85.4092 105.963 83.4876 105.963 81.5659C105.963 79.6442 104.884 77.7225 102.96 76.8684C101.67 76.2278 100.189 76.2278 98.8995 76.8684C96.3406 77.936 95.2621 80.9253 96.1291 83.4875C96.7636 84.5551 97.6306 85.6227 98.8995 86.2633ZM98.4554 80.2847C98.6669 79.6441 99.0898 79.0036 99.7454 78.5765C100.168 78.363 100.38 78.3631 100.824 78.3631C104.461 78.3631 104.461 84.5551 100.824 84.5551C99.978 84.5551 99.3224 84.1282 98.8995 83.7011C98.2651 82.847 98.2651 81.1388 98.4765 80.2847H98.4554Z" fill="white" fill-opacity="0.83"/>
<path d="M40.2783 50.6051C40.0669 49.9646 39.6439 49.5375 38.9883 49.5375H35.5624C34.928 49.5375 34.4839 49.9646 34.2724 50.6051L33.1939 54.8756C32.1154 55.0891 31.058 55.5161 30.1909 56.1567L26.3421 53.808C25.9191 53.3809 25.0521 53.5944 24.6291 54.0214L22.2818 56.3701C21.8588 56.7972 21.8588 57.4379 22.0703 58.0784L24.4177 61.9218C23.9947 62.7759 23.5718 63.8434 23.1277 64.9111L18.8559 65.9787C18.2214 66.1922 17.7773 66.6193 17.7773 67.2599V70.6762C17.7773 71.3168 18.2003 71.7439 18.8559 71.9574L23.1277 73.025C23.3391 74.0927 23.7621 75.1602 24.4177 76.0143L22.0703 79.8577C22.0703 80.0712 22.0703 80.7118 22.4932 81.1389L24.8406 83.4876C25.2636 83.9146 25.9192 83.9147 26.5536 83.7012L30.4024 81.3524C31.2483 81.7794 32.3269 82.2065 33.4054 82.6336L34.4839 86.904C34.6954 87.5446 35.1183 87.9717 35.7739 87.9717H39.1998C39.8342 87.9717 40.2783 87.5446 40.4898 86.904L41.5683 82.6336C42.6469 82.4201 43.7042 81.9929 44.5713 81.3524L48.4201 83.7012C48.8431 84.1282 49.7101 83.9146 50.1331 83.4876L52.4805 81.1389C52.9034 80.7118 52.9034 80.0713 52.6919 79.4307L49.9216 75.8008C50.3446 74.9467 50.7675 73.8791 51.2116 72.8114L55.4834 71.7438C56.1179 71.5303 56.562 71.1033 56.562 70.4627V67.0463C56.562 66.4057 56.139 65.9787 55.4834 65.7652L51.2116 64.6976C51.0001 63.63 50.5772 62.5623 49.9216 61.7082L52.269 57.8648C52.692 57.4378 52.4805 56.5837 52.0575 56.1567L49.7101 53.808C49.2872 53.3809 48.6316 53.3808 47.9972 53.5944L44.1483 55.9432C43.3024 55.5162 42.2239 55.089 41.1454 54.662L40.2995 50.6051H40.2783ZM44.9731 58.9324L48.6105 56.7972L49.4564 57.6514L47.3205 61.2813C47.109 61.7083 47.109 62.3488 47.3205 62.7758C47.9549 63.8434 48.6105 65.1246 48.822 66.4058C49.0334 66.8328 49.2449 67.2598 49.9005 67.4734L53.9608 68.3275V69.6086L49.9005 70.4627C49.4775 70.6763 49.0546 70.8898 48.822 71.5304C48.6105 72.8115 47.9761 74.0927 47.3205 75.1603C47.109 75.5873 47.109 76.2278 47.3205 76.6548L49.4564 80.2848L48.6105 81.1389L44.9731 79.0037C44.5501 78.7901 43.8946 78.7901 43.4716 79.0037C42.3931 79.6442 41.1242 80.2848 39.8342 80.4984C39.4113 80.7119 38.9883 80.9254 38.7557 81.566L37.9098 85.6228H36.6198L35.7739 81.566C35.5624 81.1389 35.351 80.7119 34.6954 80.4984C33.4054 80.2848 32.1365 79.6442 31.058 79.0037C30.6351 78.7901 29.9795 78.7901 29.5565 79.0037L25.9191 81.1389L25.0732 80.2848L27.2092 76.6548C27.4206 76.2278 27.4206 75.5873 27.2092 75.1603C26.5747 74.0927 25.9192 72.8115 25.7077 71.5304C25.4962 71.1033 25.2847 70.6763 24.6291 70.4627L20.5688 69.6086V68.3275L24.6291 67.4734C25.0521 67.2598 25.4751 67.0463 25.7077 66.4058C25.9192 65.1246 26.5536 63.8434 27.2092 62.7758C27.4206 62.3488 27.4206 61.7083 27.2092 61.2813L25.0732 57.6514L25.9191 56.7972L29.5565 58.9324C29.9795 59.146 30.6351 59.146 31.058 58.9324C32.1365 58.2919 33.4054 57.6513 34.6954 57.4378C35.1183 57.2242 35.5413 57.0107 35.7739 56.3701L36.6198 52.3133H37.9098L38.7557 56.3701C38.9672 56.7972 39.1787 57.2242 39.8342 57.4378C41.1242 57.6513 42.3931 58.2919 43.4716 58.9324C44.1061 59.146 44.5501 59.146 44.9731 58.9324Z" fill="white" fill-opacity="0.83"/>
<path d="M29.7891 68.7546C29.7891 72.8115 33.215 76.2279 37.2753 76.2279C41.3356 76.2279 44.7615 72.8115 44.7615 68.7546C44.7615 64.6976 41.3356 61.2813 37.2753 61.2813C33.215 61.4948 29.7891 64.6976 29.7891 68.7546ZM42.2027 68.7546C42.2027 71.3169 40.0668 73.452 37.4868 73.452C34.9068 73.452 32.7709 71.3169 32.7709 68.7546C32.7709 66.1923 34.9068 64.0571 37.4868 64.0571C40.0668 64.0571 42.2027 66.1923 42.2027 68.7546Z" fill="white" fill-opacity="0.83"/>
<path d="M52.2484 52.3132L56.0973 53.1672C56.3088 54.0213 56.7317 54.8754 57.1758 55.7295L55.0399 58.9323C54.617 59.3594 54.8284 60.2134 55.2514 60.6405L57.3873 62.7757C57.8102 63.2028 58.4658 63.2028 59.1003 62.9893L62.3147 60.8541C63.1606 61.2811 64.0276 61.7082 64.8735 61.9217L65.7194 65.7651C65.9309 66.4057 66.3539 66.8327 67.0094 66.8327H70.0124C70.6468 66.8327 71.0909 66.4057 71.3024 65.7651L72.1483 61.9217C72.9942 61.7082 73.8612 61.2811 74.7071 60.8541L77.9216 62.9893C78.3445 63.4164 79.2116 63.2028 79.6345 62.7757L81.7704 60.6405C82.1934 60.2134 82.1934 59.5729 81.9819 58.9323L79.846 55.7295C80.269 54.8754 80.6919 54.0213 80.9245 53.1672L84.7734 52.3132C85.4078 52.0996 85.8519 51.6725 85.8519 51.0319V48.0427C85.8519 47.4021 85.429 46.975 84.7734 46.7615L80.9245 45.9075C80.7131 45.0534 80.2901 44.1993 79.846 43.3452L81.9819 40.1423C82.4049 39.7153 82.1934 38.8612 81.7704 38.4342L79.6345 36.2989C79.2116 35.8719 78.556 35.8718 77.9216 36.0853L74.7071 38.2206C73.8612 37.7935 72.9942 37.3665 72.1483 37.1529L71.3024 33.3096C71.0909 32.669 70.668 32.2419 70.0124 32.2419H67.0094C66.375 32.2419 65.9309 32.669 65.7194 33.3096L64.8735 37.1529C64.0276 37.3665 63.1606 37.7935 62.3147 38.2206L59.1003 36.0853C58.6773 35.6583 57.8102 35.8719 57.3873 36.2989L55.2514 38.4342C54.8284 38.8612 54.8284 39.5018 55.0399 40.1423L57.1758 43.3452C56.7529 44.1993 56.3299 45.0534 56.0973 45.9075L52.2484 46.7615C51.614 46.975 51.1699 47.4021 51.1699 48.0427V51.0319C51.1699 51.6725 51.5929 52.0996 52.2484 52.3132ZM53.9614 49.1103L57.3873 48.2562C57.8102 48.0427 58.2332 47.8291 58.4658 47.1886C58.6773 46.1209 59.1002 44.8398 59.7558 43.9857C59.9673 43.5587 59.9673 42.9181 59.7558 42.491L57.8314 39.5018L58.4658 38.8612L61.4688 40.7829C61.8917 40.9964 62.5473 40.9964 62.9702 40.7829C64.0488 40.1423 65.1062 39.7153 66.1847 39.5018C66.6076 39.2883 67.0306 39.0747 67.2632 38.4342L68.1091 35.0177H68.955L69.8009 38.4342C70.0124 38.8612 70.2239 39.2883 70.8794 39.5018C71.958 39.7153 73.2268 40.1423 74.0939 40.7829C74.5168 40.9964 75.1724 40.9964 75.5953 40.7829L78.5983 38.8612L79.2327 39.5018L77.3083 42.491C77.0968 42.9181 77.0968 43.5587 77.3083 43.9857C77.9427 45.0533 78.3868 46.1209 78.5983 47.1886C78.8098 47.6156 79.0212 48.0427 79.6768 48.2562L83.1027 49.1103V49.9643L79.6768 50.8185C79.2539 51.032 78.8309 51.2455 78.5983 51.8861C78.3868 52.9537 77.9639 54.2348 77.3083 55.0889C77.0968 55.516 77.0968 56.1566 77.3083 56.5836L79.2327 59.5729L78.5983 60.2135L75.5953 58.2918C75.1724 58.0783 74.5168 58.0783 74.0939 58.2918C73.0153 58.9324 71.958 59.3594 70.8794 59.5729C70.4565 59.7864 70.0335 59.9999 69.8009 60.6405L68.955 64.0569H68.1091L67.2632 60.6405C67.0517 60.2134 66.8403 59.7864 66.1847 59.5729C65.1062 59.3594 63.8373 58.9324 62.9702 58.2918C62.5473 58.0783 61.8917 58.0783 61.4688 58.2918L58.4658 59.9999L57.8314 59.3594L59.7558 56.37C59.9673 55.943 59.9673 55.3025 59.7558 54.8755C59.1214 53.8079 58.6773 52.7402 58.4658 51.6726C58.2543 51.2456 58.0429 50.8185 57.3873 50.605L53.9614 49.7509V49.1103Z" fill="white" fill-opacity="0.83"/>
<path d="M68.51 56.1567C72.1474 56.1567 75.3618 53.1673 75.3618 49.3239C75.3618 45.694 72.3589 42.4911 68.51 42.4911C64.8726 42.4911 61.6582 45.4805 61.6582 49.3239C61.6582 53.1673 64.6612 56.1567 68.51 56.1567ZM68.51 45.4805C70.8574 45.4805 72.5703 47.4023 72.5703 49.5375C72.5703 51.8863 70.6459 53.5944 68.51 53.5944C66.1626 53.5944 64.4497 51.6727 64.4497 49.5375C64.4497 47.1888 66.1626 45.4805 68.51 45.4805Z" fill="white" fill-opacity="0.83"/>
</svg>
