<svg width="121" height="121" viewBox="0 0 121 121" fill="none" xmlns="http://www.w3.org/2000/svg">
<path d="M115.691 61.8092C115.691 58.1001 112.844 55.2637 109.135 55.2637C106.072 55.2637 103.462 57.4456 102.815 60.5002H98.4589C98.0275 50.682 94.1023 41.7365 87.9772 34.9729L91.0398 31.9184C93.6494 33.6638 96.9276 33.2274 99.3216 31.0456C101.931 28.4274 101.931 24.2819 99.3216 21.8819C96.7119 19.2638 92.5495 19.2638 90.1555 21.8819C87.9772 24.0638 87.7616 27.5546 89.2928 30.1728L86.2303 33.2274C79.4582 26.9002 70.5293 22.9729 60.7163 22.7547V18.3911C63.7788 17.7365 65.9571 15.1183 65.9571 12.0638C65.9571 8.35467 63.1102 5.51831 59.4007 5.51831C55.6911 5.51831 52.8658 8.35467 52.8658 12.0638C52.8658 15.1183 55.0441 17.7365 58.1066 18.3911V22.7547C48.2935 23.1911 39.3432 27.1183 32.5711 33.2274L29.2928 29.9547C31.0397 27.3365 30.6084 24.0638 28.4301 21.6638C25.8205 19.0456 21.658 19.0456 19.264 21.6638C16.6544 24.282 16.6544 28.4275 19.264 30.8275C21.4423 33.0093 24.9362 33.2274 27.5459 31.7001L30.6084 34.7547C24.2892 41.5184 20.364 50.4638 20.1267 60.282H15.7702C15.1231 57.2275 12.492 55.0456 9.45099 55.0456C5.74142 55.0456 2.89453 57.882 2.89453 61.5911C2.89453 65.3002 5.74142 68.1365 9.45099 68.1365C12.5135 68.1365 15.1231 65.9547 15.7702 62.9001H20.1267C20.5581 72.7183 24.4833 81.6638 30.6084 88.4274L27.5459 91.482C24.9362 89.9547 21.658 90.1728 19.264 92.3547C16.6544 94.9728 16.6544 99.1183 19.264 101.518C21.8737 104.136 26.0362 104.136 28.4301 101.518C30.6084 99.3365 30.8241 95.8456 29.2928 93.2274L32.3554 90.1728C39.1275 96.5001 48.0563 100.427 57.8694 100.646V105.009C54.8068 105.664 52.6285 108.282 52.6285 111.336C52.6285 115.046 55.4754 117.882 59.185 117.882C62.8946 117.882 65.7199 115.046 65.7199 111.336C65.7199 108.282 63.5416 105.664 60.479 105.009V100.646C70.2921 100.209 79.2425 96.2819 86.0146 90.1728L89.0771 93.2274C88.4301 94.3183 87.9772 95.4092 87.9772 96.7183C87.9772 100.427 90.8241 103.264 94.5336 103.264C96.2806 103.264 98.0275 102.609 99.1059 101.3C101.716 98.682 101.716 94.5365 99.1059 92.1365C96.9276 89.9547 93.4337 89.7365 90.8241 91.2637L87.7616 88.2093C94.0808 81.4456 98.006 72.5002 98.2432 62.682H102.6C103.247 65.7365 105.878 67.9184 108.919 67.9184C112.844 68.3548 115.691 65.5183 115.691 61.8092ZM91.924 23.6274C93.4553 22.1001 95.8493 22.1001 97.3805 23.6274C98.9118 25.1546 98.9118 27.5546 97.3805 29.0819C95.8493 30.6092 93.4553 30.6092 91.924 29.0819C90.3928 27.5546 90.3928 25.1546 91.924 23.6274ZM55.2597 11.8456C55.2597 9.66382 57.0067 7.91839 59.185 7.91839C61.3633 7.91839 63.1102 9.66382 63.1102 11.8456C63.1102 14.0275 61.3633 15.7729 59.185 15.7729C57.0067 15.5547 55.2597 13.8093 55.2597 11.8456ZM21.011 29.0819C19.4797 27.5546 19.4797 25.1546 21.011 23.6274C22.5423 22.1001 24.9362 22.1001 26.4675 23.6274C27.9988 25.1546 27.9988 27.5546 26.4675 29.0819C24.9362 30.6092 22.5423 30.6092 21.011 29.0819ZM9.01961 65.7366C6.84133 65.7366 5.09436 63.991 5.09436 61.8092C5.09436 59.6274 6.84133 57.882 9.01961 57.882C11.1979 57.882 12.9449 59.6274 12.9449 61.8092C12.9449 63.991 11.1979 65.7366 9.01961 65.7366ZM23.6206 101.082C21.4423 101.082 19.6954 99.3365 19.6954 97.1547C19.6954 94.9729 21.4423 93.2274 23.6206 93.2274C25.7989 93.2274 27.5459 94.9729 27.5459 97.1547C27.5459 98.2456 25.7989 101.082 23.6206 101.082ZM62.8946 111.991C62.8946 114.173 61.1476 115.918 58.9693 115.918C56.791 115.918 55.0441 114.173 55.0441 111.991C55.0441 109.809 56.791 108.064 58.9693 108.064C61.1476 108.064 62.8946 109.809 62.8946 111.991ZM98.4589 97.3729C98.4589 99.5548 96.7119 101.3 94.5336 101.3C92.3554 101.3 90.6085 99.5548 90.6085 97.3729C90.6085 95.1911 92.3554 93.4456 94.5336 93.4456C96.7119 93.4456 98.4589 95.1911 98.4589 97.3729ZM59.185 98.4638C38.8902 98.4638 22.5207 82.1001 22.5207 61.8092C22.5207 41.5183 38.8902 25.1547 59.185 25.1547C79.4798 25.1547 95.8277 41.5183 95.8277 61.8092C95.8277 82.1001 79.2425 98.4638 59.185 98.4638ZM109.156 65.7366C106.978 65.7366 105.231 63.991 105.231 61.8092C105.231 59.6274 106.978 57.882 109.156 57.882C111.335 57.882 113.081 59.6274 113.081 61.8092C113.081 63.991 111.335 65.7366 109.156 65.7366Z" fill="white" fill-opacity="0.83"/>
<path d="M110.902 0.5C105.661 0.5 101.305 4.86369 101.305 10.1001C101.305 15.3364 105.661 19.7 110.902 19.7C116.143 19.7 120.5 15.3364 120.5 10.1001C120.5 4.86369 116.143 0.5 110.902 0.5ZM110.902 16.8636C107.193 16.8636 104.13 13.8091 104.13 10.1001C104.13 6.39096 107.193 3.33634 110.902 3.33634C114.612 3.33634 117.674 6.39096 117.674 10.1001C117.674 13.8091 114.612 16.8636 110.902 16.8636Z" fill="white" fill-opacity="0.83"/>
<path d="M7.27207 106.973C3.56251 106.973 0.5 110.028 0.5 113.737C0.5 117.446 3.56251 120.5 7.27207 120.5C10.9816 120.5 14.0442 117.446 14.0442 113.737C14.2599 110.028 10.9816 106.973 7.27207 106.973ZM7.27207 117.882C5.09378 117.882 3.13114 116.137 3.13114 113.737C3.13114 111.555 4.87811 109.591 7.27207 109.591C9.66604 109.591 11.413 111.337 11.413 113.737C11.413 115.918 9.66604 117.882 7.27207 117.882Z" fill="white" fill-opacity="0.83"/>
<path d="M107.623 40.209C108.701 40.209 109.585 41.0816 109.585 42.1725C109.585 43.2634 108.701 44.1362 107.623 44.1362C106.544 44.1362 105.66 43.2634 105.66 42.1725C105.66 41.0816 106.544 40.209 107.623 40.209Z" fill="white" fill-opacity="0.83"/>
<path d="M81.6579 8.79102C82.7363 8.79102 83.6206 9.6638 83.6206 10.7547C83.6206 11.8456 82.7363 12.7183 81.6579 12.7183C80.5796 12.7183 79.6953 11.8456 79.6953 10.7547C79.6953 9.6638 80.5796 8.79102 81.6579 8.79102Z" fill="white" fill-opacity="0.83"/>
<path d="M31.2751 4.64551C32.3535 4.64551 33.2378 5.51816 33.2378 6.60906C33.2378 7.69997 32.3535 8.57275 31.2751 8.57275C30.1968 8.57275 29.3125 7.69997 29.3125 6.60906C29.3125 5.51816 30.1968 4.64551 31.2751 4.64551Z" fill="white" fill-opacity="0.83"/>
<path d="M9.45091 27.7727C10.5293 27.7727 11.4135 28.6455 11.4135 29.7364C11.4135 30.8273 10.5293 31.7 9.45091 31.7C8.37255 31.7 7.48828 30.8273 7.48828 29.7364C7.48828 28.6455 8.37255 27.7727 9.45091 27.7727Z" fill="white" fill-opacity="0.83"/>
<path d="M3.99388 89.2998C5.07224 89.2998 5.9565 90.1725 5.9565 91.2634C5.9565 92.3543 5.07224 93.2271 3.99388 93.2271C2.91551 93.2271 2.03125 92.3543 2.03125 91.2634C2.03125 90.1725 2.91551 89.2998 3.99388 89.2998Z" fill="white" fill-opacity="0.83"/>
<path d="M29.7439 112.427C30.8222 112.427 31.7064 113.3 31.7064 114.391C31.7064 115.482 30.8222 116.355 29.7439 116.355C28.6655 116.355 27.7812 115.482 27.7812 114.391C27.7812 113.3 28.6655 112.427 29.7439 112.427Z" fill="white" fill-opacity="0.83"/>
<path d="M114.396 91.9182C115.475 91.9182 116.359 92.7909 116.359 93.8818C116.359 94.9727 115.475 95.8455 114.396 95.8455C113.318 95.8455 112.434 94.9727 112.434 93.8818C112.434 92.7909 113.318 91.9182 114.396 91.9182Z" fill="white" fill-opacity="0.83"/>
<path d="M92.57 112.427C93.6483 112.427 94.5326 113.3 94.5326 114.391C94.5326 115.482 93.6483 116.355 92.57 116.355C91.4916 116.355 90.6074 115.482 90.6074 114.391C90.6074 113.3 91.4916 112.427 92.57 112.427Z" fill="white" fill-opacity="0.83"/>
<path d="M77.733 36.5001L76.2017 33.2273C74.8861 30.391 71.1765 29.9546 69.2139 32.1364C65.9357 31.0455 62.6575 30.6091 59.1852 30.6091C41.953 30.6091 27.7617 44.791 27.7617 62.0274C27.7617 79.2637 41.0687 92.5727 57.6539 93.4455V93.6637C58.3009 95.191 59.8322 96.0637 61.5791 96.0637C63.5417 96.0637 65.2887 94.7546 65.72 92.791C75.9645 90.6091 84.6992 83.191 88.4087 73.3728C91.0184 72.7183 92.5497 69.8819 91.4713 67.4819L90.3714 64.8637C91.4713 53.5182 86.4461 42.8273 77.7114 36.5001H77.733ZM87.5461 58.7546L80.3426 42.6091C84.4835 46.9728 86.8775 52.6455 87.5461 58.7546ZM60.0694 78.1727L61.385 77.5182H61.6007C62.2477 77.3 63.132 77.5182 63.3476 78.1727C63.5633 78.8273 63.3477 79.7001 62.7006 79.9183L61.1693 80.5728L60.0694 78.1727ZM59.1852 75.5547L57.8695 76.2092C57.8695 76.2092 57.4382 76.4274 52.1974 78.8274L51.5504 77.3001L58.5381 74.2455L59.1852 75.5547ZM43.9156 73.1546C41.5216 74.0273 38.8904 72.9364 37.8121 70.5364C36.7121 68.1364 37.8121 65.5182 39.9904 64.4273L43.9156 73.1546ZM40.8746 59.8455L52.866 54.391C53.513 55.9183 59.1852 68.5728 60.0694 70.3182L58.7538 70.9728L48.0565 75.7728L40.853 59.8455H40.8746ZM62.6791 69.6637L55.2599 53.0818L69.4511 38.4638L82.9738 68.5728L62.6791 69.6637ZM30.3929 61.8091C30.3929 45.8818 43.2686 33.2273 58.9695 33.2273C62.032 33.2273 65.073 33.6636 67.9199 34.5364V35.6273L52.4346 51.5547L38.2434 57.8819C37.5964 58.1 37.1435 58.9727 37.5964 59.6273L38.459 61.8091C34.9652 63.5546 33.2182 67.9182 34.9652 71.6273C36.7121 75.3364 40.853 77.0819 44.5626 75.5547L45.641 78.1727C45.8566 78.8273 46.7409 79.2638 47.3879 78.8274L48.4879 78.391L49.8034 81.0092C50.0191 81.6638 50.9033 82.1001 51.5504 81.6637L51.9817 81.4455L55.9069 90.1727C41.9529 89.0818 30.3713 76.6455 30.3713 61.8091H30.3929ZM61.1478 93.2273C60.7165 93.0092 60.5007 92.7909 60.2851 92.3546L55.0442 80.5728L57.8695 79.2637C58.7538 81.4455 62.2262 88.8637 63.1104 91.0455C63.5418 92.3546 62.2477 93.6637 61.1478 93.2273ZM65.526 89.9546L62.4634 83.191L63.9946 82.5364C65.0946 82.1 65.7416 81.2273 66.1729 80.3546C67.2513 77.5182 64.8574 74.4636 61.8164 74.9L61.1693 73.3728L62.2693 72.9365L84.0953 71.6273C84.5266 72.2818 85.1952 72.9364 85.8422 73.1546C82.1327 81.4455 74.4979 87.7728 65.5475 89.9546H65.526ZM87.5461 70.5364C86.8991 70.5364 86.4462 70.1001 86.2305 69.6637C86.0148 69.4455 83.6208 63.7727 70.9609 35.6273C70.5295 34.9727 70.9608 33.8819 71.6079 33.6637C72.4921 33.2274 73.3548 33.6637 73.5705 34.3182L88.8401 68.3546C89.4871 69.4455 88.6244 70.5364 87.5245 70.5364H87.5461Z" fill="white" fill-opacity="0.83"/>
<path d="M52.6494 60.9365C53.2964 60.7184 53.7493 59.8457 53.2963 59.1911C53.0807 58.5366 52.1964 58.1001 51.5494 58.5365L44.7773 61.5911C44.1303 61.8093 43.6774 62.682 44.1303 63.3365C44.346 63.991 45.2302 64.4274 45.8772 63.991L52.6494 60.9365Z" fill="white" fill-opacity="0.83"/>
<path d="M54.3974 64.8637C55.0444 64.6455 55.4973 63.7728 55.0444 63.1183C54.8287 62.4637 53.9445 62.0274 53.2975 62.4637L46.5254 65.5182C45.8784 65.7364 45.4254 66.6091 45.8783 67.2636C46.094 67.9182 46.9782 68.3547 47.6253 67.9183L54.3974 64.8637Z" fill="white" fill-opacity="0.83"/>
<path d="M49.3717 71.8455L56.1439 68.7909C56.7909 68.5728 57.2438 67.7001 56.7909 67.0455C56.5752 66.391 55.6909 65.9546 55.0439 66.391L48.2719 69.4455C47.6248 69.6636 47.1934 70.5365 47.6248 71.191C47.8405 71.6274 48.2718 72.0637 48.9404 72.0637C49.0842 72.0637 49.228 71.991 49.3717 71.8455Z" fill="white" fill-opacity="0.83"/>
<path d="M78.1635 63.9908L69.8816 44.7909C69.666 44.1363 68.7817 43.7 68.1347 44.1363C67.4877 44.3545 67.0348 45.2272 67.4877 45.8818L75.7695 65.0817C75.9852 65.7363 76.8694 66.1728 77.5165 65.7364C78.1635 65.5182 78.3791 64.6454 78.1635 63.9908Z" fill="white" fill-opacity="0.83"/>
</svg>
