<svg width="59" height="58" viewBox="0 0 59 58" fill="none" xmlns="http://www.w3.org/2000/svg">
<path d="M58.2151 29.2794C58.2151 27.3796 56.757 25.9268 54.8569 25.9268C53.2883 25.9268 51.9516 27.0443 51.6202 28.6089H49.3888C49.1678 23.58 47.1573 18.9981 44.02 15.5337L45.5887 13.9692C46.9253 14.8632 48.6044 14.6397 49.8306 13.5222C51.1673 12.1811 51.1673 10.0578 49.8306 8.82852C48.494 7.48748 46.3619 7.48748 45.1357 8.82852C44.02 9.94605 43.9095 11.7341 44.6939 13.0751L43.1252 14.6397C39.6566 11.3989 35.0832 9.38731 30.0569 9.27556V7.04049C31.6255 6.70523 32.7412 5.36417 32.7412 3.79962C32.7412 1.89981 31.2831 0.447021 29.383 0.447021C27.483 0.447021 26.0359 1.89981 26.0359 3.79962C26.0359 5.36417 27.1516 6.70523 28.7202 7.04049V9.27556C23.6939 9.49907 19.1095 11.5106 15.6408 14.6397L13.9617 12.9634C14.8565 11.6224 14.6356 9.94608 13.5198 8.71679C12.1832 7.37575 10.0511 7.37575 8.82494 8.71679C7.48828 10.0578 7.48828 12.1812 8.82494 13.4104C9.94067 14.528 11.7302 14.6397 13.0669 13.8574L14.6356 15.422C11.3989 18.8863 9.38832 23.4682 9.2668 28.4971H7.03536C6.70396 26.9326 5.35626 25.815 3.79866 25.815C1.89862 25.815 0.44043 27.2678 0.44043 29.1676C0.44043 31.0674 1.89862 32.5202 3.79866 32.5202C5.36731 32.5202 6.70396 31.4027 7.03536 29.8381H9.2668C9.48774 34.867 11.4983 39.4489 14.6356 42.9133L13.0669 44.4779C11.7302 43.6956 10.0511 43.8073 8.82494 44.9248C7.48828 46.2659 7.48828 48.3892 8.82494 49.6185C10.1616 50.9595 12.2936 50.9595 13.5198 49.6185C14.6356 48.5009 14.746 46.7129 13.9617 45.3719L15.5303 43.8073C18.999 47.0481 23.5724 49.0598 28.5987 49.1715V51.4066C27.03 51.7418 25.9143 53.0828 25.9143 54.6474C25.9143 56.5472 27.3725 58 29.2726 58C31.1726 58 32.6197 56.5472 32.6197 54.6474C32.6197 53.0828 31.504 51.7418 29.9354 51.4066V49.1715C34.9617 48.948 39.5461 46.9364 43.0148 43.8073L44.5834 45.3719C44.252 45.9306 44.02 46.4894 44.02 47.1599C44.02 49.0597 45.4782 50.5125 47.3782 50.5125C48.273 50.5125 49.1678 50.1773 49.7201 49.5068C51.0568 48.1657 51.0568 46.0424 49.7201 44.8131C48.6044 43.6956 46.8148 43.5838 45.4782 44.3661L43.9096 42.8016C47.1463 39.3372 49.1568 34.7553 49.2783 29.7264H51.5098C51.8412 31.291 53.1889 32.4085 54.7465 32.4085C56.757 32.632 58.2151 31.1792 58.2151 29.2794ZM46.0416 9.72253C46.8259 8.94026 48.0521 8.94026 48.8364 9.72253C49.6207 10.5048 49.6207 11.7341 48.8364 12.5164C48.0521 13.2986 46.8259 13.2986 46.0416 12.5164C45.2573 11.7341 45.2573 10.5048 46.0416 9.72253ZM27.262 3.6879C27.262 2.57036 28.1568 1.67635 29.2726 1.67635C30.3883 1.67635 31.2831 2.57036 31.2831 3.6879C31.2831 4.80543 30.3883 5.69944 29.2726 5.69944C28.1568 5.58769 27.262 4.69368 27.262 3.6879ZM9.71973 12.5164C8.9354 11.7341 8.9354 10.5048 9.71973 9.72253C10.504 8.94026 11.7302 8.94026 12.5146 9.72253C13.2989 10.5048 13.2989 11.7341 12.5146 12.5164C11.7302 13.2986 10.504 13.2986 9.71973 12.5164ZM3.57771 31.291C2.46199 31.291 1.56719 30.3969 1.56719 29.2794C1.56719 28.1618 2.46199 27.2678 3.57771 27.2678C4.69344 27.2678 5.58824 28.1618 5.58824 29.2794C5.58824 30.3969 4.69344 31.291 3.57771 31.291ZM11.0564 49.395C9.94065 49.395 9.04589 48.5009 9.04589 47.3834C9.04589 46.2659 9.94065 45.3719 11.0564 45.3719C12.1721 45.3719 13.0669 46.2659 13.0669 47.3834C13.0669 47.9422 12.1721 49.395 11.0564 49.395ZM31.1726 54.9826C31.1726 56.1002 30.2778 56.9942 29.1621 56.9942C28.0464 56.9942 27.1516 56.1002 27.1516 54.9826C27.1516 53.8651 28.0464 52.9711 29.1621 52.9711C30.2778 52.9711 31.1726 53.8651 31.1726 54.9826ZM49.3888 47.4952C49.3888 48.6127 48.494 49.5068 47.3782 49.5068C46.2625 49.5068 45.3677 48.6127 45.3677 47.4952C45.3677 46.3777 46.2625 45.4836 47.3782 45.4836C48.494 45.4836 49.3888 46.3777 49.3888 47.4952ZM29.2726 48.054C18.8775 48.054 10.493 39.6724 10.493 29.2794C10.493 18.8863 18.8775 10.5048 29.2726 10.5048C39.6676 10.5048 48.041 18.8863 48.041 29.2794C48.041 39.6724 39.5461 48.054 29.2726 48.054ZM54.868 31.291C53.7522 31.291 52.8575 30.3969 52.8575 29.2794C52.8575 28.1618 53.7522 27.2678 54.868 27.2678C55.9837 27.2678 56.8785 28.1618 56.8785 29.2794C56.8785 30.3969 55.9837 31.291 54.868 31.291Z" fill="black" fill-opacity="0.83"/>
<path d="M54.0834 18.2157C54.6357 18.2157 55.0886 18.6627 55.0886 19.2214C55.0886 19.7802 54.6357 20.2272 54.0834 20.2272C53.531 20.2272 53.0781 19.7802 53.0781 19.2214C53.0781 18.6627 53.531 18.2157 54.0834 18.2157Z" fill="black" fill-opacity="0.83"/>
<path d="M40.7836 2.12335C41.3359 2.12335 41.7888 2.57039 41.7888 3.12916C41.7888 3.68793 41.3359 4.1349 40.7836 4.1349C40.2312 4.1349 39.7783 3.68793 39.7783 3.12916C39.7783 2.57039 40.2312 2.12335 40.7836 2.12335Z" fill="black" fill-opacity="0.83"/>
<path d="M14.9779 0C15.5303 0 15.9832 0.446972 15.9832 1.00574C15.9832 1.56451 15.5303 2.01155 14.9779 2.01155C14.4256 2.01155 13.9727 1.56451 13.9727 1.00574C13.9727 0.446972 14.4256 0 14.9779 0Z" fill="black" fill-opacity="0.83"/>
<path d="M3.79921 11.8458C4.35155 11.8458 4.80447 12.2929 4.80447 12.8516C4.80447 13.4104 4.35155 13.8574 3.79921 13.8574C3.24687 13.8574 2.79395 13.4104 2.79395 12.8516C2.79395 12.2929 3.24687 11.8458 3.79921 11.8458Z" fill="black" fill-opacity="0.83"/>
<path d="M1.00429 43.3602C1.55662 43.3602 2.00955 43.8072 2.00955 44.3659C2.00955 44.9247 1.55662 45.3717 1.00429 45.3717C0.451946 45.3717 -0.000976562 44.9247 -0.000976562 44.3659C-0.000976562 43.8072 0.451946 43.3602 1.00429 43.3602Z" fill="black" fill-opacity="0.83"/>
<path d="M14.1937 55.2062C14.7461 55.2062 15.199 55.6532 15.199 56.212C15.199 56.7708 14.7461 57.2177 14.1937 57.2177C13.6414 57.2177 13.1885 56.7708 13.1885 56.212C13.1885 55.6532 13.6414 55.2062 14.1937 55.2062Z" fill="black" fill-opacity="0.83"/>
<path d="M57.5531 44.7013C58.1055 44.7013 58.5583 45.1483 58.5583 45.7071C58.5583 46.2658 58.1055 46.7129 57.5531 46.7129C57.0008 46.7129 56.5479 46.2658 56.5479 45.7071C56.5479 45.1483 57.0008 44.7013 57.5531 44.7013Z" fill="black" fill-opacity="0.83"/>
<path d="M46.3734 55.2062C46.9257 55.2062 47.3787 55.6532 47.3787 56.212C47.3787 56.7708 46.9257 57.2177 46.3734 57.2177C45.8211 57.2177 45.3682 56.7708 45.3682 56.212C45.3682 55.6532 45.8211 55.2062 46.3734 55.2062Z" fill="black" fill-opacity="0.83"/>
<path d="M38.7732 16.316L37.9888 14.6397C37.315 13.1869 35.4149 12.9634 34.4097 14.081C32.7306 13.5222 31.0515 13.2987 29.2729 13.2987C20.4465 13.2987 13.1777 20.5627 13.1777 29.3912C13.1777 38.2197 19.9936 45.0366 28.4886 45.4836V45.5954C28.82 46.3777 29.6043 46.8247 30.4991 46.8247C31.5044 46.8247 32.3992 46.1541 32.6201 45.1484C37.8673 44.0308 42.3413 40.2313 44.2413 35.2024C45.578 34.8671 46.3623 33.4143 45.81 32.185L45.2466 30.844C45.81 25.0328 43.2361 19.5569 38.7621 16.316H38.7732ZM43.7994 27.7149L40.1098 19.4451C42.2308 21.6802 43.457 24.5858 43.7994 27.7149ZM29.7258 37.6609L30.3997 37.3256H30.5102C30.8416 37.2139 31.2945 37.3256 31.4049 37.6609C31.5154 37.9961 31.405 38.4432 31.0735 38.555L30.2892 38.8902L29.7258 37.6609ZM29.2729 36.3199L28.599 36.6551C28.599 36.6551 28.3781 36.7669 25.6937 37.9962L25.3623 37.2139L28.9415 35.6493L29.2729 36.3199ZM21.4518 35.0906C20.2256 35.5376 18.8779 34.9788 18.3255 33.7495C17.7622 32.5202 18.3256 31.1792 19.4413 30.6204L21.4518 35.0906ZM19.8942 28.2736L26.0362 25.4798C26.3676 26.2621 29.2729 32.7438 29.7258 33.6378L29.052 33.973L23.5728 36.4316L19.8831 28.2736H19.8942ZM31.0625 33.3025L27.2624 24.8093L34.5312 17.3218L41.4575 32.7438L31.0625 33.3025ZM14.5254 29.2794C14.5254 21.1214 21.1204 14.6397 29.1624 14.6397C30.7311 14.6397 32.2887 14.8632 33.7469 15.3102V15.869L25.8153 24.027L18.5465 27.2678C18.2151 27.3796 17.9831 27.8266 18.2151 28.1619L18.6569 29.2794C16.8674 30.1734 15.9726 32.4085 16.8674 34.3083C17.7621 36.2081 19.8831 37.1022 21.7832 36.3199L22.3355 37.6609C22.446 37.9961 22.8989 38.2197 23.2303 37.9962L23.7937 37.7727L24.4676 39.1137C24.578 39.449 25.0309 39.6725 25.3623 39.449L25.5833 39.3372L27.5938 43.8073C20.4465 43.2485 14.5144 36.8786 14.5144 29.2794H14.5254ZM30.2782 45.3719C30.0572 45.2601 29.9467 45.1484 29.8363 44.9248L27.1519 38.8902L28.599 38.2197C29.052 39.3372 30.8305 43.1368 31.2834 44.2544C31.5044 44.9249 30.8416 45.5954 30.2782 45.3719ZM32.5207 43.6956L30.952 40.2313L31.7363 39.896C32.2997 39.6724 32.6311 39.2254 32.8521 38.7784C33.4044 37.3256 32.1782 35.7611 30.6206 35.9846L30.2892 35.2024L30.8526 34.9788L42.0319 34.3083C42.2529 34.6435 42.5953 34.9788 42.9267 35.0906C41.0267 39.3372 37.1161 42.5781 32.5317 43.6956H32.5207ZM43.7994 33.7495C43.468 33.7495 43.2361 33.5261 43.1256 33.3025C43.0151 33.1908 41.7889 30.2852 35.3045 15.869C35.0835 15.5337 35.3044 14.975 35.6358 14.8632C36.0888 14.6397 36.5306 14.8632 36.6411 15.1985L44.4623 32.632C44.7937 33.1908 44.3518 33.7495 43.7884 33.7495H43.7994Z" fill="black" fill-opacity="0.83"/>
<path d="M25.926 28.8324C26.2574 28.7207 26.4894 28.2737 26.2574 27.9384C26.1469 27.6031 25.694 27.3796 25.3626 27.6031L21.8939 29.1677C21.5625 29.2794 21.3305 29.7264 21.5625 30.0617C21.673 30.3969 22.1259 30.6204 22.4573 30.3969L25.926 28.8324Z" fill="black" fill-opacity="0.83"/>
<path d="M26.8205 30.8439C27.1519 30.7322 27.3839 30.2852 27.1519 29.9499C27.0414 29.6147 26.5885 29.3912 26.2571 29.6147L22.7884 31.1792C22.457 31.2909 22.225 31.7379 22.457 32.0732C22.5675 32.4085 23.0204 32.632 23.3518 32.4085L26.8205 30.8439Z" fill="black" fill-opacity="0.83"/>
<path d="M24.2464 34.42L27.7151 32.8554C28.0465 32.7437 28.2785 32.2967 28.0465 31.9614C27.936 31.6262 27.4831 31.4027 27.1517 31.6262L23.683 33.1907C23.3516 33.3024 23.1307 33.7495 23.3516 34.0848C23.4621 34.3083 23.683 34.5317 24.0255 34.5317C24.0991 34.5317 24.1728 34.4945 24.2464 34.42Z" fill="black" fill-opacity="0.83"/>
<path d="M38.9945 30.3968L34.7525 20.5625C34.6421 20.2272 34.1892 20.0037 33.8578 20.2272C33.5264 20.339 33.2944 20.786 33.5264 21.1213L37.7683 30.9555C37.8788 31.2908 38.3317 31.5144 38.6631 31.2908C38.9945 31.1791 39.105 30.732 38.9945 30.3968Z" fill="black" fill-opacity="0.83"/>
</svg>
