<svg width="53" height="58" viewBox="0 0 53 58" fill="none" xmlns="http://www.w3.org/2000/svg">
<path d="M20.7367 28.0135C20.7367 27.7176 20.9346 27.619 21.3405 27.619C21.9443 27.619 22.5382 28.0135 22.6372 28.1122L23.142 27.2244C21.5385 26.3367 20.2417 26.7312 19.7369 27.619C19.5389 28.0135 19.5389 28.4081 19.6379 28.704C20.0339 29.6904 22.0433 29.4931 22.0433 30.1836C22.0433 30.3809 21.8453 30.5782 21.4395 30.5782C21.2415 30.5782 21.0435 30.5782 20.9346 30.4795C20.5387 30.3809 20.2318 30.2823 20.0339 30.085C19.9349 29.9863 19.8359 29.9863 19.8359 29.9863L19.3311 30.9727C20.0339 31.3673 21.1326 31.6632 22.0334 31.4659C22.4293 31.3673 22.8352 31.17 23.0332 30.7755C23.2311 30.3809 23.2311 29.8877 23.0332 29.4931C22.6372 28.4081 20.7268 28.704 20.7268 28.0135H20.7367Z" fill="black" fill-opacity="0.83"/>
<path d="M25.4485 29.4932H27.349V28.6054H25.4485V27.7177H27.646V26.7313H24.3398V31.4659H27.745V30.4796H25.4485V29.4932Z" fill="black" fill-opacity="0.83"/>
<path d="M31.8533 26.9285C31.5563 26.8299 31.2495 26.7313 30.8535 26.7313C29.151 26.7313 28.0522 28.4081 28.6461 29.9864C28.8441 30.5782 29.2499 31.0714 29.8439 31.2687C30.4477 31.5646 31.1406 31.5646 31.7444 31.2687C33.744 30.3809 33.7439 27.8163 31.8434 26.9285H31.8533ZM32.0513 29.5918C31.9523 29.8877 31.7543 30.1836 31.4475 30.3809C31.1505 30.5782 30.6457 30.5782 30.3487 30.3809C30.0517 30.1836 29.8439 29.9864 29.7449 29.5918C29.6459 29.2959 29.6459 28.704 29.7449 28.5068C29.8439 28.2108 30.0418 27.9149 30.3487 27.7177C30.6457 27.5204 31.1505 27.5204 31.4475 27.7177C32.0513 28.1122 32.2493 28.9013 32.0513 29.5918Z" fill="black" fill-opacity="0.83"/>
<path d="M23.845 5.03066H28.8538C29.1507 5.03066 29.4576 4.73473 29.4576 4.43881C29.4576 4.14289 29.1606 3.84697 28.8538 3.84697H23.845C23.5481 3.84697 23.2412 4.14289 23.2412 4.43881C23.2412 4.73473 23.4392 5.03066 23.845 5.03066Z" fill="black" fill-opacity="0.83"/>
<path d="M28.8538 53.1667H23.845C23.5481 53.1667 23.2412 53.4626 23.2412 53.7585C23.2412 54.0544 23.5382 54.3504 23.845 54.3504H28.8538C29.1507 54.3504 29.4576 54.0544 29.4576 53.7585C29.5566 53.4626 29.2596 53.1667 28.8538 53.1667Z" fill="black" fill-opacity="0.83"/>
<path d="M48.4728 22.8844V22.6871L50.2744 22.2925C50.5713 22.1939 50.7792 21.9966 50.7792 21.7007V20.3197C50.7792 20.0238 50.5812 19.8265 50.2744 19.7279L48.4728 19.3333C48.3738 18.9388 48.1758 18.5442 47.968 18.1497L48.9677 16.6701C49.1657 16.4728 49.0667 16.0782 48.8687 15.881L47.869 14.8946C47.671 14.6973 47.3641 14.6973 47.0672 14.7959L45.5626 15.7823C45.1666 15.585 44.7608 15.3878 44.3649 15.2891L43.9689 13.5136C43.8699 13.2177 43.6719 13.0204 43.3651 13.0204H43.1671V5.62246C43.1671 2.56464 40.6627 0 37.4556 0H15.1242C12.016 0 9.41265 2.466 9.41265 5.62246V22.1939H6.90829C3.1072 22.1939 -0.000976562 25.2517 -0.000976562 29C-0.000976562 32.7483 3.1072 35.8061 6.90829 35.8061H9.41265V52.3776C9.41265 55.4354 11.917 58 15.1242 58H37.6536C40.7617 58 43.3651 55.534 43.3651 52.3776V35.9048H45.7705C49.5716 35.9048 52.6797 32.8469 52.6797 29.0986C52.6797 26.3367 50.9772 23.9694 48.4728 22.8844ZM43.7709 16.3742C44.2758 16.4728 44.8697 16.6701 45.2755 16.966C45.4735 17.0646 45.7804 17.0646 45.9783 16.966L47.3839 16.0782L47.6809 16.3742L46.7801 17.8538C46.6811 18.051 46.6811 18.3469 46.7801 18.5442C47.0771 19.0374 47.285 19.5306 47.3839 20.0238C47.4829 20.2211 47.5819 20.4184 47.8888 20.517L49.4924 20.9116V21.2075L47.8888 21.602C47.6908 21.7007 47.4928 21.7993 47.3839 22.0952C47.285 22.5884 47.087 23.1803 46.7801 23.5748C46.6811 23.7721 46.6811 24.068 46.7801 24.2653L47.6809 25.6463L47.3839 25.9422L45.9783 25.0544C45.7804 24.9558 45.4735 24.9558 45.2755 25.0544C44.7707 25.3503 44.2758 25.5476 43.7709 25.6463C43.573 25.7449 43.375 25.8435 43.2661 26.1395L42.8701 27.7177H42.4742L42.1772 26.1395C42.0783 25.9422 41.9793 25.7449 41.6724 25.6463C41.1676 25.5476 40.5737 25.3503 40.1678 25.0544C39.9698 24.9558 39.663 24.9558 39.465 25.0544L38.0594 25.9422L37.7624 25.6463L38.6632 24.2653C38.7622 24.068 38.7622 23.7721 38.6632 23.5748C38.3663 23.0816 38.1584 22.5884 38.0594 22.0952C37.9604 21.898 37.8614 21.7007 37.5546 21.602L35.852 21.2075V20.8129L37.4556 20.4184C37.6535 20.3197 37.8515 20.2211 37.9604 19.9252C38.0594 19.432 38.2574 18.8402 38.5642 18.4456C38.6632 18.2483 38.6632 17.9524 38.5642 17.7551L37.7624 16.3742L38.0594 16.0782L39.465 16.966C39.663 17.0646 39.9698 17.0646 40.1678 16.966C40.6726 16.6701 41.1676 16.4728 41.6724 16.3742C41.8704 16.2755 42.0684 16.1769 42.1772 15.881L42.5732 14.3027H42.9691L43.3651 15.881C43.3651 16.1769 43.5631 16.3742 43.761 16.3742H43.7709ZM15.1341 1.38095H37.6635C40.0688 1.38095 42.0684 3.35373 42.0684 5.72108V7.49661H10.7292V5.72108C10.7292 3.35373 12.6297 1.38095 15.1341 1.38095ZM10.7292 19.2347H32.6547C32.9517 19.2347 33.2585 18.9388 33.2585 18.6429C33.2585 18.3469 32.9616 18.051 32.6547 18.051H10.7292V16.7687H20.1428C20.4398 16.7687 20.7466 16.4728 20.7466 16.1769C20.7466 15.8809 20.4497 15.585 20.1428 15.585H10.7292V14.3027H13.9363C14.2333 14.3027 14.5402 14.0068 14.5402 13.7109C14.5402 13.415 14.2432 13.119 13.9363 13.119H10.7292V8.77891H42.0684V13.119C41.7714 13.119 41.5635 13.3163 41.4645 13.6122L40.9597 15.2891C40.5638 15.3878 40.1579 15.585 39.762 15.7823L38.2574 14.7959C38.0594 14.5986 37.6535 14.6973 37.4556 14.8946L36.4558 15.881C36.2578 16.0782 36.2578 16.3741 36.3568 16.6701L37.3566 18.1497C37.1586 18.5442 36.9606 18.9388 36.8518 19.3333L35.0502 19.7279C34.7532 19.8265 34.5454 20.0238 34.5454 20.3197V21.7007C34.5454 21.9966 34.7433 22.1939 35.0502 22.2925H10.7193V19.2347H10.7292ZM37.5645 56.8163H15.1341C12.7287 56.8163 10.7292 54.8436 10.7292 52.4762V50.7007H42.0684V52.4762C42.0684 54.8436 40.0688 56.8163 37.5645 56.8163ZM42.0684 49.4184H10.7292V35.9048H23.251V46.3606C23.251 46.6565 23.548 46.9524 23.8548 46.9524H36.3667C36.6637 46.9524 36.9706 46.6565 36.9706 46.3606V41.1327C36.9706 39.5544 35.268 38.4694 33.8624 39.1599C33.7634 37.5817 32.1598 36.5952 30.7542 37.2857V36.7925C30.7542 36.4966 30.6552 36.102 30.5562 35.9048H42.0684V49.4184ZM34.8621 40.2449C35.367 40.2449 35.7629 40.6395 35.7629 41.1327V45.7687H33.8624V41.1327C33.8624 40.6395 34.2583 40.2449 34.8621 40.2449ZM32.6547 45.7687H30.7542V39.2585C30.7542 38.7653 31.1501 38.3708 31.655 38.3708C32.1598 38.3708 32.5557 38.7653 32.5557 39.2585C32.6547 41.3299 32.6547 43.8946 32.6547 45.7687ZM29.5465 36.7925V45.7687H27.646V36.7925C27.646 36.2993 28.0419 35.9048 28.5468 35.9048C29.0516 35.9048 29.5465 36.2993 29.5465 36.7925ZM26.3493 45.7687H24.4487V34.9184C24.4487 34.4252 24.8447 34.0306 25.3495 34.0306C25.8543 34.0306 26.2503 34.4252 26.2503 34.9184C26.3493 36.2007 26.3493 44.4864 26.3493 45.7687ZM45.7705 34.6225H27.646C27.448 33.5374 26.5472 32.7483 25.4386 32.7483C24.3299 32.7483 23.4391 33.5374 23.2312 34.6225H6.90829C3.80011 34.6225 1.29575 32.1565 1.29575 29.0986C1.29575 26.0408 3.80011 23.5748 6.90829 23.5748H37.1487C37.2477 23.6735 37.2477 23.7721 37.3467 23.8708L36.3469 25.3504C36.149 25.5476 36.2479 25.9422 36.4459 26.1395L37.4457 27.1259C37.6437 27.3231 37.9505 27.3231 38.2475 27.2245L39.7521 26.2381C40.148 26.4354 40.5539 26.6327 40.9498 26.7313L41.3458 28.5068C41.4447 28.8027 41.6427 29 41.9496 29H43.3552C43.6521 29 43.86 28.8027 43.959 28.5068L44.3549 26.7313C44.7509 26.6327 45.1567 26.4354 45.5527 26.2381L47.0573 27.2245C47.2553 27.4218 47.6611 27.3231 47.8591 27.1259L48.8588 26.1395C49.0568 25.9422 49.0568 25.6463 48.9578 25.3504L48.156 24.068C50.1556 24.9558 51.3632 26.9286 51.3632 29.0986C51.3632 32.1565 48.8588 34.6225 45.7606 34.6225H45.7705Z" fill="black" fill-opacity="0.83"/>
<path d="M39.5645 21.0102C39.5645 22.687 40.9701 24.1666 42.7716 24.1666C44.4742 24.1666 45.9788 22.7857 45.9788 21.0102C45.9788 19.3333 44.5732 17.8537 42.7716 17.8537C40.9701 17.9524 39.5645 19.3333 39.5645 21.0102ZM44.5732 21.0102C44.5732 22.0952 43.6724 22.8843 42.6726 22.8843C41.5739 22.8843 40.7721 21.9966 40.7721 21.0102C40.7721 19.9251 41.6729 19.136 42.6726 19.136C43.7714 19.136 44.5732 20.0238 44.5732 21.0102Z" fill="black" fill-opacity="0.83"/>
<path d="M22.0433 15.585C22.3798 15.585 22.6471 15.8513 22.6471 16.1768C22.6471 16.5023 22.3798 16.7687 22.0433 16.7687C21.7067 16.7687 21.4395 16.5023 21.4395 16.1768C21.4395 15.8513 21.7067 15.585 22.0433 15.585Z" fill="black" fill-opacity="0.83"/>
</svg>
