<svg width="71" height="59" viewBox="0 0 71 59" fill="none" xmlns="http://www.w3.org/2000/svg">
<path d="M35.7809 45.4926C36.6886 45.4926 37.4097 46.2207 37.4097 47.1246C37.4097 48.0285 36.6761 48.7567 35.7809 48.7567C34.8857 48.7567 34.1396 48.0285 34.1396 47.1246C34.1396 46.2207 34.8732 45.4926 35.7809 45.4926Z" fill="black" fill-opacity="0.83"/>
<path d="M64.8389 54.155H56.9186C56.5456 54.155 56.1602 54.5315 56.1602 54.9082C56.1602 55.2848 56.5332 55.6615 56.9186 55.6615H64.8389C65.2119 55.6615 65.5973 55.2848 65.5973 54.9082C65.7217 54.5315 65.3487 54.155 64.8389 54.155Z" fill="black" fill-opacity="0.83"/>
<path d="M14.5196 54.155H6.59928C6.22627 54.155 5.84082 54.5315 5.84082 54.9082C5.84082 55.2848 6.21383 55.6615 6.59928 55.6615H14.5196C14.8926 55.6615 15.278 55.2848 15.278 54.9082C15.4023 54.5315 15.0293 54.155 14.5196 54.155Z" fill="black" fill-opacity="0.83"/>
<path d="M66.3431 0.799988H5.21888C2.58293 0.799988 0.444336 2.93417 0.444336 5.57053V47.7523C0.444336 50.3887 2.58293 52.5229 5.21888 52.5229H21.5692C21.0719 53.1506 20.8108 54.0294 20.8108 54.9082C20.8108 57.0424 22.5764 58.8 24.715 58.8H46.7226C48.8613 58.8 50.6268 57.0424 50.6268 54.9082C50.6268 54.0294 50.3782 53.1506 49.8684 52.5229H66.2187C68.8547 52.5229 70.9933 50.3887 70.9933 47.7523V5.57053C71.1176 2.93417 68.979 0.799988 66.3431 0.799988ZM49.1099 54.9082C49.1099 56.1636 48.1028 57.2935 46.7226 57.2935H24.8393C23.5835 57.2935 22.452 56.2891 22.452 54.9082C22.452 53.6528 23.4592 52.5229 24.8393 52.5229H46.847C48.1028 52.5229 49.1099 53.6528 49.1099 54.9082ZM69.6131 47.7523C69.6131 49.5099 68.1087 51.0164 66.3431 51.0164H5.21888C3.45329 51.0164 1.94882 49.5099 1.94882 47.7523V5.57053C1.94882 3.81296 3.45329 2.3065 5.21888 2.3065H66.3431C68.1087 2.3065 69.6131 3.81296 69.6131 5.57053V47.7523Z" fill="black" fill-opacity="0.83"/>
<path d="M65.721 5.4451H47.3564C46.9834 5.4451 46.5979 5.82169 46.5979 6.19831C46.5979 6.57494 46.9709 6.95153 47.3564 6.95153H64.9625V8.58363H56.2838C55.9108 8.58363 55.5253 8.96022 55.5253 9.33684C55.5253 9.71347 55.8983 10.0901 56.2838 10.0901H64.9625V11.7222H57.0423C56.6692 11.7222 56.2838 12.0987 56.2838 12.4754C56.2838 12.852 56.6568 13.2286 57.0423 13.2286H64.9625V14.8607H57.925C57.552 14.8607 57.1666 15.2373 57.1666 15.6139C57.1666 15.9905 57.5396 16.3671 57.925 16.3671H64.9625V41.4753H6.72297V16.3671H13.7605C14.1335 16.3671 14.5189 15.9905 14.5189 15.6139C14.5189 15.2373 14.1459 14.8607 13.7605 14.8607H6.72297V13.2286H14.6433C15.0163 13.2286 15.4017 12.852 15.4017 12.4754C15.4017 12.0987 15.0287 11.7222 14.6433 11.7222H6.72297V10.0901H15.4017C15.7747 10.0901 16.1602 9.71347 16.1602 9.33684C16.1602 8.96022 15.7872 8.58363 15.4017 8.58363H6.72297V6.95153H24.2048C24.5778 6.95153 24.9632 6.57494 24.9632 6.19831C24.9632 5.82169 24.5902 5.4451 24.2048 5.4451H5.96451C5.5915 5.4451 5.20605 5.82169 5.20605 6.19831V42.3541C5.20605 42.7308 5.57907 43.1074 5.96451 43.1074H65.7086C66.0816 43.1074 66.467 42.7308 66.467 42.3541V6.32383C66.467 5.82166 66.094 5.4451 65.7086 5.4451H65.721Z" fill="black" fill-opacity="0.83"/>
<path d="M47.7294 37.9602C47.4808 37.9602 47.2321 37.9602 47.0953 37.8347C46.598 37.7091 46.2125 37.5835 45.9638 37.3325C45.8395 37.2069 45.7152 37.207 45.7152 37.207L45.0811 38.4624C46.3369 39.3412 48.9853 39.5922 49.7313 38.2113C49.9799 37.7091 49.9799 37.0814 49.7313 36.5792C49.0972 35.1983 46.7099 35.5749 46.7099 34.6961C46.7099 34.3195 46.9586 34.1939 47.4683 34.1939C48.2268 34.1939 48.9728 34.6961 49.0972 34.8216L49.7313 33.6918C49.6069 33.5663 49.4826 33.5663 49.2339 33.4407C47.344 32.5619 45.3297 33.1897 45.3297 34.9472C45.3297 36.9559 48.3511 36.4537 48.3511 37.458C48.3511 37.8347 48.1025 37.9602 47.717 37.9602H47.7294Z" fill="black" fill-opacity="0.83"/>
<path d="M55.5259 34.3194V33.1895H51.373V39.2155H55.5259V37.96H52.7656V36.7046H55.0286V35.5748H52.7656V34.3194H55.5259Z" fill="black" fill-opacity="0.83"/>
<path d="M58.2985 38.9645C59.0569 39.3411 59.9273 39.3411 60.6857 38.9645C61.8172 38.4623 62.4513 37.3325 62.4513 36.2026C62.4513 35.0728 61.8172 33.9429 60.6857 33.4407C59.9273 33.0641 59.0569 33.0641 58.2985 33.4407C56.794 34.0684 56.1599 35.826 56.6696 37.3325C57.0426 37.9602 57.5524 38.5879 58.2985 38.9645ZM58.0374 35.4493C58.1617 35.0727 58.4104 34.6961 58.7958 34.445C59.0445 34.3195 59.1688 34.3195 59.4299 34.3195C61.5685 34.3195 61.5685 37.9602 59.4299 37.9602C58.9326 37.9602 58.5471 37.7091 58.2985 37.458C57.9254 36.9559 57.9254 35.9515 58.0498 35.4493H58.0374Z" fill="black" fill-opacity="0.83"/>
<path d="M23.832 17.9992C23.7077 17.6226 23.459 17.3715 23.0736 17.3715H21.0593C20.6863 17.3715 20.4252 17.6226 20.3008 17.9992L19.6667 20.51C19.0326 20.6356 18.4109 20.8866 17.9011 21.2632L15.6382 19.8823C15.3895 19.6312 14.8797 19.7567 14.6311 20.0078L13.2509 21.3887C13.0022 21.6398 13.0022 22.0165 13.1266 22.3931L14.5067 24.6529C14.2581 25.155 14.0094 25.7827 13.7483 26.4104L11.2367 27.0381C10.8636 27.1636 10.6025 27.4148 10.6025 27.7914V29.8C10.6025 30.1766 10.8512 30.4278 11.2367 30.5533L13.7483 31.181C13.8726 31.8087 14.1213 32.4364 14.5067 32.9385L13.1266 35.1983C13.1266 35.3238 13.1266 35.7005 13.3753 35.9516L14.7554 37.3325C15.0041 37.5836 15.3895 37.5836 15.7625 37.4581L18.0255 36.0771C18.5228 36.3281 19.1569 36.5793 19.7911 36.8304L20.4252 39.3412C20.5495 39.7178 20.7982 39.9689 21.1836 39.9689H23.1979C23.5709 39.9689 23.832 39.7178 23.9564 39.3412L24.5905 36.8304C25.2246 36.7048 25.8463 36.4537 26.3561 36.0771L28.619 37.4581C28.8677 37.7091 29.3775 37.5836 29.6261 37.3325L31.0063 35.9516C31.2549 35.7005 31.2549 35.3239 31.1306 34.9472L29.5018 32.813C29.7505 32.3109 29.9991 31.6831 30.2603 31.0554L32.7719 30.4277C33.1449 30.3022 33.406 30.0511 33.406 29.6745V27.6658C33.406 27.2892 33.1573 27.0381 32.7719 26.9126L30.2603 26.2849C30.1359 25.6572 29.8872 25.0294 29.5018 24.5273L30.8819 22.2675C31.1306 22.0165 31.0063 21.5143 30.7576 21.2632L29.3775 19.8823C29.1288 19.6312 28.7433 19.6312 28.3703 19.7567L26.1074 21.1377C25.61 20.8866 24.9759 20.6355 24.3418 20.3844L23.8445 17.9992H23.832ZM26.5923 22.8953L28.7309 21.6398L29.2283 22.142L27.9725 24.2763C27.8481 24.5273 27.8481 24.9039 27.9725 25.155C28.3455 25.7827 28.7309 26.5359 28.8552 27.2892C28.9796 27.5403 29.1039 27.7914 29.4894 27.9169L31.8766 28.4191V29.1723L29.4894 29.6745C29.2407 29.8 28.992 29.9256 28.8552 30.3022C28.7309 31.0555 28.3579 31.8087 27.9725 32.4364C27.8481 32.6875 27.8481 33.0641 27.9725 33.3151L29.2283 35.4494L28.7309 35.9516L26.5923 34.6961C26.3436 34.5706 25.9582 34.5706 25.7095 34.6961C25.0754 35.0728 24.3294 35.4494 23.5709 35.5749C23.3222 35.7005 23.0736 35.826 22.9368 36.2027L22.4394 38.5879H21.681L21.1836 36.2027C21.0593 35.9516 20.935 35.7005 20.5495 35.5749C19.7911 35.4494 19.045 35.0728 18.4109 34.6961C18.1622 34.5706 17.7768 34.5706 17.5281 34.6961L15.3895 35.9516L14.8922 35.4494L16.148 33.3151C16.2723 33.0641 16.2723 32.6875 16.148 32.4364C15.775 31.8087 15.3895 31.0555 15.2652 30.3022C15.1408 30.0511 15.0165 29.8 14.6311 29.6745L12.2438 29.1723V28.4191L14.6311 27.9169C14.8797 27.7914 15.1284 27.6658 15.2652 27.2892C15.3895 26.5359 15.7625 25.7827 16.148 25.155C16.2723 24.9039 16.2723 24.5273 16.148 24.2763L14.8922 22.142L15.3895 21.6398L17.5281 22.8953C17.7768 23.0208 18.1622 23.0208 18.4109 22.8953C19.045 22.5186 19.7911 22.142 20.5495 22.0164C20.7982 21.8909 21.0469 21.7654 21.1836 21.3887L21.681 19.0035H22.4394L22.9368 21.3887C23.0611 21.6398 23.1855 21.8909 23.5709 22.0164C24.3294 22.142 25.0754 22.5186 25.7095 22.8953C26.0825 23.0208 26.3436 23.0208 26.5923 22.8953Z" fill="black" fill-opacity="0.83"/>
<path d="M17.665 28.6702C17.665 31.0555 19.6793 33.0641 22.0666 33.0641C24.4539 33.0641 26.4681 31.0555 26.4681 28.6702C26.4681 26.2849 24.4539 24.2762 22.0666 24.2762C19.6793 24.4018 17.665 26.2849 17.665 28.6702ZM24.9636 28.6702C24.9636 30.1767 23.7078 31.432 22.1909 31.432C20.674 31.432 19.4182 30.1767 19.4182 28.6702C19.4182 27.1637 20.674 25.9083 22.1909 25.9083C23.7078 25.9083 24.9636 27.1637 24.9636 28.6702Z" fill="black" fill-opacity="0.83"/>
<path d="M30.8695 19.0035L33.1324 19.5056C33.2567 20.0077 33.5054 20.5099 33.7665 21.0121L32.5107 22.8952C32.262 23.1463 32.3864 23.6484 32.6351 23.8995L33.8909 25.1549C34.1395 25.406 34.525 25.4061 34.898 25.2805L36.7879 24.0251C37.2853 24.2762 37.7951 24.5273 38.2924 24.6528L38.7898 26.9125C38.9141 27.2892 39.1628 27.5402 39.5482 27.5402H41.3138C41.6868 27.5402 41.9479 27.2892 42.0723 26.9125L42.5696 24.6528C43.067 24.5273 43.5767 24.2762 44.0741 24.0251L45.964 25.2805C46.2127 25.5316 46.7225 25.406 46.9711 25.1549L48.2269 23.8995C48.4756 23.6484 48.4756 23.2718 48.3513 22.8952L47.0955 21.0121C47.3442 20.5099 47.5928 20.0077 47.7296 19.5056L49.9925 19.0035C50.3655 18.8779 50.6266 18.6268 50.6266 18.2502V16.4926C50.6266 16.116 50.378 15.8649 49.9925 15.7393L47.7296 15.2372C47.6053 14.7351 47.3566 14.2329 47.0955 13.7307L48.3513 11.8476C48.6 11.5965 48.4756 11.0944 48.2269 10.8433L46.9711 9.58787C46.7225 9.33679 46.337 9.33674 45.964 9.46229L44.0741 10.7177C43.5767 10.4666 43.067 10.2155 42.5696 10.09L42.0723 7.83027C41.9479 7.45364 41.6992 7.20256 41.3138 7.20256H39.5482C39.1752 7.20256 38.9141 7.45364 38.7898 7.83027L38.2924 10.09C37.7951 10.2155 37.2853 10.4666 36.7879 10.7177L34.898 9.46229C34.6493 9.2112 34.1395 9.33679 33.8909 9.58787L32.6351 10.8433C32.3864 11.0944 32.3864 11.471 32.5107 11.8476L33.7665 13.7307C33.5178 14.2329 33.2692 14.7351 33.1324 15.2372L30.8695 15.7393C30.4965 15.8649 30.2354 16.116 30.2354 16.4926V18.2502C30.2354 18.6268 30.484 18.8779 30.8695 19.0035ZM31.8766 17.1203L33.8909 16.6181C34.1395 16.4926 34.3882 16.3671 34.525 15.9904C34.6493 15.3627 34.898 14.6095 35.2834 14.1073C35.4078 13.8562 35.4078 13.4796 35.2834 13.2285L34.152 11.471L34.525 11.0944L36.2906 12.2242C36.5392 12.3497 36.9247 12.3497 37.1734 12.2242C37.8075 11.8476 38.4292 11.5965 39.0633 11.471C39.312 11.3454 39.5606 11.2199 39.6974 10.8433L40.1948 8.83458H40.6921L41.1895 10.8433C41.3138 11.0944 41.4381 11.3454 41.8236 11.471C42.4577 11.5965 43.2037 11.8476 43.7135 12.2242C43.9622 12.3497 44.3476 12.3497 44.5963 12.2242L46.3619 11.0944L46.7349 11.471L45.6034 13.2285C45.4791 13.4796 45.4791 13.8562 45.6034 14.1073C45.9764 14.735 46.2375 15.3627 46.3619 15.9904C46.4862 16.2415 46.6106 16.4926 46.996 16.6181L49.0103 17.1203V17.6225L46.996 18.1247C46.7473 18.2502 46.4987 18.3757 46.3619 18.7524C46.2375 19.3801 45.9889 20.1333 45.6034 20.6355C45.4791 20.8866 45.4791 21.2632 45.6034 21.5143L46.7349 23.2718L46.3619 23.6485L44.5963 22.5186C44.3476 22.393 43.9622 22.393 43.7135 22.5186C43.0794 22.8952 42.4577 23.1463 41.8236 23.2718C41.5749 23.3973 41.3262 23.5229 41.1895 23.8995L40.6921 25.9082H40.1948L39.6974 23.8995C39.5731 23.6484 39.4487 23.3973 39.0633 23.2718C38.4292 23.1463 37.6831 22.8952 37.1734 22.5186C36.9247 22.393 36.5392 22.393 36.2906 22.5186L34.525 23.5229L34.152 23.1463L35.2834 21.3887C35.4078 21.1376 35.4078 20.761 35.2834 20.51C34.9104 19.8823 34.6493 19.2546 34.525 18.6268C34.4006 18.3758 34.2763 18.1247 33.8909 17.9991L31.8766 17.4969V17.1203Z" fill="black" fill-opacity="0.83"/>
<path d="M40.4309 21.2633C42.5695 21.2633 44.4594 19.5057 44.4594 17.2459C44.4594 15.1117 42.6938 13.2286 40.4309 13.2286C38.2923 13.2286 36.4023 14.9862 36.4023 17.2459C36.4023 19.5057 38.1679 21.2633 40.4309 21.2633ZM40.4309 14.9862C41.811 14.9862 42.8181 16.1161 42.8181 17.3715C42.8181 18.7525 41.6867 19.7567 40.4309 19.7567C39.0507 19.7567 38.0436 18.6269 38.0436 17.3715C38.0436 15.9906 39.0507 14.9862 40.4309 14.9862Z" fill="black" fill-opacity="0.83"/>
</svg>
