<svg width="121" height="126" viewBox="0 0 121 126" fill="none" xmlns="http://www.w3.org/2000/svg">
<path d="M50.3575 60.874C50.3575 60.2362 50.7841 60.0237 51.6588 60.0237C52.9601 60.0237 54.2401 60.874 54.4535 61.0866L55.5415 59.1733C52.0855 57.2601 49.2908 58.1104 48.2028 60.0237C47.7761 60.874 47.7761 61.7244 47.9895 62.3621C48.8428 64.488 53.1735 64.0628 53.1735 65.5509C53.1735 65.9761 52.7468 66.4012 51.8721 66.4012C51.4455 66.4012 51.0188 66.4012 50.7841 66.1886C49.9308 65.976 49.2695 65.7635 48.8428 65.3383C48.6295 65.1257 48.4161 65.1257 48.4161 65.1257L47.3281 67.2516C48.8428 68.1019 51.2108 68.7397 53.1521 68.3145C54.0054 68.1019 54.8801 67.6768 55.3068 66.8264C55.7335 65.9761 55.7335 64.9131 55.3068 64.0628C54.4535 61.7243 50.3361 62.3621 50.3361 60.874H50.3575Z" fill="white" fill-opacity="0.83"/>
<path d="M60.5104 64.0628H64.6064V62.1496H60.5104V60.2363H65.2465V58.1105H58.1211V68.3145H65.4598V66.1887H60.5104V64.0628Z" fill="white" fill-opacity="0.83"/>
<path d="M74.3135 58.5356C73.6735 58.323 73.0122 58.1105 72.1588 58.1105C68.4895 58.1105 66.1215 61.7244 67.4015 65.1258C67.8282 66.4013 68.7028 67.4642 69.9828 67.8894C71.2842 68.5272 72.7775 68.5272 74.0789 67.8894C78.3882 65.9761 78.3882 60.4489 74.2922 58.5356H74.3135ZM74.7402 64.2754C74.5268 64.9132 74.1002 65.5509 73.4388 65.9761C72.7988 66.4013 71.7108 66.4013 71.0708 65.9761C70.4308 65.5509 69.9828 65.1258 69.7695 64.2754C69.5562 63.6377 69.5562 62.3621 69.7695 61.937C69.9828 61.2992 70.4095 60.6615 71.0708 60.2363C71.7108 59.8112 72.7988 59.8112 73.4388 60.2363C74.7402 61.0867 75.1668 62.7873 74.7402 64.2754Z" fill="white" fill-opacity="0.83"/>
<path d="M57.0552 11.3419H67.8499C68.4899 11.3419 69.1512 10.7042 69.1512 10.0664C69.1512 9.42866 68.5112 8.79089 67.8499 8.79089H57.0552C56.4152 8.79089 55.7539 9.42866 55.7539 10.0664C55.7539 10.7042 56.1806 11.3419 57.0552 11.3419Z" fill="white" fill-opacity="0.83"/>
<path d="M67.8499 115.083H57.0552C56.4152 115.083 55.7539 115.721 55.7539 116.359C55.7539 116.997 56.3939 117.634 57.0552 117.634H67.8499C68.4899 117.634 69.1512 116.997 69.1512 116.359C69.3646 115.721 68.7246 115.083 67.8499 115.083Z" fill="white" fill-opacity="0.83"/>
<path d="M110.131 49.8198V49.3946L114.014 48.5442C114.654 48.3317 115.102 47.9065 115.102 47.2687V44.2925C115.102 43.6548 114.675 43.2296 114.014 43.017L110.131 42.1667C109.918 41.3163 109.491 40.466 109.043 39.6156L111.198 36.4269C111.625 36.0017 111.411 35.1514 110.985 34.7262L108.83 32.6004C108.403 32.1752 107.742 32.1752 107.102 32.3878L103.859 34.5136C103.006 34.0884 102.131 33.6633 101.278 33.4507L100.425 29.6242C100.211 28.9864 99.7848 28.5613 99.1234 28.5613H98.6968V12.6174C98.6968 6.02724 93.2994 0.5 86.3874 0.5H38.2594C31.5608 0.5 25.9501 5.81465 25.9501 12.6174V48.3316H20.5528C12.3608 48.3316 5.66211 54.9218 5.66211 63C5.66211 71.0782 12.3608 77.6684 20.5528 77.6684H25.9501V113.383C25.9501 119.973 31.3474 125.5 38.2594 125.5H86.8141C93.5128 125.5 99.1234 120.185 99.1234 113.383V77.881H104.307C112.499 77.881 119.198 71.2908 119.198 63.2126C119.198 57.2602 115.529 52.1582 110.131 49.8198ZM99.9981 35.7891C101.086 36.0017 102.366 36.4269 103.241 37.0647C103.667 37.2772 104.329 37.2772 104.755 37.0647L107.785 35.1513L108.425 35.7891L106.483 38.9779C106.27 39.4031 106.27 40.0408 106.483 40.466C107.123 41.5289 107.571 42.5918 107.785 43.6547C107.998 44.0799 108.211 44.5051 108.873 44.7177L112.329 45.5681V46.2058L108.873 47.0561C108.446 47.2687 108.019 47.4813 107.785 48.119C107.571 49.182 107.145 50.4575 106.483 51.3078C106.27 51.733 106.27 52.3708 106.483 52.7959L108.425 55.7721L107.785 56.4098L104.755 54.4966C104.329 54.284 103.667 54.284 103.241 54.4966C102.153 55.1343 101.086 55.5595 99.9981 55.7721C99.5714 55.9847 99.1448 56.1973 98.9101 56.835L98.0568 60.2364H97.2035L96.5634 56.835C96.3501 56.4099 96.1368 55.9847 95.4755 55.7721C94.3875 55.5595 93.1075 55.1343 92.2328 54.4966C91.8061 54.284 91.1448 54.284 90.7181 54.4966L87.6888 56.4098L87.0488 55.7721L88.9901 52.7959C89.2034 52.3708 89.2034 51.733 88.9901 51.3078C88.3501 50.2449 87.9021 49.182 87.6888 48.119C87.4754 47.6939 87.2621 47.2687 86.6008 47.0561L82.9314 46.2058V45.3555L86.3874 44.5051C86.8141 44.2925 87.2408 44.08 87.4755 43.4422C87.6888 42.3793 88.1155 41.1038 88.7768 40.2534C88.9901 39.8283 88.9901 39.1905 88.7768 38.7653L87.0488 35.7891L87.6888 35.1513L90.7181 37.0647C91.1448 37.2772 91.8061 37.2772 92.2328 37.0647C93.3208 36.4269 94.3875 36.0017 95.4755 35.7891C95.9021 35.5765 96.3288 35.364 96.5634 34.7262L97.4168 31.3248H98.2701L99.1234 34.7262C99.1234 35.364 99.5501 35.7891 99.9768 35.7891H99.9981ZM38.2808 3.47618H86.8355C92.0195 3.47618 96.3288 7.72787 96.3288 12.8299V16.6565H28.7874V12.8299C28.7874 7.72787 32.8835 3.47618 38.2808 3.47618ZM28.7874 41.9541H76.0408C76.6808 41.9541 77.3421 41.3163 77.3421 40.6786C77.3421 40.0408 76.7021 39.403 76.0408 39.403H28.7874V36.6395H49.0755C49.7155 36.6395 50.3768 36.0017 50.3768 35.3639C50.3768 34.7262 49.7368 34.0884 49.0755 34.0884H28.7874V31.3248H35.6994C36.3394 31.3248 37.0008 30.6871 37.0008 30.0493C37.0008 29.4116 36.3608 28.7738 35.6994 28.7738H28.7874V19.4201H96.3288V28.7738C95.6888 28.7738 95.2408 29.199 95.0274 29.8367L93.9395 33.4507C93.0861 33.6633 92.2114 34.0884 91.3581 34.5136L88.1154 32.3878C87.6888 31.9626 86.8141 32.1752 86.3874 32.6004L84.2328 34.7262C83.8061 35.1514 83.8061 35.7891 84.0194 36.4269L86.1741 39.6156C85.7475 40.466 85.3208 41.3163 85.0861 42.1667L81.2035 43.017C80.5635 43.2296 80.1154 43.6548 80.1154 44.2925V47.2687C80.1154 47.9065 80.5421 48.3317 81.2035 48.5442H28.7661V41.9541H28.7874ZM86.6221 122.949H38.2808C33.0968 122.949 28.7874 118.697 28.7874 113.595V109.769H96.3288V113.595C96.3288 118.697 92.0194 122.949 86.6221 122.949ZM96.3288 107.005H28.7874V77.881H55.7741V100.415C55.7741 101.053 56.4141 101.691 57.0755 101.691H84.0408C84.6808 101.691 85.3421 101.053 85.3421 100.415V89.148C85.3421 85.7466 81.6728 83.4082 78.6435 84.8963C78.4301 81.4949 74.9741 79.369 71.9448 80.8571V79.7942C71.9448 79.1564 71.7314 78.3061 71.5181 77.881H96.3288V107.005ZM80.7981 87.2347C81.8861 87.2347 82.7395 88.0851 82.7395 89.148V99.1395H78.6435V89.148C78.6435 88.0851 79.4968 87.2347 80.7981 87.2347ZM76.0408 99.1395H71.9448V85.1088C71.9448 84.0459 72.7981 83.1956 73.8861 83.1956C74.9741 83.1956 75.8274 84.0459 75.8274 85.1088C76.0408 89.5731 76.0408 95.1003 76.0408 99.1395ZM69.3421 79.7942V99.1395H65.2461V79.7942C65.2461 78.7313 66.0994 77.881 67.1874 77.881C68.2754 77.881 69.3421 78.7313 69.3421 79.7942ZM62.4514 99.1395H58.3554V75.7551C58.3554 74.6922 59.2088 73.8419 60.2968 73.8419C61.3848 73.8419 62.2381 74.6922 62.2381 75.7551C62.4515 78.5187 62.4514 96.3759 62.4514 99.1395ZM104.307 75.1174H65.2461C64.8195 72.7789 62.8781 71.0783 60.4888 71.0783C58.0994 71.0783 56.1794 72.7789 55.7314 75.1174H20.5528C13.8541 75.1174 8.45677 69.8027 8.45677 63.2126C8.45677 56.6225 13.8541 51.3078 20.5528 51.3078H85.7261C85.9394 51.5204 85.9394 51.733 86.1528 51.9456L83.9981 55.1344C83.5714 55.5596 83.7848 56.4099 84.2115 56.835L86.3661 58.9609C86.7928 59.3861 87.4541 59.3861 88.0941 59.1735L91.3368 57.0476C92.1901 57.4728 93.0648 57.898 93.9181 58.1106L94.7715 61.9371C94.9848 62.5748 95.4115 63 96.0728 63H99.1021C99.7421 63 100.19 62.5748 100.403 61.9371L101.257 58.1106C102.11 57.898 102.985 57.4728 103.838 57.0476L107.081 59.1735C107.507 59.5987 108.382 59.3861 108.809 58.9609L110.963 56.835C111.39 56.4099 111.39 55.7721 111.177 55.1344L109.449 52.3707C113.758 54.284 116.361 58.5357 116.361 63.2126C116.361 69.8027 110.963 75.1174 104.286 75.1174H104.307Z" fill="white" fill-opacity="0.83"/>
<path d="M90.9316 45.7805C90.9316 49.3945 93.961 52.5833 97.8437 52.5833C101.513 52.5833 104.756 49.6071 104.756 45.7805C104.756 42.1666 101.726 38.9778 97.8437 38.9778C93.961 39.1904 90.9316 42.1666 90.9316 45.7805ZM101.726 45.7805C101.726 48.119 99.785 49.8197 97.6303 49.8197C95.2623 49.8197 93.5343 47.9064 93.5343 45.7805C93.5343 43.4421 95.4756 41.7414 97.6303 41.7414C99.9983 41.7414 101.726 43.6547 101.726 45.7805Z" fill="white" fill-opacity="0.83"/>
<path d="M5.25775 30.0494C6.32441 30.0494 7.19909 30.8998 7.19909 31.9627C7.19909 33.0256 6.32441 33.876 5.25775 33.876C4.19108 33.876 3.31641 33.0256 3.31641 31.9627C3.31641 30.8998 4.19108 30.0494 5.25775 30.0494Z" fill="white" fill-opacity="0.83"/>
<path d="M18.6327 11.5546C19.6994 11.5546 20.5741 12.4049 20.5741 13.4678C20.5741 14.5308 19.6994 15.3811 18.6327 15.3811C17.5661 15.3811 16.6914 14.5308 16.6914 13.4678C16.6914 12.4049 17.5661 11.5546 18.6327 11.5546Z" fill="white" fill-opacity="0.83"/>
<path d="M53.1724 34.0883C53.8978 34.0883 54.4738 34.6623 54.4738 35.3638C54.4738 36.0654 53.8978 36.6394 53.1724 36.6394C52.4471 36.6394 51.8711 36.0654 51.8711 35.3638C51.8711 34.6623 52.4471 34.0883 53.1724 34.0883Z" fill="white" fill-opacity="0.83"/>
<path d="M118.559 30.0494C119.625 30.0494 120.5 30.8998 120.5 31.9627C120.5 33.0256 119.625 33.876 118.559 33.876C117.492 33.876 116.617 33.0256 116.617 31.9627C116.617 30.8998 117.492 30.0494 118.559 30.0494Z" fill="white" fill-opacity="0.83"/>
<path d="M117.045 81.92C118.112 81.92 118.986 82.7703 118.986 83.8333C118.986 84.8962 118.112 85.7465 117.045 85.7465C115.978 85.7465 115.104 84.8962 115.104 83.8333C115.104 82.7703 115.978 81.92 117.045 81.92Z" fill="white" fill-opacity="0.83"/>
<path d="M110.346 104.454C111.412 104.454 112.287 105.304 112.287 106.367C112.287 107.43 111.412 108.281 110.346 108.281C109.279 108.281 108.404 107.43 108.404 106.367C108.404 105.304 109.279 104.454 110.346 104.454Z" fill="white" fill-opacity="0.83"/>
<path d="M10.6542 77.881C11.7209 77.881 12.5955 78.7313 12.5955 79.7942C12.5955 80.8571 11.7209 81.7075 10.6542 81.7075C9.58753 81.7075 8.71289 80.8571 8.71289 79.7942C8.71289 78.7313 9.58753 77.881 10.6542 77.881Z" fill="white" fill-opacity="0.83"/>
<path d="M16.0507 112.532C17.1174 112.532 17.992 113.383 17.992 114.446C17.992 115.509 17.1174 116.359 16.0507 116.359C14.984 116.359 14.1094 115.509 14.1094 114.446C14.1094 113.383 14.984 112.532 16.0507 112.532Z" fill="white" fill-opacity="0.83"/>
<path d="M9.99333 87.2345C4.80933 87.2345 0.5 91.4863 0.5 96.5883C0.5 101.69 4.80933 105.942 9.99333 105.942C15.1773 105.942 19.4867 101.69 19.4867 96.5883C19.4867 91.4863 15.1773 87.2345 9.99333 87.2345ZM9.99333 103.178C6.32399 103.178 3.29466 100.202 3.29466 96.5883C3.29466 92.9743 6.32399 89.9981 9.99333 89.9981C13.6627 89.9981 16.692 92.9743 16.692 96.5883C16.692 99.9897 13.6627 103.178 9.99333 103.178Z" fill="white" fill-opacity="0.83"/>
<path d="M113.802 24.7348C117.472 24.7348 120.501 21.7586 120.501 18.1447C120.501 14.5307 117.472 11.5546 113.802 11.5546C110.133 11.5546 107.104 14.5307 107.104 18.1447C107.104 21.7586 110.133 24.7348 113.802 24.7348ZM113.802 14.1056C115.957 14.1056 117.898 15.8062 117.898 18.1447C117.898 20.4831 116.17 22.1838 113.802 22.1838C111.648 22.1838 109.706 20.4831 109.706 18.1447C109.706 15.8062 111.434 14.1056 113.802 14.1056Z" fill="white" fill-opacity="0.83"/>
</svg>
