<svg width="120" height="109" viewBox="0 0 120 109" fill="none" xmlns="http://www.w3.org/2000/svg">
<g clip-path="url(#clip0_910_5893)">
<path d="M109.21 59.0565C108.952 59.0729 108.72 59.0745 108.488 59.0751C104.685 57.2379 102.908 54.4533 101.734 51.1684C100.85 50.9421 99.9885 50.6386 99.142 50.2975C99.1162 50.1948 99.0775 50.1089 99.0531 50.0042C98.9183 49.4262 98.3837 49.0008 97.7993 49.0522C97.0891 49.0831 96.3568 49.1016 95.6415 49.1264C95.519 35.7719 95.6872 30.3291 96.2209 16.0994C95.1934 15.2147 94.34 14.4624 93.373 13.6239C93.2959 12.9014 92.7166 12.5082 92.1519 12.517C62.3831 12.8293 37.1314 12.3258 8.24722 12.8316C7.56978 12.8429 7.02879 13.3999 7.03521 14.0773C7.23588 34.0795 7.31614 54.3738 7.28083 76.1193C7.27942 76.6747 7.65687 77.1294 8.16986 77.2819C8.74135 78.2532 9.31264 79.2248 9.88413 80.1962C30.4986 80.6647 44.2867 80.3706 64.7898 80.7542C68.8747 90.7858 75.9157 99.6523 85.8671 107.243C86.0886 107.41 86.3519 107.495 86.6152 107.495C86.6269 107.495 86.6384 107.49 86.6502 107.489C87.8453 107.963 88.5118 107.935 90.4312 108.319C104.716 98.3593 112.932 80.6665 112.964 63.253C111.911 62.1447 111.325 61.2244 110.513 60.2882C110.512 59.5216 109.873 58.9992 109.21 59.0565ZM63.003 75.6345C26.4646 75.4469 20.9836 75.8654 9.74816 74.9844C9.77136 59.0994 9.73193 43.9832 9.62929 29.1769H91.0266C91.0622 35.0884 91.0753 40.1399 91.0374 49.2796C86.0671 49.4339 80.4397 49.6502 73.3457 50.4119C72.7983 50.4713 72.3552 50.8871 72.2621 51.4297C71.8399 53.8874 69.989 57.0547 68.0482 58.6391C66.1924 60.1545 64.5341 60.6971 61.9352 60.604C61.0851 60.64 60.6307 61.2558 60.6637 61.8995C60.91 66.6779 61.7018 71.2548 63.003 75.6345ZM90.9399 14.9956C90.975 20.8056 90.985 22.7539 91.011 26.7111H9.61073C9.58234 22.8849 9.55083 19.0723 9.51381 15.2765C37.5343 14.813 61.8716 15.279 90.9399 14.9956ZM63.2066 63.0585C65.706 62.9317 67.6308 62.1628 69.6085 60.5494C71.7885 58.7675 73.7406 55.6211 74.4903 52.7717C83.7623 51.8182 90.4206 51.8079 96.9084 51.5565C97.8266 54.7655 99.4047 57.2168 101.612 58.8526C103.723 60.4162 105.311 61.4372 107.982 61.5399C106.845 79.2224 102.683 92.7343 86.6328 104.718C72.283 93.5128 64.4057 79.5049 63.2066 63.0585Z" fill="white" fill-opacity="0.83"/>
<path d="M16.7814 23.6449C19.2148 23.6449 20.2029 20.5956 18.4204 19.1821C16.8892 17.9629 14.6972 19.1962 14.3927 20.7842C14.1208 22.198 15.2285 23.6449 16.7814 23.6449Z" fill="white" fill-opacity="0.83"/>
<path d="M26.9716 21.9674C27.525 20.111 25.9629 18.4095 24.2763 18.8017C22.8779 18.435 21.2727 20.6605 22.2264 22.4457C23.2386 24.3554 26.2728 24.2986 26.9716 21.9674Z" fill="white" fill-opacity="0.83"/>
<path d="M32.6315 23.6209C34.0429 23.3609 34.9905 21.8721 34.6542 20.4969C34.4352 19.5908 33.6891 18.8261 32.6829 18.7054C31.5405 18.0487 29.3747 19.4447 29.6232 21.428C29.8069 22.8566 31.2511 23.8845 32.6315 23.6209Z" fill="white" fill-opacity="0.83"/>
<path d="M57.2361 21.8518C63.2619 21.9201 69.2761 21.7441 75.1963 21.33C76.7915 21.2207 76.692 18.7882 75.0229 18.8707C65.1717 19.5578 57.0851 19.386 57.2505 19.386C56.5763 19.386 56.0257 19.9286 56.0177 20.6044C56.0096 21.2851 56.5554 21.8437 57.2361 21.8518Z" fill="white" fill-opacity="0.83"/>
<path d="M79.6964 21.0991L80.0961 20.8968C80.7029 20.5902 80.9469 19.8485 80.6387 19.2401C80.3337 18.6349 79.5937 18.3829 78.982 18.6975L78.5823 18.8998C77.9755 19.2064 77.7315 19.9481 78.0397 20.5565C78.3533 21.1767 79.108 21.4012 79.6964 21.0991Z" fill="white" fill-opacity="0.83"/>
<path d="M99.3334 68.5695C99.8423 68.1168 99.8888 67.3367 99.4361 66.8294C98.9802 66.3173 98.2 66.2756 97.696 66.7266C92.6537 71.2119 87.8795 76.0744 83.4842 81.1969L77.254 72.464C76.8575 71.9102 76.0885 71.7786 75.5347 72.1767C74.9809 72.5716 74.8508 73.3421 75.2473 73.896L82.3958 83.9179C82.6173 84.2277 82.9689 84.4188 83.3509 84.4332C83.367 84.4348 83.383 84.4348 83.3991 84.4348C83.7619 84.4348 84.1086 84.2743 84.343 83.995C88.9422 78.516 93.9861 73.3277 99.3334 68.5695Z" fill="white" fill-opacity="0.83"/>
<path d="M34.8837 35.4103C28.4922 35.1886 21.8561 35.7767 15.665 35.5531C15.0116 35.5724 14.4546 36.0219 14.3936 36.672C13.859 42.4126 13.7033 48.2367 13.9328 53.9805C13.9585 54.6194 14.469 55.1331 15.1095 55.162C21.0708 55.4323 27.9752 54.8973 33.9382 55.1604C34.5466 55.2101 35.1662 54.6932 35.2208 54.0318C35.6789 48.579 35.6178 42.1151 36.0684 36.7459C36.1286 36.0475 35.5899 35.4372 34.8837 35.4103ZM32.853 52.6545C27.5713 52.4998 21.6089 52.8933 16.3552 52.7396C16.2059 47.8594 16.3376 42.9295 16.7469 38.051C22.4208 38.1596 28.0014 37.7407 33.5128 37.8407C33.1876 42.5978 33.1809 47.9057 32.853 52.6545Z" fill="white" fill-opacity="0.83"/>
<path d="M21.7203 41.5539C21.1569 41.1638 20.3911 41.3067 20.0043 41.8637C19.6158 42.424 19.7554 43.1913 20.3141 43.5798L23.0689 45.4909L20.4923 48.0634C20.0091 48.545 20.0091 49.3252 20.4891 49.8068C20.97 50.2909 21.7534 50.289 22.2324 49.81L25.1277 46.9195C28.1607 48.9415 28.3289 49.3429 29.0052 49.3429C30.2077 49.3429 30.7022 47.7871 29.71 47.097L26.9016 45.1486L29.0197 43.034C29.5013 42.554 29.5013 41.7722 29.0197 41.2906C28.5381 40.809 27.7579 40.809 27.2763 41.2906L24.8428 43.7203L21.7203 41.5539Z" fill="white" fill-opacity="0.83"/>
<path d="M74.0649 41.0031C74.0649 40.3225 73.5126 39.7703 72.832 39.7703H42.0454C41.3647 39.7703 40.8125 40.3225 40.8125 41.0031C40.8125 41.6838 41.3647 42.236 42.0454 42.236H72.832C73.5126 42.236 74.0649 41.6838 74.0649 41.0031Z" fill="white" fill-opacity="0.83"/>
<path d="M59.2335 50.7891H44.1645C43.4839 50.7891 42.9316 51.3413 42.9316 52.0219C42.9316 52.7026 43.4839 53.2548 44.1645 53.2548H59.2335C59.9142 53.2548 60.4664 52.7026 60.4664 52.0219C60.4664 51.3413 59.9142 50.7891 59.2335 50.7891Z" fill="white" fill-opacity="0.83"/>
<path d="M51.3692 60.7485H45.2241C44.5434 60.7485 43.9912 61.3008 43.9912 61.9814C43.9912 62.6621 44.5434 63.2143 45.2241 63.2143H51.3692C52.0499 63.2143 52.6021 62.6621 52.6021 61.9814C52.6021 61.3008 52.0499 60.7485 51.3692 60.7485Z" fill="white" fill-opacity="0.83"/>
</g>
<defs>
<clipPath id="clip0_910_5893">
<rect width="120" height="108" fill="white" transform="translate(0 0.417969)"/>
</clipPath>
</defs>
</svg>
