<svg width="65" height="59" viewBox="0 0 65 59" fill="none" xmlns="http://www.w3.org/2000/svg">
<g clip-path="url(#clip0_807_697)">
<path d="M58.6499 32.0911C58.5117 32.0999 58.3867 32.1008 58.2621 32.1011C56.2197 31.1144 55.2654 29.619 54.6353 27.8549C54.1605 27.7333 53.6977 27.5704 53.2431 27.3872C53.2292 27.332 53.2085 27.2859 53.1954 27.2296C53.1229 26.9193 52.8359 26.6908 52.522 26.7184C52.1406 26.735 51.7473 26.7449 51.3632 26.7583C51.2974 19.5864 51.3877 16.6634 51.6744 9.02154C51.1226 8.54641 50.6643 8.1424 50.1449 7.69206C50.1035 7.30408 49.7924 7.09289 49.4891 7.09763C33.5022 7.26535 19.9411 6.99493 4.42924 7.2666C4.06543 7.27264 3.7749 7.57179 3.77835 7.9356C3.88611 18.6775 3.92922 29.5763 3.91025 41.2544C3.9095 41.5527 4.1122 41.7969 4.3877 41.8788C4.69461 42.4004 5.00142 42.9222 5.30833 43.4439C16.3791 43.6955 23.7838 43.5375 34.7947 43.7436C36.9884 49.1309 40.7697 53.8925 46.114 57.969C46.233 58.0587 46.3743 58.1044 46.5157 58.1044C46.522 58.1044 46.5282 58.1016 46.5345 58.1014C47.1764 58.3555 47.5343 58.3406 48.5651 58.5469C56.2363 53.1981 60.6491 43.6965 60.6661 34.3447C60.1006 33.7495 59.7858 33.2553 59.3495 32.7525C59.3494 32.3409 59.0062 32.0603 58.6499 32.0911ZM33.8351 40.9941C14.2127 40.8933 11.2691 41.1181 5.2353 40.6449C5.24776 32.1141 5.22659 23.9962 5.17147 16.0446H48.8849C48.9039 19.2193 48.911 21.9322 48.8906 26.8405C46.2214 26.9234 43.1993 27.0395 39.3895 27.4486C39.0955 27.4805 38.8576 27.7038 38.8076 27.9952C38.5809 29.3151 37.5869 31.016 36.5446 31.8669C35.548 32.6807 34.6574 32.9721 33.2616 32.9221C32.8051 32.9415 32.5611 33.2722 32.5789 33.6179C32.7111 36.184 33.1363 38.642 33.8351 40.9941ZM48.8383 8.42873C48.8571 11.5489 48.8625 12.5952 48.8765 14.7204H5.1615C5.14625 12.6656 5.12933 10.6181 5.10945 8.5796C20.1575 8.33069 33.2275 8.58091 48.8383 8.42873ZM33.9444 34.2403C35.2867 34.1722 36.3204 33.7592 37.3825 32.8928C38.5533 31.9359 39.6016 30.2461 40.0042 28.7159C44.9836 28.2038 48.5594 28.1983 52.0436 28.0633C52.5367 29.7866 53.3842 31.1031 54.5696 31.9816C55.7032 32.8213 56.5559 33.3696 57.9904 33.4247C57.38 42.9209 55.1446 50.1773 46.5252 56.6129C38.8188 50.5954 34.5884 43.0726 33.9444 34.2403Z" fill="black" fill-opacity="0.83"/>
<path d="M9.01194 13.0738C10.3187 13.0738 10.8494 11.4362 9.89215 10.6771C9.06986 10.0224 7.89268 10.6847 7.72912 11.5375C7.58311 12.2968 8.17797 13.0738 9.01194 13.0738Z" fill="black" fill-opacity="0.83"/>
<path d="M14.4852 12.1729C14.7824 11.1759 13.9435 10.2622 13.0377 10.4728C12.2867 10.2759 11.4247 11.4711 11.9368 12.4298C12.4804 13.4554 14.1099 13.4248 14.4852 12.1729Z" fill="black" fill-opacity="0.83"/>
<path d="M17.5246 13.0608C18.2826 12.9212 18.7914 12.1217 18.6109 11.3832C18.4932 10.8965 18.0925 10.4859 17.5522 10.4211C16.9387 10.0684 15.7756 10.8181 15.909 11.8832C16.0076 12.6504 16.7832 13.2025 17.5246 13.0608Z" fill="black" fill-opacity="0.83"/>
<path d="M30.7384 12.1108C33.9744 12.1475 37.2043 12.053 40.3837 11.8306C41.2404 11.7719 41.1869 10.4655 40.2906 10.5099C35.0001 10.8789 30.6573 10.7866 30.7461 10.7866C30.384 10.7866 30.0883 11.078 30.084 11.4409C30.0797 11.8065 30.3728 12.1065 30.7384 12.1108Z" fill="black" fill-opacity="0.83"/>
<path d="M42.8002 11.7065L43.0149 11.5978C43.3408 11.4332 43.4718 11.0349 43.3063 10.7081C43.1425 10.3831 42.7451 10.2478 42.4166 10.4168L42.2019 10.5254C41.8761 10.69 41.745 11.0883 41.9105 11.4151C42.079 11.7482 42.4842 11.8687 42.8002 11.7065Z" fill="black" fill-opacity="0.83"/>
<path d="M53.3456 37.1999C53.6189 36.9568 53.6439 36.5378 53.4008 36.2654C53.1559 35.9904 52.7369 35.968 52.4662 36.2102C49.7584 38.619 47.1944 41.2303 44.834 43.9813L41.4881 39.2914C41.2752 38.994 40.8622 38.9233 40.5648 39.1371C40.2674 39.3492 40.1976 39.763 40.4105 40.0604L44.2495 45.4426C44.3684 45.609 44.5572 45.7115 44.7624 45.7193C44.771 45.7202 44.7797 45.7202 44.7883 45.7202C44.9831 45.7202 45.1693 45.634 45.2952 45.4839C47.7652 42.5416 50.4739 39.7552 53.3456 37.1999Z" fill="black" fill-opacity="0.83"/>
<path d="M18.7343 19.3922C15.3018 19.2731 11.738 19.589 8.41313 19.4689C8.06226 19.4793 7.7631 19.7206 7.73034 20.0698C7.44326 23.1527 7.35964 26.2804 7.48292 29.3651C7.49671 29.7082 7.77086 29.9841 8.11484 29.9996C11.3163 30.1447 15.0242 29.8574 18.2265 29.9987C18.5533 30.0254 18.886 29.7478 18.9154 29.3927C19.1614 26.4643 19.1285 22.993 19.3706 20.1095C19.4029 19.7344 19.1136 19.4066 18.7343 19.3922ZM17.6437 28.653C14.8073 28.5699 11.6052 28.7812 8.78384 28.6987C8.70367 26.0778 8.77436 23.4303 8.9942 20.8104C12.0412 20.8687 15.0383 20.6437 17.9981 20.6974C17.8234 23.2522 17.8199 26.1027 17.6437 28.653Z" fill="black" fill-opacity="0.83"/>
<path d="M11.6648 22.6915C11.3622 22.482 10.951 22.5587 10.7432 22.8579C10.5346 23.1587 10.6096 23.5708 10.9096 23.7795L12.389 24.8058L11.0053 26.1873C10.7458 26.446 10.7458 26.865 11.0035 27.1236C11.2618 27.3836 11.6826 27.3826 11.9398 27.1253L13.4947 25.573C15.1235 26.6589 15.2138 26.8744 15.577 26.8744C16.2228 26.8744 16.4884 26.0389 15.9555 25.6683L14.4473 24.622L15.5848 23.4863C15.8434 23.2286 15.8434 22.8087 15.5848 22.5501C15.3262 22.2915 14.9072 22.2915 14.6486 22.5501L13.3416 23.8549L11.6648 22.6915Z" fill="black" fill-opacity="0.83"/>
<path d="M39.7757 22.3958C39.7757 22.0302 39.4792 21.7337 39.1136 21.7337H22.5801C22.2145 21.7337 21.918 22.0302 21.918 22.3958C21.918 22.7613 22.2145 23.0579 22.5801 23.0579H39.1136C39.4792 23.0579 39.7757 22.7613 39.7757 22.3958Z" fill="black" fill-opacity="0.83"/>
<path d="M31.8104 27.6512H23.7178C23.3522 27.6512 23.0557 27.9478 23.0557 28.3133C23.0557 28.6788 23.3522 28.9754 23.7178 28.9754H31.8104C32.1759 28.9754 32.4725 28.6788 32.4725 28.3133C32.4725 27.9478 32.1759 27.6512 31.8104 27.6512Z" fill="black" fill-opacity="0.83"/>
<path d="M27.5873 32.9997H24.2871C23.9216 32.9997 23.625 33.2963 23.625 33.6618C23.625 34.0274 23.9216 34.3239 24.2871 34.3239H27.5873C27.9528 34.3239 28.2494 34.0274 28.2494 33.6618C28.2494 33.2963 27.9528 32.9997 27.5873 32.9997Z" fill="black" fill-opacity="0.83"/>
</g>
<defs>
<clipPath id="clip0_807_697">
<rect width="64.4444" height="58" fill="white" transform="translate(0 0.599976)"/>
</clipPath>
</defs>
</svg>
