<svg width="120" height="121" viewBox="0 0 120 121" fill="none" xmlns="http://www.w3.org/2000/svg">
<path d="M62.3639 48.4424L62.3638 48.4423C61.9616 47.8044 61.3047 47.4409 60.5255 47.4409C59.7462 47.4409 59.0893 47.8044 58.6871 48.4423L58.687 48.4424L35.5113 85.1778C35.5113 85.1779 35.5112 85.1779 35.5112 85.1779C35.0952 85.8377 35.077 86.6186 35.4609 87.2965C35.8457 87.9761 36.5418 88.3833 37.3497 88.3833H83.7012C84.5091 88.3833 85.2052 87.9761 85.59 87.2965C85.9734 86.6194 85.9552 85.8385 85.5397 85.1779L62.3639 48.4424ZM62.3639 48.4424L85.5392 85.1772L62.3639 48.4424ZM60.5255 55.2799C58.8275 55.2799 57.4202 56.6382 57.4202 58.3489V73.8661C57.4202 75.5768 58.8275 76.9351 60.5255 76.9351C62.2234 76.9351 63.6307 75.5768 63.6307 73.8661V58.3489C63.6307 56.6382 62.2234 55.2799 60.5255 55.2799ZM60.5255 79.073C58.8275 79.073 57.4202 80.4313 57.4202 82.142V83.1764C57.4202 84.8871 58.8275 86.2454 60.5255 86.2454C62.2234 86.2454 63.6307 84.8871 63.6307 83.1764V82.142C63.6307 80.4313 62.2234 79.073 60.5255 79.073Z" stroke="white" stroke-opacity="0.83" stroke-width="2"/>
<path d="M35.2109 63.5215C35.2109 49.8298 46.552 38.6594 60.5267 38.6594C74.5014 38.6594 85.8425 49.8298 85.8425 63.5215C85.8425 66.3544 85.3527 69.1449 84.4074 71.7815L67.6348 45.1951C67.6347 45.195 67.6346 45.1949 67.6346 45.1948C66.0959 42.7544 63.4331 41.3022 60.5267 41.3022C57.6203 41.3022 54.9573 42.7546 53.4187 45.1951L36.6454 71.7811C35.7007 69.1445 35.2109 66.3542 35.2109 63.5215Z" stroke="white" stroke-opacity="0.83" stroke-width="2"/>
<path d="M20.6026 73.1332L20.6027 73.1335C21.5999 77.1444 23.2027 80.9514 25.3658 84.4495C26.1174 85.6645 25.9232 87.2265 24.9058 88.2263L17.3132 95.688C17.31 95.6912 17.3082 95.6933 17.3074 95.6944L17.3061 95.6961L17.306 95.6963L17.3056 95.6973C17.3052 95.6986 17.3046 95.7009 17.3042 95.7038C17.304 95.7053 17.3039 95.7064 17.3038 95.707C17.3039 95.7076 17.3039 95.7085 17.3041 95.7097C17.3043 95.711 17.3045 95.7121 17.3047 95.7131C17.305 95.7143 17.3053 95.7152 17.3055 95.716L17.306 95.7172L17.3073 95.719C17.3082 95.7201 17.31 95.7223 17.3132 95.7254L16.6122 96.4386L17.3132 95.7254L27.7332 105.967C27.739 105.973 27.7426 105.975 27.744 105.976C27.7458 105.977 27.7483 105.978 27.7521 105.979C27.7562 105.98 27.7612 105.982 27.7666 105.982C27.7721 105.983 27.7759 105.983 27.7764 105.983C27.7775 105.983 27.7814 105.983 27.7869 105.982C27.7892 105.982 27.7915 105.982 27.7937 105.981C27.7964 105.98 27.799 105.98 27.8013 105.979C27.805 105.978 27.8077 105.977 27.8098 105.975C27.8115 105.974 27.8156 105.972 27.8222 105.965L35.4134 98.505L36.1143 99.2183L35.4134 98.505C36.0138 97.915 36.8064 97.6121 37.6038 97.6121C38.154 97.6121 38.7099 97.7561 39.209 98.0545C42.7708 100.181 46.6482 101.758 50.7344 102.74L50.7345 102.74C52.115 103.072 53.1059 104.295 53.1059 105.722V116.28C53.1059 116.283 53.1063 116.284 53.107 116.286C53.1074 116.287 53.1079 116.288 53.1087 116.289C53.1102 116.292 53.1124 116.295 53.1157 116.298C53.126 116.308 53.14 116.314 53.1585 116.314H67.8954C67.9139 116.314 67.9279 116.308 67.9383 116.298C67.9434 116.293 67.9459 116.288 67.9469 116.286C67.9476 116.284 67.948 116.283 67.948 116.28V105.72C67.948 104.293 68.9389 103.07 70.3195 102.738L70.3198 102.738C74.4069 101.756 78.2841 100.18 81.8446 98.0526L82.3575 98.911L81.8446 98.0525C83.0626 97.325 84.628 97.5079 85.6405 98.503L93.2332 105.965C93.239 105.97 93.2426 105.973 93.2439 105.973C93.2445 105.974 93.2451 105.974 93.2458 105.974C93.2474 105.975 93.2494 105.976 93.252 105.977C93.2561 105.978 93.2611 105.979 93.2667 105.98C93.2724 105.981 93.2764 105.981 93.2775 105.981C93.278 105.981 93.2818 105.981 93.2873 105.98C93.2927 105.979 93.2977 105.978 93.3018 105.977C93.3056 105.976 93.3081 105.975 93.3099 105.973C93.3113 105.973 93.3149 105.97 93.3208 105.965L94.0217 106.678L93.3208 105.965L103.742 95.7243C103.744 95.7225 103.745 95.7209 103.746 95.7198C103.747 95.719 103.747 95.7184 103.748 95.718L103.749 95.7162L103.749 95.7149C103.75 95.7136 103.75 95.7114 103.751 95.7087C103.751 95.7075 103.751 95.7066 103.751 95.7061C103.751 95.7055 103.751 95.7044 103.751 95.7031C103.75 95.7004 103.75 95.6983 103.749 95.6969L103.749 95.6953L103.747 95.6929C103.746 95.6921 103.745 95.691 103.744 95.6895C103.743 95.6885 103.742 95.6872 103.741 95.6859C103.741 95.6858 103.741 95.6857 103.74 95.6857L96.1492 88.2253C95.1318 87.2255 94.9376 85.6635 95.6891 84.4485C97.8521 80.9506 99.454 77.1436 100.452 73.1324L20.6026 73.1332ZM20.6026 73.1332C20.2586 71.7515 19.0061 70.7972 17.587 70.7972H6.84169C6.82315 70.7972 6.80916 70.7907 6.79881 70.7805C6.79366 70.7755 6.79117 70.771 6.79016 70.7687C6.78947 70.7671 6.78906 70.7658 6.78906 70.7628V56.28C6.78906 56.277 6.78947 56.2756 6.79016 56.274C6.79117 56.2717 6.79366 56.2673 6.79881 56.2622C6.80916 56.2521 6.82315 56.2455 6.84169 56.2455H17.587C19.004 56.2455 20.2593 55.2919 20.6009 53.9087L19.6301 53.669L20.6006 53.9103C21.5978 49.9005 23.2005 46.0935 25.3637 42.5943C26.1152 41.3793 25.9211 39.8173 24.9037 38.8175L17.3124 31.3571C17.3123 31.357 17.3122 31.3569 17.3121 31.3568C17.3111 31.3558 17.3102 31.3548 17.3094 31.354C17.3077 31.3522 17.3066 31.3508 17.3059 31.3499L17.3042 31.3475L17.3034 31.3458C17.303 31.3445 17.3024 31.3424 17.302 31.3397C17.3019 31.3384 17.3018 31.3374 17.3017 31.3368M20.6026 73.1332L17.3017 31.3368M100.449 53.9095L100.449 53.9093C99.4519 49.8993 97.8491 46.0913 95.686 42.5933C94.934 41.3776 95.1304 39.8161 96.1455 38.817L96.146 38.8164L103.739 31.3547C103.742 31.3516 103.744 31.3494 103.744 31.3484L103.746 31.3466L103.746 31.3464L103.746 31.3455C103.747 31.3441 103.747 31.3419 103.748 31.339C103.748 31.336 103.748 31.3344 103.748 31.3355C103.748 31.3371 103.748 31.3358 103.748 31.333C103.748 31.3319 103.747 31.3308 103.747 31.3299C103.747 31.3286 103.747 31.3276 103.746 31.3268L103.746 31.3255L103.744 31.3237C103.744 31.3226 103.742 31.3205 103.739 31.3174L104.44 30.6041L103.739 31.3173L93.3186 21.0759C93.3128 21.0702 93.3092 21.068 93.3078 21.0672C93.306 21.0661 93.3035 21.0649 93.2997 21.0637C93.2956 21.0624 93.2906 21.0612 93.2852 21.0605C93.2797 21.0597 93.2759 21.0596 93.2754 21.0596C93.2749 21.0596 93.2737 21.0597 93.2721 21.0598C93.2702 21.0599 93.2678 21.0601 93.265 21.0605C93.2596 21.0612 93.2546 21.0624 93.2506 21.0637C93.2468 21.0649 93.2442 21.0661 93.242 21.0674C93.2411 21.068 93.2393 21.069 93.2369 21.0709C93.2349 21.0725 93.2325 21.0745 93.2297 21.0773L85.639 28.5372C84.6265 29.5338 83.0598 29.7138 81.8433 28.9886L81.8427 28.9882C78.2799 26.861 74.4026 25.2842 70.3176 24.303L70.5512 23.3307M100.449 53.9095L17.311 31.3184M100.449 53.9095C100.793 55.2912 102.046 56.2455 103.465 56.2455H114.21C114.229 56.2455 114.243 56.2521 114.253 56.2622C114.258 56.2673 114.261 56.2717 114.262 56.274C114.262 56.2756 114.263 56.277 114.263 56.28V70.7617C114.263 70.7647 114.262 70.7661 114.262 70.7677C114.261 70.77 114.258 70.7744 114.253 70.7795C114.243 70.7897 114.229 70.7962 114.21 70.7962H103.468C102.049 70.7962 100.796 71.7489 100.452 73.1323L100.449 53.9095ZM70.5512 23.3307L70.3191 24.3034C68.9372 23.9737 67.947 22.748 67.947 21.3228V10.7628C67.947 10.7597 67.9466 10.7584 67.9459 10.7568C67.9449 10.7545 67.9424 10.75 67.9372 10.745C67.9269 10.7348 67.9129 10.7283 67.8943 10.7283H53.1575C53.1389 10.7283 53.125 10.7348 53.1146 10.745C53.1095 10.75 53.107 10.7545 53.1059 10.7568C53.1053 10.7584 53.1049 10.7597 53.1049 10.7628V21.3228C53.1049 22.75 52.1139 23.9731 50.7334 24.305L50.7331 24.3051C46.6481 25.2863 42.7698 26.8631 39.2081 28.9903L39.2074 28.9907C37.9903 29.7163 36.4266 29.535 35.4129 28.5403L35.4123 28.5398L27.8197 21.0781C27.8139 21.0723 27.8103 21.0701 27.8089 21.0693C27.8078 21.0686 27.8063 21.0679 27.8044 21.0671C27.8034 21.0667 27.8022 21.0663 27.8009 21.0658C27.7968 21.0645 27.7917 21.0634 27.7861 21.0626C27.7805 21.0618 27.7764 21.0617 27.7754 21.0617C27.7748 21.0617 27.7711 21.0618 27.7656 21.0625C27.7602 21.0633 27.7552 21.0644 27.7511 21.0658C27.7473 21.067 27.7448 21.0682 27.743 21.0693C27.7415 21.0701 27.738 21.0723 27.7321 21.0781L27.7321 21.0781L17.311 31.3184L17.311 31.3184M70.5512 23.3307C69.6101 23.1062 68.947 22.2755 68.947 21.3228V10.7628C68.947 10.1928 68.4743 9.72827 67.8943 9.72827H53.1575C52.5775 9.72827 52.1049 10.1928 52.1049 10.7628V21.3228C52.1049 22.2765 51.4417 23.1062 50.4996 23.3328M70.5512 23.3307C74.7333 24.3352 78.7049 25.95 82.3554 28.1296C83.1849 28.6241 84.2522 28.499 84.9375 27.8245L50.4996 23.3328M17.311 31.3184C17.3096 31.3198 17.3085 31.3209 17.3076 31.3219C17.3065 31.3232 17.3057 31.3241 17.3052 31.3247L17.3039 31.3265L17.3034 31.3278C17.303 31.3291 17.3024 31.3313 17.302 31.334C17.3018 31.3353 17.3018 31.3362 17.3017 31.3368M17.311 31.3184L17.3017 31.3368M50.4996 23.3328C46.3175 24.3372 42.3449 25.9521 38.6954 28.1317L50.4996 23.3328ZM60.5259 32.5214C43.1575 32.5214 28.9996 46.4103 28.9996 63.5214C28.9996 68.6147 30.2801 73.5946 32.6898 78.0504L30.2423 81.9302C28.6164 84.507 28.5415 87.6449 30.0421 90.2942C31.5415 92.9414 34.2833 94.5203 37.3501 94.5203H83.7017C86.7674 94.5203 89.5103 92.9415 91.0097 90.2942C92.5103 87.6449 92.4355 84.5071 90.8096 81.9302C90.8096 81.9302 90.8095 81.9302 90.8095 81.9302L88.362 78.0504C90.7717 73.5946 92.0522 68.6147 92.0522 63.5214C92.0522 46.4103 77.8944 32.5214 60.5259 32.5214Z" stroke="white" stroke-opacity="0.83" stroke-width="2"/>
</svg>
