<svg width="58" height="58" viewBox="0 0 58 58" fill="none" xmlns="http://www.w3.org/2000/svg">
<path fill-rule="evenodd" clip-rule="evenodd" d="M36.3175 33.5024C36.7223 34.1833 37.0208 34.9167 37.2099 35.6828L39.4646 36.3425C39.7111 36.4138 39.8694 36.6434 39.8604 36.8887L39.8543 38.4559C39.8543 38.7067 39.6858 38.9187 39.4562 38.984V38.9852L37.1954 39.6286C37.0008 40.3941 36.6963 41.1233 36.2867 41.8018L37.4141 43.8632C37.5337 44.0825 37.4878 44.3472 37.3192 44.5151L36.1937 45.6328C36.0112 45.8141 35.7339 45.8413 35.523 45.7138L33.4864 44.5798C32.8067 44.9833 32.0708 45.283 31.306 45.4715L30.6462 47.7263C30.5749 47.9728 30.3453 48.1304 30.1 48.122L28.5328 48.1159C28.2815 48.1159 28.07 47.9474 28.0048 47.7172L28.0036 47.7178L27.3602 45.457C26.5947 45.2619 25.866 44.958 25.187 44.5483L23.1255 45.6757C22.9062 45.7953 22.641 45.7494 22.4737 45.5809L21.3559 44.4553C21.1747 44.2728 21.1475 43.9955 21.275 43.7847L22.409 41.748C22.0066 41.0695 21.7058 40.3313 21.5173 39.5676L19.2625 38.9078C19.016 38.8366 18.8577 38.607 18.8668 38.3617L18.8722 36.7945C18.8722 36.5437 19.0408 36.3323 19.271 36.2664L19.2704 36.2652L21.5312 35.6218C21.7257 34.8563 22.0302 34.1277 22.4398 33.4486L21.3124 31.3872C21.1928 31.1679 21.2387 30.9032 21.4073 30.7353L22.5335 29.6176C22.7159 29.4363 22.9932 29.4091 23.2041 29.5366L25.2407 30.6706C25.9222 30.2658 26.6551 29.9674 27.4212 29.7783L28.0809 27.5235C28.1522 27.277 28.3818 27.1187 28.6271 27.1278L30.1943 27.1338C30.445 27.1338 30.6571 27.3024 30.7223 27.5326L30.7235 27.532L31.367 29.7928C32.1319 29.9873 32.8611 30.2912 33.5402 30.7014L35.6016 29.5741C35.8209 29.4544 36.0855 29.5004 36.2535 29.6689L37.3712 30.7945C37.5524 30.9769 37.5796 31.2543 37.4522 31.4651L36.3175 33.5024ZM29.4639 50.9712C28.9135 50.9712 28.4138 51.196 28.0519 51.5579C26.788 52.8218 27.7021 54.969 29.4639 54.969H31.2014C32.0171 54.969 32.736 54.4724 33.0435 53.7438C33.5649 53.9147 34.0882 54.0471 34.6253 54.1431C41.7532 55.4191 48.57 50.5459 49.6883 43.424H49.8551C51.7564 43.424 53.3097 41.8707 53.3097 39.9694V39.8226H53.9338C55.0751 39.8226 56.0067 38.8909 56.0067 37.7497V35.1493C56.0067 34.0081 55.0751 33.0764 53.9338 33.0764H53.3097V32.9405C53.3097 31.6911 52.6361 30.5728 51.6017 29.9626L51.551 29.617C50.9788 25.7207 49.4044 22.0951 46.9998 19.0434L54.3235 19.012C55.582 19.0066 56.4731 17.8297 56.4731 16.5664V5.96263C56.4731 4.6969 55.5778 3.51455 54.3211 3.51455H30.7628C29.5062 3.51455 28.6108 4.69751 28.6108 5.96263V10.4921C23.285 10.6709 18.3792 12.7214 14.5887 16.0432C10.6314 19.5111 7.93982 24.2876 7.16044 29.8212C5.9799 30.3855 5.18723 31.5859 5.18723 32.9405V33.0764H4.56313C3.42186 33.0764 2.49023 34.0081 2.49023 35.1493V37.7497C2.49023 38.8909 3.42186 39.8226 4.56313 39.8226H5.18723V39.9694C5.18723 41.8707 6.74055 43.424 8.64186 43.424H10.1335C12.0349 43.424 13.5882 41.8707 13.5882 39.9694V32.9405C13.5882 31.7527 12.9798 30.6851 12.0324 30.058C13.3604 21.8854 20.2842 15.7012 28.6108 15.3478V16.5658C28.6108 17.8309 29.5062 19.0138 30.7628 19.0138H33.9456L32.4098 22.4534C32.1947 22.9361 32.7276 23.4206 33.1885 23.1506L40.1498 19.0731L40.2078 19.0724C41.9357 20.4288 43.4026 22.1005 44.5209 24.0006C45.5758 25.7932 46.3219 27.7918 46.685 29.9227C45.6132 30.5226 44.9094 31.6633 44.9094 32.9399V39.9688C44.9094 41.8701 46.4633 43.4234 48.364 43.4234H48.5737C47.6094 49.027 42.6957 53.2381 36.9314 53.2381C35.5913 53.2381 34.4035 53.0598 33.1704 52.6267C33.0055 51.6817 32.1778 50.9706 31.2014 50.9706H29.4639V50.9712ZM31.2014 52.0732C31.4473 52.0732 31.6715 52.1741 31.8346 52.3373C32.4055 52.9082 31.9857 53.8676 31.2014 53.8676H29.4639C29.218 53.8676 28.9938 53.7667 28.8307 53.6036C28.2598 53.0327 28.679 52.0732 29.4639 52.0732H31.2014ZM10.1335 30.5873C11.4265 30.5873 12.4868 31.647 12.4868 32.9405V39.9694C12.4868 41.2623 11.4265 42.3226 10.1335 42.3226H8.64186C7.34894 42.3226 6.28923 41.2629 6.28923 39.9694V32.9405C6.28923 31.6476 7.34894 30.5873 8.64186 30.5873H10.1335ZM8.64186 29.4859H10.1335C10.4314 29.4859 10.7208 29.5239 10.9969 29.5958C12.5267 21.0318 19.8431 14.6016 28.6108 14.25V11.591C18.4608 11.9487 9.92813 19.4561 8.31984 29.501C8.42617 29.4907 8.53371 29.4859 8.64186 29.4859ZM5.18723 38.7206H4.56313C4.03026 38.7206 3.59163 38.2825 3.59163 37.7491V35.1487C3.59163 34.8823 3.70098 34.6394 3.8774 34.463C4.23748 34.1035 4.66282 34.1772 5.18723 34.1772V38.7206ZM48.3634 29.4859C48.1489 29.4859 47.9387 29.5058 47.7351 29.5439C46.9974 25.4833 44.9281 21.8099 41.9018 19.0664L45.5848 19.0507C48.1248 22.0178 49.8062 25.6264 50.4254 29.5342C49.9572 29.4544 48.8782 29.4859 48.3634 29.4859ZM53.3097 34.1778H53.9338C54.4667 34.1778 54.9047 34.6158 54.9047 35.1487V37.7491C54.9047 38.0155 54.7954 38.2584 54.6189 38.4348C54.2589 38.7949 53.8341 38.7206 53.3091 38.7206L53.3097 34.1778ZM49.8551 30.5873C51.148 30.5873 52.2083 31.647 52.2083 32.9405V39.9694C52.2083 41.2623 51.1486 42.3226 49.8551 42.3226H48.3634C47.0705 42.3226 46.0102 41.2629 46.0102 39.9694V32.9405C46.0102 31.6476 47.0699 30.5873 48.3634 30.5873H49.8551ZM40.363 17.9747C40.131 17.9759 39.8996 17.9475 39.722 18.0514L34.1099 21.3393L35.2941 18.687C35.4572 18.3215 35.1817 17.9137 34.7926 17.9143V17.9124H30.7628C30.1351 17.9124 29.7128 17.2285 29.7128 16.5658V5.96263C29.7128 5.30047 30.1351 4.61595 30.7628 4.61595H54.3217C54.9494 4.61595 55.3723 5.29986 55.3723 5.96263V16.5658C55.3723 17.2309 54.9452 17.9118 54.3199 17.9143L45.8489 17.9511C45.838 17.9511 45.8271 17.9511 45.8162 17.9511L40.4253 17.9747C40.4041 17.9735 40.3836 17.9735 40.363 17.9747ZM35.0319 15.0723C34.3069 15.0723 34.3069 13.9709 35.0319 13.9709H50.0527C50.7783 13.9709 50.7783 15.0723 50.0527 15.0723H35.0319ZM35.0319 11.5548C34.3069 11.5548 34.3069 10.4534 35.0319 10.4534H50.0527C50.7783 10.4534 50.7783 11.5548 50.0527 11.5548H35.0319ZM35.0319 8.03795C34.3069 8.03795 34.3069 6.93595 35.0319 6.93595H50.0527C50.7783 6.93595 50.7783 8.03795 50.0527 8.03795H35.0319ZM29.3853 32.6148V32.6173C26.608 32.6046 24.352 34.866 24.352 37.6034H24.3544C24.3417 40.3808 26.6031 42.6374 29.3406 42.6374V42.6349C32.118 42.6476 34.3745 40.3868 34.3745 37.6488H34.3721C34.3848 34.8708 32.1234 32.6148 29.3853 32.6148ZM29.3859 33.7168L29.3853 33.715C27.2544 33.6842 25.4534 35.449 25.4534 37.6034L25.451 37.604C25.4159 39.7259 27.1819 41.536 29.34 41.536V41.5378C31.4691 41.5698 33.2719 39.8044 33.2719 37.6488H33.2737C33.307 35.5215 31.5416 33.7168 29.3859 33.7168ZM35.8275 34.9747C35.665 34.5772 35.4638 34.1917 35.224 33.8232C35.1134 33.6576 35.0971 33.4371 35.2004 33.2504L36.2994 31.2754L35.7635 30.7353L33.8084 31.8047C33.6314 31.9146 33.3994 31.9194 33.2139 31.7968C32.5493 31.357 31.6141 30.9401 30.842 30.7987C30.6353 30.7673 30.4559 30.6193 30.3949 30.4054L29.7762 28.2304L29.0174 28.2274L28.383 30.3963C28.3274 30.5867 28.1709 30.7401 27.9637 30.7818C27.133 30.9492 26.2757 31.2935 25.5609 31.7648C25.3954 31.8753 25.1749 31.8923 24.9882 31.7883L23.0132 30.6888L22.473 31.2247L23.5424 33.1797C23.6524 33.3568 23.6572 33.5894 23.5346 33.7742C23.0947 34.4388 22.6779 35.3741 22.5359 36.1462C22.5045 36.3528 22.3564 36.5323 22.142 36.5933L19.967 37.2126L19.9639 37.972L22.1329 38.6064C22.3226 38.6613 22.4767 38.8184 22.5184 39.0257C22.6863 39.8606 23.0271 40.7095 23.5013 41.4284C23.6125 41.594 23.6288 41.8151 23.5249 42.0012L22.4259 43.9762L22.9624 44.5163L24.9175 43.4469C25.0945 43.3364 25.3265 43.3322 25.512 43.4548C26.176 43.8946 27.1118 44.3115 27.884 44.4535C28.0906 44.4849 28.27 44.6329 28.331 44.8474L28.9497 47.0224L29.7092 47.0254L30.3441 44.8565C30.3991 44.6662 30.5562 44.5127 30.7634 44.471C31.5996 44.3024 32.4503 43.9599 33.1662 43.488C33.3317 43.3769 33.5523 43.3605 33.7389 43.4645L35.714 44.5634L36.2541 44.0275L35.1847 42.0725C35.0748 41.8954 35.0705 41.6634 35.1932 41.478C35.633 40.8134 36.0499 39.8781 36.1919 39.106C36.2233 38.8994 36.3713 38.7199 36.5852 38.6589L38.7602 38.0397L38.7632 37.2808L36.5942 36.6464C36.4045 36.5909 36.2505 36.4344 36.2088 36.2272C36.1212 35.8024 35.9949 35.3831 35.8275 34.9747Z" fill="black"/>
</svg>
