<svg width="120" height="121" viewBox="0 0 120 121" fill="none" xmlns="http://www.w3.org/2000/svg">
<path fill-rule="evenodd" clip-rule="evenodd" d="M75.1418 70.233C75.9793 71.6417 76.5968 73.1592 76.988 74.7442L81.653 76.1092C82.163 76.2567 82.4905 76.7317 82.4718 77.2392L82.4593 80.4817C82.4593 81.0005 82.1105 81.4392 81.6356 81.5742V81.5767L76.958 82.908C76.5555 84.4917 75.9255 86.0005 75.078 87.4042L77.4105 91.6692C77.6581 92.123 77.563 92.6705 77.2143 93.018L74.8855 95.3305C74.508 95.7055 73.9343 95.7617 73.498 95.498L69.2843 93.1517C67.878 93.9867 66.3555 94.6067 64.773 94.9967L63.408 99.6617C63.2605 100.172 62.7855 100.498 62.278 100.48L59.0355 100.468C58.5155 100.468 58.078 100.119 57.943 99.643L57.9405 99.6442L56.6093 94.9667C55.0255 94.563 53.518 93.9342 52.113 93.0867L47.848 95.4192C47.3943 95.6667 46.8455 95.5717 46.4993 95.223L44.1868 92.8942C43.8118 92.5167 43.7555 91.943 44.0193 91.5067L46.3655 87.293C45.533 85.8892 44.9105 84.3617 44.5205 82.7817L39.8555 81.4167C39.3455 81.2692 39.018 80.7942 39.0368 80.2867L39.048 77.0442C39.048 76.5255 39.3968 76.088 39.873 75.9517L39.8718 75.9492L44.5493 74.618C44.9518 73.0342 45.5818 71.5267 46.4293 70.1217L44.0968 65.8567C43.8493 65.403 43.9443 64.8555 44.293 64.508L46.623 62.1955C47.0005 61.8205 47.5743 61.7642 48.0105 62.028L52.2243 64.3742C53.6343 63.5367 55.1505 62.9192 56.7355 62.528L58.1005 57.863C58.248 57.353 58.723 57.0255 59.2305 57.0442L62.473 57.0567C62.9918 57.0567 63.4305 57.4055 63.5655 57.8817L63.568 57.8805L64.8993 62.558C66.4818 62.9605 67.9905 63.5892 69.3955 64.438L73.6605 62.1055C74.1143 61.858 74.6618 61.953 75.0093 62.3017L77.3218 64.6305C77.6968 65.008 77.753 65.5817 77.4893 66.018L75.1418 70.233ZM60.9618 106.375C59.823 106.375 58.7893 106.84 58.0405 107.589C55.4255 110.204 57.3168 114.647 60.9618 114.647H64.5568C66.2443 114.647 67.7318 113.619 68.368 112.112C69.4468 112.465 70.5293 112.739 71.6405 112.938C86.388 115.578 100.492 105.495 102.806 90.7605H103.151C107.084 90.7605 110.298 87.5467 110.298 83.613V83.3092H111.589C113.951 83.3092 115.878 81.3817 115.878 79.0205V73.6405C115.878 71.2792 113.951 69.3517 111.589 69.3517H110.298V69.0705C110.298 66.4855 108.904 64.1717 106.764 62.9092L106.659 62.1942C105.476 54.133 102.218 46.6317 97.2431 40.318L112.396 40.253C114.999 40.2417 116.843 37.8067 116.843 35.193V13.2542C116.843 10.6355 114.991 8.18921 112.391 8.18921H63.6493C61.0493 8.18921 59.1968 10.6367 59.1968 13.2542V22.6255C48.178 22.9955 38.028 27.238 30.1855 34.1105C21.998 41.2855 16.4293 51.168 14.8168 62.6167C12.3743 63.7842 10.7343 66.268 10.7343 69.0705V69.3517H9.44305C7.0818 69.3517 5.1543 71.2792 5.1543 73.6405V79.0205C5.1543 81.3817 7.0818 83.3092 9.44305 83.3092H10.7343V83.613C10.7343 87.5467 13.948 90.7605 17.8818 90.7605H20.968C24.9018 90.7605 28.1155 87.5467 28.1155 83.613V69.0705C28.1155 66.613 26.8568 64.4042 24.8968 63.1067C27.6443 46.198 41.9693 33.403 59.1968 32.6717V35.1917C59.1968 37.8092 61.0493 40.2567 63.6493 40.2567H70.2343L67.0568 47.373C66.6118 48.3717 67.7143 49.3742 68.668 48.8155L83.0705 40.3792L83.1905 40.378C86.7655 43.1842 89.8005 46.643 92.1143 50.5742C94.2968 54.283 95.8405 58.418 96.5918 62.8267C94.3743 64.068 92.9181 66.428 92.9181 69.0692V83.6117C92.9181 87.5455 96.133 90.7592 100.066 90.7592H100.499C98.5043 102.353 88.3381 111.065 76.4118 111.065C73.6393 111.065 71.1818 110.697 68.6305 109.8C68.2893 107.845 66.5768 106.374 64.5568 106.374H60.9618V106.375ZM64.5568 108.655C65.0655 108.655 65.5293 108.864 65.8668 109.202C67.048 110.383 66.1793 112.368 64.5568 112.368H60.9618C60.453 112.368 59.9893 112.159 59.6518 111.822C58.4705 110.64 59.338 108.655 60.9618 108.655H64.5568ZM20.968 64.2017C23.643 64.2017 25.8368 66.3942 25.8368 69.0705V83.613C25.8368 86.288 23.643 88.4817 20.968 88.4817H17.8818C15.2068 88.4817 13.0143 86.2892 13.0143 83.613V69.0705C13.0143 66.3955 15.2068 64.2017 17.8818 64.2017H20.968ZM17.8818 61.923H20.968C21.5843 61.923 22.183 62.0017 22.7543 62.1505C25.9193 44.4317 41.0568 31.128 59.1968 30.4005V24.8992C38.1968 25.6392 20.543 41.1717 17.2155 61.9542C17.4355 61.933 17.658 61.923 17.8818 61.923ZM10.7343 81.0292H9.44305C8.34055 81.0292 7.43305 80.123 7.43305 79.0192V73.6392C7.43305 73.088 7.6593 72.5855 8.0243 72.2205C8.7693 71.4767 9.6493 71.6292 10.7343 71.6292V81.0292ZM100.064 61.923C99.6206 61.923 99.1855 61.9642 98.7643 62.043C97.238 53.6417 92.9568 46.0417 86.6955 40.3655L94.3156 40.333C99.5705 46.4717 103.049 53.938 104.331 62.023C103.362 61.858 101.129 61.923 100.064 61.923ZM110.298 71.6305H111.589C112.692 71.6305 113.598 72.5367 113.598 73.6392V79.0192C113.598 79.5705 113.372 80.073 113.007 80.438C112.262 81.183 111.383 81.0292 110.297 81.0292L110.298 71.6305ZM103.151 64.2017C105.826 64.2017 108.019 66.3942 108.019 69.0705V83.613C108.019 86.288 105.827 88.4817 103.151 88.4817H100.064C97.3893 88.4817 95.1956 86.2892 95.1956 83.613V69.0705C95.1956 66.3955 97.388 64.2017 100.064 64.2017H103.151ZM83.5118 38.1067C83.0318 38.1092 82.553 38.0505 82.1855 38.2655L70.5743 45.068L73.0243 39.5805C73.3618 38.8242 72.7918 37.9805 71.9868 37.9817V37.978H63.6493C62.3505 37.978 61.4768 36.563 61.4768 35.1917V13.2542C61.4768 11.8842 62.3505 10.468 63.6493 10.468H112.392C113.691 10.468 114.566 11.883 114.566 13.2542V35.1917C114.566 36.568 113.682 37.9767 112.388 37.9817L94.8618 38.058C94.8393 38.058 94.8168 38.058 94.7943 38.058L83.6405 38.1067C83.5968 38.1042 83.5543 38.1042 83.5118 38.1067ZM72.4818 32.1017C70.9818 32.1017 70.9818 29.823 72.4818 29.823H103.559C105.061 29.823 105.061 32.1017 103.559 32.1017H72.4818ZM72.4818 24.8242C70.9818 24.8242 70.9818 22.5455 72.4818 22.5455H103.559C105.061 22.5455 105.061 24.8242 103.559 24.8242H72.4818ZM72.4818 17.548C70.9818 17.548 70.9818 15.268 72.4818 15.268H103.559C105.061 15.268 105.061 17.548 103.559 17.548H72.4818ZM60.7993 68.3967V68.4017C55.053 68.3755 50.3855 73.0542 50.3855 78.718H50.3905C50.3643 84.4642 55.043 89.133 60.7068 89.133V89.128C66.453 89.1542 71.1218 84.4767 71.1218 78.8117H71.1168C71.1431 73.0642 66.4643 68.3967 60.7993 68.3967ZM60.8005 70.6767L60.7993 70.673C56.3905 70.6092 52.6643 74.2605 52.6643 78.718L52.6593 78.7192C52.5868 83.1092 56.2405 86.8542 60.7055 86.8542V86.858C65.1105 86.9242 68.8405 83.2717 68.8405 78.8117H68.8443C68.913 74.4105 65.2605 70.6767 60.8005 70.6767ZM74.128 73.2792C73.7918 72.4567 73.3755 71.6592 72.8793 70.8967C72.6506 70.5542 72.6168 70.098 72.8305 69.7117L75.1043 65.6255L73.9955 64.508L69.9505 66.7205C69.5843 66.948 69.1043 66.958 68.7205 66.7042C67.3455 65.7942 65.4105 64.9317 63.813 64.6392C63.3855 64.5742 63.0143 64.268 62.888 63.8255L61.608 59.3255L60.038 59.3192L58.7255 63.8067C58.6105 64.2005 58.2868 64.518 57.858 64.6042C56.1393 64.9505 54.3655 65.663 52.8868 66.638C52.5443 66.8667 52.088 66.9017 51.7018 66.6867L47.6155 64.4117L46.498 65.5205L48.7105 69.5655C48.938 69.9317 48.948 70.413 48.6943 70.7955C47.7843 72.1705 46.9218 74.1055 46.628 75.703C46.563 76.1305 46.2568 76.5017 45.813 76.628L41.313 77.9092L41.3068 79.4805L45.7943 80.793C46.1868 80.9067 46.5055 81.2317 46.5918 81.6605C46.9393 83.388 47.6443 85.1442 48.6255 86.6317C48.8555 86.9742 48.8893 87.4317 48.6743 87.8167L46.4005 91.903L47.5105 93.0205L51.5555 90.808C51.9218 90.5792 52.4018 90.5705 52.7855 90.8242C54.1593 91.7342 56.0955 92.5967 57.693 92.8905C58.1205 92.9555 58.4918 93.2617 58.618 93.7055L59.898 98.2055L61.4693 98.2117L62.783 93.7242C62.8968 93.3305 63.2218 93.013 63.6505 92.9267C65.3805 92.578 67.1405 91.8692 68.6218 90.893C68.9643 90.663 69.4205 90.6292 69.8068 90.8442L73.893 93.118L75.0105 92.0092L72.798 87.9642C72.5705 87.598 72.5618 87.118 72.8155 86.7342C73.7255 85.3592 74.588 83.4242 74.8818 81.8267C74.9468 81.3992 75.253 81.028 75.6955 80.9017L80.1955 79.6205L80.2018 78.0505L75.7143 76.738C75.3218 76.623 75.003 76.2992 74.9168 75.8705C74.7355 74.9917 74.4743 74.1242 74.128 73.2792Z" fill="white" fill-opacity="0.83"/>
</svg>
