<svg width="59" height="59" viewBox="0 0 59 59" fill="none" xmlns="http://www.w3.org/2000/svg">
<path d="M29.6987 42.8H18.4971C18.2897 42.8 18.1265 42.7006 18.0338 42.5368C17.942 42.3746 17.946 42.2008 18.0456 42.0429L29.2471 24.2876L29.2472 24.2874C29.3454 24.1317 29.4965 24.0445 29.6987 24.0445C29.9009 24.0445 30.052 24.1317 30.1502 24.2874L30.1503 24.2876L41.3515 42.0423C41.3516 42.0424 41.3517 42.0426 41.3517 42.0427C41.4515 42.2014 41.4551 42.3753 41.3637 42.5368C41.2709 42.7006 41.1078 42.8 40.9004 42.8H29.6987ZM29.6987 42.8C30.7962 42.8 31.7163 41.9206 31.7163 40.8V40.3C31.7163 39.1794 30.7962 38.3 29.6987 38.3M29.6987 42.8C28.6012 42.8 27.6812 41.9206 27.6812 40.8V40.3C27.6812 39.1794 28.6012 38.3 29.6987 38.3M29.6987 38.3C30.7962 38.3 31.7163 37.4206 31.7163 36.3V28.8C31.7163 27.6794 30.7962 26.8 29.6987 26.8C28.6012 26.8 27.6812 27.6794 27.6812 28.8V36.3C27.6812 37.4206 28.6012 38.3 29.6987 38.3Z" stroke="black" stroke-opacity="0.83" stroke-width="2"/>
<path d="M17.9795 31.3C17.9795 24.9761 23.2212 19.8 29.6988 19.8C36.1764 19.8 41.4181 24.9761 41.4181 31.3C41.4181 32.2372 41.3021 33.1642 41.076 34.0623L33.5714 22.1667C33.5713 22.1666 33.5713 22.1665 33.5712 22.1664C32.7314 20.8346 31.2781 20.044 29.6988 20.044C28.1194 20.044 26.6659 20.8347 25.8262 22.1667L18.3214 34.0619C18.0954 33.1639 17.9795 32.237 17.9795 31.3Z" stroke="black" stroke-opacity="0.83" stroke-width="2"/>
<path d="M10.9035 35.8212L10.9034 35.8209C10.6785 34.9175 9.8622 34.3 8.9445 34.3H4.24219V28.3H8.9445C9.86017 28.3 10.6783 27.6838 10.9025 26.7793C11.3716 24.8929 12.1255 23.1024 13.1428 21.4568C13.6337 20.663 13.5058 19.6426 12.8431 18.9913L9.5391 15.7443L13.8691 11.4893L17.198 14.7607L17.1985 14.7613C17.8571 15.4075 18.8704 15.5241 19.659 15.0539L19.6597 15.0535C21.3357 14.0525 23.1615 13.31 25.0858 12.8478L25.0861 12.8478C25.9799 12.6328 26.6282 11.8384 26.6282 10.904V6.29999H32.7685V10.904C32.7685 11.8365 33.4154 12.6326 34.3103 12.8468C36.2345 13.309 38.0599 14.0515 39.7366 15.0526L39.7372 15.0529C40.5249 15.5225 41.5397 15.4073 42.1982 14.7597C42.1984 14.7595 42.1986 14.7594 42.1987 14.7592L45.527 11.4883L49.8566 15.7437L46.5526 18.9908L46.552 18.9913C45.891 19.6419 45.7615 20.6619 46.2529 21.4564C47.2701 23.1014 48.024 24.8923 48.4932 26.7788L48.4932 26.7791C48.7182 27.6824 49.5345 28.3 50.4522 28.3H55.1545V34.2995H50.4537C49.5365 34.2995 48.7198 34.916 48.4947 35.8205C48.025 37.7077 47.2716 39.4981 46.2544 41.143C45.7635 41.9369 45.8913 42.9574 46.5541 43.6087L49.8581 46.8557L45.528 51.1107L42.1992 47.8393C41.5413 47.1927 40.5268 47.0749 39.7374 47.5465L39.7374 47.5465C38.0619 48.5475 36.2367 49.2899 34.3115 49.7521L34.3111 49.7522C33.4173 49.9671 32.769 50.7616 32.769 51.696V56.3H26.6287V51.697C26.6287 50.7626 25.9804 49.9681 25.0866 49.7532L25.0865 49.7532C23.1616 49.2905 21.3362 48.548 19.66 47.5473C19.336 47.3538 18.9753 47.2605 18.6193 47.2605C18.1036 47.2605 17.5889 47.4565 17.1985 47.8403L13.8697 51.1116L9.54008 46.8563L12.8441 43.6092C13.5069 42.9578 13.6347 41.9373 13.1437 41.1435C12.1265 39.4985 11.3726 37.7081 10.9035 35.8212ZM50.2224 16.1032C50.2221 16.103 50.2218 16.1027 50.2216 16.1024L50.2223 16.1032L50.2224 16.1032ZM9.17431 46.4968C9.17464 46.4971 9.17498 46.4974 9.17531 46.4977L9.17435 46.4968L9.17431 46.4968ZM24.8523 11.8755C22.8309 12.361 20.9108 13.1415 19.1469 14.195L24.8523 11.8755ZM29.6983 15.8C21.0267 15.8 13.9439 22.7359 13.9439 31.3C13.9439 33.7467 14.5345 36.1406 15.6478 38.2994L14.6243 39.9219C14.6243 39.9219 14.6243 39.9219 14.6242 39.9219C13.7369 41.3283 13.6958 43.0486 14.5149 44.4948C15.3329 45.9389 16.8314 46.7995 18.4967 46.7995H40.9C42.5647 46.7995 44.0637 45.939 44.8817 44.4948C45.7009 43.0486 45.6597 41.3282 44.7724 39.9219L43.7488 38.2994C44.8621 36.1406 45.4527 33.7467 45.4527 31.3C45.4527 22.7359 38.3699 15.8 29.6983 15.8Z" stroke="black" stroke-opacity="0.83" stroke-width="2"/>
</svg>
