<svg width="503" height="500" viewBox="0 0 503 500" fill="none" xmlns="http://www.w3.org/2000/svg">
<path d="M502.472 251.174C502.472 112.449 389.899 0 251.174 0C112.449 0 0 112.449 0 251.174C0 374.831 89.4114 477.691 206.966 498.612C122.536 478.687 59.6491 402.85 59.6491 312.317C59.6491 312.068 59.6491 311.944 59.6491 311.695C59.6491 311.446 59.6491 311.321 59.6491 311.072C59.6491 205.472 145.325 119.796 250.925 119.796C356.525 119.796 442.201 205.472 442.201 311.072C442.201 311.321 442.201 311.446 442.201 311.695C442.201 311.944 442.201 312.068 442.201 312.317C442.201 403.223 378.691 479.31 293.638 498.737C412.189 478.687 502.472 375.453 502.472 251.174Z" fill="url(#paint0_linear_34_12)"/>
<path d="M373.447 378.334C373.447 310.093 318.156 254.802 249.914 254.802C181.673 254.802 126.382 310.093 126.382 378.334C126.382 439.229 170.341 489.787 228.371 499.999C204.461 490.908 187.401 467.746 187.401 440.598C187.401 405.481 215.794 377.089 250.911 377.089C286.028 377.089 314.42 405.481 314.42 440.598C314.42 466.998 298.356 489.663 275.443 499.251C331.48 487.546 373.447 437.859 373.447 378.334Z" fill="url(#paint1_linear_34_12)"/>
<defs>
<linearGradient id="paint0_linear_34_12" x1="0" y1="249.42" x2="502.433" y2="249.42" gradientUnits="userSpaceOnUse">
<stop stop-color="#FFBE15"/>
<stop offset="0.7676" stop-color="#F8EC20"/>
</linearGradient>
<linearGradient id="paint1_linear_34_12" x1="126.409" y1="377.406" x2="373.505" y2="377.406" gradientUnits="userSpaceOnUse">
<stop stop-color="#FFBE15"/>
<stop offset="0.7676" stop-color="#F8EC20"/>
</linearGradient>
</defs>
</svg>
