<svg width="76" height="75" viewBox="0 0 76 75" fill="none" xmlns="http://www.w3.org/2000/svg">
<path d="M6.75 18.75C6.75 14.0469 9.1875 9.125 13 6.25C13 8.89062 15.1562 12.5 19.25 12.5C21.7364 12.5 24.121 13.4877 25.8791 15.2459C27.6373 17.004 28.625 19.3886 28.625 21.875C28.625 23.0812 28.3781 24.225 27.9625 25.2844C30.2805 27.124 32.5632 29.0077 34.8094 30.9344L28.3094 37.4344C26.3835 35.1876 24.4998 32.9049 22.6594 30.5875C21.5746 31.0204 20.418 31.2451 19.25 31.25C12.3438 31.25 6.75 25.6562 6.75 18.75ZM44.725 40.15L48.9156 35.9594C50.8562 36.9584 53.0049 37.4862 55.1875 37.5C58.9171 37.5 62.494 36.0184 65.1312 33.3812C67.7684 30.744 69.25 27.1671 69.25 23.4375C69.25 21.1719 68.6625 19.0594 67.7094 17.1656L56.75 28.125L50.5 21.875L61.4594 10.9156C59.5188 9.91657 57.3701 9.38877 55.1875 9.375C51.4579 9.375 47.881 10.8566 45.2438 13.4938C42.6066 16.131 41.125 19.7079 41.125 23.4375C41.125 25.7031 41.7125 27.8156 42.6656 29.7094L9.875 62.5L16.125 68.75L37.525 47.35C43.4105 53.3886 49.6474 59.0746 56.2031 64.3781L60.6562 67.9688L65.3438 63.2812L61.7531 58.8281C56.4496 52.2724 50.7636 46.0355 44.725 40.15Z" fill="#023E8A"/>
</svg>
