<svg width="48" height="49" viewBox="0 0 48 49" fill="none" xmlns="http://www.w3.org/2000/svg">
<path fill-rule="evenodd" clip-rule="evenodd" d="M25.0564 12.2295L27.3246 15.9355C26.7462 16.2589 26.0989 16.4568 25.4297 16.5149C24.7604 16.5729 24.0859 16.4897 23.4548 16.2711C22.8238 16.0526 22.252 15.7042 21.7808 15.2512C21.3095 14.7982 20.9507 14.2519 20.7301 13.6517C20.5096 13.0515 20.4328 12.4126 20.5054 11.7809C20.578 11.1493 20.7982 10.5408 21.1499 9.99947C21.5017 9.45811 21.9763 8.99741 22.5395 8.65066C23.1026 8.30392 23.7402 8.0798 24.4062 7.9945L25.0602 12.2295H25.0564ZM34.1784 26.396C35.8299 26.3969 37.4504 26.8195 38.8688 27.6192C40.2872 28.4189 41.4507 29.5659 42.2365 30.9392C43.0222 32.3124 43.401 33.8608 43.3327 35.4207C43.2644 36.9806 42.7517 38.4942 41.8487 39.8013L45.818 43.8862L43.081 46.2521L39.2554 42.2744C38.0646 43.0223 36.7052 43.4965 35.286 43.659C33.8667 43.8214 32.4269 43.6677 31.0817 43.2101C29.7365 42.7525 28.5232 42.0037 27.5389 41.0236C26.5545 40.0434 25.8264 38.8592 25.4128 37.5655C24.9991 36.2717 24.9114 34.9045 25.1566 33.573C25.4018 32.2415 25.9732 30.9827 26.825 29.8973C27.6769 28.8118 28.7855 27.9299 30.0623 27.3219C31.3392 26.714 32.7487 26.3969 34.1784 26.396ZM30.7269 35.8702C30.6789 35.823 30.6358 35.7716 30.5984 35.7165C30.5624 35.6616 30.5308 35.6043 30.5039 35.5449C30.4092 35.3304 30.3886 35.093 30.445 34.8667C30.5014 34.6404 30.6319 34.4367 30.8179 34.2847C31.0039 34.1326 31.2359 34.0399 31.4809 34.0197C31.7259 33.9996 31.9714 34.0531 32.1824 34.1726C32.2476 34.2091 32.3085 34.2522 32.3638 34.3013C32.6814 34.5907 32.7834 34.6586 33.1199 34.9481L33.4261 35.209L35.9173 32.6788C36.972 31.6531 38.6543 33.1541 37.6033 34.2048L34.5186 37.3604L34.3598 37.5141C34.1508 37.7232 33.8638 37.8473 33.5597 37.86C33.2556 37.8726 32.9582 37.7729 32.7305 37.582L32.481 37.3604L31.8875 36.8708C31.4263 36.492 31.1579 36.2847 30.7269 35.8737V35.8702ZM34.1859 28.2044C35.6284 28.2044 37.0384 28.6088 38.2377 29.3664C39.437 30.1241 40.3716 31.201 40.9235 32.4609C41.4753 33.7208 41.6195 35.1071 41.3378 36.4445C41.0561 37.7818 40.3612 39.0102 39.341 39.9742C38.3208 40.9382 37.0211 41.5945 35.6063 41.8601C34.1915 42.1256 32.7251 41.9886 31.3927 41.4663C30.0603 40.944 28.9216 40.0598 28.1208 38.9256C27.32 37.7915 26.8929 36.4583 26.8937 35.0946C26.8947 33.2669 27.6634 31.5143 29.0309 30.2223C30.3983 28.9302 32.2526 28.2043 34.1859 28.2044ZM15.6094 11.4075H17.7188C17.773 11.4075 17.8249 11.4278 17.8632 11.464C17.9014 11.5002 17.9229 11.5493 17.9229 11.6005V15.5316C17.9229 15.5828 17.9014 15.6319 17.8632 15.6681C17.8249 15.7043 17.773 15.7246 17.7188 15.7246H15.6094C15.5552 15.7246 15.5033 15.7043 15.465 15.6681C15.4268 15.6319 15.4052 15.5828 15.4052 15.5316V11.6005C15.4052 11.5493 15.4268 11.5002 15.465 11.464C15.5033 11.4278 15.5552 11.4075 15.6094 11.4075ZM35.4486 8.33044H38.8887C39.5354 8.33326 40.1549 8.5774 40.6122 9.00975C41.0695 9.4421 41.3278 10.0277 41.3308 10.6391V22.6328C41.2589 23.3476 39.3801 23.3654 39.2213 22.6328V10.6391C39.222 10.5962 39.2136 10.5535 39.1968 10.5137C39.1799 10.4738 39.1548 10.4375 39.123 10.4068C39.0907 10.3753 39.0519 10.3505 39.009 10.3339C38.966 10.3173 38.9199 10.3093 38.8735 10.3103H35.4486V22.6328C35.2671 23.2868 33.702 23.3869 33.3505 22.6328V4.64585C33.3515 4.60256 33.3432 4.55953 33.3261 4.51939C33.3089 4.47924 33.2833 4.44283 33.2507 4.41238C33.2182 4.38194 33.1794 4.35809 33.1367 4.34232C33.0941 4.32654 33.0485 4.31916 33.0027 4.32063H4.61241C4.56699 4.32002 4.52189 4.32791 4.47972 4.34386C4.43754 4.35981 4.39913 4.38349 4.36669 4.41355C4.33368 4.44355 4.30758 4.47966 4.29001 4.51963C4.27245 4.5596 4.26381 4.60257 4.26462 4.64585V35.9309C4.26411 35.9742 4.27276 36.0172 4.29006 36.0573C4.30736 36.0974 4.33296 36.1338 4.36535 36.1645C4.39775 36.1951 4.43629 36.2193 4.47872 36.2356C4.52114 36.252 4.56659 36.2602 4.61241 36.2597H21.2874C22.3459 36.3598 22.3762 38.0859 21.2874 38.2396H10.1203V41.9206C10.1192 41.9644 10.1277 42.008 10.1453 42.0486C10.1629 42.0892 10.1891 42.1259 10.2224 42.1565C10.2549 42.1865 10.2933 42.2102 10.3354 42.2262C10.3776 42.2421 10.4227 42.25 10.4681 42.2494H21.2874C22.0435 42.3316 22.3006 43.9755 21.2874 44.2329H10.4984C10.1776 44.2345 9.85974 44.1752 9.56363 44.0586C9.26752 43.942 8.9992 43.7703 8.77455 43.5538C8.54579 43.3404 8.36416 43.0861 8.24021 42.8057C8.11626 42.5253 8.05246 42.2245 8.05251 41.9206V38.2396H4.62375C3.97698 38.2368 3.35756 37.9926 2.90022 37.5603C2.44289 37.1279 2.18464 36.5423 2.18165 35.9309V4.64585C2.18056 4.34268 2.24354 4.04236 2.36688 3.76252C2.49022 3.48267 2.67144 3.22893 2.89992 3.01619C3.12571 2.80116 3.39426 2.63047 3.6901 2.51394C3.98595 2.3974 4.30325 2.33733 4.62375 2.33717H33.0216C33.3423 2.33614 33.6599 2.39567 33.956 2.51227C34.252 2.62888 34.5204 2.8002 34.7454 3.01619C34.9701 3.23083 35.1479 3.48523 35.2686 3.76486C35.3892 4.04449 35.4504 4.34386 35.4486 4.64585V8.33044ZM7.85215 22.497C7.61723 22.4828 7.39685 22.3845 7.2358 22.2222C7.07475 22.0599 6.98511 21.8457 6.98511 21.6232C6.98511 21.4007 7.07475 21.1865 7.2358 21.0242C7.39685 20.8619 7.61723 20.7636 7.85215 20.7494H24.5234C24.7583 20.7636 24.9787 20.8619 25.1398 21.0242C25.3008 21.1865 25.3904 21.4007 25.3904 21.6232C25.3904 21.8457 25.3008 22.0599 25.1398 22.2222C24.9787 22.3845 24.7583 22.4828 24.5234 22.497H7.85215ZM7.85215 27.0572C7.60651 27.0572 7.37093 26.9649 7.19724 26.8007C7.02355 26.6365 6.92597 26.4138 6.92597 26.1816C6.92597 25.9494 7.02355 25.7267 7.19724 25.5624C7.37093 25.3982 7.60651 25.306 7.85215 25.306H21.7789C22.0245 25.306 22.2601 25.3982 22.4338 25.5624C22.6075 25.7267 22.7051 25.9494 22.7051 26.1816C22.7051 26.4138 22.6075 26.6365 22.4338 26.8007C22.2601 26.9649 22.0245 27.0572 21.7789 27.0572H7.85215ZM7.958 32.0998C7.71236 32.0998 7.47678 32.0075 7.30309 31.8433C7.1294 31.6791 7.03182 31.4564 7.03182 31.2242C7.03182 30.992 7.1294 30.7693 7.30309 30.6051C7.47678 30.4409 7.71236 30.3486 7.958 30.3486H18.3728C18.6184 30.3486 18.854 30.4409 19.0277 30.6051C19.2014 30.7693 19.299 30.992 19.299 31.2242C19.299 31.4564 19.2014 31.6791 19.0277 31.8433C18.854 32.0075 18.6184 32.0998 18.3728 32.0998H7.958ZM8.05629 8.99516H10.1695C10.2236 8.99516 10.2756 9.0155 10.3138 9.05169C10.3521 9.08788 10.3736 9.13697 10.3736 9.18815V15.5209C10.3727 15.5718 10.3508 15.6204 10.3128 15.6564C10.2747 15.6924 10.2233 15.713 10.1695 15.7139H8.07897C8.02483 15.7139 7.97291 15.6936 7.93462 15.6574C7.89634 15.6212 7.87483 15.5721 7.87483 15.5209V9.18815C7.87483 9.13697 7.89634 9.08788 7.93462 9.05169C7.97291 9.0155 8.02483 8.99516 8.07897 8.99516H8.05629ZM11.8366 7.64069H13.946C14.0002 7.64069 14.0521 7.66103 14.0904 7.69722C14.1287 7.73341 14.1502 7.7825 14.1502 7.83368V15.5209C14.1502 15.5721 14.1287 15.6212 14.0904 15.6574C14.0521 15.6936 14.0002 15.7139 13.946 15.7139H11.8442C11.79 15.7139 11.7381 15.6936 11.6998 15.6574C11.6615 15.6212 11.64 15.5721 11.64 15.5209V7.83368C11.64 7.7825 11.6615 7.73341 11.6998 7.69722C11.7381 7.66103 11.79 7.64069 11.8442 7.64069H11.8366ZM25.9977 12.4117H30.2204C30.2179 13.0673 30.044 13.7122 29.7143 14.2889C29.3845 14.8657 28.909 15.3564 28.3302 15.7175L25.9977 12.4117ZM25.5252 11.6291L25.2719 7.06531L25.7671 7.04387C26.9972 7.02963 28.1868 7.45882 29.0941 8.24417C30.0014 9.02952 30.5582 10.1121 30.6513 11.2717L30.674 11.5576L25.5403 11.915V11.6219L25.5252 11.6291ZM25.9032 7.62282L26.1074 11.3038L29.9973 11.0322C29.8532 10.0974 29.3624 9.24131 28.6125 8.61683C27.8626 7.99235 26.9024 7.64006 25.9032 7.62282Z" fill="#181818"/>
</svg>
