<svg width="76" height="75" viewBox="0 0 76 75" fill="none" xmlns="http://www.w3.org/2000/svg">
<g clip-path="url(#clip0_2470_1157)">
<path d="M75.5 37.5C75.5 16.7895 58.7105 0 38 0C17.2895 0 0.5 16.7895 0.5 37.5C0.5 56.2172 14.2133 71.7313 32.1406 74.5444V48.3398H22.6191V37.5H32.1406V29.2383C32.1406 19.8398 37.7393 14.6484 46.3051 14.6484C50.4078 14.6484 54.6992 15.3809 54.6992 15.3809V24.6094H49.9707C45.3122 24.6094 43.8594 27.5001 43.8594 30.4658V37.5H54.2598L52.5972 48.3398H43.8594V74.5444C61.7867 71.7313 75.5 56.2175 75.5 37.5Z" fill="#1877F2"/>
<path d="M52.5972 48.3398L54.2598 37.5H43.8594V30.4658C43.8594 27.4998 45.3122 24.6094 49.9707 24.6094H54.6992V15.3809C54.6992 15.3809 50.4078 14.6484 46.3048 14.6484C37.7393 14.6484 32.1406 19.8398 32.1406 29.2383V37.5H22.6191V48.3398H32.1406V74.5444C34.079 74.8482 36.038 75.0005 38 75C39.962 75.0006 41.921 74.8483 43.8594 74.5444V48.3398H52.5972Z" fill="white"/>
</g>
<defs>
<clipPath id="clip0_2470_1157">
<rect width="75" height="75" fill="white" transform="translate(0.5)"/>
</clipPath>
</defs>
</svg>
