<svg width="75" height="75" viewBox="0 0 75 75" fill="none" xmlns="http://www.w3.org/2000/svg">
<path d="M67.9688 1.75808H7.03125C5.64862 1.74401 4.31688 2.27901 3.32824 3.24568C2.33959 4.21235 1.77481 5.53174 1.75781 6.91433V68.0979C1.77789 69.4785 2.34402 70.7949 3.33233 71.759C4.32063 72.7232 5.65062 73.2566 7.03125 73.2425H67.9688C69.3515 73.2534 70.6823 72.7166 71.6704 71.7493C72.6586 70.7821 73.2236 69.463 73.2422 68.0804V6.89676C73.2175 5.51821 72.6498 4.20512 71.6623 3.24288C70.6748 2.28065 69.3475 1.74705 67.9688 1.75808Z" fill="#0076B2"/>
<path d="M12.3398 28.5547H22.9512V62.6973H12.3398V28.5547ZM17.6484 11.5625C18.8655 11.5625 20.0552 11.9235 21.0671 12.5998C22.079 13.2761 22.8675 14.2373 23.333 15.3618C23.7985 16.4863 23.92 17.7237 23.6821 18.9173C23.4443 20.1109 22.8577 21.2071 21.9967 22.0673C21.1357 22.9275 20.0389 23.513 18.8451 23.7497C17.6513 23.9864 16.4141 23.8637 15.29 23.3972C14.1659 22.9306 13.2054 22.1412 12.5301 21.1286C11.8548 20.1161 11.4949 18.9261 11.4961 17.709C11.4976 16.0783 12.1465 14.5149 13.3001 13.3624C14.4538 12.2099 16.0178 11.5625 17.6484 11.5625ZM29.6074 28.5547H39.7793V33.2422H39.9199C41.3379 30.5586 44.7949 27.7285 49.957 27.7285C60.7031 27.7051 62.6953 34.7773 62.6953 43.9473V62.6973H52.084V46.0859C52.084 42.1309 52.0137 37.0391 46.5703 37.0391C41.127 37.0391 40.2012 41.3516 40.2012 45.8281V62.6973H29.6074V28.5547Z" fill="white"/>
</svg>
