<svg width="47" height="37" viewBox="0 0 47 37" fill="none" xmlns="http://www.w3.org/2000/svg">
<path fill-rule="evenodd" clip-rule="evenodd" d="M37.5755 0.607377C39.5989 0.607377 41.2397 2.25333 41.2397 4.28296C41.2397 6.31259 39.5989 7.95854 37.5755 7.95854C36.8526 7.95854 36.1756 7.74752 35.6057 7.38303C35.5828 7.41373 35.556 7.44442 35.5254 7.47128L32.8059 10.0994C34.6189 12.1329 35.7702 14.7726 35.9155 17.677H39.7174C40.0043 15.9351 41.5151 14.6076 43.332 14.6076C45.3553 14.6076 46.9962 16.2535 46.9962 18.2832C46.9962 20.3128 45.3553 21.9588 43.332 21.9588C41.6146 21.9588 40.1726 20.7732 39.7748 19.1695C39.7557 19.1695 39.7366 19.1733 39.7174 19.1733H35.8964C35.6937 22.0393 34.5156 24.633 32.6912 26.6204L35.5713 29.3061C35.5981 29.3329 35.6248 29.3598 35.6478 29.3905C36.2062 29.0452 36.8641 28.8457 37.5717 28.8457C39.5951 28.8457 41.2359 30.4916 41.2359 32.5213C41.2359 34.5509 39.5951 36.1968 37.5717 36.1968C35.5483 36.1968 33.9075 34.5509 33.9075 32.5213C33.9075 31.7386 34.1523 31.0134 34.5692 30.4149L34.5577 30.4034L31.6164 27.664C29.4783 29.4902 26.7052 30.5914 23.6798 30.5914C20.551 30.5914 17.6977 29.4174 15.5328 27.4836L12.5647 30.3842L12.5609 30.388C12.9663 30.9789 13.1996 31.6925 13.1996 32.4637C13.1996 34.4933 11.5588 36.1393 9.5354 36.1393C7.51204 36.1393 5.87118 34.4933 5.87118 32.4637C5.87118 30.4341 7.51204 28.7881 9.5354 28.7881C10.2507 28.7881 10.92 28.9953 11.4861 29.3521C11.4976 29.3368 11.509 29.3253 11.5243 29.3138L14.481 26.4247C12.7406 24.4411 11.6276 21.8935 11.4517 19.085L7.28255 19.1273H7.2596C6.92301 20.8116 5.44279 22.0815 3.66423 22.0815C1.64087 22.0815 0 20.4356 0 18.4059C0 16.3763 1.64087 14.7304 3.66423 14.7304C5.42367 14.7304 6.89624 15.9735 7.24813 17.6348H7.26725L11.444 17.5926C11.6047 14.7572 12.7253 12.1828 14.481 10.18L11.3713 7.19887C11.3484 7.17585 11.3254 7.15283 11.3063 7.12597C10.7976 7.39838 10.2124 7.54801 9.5966 7.54801C7.57324 7.54801 5.93237 5.90206 5.93237 3.87243C5.93237 1.84664 7.57324 0.200684 9.5966 0.200684C11.62 0.200684 13.2608 1.84664 13.2608 3.87627C13.2608 4.74337 12.9625 5.54141 12.4576 6.17063L15.5328 9.11723C17.6977 7.18352 20.551 6.00949 23.6759 6.00949C26.7664 6.00949 29.5892 7.15667 31.7464 9.05201L34.4927 6.397C34.508 6.38165 34.5271 6.3663 34.5462 6.35096C34.1446 5.7601 33.9113 5.05031 33.9113 4.28296C33.9113 2.25333 35.5522 0.607377 37.5755 0.607377ZM21.9586 19.5685L22.9798 22.5803L23.4924 20.7924L23.2399 20.5161C23.1252 20.3512 23.1022 20.2054 23.1634 20.0788C23.3011 19.8064 23.5803 19.8601 23.8442 19.8601C24.1196 19.8601 24.46 19.8064 24.548 20.1555C24.5786 20.2706 24.5404 20.3934 24.46 20.5161L24.2076 20.7924L24.7201 22.5803L25.6458 19.5685C26.3113 20.1708 28.2887 20.2898 29.0231 20.7041C29.2564 20.8346 29.4668 20.9996 29.6351 21.2221C29.8914 21.5597 30.0482 22.0048 30.0903 22.565L30.2432 24.0574C30.205 24.4565 29.9793 24.6867 29.5395 24.7174H23.8557H18.0687C17.625 24.6828 17.3993 24.4526 17.3649 24.0574L17.5179 22.565C17.56 22.001 17.7168 21.5597 17.9731 21.2221C18.1414 20.9996 18.3517 20.8346 18.585 20.7041C19.3194 20.2898 21.2931 20.1708 21.9586 19.5685ZM21.6832 15.0143C21.6947 15.0373 21.6985 15.0603 21.6985 15.0872C21.6985 15.0987 21.6985 15.1102 21.6947 15.1255L21.7138 15.2675C21.6641 15.279 21.6182 15.279 21.5723 15.279C21.5531 15.2867 21.5302 15.2905 21.5111 15.2905C21.3848 15.2944 21.2931 15.3174 21.2319 15.3596C21.2013 15.3826 21.1745 15.4095 21.163 15.4402C21.1439 15.4785 21.1362 15.5246 21.1401 15.5783C21.1439 15.7471 21.2357 15.9658 21.4078 16.2229L21.4116 16.2267L21.9815 17.136C22.211 17.5005 22.4482 17.8688 22.7427 18.1412C23.0219 18.3983 23.3661 18.5748 23.8136 18.5748C24.3032 18.5748 24.6589 18.3944 24.9496 18.122C25.2556 17.8381 25.4966 17.4429 25.7337 17.0477L26.3763 15.9888C26.5063 15.6934 26.5446 15.5131 26.5025 15.4286C26.4757 15.3711 26.361 15.3596 26.1698 15.3749C26.1124 15.3788 26.055 15.3596 26.0168 15.3212C26.0015 15.3212 25.9862 15.3212 25.9709 15.3174L25.9785 15.2713C25.967 15.2483 25.9594 15.2253 25.9556 15.1984C25.9479 15.1332 25.9785 15.0718 26.0244 15.0296L26.1583 14.3505C24.9841 14.3352 24.1808 14.1318 23.2284 13.5218C22.9148 13.3223 22.823 13.0921 22.5094 13.1151C22.2722 13.1611 22.0733 13.2686 21.9165 13.4374C21.7635 13.6024 21.6526 13.8249 21.5761 14.1088L21.6832 15.0143ZM26.5446 15.0181C26.6823 15.0603 26.7817 15.1371 26.8429 15.2598C26.9386 15.4555 26.9003 15.7471 26.7205 16.1615C26.7167 16.1691 26.7129 16.1768 26.7091 16.1845L26.0588 17.2588C25.8064 17.6731 25.5501 18.0913 25.2097 18.4136C24.854 18.7513 24.4103 18.9738 23.8098 18.9699C23.2476 18.9699 22.823 18.7513 22.4749 18.4328C22.1422 18.1259 21.8859 17.7345 21.6449 17.3508L21.075 16.4415C20.8608 16.1231 20.7537 15.8315 20.7461 15.5936C20.7423 15.4785 20.7614 15.3711 20.8035 15.279C20.8494 15.1831 20.9182 15.0987 21.01 15.0373C21.0559 15.0066 21.1056 14.9798 21.163 14.9606C21.1286 14.4733 21.1171 13.8671 21.1401 13.3607C21.1515 13.2379 21.1745 13.1151 21.2089 12.9885C21.3542 12.4667 21.7214 12.0447 22.1728 11.7569C22.3334 11.6533 22.5055 11.5689 22.693 11.5037C23.7907 11.1047 25.2403 11.3234 26.0206 12.1674C26.3381 12.5127 26.5369 12.9655 26.579 13.5717L26.5446 15.0181ZM31.2798 10.6634C31.2568 10.6443 31.2377 10.6251 31.2186 10.6059C31.2071 10.5944 31.1995 10.5829 31.188 10.5714C29.2488 8.67601 26.602 7.50965 23.6836 7.50965C20.7576 7.50965 18.1069 8.67985 16.1677 10.579C16.1448 10.6136 16.118 10.6443 16.0912 10.6749C16.053 10.7133 16.0147 10.7478 15.9688 10.7785C14.087 12.7238 12.9242 15.3749 12.9242 18.2985C12.9242 21.2797 14.1291 23.9769 16.0759 25.9298C18.0228 27.8827 20.7117 29.0912 23.6836 29.0912C26.6555 29.0912 29.3444 27.8827 31.2913 25.9298C33.2381 23.9769 34.443 21.2797 34.443 18.2985C34.443 15.3174 33.2381 12.6202 31.2913 10.6673L31.2798 10.6634Z" fill="#181818"/>
</svg>
