<svg width="39" height="50" viewBox="0 0 39 50" fill="none" xmlns="http://www.w3.org/2000/svg">
<path fill-rule="evenodd" clip-rule="evenodd" d="M19.4795 43.3819C20.3862 43.3819 21.1206 44.0957 21.1206 44.977C21.1206 45.8582 20.3862 46.572 19.4795 46.572C18.5728 46.572 17.8384 45.8582 17.8384 44.977C17.8384 44.0957 18.5728 43.3819 19.4795 43.3819ZM8.87818 27.0526C8.85357 27.0047 8.82485 26.9609 8.79203 26.917C8.64843 26.6897 8.50484 26.4624 8.36125 26.2032C8.21765 25.9241 8.07406 25.6609 7.94688 25.4176C7.81969 25.1545 7.69661 24.8753 7.58994 24.5962C7.49968 24.3529 7.39301 24.0738 7.28635 23.7428C7.12634 23.2723 6.67505 22.9772 6.19093 22.9772H3.08521C2.97854 22.9772 2.87187 22.9613 2.79802 22.9254C2.72828 22.8895 2.63802 22.8376 2.58468 22.7699C2.51494 22.6981 2.4575 22.6303 2.42468 22.5625C2.38775 22.4947 2.37134 22.387 2.37134 22.2834V18.4792C2.37134 18.3755 2.38776 18.2878 2.40827 18.216C2.44519 18.1442 2.49853 18.0605 2.58879 17.9727C2.65853 17.9049 2.73238 17.8491 2.80212 17.8332C2.87597 17.7973 2.98264 17.7813 3.08931 17.7813H5.94067C6.51504 17.7813 6.98275 17.3786 7.08942 16.8562C7.15916 16.5611 7.23301 16.282 7.30276 16.0347C7.39301 15.7556 7.48327 15.4924 7.58994 15.2133C7.69661 14.9501 7.80328 14.671 7.94688 14.4118C8.07406 14.1326 8.21765 13.8894 8.34073 13.6462C8.591 13.1916 8.50074 12.6692 8.1438 12.3223L5.92016 10.141C5.90375 10.1251 5.90375 10.1251 5.88323 10.1251C5.81349 10.0573 5.75605 9.98551 5.72323 9.91772C5.6863 9.84993 5.6863 9.77816 5.6863 9.67448C5.6863 9.5708 5.70271 9.48307 5.73964 9.41129C5.77656 9.32357 5.8299 9.25578 5.92016 9.16805L8.66484 6.51628C8.7551 6.42855 8.82485 6.37671 8.91511 6.34082C8.98895 6.30493 9.07511 6.28898 9.18588 6.28898C9.29255 6.28898 9.38281 6.30493 9.45666 6.34082C9.53051 6.37671 9.61666 6.42855 9.69051 6.49634H9.70692L11.7336 8.46623C12.1275 8.84904 12.7552 8.90088 13.2065 8.58984C13.4404 8.45028 13.6742 8.31071 13.9409 8.17114C14.2281 8.03157 14.4988 7.89201 14.7491 7.76839C15.0199 7.64478 15.3071 7.52515 15.5943 7.42147C15.8445 7.33374 16.1317 7.23006 16.4722 7.12638C16.9563 6.97087 17.2599 6.53223 17.2599 6.06169V3.03906C17.2599 2.93538 17.2764 2.83171 17.3133 2.75993C17.3502 2.69214 17.4035 2.62036 17.4569 2.55257C17.5307 2.48478 17.6005 2.42895 17.6702 2.413C17.74 2.37712 17.8507 2.36117 17.9574 2.36117H20.7144H20.7472H21.0303C21.137 2.36117 21.2436 2.37712 21.3175 2.413C21.3872 2.42895 21.4611 2.48478 21.5308 2.55257C21.5842 2.62036 21.6375 2.69214 21.6744 2.75993C21.7113 2.82772 21.7278 2.93538 21.7278 3.03906V6.0577C21.7278 6.52824 22.0313 6.96289 22.5155 7.1224C22.856 7.22607 23.1432 7.32975 23.3934 7.41748C23.6806 7.52116 23.9678 7.64478 24.2386 7.7644C24.4888 7.88802 24.7596 8.02759 25.0468 8.16716C25.3176 8.30672 25.5473 8.44629 25.7812 8.58586C26.2284 8.90088 26.8561 8.84904 27.2541 8.46224L29.2808 6.49235H29.2972C29.3669 6.42456 29.4572 6.36873 29.531 6.33683C29.6008 6.30094 29.691 6.28499 29.8018 6.28499C29.9085 6.28499 29.9987 6.30094 30.0726 6.33683C30.1628 6.37272 30.2326 6.42456 30.3229 6.51229L33.0675 9.16406C33.1578 9.25179 33.2111 9.31958 33.2481 9.40731C33.285 9.4751 33.3014 9.56283 33.3014 9.67049C33.3014 9.77417 33.3014 9.84595 33.2645 9.91374C33.2275 9.98551 33.1742 10.0533 33.1045 10.1211C33.0881 10.1211 33.088 10.1211 33.0675 10.137L30.8439 12.3183C30.487 12.6652 30.3967 13.1916 30.647 13.6422C30.7741 13.8854 30.9177 14.1287 31.0408 14.4078C31.1844 14.671 31.2911 14.9501 31.3977 15.2093C31.5044 15.4884 31.5947 15.7516 31.6849 16.0308C31.7547 16.274 31.8285 16.5531 31.8983 16.8522C32.0049 17.3746 32.4726 17.7773 33.047 17.7773H35.8984C36.0051 17.7773 36.1117 17.7933 36.1856 17.8292C36.2553 17.8451 36.3292 17.897 36.3989 17.9688C36.4892 18.0565 36.5425 18.1442 36.5794 18.212C36.5958 18.2798 36.6163 18.3675 36.6163 18.4752V22.2794C36.6163 22.3831 36.5999 22.4867 36.563 22.5585C36.5261 22.6303 36.4728 22.6981 36.403 22.7659C36.3497 22.8337 36.2594 22.8895 36.1897 22.9214C36.1158 22.9573 36.0092 22.9732 35.9025 22.9732H32.7968C32.3126 22.9732 31.8655 23.2683 31.7013 23.7388C31.5947 24.0698 31.488 24.349 31.3977 24.5922C31.2911 24.8713 31.1639 25.1505 31.0408 25.4137C30.9136 25.6569 30.77 25.9201 30.6264 26.1992C30.4829 26.4624 30.3393 26.6897 30.1957 26.913C30.1628 26.9569 30.1341 27.0007 30.1095 27.0486H32.8255C32.9404 26.8253 33.0552 26.586 33.1742 26.3388C33.3178 26.0238 33.4614 25.7127 33.5886 25.3977C33.605 25.3459 33.6419 25.2741 33.6624 25.2222H35.9599C36.3743 25.2222 36.7681 25.1545 37.1251 25.0149C37.482 24.8753 37.8266 24.648 38.1138 24.3689C38.401 24.0898 38.6349 23.7747 38.7785 23.4079C38.922 23.041 38.9918 22.6742 38.9918 22.2754V18.4752C38.9918 18.0924 38.9015 17.7096 38.7579 17.3586C38.6143 17.0117 38.401 16.6967 38.1138 16.4176L38.0974 16.4016C37.8102 16.1225 37.4861 15.8952 37.1292 15.7556C36.7722 15.6001 36.3743 15.5283 35.964 15.5283H34.007C34.007 15.4765 33.9906 15.4406 33.9701 15.3888C33.8635 15.0578 33.7568 14.7268 33.6296 14.4118C33.486 14.0808 33.3588 13.7658 33.2152 13.4707C33.1988 13.4348 33.1619 13.383 33.1455 13.3311L34.7619 11.7441C35.0655 11.4809 35.283 11.1698 35.443 10.8189C35.5866 10.472 35.6768 10.0852 35.6768 9.68644C35.6768 9.28369 35.6071 8.92082 35.443 8.55396C35.283 8.20703 35.0655 7.89201 34.7784 7.61287H34.7619L32.0173 4.9611C31.7301 4.68197 31.406 4.47461 31.0285 4.3151C30.6511 4.15959 30.2736 4.08781 29.8633 4.08781C29.4695 4.08781 29.0756 4.1556 28.6982 4.3151C28.3207 4.45467 27.9966 4.68197 27.7094 4.9611L26.3104 6.30493L26.2038 6.25309C25.9166 6.09757 25.5925 5.95801 25.2519 5.7985C24.9278 5.65894 24.6078 5.51937 24.2837 5.39575C24.2304 5.3798 24.1565 5.34391 24.1032 5.32397V3.0909C24.1032 2.68815 24.0335 2.30534 23.8899 1.95841C23.7463 1.6075 23.5124 1.27653 23.2252 0.997396C22.9216 0.718262 22.5975 0.490967 22.2365 0.3514C21.8631 0.211833 21.4857 0.144043 21.0713 0.144043H19.6559H19.34H17.9246C17.5102 0.144043 17.1369 0.211833 16.7594 0.3514C16.4025 0.490967 16.0784 0.718262 15.7707 0.997396C15.4835 1.27653 15.2496 1.6075 15.106 1.95841C14.9624 2.30534 14.8927 2.69214 14.8927 3.0909V5.32397C14.8394 5.33992 14.7655 5.37581 14.7122 5.39575C14.3881 5.51937 14.0681 5.65894 13.744 5.7985C13.4034 5.95402 13.0793 6.09359 12.7921 6.25309L12.6855 6.30493L11.2865 4.9611C10.9993 4.68197 10.6752 4.45467 10.2977 4.3151C9.92026 4.15959 9.5264 4.08781 9.13255 4.08781C8.71818 4.08781 8.34484 4.1556 7.96739 4.3151C7.58994 4.47062 7.26583 4.68197 6.97865 4.9611L4.23396 7.61287H4.21755C3.93036 7.89201 3.71702 8.20703 3.55291 8.55396C3.39291 8.91683 3.31906 9.28369 3.31906 9.68245C3.31906 10.0852 3.40932 10.468 3.55291 10.8149C3.71292 11.1619 3.93036 11.4769 4.23396 11.7401L5.85041 13.3271C5.834 13.379 5.79708 13.4308 5.78066 13.4667C5.63707 13.7618 5.50989 14.0768 5.36629 14.4078C5.23911 14.7228 5.13244 15.0538 5.02577 15.3848C5.00936 15.4366 4.98885 15.4725 4.98885 15.5243H3.03187C2.6175 15.5243 2.22365 15.5961 1.86672 15.7516C1.50978 15.8912 1.18567 16.1185 0.898485 16.3976L0.882075 16.4136C0.594887 16.6927 0.381548 17.0077 0.237955 17.3547C0.0902588 17.7056 0 18.0924 0 18.4752V22.2754C0 22.6781 0.0697454 23.041 0.213339 23.4079C0.356932 23.7747 0.590785 24.0898 0.877972 24.3689C1.16516 24.648 1.50568 24.8753 1.86672 25.0149C2.22365 25.1545 2.62161 25.2222 3.03187 25.2222H5.32937C5.34578 25.2741 5.38271 25.3459 5.40322 25.3977C5.5304 25.7127 5.674 26.0238 5.81759 26.3388C5.94067 26.59 6.05144 26.8293 6.16632 27.0486H8.87818V27.0526ZM13.3214 23.5235C12.9809 23.5355 12.7183 23.6033 12.5419 23.7229C12.4393 23.7907 12.3655 23.8744 12.3203 23.9741C12.267 24.0858 12.2424 24.2214 12.2465 24.3769C12.2588 24.8315 12.5049 25.4296 12.9809 26.1195L12.9891 26.1274L14.5317 28.516C15.1512 29.4731 15.7994 30.45 16.6076 31.1638C17.383 31.8537 18.3225 32.3202 19.5697 32.3242C20.9154 32.3282 21.9042 31.8417 22.7042 31.116C23.537 30.3583 24.1935 29.3215 24.8376 28.2847L26.5771 25.5014C26.9012 24.7836 27.0202 24.3011 26.9464 24.018C26.9012 23.8505 26.7125 23.7668 26.3843 23.7508C26.3145 23.7468 26.2448 23.7468 26.1709 23.7468C26.093 23.7508 26.0109 23.7548 25.9289 23.7628C25.8838 23.7668 25.8386 23.7628 25.7935 23.7548C25.6376 23.7628 25.4776 23.7508 25.3176 23.7309L25.9125 21.1668C21.4939 21.8447 18.1871 18.6546 13.5142 20.5288L13.8506 23.5474C13.666 23.5514 13.4855 23.5474 13.3214 23.5235ZM26.9792 22.9852C27.4058 23.1128 27.6807 23.376 27.7956 23.8027C27.9187 24.2772 27.7833 24.9431 27.373 25.8523C27.3648 25.8682 27.3566 25.8842 27.3484 25.9001L25.5884 28.7154C24.9114 29.8 24.2222 30.8887 23.3032 31.7261L23.258 31.7659C23.3442 31.8896 23.4427 32.0251 23.5411 32.1687C23.8447 32.6033 24.1935 33.1018 24.5176 33.4886C26.4294 34.645 30.6347 34.9561 32.2798 35.8453C36.4646 38.1143 34.9384 43.6252 35.242 47.5889C35.1517 48.526 34.606 49.0643 33.5311 49.144H32.3701L33.646 39.7452C33.7445 39.0115 33.2111 38.4133 32.5506 38.4133H23.5781C23.7996 36.8781 23.9596 35.4106 24.0376 34.3021C23.6191 33.8515 23.1719 33.2135 22.7862 32.6632C22.7001 32.5435 22.618 32.4239 22.5401 32.3162C21.7319 32.8426 20.7718 33.1696 19.5697 33.1656C18.2282 33.1616 17.182 32.715 16.3163 32.0331C16.0743 32.7389 15.7173 33.7119 15.3727 34.1785C15.344 34.2183 15.3071 34.2542 15.266 34.2821C15.4137 35.4266 15.6189 36.894 15.8609 38.4173H6.67094C6.01452 38.4173 5.47707 39.0155 5.57553 39.7492L6.85146 49.148H5.6863C4.6114 49.0683 4.06575 48.5299 3.97549 47.5928C4.02882 43.3939 2.38775 38.3136 6.93762 35.8493C8.6033 34.9441 12.8988 34.637 14.7737 33.4447C15.0609 32.9224 15.3768 31.9813 15.5696 31.423C15.5902 31.3592 15.5573 31.4629 15.5902 31.3712C14.9009 30.6534 14.3388 29.804 13.7973 28.9666L12.2547 26.582C11.6885 25.7646 11.3972 25.0149 11.3767 24.4008C11.3685 24.1137 11.4177 23.8505 11.5285 23.6192C11.6434 23.38 11.8198 23.1766 12.0578 23.0211C12.1685 22.9493 12.2957 22.8855 12.4311 22.8337C12.3326 21.5377 12.2916 19.9067 12.3572 18.543C12.3901 18.22 12.4557 17.893 12.546 17.57C13.1121 15.6081 14.8476 14.1925 16.8292 13.5265C17.7892 13.2035 17.4199 12.4339 18.3923 12.4858C20.698 12.6094 24.2509 14.0529 25.6171 15.5841C27.5371 17.7255 27.0407 20.3653 26.9792 22.9852ZM16.4271 36.1085C15.6476 35.2472 15.5819 34.3459 16.4271 33.3929C17.4035 33.6322 18.2979 34.0429 19.1226 34.5972C19.299 34.5214 19.5082 34.4895 19.7092 34.5055C20.5667 33.9153 21.658 33.676 22.6139 33.2334C23.7545 34.314 23.6314 35.307 22.5114 36.2281C21.8837 36.0885 21.2888 35.8732 20.7185 35.5901C20.7021 35.7336 20.6652 35.8892 20.5954 36.0566L20.8867 38.4133H18.5605L18.8518 36.0566C18.6713 35.7576 18.6015 35.5024 18.6056 35.291C17.9287 35.6858 17.1943 35.941 16.4271 36.1085Z" fill="#181818"/>
</svg>
