<svg width="48" height="49" viewBox="0 0 48 49" fill="none" xmlns="http://www.w3.org/2000/svg">
<path d="M18.216 23.5884L22.784 19.0084L18.676 14.8884L17.07 16.4964C16.8833 16.6831 16.6553 16.7844 16.386 16.8004C16.1193 16.8177 15.8753 16.7164 15.654 16.4964C15.434 16.2751 15.324 16.0371 15.324 15.7824C15.324 15.5277 15.434 15.2897 15.654 15.0684L17.25 13.4724L13.346 9.56842L8.76595 14.1484L18.216 23.5884ZM33.884 39.2684L38.464 34.6884L34.562 30.7844L32.954 32.3804C32.7593 32.5751 32.53 32.6791 32.266 32.6924C32.002 32.7057 31.7593 32.6017 31.538 32.3804C31.318 32.1591 31.208 31.9231 31.208 31.6724C31.208 31.4217 31.318 31.1857 31.538 30.9644L33.134 29.3564L29.054 25.2884L24.484 29.8564L33.884 39.2684ZM31.064 13.5764L34.52 17.0304L38.012 13.5384L34.546 10.0724L31.064 13.5764ZM9.61795 40.0724C9.15395 40.0724 8.76862 39.9191 8.46195 39.6124C8.15529 39.3057 8.00195 38.9204 8.00195 38.4564V34.4224C8.00195 34.2064 8.03929 34.0057 8.11395 33.8204C8.18862 33.6337 8.31262 33.4537 8.48595 33.2804L16.79 24.9764L7.29395 15.4424C6.93262 15.0797 6.75195 14.6484 6.75195 14.1484C6.75195 13.6484 6.93262 13.2177 7.29395 12.8564L12.054 8.09642C12.4166 7.73375 12.848 7.55442 13.348 7.55842C13.848 7.56242 14.2786 7.74508 14.64 8.10642L24.226 17.6424L33.16 8.69641C33.38 8.47508 33.612 8.31575 33.856 8.21841C34.1 8.12108 34.36 8.07241 34.636 8.07241C34.9133 8.07241 35.1733 8.12108 35.416 8.21841C35.6586 8.31575 35.8913 8.47508 36.114 8.69641L39.378 12.0884C39.5993 12.3084 39.7526 12.5404 39.838 12.7844C39.922 13.0271 39.964 13.2871 39.964 13.5644C39.964 13.8417 39.9213 14.0937 39.836 14.3204C39.752 14.5471 39.5993 14.7711 39.378 14.9924L30.522 23.8984L39.978 33.4344C40.3406 33.7944 40.522 34.2251 40.522 34.7264C40.522 35.2277 40.3406 35.6584 39.978 36.0184L35.218 40.7784C34.8566 41.1411 34.426 41.3224 33.926 41.3224C33.426 41.3224 32.9946 41.1417 32.632 40.7804L23.098 31.2844L14.794 39.5884C14.6206 39.7617 14.4406 39.8857 14.254 39.9604C14.0673 40.0351 13.8666 40.0724 13.652 40.0724H9.61795Z" fill="#ffffff"/>
</svg>
