<svg width="48" height="49" viewBox="0 0 48 49" fill="none" xmlns="http://www.w3.org/2000/svg">
<path d="M24 36.0725C22.9521 36.0728 21.9369 35.7073 21.1297 35.0391C20.3224 34.371 19.7736 33.442 19.578 32.4125C16.6341 31.5058 14.042 29.712 12.156 27.2765C10.7307 25.4411 9.75128 23.2995 9.29511 21.0208C8.83894 18.7421 8.91846 16.3886 9.5274 14.1459C10.1363 11.9032 11.258 9.83266 12.804 8.0976C14.35 6.36253 16.278 5.0104 18.4359 4.14787C20.5938 3.28533 22.9226 2.93598 25.2386 3.12738C27.5547 3.31877 29.7945 4.04566 31.7816 5.25073C33.7686 6.4558 35.4485 8.10607 36.6887 10.0714C37.9289 12.0367 38.6955 14.2633 38.928 16.5755C39.009 17.4005 38.328 18.0725 37.5 18.0725C36.672 18.0725 36.009 17.3975 35.91 16.5755C35.6423 14.454 34.8125 12.4426 33.5066 10.7494C32.2006 9.05614 30.466 7.74263 28.4821 6.94475C26.4982 6.14686 24.3371 5.89358 22.2225 6.21112C20.1078 6.52865 18.1165 7.40547 16.4544 8.75084C14.7924 10.0962 13.52 11.8613 12.7689 13.8634C12.0179 15.8655 11.8155 18.0319 12.1827 20.1385C12.5498 22.2451 13.4732 24.2153 14.8573 25.8452C16.2413 27.4752 18.0358 28.7058 20.055 29.4095C20.4367 28.7131 20.996 28.1301 21.676 27.7197C22.3559 27.3094 23.1324 27.0863 23.9265 27.0731C24.7206 27.06 25.504 27.2572 26.1972 27.6448C26.8904 28.0324 27.4686 28.5965 27.8733 29.2799C28.2779 29.9633 28.4944 30.7416 28.5009 31.5358C28.5074 32.3299 28.3036 33.1117 27.9102 33.8016C27.5168 34.4915 26.9478 35.065 26.2611 35.4639C25.5743 35.8627 24.7942 36.0727 24 36.0725ZM12 31.5725V31.4915C11.1801 30.7565 10.429 29.9481 9.756 29.0765C9.262 29.8151 8.99884 30.684 9 31.5725V33.0725C9 38.9855 14.58 45.0725 24 45.0725C33.42 45.0725 39 38.9855 39 33.0725V31.5725C39 30.3791 38.5259 29.2345 37.682 28.3905C36.8381 27.5466 35.6935 27.0725 34.5 27.0725H30C30.657 27.9425 31.125 28.9625 31.35 30.0725H34.5C34.8978 30.0725 35.2794 30.2306 35.5607 30.5119C35.842 30.7932 36 31.1747 36 31.5725V33.0725C36 37.3865 31.704 42.0725 24 42.0725C16.296 42.0725 12 37.3865 12 33.0725V31.5725ZM24 24.0725C22.283 24.07 20.6176 24.6591 19.284 25.7405C17.9722 24.9372 16.8891 23.8099 16.1388 22.467C15.3886 21.1241 14.9964 19.6108 15 18.0725C15.0004 16.5035 15.4111 14.9618 16.1912 13.6004C16.9713 12.239 18.0938 11.1052 19.4473 10.3115C20.8008 9.51778 22.3383 9.0917 23.9073 9.07554C25.4763 9.05938 27.0222 9.45368 28.3918 10.2193C29.7614 10.985 30.9069 12.0954 31.715 13.4405C32.5229 14.7855 32.9653 16.3184 32.998 17.8871C33.0308 19.4558 32.6529 21.0059 31.9018 22.3835C31.1506 23.761 30.0524 24.9183 28.716 25.7405C27.3824 24.6591 25.717 24.07 24 24.0725ZM18 18.0725C18 19.6638 18.6321 21.1899 19.7574 22.3152C20.8826 23.4404 22.4087 24.0725 24 24.0725C25.5913 24.0725 27.1174 23.4404 28.2426 22.3152C29.3679 21.1899 30 19.6638 30 18.0725C30 16.4812 29.3679 14.9551 28.2426 13.8299C27.1174 12.7047 25.5913 12.0725 24 12.0725C22.4087 12.0725 20.8826 12.7047 19.7574 13.8299C18.6321 14.9551 18 16.4812 18 18.0725Z" fill="#181818"/>
</svg>
