<svg width="35" height="35" viewBox="0 0 35 35" fill="none" xmlns="http://www.w3.org/2000/svg">
<path d="M12.216 16.5884L16.784 12.0084L12.676 7.88841L11.07 9.49642C10.8833 9.68308 10.6553 9.78442 10.386 9.80042C10.1193 9.81775 9.87529 9.71642 9.65395 9.49642C9.43395 9.27508 9.32395 9.03708 9.32395 8.78242C9.32395 8.52775 9.43395 8.28975 9.65395 8.06842L11.25 6.47241L7.34595 2.56842L2.76595 7.14842L12.216 16.5884ZM27.884 32.2684L32.464 27.6884L28.562 23.7844L26.954 25.3804C26.7593 25.5751 26.53 25.6791 26.266 25.6924C26.002 25.7057 25.7593 25.6017 25.538 25.3804C25.318 25.1591 25.208 24.9231 25.208 24.6724C25.208 24.4217 25.318 24.1857 25.538 23.9644L27.134 22.3564L23.054 18.2884L18.484 22.8564L27.884 32.2684ZM25.064 6.57641L28.52 10.0304L32.012 6.53841L28.546 3.07242L25.064 6.57641ZM3.61795 33.0724C3.15395 33.0724 2.76862 32.9191 2.46195 32.6124C2.15529 32.3057 2.00195 31.9204 2.00195 31.4564V27.4224C2.00195 27.2064 2.03929 27.0057 2.11395 26.8204C2.18862 26.6337 2.31262 26.4537 2.48595 26.2804L10.79 17.9764L1.29395 8.44241C0.93262 8.07975 0.751953 7.64842 0.751953 7.14842C0.751953 6.64842 0.93262 6.21775 1.29395 5.85642L6.05395 1.09642C6.41662 0.733748 6.84795 0.554415 7.34795 0.558415C7.84795 0.562415 8.27862 0.745082 8.63995 1.10642L18.226 10.6424L27.16 1.69641C27.38 1.47508 27.612 1.31575 27.856 1.21841C28.1 1.12108 28.36 1.07241 28.636 1.07241C28.9133 1.07241 29.1733 1.12108 29.416 1.21841C29.6586 1.31575 29.8913 1.47508 30.114 1.69641L33.378 5.08841C33.5993 5.30841 33.7526 5.54041 33.838 5.78441C33.922 6.02708 33.964 6.28708 33.964 6.56441C33.964 6.84175 33.9213 7.09375 33.836 7.32042C33.752 7.54708 33.5993 7.77108 33.378 7.99241L24.522 16.8984L33.978 26.4344C34.3406 26.7944 34.522 27.2251 34.522 27.7264C34.522 28.2277 34.3406 28.6584 33.978 29.0184L29.218 33.7784C28.8566 34.1411 28.426 34.3224 27.926 34.3224C27.426 34.3224 26.9946 34.1417 26.632 33.7804L17.098 24.2844L8.79395 32.5884C8.62062 32.7617 8.44062 32.8857 8.25395 32.9604C8.06729 33.0351 7.86662 33.0724 7.65195 33.0724H3.61795Z" fill="#181818"/>
</svg>
