<svg width="81" height="33" viewBox="0 0 81 33" fill="none" xmlns="http://www.w3.org/2000/svg">
<g clip-path="url(#clip0_2470_1172)">
<path d="M0.505859 0.754954C0.505859 0.754954 3.67652 0.355009 5.79045 2.22757C7.09512 3.38256 7.47522 5.22387 7.47522 5.22387L11.792 22.0308L15.3824 8.27518C15.7311 6.81319 16.362 5.00484 17.3586 3.78267C18.6304 2.22616 21.2124 2.12789 21.4877 2.12789C21.7631 2.12789 24.3437 2.22632 25.6145 3.78267C26.611 5.00484 27.2417 6.81194 27.5918 8.27518L31.1821 22.0308L35.4976 5.22372C35.4976 5.22372 35.8793 3.38272 37.184 2.22757C39.2979 0.354852 42.4673 0.754798 42.4673 0.754798L34.2009 32.1643C34.2009 32.1643 31.4748 32.3624 30.1096 31.6634C28.3172 30.7454 27.4662 30.0374 26.3804 25.7626C25.8317 23.5762 25.2897 21.388 24.7544 19.1982L24.5512 18.3733C24.0383 16.2781 23.5225 14.1835 23.0037 12.0897L22.807 11.3029C22.6261 10.5895 22.5016 10.1096 22.4571 9.96541C22.3351 9.57062 22.1895 8.63044 21.4866 8.63044C20.7995 8.63044 20.6408 9.57187 20.5162 9.96541C20.4703 10.1096 20.3458 10.5881 20.1661 11.3027L19.9693 12.0897C19.5506 13.7725 19.1354 15.4562 18.7237 17.1407L18.5218 17.9617C17.8868 20.5642 17.2442 23.1649 16.5941 25.7637C15.5083 30.0374 14.6561 30.7468 12.8634 31.6634C11.4984 32.3624 8.77223 32.1643 8.77223 32.1643L0.505859 0.754954ZM50.3325 5.96471V7.09893H50.3351V26.0592C50.3206 29.9499 49.9444 30.814 48.3079 31.7096C47.0359 32.4058 45.0899 32.1424 45.0899 32.1424V10.9028C45.0899 9.83684 45.4203 9.13787 46.6386 8.51108C47.3663 8.13613 48.0442 7.84883 48.7497 7.42404C49.7137 6.84709 50.2027 6.16125 50.3101 5.99861L50.3325 5.96471ZM52.9578 0.859783C52.9578 0.859783 57.2286 0.103168 59.3438 2.10555C60.5331 3.23196 61.8483 5.1517 62.146 5.59492L62.2023 5.67881L62.2088 5.68928L65.933 11.2702C66.1127 11.56 66.3486 11.8761 66.7263 11.8761C67.1027 11.8761 67.34 11.5613 67.5209 11.2702L71.2439 5.68928L71.2503 5.67881L71.3067 5.59492C71.6043 5.1517 72.9196 3.23196 74.1102 2.1043C76.2239 0.103168 80.4949 0.858534 80.4949 0.858534L70.3757 16.5101L80.4674 32.1107C80.4674 32.1107 76.0982 32.6954 73.983 30.6932C72.6298 29.4134 71.2437 27.3296 71.2437 27.3296L67.5197 21.7501C67.34 21.459 67.1025 21.1429 66.7263 21.1429C66.3487 21.1429 66.1127 21.4577 65.9316 21.7501L62.2088 27.3296C62.2088 27.3296 60.8989 29.4134 59.547 30.6932C57.4318 32.6954 52.9838 32.1107 52.9838 32.1107L63.0757 16.5101L52.9578 0.859783ZM50.322 0.71949H50.3351C50.3351 2.80452 50.1383 4.04372 48.8796 5.00625C48.2952 5.45529 47.6508 5.82025 46.9651 6.09047C46.2698 6.36177 45.6332 6.76429 45.0899 7.27609C45.0899 3.47849 45.6445 2.10289 47.1356 1.28863C48.0626 0.78245 49.5851 0.724646 50.1319 0.71949H50.322Z" fill="black"/>
</g>
<defs>
<clipPath id="clip0_2470_1172">
<rect width="80" height="31.5582" fill="white" transform="translate(0.5 0.71875)"/>
</clipPath>
</defs>
</svg>
