<svg width="86" height="60" viewBox="0 0 86 60" fill="none" xmlns="http://www.w3.org/2000/svg">
<g clip-path="url(#clip0_2470_1162)">
<path d="M83.9487 9.35833C83.4593 7.54952 82.5045 5.90048 81.1795 4.57543C79.8545 3.25037 78.2055 2.29554 76.3967 1.806C69.7747 0 43.1234 0 43.1234 0C43.1234 0 16.4707 0.0546665 9.84873 1.86067C8.0399 2.35023 6.39088 3.30512 5.06588 4.63023C3.74088 5.95535 2.78614 7.60446 2.29673 9.41333C0.293731 21.1793 -0.483269 39.108 2.35173 50.4033C2.84119 52.2122 3.79595 53.8612 5.12095 55.1862C6.44594 56.5113 8.09494 57.4661 9.90373 57.9557C16.5257 59.7617 43.1777 59.7617 43.1777 59.7617C43.1777 59.7617 69.8294 59.7617 76.4511 57.9557C78.2599 57.4662 79.909 56.5114 81.234 55.1863C82.5591 53.8613 83.5139 52.2122 84.0034 50.4033C86.1161 38.6207 86.7671 20.703 83.9487 9.35833Z" fill="#FF0000"/>
<path d="M34.6484 42.6901L56.7578 29.8841L34.6484 17.0781V42.6901Z" fill="white"/>
</g>
<defs>
<clipPath id="clip0_2470_1162">
<rect width="85.35" height="60" fill="white" transform="translate(0.5)"/>
</clipPath>
</defs>
</svg>
