<svg width="201" height="200" viewBox="0 0 201 200" fill="none" xmlns="http://www.w3.org/2000/svg">
<g clip-path="url(#clip0_1102_1043)">
<rect x="-2.5" width="200" height="200" rx="20" fill="#F7F7F7"/>
<path d="M185.868 112.024C179.98 127.796 167.948 144.868 151.016 149.92C125.416 157.56 122.376 178.184 76.5522 176.272C69.8611 176.022 63.2169 175.047 56.7362 173.364C53.5674 172.532 50.4556 171.497 47.4202 170.264C20.6482 159.424 6.7002 135.56 5.5242 110.588C3.9922 77.7479 26.9082 62.0959 41.8002 52.9279C56.6922 43.7599 74.6402 8.24787 119.704 9.77587C126.585 9.97928 133.42 10.9766 140.072 12.7479C155.236 16.8519 170.648 25.9479 179.604 39.1999C180.276 40.1945 180.919 41.2132 181.532 42.2559C193.52 62.5919 193.9 90.5199 185.868 112.024Z" fill="#176B87"/>
<path opacity="0.7" d="M185.868 112.024C179.98 127.796 167.948 144.868 151.016 149.92C125.416 157.56 122.376 178.184 76.5522 176.272C69.8611 176.022 63.2169 175.047 56.7362 173.364C53.5674 172.532 50.4556 171.497 47.4202 170.264C20.6482 159.424 6.7002 135.56 5.5242 110.588C3.9922 77.7479 26.9082 62.0959 41.8002 52.9279C56.6922 43.7599 74.6402 8.24787 119.704 9.77587C126.585 9.97928 133.42 10.9766 140.072 12.7479C155.236 16.8519 170.648 25.9479 179.604 39.1999C180.276 40.1945 180.919 41.2132 181.532 42.2559C193.52 62.5919 193.9 90.5199 185.868 112.024Z" fill="white"/>
<path d="M97.7 126.288C93.048 115.728 93.736 98.4323 95.892 96.9923C98.264 95.4123 102.02 103.52 105.78 101.148C109.54 98.7763 112.108 93.6323 108.944 85.5243C105.78 77.4163 101.628 82.7563 98.66 84.7243C95.692 86.6923 93.32 84.9243 93.916 77.8043C94.352 72.5523 96.4 62.9003 97.448 58.2043C97.92 58.4083 98.392 58.6043 98.856 58.8323C89.564 54.4803 79.28 53.0963 74.932 54.4803C70.584 55.8643 71.372 56.2603 73.544 61.4003C78.084 72.1243 60.896 75.8003 55.944 67.5403C52.98 62.5963 57.34 59.8203 56.152 56.2603C54.964 52.7003 33.016 56.8523 30.248 58.4363C30.248 58.4363 35.584 74.4363 34.796 80.1883C34.008 85.9403 31.236 88.4963 27.084 84.3403C22.932 80.1843 17.592 83.9403 17.392 90.8683C17.192 97.7963 18.38 103.324 23.128 101.744C27.876 100.164 31.632 94.4283 33.212 101.744C34.792 109.06 32.012 118.544 30.444 125.276C30.444 125.276 42.904 130.616 48.636 130.22C54.368 129.824 57.932 129.628 56.152 126.068C54.372 122.508 51.404 120.136 53.58 116.18C55.756 112.224 64.456 112.62 69.004 113.608C73.552 114.596 75.532 117.96 74.148 121.716C72.764 125.472 70.388 129.232 74.74 130.02C78.84 130.768 89.268 129.052 99.54 125.708C98.932 125.904 98.3 126.096 97.7 126.288Z" stroke="#263238" stroke-miterlimit="10"/>
<path d="M101.428 125.076C100.82 125.284 100.208 125.476 99.6001 125.688C100.208 125.488 100.82 125.284 101.428 125.076Z" stroke="#263238" stroke-miterlimit="10"/>
<path d="M173.608 82.5561C169.852 82.5561 169.652 85.5241 165.696 84.9321C161.74 84.3401 161.348 75.2401 165.5 59.2241C165.5 59.2241 160.952 62.5841 150.668 62.7841C140.384 62.9841 136.232 61.7921 138.804 58.0361C141.376 54.2801 143.352 51.3121 141.176 48.3481C139 45.3841 128.52 45.7761 125.176 48.3481C121.832 50.9201 124.188 53.8841 126.56 57.2441C128.932 60.6041 126.16 62.5841 122.208 62.7841C118.256 62.9841 108.168 63.1841 98.8722 58.8281C98.4082 58.6081 97.9362 58.4041 97.4642 58.2001C96.4162 62.9081 94.3682 72.5601 93.9322 77.8001C93.3362 84.9201 95.7082 86.7001 98.6762 84.7201C101.644 82.7401 105.796 77.4041 108.96 85.5201C112.124 93.6361 109.552 98.7681 105.796 101.144C102.04 103.52 98.2642 95.4121 95.9002 96.9921C93.7442 98.4321 93.0562 115.728 97.7082 126.288C98.9522 125.888 100.196 125.488 101.436 125.088C112.312 121.328 123.188 119.548 125.168 122.12C127.148 124.692 126.368 124.296 123.784 128.252C121.2 132.208 121.408 135.568 125.76 137.544C130.112 139.52 140.788 139.144 141.76 134.58C142.732 130.016 137.212 127.46 139.784 123.108C142.356 118.756 165.1 125.076 165.1 125.076C165.1 125.076 159.96 107.672 161.936 101.936C163.912 96.2001 165.5 97.6001 168.664 99.7601C171.828 101.92 175.98 101.74 177.564 95.4121C179.148 89.0841 177.364 82.5561 173.608 82.5561Z" stroke="#263238" stroke-miterlimit="10"/>
<path d="M161.85 40.6143C166.884 38.2379 169.039 32.2302 166.662 27.1959C164.286 22.1616 158.278 20.0071 153.244 22.3835C148.21 24.76 146.055 30.7676 148.431 35.8019C150.808 40.8362 156.816 42.9908 161.85 40.6143Z" fill="#176B87" stroke="#263238" stroke-miterlimit="10"/>
<path d="M158.395 39.7594C162.948 39.2921 166.261 35.2219 165.794 30.6685C165.326 26.1151 161.256 22.8027 156.703 23.27C152.149 23.7374 148.837 27.8075 149.304 32.3609C149.772 36.9143 153.842 40.2267 158.395 39.7594Z" fill="white" stroke="#263238" stroke-miterlimit="10"/>
<path d="M160.141 36.9644C163.151 35.5324 164.431 31.9311 162.999 28.9208C161.567 25.9104 157.965 24.6309 154.955 26.0629C151.945 27.4949 150.665 31.0961 152.097 34.1065C153.529 37.1168 157.13 38.3963 160.141 36.9644Z" fill="#176B87" stroke="#263238" stroke-miterlimit="10"/>
<path d="M161.356 31.5083C161.356 30.7543 161.132 30.0173 160.713 29.3905C160.295 28.7636 159.699 28.275 159.003 27.9865C158.306 27.6979 157.54 27.6225 156.8 27.7695C156.061 27.9166 155.382 28.2797 154.848 28.8128C154.315 29.3459 153.952 30.0252 153.805 30.7646C153.658 31.5041 153.734 32.2705 154.022 32.9671C154.311 33.6636 154.799 34.259 155.426 34.6779C156.053 35.0967 156.79 35.3203 157.544 35.3203C158.045 35.3208 158.541 35.2226 159.003 35.0312C159.466 34.8398 159.887 34.559 160.241 34.205C160.595 33.8509 160.875 33.4304 161.067 32.9677C161.258 32.505 161.356 32.009 161.356 31.5083Z" fill="white" stroke="#263238" stroke-miterlimit="10"/>
<path d="M159.312 31.5083C159.313 31.1585 159.21 30.8163 159.016 30.525C158.823 30.2337 158.547 30.0065 158.224 29.8721C157.901 29.7376 157.545 29.702 157.202 29.7698C156.859 29.8376 156.543 30.0056 156.296 30.2527C156.048 30.4998 155.879 30.8149 155.811 31.1579C155.742 31.501 155.777 31.8567 155.911 32.18C156.044 32.5033 156.271 32.7796 156.562 32.9741C156.853 33.1685 157.195 33.2723 157.544 33.2723C158.013 33.2723 158.462 33.0866 158.793 32.7559C159.125 32.4252 159.311 31.9765 159.312 31.5083Z" fill="#176B87" stroke="#263238" stroke-miterlimit="10"/>
<path d="M158.276 28.7441L157.548 31.5081L160.156 32.0801L158.276 28.7441Z" fill="#263238" stroke="#263238" stroke-miterlimit="10"/>
<path d="M159.388 30.2841L170.856 24.0361" stroke="#263238" stroke-width="2" stroke-miterlimit="10"/>
<path d="M167.176 26.0921L167.348 23.0961L172.736 20.0161V23.4361L167.176 26.0921Z" fill="#263238" stroke="#263238" stroke-miterlimit="10"/>
<path d="M175.048 25.0642L172.688 23.3242L167.152 26.2322L169.82 27.7762L175.048 25.0642Z" fill="#263238" stroke="#263238" stroke-miterlimit="10"/>
<path d="M104.704 32.1201H100.696V41.6641H104.704V32.1201Z" fill="#176B87" stroke="#263238" stroke-miterlimit="10"/>
<path d="M110.612 29.228H106.604V41.664H110.612V29.228Z" fill="#176B87" stroke="#263238" stroke-miterlimit="10"/>
<path d="M116.52 32.1201H112.512V41.6641H116.52V32.1201Z" fill="#176B87" stroke="#263238" stroke-miterlimit="10"/>
<path d="M122.432 28.6001H118.424V41.6641H122.432V28.6001Z" fill="#176B87" stroke="#263238" stroke-miterlimit="10"/>
<path d="M128.34 23.8203H124.332V41.6643H128.34V23.8203Z" fill="#176B87" stroke="#263238" stroke-miterlimit="10"/>
<path d="M123.02 16.2602L124.584 16.9282L113.948 27.1362L108.868 24.3642L100.82 29.2562V30.7322L108.9 25.8202L114.156 28.6882L125.456 17.8402L126.06 19.4282L128.296 14.2402L123.02 16.2602Z" fill="#263238" stroke="#263238" stroke-linecap="round" stroke-linejoin="round"/>
<path d="M76.3563 41.2635C81.776 39.9913 85.1383 34.5664 83.8661 29.1467C82.5939 23.727 77.169 20.3648 71.7493 21.6369C66.3296 22.9091 62.9673 28.334 64.2395 33.7537C65.5117 39.1734 70.9366 42.5357 76.3563 41.2635Z" fill="white" stroke="#263238" stroke-miterlimit="10"/>
<path d="M76.0455 40.1882C80.8698 39.0868 83.8879 34.2831 82.7865 29.4587C81.6851 24.6344 76.8814 21.6163 72.057 22.7177C67.2327 23.8191 64.2146 28.6228 65.316 33.4472C66.4174 38.2715 71.2211 41.2896 76.0455 40.1882Z" fill="#176B87" stroke="#263238" stroke-miterlimit="10"/>
<path d="M75.2847 39.4896C79.6967 38.8058 82.719 34.6748 82.0352 30.2628C81.3514 25.8509 77.2204 22.8286 72.8084 23.5124C68.3965 24.1962 65.3742 28.3271 66.058 32.7391C66.7418 37.1511 70.8727 40.1734 75.2847 39.4896Z" fill="white" stroke="#263238" stroke-miterlimit="10"/>
<path d="M73.9279 38.4243V37.1403C73.5291 37.153 73.1323 37.0783 72.7654 36.9214C72.3985 36.7646 72.0703 36.5293 71.8039 36.2323C71.3319 35.6616 71.0786 34.8096 71.0439 33.6763L72.9919 33.3443C72.9984 33.7336 73.0466 34.1212 73.1359 34.5003C73.1883 34.7634 73.3146 35.0063 73.4999 35.2003C73.581 35.2769 73.6765 35.3365 73.7809 35.3757C73.8853 35.4149 73.9965 35.4327 74.1079 35.4283C74.2213 35.4413 74.3361 35.4224 74.4393 35.3736C74.5425 35.3248 74.63 35.2481 74.6919 35.1523C74.8018 34.9586 74.8571 34.7388 74.8519 34.5163C74.8703 34.0924 74.7572 33.6733 74.5279 33.3163C74.2741 32.9584 73.9742 32.6356 73.6359 32.3563L72.4639 31.3523C72.2086 31.1151 71.9694 30.8612 71.7479 30.5923C71.5324 30.3274 71.3621 30.0287 71.2439 29.7083C71.1117 29.3306 71.048 28.9323 71.0559 28.5323C71.0373 28.1661 71.0932 27.8 71.2205 27.4562C71.3477 27.1124 71.5435 26.7981 71.7959 26.5323C72.3381 26.0359 73.0411 25.7518 73.7759 25.7323V24.4683H74.4399V25.7003C74.8685 25.7068 75.2884 25.8225 75.6599 26.0363C75.9586 26.226 76.2037 26.489 76.3719 26.8003C76.5402 27.1071 76.6616 27.4374 76.7319 27.7803C76.8032 28.1203 76.8487 28.4653 76.8679 28.8123L74.8959 29.1003C74.8914 28.7972 74.8633 28.495 74.8119 28.1963C74.7838 27.973 74.6984 27.7608 74.5639 27.5803C74.4952 27.5043 74.4091 27.4461 74.313 27.4106C74.2168 27.3751 74.1136 27.3633 74.0119 27.3763C73.8965 27.3745 73.7823 27.4013 73.6797 27.4544C73.5771 27.5074 73.4893 27.585 73.4239 27.6803C73.2919 27.8704 73.222 28.0968 73.2239 28.3283C73.2059 28.693 73.3132 29.0529 73.5279 29.3483C73.7382 29.6158 73.9696 29.8659 74.2199 30.0963L75.3639 31.0883C75.6675 31.3652 75.9497 31.6647 76.2079 31.9843C76.4657 32.3095 76.6746 32.6706 76.8279 33.0563C76.9916 33.4851 77.0717 33.9413 77.0639 34.4003C77.07 34.8617 76.9672 35.318 76.7639 35.7323C76.5665 36.1224 76.2682 36.4525 75.8999 36.6883C75.5032 36.942 75.0496 37.0932 74.5799 37.1283V38.4243H73.9279Z" fill="#263238"/>
<path d="M41.384 23.6479H22.668V41.2439H41.384V23.6479Z" fill="white" stroke="#263238" stroke-miterlimit="10"/>
<path d="M41.384 23.6479H22.668V28.1719H41.384V23.6479Z" fill="#176B87" stroke="#263238" stroke-linecap="round" stroke-linejoin="round"/>
<path d="M26.428 30.6841H24.188V32.9241H26.428V30.6841Z" fill="#176B87" stroke="#263238" stroke-linecap="round" stroke-linejoin="round"/>
<path d="M29.7879 30.6841H27.5479V32.9241H29.7879V30.6841Z" fill="#176B87" stroke="#263238" stroke-linecap="round" stroke-linejoin="round"/>
<path d="M33.1438 30.6841H30.9038V32.9241H33.1438V30.6841Z" fill="#176B87" stroke="#263238" stroke-linecap="round" stroke-linejoin="round"/>
<path d="M36.5042 30.6841H34.2642V32.9241H36.5042V30.6841Z" fill="#176B87" stroke="#263238" stroke-linecap="round" stroke-linejoin="round"/>
<path d="M39.864 30.6841H37.624V32.9241H39.864V30.6841Z" fill="#176B87" stroke="#263238" stroke-linecap="round" stroke-linejoin="round"/>
<path d="M26.428 34.2041H24.188V36.4441H26.428V34.2041Z" fill="#176B87" stroke="#263238" stroke-linecap="round" stroke-linejoin="round"/>
<path d="M29.7879 34.2041H27.5479V36.4441H29.7879V34.2041Z" fill="#176B87" stroke="#263238" stroke-linecap="round" stroke-linejoin="round"/>
<path d="M33.1438 34.2041H30.9038V36.4441H33.1438V34.2041Z" fill="#176B87" stroke="#263238" stroke-linecap="round" stroke-linejoin="round"/>
<path d="M36.5042 34.2041H34.2642V36.4441H36.5042V34.2041Z" fill="#176B87" stroke="#263238" stroke-linecap="round" stroke-linejoin="round"/>
<path d="M39.864 34.2041H37.624V36.4441H39.864V34.2041Z" fill="#176B87" stroke="#263238" stroke-linecap="round" stroke-linejoin="round"/>
<path d="M26.428 37.7241H24.188V39.9641H26.428V37.7241Z" fill="#176B87" stroke="#263238" stroke-linecap="round" stroke-linejoin="round"/>
<path d="M29.7879 37.7241H27.5479V39.9641H29.7879V37.7241Z" fill="#176B87" stroke="#263238" stroke-linecap="round" stroke-linejoin="round"/>
<path d="M33.1438 37.7241H30.9038V39.9641H33.1438V37.7241Z" fill="#176B87" stroke="#263238" stroke-linecap="round" stroke-linejoin="round"/>
<path d="M36.5042 37.7241H34.2642V39.9641H36.5042V37.7241Z" fill="#176B87" stroke="#263238" stroke-linecap="round" stroke-linejoin="round"/>
<path d="M39.864 37.7241H37.624V39.9641H39.864V37.7241Z" fill="#176B87" stroke="#263238" stroke-linecap="round" stroke-linejoin="round"/>
<path d="M26.828 20.7681H25.228V25.0881H26.828V20.7681Z" fill="#263238"/>
<path d="M30.828 20.7681H29.228V25.0881H30.828V20.7681Z" fill="#263238"/>
<path d="M34.8241 20.7681H33.2241V25.0881H34.8241V20.7681Z" fill="#263238"/>
<path d="M38.8241 20.7681H37.2241V25.0881H38.8241V20.7681Z" fill="#263238"/>
<path d="M6.39199 155.088C7.25999 155.468 9.38399 155.42 9.38399 155.42C9.38399 155.42 8.92799 154.032 8.88799 153.948C8.41999 152.972 6.94799 151.364 5.74799 151.524C5.54956 151.556 5.36022 151.63 5.19228 151.741C5.02434 151.852 4.88158 151.996 4.77328 152.166C4.66498 152.335 4.59358 152.525 4.56373 152.724C4.53387 152.923 4.54622 153.126 4.59999 153.32C4.79999 154.148 5.65199 154.768 6.39199 155.088Z" fill="#176B87"/>
<path d="M7.12385 161.244C8.02385 161.372 9.92385 160.824 10.0719 160.78C10.3827 161.864 10.7662 162.927 11.2199 163.96C11.4799 164.564 11.7639 165.16 12.0519 165.764C11.8799 165.508 11.7239 165.284 11.6959 165.256C10.9919 164.436 9.14385 163.256 8.03185 163.748C7.84885 163.831 7.68545 163.952 7.55233 164.102C7.4192 164.253 7.31936 164.43 7.25933 164.622C7.1993 164.813 7.18043 165.016 7.20396 165.215C7.22748 165.415 7.29287 165.607 7.39585 165.78C7.79585 166.528 8.79185 166.9 9.59185 167.016C10.3919 167.132 12.0279 166.7 12.4559 166.576C12.5679 166.804 12.6799 167.036 12.7959 167.264C13.3439 168.356 13.8959 169.444 14.3959 170.528C14.5759 170.908 14.7399 171.292 14.9039 171.676C14.7479 171.448 14.6199 171.276 14.5959 171.236C13.8879 170.436 12.0399 169.256 10.9279 169.728C10.7458 169.813 10.5836 169.935 10.4517 170.086C10.3197 170.237 10.2209 170.415 10.1618 170.606C10.1026 170.798 10.0843 171 10.1081 171.2C10.1319 171.399 10.1972 171.591 10.2999 171.764C10.6999 172.512 11.6999 172.88 12.4959 172.996C13.2919 173.112 14.7759 172.72 15.2959 172.596C15.4519 172.996 15.6079 173.396 15.7439 173.796C15.8279 174.064 15.9319 174.32 15.9999 174.596C16.0679 174.872 16.1519 175.132 16.2239 175.396C16.3479 175.912 16.4799 176.444 16.5879 176.952C16.6679 177.304 16.7359 177.644 16.8039 177.98C16.6279 177.6 16.2719 176.86 16.2359 176.8C15.6599 175.884 14.0119 174.456 12.8399 174.752C12.6497 174.807 12.4731 174.902 12.3212 175.029C12.1692 175.156 12.0452 175.313 11.9569 175.49C11.8686 175.668 11.818 175.861 11.8082 176.059C11.7983 176.257 11.8296 176.455 11.8999 176.64C12.1919 177.44 13.0999 177.96 13.8999 178.196C14.7479 178.452 16.6279 178.216 16.8639 178.196C16.9759 178.76 17.0799 179.308 17.1719 179.824C17.3719 180.972 17.5239 181.996 17.6399 182.864H18.4399C18.2999 181.964 18.1199 180.896 17.8799 179.696C17.7679 179.124 17.6359 178.516 17.4799 177.892C18.0469 177.665 18.5999 177.405 19.1359 177.112C19.7559 177.784 21.3399 178.568 21.5359 178.668C21.3199 179.2 21.1039 179.716 20.8919 180.196C20.4519 181.208 20.0359 182.104 19.6679 182.864H20.5279C20.8439 182.16 21.1919 181.36 21.5519 180.464C21.7759 179.924 21.9999 179.344 22.2279 178.748C22.4559 178.796 24.3159 179.172 25.1839 178.976C25.9839 178.8 26.9239 178.356 27.2799 177.576C27.3682 177.395 27.4176 177.197 27.4247 176.996C27.4318 176.795 27.3964 176.594 27.321 176.408C27.2456 176.221 27.1317 176.052 26.9868 175.912C26.8419 175.772 26.6691 175.665 26.4799 175.596C25.3319 175.196 23.5839 176.516 22.9399 177.384C22.9039 177.436 22.5399 178.036 22.3399 178.42C22.4319 178.176 22.5239 177.94 22.6119 177.688C22.7959 177.188 22.9639 176.684 23.1479 176.144L23.3879 175.344C23.4719 175.076 23.5279 174.788 23.6039 174.504C23.7599 173.852 23.8839 173.18 24.0039 172.504C24.4439 172.664 26.0039 173.208 26.8039 173.148C27.6039 173.088 28.6199 172.796 29.0839 172.08C29.1999 171.916 29.2799 171.729 29.3187 171.531C29.3574 171.334 29.354 171.13 29.3087 170.934C29.2634 170.738 29.1772 170.554 29.0557 170.394C28.9342 170.233 28.7803 170.101 28.6039 170.004C27.5279 169.452 25.5999 170.472 24.8359 171.236C24.7879 171.284 24.2999 171.892 24.0359 172.232C24.0999 171.832 24.1679 171.432 24.2199 171C24.3679 169.8 24.4799 168.58 24.6199 167.364C24.6559 166.992 24.6959 166.62 24.7359 166.248C24.8919 166.308 26.7359 166.992 27.6399 166.932C28.4399 166.872 29.4519 166.58 29.9199 165.864C30.0353 165.699 30.1148 165.512 30.1532 165.315C30.1916 165.118 30.1881 164.915 30.1428 164.719C30.0975 164.523 30.0115 164.339 29.8904 164.179C29.7693 164.018 29.6158 163.885 29.4399 163.788C28.3639 163.232 26.4359 164.252 25.6679 165.016C25.6119 165.072 24.9119 165.952 24.7439 166.184C24.8279 165.364 24.9239 164.552 25.0479 163.752C25.2124 162.672 25.4448 161.603 25.7439 160.552C25.8159 160.58 27.7439 161.304 28.6639 161.24C29.4639 161.184 30.4799 160.888 30.9439 160.172C31.0593 160.007 31.1388 159.82 31.1772 159.623C31.2156 159.426 31.2121 159.223 31.1668 159.027C31.1215 158.831 31.0355 158.647 30.9144 158.487C30.7933 158.326 30.6398 158.193 30.4639 158.096C29.3879 157.54 27.4599 158.564 26.6959 159.324C26.6359 159.384 25.8959 160.328 25.7559 160.524C25.7559 160.464 25.7879 160.4 25.8039 160.34C26.1352 159.296 26.5595 158.284 27.0719 157.316C27.3439 156.776 27.6399 156.276 27.9359 155.8C28.2799 155.972 29.8559 156.736 30.6999 156.772C31.5438 156.808 32.5399 156.62 33.0999 155.972C33.2331 155.821 33.3329 155.644 33.3929 155.452C33.4528 155.26 33.4715 155.057 33.4477 154.857C33.424 154.658 33.3582 154.465 33.2548 154.293C33.1514 154.12 33.0128 153.971 32.8479 153.856C31.8399 153.184 29.8119 153.992 28.9679 154.656C28.9199 154.692 28.4959 155.116 28.1919 155.428C28.3279 155.216 28.4639 154.992 28.5919 154.788C29.0959 154.028 29.6079 153.36 30.0639 152.788C30.3279 152.456 30.5719 152.164 30.8039 151.888C31.2279 151.888 32.9399 151.828 33.6879 151.488C34.4359 151.148 35.2559 150.508 35.4319 149.672C35.4803 149.476 35.487 149.273 35.4515 149.075C35.4161 148.877 35.3392 148.688 35.226 148.522C35.1127 148.355 34.9657 148.215 34.7944 148.109C34.6231 148.003 34.4314 147.935 34.2319 147.908C33.0319 147.78 31.5999 149.428 31.1599 150.416C31.1239 150.5 30.6839 151.904 30.7039 151.904H30.6999C30.4719 152.164 30.2279 152.444 29.9719 152.756C29.4999 153.332 28.9759 153.992 28.4519 154.756C27.8682 155.561 27.3339 156.402 26.8519 157.272C26.313 158.24 25.8619 159.255 25.5039 160.304V160.344C25.5039 159.988 25.5039 158.996 25.5039 158.92C25.3639 157.848 24.4639 155.86 23.2759 155.64C23.0771 155.609 22.874 155.62 22.6799 155.672C22.4857 155.725 22.3048 155.818 22.149 155.945C21.9931 156.072 21.8658 156.231 21.7753 156.411C21.6848 156.59 21.6332 156.787 21.6239 156.988C21.5559 157.84 22.1719 158.692 22.7719 159.228C23.4519 159.836 25.3359 160.428 25.4879 160.468C25.1481 161.545 24.8808 162.643 24.6879 163.756C24.5719 164.404 24.4759 165.06 24.3879 165.716C24.3879 165.412 24.3879 165.136 24.3879 165.1C24.2479 164.028 23.3479 162.04 22.1599 161.82C21.9614 161.789 21.7587 161.8 21.5648 161.852C21.3709 161.904 21.1902 161.997 21.0344 162.124C20.8786 162.251 20.7512 162.409 20.6605 162.588C20.5698 162.767 20.5178 162.963 20.5079 163.164C20.4399 164.016 21.0559 164.868 21.6559 165.408C22.2559 165.948 23.8639 166.484 24.2879 166.608L24.1919 167.368C24.0479 168.568 23.9079 169.792 23.7359 170.968C23.6758 171.368 23.5999 171.792 23.5239 172.204C23.5239 171.932 23.5239 171.7 23.5239 171.668C23.3839 170.596 22.4879 168.604 21.2959 168.384C21.0972 168.353 20.8944 168.365 20.7005 168.418C20.5066 168.471 20.3259 168.564 20.1702 168.691C20.0145 168.818 19.8872 168.976 19.7965 169.155C19.7059 169.335 19.6538 169.531 19.6439 169.732C19.5759 170.584 20.1919 171.436 20.7959 171.972C21.3999 172.508 22.8439 173 23.3479 173.172C23.2599 173.572 23.1719 174.004 23.0679 174.408C22.9919 174.676 22.9359 174.944 22.8439 175.208C22.7519 175.472 22.6719 175.744 22.5879 176.008C22.4039 176.508 22.2199 177.024 22.0319 177.508L21.6319 178.484C21.6959 178.084 21.8079 177.256 21.8079 177.184C21.7932 176.234 21.5372 175.303 21.0639 174.48C21.0718 174.375 21.0718 174.269 21.0639 174.164C21.0363 173.966 20.9678 173.776 20.8626 173.606C20.7574 173.436 20.6179 173.29 20.453 173.177C20.2881 173.064 20.1014 172.987 19.9049 172.95C19.7084 172.913 19.5064 172.918 19.3119 172.964C18.1439 173.276 17.3999 175.328 17.3439 176.408C17.3439 176.472 17.3839 177.168 17.4159 177.608C17.3599 177.352 17.3039 177.108 17.2399 176.844C17.1159 176.328 16.9799 175.816 16.8399 175.264C16.7599 175 16.6759 174.732 16.5959 174.464C16.5159 174.196 16.4079 173.92 16.3119 173.644C16.0839 173.012 15.8159 172.384 15.5359 171.756C15.9879 171.648 17.5919 171.24 18.2319 170.744C18.8719 170.248 19.5519 169.448 19.5479 168.596C19.553 168.395 19.5158 168.195 19.4387 168.009C19.3616 167.823 19.2464 167.656 19.1004 167.517C18.9545 167.379 18.7811 167.273 18.5915 167.206C18.4019 167.139 18.2004 167.112 17.9999 167.128C16.7999 167.26 15.7519 169.176 15.5359 170.236C15.5359 170.3 15.4519 171.076 15.4199 171.504C15.2479 171.128 15.0759 170.752 14.8919 170.376C14.3519 169.296 13.7759 168.216 13.2039 167.136L12.6839 166.144C12.8479 166.104 14.7599 165.66 15.4839 165.108C16.1279 164.616 16.8039 163.812 16.7999 162.96C16.805 162.759 16.7678 162.559 16.6907 162.373C16.6136 162.187 16.4984 162.02 16.3524 161.881C16.2065 161.743 16.0331 161.637 15.8435 161.57C15.6539 161.503 15.4524 161.476 15.2519 161.492C14.0519 161.624 13.0039 163.54 12.7879 164.6C12.7879 164.68 12.6679 165.8 12.6599 166.084C12.2599 165.352 11.9079 164.624 11.5719 163.888C11.1047 162.898 10.7038 161.879 10.3719 160.836C10.4479 160.836 12.4479 160.364 13.1719 159.8C13.8119 159.308 14.4919 158.504 14.4839 157.652C14.4895 157.451 14.4529 157.251 14.3762 157.065C14.2996 156.88 14.1848 156.712 14.0391 156.574C13.8935 156.435 13.7204 156.329 13.531 156.262C13.3416 156.195 13.1402 156.168 12.9399 156.184C11.7399 156.316 10.6919 158.232 10.4719 159.288C10.4719 159.372 10.3479 160.576 10.3439 160.796L10.2799 160.612C9.9825 159.558 9.77772 158.481 9.66785 157.392C9.59985 156.792 9.57185 156.212 9.55185 155.652C9.95185 155.604 11.6759 155.372 12.3959 154.936C13.1159 154.5 13.8479 153.792 13.9359 152.936C13.9635 152.737 13.9488 152.534 13.8929 152.341C13.8369 152.148 13.7409 151.968 13.6111 151.815C13.4813 151.661 13.3206 151.537 13.1395 151.449C12.9583 151.362 12.7609 151.314 12.5599 151.308C11.3599 151.308 10.1039 153.096 9.75985 154.108C9.75985 154.164 9.61985 154.752 9.53985 155.184C9.53985 154.928 9.53985 154.668 9.53985 154.424C9.53985 153.508 9.59985 152.668 9.65585 151.928C9.69185 151.528 9.73185 151.128 9.77585 150.772C10.1239 150.532 11.5239 149.544 11.9559 148.836C12.3879 148.128 12.7199 147.152 12.4039 146.36C12.3359 146.171 12.2291 145.999 12.0903 145.855C11.9515 145.71 11.7838 145.597 11.5982 145.521C11.4126 145.446 11.2132 145.41 11.0129 145.417C10.8126 145.423 10.616 145.472 10.4359 145.56C9.35985 146.116 9.07585 148.28 9.23585 149.344C9.23585 149.436 9.65985 150.852 9.67585 150.84H9.69985C9.65185 151.18 9.60385 151.548 9.56385 151.948C9.48785 152.692 9.41185 153.528 9.39185 154.448C9.35797 155.438 9.38067 156.429 9.45985 157.416C9.54757 158.521 9.73228 159.615 10.0119 160.688V160.728C9.81985 160.428 9.25985 159.612 9.21185 159.552C8.50385 158.752 6.65585 157.572 5.54385 158.044C5.37325 158.13 5.22163 158.249 5.0979 158.395C4.97418 158.541 4.88086 158.71 4.82346 158.892C4.76605 159.074 4.74571 159.266 4.76364 159.456C4.78157 159.647 4.8374 159.831 4.92785 160C5.33985 160.756 6.32385 161.124 7.12385 161.244Z" fill="#176B87"/>
<path d="M27.8758 155.556C27.8758 155.556 28.2758 154.144 28.2758 154.052C28.4278 152.984 28.0838 150.828 26.9958 150.3C26.8125 150.217 26.6137 150.174 26.4125 150.173C26.2113 150.172 26.0122 150.214 25.8283 150.295C25.6444 150.377 25.4798 150.497 25.3453 150.646C25.2107 150.796 25.1094 150.972 25.0478 151.164C24.7558 151.964 25.1238 152.952 25.5638 153.628C26.0758 154.424 27.8718 155.556 27.8758 155.556Z" fill="#176B87"/>
<path d="M154.036 155.088C154.904 155.468 157.028 155.42 157.028 155.42C157.028 155.42 156.572 154.032 156.532 153.948C156.064 152.972 154.592 151.364 153.392 151.524C153.194 151.556 153.004 151.63 152.836 151.741C152.668 151.852 152.526 151.996 152.417 152.166C152.309 152.335 152.238 152.525 152.208 152.724C152.178 152.923 152.19 153.126 152.244 153.32C152.444 154.148 153.296 154.768 154.036 155.088Z" fill="#176B87"/>
<path d="M154.768 161.244C155.668 161.372 157.568 160.824 157.716 160.78C158.029 161.864 158.412 162.926 158.864 163.96C159.124 164.564 159.408 165.16 159.696 165.764C159.524 165.508 159.368 165.284 159.34 165.256C158.636 164.436 156.788 163.256 155.676 163.748C155.493 163.831 155.33 163.952 155.196 164.102C155.063 164.253 154.964 164.43 154.903 164.621C154.843 164.813 154.825 165.016 154.848 165.215C154.872 165.415 154.937 165.607 155.04 165.78C155.44 166.528 156.436 166.9 157.236 167.016C158.036 167.132 159.672 166.7 160.1 166.576C160.212 166.804 160.324 167.036 160.44 167.264C160.988 168.356 161.54 169.444 162.04 170.528C162.22 170.908 162.384 171.292 162.548 171.676C162.392 171.448 162.264 171.276 162.24 171.236C161.532 170.436 159.688 169.256 158.572 169.728C158.389 169.812 158.226 169.933 158.094 170.084C157.961 170.235 157.861 170.412 157.801 170.604C157.741 170.796 157.722 170.999 157.745 171.198C157.769 171.398 157.834 171.591 157.936 171.764C158.336 172.512 159.336 172.88 160.132 172.996C160.928 173.112 162.412 172.72 162.932 172.596C163.088 172.996 163.248 173.396 163.38 173.796C163.464 174.064 163.568 174.32 163.636 174.596C163.704 174.872 163.788 175.132 163.86 175.396C163.984 175.912 164.116 176.444 164.224 176.952C164.304 177.304 164.372 177.644 164.44 177.98C164.264 177.6 163.908 176.86 163.872 176.8C163.296 175.884 161.648 174.456 160.476 174.752C160.283 174.807 160.103 174.903 159.949 175.032C159.795 175.161 159.67 175.321 159.582 175.502C159.494 175.682 159.444 175.879 159.437 176.08C159.43 176.281 159.465 176.481 159.54 176.668C159.832 177.468 160.74 177.988 161.54 178.224C162.388 178.48 164.268 178.244 164.504 178.224C164.616 178.788 164.72 179.336 164.812 179.852C165.012 181 165.164 182.024 165.28 182.892H166.08C165.94 181.992 165.76 180.924 165.52 179.724C165.408 179.152 165.276 178.544 165.12 177.92C165.687 177.693 166.24 177.432 166.776 177.14C167.396 177.812 168.98 178.596 169.176 178.696C168.96 179.228 168.744 179.744 168.532 180.224C168.092 181.236 167.676 182.132 167.308 182.892H168.168C168.484 182.188 168.832 181.388 169.192 180.492C169.416 179.952 169.64 179.372 169.868 178.776C170.096 178.824 171.956 179.2 172.824 179.004C173.624 178.828 174.564 178.384 174.92 177.604C175.008 177.423 175.058 177.225 175.065 177.024C175.072 176.823 175.037 176.622 174.961 176.435C174.886 176.249 174.772 176.08 174.627 175.94C174.482 175.8 174.309 175.692 174.12 175.624C172.972 175.224 171.224 176.544 170.58 177.412C170.544 177.464 170.18 178.064 169.98 178.448C170.072 178.204 170.164 177.968 170.256 177.716C170.436 177.216 170.604 176.712 170.788 176.172L171.028 175.372C171.112 175.104 171.168 174.816 171.244 174.532C171.4 173.88 171.524 173.208 171.644 172.532C172.084 172.692 173.644 173.236 174.444 173.176C175.244 173.116 176.26 172.824 176.724 172.108C176.84 171.943 176.92 171.756 176.959 171.559C176.998 171.362 176.994 171.158 176.949 170.962C176.904 170.766 176.817 170.582 176.696 170.422C176.574 170.261 176.42 170.128 176.244 170.032C175.168 169.48 173.24 170.5 172.476 171.264C172.428 171.312 171.94 171.92 171.676 172.26C171.74 171.86 171.808 171.46 171.86 171.028C172.008 169.828 172.12 168.608 172.24 167.392C172.276 167.02 172.316 166.648 172.356 166.276C172.512 166.336 174.356 167.02 175.26 166.96C176.06 166.9 177.072 166.608 177.54 165.892C177.655 165.727 177.735 165.54 177.773 165.343C177.812 165.146 177.808 164.942 177.763 164.747C177.718 164.551 177.632 164.367 177.511 164.206C177.389 164.046 177.236 163.913 177.06 163.816C175.984 163.26 174.056 164.28 173.288 165.044C173.232 165.1 172.532 165.98 172.364 166.212C172.448 165.392 172.544 164.58 172.668 163.78C172.833 162.699 173.065 161.631 173.364 160.58C173.436 160.608 175.364 161.332 176.284 161.268C177.084 161.212 178.1 160.916 178.564 160.2C178.679 160.035 178.759 159.848 178.797 159.651C178.836 159.454 178.832 159.25 178.787 159.055C178.742 158.859 178.656 158.675 178.535 158.514C178.413 158.354 178.26 158.221 178.084 158.124C177.008 157.568 175.08 158.592 174.316 159.352C174.256 159.412 173.516 160.356 173.376 160.552C173.376 160.492 173.408 160.428 173.424 160.368C173.755 159.324 174.18 158.312 174.692 157.344C174.964 156.804 175.26 156.304 175.556 155.828C175.9 156 177.476 156.764 178.32 156.8C179.164 156.836 180.16 156.648 180.72 156C180.853 155.849 180.953 155.672 181.013 155.48C181.073 155.288 181.092 155.085 181.068 154.885C181.044 154.685 180.978 154.493 180.875 154.32C180.772 154.148 180.633 153.999 180.468 153.884C179.46 153.212 177.432 154.02 176.588 154.684C176.544 154.72 176.116 155.144 175.812 155.456C175.948 155.244 176.084 155.02 176.212 154.816C176.72 154.056 177.228 153.388 177.684 152.816C177.948 152.484 178.192 152.192 178.424 151.916C178.848 151.916 180.56 151.856 181.308 151.516C182.056 151.176 182.876 150.536 183.052 149.7C183.1 149.504 183.107 149.301 183.072 149.103C183.036 148.905 182.959 148.716 182.846 148.55C182.733 148.383 182.586 148.242 182.415 148.137C182.243 148.031 182.052 147.962 181.852 147.936C180.652 147.808 179.216 149.456 178.776 150.444C178.74 150.528 178.3 151.932 178.32 151.932H178.348C178.12 152.192 177.876 152.472 177.62 152.784C177.148 153.36 176.624 154.02 176.1 154.784C175.523 155.59 174.996 156.43 174.52 157.3C173.981 158.268 173.53 159.283 173.172 160.332C173.174 160.345 173.174 160.358 173.172 160.372C173.172 160.016 173.172 159.024 173.172 158.948C173.032 157.876 172.132 155.888 170.944 155.668C170.745 155.637 170.542 155.648 170.348 155.7C170.154 155.753 169.973 155.846 169.817 155.973C169.661 156.1 169.534 156.259 169.443 156.438C169.353 156.618 169.301 156.815 169.292 157.016C169.224 157.868 169.84 158.72 170.44 159.256C171.12 159.864 173.004 160.456 173.156 160.496C172.816 161.573 172.549 162.671 172.356 163.784C172.24 164.432 172.144 165.088 172.056 165.744C172.056 165.44 172.056 165.164 172.056 165.128C171.916 164.056 171.016 162.068 169.828 161.848C169.63 161.817 169.427 161.828 169.233 161.88C169.039 161.932 168.858 162.025 168.703 162.152C168.547 162.278 168.419 162.436 168.329 162.616C168.238 162.795 168.186 162.991 168.176 163.192C168.108 164.044 168.724 164.896 169.324 165.436C169.924 165.976 171.532 166.512 171.956 166.636C171.928 166.888 171.892 167.14 171.86 167.396C171.716 168.596 171.576 169.82 171.404 170.996C171.344 171.396 171.268 171.82 171.192 172.232C171.192 171.96 171.192 171.728 171.192 171.696C171.052 170.624 170.156 168.632 168.964 168.412C168.765 168.381 168.563 168.393 168.369 168.446C168.175 168.498 167.994 168.591 167.838 168.718C167.683 168.846 167.555 169.004 167.465 169.183C167.374 169.363 167.322 169.559 167.312 169.76C167.244 170.612 167.86 171.464 168.464 172C169.068 172.536 170.516 173.028 171.016 173.2C170.928 173.6 170.84 174.032 170.736 174.436C170.66 174.704 170.604 174.972 170.512 175.236C170.42 175.5 170.34 175.772 170.256 176.036C170.072 176.536 169.888 177.052 169.7 177.536L169.3 178.512C169.364 178.112 169.476 177.284 169.476 177.212C169.463 176.262 169.207 175.331 168.732 174.508C168.733 174.402 168.727 174.296 168.712 174.192C168.684 173.994 168.616 173.804 168.511 173.634C168.406 173.464 168.266 173.318 168.101 173.205C167.936 173.092 167.75 173.014 167.553 172.978C167.357 172.941 167.155 172.946 166.96 172.992C165.792 173.304 165.048 175.356 164.992 176.436C164.992 176.5 165.032 177.196 165.064 177.636C165.008 177.38 164.952 177.136 164.888 176.872C164.764 176.356 164.628 175.844 164.488 175.292C164.408 175.028 164.324 174.76 164.244 174.492C164.164 174.224 164.056 173.948 163.96 173.672C163.732 173.04 163.464 172.412 163.184 171.784C163.636 171.676 165.24 171.268 165.88 170.772C166.52 170.276 167.2 169.476 167.196 168.624C167.201 168.423 167.164 168.223 167.087 168.037C167.01 167.851 166.895 167.684 166.749 167.545C166.603 167.407 166.429 167.301 166.24 167.234C166.05 167.166 165.849 167.14 165.648 167.156C164.448 167.288 163.4 169.204 163.184 170.264C163.184 170.328 163.1 171.104 163.068 171.532C162.896 171.156 162.724 170.78 162.54 170.404C162 169.324 161.424 168.244 160.852 167.164L160.332 166.172C160.496 166.132 162.408 165.688 163.132 165.136C163.776 164.644 164.452 163.84 164.448 162.988C164.453 162.787 164.416 162.587 164.339 162.401C164.262 162.215 164.147 162.048 164.001 161.909C163.855 161.771 163.681 161.665 163.492 161.598C163.302 161.53 163.101 161.504 162.9 161.52C161.7 161.652 160.652 163.568 160.436 164.628C160.436 164.708 160.316 165.828 160.308 166.112C159.928 165.38 159.556 164.652 159.22 163.916C158.76 162.926 158.365 161.906 158.04 160.864C158.116 160.864 160.116 160.392 160.84 159.828C161.48 159.336 162.16 158.532 162.152 157.68C162.158 157.479 162.121 157.279 162.044 157.093C161.968 156.907 161.853 156.74 161.707 156.601C161.562 156.463 161.389 156.357 161.199 156.29C161.01 156.222 160.808 156.196 160.608 156.212C159.408 156.344 158.36 158.26 158.14 159.316C158.14 159.4 158.016 160.604 158.012 160.824L157.948 160.64C157.651 159.586 157.446 158.509 157.336 157.42C157.272 156.82 157.24 156.24 157.22 155.68C157.62 155.632 159.344 155.4 160.064 154.964C160.784 154.528 161.516 153.82 161.604 152.964C161.632 152.764 161.617 152.562 161.561 152.369C161.505 152.175 161.409 151.996 161.279 151.843C161.149 151.689 160.989 151.565 160.808 151.477C160.626 151.39 160.429 151.342 160.228 151.336C159.028 151.336 157.772 153.124 157.428 154.136C157.428 154.192 157.288 154.78 157.208 155.212C157.208 154.956 157.208 154.696 157.208 154.452C157.208 153.536 157.268 152.696 157.324 151.956C157.36 151.556 157.4 151.156 157.444 150.8C157.792 150.56 159.192 149.572 159.624 148.864C160.056 148.156 160.388 147.18 160.072 146.388C160.004 146.199 159.897 146.027 159.758 145.883C159.62 145.738 159.452 145.624 159.266 145.549C159.081 145.474 158.881 145.438 158.681 145.445C158.481 145.451 158.284 145.5 158.104 145.588C157.028 146.144 156.744 148.308 156.924 149.372C156.924 149.464 157.324 150.88 157.364 150.868H157.384C157.336 151.208 157.288 151.576 157.248 151.976C157.172 152.72 157.096 153.556 157.076 154.476C157.042 155.466 157.065 156.456 157.144 157.444C157.232 158.548 157.416 159.643 157.696 160.716V160.756C157.504 160.456 156.944 159.64 156.896 159.58C156.188 158.78 154.34 157.6 153.228 158.072C153.045 158.155 152.881 158.276 152.748 158.427C152.615 158.578 152.515 158.756 152.455 158.948C152.395 159.14 152.376 159.342 152.4 159.542C152.424 159.742 152.489 159.935 152.592 160.108C152.984 160.756 153.968 161.124 154.768 161.244Z" fill="#176B87"/>
<path d="M175.52 155.556C175.52 155.556 175.92 154.144 175.92 154.052C176.072 152.984 175.728 150.828 174.64 150.3C174.457 150.217 174.258 150.174 174.057 150.173C173.855 150.172 173.656 150.214 173.472 150.295C173.288 150.377 173.124 150.497 172.989 150.646C172.855 150.796 172.753 150.972 172.692 151.164C172.4 151.964 172.768 152.952 173.208 153.628C173.72 154.424 175.5 155.556 175.52 155.556Z" fill="#176B87"/>
<path d="M137.232 71.8279C137.232 71.8279 137.356 67.3119 139.96 66.0319C142.564 64.7519 142.712 68.9799 142.712 68.9799C142.712 68.9799 148.668 65.1959 149.96 68.0639C151.252 70.9319 149.448 72.3199 149.448 72.3199C149.448 72.3199 154.736 72.1359 155.104 75.0359C155.472 77.9359 152.74 79.3559 152.74 79.3559C152.74 79.3559 156.008 82.0239 154.86 83.2559C153.712 84.4879 151.2 84.5759 151.2 84.5759C151.2 84.5759 152.624 87.4359 150.14 88.4519C147.656 89.4679 144.816 87.5759 144.816 87.5759C144.816 87.5759 145.256 88.8879 143.392 88.5559C141.528 88.2239 139.644 87.3559 138.488 84.6199C137.332 81.8839 135.84 74.1359 137.232 71.8279Z" fill="#263238" stroke="#263238" stroke-linecap="round" stroke-linejoin="round"/>
<path d="M109.736 159.048C109.736 159.048 108.252 164.712 108.276 165.34C108.3 165.968 107.784 167.392 108.22 167.796C109.036 168.462 109.901 169.065 110.808 169.6C111.178 169.595 111.538 169.486 111.848 169.284C111.948 169.194 112.029 169.085 112.085 168.962C112.14 168.84 112.17 168.707 112.172 168.572C112.172 168.36 111.576 167.472 111.496 167.264C111.416 167.056 112.588 164.348 113.032 163C113.365 161.797 113.603 160.569 113.744 159.328L109.736 159.048Z" fill="#BDBDBD" stroke="#263238" stroke-miterlimit="10"/>
<path d="M111.348 162.992C111.348 162.992 110.504 164.992 110.448 165.336C110.392 165.68 109.248 166.64 109.4 167.408C109.552 168.176 111.24 167.972 112.072 165.7" fill="#BDBDBD"/>
<path d="M111.348 162.992C111.348 162.992 110.504 164.992 110.448 165.336C110.392 165.68 109.248 166.64 109.4 167.408C109.552 168.176 111.24 167.972 112.072 165.7" stroke="#263238" stroke-miterlimit="10"/>
<path d="M115.128 128.28C115.128 128.28 114.42 139.832 114.152 140.852C113.884 141.872 110.668 151.188 109.96 154.052C109.526 155.826 109.217 157.627 109.036 159.444L113.352 160.352L115.776 149.704C115.776 149.704 118.944 140 118.3 135.452C117.97 132.802 116.867 130.308 115.128 128.28Z" fill="#176B87" stroke="#263238" stroke-miterlimit="10"/>
<path d="M137.612 182.852C137.664 180.34 137.768 176.952 138.012 175.012C138.412 171.66 139.844 169.588 141.316 165.412C142.788 161.236 142.916 155.748 142.916 155.748L116.556 156.668C116.556 156.668 113.5 168 111.648 176.336C111.145 178.474 110.852 180.657 110.772 182.852" fill="#176B87"/>
<path d="M137.612 182.852C137.664 180.34 137.768 176.952 138.012 175.012C138.412 171.66 139.844 169.588 141.316 165.412C142.788 161.236 142.916 155.748 142.916 155.748L116.556 156.668C116.556 156.668 113.5 168 111.648 176.336C111.145 178.474 110.852 180.657 110.772 182.852" stroke="#263238" stroke-miterlimit="10"/>
<path d="M120.008 160.916L141.94 161.532L142.404 159.836L120.008 160.916Z" fill="#263238" stroke="#263238" stroke-linecap="round" stroke-linejoin="round"/>
<path d="M118.9 182.452C118.9 182.452 118.468 168.736 118.456 161.292L118.9 182.452Z" fill="white"/>
<path d="M118.9 182.452C118.9 182.452 118.468 168.736 118.456 161.292" stroke="#263238" stroke-miterlimit="10"/>
<path d="M135.712 99.2641L138.912 101.416C138.912 101.416 142.7 104.8 143.632 107.6C144.564 110.4 143.888 127.028 142.948 132.4C142.008 137.772 144.356 144.464 145.192 148.24C146.028 152.016 146.392 159.04 146.392 159.04C146.392 159.04 146.984 159.864 136.712 160.22C126.44 160.576 119.276 161.112 118.436 161.28C117.929 161.384 117.414 161.45 116.896 161.476L116.496 157.828L115.5 160.832L113.368 160.344C113.368 160.344 114.692 153.816 115.024 151.272C115.356 148.728 117.452 140.072 117.48 136.816C117.508 133.56 114.788 128.32 114.256 125.096C113.724 121.872 114.796 116.344 117.456 112.168C120.116 107.992 121.9 106.376 127.1 102.112C132.3 97.8481 135.712 99.2641 135.712 99.2641Z" fill="#176B87" stroke="#263238" stroke-miterlimit="10"/>
<path d="M127.376 148.004L138.108 149.22L137.504 146.412L130.808 145.836" stroke="#263238" stroke-miterlimit="10"/>
<path d="M123.624 145.68L123.08 147.52L125.772 147.824" stroke="#263238" stroke-miterlimit="10"/>
<path d="M127.652 127.292C127.148 126.825 126.685 126.315 126.268 125.768" stroke="#263238" stroke-miterlimit="10"/>
<path d="M131.384 130.444C131.384 130.444 130.252 129.588 129.012 128.524" stroke="#263238" stroke-miterlimit="10"/>
<path d="M135.712 99.2643C135.712 99.2643 132.3 97.8443 127.1 102.112C121.9 106.38 120.12 108 117.448 112.168C115.852 114.745 114.791 117.617 114.328 120.612C114.392 120.924 114.46 121.24 114.536 121.564C116.024 127.852 117.68 130.892 117.68 130.892C117.68 130.892 120.56 116.564 125.572 110.756C130.584 104.948 138.908 101.416 138.908 101.416L135.712 99.2643Z" fill="#176B87" stroke="#263238" stroke-miterlimit="10"/>
<path d="M123.204 71.3162C123.204 71.3162 119.448 74.8242 119.168 77.5882C118.888 80.3522 118.596 82.7362 118.128 83.6282C117.66 84.5202 115.3 85.1042 116.1 86.4522C116.9 87.8002 117.648 87.7722 117.648 87.7722C117.648 87.7722 118.848 93.7362 119.76 94.5722C120.672 95.4082 123.9 94.9282 123.9 94.9282L124.9 102.16C124.9 102.16 118.184 108.116 116.876 116.416C115.568 124.716 117.064 129.452 117.064 129.452C117.064 129.452 117.94 116.376 120.964 111.48C123.988 106.584 131.012 101.948 132.048 101.112C133.084 100.276 135.712 99.2562 135.712 99.2562C135.712 99.2562 134.464 96.4562 134.296 95.1922C134.128 93.9282 134.184 92.0682 134.42 91.5602C134.656 91.0522 138.852 89.5282 140.42 84.7202C141.988 79.9122 139.68 74.2362 137.22 71.8202C134.76 69.4042 126.348 68.2042 123.204 71.3162Z" fill="#BDBDBD" stroke="#263238" stroke-miterlimit="10"/>
<path d="M140.436 84.728C142.036 79.928 139.696 74.244 137.236 71.828C134.776 69.412 126.352 68.204 123.208 71.316C123.208 71.316 123.008 71.504 122.696 71.828C123.891 71.5292 125.136 71.4883 126.348 71.708C128.864 72.108 128.808 74.108 128.124 76.024C127.44 77.94 127.956 78.28 129.24 79.224C130.524 80.168 129.208 81.98 130.112 82.7C131.016 83.42 131.752 79.5 133.712 82.324C135.672 85.148 134.356 86.428 133.132 87.22C132.446 87.6777 131.702 88.041 130.92 88.3C130.92 88.3 132.772 90.472 134.6 91.368C135.476 90.716 139.012 89.048 140.436 84.728Z" fill="#263238" stroke="#263238" stroke-linecap="round" stroke-linejoin="round"/>
<path d="M119.684 88.8283C119.684 88.8283 122.304 88.6123 123.516 87.4443" stroke="#263238" stroke-miterlimit="10"/>
<path d="M121.348 82.6403C121.368 83.2603 121.132 83.7724 120.824 83.7844C120.516 83.7964 120.244 83.3003 120.22 82.6803C120.196 82.0603 120.436 81.5483 120.744 81.5363C121.052 81.5243 121.324 82.0203 121.348 82.6403Z" fill="#263238"/>
<path d="M120.22 80.1082C120.22 80.1082 121.064 78.9722 122.272 80.3122" stroke="#263238" stroke-miterlimit="10"/>
<path d="M123.9 94.9363L127.024 93.7603L124.848 97.6683L123.9 94.9363Z" fill="#263238" stroke="#263238" stroke-miterlimit="10"/>
<path d="M114.904 152.348L110.808 169.6L114.484 170.456L116.508 157.84L114.904 152.348Z" fill="white" stroke="#263238" stroke-miterlimit="10"/>
<path d="M118.524 111.044C117.738 112.756 117.183 114.565 116.876 116.424C115.568 124.72 117.064 129.46 117.064 129.46C117.064 129.46 117.932 116.56 120.904 111.592C120.093 111.5 119.294 111.316 118.524 111.044Z" fill="white" stroke="#263238" stroke-miterlimit="10"/>
<path d="M131.18 116.428L130.9 131.068L105.28 135.292L105.84 142.192C105.84 142.192 120.06 142.472 126.676 141.908C133.292 141.344 139.076 140.924 139.908 140.22C140.74 139.516 143.152 125.908 144.136 116.336C145.12 106.764 143.152 103.536 139.212 104.088" fill="#176B87"/>
<path d="M131.18 116.428L130.9 131.068L105.28 135.292L105.84 142.192C105.84 142.192 120.06 142.472 126.676 141.908C133.292 141.344 139.076 140.924 139.908 140.22C140.74 139.516 143.152 125.908 144.136 116.336C145.12 106.764 143.152 103.536 139.212 104.088" stroke="#263238" stroke-miterlimit="10"/>
<path d="M89.9519 134.672L87.8999 140.896L89.8999 141.984C89.8999 141.984 92.4399 143.952 93.8319 145.016C95.2239 146.08 96.2919 146.08 97.0319 145.752C97.7719 145.424 101.128 140.672 101.536 139.772C101.944 138.872 99.9799 136.172 98.0159 135.02C96.0519 133.868 94.4159 133.876 93.2639 134.22C92.1735 134.457 91.0661 134.608 89.9519 134.672Z" fill="white" stroke="#263238" stroke-miterlimit="10"/>
<path d="M105.28 135.292L102.04 135.012C101.023 134.747 99.9885 134.559 98.9439 134.448C98.0999 134.448 96.9719 135.292 96.4079 135.716C95.8439 136.14 89.6519 142.896 89.6519 142.896C89.6519 142.896 90.2159 144.02 91.0599 143.74C91.9039 143.46 93.4599 142.752 93.4599 142.752C93.4599 142.752 91.7719 144.444 92.6159 145.288C93.4599 146.132 94.8679 146.132 94.8679 146.132L95.8559 145.568C96.2711 145.896 96.7489 146.135 97.2599 146.272C97.9639 146.412 99.0919 146.132 100.06 145.568C101.028 145.004 103.544 142.068 103.544 142.068L105.704 141.232L105.28 135.292Z" fill="#BDBDBD" stroke="#263238" stroke-miterlimit="10"/>
<path d="M91.0679 134.94C91.0679 134.94 95.1639 132.564 96.9639 133.22C98.7639 133.876 101.144 137.888 100.488 138.464C99.8319 139.04 98.7679 138.788 98.1959 138.216C97.7174 137.782 97.1961 137.397 96.6399 137.068C95.5611 137.674 94.3525 138.011 93.1159 138.052" fill="white"/>
<path d="M91.0679 134.94C91.0679 134.94 95.1639 132.564 96.9639 133.22C98.7639 133.876 101.144 137.888 100.488 138.464C99.8319 139.04 98.7679 138.788 98.1959 138.216C97.7174 137.782 97.1961 137.397 96.6399 137.068C95.5611 137.674 94.3525 138.011 93.1159 138.052" stroke="#263238" stroke-miterlimit="10"/>
<path d="M103.284 144.24L101.984 143.544C101.879 143.489 101.786 143.413 101.711 143.322C101.636 143.23 101.579 143.125 101.544 143.011C101.51 142.898 101.498 142.779 101.51 142.661C101.521 142.543 101.556 142.429 101.612 142.324C101.668 142.22 101.744 142.127 101.835 142.052C101.927 141.977 102.032 141.921 102.146 141.887C102.259 141.853 102.378 141.841 102.496 141.853C102.613 141.865 102.728 141.9 102.832 141.956L104.132 142.648C104.343 142.761 104.5 142.953 104.57 143.181C104.639 143.41 104.616 143.657 104.504 143.868C104.391 144.079 104.199 144.236 103.971 144.306C103.742 144.376 103.495 144.352 103.284 144.24Z" fill="white" stroke="#263238" stroke-miterlimit="10"/>
<path d="M102.136 145.632L100.836 144.936C100.63 144.823 100.477 144.635 100.407 144.411C100.338 144.187 100.358 143.945 100.464 143.736C100.577 143.531 100.766 143.378 100.989 143.31C101.213 143.241 101.455 143.262 101.664 143.368L102.964 144.06C103.17 144.172 103.324 144.36 103.394 144.584C103.463 144.808 103.442 145.051 103.336 145.26C103.224 145.466 103.036 145.62 102.811 145.69C102.587 145.759 102.345 145.739 102.136 145.632Z" fill="white" stroke="#263238" stroke-miterlimit="10"/>
<path d="M100.824 146.86L99.5237 146.164C99.419 146.109 99.3263 146.033 99.251 145.942C99.1757 145.85 99.1193 145.744 99.0851 145.631C99.0508 145.518 99.0394 145.398 99.0516 145.281C99.0637 145.163 99.0991 145.048 99.1557 144.944C99.2116 144.84 99.2875 144.747 99.379 144.672C99.4706 144.597 99.5761 144.541 99.6894 144.507C99.8027 144.473 99.9217 144.461 100.039 144.473C100.157 144.485 100.272 144.52 100.376 144.576L101.676 145.272C101.78 145.328 101.872 145.404 101.947 145.495C102.022 145.587 102.079 145.693 102.113 145.806C102.147 145.919 102.159 146.038 102.147 146.156C102.135 146.274 102.1 146.388 102.044 146.492C101.988 146.597 101.912 146.689 101.82 146.764C101.729 146.839 101.623 146.895 101.51 146.929C101.397 146.963 101.278 146.975 101.16 146.963C101.042 146.951 100.928 146.916 100.824 146.86Z" fill="white" stroke="#263238" stroke-miterlimit="10"/>
<path d="M98.0642 146.92L97.7242 146.74C97.6194 146.685 97.5267 146.609 97.4513 146.518C97.3759 146.426 97.3193 146.321 97.2847 146.207C97.2502 146.094 97.2383 145.975 97.2499 145.857C97.2615 145.739 97.2962 145.625 97.3522 145.52C97.465 145.309 97.6567 145.152 97.8854 145.082C98.114 145.013 98.3609 145.036 98.5722 145.148L98.9122 145.332C99.0169 145.388 99.1096 145.463 99.185 145.555C99.2604 145.646 99.317 145.751 99.3516 145.865C99.3861 145.978 99.398 146.097 99.3864 146.215C99.3748 146.333 99.3401 146.448 99.2842 146.552C99.2283 146.656 99.1524 146.749 99.0609 146.824C98.9693 146.899 98.8638 146.955 98.7505 146.989C98.6372 147.023 98.5182 147.035 98.4004 147.023C98.2827 147.011 98.1684 146.976 98.0642 146.92Z" fill="white" stroke="#263238" stroke-miterlimit="10"/>
<path d="M89.9518 134.672L72.7598 127.404L73.3958 138.792L87.5918 142.044L89.9518 134.672Z" fill="#263238" stroke="#263238" stroke-linecap="round" stroke-linejoin="round"/>
<path d="M87.5918 142.044L89.9518 134.672L87.5478 133.608L87.4998 133.852L85.2998 141.488L87.5918 142.044Z" fill="white" stroke="#263238" stroke-miterlimit="10"/>
<path d="M63.1001 89.1201L67.5001 91.1641C67.5001 91.1641 69.3481 96.4001 68.7321 96.5521C68.1161 96.7041 63.4961 93.0121 63.4961 93.0121L63.1001 89.1201Z" fill="white" stroke="#263238" stroke-linecap="round" stroke-linejoin="round"/>
<path d="M65.6561 88.0721L65.9641 86.3081C65.9641 86.3081 70.0441 86.5881 71.6761 86.5761C73.3081 86.5641 74.7321 86.3561 74.7201 84.6241C74.7081 82.8921 73.7561 76.9841 73.7561 76.9841C73.7561 76.9841 75.5881 76.5641 76.2961 75.7441C77.0041 74.9241 75.9801 73.9121 75.0561 72.6921C74.1321 71.4721 73.3041 70.1561 73.1961 68.7281C73.0881 67.3001 70.6081 62.6281 70.6081 62.6281C70.6081 62.6281 71.0081 61.9121 69.6761 60.3921C68.3441 58.8721 61.5121 58.6081 57.1401 60.7921C52.7681 62.9761 51.7721 66.1281 51.7921 69.5921C51.8121 73.0561 53.7921 77.9401 53.7921 77.9401C53.7921 77.9401 52.5001 83.2481 52.4001 83.5401C52.3001 83.8321 51.1401 86.1081 51.1401 86.1081C51.1401 86.1081 56.6081 89.9201 58.6041 91.6321C60.6001 93.3441 65.1081 96.2721 65.1361 94.6881C65.1641 93.1041 65.3441 89.5281 65.3441 89.5281L65.6561 88.0721Z" fill="white" stroke="#263238" stroke-linecap="round" stroke-linejoin="round"/>
<path d="M71.6842 71.5282C71.7082 72.1202 71.5722 72.6042 71.3762 72.6122C71.1802 72.6202 70.9962 72.1522 70.9762 71.5602C70.9562 70.9682 71.0842 70.4842 71.2842 70.4762C71.4842 70.4682 71.6562 70.9362 71.6842 71.5282Z" fill="#263238"/>
<path d="M68.8159 69.5722C68.8159 69.5722 69.7239 68.0362 72.0759 68.9402" stroke="#263238" stroke-width="2" stroke-linecap="round" stroke-linejoin="round"/>
<path d="M74.7198 84.6241C74.7198 82.8881 73.7558 76.9841 73.7558 76.9841C73.7558 76.9841 72.6318 76.3801 70.4918 76.9001C68.3518 77.4201 67.7678 80.9001 67.3598 81.3001C66.9518 81.7001 64.2918 79.3001 63.2598 77.6561C62.2278 76.0121 61.4998 73.2001 61.3878 71.5561C61.2758 69.9121 65.1438 69.0841 65.7478 67.5561C66.3518 66.0281 63.4998 64.4001 64.4958 63.3801C65.4918 62.3601 67.5518 62.7521 68.5718 62.9481C69.2671 63.0421 69.9748 62.9309 70.6078 62.6281C70.6078 62.6281 71.0078 61.9121 69.6758 60.3921C68.3438 58.8721 61.5118 58.6081 57.1398 60.7921C52.7678 62.9761 51.7718 66.1281 51.7918 69.5921C51.8118 72.3921 53.1078 76.1361 53.5958 77.4561C54.0088 77.6347 54.4538 77.7272 54.9038 77.7281C55.3038 77.6241 55.6078 76.4001 55.8038 75.1721C55.9998 73.9441 58.9478 72.5041 58.9478 72.5041C58.9478 72.5041 59.4798 76.1721 59.4838 76.8841C59.4878 77.5961 59.0838 81.1681 61.0518 82.8841C62.5927 84.1615 64.2355 85.3106 65.9638 86.3201C65.9638 86.3201 70.0438 86.6001 71.6758 86.5881C73.3078 86.5761 74.7318 86.3561 74.7198 84.6241Z" fill="#263238" stroke="#263238" stroke-linecap="round" stroke-linejoin="round"/>
<path d="M59.5759 75.0323C59.5759 75.0323 58.7279 70.1443 57.3039 70.3563C55.8799 70.5683 55.0719 72.4083 55.7999 74.7563C56.5279 77.1043 57.9559 76.8843 58.7679 76.6763" fill="white"/>
<path d="M59.5759 75.0323C59.5759 75.0323 58.7279 70.1443 57.3039 70.3563C55.8799 70.5683 55.0719 72.4083 55.7999 74.7563C56.5279 77.1043 57.9559 76.8843 58.7679 76.6763" stroke="#263238" stroke-linecap="round" stroke-linejoin="round"/>
<path d="M69.5879 78.7402C69.5879 78.7402 70.4079 79.7562 72.5479 79.7442" stroke="white" stroke-linecap="round" stroke-linejoin="round"/>
<path d="M46.7 182.852H68.3C68.372 181.716 69.212 177.348 69.212 174.484C69.212 171.176 71.488 149.836 71.488 149.836L43.396 149.468L44.316 162.528L46.7 182.852Z" fill="#263238" stroke="#263238" stroke-linecap="round" stroke-linejoin="round"/>
<path d="M49.5 86.8521C49.5 86.8521 44.576 93.168 43.188 96.708C41.8 100.248 40.724 100.864 41.032 105.328C41.34 109.792 43.5 127.652 43.5 127.652L39.188 150.904C44.2773 152.727 49.6419 153.664 55.048 153.672C63.976 153.672 67.848 152.904 68.444 152.596C69.04 152.288 74.444 150.904 74.444 150.904C74.444 150.904 74.444 124.576 72.748 115.492C71.052 106.408 68.9 99.4921 68.132 97.7841C67.364 96.0761 64.896 90.548 64.896 90.548L49.5 86.8521Z" fill="#263238" stroke="#263238" stroke-linecap="round" stroke-linejoin="round"/>
<path d="M68.1442 97.7841C67.3722 96.0921 64.9082 90.548 64.9082 90.548L49.5002 86.8521C49.5002 86.8521 48.4602 88.188 47.2002 89.976C50.5562 91.924 58.8642 96.74 59.3562 96.86C59.9722 97.016 63.0522 96.7081 63.0522 96.7081L61.6762 98.4C61.6762 98.4 65.3722 101.328 66.6042 102.556C67.2522 103.204 69.1322 104.916 70.7722 106.396C69.6562 101.972 68.6242 98.8481 68.1442 97.7841Z" fill="#263238" stroke="#263238" stroke-linecap="round" stroke-linejoin="round"/>
<path d="M61.0601 93.9363L66.2961 98.0923L70.6041 105.792L67.8361 94.5523L62.1401 91.3203L61.0601 93.9363Z" fill="white" stroke="#263238" stroke-linecap="round" stroke-linejoin="round"/>
<path d="M50.5918 83.9282L66.7118 91.1922V96.8882L48.2798 87.4682L50.5918 83.9282Z" fill="white" stroke="#263238" stroke-linecap="round" stroke-linejoin="round"/>
<path d="M71.9078 142.196H44.0518V164.736H71.9078V142.196Z" fill="#176B87" stroke="#263238" stroke-miterlimit="10"/>
<path d="M59.6878 152.94C59.6878 152.94 61.7598 155.64 62.5718 155.912C63.2554 156.193 63.8207 156.702 64.1718 157.352C64.5318 157.892 64.9718 161.944 65.2518 162.216C65.5318 162.488 65.5238 163.116 64.5318 162.664C63.5398 162.212 62.9318 160.664 62.9318 160.664L63.2918 164.264C63.2918 164.264 64.0918 164.444 63.4718 164.896C62.8518 165.348 62.2998 165.976 61.7598 165.696C61.2793 165.41 60.8278 165.078 60.4118 164.704C59.7685 164.92 59.0833 164.982 58.4118 164.884C57.4238 164.704 57.6118 165.064 56.7038 164.432C55.7958 163.8 55.7998 164.524 55.3518 163.352C54.6539 161.255 54.0822 159.118 53.6398 156.952C53.4598 155.78 53.2798 154.152 53.2798 154.152L59.6878 152.94Z" fill="white" stroke="#263238" stroke-linecap="round" stroke-linejoin="round"/>
<path d="M60.0522 151.228L60.6802 154.02L52.9362 155.1L52.5762 152.308L60.0522 151.228Z" fill="white" stroke="#263238" stroke-linecap="round" stroke-linejoin="round"/>
<path d="M50.1281 92.3999C50.1281 92.3999 44.7401 94.0919 44.5881 96.5559C44.4361 99.0199 42.6481 128.904 43.4201 130.904C44.1921 132.904 51.7641 153.172 51.7641 153.172L60.5401 152.096C60.5401 152.096 56.0441 128.592 55.9001 128.128C55.7561 127.664 58.9161 101.48 58.9161 101.48" fill="#263238"/>
<path d="M50.1281 92.3999C50.1281 92.3999 44.7401 94.0919 44.5881 96.5559C44.4361 99.0199 42.6481 128.904 43.4201 130.904C44.1921 132.904 51.7641 153.172 51.7641 153.172L60.5401 152.096C60.5401 152.096 56.0441 128.592 55.9001 128.128C55.7561 127.664 58.9161 101.48 58.9161 101.48" stroke="#263238" stroke-linecap="round" stroke-linejoin="round"/>
<path d="M57.8722 109L55.8882 128.128L57.7802 140.012" stroke="#878787" stroke-linecap="round" stroke-linejoin="round"/>
<path d="M58.1758 106.072L58.0718 107.088" stroke="#878787" stroke-linecap="round" stroke-linejoin="round"/>
<path d="M43.968 103.112L43.376 121.072" stroke="#878787" stroke-linecap="round" stroke-linejoin="round"/>
<path d="M64.0962 136.876L70.0162 136.66L70.5482 138.792L60.7402 139.42" stroke="#878787" stroke-linecap="round" stroke-linejoin="round"/>
<path d="M59.1641 137.052L62.3161 136.94" stroke="#878787" stroke-linecap="round" stroke-linejoin="round"/>
<path d="M48.5078 90.4839L59.3678 96.8599L63.0638 96.7079L61.6758 98.3999L68.8318 104.1" stroke="#878787" stroke-linecap="round" stroke-linejoin="round"/>
<path d="M2.0918 182.852H184.688" stroke="#263238" stroke-miterlimit="10"/>
<path d="M53.6958 18.0078V45.0438" stroke="#263238" stroke-miterlimit="10"/>
<path d="M95.2236 18.0078V45.0438" stroke="#263238" stroke-miterlimit="10"/>
<path d="M136.752 18.0078V45.0438" stroke="#263238" stroke-miterlimit="10"/>
</g>
<defs>
<clipPath id="clip0_1102_1043">
<rect width="200" height="200" fill="white" transform="translate(0.5)"/>
</clipPath>
</defs>
</svg>
