<svg width="201" height="200" viewBox="0 0 201 200" fill="none" xmlns="http://www.w3.org/2000/svg">
<g clip-path="url(#clip0_1102_1163)">
<rect x="-2.5" width="200" height="200" rx="20" fill="#F7F7F7"/>
<path d="M156.424 154C163.044 146.632 167.984 137.692 171.252 128.3C175.912 114.9 177.352 100.564 177.372 86.3758C177.396 72.6158 176.072 58.6598 171.18 45.8038C166.288 32.9478 157.528 21.1998 145.388 14.7118C124.016 3.31979 99.3878 8.53179 80.4678 22.3118C71.1558 29.0918 63.3798 38.0758 56.9278 47.5678C49.9958 57.7638 40.2998 65.6998 31.8038 74.5398C27.0158 79.5198 22.4998 84.7998 18.9158 90.7438C7.20784 110.14 6.55584 132.028 25.1958 147.012C44.1398 162.236 73.0998 172.032 97.0518 174.304C114.468 175.956 132.852 172.752 147.024 162.496C150.45 160.006 153.601 157.157 156.424 154Z" fill="#176B87"/>
<path opacity="0.7" d="M156.424 154C163.044 146.632 167.984 137.692 171.252 128.3C175.912 114.9 177.352 100.564 177.372 86.3758C177.396 72.6158 176.072 58.6598 171.18 45.8038C166.288 32.9478 157.528 21.1998 145.388 14.7118C124.016 3.31979 99.3878 8.53179 80.4678 22.3118C71.1558 29.0918 63.3798 38.0758 56.9278 47.5678C49.9958 57.7638 40.2998 65.6998 31.8038 74.5398C27.0158 79.5198 22.4998 84.7998 18.9158 90.7438C7.20784 110.14 6.55584 132.028 25.1958 147.012C44.1398 162.236 73.0998 172.032 97.0518 174.304C114.468 175.956 132.852 172.752 147.024 162.496C150.45 160.006 153.601 157.157 156.424 154Z" fill="white"/>
<path d="M173.992 117.192L182.708 113.904" stroke="#263238" stroke-linecap="round" stroke-linejoin="round"/>
<path d="M25.8281 173.016L170.308 118.576" stroke="#263238" stroke-linecap="round" stroke-linejoin="round"/>
<path d="M15.4722 176.92L21.0482 174.816" stroke="#263238" stroke-linecap="round" stroke-linejoin="round"/>
<path d="M144.252 91L60.5879 122.536V45.7L144.252 14.168V91Z" fill="white"/>
<path d="M74.1321 64.6359V64.7999L73.1241 65.1999V64.9519C73.1241 64.0799 72.7641 63.7039 71.9761 63.9999C71.1881 64.2959 70.8001 64.9719 70.8001 65.9999V68.1679C70.9204 67.7962 71.1237 67.4567 71.3947 67.1753C71.6657 66.894 71.9972 66.678 72.3641 66.5439C73.6081 66.0759 74.1601 66.7639 74.1601 68.1439V69.6119C74.1915 70.3234 73.9935 71.0262 73.5952 71.6168C73.197 72.2073 72.6196 72.6543 71.9481 72.8919C70.4561 73.4559 69.7241 72.7639 69.7241 71.2919V66.3679C69.7241 64.8319 70.4161 63.6199 71.9481 63.0399C73.4801 62.4599 74.1321 63.1559 74.1321 64.6359ZM70.8001 69.5159V70.9679C70.8001 71.8359 71.1601 72.2279 71.9481 71.9319C72.3128 71.7931 72.6223 71.5391 72.8295 71.2085C73.0367 70.8778 73.1303 70.4886 73.0961 70.0999V68.6479C73.0961 67.7799 72.7241 67.3919 71.9481 67.6839C71.5826 67.8215 71.2724 68.0752 71.065 68.4061C70.8576 68.7371 70.7646 69.1269 70.8001 69.5159Z" fill="#263238"/>
<path d="M75.1 64.2919C75.0681 63.5817 75.266 62.8801 75.6645 62.2914C76.063 61.7027 76.6408 61.2582 77.312 61.0239C78.804 60.4599 79.536 61.1359 79.536 62.6239V67.5999C79.5674 68.3136 79.3681 69.0185 78.9675 69.61C78.5669 70.2015 77.9864 70.6482 77.312 70.8839C75.832 71.4439 75.1 70.7519 75.1 69.2839V64.2919ZM76.164 68.9479C76.164 69.8199 76.536 70.2039 77.312 69.9119C77.6776 69.7756 77.9881 69.5228 78.1956 69.1924C78.4031 68.862 78.496 68.4724 78.46 68.0839V62.9679C78.46 62.0839 78.1 61.6919 77.312 61.9919C76.9463 62.1316 76.6362 62.3869 76.4289 62.7191C76.2217 63.0512 76.1287 63.442 76.164 63.8319V68.9479Z" fill="#263238"/>
<path d="M83.2597 60.4V63.456C83.2844 63.9061 83.1629 64.3521 82.9136 64.7277C82.6642 65.1032 82.3002 65.3881 81.8757 65.54C80.9357 65.892 80.4957 65.436 80.4957 64.496V61.444C80.4715 60.9945 80.5926 60.5491 80.8411 60.1738C81.0896 59.7984 81.4524 59.5131 81.8757 59.36C82.8157 58.984 83.2597 59.452 83.2597 60.4ZM81.1837 61.14V64.292C81.1837 64.816 81.3797 65.092 81.8757 64.904C82.0982 64.8158 82.2859 64.6577 82.4107 64.4535C82.5355 64.2494 82.5906 64.0102 82.5677 63.772V60.6C82.5677 60.072 82.3597 59.8 81.8757 59.976C81.6515 60.0653 81.4626 60.2254 81.3377 60.4318C81.2128 60.6383 81.1587 60.88 81.1837 61.12V61.14ZM86.4517 57.688L82.6357 68.8L81.9877 69.044L85.8037 57.928L86.4517 57.688ZM88.0157 62.216V65.256C88.043 65.7066 87.9226 66.1538 87.6729 66.5299C87.4231 66.9059 87.0576 67.1903 86.6317 67.34C85.6917 67.696 85.2517 67.24 85.2517 66.3V63.256C85.2284 62.8086 85.3501 62.3657 85.5988 61.9931C85.8474 61.6205 86.2097 61.3381 86.6317 61.188C87.5877 60.8 88.0157 61.268 88.0157 62.196V62.216ZM85.9397 62.956V66.092C85.9397 66.62 86.1477 66.892 86.6317 66.716C86.8551 66.6256 87.0433 66.4653 87.168 66.2591C87.2927 66.0529 87.3474 65.8118 87.3237 65.572V62.4C87.3237 61.876 87.1157 61.6 86.6317 61.792C86.4067 61.8802 86.217 62.04 86.092 62.2468C85.9669 62.4536 85.9134 62.6958 85.9397 62.936V62.956Z" fill="#263238"/>
<path d="M138.66 75.3521L64.7798 102.504V103.748L138.66 76.5961V75.3521Z" fill="#E5E5E5"/>
<path d="M138.66 68.2642L64.7798 95.4202V96.6602L138.66 69.5082V68.2642Z" fill="#E5E5E5"/>
<path d="M138.66 61.1802L64.7798 88.3322V89.5762L138.66 62.4202V61.1802Z" fill="#E5E5E5"/>
<path d="M138.66 54.0918L64.7798 81.2478V82.4878L138.66 55.3358V54.0918Z" fill="#E5E5E5"/>
<path d="M91.3159 64.4078V65.6478L138.66 48.2478V47.0078L91.3159 64.4078Z" fill="#E5E5E5"/>
<path d="M91.3159 57.3199V58.5639L138.66 41.1639V39.9199L91.3159 57.3199Z" fill="#E5E5E5"/>
<path d="M91.3159 50.236V51.476L138.66 34.076V32.832L91.3159 50.236Z" fill="#E5E5E5"/>
<path d="M138.7 24.0278C137.408 28.8918 134.628 38.3438 130.776 46.0478C125.336 56.9278 108.436 77.5198 96.5837 87.6238C84.7317 97.7278 65.0117 109.848 65.0117 109.848L138.7 83.0478V24.0278Z" fill="#176B87"/>
<path d="M65.4678 109.6C65.4678 109.6 127.248 76.6078 137.964 25.1318" stroke="#263238" stroke-width="4" stroke-linecap="round" stroke-linejoin="round"/>
<path d="M64.856 52.2358V112.808" stroke="#263238" stroke-linecap="round" stroke-linejoin="round"/>
<path d="M62.5601 111.028L139.488 82.7559" stroke="#263238" stroke-linecap="round" stroke-linejoin="round"/>
<path d="M69.9399 108.44V110.912" stroke="#263238" stroke-linecap="round" stroke-linejoin="round"/>
<path d="M74.9399 106.6V109.076" stroke="#263238" stroke-linecap="round" stroke-linejoin="round"/>
<path d="M79.9438 104.764V107.236" stroke="#263238" stroke-linecap="round" stroke-linejoin="round"/>
<path d="M84.9478 102.924V105.396" stroke="#263238" stroke-linecap="round" stroke-linejoin="round"/>
<path d="M89.9517 101.084V103.56" stroke="#263238" stroke-linecap="round" stroke-linejoin="round"/>
<path d="M94.9517 99.248V101.72" stroke="#263238" stroke-linecap="round" stroke-linejoin="round"/>
<path d="M99.9561 97.4082V99.8802" stroke="#263238" stroke-linecap="round" stroke-linejoin="round"/>
<path d="M104.96 95.5679V98.0399" stroke="#263238" stroke-linecap="round" stroke-linejoin="round"/>
<path d="M109.964 93.728V96.204" stroke="#263238" stroke-linecap="round" stroke-linejoin="round"/>
<path d="M114.964 91.8921V94.3641" stroke="#263238" stroke-linecap="round" stroke-linejoin="round"/>
<path d="M119.968 90.0518V92.5238" stroke="#263238" stroke-linecap="round" stroke-linejoin="round"/>
<path d="M124.972 88.2119V90.6879" stroke="#263238" stroke-linecap="round" stroke-linejoin="round"/>
<path d="M129.976 86.376V88.848" stroke="#263238" stroke-linecap="round" stroke-linejoin="round"/>
<path d="M134.979 84.5361V87.0081" stroke="#263238" stroke-linecap="round" stroke-linejoin="round"/>
<path d="M139.62 82.7158V85.1878" stroke="#263238" stroke-linecap="round" stroke-linejoin="round"/>
<path d="M69.9678 53.1881L88.2478 46.1201" stroke="#263238" stroke-linecap="round" stroke-linejoin="round"/>
<path d="M69.9678 56.3561L88.2478 49.2881" stroke="#263238" stroke-linecap="round" stroke-linejoin="round"/>
<path d="M69.9678 59.5241L88.2478 52.4561" stroke="#263238" stroke-linecap="round" stroke-linejoin="round"/>
<path d="M90.1519 127.928L83.4399 130.456V126.712L90.1519 124.18V127.928Z" stroke="#263238" stroke-linecap="round" stroke-linejoin="round"/>
<path d="M104.972 122.356L98.2598 124.888V121.14L104.972 118.612V122.356Z" stroke="#263238" stroke-linecap="round" stroke-linejoin="round"/>
<path d="M119.792 116.788L113.08 119.316V115.572L119.792 113.04V116.788Z" stroke="#263238" stroke-linecap="round" stroke-linejoin="round"/>
<path d="M134.611 111.216L127.899 113.744V110L134.611 107.472V111.216Z" stroke="#263238" stroke-linecap="round" stroke-linejoin="round"/>
<path d="M169.16 36.9519L148.96 44.5639V26.0119L169.16 18.3999V36.9519Z" stroke="#263238" stroke-linecap="round" stroke-linejoin="round"/>
<path d="M148.852 24.4798L157.196 21.4438" stroke="#263238" stroke-linecap="round" stroke-linejoin="round"/>
<path d="M148.852 23.1918L157.196 20.1558" stroke="#263238" stroke-linecap="round" stroke-linejoin="round"/>
<path d="M148.852 21.8997L157.196 18.8677" stroke="#263238" stroke-linecap="round" stroke-linejoin="round"/>
<path d="M150.92 41.8361L153.144 36.8361L157.268 36.9921L160.92 28.5841L165.524 28.8201L167.98 21.6001" stroke="#263238" stroke-linecap="round" stroke-linejoin="round"/>
<path d="M150.128 29.6158L167.744 22.9478" stroke="#263238" stroke-linecap="round" stroke-linejoin="round"/>
<path d="M150.128 31.916L167.744 25.252" stroke="#263238" stroke-linecap="round" stroke-linejoin="round"/>
<path d="M150.128 34.2158L167.744 27.5518" stroke="#263238" stroke-linecap="round" stroke-linejoin="round"/>
<path d="M150.128 36.5201L167.744 29.8521" stroke="#263238" stroke-linecap="round" stroke-linejoin="round"/>
<path d="M150.128 38.8199L167.744 32.1519" stroke="#263238" stroke-linecap="round" stroke-linejoin="round"/>
<path d="M150.128 41.1201L167.744 34.4561" stroke="#263238" stroke-linecap="round" stroke-linejoin="round"/>
<path d="M94.2153 23.146C97.5934 19.3211 97.913 14.0841 94.9292 11.4489C91.9454 8.81368 86.7881 9.77817 83.41 13.6031C80.0319 17.4281 79.7123 22.6651 82.6961 25.3003C85.6799 27.9355 90.8372 26.971 94.2153 23.146Z" stroke="#263238" stroke-linecap="round" stroke-linejoin="round"/>
<path d="M94.412 11.0598C92.948 10.0438 90.984 9.6798 88.812 10.2198V18.3998L94.412 11.0598Z" stroke="#263238" stroke-linecap="round" stroke-linejoin="round"/>
<path d="M99.9761 16.1318L109.316 12.7358" stroke="#263238" stroke-linecap="round" stroke-linejoin="round"/>
<path d="M99.9761 14.688L109.316 11.292" stroke="#263238" stroke-linecap="round" stroke-linejoin="round"/>
<path d="M99.9761 13.2437L109.316 9.84766" stroke="#263238" stroke-linecap="round" stroke-linejoin="round"/>
<path d="M53.9202 53.6601L31.3042 62.1841V41.4161L53.9202 32.8921V53.6601Z" stroke="#263238" stroke-linecap="round" stroke-linejoin="round"/>
<path d="M47.916 37.7323V53.6963L51.716 52.2643V36.3003L47.916 37.7323Z" stroke="#263238" stroke-linecap="round" stroke-linejoin="round"/>
<path d="M38.4243 57.2759L42.1323 55.8759V43.6519L38.4243 45.0479V57.2759Z" stroke="#263238" stroke-linecap="round" stroke-linejoin="round"/>
<path d="M46.876 40.7559L43.168 42.1559V55.4839L46.876 54.0879V40.7559Z" stroke="#263238" stroke-linecap="round" stroke-linejoin="round"/>
<path d="M37.384 40.9399L33.5 42.3999V59.1279L37.384 57.6639V40.9399Z" stroke="#263238" stroke-linecap="round" stroke-linejoin="round"/>
<path d="M31.1841 39.6963L40.5281 36.3003" stroke="#263238" stroke-linecap="round" stroke-linejoin="round"/>
<path d="M31.1841 38.256L40.5281 34.856" stroke="#263238" stroke-linecap="round" stroke-linejoin="round"/>
<path d="M31.1841 36.8121L40.5281 33.4121" stroke="#263238" stroke-linecap="round" stroke-linejoin="round"/>
<path d="M37.8478 123.52L20.7998 129.948V132.412L37.8478 125.988V123.52Z" stroke="#263238" stroke-linecap="round" stroke-linejoin="round"/>
<path d="M39.5198 129.384L20.7998 136.44V133.972L39.5198 126.916V129.384Z" stroke="#263238" stroke-linecap="round" stroke-linejoin="round"/>
<path d="M33.6718 133.148L20.7998 138V140.468L33.6718 135.616V133.148Z" stroke="#263238" stroke-linecap="round" stroke-linejoin="round"/>
<path d="M37.1118 135.875L20.7998 142.027V144.491L37.1118 138.343V135.875Z" stroke="#263238" stroke-linecap="round" stroke-linejoin="round"/>
<path d="M18.644 125.332L26.38 122.52" stroke="#263238" stroke-linecap="round" stroke-linejoin="round"/>
<path d="M18.644 124.136L26.38 121.324" stroke="#263238" stroke-linecap="round" stroke-linejoin="round"/>
<path d="M18.644 122.94L26.38 120.128" stroke="#263238" stroke-linecap="round" stroke-linejoin="round"/>
<path d="M41.4041 139.576L18.7881 148.096V127.328L41.4041 118.804V139.576Z" stroke="#263238" stroke-linecap="round" stroke-linejoin="round"/>
<path opacity="0.15" d="M132.093 65.6921L132.165 65.9481L138.809 88.8561L137.901 110.632L142.749 114.8L142.977 128.468L144.601 134.724L146.685 133.1L145.525 127.54L145.989 113.644L149.929 114.104L152.013 125.456L157.573 138.428L157.101 131.48L155.713 124.76L157.333 70.0921L149.689 64.5321C149.689 64.5321 150.617 59.6681 147.605 57.5841C144.593 55.5001 141.117 56.1921 140.405 58.5081C139.693 60.8241 140.177 64.3001 140.405 64.9961C140.633 65.6921 140.869 68.7001 140.869 68.7001L143.649 72.1761L142.029 74.0281L132.093 65.6921Z" fill="black"/>
<path d="M153.464 111.2C153.464 111.2 153.164 116.756 154.292 120.208C155.42 123.66 156.544 132.208 156.544 132.208C156.544 132.208 156.692 136.26 156.692 137.388C156.692 138.516 158.72 140.312 159.168 139.636C159.592 139.047 159.874 138.368 159.991 137.652C160.109 136.935 160.058 136.202 159.844 135.508C159.244 133.484 158.492 131.68 158.492 131.456C158.492 131.232 159.244 121.624 159.168 119.672C159.092 117.72 158.792 115.92 158.792 115.02V110.308L153.464 111.2Z" fill="white" stroke="#263238" stroke-linecap="round" stroke-linejoin="round"/>
<path d="M159.844 135.524C159.608 134.724 159.348 133.96 159.116 133.312L159.168 135.524L157.144 135.828L156.616 134.352C156.652 135.516 156.692 136.832 156.692 137.404C156.692 138.528 158.72 140.328 159.168 139.652C159.593 139.063 159.874 138.384 159.992 137.668C160.109 136.951 160.058 136.217 159.844 135.524Z" fill="#176B87" stroke="#263238" stroke-linecap="round" stroke-linejoin="round"/>
<path d="M147.101 109.332C146.629 111.528 146.378 113.766 146.353 116.012C146.353 119.464 147.853 130.196 147.853 130.196C147.853 130.196 145.901 132.224 145.301 133.2C144.701 134.176 143.573 134.852 144.101 135.452C144.629 136.052 146.201 135.224 147.101 135C148.001 134.776 148.453 133.8 148.829 133.276C149.205 132.752 149.953 132.448 150.105 131.172C150.194 130.4 150.22 129.621 150.181 128.844C150.181 128.544 150.329 123.592 150.705 120.816C151.081 118.04 151.681 114.36 151.681 111.584C151.681 108.808 147.101 109.332 147.101 109.332Z" fill="white" stroke="#263238" stroke-linecap="round" stroke-linejoin="round"/>
<path d="M149.636 130.8C149.229 131.502 148.631 132.075 147.912 132.452L146.408 131.928H146.276C145.918 132.335 145.586 132.766 145.284 133.216C144.684 134.192 143.556 134.868 144.084 135.468C144.612 136.068 146.184 135.24 147.084 135.016C147.984 134.792 148.436 133.816 148.812 133.292C149.188 132.768 149.936 132.464 150.088 131.188C150.148 130.656 150.172 130.22 150.18 129.864C149.983 130.167 149.802 130.479 149.636 130.8Z" fill="#176B87" stroke="#263238" stroke-linecap="round" stroke-linejoin="round"/>
<path d="M145.9 88.1764C145.9 88.1764 144.1 92.1564 144.1 94.7084C144.1 97.2604 143.648 107.072 143.648 107.072C144.926 109.294 146.946 110.993 149.352 111.872C153.48 113.448 161.212 110.444 161.212 110.444C161.212 110.444 161.512 96.7964 161.212 94.3204C160.912 91.8444 160.3 89.0764 160.3 89.0764L146.488 86.5244L145.9 88.1764Z" fill="#263238" stroke="#263238" stroke-linecap="round" stroke-linejoin="round"/>
<path d="M145.9 88.1761L146.12 88.3561C147.855 89.698 149.748 90.8224 151.756 91.7041C155.208 93.2041 160.156 92.3801 160.156 92.3801L161.208 82.4721L164.66 70.6161L153.316 67.6001C153.316 67.6001 149.864 74.4321 149.412 76.5321C148.96 78.6321 148.736 81.4121 148.66 82.0121C148.584 82.6121 145.9 88.1761 145.9 88.1761Z" fill="white" stroke="#263238" stroke-linecap="round" stroke-linejoin="round"/>
<path d="M133.648 66.0363L131.304 65.3683C131.304 65.3683 129.884 63.8643 129.704 63.2763C129.524 62.6883 128.616 62.2723 129.12 62.1923C129.328 62.1501 129.543 62.1582 129.747 62.216C129.95 62.2737 130.138 62.3794 130.292 62.5243C130.54 62.7763 130.624 63.1123 130.876 63.2763C131.128 63.4403 131.544 63.1923 131.46 62.9443C131.376 62.6963 130.456 61.1883 130.292 60.8523C130.128 60.5163 129.204 59.7643 129.204 59.3483C129.204 58.9323 129.704 59.3483 130.04 59.5123C130.376 59.6763 131.796 61.4363 132.212 61.6043C132.811 61.8912 133.33 62.3229 133.72 62.8603C134.039 63.3842 134.292 63.9459 134.472 64.5323L133.648 66.0363Z" fill="white" stroke="#263238" stroke-linecap="round" stroke-linejoin="round"/>
<path d="M156.544 66.8004C156.544 66.8004 149.56 66.1244 149.036 66.4244C148.512 66.7244 142.432 71.4524 142.432 71.4524L134.476 64.2524L132.9 65.7524L141.832 77.3844L147.536 75.7364C147.536 75.7364 147.76 79.4124 147.912 80.6124C148.064 81.8124 146.936 83.7644 146.036 85.7164C145.136 87.6684 142.58 91.9444 142.58 91.9444C142.58 91.9444 143.184 93.3724 143.78 93.7484C144.376 94.1244 145.58 94.8004 145.58 94.8004C145.58 94.8004 148.132 86.9164 148.656 84.9644C149.18 83.0124 149.708 81.8124 149.784 80.9884C149.86 80.1644 153.836 71.3044 153.836 71.3044L156.544 66.8004Z" fill="#176B87" stroke="#263238" stroke-linecap="round" stroke-linejoin="round"/>
<path d="M147.536 75.7202L148.512 70.6162" stroke="#808080" stroke-linecap="round" stroke-linejoin="round"/>
<path d="M154.324 66.5923C153.169 67.8553 152.175 69.2567 151.364 70.7643C150.088 73.3163 149.336 81.3483 149.412 82.0963C149.412 82.1963 149.432 82.3003 149.436 82.3963C149.601 81.9344 149.719 81.4574 149.788 80.9723C149.864 80.1483 153.84 71.2883 153.84 71.2883L156.544 66.8003C156.544 66.8003 155.568 66.6923 154.324 66.5923Z" fill="#176B87" stroke="#263238" stroke-linecap="round" stroke-linejoin="round"/>
<path d="M142.432 71.4404L141.08 72.3404" stroke="#808080" stroke-linecap="round" stroke-linejoin="round"/>
<path d="M154.816 63.784C154.816 63.784 155.5 65.6 155.5 66.336C155.5 67.072 153.548 71.664 153.548 71.664L158.348 73.768C158.348 73.768 160.748 68.136 160.824 67.464C160.9 66.792 160.224 64.76 160.676 62.06C161.128 59.36 161.424 58.98 160.524 58.832C159.624 58.684 155.944 59.28 155.272 60.256C154.94 60.774 154.727 61.359 154.649 61.9689C154.57 62.5789 154.627 63.1987 154.816 63.784Z" fill="white" stroke="#263238" stroke-linecap="round" stroke-linejoin="round"/>
<path d="M157.065 63.8042L155.297 65.4482L155.017 64.4162L157.065 63.8042Z" fill="#263238" stroke="#263238" stroke-linecap="round" stroke-linejoin="round"/>
<path d="M160.896 67.2363C160.896 67.2363 157.592 74.5163 156.24 77.5963C154.888 80.6763 154.14 82.3963 154.14 83.1483C154.14 83.9003 153.24 97.0323 153.24 97.0323C153.98 97.7568 154.881 98.2967 155.868 98.6083C157.443 99.0402 159.107 99.0152 160.668 98.5363C161.944 98.1603 163.668 96.2843 163.668 96.2843C163.668 96.2843 161.868 84.5003 161.868 84.2843C161.868 84.0683 163.744 78.6523 164.12 77.9763C164.496 77.3003 167.42 71.6723 167.572 71.1483C167.724 70.6243 160.896 67.2363 160.896 67.2363Z" fill="#176B87" stroke="#263238" stroke-linecap="round" stroke-linejoin="round"/>
<path d="M156.241 77.6003C154.893 80.6763 154.141 82.4003 154.141 83.1523C156.081 80.9471 157.839 78.5872 159.397 76.0963C160.804 73.6054 162.041 71.0221 163.101 68.3643C161.881 67.7283 160.893 67.2363 160.893 67.2363C160.893 67.2363 157.593 74.5163 156.241 77.6003Z" fill="#176B87" stroke="#263238" stroke-linecap="round" stroke-linejoin="round"/>
<path d="M143.184 82.4721C143.184 82.4721 143.032 81.1961 143.032 80.6721C143.053 80.3035 143.155 79.9441 143.332 79.6201C143.435 80.8223 143.767 81.9939 144.308 83.0721C145.132 84.5001 145.584 85.3241 145.584 85.3241C145.584 85.3241 143.408 83.5241 143.184 82.4721Z" fill="white" stroke="#263238" stroke-linecap="round" stroke-linejoin="round"/>
<path d="M149.261 87.2002V85.4762C149.261 85.4762 147.013 84.8002 145.961 84.3482C144.909 83.8962 143.185 82.4722 143.185 82.4722C143.185 82.4722 144.309 85.1762 144.761 85.7762C145.213 86.3762 145.509 87.6522 145.885 88.1762C146.25 88.8476 146.552 89.552 146.785 90.2802C147.124 90.6666 147.502 91.0177 147.913 91.3282C148.674 91.9299 149.539 92.3881 150.465 92.6802L149.189 88.4002L149.261 87.2002Z" fill="white" stroke="#263238" stroke-linecap="round" stroke-linejoin="round"/>
<path d="M152.94 87.8762H151.288L149.26 87.2002L149.188 88.4002L146.184 88.2482C146.184 88.2482 145.508 88.1722 146.26 88.7002C146.774 89.0515 147.251 89.4535 147.684 89.9002C147.984 90.2002 148.36 90.8762 149.112 90.8762C149.864 90.8762 151.888 89.9002 152.34 89.9002C152.792 89.9002 153.84 89.2242 153.84 89.2242L152.94 87.8762Z" fill="white" stroke="#263238" stroke-linecap="round" stroke-linejoin="round"/>
<path d="M161.816 77.9043L163.068 85.8083L152.564 87.6523L153.164 90.0523C153.164 90.0523 167.564 90.2323 168.036 90.1563C168.508 90.0803 167.424 73.0923 167.424 73.0923C167.424 73.0923 167.5 70.9883 167.424 70.6163C167.348 70.2443 164.724 69.4883 164.724 69.4883" fill="#176B87"/>
<path d="M161.816 77.9043L163.068 85.8083L152.564 87.6523L153.164 90.0523C153.164 90.0523 167.564 90.2323 168.036 90.1563C168.508 90.0803 167.424 73.0923 167.424 73.0923C167.424 73.0923 167.5 70.9883 167.424 70.6163C167.348 70.2443 164.724 69.4883 164.724 69.4883" stroke="#263238" stroke-linecap="round" stroke-linejoin="round"/>
<path d="M163.572 54.5403C163.572 54.5403 164.752 52.5683 165.74 52.3043C166.728 52.0403 168.168 52.3043 168.828 53.5043C169.488 54.7043 169.352 57.5803 168.828 58.3683C168.304 59.1563 166.856 59.4163 165.936 59.1683C165.016 58.9203 164.032 57.9683 163.9 57.1323C163.768 56.2963 163.572 54.5403 163.572 54.5403Z" fill="#263238" stroke="#263238" stroke-linecap="round" stroke-linejoin="round"/>
<path d="M159.169 63.3442C159.169 63.3442 161.601 63.1482 162.521 62.1442C163.441 61.1402 165.345 59.4522 164.689 56.4962C164.033 53.5402 162.193 52.6202 160.745 52.0282C159.297 51.4362 157.145 52.3562 157.145 52.3562C157.145 52.3562 156.897 52.4922 156.549 52.7122C156.361 52.7842 155.833 52.9842 155.305 53.1442C154.649 53.3402 154.057 53.4082 154.105 54.1282C154.127 54.2952 154.205 54.45 154.325 54.5682C154.264 54.6572 154.213 54.7524 154.173 54.8522C153.713 55.9682 153.449 57.6122 153.317 57.8762C153.185 58.1402 151.805 58.3362 151.805 58.7282C151.805 59.1202 152.465 60.1762 152.465 60.1762C152.465 60.1762 152.465 63.7762 152.593 64.2482C152.721 64.7202 155.485 64.1842 155.485 64.1842L157.061 63.7842L157.549 63.6122" fill="white"/>
<path d="M159.169 63.3442C159.169 63.3442 161.601 63.1482 162.521 62.1442C163.441 61.1402 165.345 59.4522 164.689 56.4962C164.033 53.5402 162.193 52.6202 160.745 52.0282C159.297 51.4362 157.145 52.3562 157.145 52.3562C157.145 52.3562 156.897 52.4922 156.549 52.7122C156.361 52.7842 155.833 52.9842 155.305 53.1442C154.649 53.3402 154.057 53.4082 154.105 54.1282C154.127 54.2952 154.205 54.45 154.325 54.5682C154.264 54.6572 154.213 54.7524 154.173 54.8522C153.713 55.9682 153.449 57.6122 153.317 57.8762C153.185 58.1402 151.805 58.3362 151.805 58.7282C151.805 59.1202 152.465 60.1762 152.465 60.1762C152.465 60.1762 152.465 63.7762 152.593 64.2482C152.721 64.7202 155.485 64.1842 155.485 64.1842L157.061 63.7842L157.549 63.6122" stroke="#263238" stroke-linecap="round" stroke-linejoin="round"/>
<path d="M157.984 63.0163C157.984 63.0163 158.88 63.1483 159.904 63.2443C160.704 63.1043 161.924 62.8003 162.52 62.1603C163.44 61.1763 165.344 59.4683 164.688 56.5123C164.032 53.5563 162.192 52.6363 160.744 52.0443C159.296 51.4523 157.144 52.3723 157.144 52.3723C157.144 52.3723 156.896 52.5083 156.548 52.7283C156.36 52.8003 155.832 53.0003 155.304 53.1603C154.648 53.3563 154.056 53.4243 154.104 54.1443C154.127 54.3113 154.204 54.4661 154.324 54.5843C154.324 54.5843 154.368 55.0643 155.288 55.3843C155.735 55.5598 156.197 55.6937 156.668 55.7843C156.458 56.1885 156.343 56.6351 156.331 57.0905C156.319 57.5458 156.411 57.9979 156.6 58.4123C156.962 59.1933 157.426 59.9224 157.98 60.5803C157.98 60.5803 158.78 59.4643 159.428 60.1803C159.707 60.4946 159.866 60.8969 159.878 61.3167C159.889 61.7365 159.753 62.147 159.492 62.4763C159.036 63.1483 157.984 63.0163 157.984 63.0163Z" fill="#263238" stroke="#263238" stroke-linecap="round" stroke-linejoin="round"/>
<path d="M154.332 58.0922C154.288 58.3842 154.136 58.6002 153.988 58.5802C153.84 58.5602 153.76 58.3042 153.804 58.0122C153.848 57.7202 154 57.5042 154.144 57.5242C154.288 57.5442 154.372 57.8002 154.332 58.0922Z" fill="#263238"/>
<path d="M154.064 56.7002C154.064 56.7002 154.656 56.5402 154.82 57.4562" stroke="#263238" stroke-linecap="round" stroke-linejoin="round"/>
<path opacity="0.15" d="M67.0998 169.104L35.3158 169.704L35.4798 166.296C35.7158 165.096 35.9998 163.556 36.0958 162.596C36.2758 160.788 37.5598 151.52 37.6958 151.04C37.8318 150.56 39.4398 143.588 39.5038 143.304L40.7998 139.056C41.1998 141.72 42.3998 149.892 42.3998 152.44C42.3998 155.216 42.5358 160.268 43.4398 162.896C43.4878 163.032 43.5318 163.18 43.5758 163.332L43.7038 166.344L52.9398 167.544L53.1798 166.464L50.0598 163.948L49.8518 161.044C49.9358 157.844 50.0718 154.244 50.2518 152.896C50.5918 150.424 51.2758 136.696 51.2838 136.556C51.2918 136.416 50.7118 139.196 50.6118 137.176C50.8499 137.041 51.0574 136.859 51.2213 136.64C51.3851 136.421 51.5018 136.17 51.5638 135.904C51.6962 135.261 51.7883 134.61 51.8398 133.956C52.4878 133.304 54.0558 131.556 55.5158 129.86C59.1158 125.644 59.1158 125.16 59.1158 125C59.1158 124.104 57.8158 121.116 57.7598 121L52.4198 109C52.3838 108.748 52.1398 107.028 51.5318 106.04C51.0649 105.425 50.4902 104.901 49.8358 104.492C48.5238 103.272 46.5998 101.62 46.2638 101.62C46.0638 101.576 45.1518 100.756 44.4198 100.02C44.0708 99.7001 43.6855 99.4222 43.2718 99.1919L43.5718 98.0439C44.0075 97.9563 44.4326 97.8222 44.8398 97.6439C45.3318 97.3999 45.6398 96.0679 46.1598 93.7319L46.2838 93.1839C46.5215 91.9997 46.6009 90.7891 46.5198 89.5839C46.8533 88.9326 47.0673 88.2268 47.1518 87.4999C47.2294 86.768 47.2481 86.0309 47.2078 85.2959C47.1238 83.9919 45.7918 83.0839 45.0038 82.6599C43.8038 82.0199 42.2038 81.5839 41.5318 81.9639C40.9445 82.3506 40.5092 82.9287 40.2998 83.5999H40.1318C39.0172 83.8295 37.9826 84.3482 37.1318 85.1039C36.9718 85.2599 36.7998 85.4119 36.6238 85.5679C35.5558 86.5079 34.2238 87.6799 34.7278 91.2759C34.9238 92.6559 36.5238 95.8839 36.9918 96.3559C37.0638 96.4239 37.1198 96.4919 37.1798 96.5599L37.0198 97.6399C35.6038 97.5239 34.3958 97.5399 34.0518 97.8839C33.7918 98.1439 32.5078 98.6239 31.7398 98.9119C31.4398 99.0239 31.1878 99.1199 31.0438 99.1799C30.8998 99.2399 30.6038 99.3239 30.2438 99.4279C29.0438 99.764 27.2278 100.276 26.7198 100.976C26.2118 101.676 21.2158 110.848 19.4158 114.516C19.212 114.865 19.0316 115.227 18.8758 115.6C18.8171 115.718 18.774 115.843 18.7478 115.972C18.626 116.294 18.5983 116.643 18.6678 116.98C18.9558 117.836 26.9518 125.444 27.5718 125.996C28.3398 126.68 29.4598 127.544 29.4718 127.552C29.506 127.579 29.5484 127.593 29.5918 127.592H29.6398C29.6398 127.592 29.7798 127.552 29.9518 127.488L28.1998 133.62C28.1917 133.654 28.1923 133.689 28.2013 133.723C28.2104 133.756 28.2278 133.787 28.2518 133.812C28.8446 134.34 29.4908 134.805 30.1798 135.2C30.2198 138.068 30.9798 142.596 30.9798 143.244C30.9798 143.508 30.9038 144.692 30.8078 146.184C30.6278 149.068 30.3758 153.02 30.3758 154.756C30.3758 156.756 30.7958 162.788 31.0878 166.292L31.3558 171.14L67.8638 171.028L67.0998 169.104ZM51.0718 123.668L51.5678 124.312C51.4358 124.564 51.2358 124.948 50.9958 125.416C51.0198 125.024 51.0478 124.42 51.0718 123.668ZM26.2718 115.96C26.9758 115.16 27.5998 114.36 27.9158 113.92L30.6918 121.348C30.6918 121.472 30.7718 122.084 30.8078 122.8L26.2718 115.96Z" fill="black"/>
<path d="M67.2276 79.0878C67.4033 80.5537 67.3507 82.038 67.0716 83.4878C66.5996 85.6118 66.2076 87.5798 65.7356 87.8158C65.3046 87.9969 64.8554 88.131 64.3956 88.2158L63.9956 89.7078L58.0156 88.7638L58.4156 86.0878C58.4156 86.0878 63.3716 78.2238 67.2276 79.0878Z" fill="white" stroke="#263238" stroke-linecap="round" stroke-linejoin="round"/>
<path d="M61.1 74.144C61.1 74.144 59.304 74.492 58.2 75.596C57.096 76.7 55.28 77.516 55.852 81.596C56.044 82.964 57.648 86.152 58.064 86.564C58.48 86.976 58.544 87.324 59.856 87.6C61.168 87.876 63.38 87.948 63.724 87.74C64.068 87.532 64.612 86.392 65.512 85.22C66.412 84.048 66.848 81.808 66.848 81.048C66.85 80.8336 66.9094 80.6237 67.02 80.44C67.5141 79.645 67.8306 78.7527 67.948 77.824C68.0264 77.1041 68.0451 76.379 68.004 75.656C67.868 73.448 63.604 71.928 62.62 72.48C62.0154 72.8598 61.5723 73.4495 61.376 74.136L61.1 74.144Z" fill="#263238" stroke="#263238" stroke-linecap="round" stroke-linejoin="round"/>
<path d="M66.0158 85.9682C66.0158 85.9682 65.4798 86.5722 65.2798 85.8362C65.1872 85.2111 65.2336 84.5732 65.4158 83.9682C65.4158 83.9682 65.4158 83.1682 65.8158 83.2322C66.2158 83.2962 66.1478 84.9002 66.1478 84.9002" fill="white"/>
<path d="M66.0158 85.9682C66.0158 85.9682 65.4798 86.5722 65.2798 85.8362C65.1872 85.2111 65.2336 84.5732 65.4158 83.9682C65.4158 83.9682 65.4158 83.1682 65.8158 83.2322C66.2158 83.2962 66.1478 84.9002 66.1478 84.9002" stroke="#263238" stroke-linecap="round" stroke-linejoin="round"/>
<path d="M40.7396 104.548C40.7396 104.548 39.5396 106.524 39.7956 107.296C40.0516 108.068 47.8676 115.544 48.6396 116.232C49.4116 116.92 50.5316 117.776 50.5316 117.776C50.5316 117.776 51.9036 117.432 52.1636 116.404C52.3082 115.837 52.423 115.263 52.5076 114.684L46.5796 105.752L44.3476 104.464" fill="#176B87"/>
<path d="M40.7396 104.548C40.7396 104.548 39.5396 106.524 39.7956 107.296C40.0516 108.068 47.8676 115.544 48.6396 116.232C49.4116 116.92 50.5316 117.776 50.5316 117.776C50.5316 117.776 51.9036 117.432 52.1636 116.404C52.3082 115.837 52.423 115.263 52.5076 114.684L46.5796 105.752L44.3476 104.464" stroke="#263238" stroke-linecap="round" stroke-linejoin="round"/>
<path d="M51.304 124.736C51.304 124.736 51.476 137.62 51.476 138.392C51.476 139.164 50.876 147.24 50.876 149.904C50.876 152.568 51.648 162.788 51.82 163.904C51.992 165.02 51.392 166.396 52.164 166.996C52.936 167.596 54.484 167.684 55.084 166.996C55.684 166.308 55.256 163.044 55.256 163.044C55.256 163.044 56.028 159.444 56.2 157.72C56.372 155.996 57.66 146.64 57.832 146.12C58.004 145.6 59.636 138.4 59.636 138.4L61.184 133.332C61.184 133.332 62.9 144.5 62.9 147.592C62.9 150.684 63.072 155.492 63.932 157.992C64.792 160.492 65.564 166.928 65.564 166.928C65.564 166.928 65.304 169.504 65.304 170.02C65.304 170.536 65.992 171.048 66.592 171.048H67.9C68.2933 170.927 68.6686 170.753 69.016 170.532L71.336 170.192C72.452 170.02 74.428 169.16 75.112 168.816C75.796 168.472 76.404 167.356 76.06 167.356C75.716 167.356 71.076 166.324 70.648 166.24L70.216 166.152C70.17 165.494 70.17 164.834 70.216 164.176C70.304 163.404 69.876 163.32 69.876 161.944C69.876 160.568 70.044 150.52 70.388 148.028C70.732 145.536 71.42 131.708 71.42 131.708C71.42 131.708 71.592 127.5 71.164 125.096C70.8422 123.46 70.3819 121.854 69.788 120.296C69.788 120.296 62.488 120.724 58.62 120.124C56.4316 119.802 54.2764 119.285 52.18 118.58C52.18 118.58 51.392 122.844 51.304 124.736Z" fill="#263238" stroke="#263238" stroke-linecap="round" stroke-linejoin="round"/>
<path d="M39.8999 106.352C39.8999 105.8 47.1839 92.3118 47.8119 91.4438C48.4399 90.5758 51.5119 89.9478 52.0599 89.7118C52.6079 89.4758 54.7359 88.7678 55.1319 88.3758C55.5279 87.9838 57.6479 88.0598 60.7319 88.5318C63.8159 89.0038 65.2959 90.4998 65.2959 90.4998C65.2959 90.4998 66.9479 92.1518 67.2599 92.1518C67.5719 92.1518 71.5919 95.6158 71.9039 96.1518C72.2159 96.6878 71.9959 112.992 71.7599 115.98C71.5239 118.968 70.5599 119.836 69.9359 121.016C69.3119 122.196 66.3359 127.864 66.0039 128.02C65.6719 128.176 59.2999 128.548 55.2879 127.22C51.2759 125.892 49.3599 124.044 49.3599 124.044C49.3599 124.044 51.5239 116.464 51.8359 115.364C52.1479 114.264 51.8359 111.664 51.8359 111.664L48.9239 103.876C48.9239 103.876 46.3279 107.572 44.8319 108.044" fill="#176B87"/>
<path d="M39.8999 106.352C39.8999 105.8 47.1839 92.3118 47.8119 91.4438C48.4399 90.5758 51.5119 89.9478 52.0599 89.7118C52.6079 89.4758 54.7359 88.7678 55.1319 88.3758C55.5279 87.9838 57.6479 88.0598 60.7319 88.5318C63.8159 89.0038 65.2959 90.4998 65.2959 90.4998C65.2959 90.4998 66.9479 92.1518 67.2599 92.1518C67.5719 92.1518 71.5919 95.6158 71.9039 96.1518C72.2159 96.6878 71.9959 112.992 71.7599 115.98C71.5239 118.968 70.5599 119.836 69.9359 121.016C69.3119 122.196 66.3359 127.864 66.0039 128.02C65.6719 128.176 59.2999 128.548 55.2879 127.22C51.2759 125.892 49.3599 124.044 49.3599 124.044C49.3599 124.044 51.5239 116.464 51.8359 115.364C52.1479 114.264 51.8359 111.664 51.8359 111.664L48.9239 103.876C48.9239 103.876 46.3279 107.572 44.8319 108.044" stroke="#263238" stroke-linecap="round" stroke-linejoin="round"/>
<path d="M60.9478 113.484C61.2598 113.944 61.5798 114.384 61.9038 114.8" stroke="#263238" stroke-linecap="round" stroke-linejoin="round"/>
<path d="M55.5596 102.944C56.8619 106.225 58.4311 109.395 60.2516 112.42" stroke="#263238" stroke-linecap="round" stroke-linejoin="round"/>
<path d="M55.8999 97.9121C55.8999 97.9121 56.8599 102.712 57.9359 105.696" stroke="#263238" stroke-linecap="round" stroke-linejoin="round"/>
<path d="M47.4117 97.0558C47.3357 96.5598 47.2757 96.0998 47.2397 95.6958L47.4117 97.0558Z" fill="white"/>
<path d="M47.4117 97.0558C47.3357 96.5598 47.2757 96.0998 47.2397 95.6958" stroke="#263238" stroke-linecap="round" stroke-linejoin="round"/>
<path d="M48.8919 103.88C48.8919 103.88 48.1999 101.212 47.6919 98.6802L48.8919 103.88Z" fill="white"/>
<path d="M48.8919 103.88C48.8919 103.88 48.1999 101.212 47.6919 98.6802" stroke="#263238" stroke-linecap="round" stroke-linejoin="round"/>
<path d="M69.432 122C69.432 122 67.86 124.36 67.86 124.672C67.86 124.984 67.544 125.872 67.7 126.092C67.856 126.312 70.536 127.744 70.848 127.664C71.2036 127.589 71.5316 127.417 71.7956 127.167C72.0596 126.917 72.2494 126.599 72.344 126.248C72.5078 125.416 72.6133 124.574 72.66 123.728L69.432 122Z" fill="white" stroke="#263238" stroke-linecap="round" stroke-linejoin="round"/>
<path d="M67.8599 124.652C67.8599 124.652 69.7479 126.148 70.0639 126.072C70.3799 125.996 69.4999 124.8 69.4999 124.8C69.4999 124.8 69.9719 125.2 69.8159 124.168" fill="white"/>
<path d="M67.8599 124.652C67.8599 124.652 69.7479 126.148 70.0639 126.072C70.3799 125.996 69.4999 124.8 69.4999 124.8C69.4999 124.8 69.9719 125.2 69.8159 124.168" stroke="#263238" stroke-linecap="round" stroke-linejoin="round"/>
<path d="M70.1396 125.6L71.7156 126.464" stroke="#263238" stroke-linecap="round" stroke-linejoin="round"/>
<path d="M66.9355 107.136L72.7396 114.66C72.7396 114.66 68.8836 121.98 69.1396 122.924C69.3956 123.868 71.9715 124.732 72.4435 124.416C72.9155 124.1 79.8995 116.232 79.8995 115.368C79.8995 114.504 78.5595 111.432 78.5595 111.432L73.2115 99.3922C73.2115 99.3922 72.9755 97.5042 72.3435 96.4802C71.7115 95.4562 69.4315 94.2002 69.4315 94.2002" fill="#176B87"/>
<path d="M66.9355 107.136L72.7396 114.66C72.7396 114.66 68.8836 121.98 69.1396 122.924C69.3956 123.868 71.9715 124.732 72.4435 124.416C72.9155 124.1 79.8995 116.232 79.8995 115.368C79.8995 114.504 78.5595 111.432 78.5595 111.432L73.2115 99.3922C73.2115 99.3922 72.9755 97.5042 72.3435 96.4802C71.7115 95.4562 69.4315 94.2002 69.4315 94.2002" stroke="#263238" stroke-linecap="round" stroke-linejoin="round"/>
<path d="M72.7397 114.66L74.1197 116.716" stroke="#263238" stroke-linecap="round" stroke-linejoin="round"/>
<path d="M67.8999 102.104C67.8999 102.104 69.6999 99.1122 72.2119 98.9922" stroke="#263238" stroke-linecap="round" stroke-linejoin="round"/>
<path d="M70.2999 120C70.2999 120 66.5199 124.896 66.1759 125.24C65.8319 125.584 64.5439 127.9 64.5439 127.9L67.2079 129.016C67.2079 129.016 68.3959 123.788 70.2999 120Z" fill="#8A8A8A" stroke="#263238" stroke-linecap="round" stroke-linejoin="round"/>
<path d="M54.2236 89.0002C54.2236 89.0002 60.9236 88.8282 65.7356 91.2362L54.2236 89.0002Z" fill="#176B87"/>
<path d="M54.2236 89.0002C54.2236 89.0002 60.9236 88.8282 65.7356 91.2362" stroke="#263238" stroke-linecap="round" stroke-linejoin="round"/>
<path d="M110.008 146.172C110.008 146.172 109.104 148.652 107.208 148.992C105.312 149.332 101.9 145.6 104.032 143.692C106.164 141.784 109.1 144.82 110.008 146.172Z" fill="#263238" stroke="#263238" stroke-linecap="round" stroke-linejoin="round"/>
<path d="M112.936 134C112.936 134 110.136 140.876 111.248 144.256C112.36 147.636 119.364 150.12 121.392 145.724C123.42 141.328 118.912 135.128 117.22 133.776C115.528 132.424 113.5 132.872 112.936 134Z" fill="#263238" stroke="#263238" stroke-linecap="round" stroke-linejoin="round"/>
<path d="M129.396 136.932C129.396 136.932 124.548 141.332 123.984 145.732C123.42 150.132 126.688 151.704 130.072 151.14C133.456 150.576 135.144 142.012 134.128 138.064C133.112 134.116 129.396 136.932 129.396 136.932Z" fill="#263238" stroke="#263238" stroke-linecap="round" stroke-linejoin="round"/>
<path d="M130.3 161.276C130.3 161.276 124.892 161.504 124.664 164.096C124.436 166.688 127.032 167.252 129.624 164.996C132.216 162.74 132.552 161.392 130.3 161.276Z" fill="#263238" stroke="#263238" stroke-linecap="round" stroke-linejoin="round"/>
<path d="M116.884 166.688C116.884 166.688 116.32 169.392 114.292 170.408C112.264 171.424 108.656 169.28 110.572 166.008C112.488 162.736 115.868 165.336 116.884 166.688Z" fill="#263238" stroke="#263238" stroke-linecap="round" stroke-linejoin="round"/>
<path d="M112.148 158.236C112.148 158.236 111.136 155.98 107.188 157.436C103.24 158.892 101.668 161.156 104.144 161.948C106.62 162.74 112.148 158.236 112.148 158.236Z" fill="#263238" stroke="#263238" stroke-linecap="round" stroke-linejoin="round"/>
<path d="M123.42 131.2C123.42 131.2 124.096 132.78 125.448 132.44C126.8 132.1 127.14 130.076 129.284 130.64C131.428 131.204 133.228 133.68 133.228 132.556C133.228 131.432 130.524 128.496 127.48 128.496C124.436 128.496 123.532 129.716 123.42 131.2Z" fill="#263238" stroke="#263238" stroke-linecap="round" stroke-linejoin="round"/>
<path d="M123.24 184.344L115.144 187.32L114.112 177.072L124.276 173.308L123.24 184.344Z" fill="white" stroke="#263238" stroke-linecap="round" stroke-linejoin="round"/>
<path d="M124.276 173.308L128.664 176.492L118.5 180.252L114.112 177.072L124.276 173.308Z" fill="white" stroke="#263238" stroke-linecap="round" stroke-linejoin="round"/>
<path d="M124.012 173.968L127.372 176.408L119.024 179.508L115.66 177.068L124.012 173.968Z" fill="#263238" stroke="#263238" stroke-linecap="round" stroke-linejoin="round"/>
<path d="M117.844 148.208C117.844 148.208 120.204 155.112 120.708 161.008C121.212 166.904 120.708 176.336 120.708 176.336" stroke="#263238" stroke-linecap="round" stroke-linejoin="round"/>
<path d="M126.096 150.564C126.096 150.564 123.404 158.48 122.728 163.536C122.052 168.592 121.888 176.336 121.888 176.336" stroke="#263238" stroke-linecap="round" stroke-linejoin="round"/>
<path d="M124.752 164.712C124.752 164.712 123.572 165.052 122.896 176.504" stroke="#263238" stroke-linecap="round" stroke-linejoin="round"/>
<path d="M116.884 166.688C116.884 166.688 118.012 165.724 118.688 167.912C119.364 170.1 119.024 176.168 119.024 176.168" stroke="#263238" stroke-linecap="round" stroke-linejoin="round"/>
<path d="M119.796 165.6C120.68 170.536 119.864 176 119.864 176" stroke="#263238" stroke-linecap="round" stroke-linejoin="round"/>
<path d="M112.148 158.236C112.148 158.236 117.004 157.304 119.024 162.692C119.224 163.231 119.393 163.782 119.532 164.34" stroke="#263238" stroke-linecap="round" stroke-linejoin="round"/>
<path d="M132.404 153.012C132.404 153.012 133.42 150.76 137.364 152.212C141.308 153.664 142.888 155.932 140.408 156.72C137.928 157.508 132.404 153.012 132.404 153.012Z" fill="#263238" stroke="#263238" stroke-linecap="round" stroke-linejoin="round"/>
<path d="M128.092 154C126.895 154.859 125.999 156.074 125.532 157.472C123.508 162.86 123.74 176.168 123.74 176.168" stroke="#263238" stroke-linecap="round" stroke-linejoin="round"/>
<path d="M132.404 153.012C131.263 152.853 130.1 153.012 129.044 153.472" stroke="#263238" stroke-linecap="round" stroke-linejoin="round"/>
<path d="M115.324 149.6C116.589 151.129 117.558 152.88 118.18 154.764C120.876 162.512 121.888 172.448 121.38 176.156" stroke="#263238" stroke-linecap="round" stroke-linejoin="round"/>
<path d="M110.008 146.172C110.008 146.172 112.356 146.54 114.736 148.972" stroke="#263238" stroke-linecap="round" stroke-linejoin="round"/>
<path d="M122.168 156.864C122.004 166.64 121.888 176.336 121.888 176.336" stroke="#263238" stroke-linecap="round" stroke-linejoin="round"/>
<path d="M123.42 131.2C123.42 131.2 122.896 130.712 122.56 139.468C122.428 142.872 122.3 149.2 122.188 155.668" stroke="#263238" stroke-linecap="round" stroke-linejoin="round"/>
<path d="M127.628 187.528L119.532 190.504L118.5 180.252L128.664 176.492L127.628 187.528Z" fill="white" stroke="#263238" stroke-linecap="round" stroke-linejoin="round"/>
<path d="M118.5 180.252L114.112 177.072L115.144 187.32L119.532 190.504L118.5 180.252Z" fill="white" stroke="#263238" stroke-linecap="round" stroke-linejoin="round"/>
</g>
<defs>
<clipPath id="clip0_1102_1163">
<rect width="200" height="200" fill="white" transform="translate(0.5)"/>
</clipPath>
</defs>
</svg>
