<svg width="101" height="100" viewBox="0 0 101 100" fill="none" xmlns="http://www.w3.org/2000/svg">
<path d="M97.6165 80.0025L89.754 72.4368L90.6199 71.6035C91.4858 70.7703 91.4858 69.4205 90.6199 68.5873L83.987 62.2047C83.1211 61.3715 81.7183 61.3715 80.8524 62.2047L79.9865 63.0379L73.1804 56.4888C82.082 41.8739 79.6402 23.0596 67.0671 10.9611C51.879 -3.65371 27.0792 -3.65371 11.8911 10.9611C-3.29703 25.576 -3.29703 49.4396 11.8911 64.0545C24.8105 76.4863 44.1897 78.1694 59.0314 70.1037L65.8375 76.6529L64.9716 77.4861C64.1057 78.3194 64.1057 79.6692 64.9716 80.5024L71.6045 86.885C72.4704 87.7182 73.8732 87.7182 74.7391 86.885L75.605 86.0517L83.4675 93.6175C87.3121 97.317 93.7719 97.317 97.6165 93.6175C101.461 89.9179 101.461 83.8687 97.6165 80.0025ZM14.8525 61.1882C1.24035 48.0898 1.24035 27.0758 14.8525 13.9774C28.4647 0.879053 50.303 0.879053 63.9152 13.9774C77.181 26.7425 77.5273 47.9232 63.9152 61.1882C50.4762 74.1199 28.6379 74.2865 14.8525 61.1882ZM70.7212 60.005L76.8346 65.8876L68.7989 73.62L62.6856 67.7374C65.4738 65.721 68.2794 63.038 70.7212 60.005ZM69.509 78.986C82.4284 66.5542 80.5061 68.404 82.2552 66.7208L85.9267 70.2537C85.5803 70.587 73.8732 81.8523 73.1804 82.5189L69.509 78.986ZM90.4641 92.2676C88.8881 92.2676 87.5026 91.7677 86.4462 90.7512L78.5837 83.1854L86.6194 75.4531L94.4819 83.0188C95.5383 84.0353 96.0579 85.3685 96.0579 86.885C96.2311 89.9013 93.616 92.2676 90.4641 92.2676Z" fill="black" fill-opacity="0.83"/>
<path d="M59.8965 18.0068C48.5531 7.09149 30.3862 7.09149 19.0428 18.0068C7.69929 28.9221 7.69929 46.4032 19.0428 57.1519C19.9087 57.9851 21.3114 57.9851 22.1774 57.1519C23.0433 56.3187 23.0433 54.9688 22.1774 54.1356C12.5657 44.9034 12.5657 30.1053 22.1774 20.8731C31.789 11.6243 47.1503 11.6243 56.7446 20.8731C67.5685 31.2885 65.9926 49.1029 52.5536 57.3352C51.5145 58.0018 51.1508 59.185 51.8609 60.1849C52.5536 61.1847 53.7832 61.5347 54.8223 60.8514C70.53 51.436 72.7986 30.4386 59.8792 18.0068H59.8965Z" fill="black" fill-opacity="0.83"/>
<path d="M57.4547 37.4853C57.4547 27.9032 49.419 20.1875 39.4783 20.1875C29.5376 20.1875 21.502 27.9198 21.502 37.4853C21.502 45.7176 27.6153 52.7668 35.651 54.4499C46.8213 56.7996 57.472 48.5673 57.472 37.4853H57.4547ZM53.0905 36.8187H41.5738V24.5536C47.8603 25.5535 52.7441 30.6029 53.0905 36.8187ZM30.213 27.9032C32.1354 26.2201 34.5772 25.0535 37.1923 24.7036V34.2857L30.213 27.9032ZM36.4996 50.4337C27.7712 48.5839 23.0606 39.0018 27.598 31.1195C38.7683 41.0349 38.0755 40.5349 38.2487 40.5349C38.5951 40.8682 39.1146 40.8682 39.4783 40.8682H52.5709C50.6486 47.7507 43.6693 51.9502 36.4996 50.4504V50.4337Z" fill="black" fill-opacity="0.83"/>
<path d="M90.9843 11.6266H95.3485V3.22656H82.2559V7.42657H90.9843V11.6266Z" fill="black" fill-opacity="0.83"/>
<path d="M84.3505 20.026H88.7147V9.60938H84.3505V11.6261H79.9863V15.826H84.3505V20.026Z" fill="black" fill-opacity="0.83"/>
<path d="M95.3486 18.0156H90.9844V36.9966H95.3486V18.0156Z" fill="black" fill-opacity="0.83"/>
<path d="M62.5129 87.2349H46.8052C48.3812 83.2021 45.0561 78.8359 40.6919 78.8359H8.04696C4.37549 78.8359 1.41406 81.6856 1.41406 85.2185C1.41406 88.7514 4.37549 91.601 8.04696 91.601H30.2143C28.6384 95.6338 31.9635 100 36.3277 100H62.5129C66.1844 100 69.1458 97.1503 69.1458 93.6174C69.1458 90.0845 66.1844 87.2349 62.5129 87.2349ZM5.77826 85.2185C5.77826 84.0353 6.81736 83.0354 8.04696 83.0354H40.8651C42.0947 83.0354 43.1338 84.052 43.1338 85.2185C43.1338 86.385 42.0947 87.4015 40.8651 87.4015H8.04696C6.81736 87.2349 5.77826 86.2184 5.77826 85.2185ZM62.5129 95.6338H36.3277C35.0981 95.6338 34.059 94.6173 34.059 93.4508C34.059 92.2843 35.1154 91.2677 36.3277 91.2677H62.5129C63.7425 91.2677 64.7816 92.2843 64.7816 93.4508C64.7816 94.6173 63.7425 95.6338 62.5129 95.6338Z" fill="black" fill-opacity="0.83"/>
</svg>
