<svg width="94" height="100" viewBox="0 0 94 100" fill="none" xmlns="http://www.w3.org/2000/svg">
<path d="M89.8708 51.0891C89.8708 47.9981 87.6673 45.6345 84.7962 45.6345C82.4258 45.6345 80.4059 47.4527 79.9052 49.9982H76.5332C76.1994 41.8163 73.1613 34.3617 68.4205 28.7253L70.7909 26.1799C72.8107 27.6345 75.348 27.2708 77.2009 25.4526C79.2207 23.2707 79.2207 19.8162 77.2009 17.8161C75.1811 15.6343 71.9594 15.6343 70.1065 17.8161C68.4205 19.6343 68.2536 22.5434 69.4388 24.7253L67.0684 27.2708C61.8269 21.998 54.916 18.7253 47.3208 18.5435V14.9071C49.6912 14.3616 51.3771 12.1797 51.3771 9.63427C51.3771 6.54334 49.1737 4.17969 46.3026 4.17969C43.4314 4.17969 41.2446 6.54334 41.2446 9.63427C41.2446 12.1797 42.9306 14.3616 45.301 14.9071V18.5435C37.7058 18.9071 30.7782 22.1798 25.5367 27.2708L22.9994 24.5435C24.3515 22.3617 24.0176 19.6344 22.3317 17.6344C20.3118 15.4525 17.0901 15.4525 15.2372 17.6344C13.2174 19.8162 13.2174 23.2708 15.2372 25.2708C16.9232 27.089 19.6274 27.2708 21.6473 25.998L24.0177 28.5435C19.1267 34.1799 16.0885 41.6346 15.9049 49.8164H12.533C12.0322 47.271 9.9957 45.4527 7.64201 45.4527C4.77085 45.4527 2.56738 47.8164 2.56738 50.9073C2.56738 53.9982 4.77085 56.3619 7.64201 56.3619C10.0124 56.3619 12.0322 54.5436 12.533 51.9982H15.9049C16.2388 60.18 19.2769 67.6347 24.0177 73.2711L21.6473 75.8166C19.6274 74.5438 17.0901 74.7256 15.2372 76.5438C13.2174 78.7256 13.2174 82.1802 15.2372 84.1802C17.257 86.3621 20.4788 86.3621 22.3317 84.1802C24.0176 82.362 24.1846 79.4529 22.9994 77.2711L25.3698 74.7256C30.6113 79.9984 37.5221 83.2712 45.1173 83.453V87.0894C42.747 87.6349 41.061 89.8166 41.061 92.3621C41.061 95.453 43.2645 97.8167 46.1356 97.8167C49.0068 97.8167 51.1935 95.453 51.1935 92.3621C51.1935 89.8166 49.5076 87.6349 47.1372 87.0894V83.453C54.7324 83.0894 61.6599 79.8165 66.9015 74.7256L69.2718 77.2711C68.771 78.1802 68.4205 79.0893 68.4205 80.1802C68.4205 83.2711 70.624 85.6348 73.4951 85.6348C74.8472 85.6348 76.1993 85.0894 77.034 83.9985C79.0538 81.8166 79.0538 78.362 77.034 76.362C75.348 74.5438 72.6438 74.362 70.624 75.6347L68.2536 73.0893C73.1446 67.4529 76.1827 59.9983 76.3663 51.8164H79.7383C80.239 54.3619 82.2756 56.1801 84.6292 56.1801C87.6673 56.5437 89.8708 54.18 89.8708 51.0891ZM71.4753 19.2707C72.6605 17.9979 74.5134 17.9979 75.6986 19.2707C76.8838 20.5434 76.8838 22.5434 75.6986 23.8162C74.5134 25.0889 72.6605 25.0889 71.4753 23.8162C70.2901 22.5434 70.2901 20.5434 71.4753 19.2707ZM43.0975 9.4525C43.0975 7.6343 44.4497 6.17977 46.1356 6.17977C47.8216 6.17977 49.1737 7.6343 49.1737 9.4525C49.1737 11.2707 47.8216 12.7252 46.1356 12.7252C44.4497 12.5434 43.0975 11.0889 43.0975 9.4525ZM16.5893 23.8162C15.4041 22.5434 15.4041 20.5434 16.5893 19.2707C17.7745 17.9979 19.6274 17.9979 20.8126 19.2707C21.9978 20.5434 21.9978 22.5434 20.8126 23.8162C19.6274 25.0889 17.7745 25.0889 16.5893 23.8162ZM7.30813 54.3619C5.62216 54.3619 4.27003 52.9073 4.27003 51.0891C4.27003 49.2709 5.62216 47.8163 7.30813 47.8163C8.99411 47.8163 10.3462 49.2709 10.3462 51.0891C10.3462 52.9073 8.99411 54.3619 7.30813 54.3619ZM18.6091 83.8166C16.9232 83.8166 15.5711 82.362 15.5711 80.5438C15.5711 78.7256 16.9232 77.2711 18.6091 77.2711C20.2951 77.2711 21.6473 78.7256 21.6473 80.5438C21.6473 81.4529 20.2951 83.8166 18.6091 83.8166ZM49.0068 92.9075C49.0068 94.7257 47.6547 96.1804 45.9687 96.1804C44.2827 96.1804 42.9306 94.7257 42.9306 92.9075C42.9306 91.0893 44.2827 89.6348 45.9687 89.6348C47.6547 89.6348 49.0068 91.0893 49.0068 92.9075ZM76.5332 80.7257C76.5332 82.5439 75.1811 83.9985 73.4951 83.9985C71.8091 83.9985 70.4571 82.5439 70.4571 80.7257C70.4571 78.9075 71.8091 77.4529 73.4951 77.4529C75.1811 77.4529 76.5332 78.9075 76.5332 80.7257ZM46.1356 81.6348C30.4277 81.6348 17.7578 67.9983 17.7578 51.0891C17.7578 34.1799 30.4277 20.5434 46.1356 20.5434C61.8436 20.5434 74.4967 34.1799 74.4967 51.0891C74.4967 67.9983 61.6599 81.6348 46.1356 81.6348ZM84.8128 54.3619C83.1269 54.3619 81.7748 52.9073 81.7748 51.0891C81.7748 49.2709 83.1269 47.8163 84.8128 47.8163C86.4988 47.8163 87.8509 49.2709 87.8509 51.0891C87.8509 52.9073 86.4988 54.3619 84.8128 54.3619Z" fill="black"/>
<path d="M86.1675 0C82.1112 0 78.7393 3.63643 78.7393 8.0001C78.7393 12.3638 82.1112 16.0001 86.1675 16.0001C90.2239 16.0001 93.5958 12.3638 93.5958 8.0001C93.5958 3.63643 90.2239 0 86.1675 0ZM86.1675 13.6365C83.2964 13.6365 80.926 11.091 80.926 8.0001C80.926 4.90917 83.2964 2.36363 86.1675 2.36363C89.0387 2.36363 91.4091 4.90917 91.4091 8.0001C91.4091 11.091 89.0387 13.6365 86.1675 13.6365Z" fill="black"/>
<path d="M5.96027 88.7266C3.0891 88.7266 0.71875 91.2721 0.71875 94.363C0.71875 97.454 3.0891 99.9994 5.96027 99.9994C8.83143 99.9994 11.2018 97.454 11.2018 94.363C11.3688 91.2721 8.83143 88.7266 5.96027 88.7266ZM5.96027 97.8175C4.27429 97.8175 2.75522 96.363 2.75522 94.363C2.75522 92.5448 4.10736 90.9084 5.96027 90.9084C7.81317 90.9084 9.16531 92.363 9.16531 94.363C9.16531 96.1812 7.81317 97.8175 5.96027 97.8175Z" fill="black"/>
<path d="M83.6304 33.0938C84.465 33.0938 85.1494 33.821 85.1494 34.7301C85.1494 35.6392 84.465 36.3665 83.6304 36.3665C82.7957 36.3665 82.1113 35.6392 82.1113 34.7301C82.1113 33.821 82.7957 33.0938 83.6304 33.0938Z" fill="black"/>
<path d="M63.5327 6.90625C64.3674 6.90625 65.0518 7.63357 65.0518 8.54267C65.0518 9.45177 64.3674 10.179 63.5327 10.179C62.6981 10.179 62.0137 9.45177 62.0137 8.54267C62.0137 7.63357 62.6981 6.90625 63.5327 6.90625Z" fill="black"/>
<path d="M24.5376 3.45312C25.3722 3.45312 26.0567 4.18034 26.0567 5.08943C26.0567 5.99853 25.3722 6.72585 24.5376 6.72585C23.703 6.72585 23.0186 5.99853 23.0186 5.08943C23.0186 4.18034 23.703 3.45312 24.5376 3.45312Z" fill="black"/>
<path d="M7.64698 22.7266C8.48162 22.7266 9.16603 23.4539 9.16603 24.363C9.16603 25.2721 8.48162 25.9993 7.64698 25.9993C6.81234 25.9993 6.12793 25.2721 6.12793 24.363C6.12793 23.4539 6.81234 22.7266 7.64698 22.7266Z" fill="black"/>
<path d="M3.41847 74C4.25311 74 4.93752 74.7272 4.93752 75.6363C4.93752 76.5454 4.25311 77.2727 3.41847 77.2727C2.58383 77.2727 1.89941 76.5454 1.89941 75.6363C1.89941 74.7272 2.58383 74 3.41847 74Z" fill="black"/>
<path d="M23.353 93.2734C24.1877 93.2734 24.872 94.0008 24.872 94.9099C24.872 95.819 24.1877 96.5462 23.353 96.5462C22.5184 96.5462 21.834 95.819 21.834 94.9099C21.834 94.0008 22.5184 93.2734 23.353 93.2734Z" fill="black"/>
<path d="M88.8745 76.1797C89.7092 76.1797 90.3935 76.9069 90.3935 77.816C90.3935 78.7251 89.7092 79.4524 88.8745 79.4524C88.0399 79.4524 87.3555 78.7251 87.3555 77.816C87.3555 76.9069 88.0399 76.1797 88.8745 76.1797Z" fill="black"/>
<path d="M71.9809 93.2734C72.8156 93.2734 73.5 94.0008 73.5 94.9099C73.5 95.819 72.8156 96.5462 71.9809 96.5462C71.1463 96.5462 70.4619 95.819 70.4619 94.9099C70.4619 94.0008 71.1463 93.2734 71.9809 93.2734Z" fill="black"/>
<path d="M60.4946 29.9951L59.3094 27.2678C58.2912 24.9041 55.42 24.5405 53.901 26.3587C51.3637 25.4496 48.8264 25.0859 46.1388 25.0859C32.8013 25.0859 21.8174 36.9042 21.8174 51.268C21.8174 65.6317 32.1169 76.7226 44.9536 77.4499V77.6318C45.4544 78.9045 46.6396 79.6318 47.9917 79.6318C49.5107 79.6318 50.8629 78.5408 51.1967 76.9045C59.1258 75.0863 65.8864 68.9045 68.7575 60.7226C70.7774 60.1772 71.9626 57.8135 71.128 55.8135L70.2766 53.6316C71.1279 44.177 67.2385 35.2678 60.4779 29.9951H60.4946ZM68.0898 48.5407L62.5145 35.086C65.7195 38.7224 67.5724 43.4497 68.0898 48.5407ZM46.8232 64.7225L47.8415 64.1771H48.0084C48.5092 63.9953 49.1936 64.1771 49.3605 64.7225C49.5274 65.268 49.3605 65.9954 48.8598 66.1772L47.6745 66.7226L46.8232 64.7225ZM46.1388 62.5408L45.1205 63.0862C45.1205 63.0862 44.7867 63.2681 40.7303 65.2681L40.2295 63.9953L45.638 61.4498L46.1388 62.5408ZM34.3203 60.5407C32.4674 61.268 30.4309 60.3589 29.5962 58.3589C28.7449 56.3589 29.5963 54.177 31.2822 53.2679L34.3203 60.5407ZM31.9666 49.4498L41.2478 44.9043C41.7486 46.177 46.1388 56.7225 46.8232 58.1771L45.8049 58.7225L37.5253 62.7226L31.9499 49.4498H31.9666ZM48.843 57.6317L43.1007 43.8133L54.0846 31.6315L64.551 56.7226L48.843 57.6317ZM23.8539 51.0861C23.8539 37.8133 33.8195 27.2678 45.9719 27.2678C48.3423 27.2678 50.6959 27.6314 52.8994 28.3587V29.2678L40.914 42.5407L29.9301 47.8134C29.4293 47.9952 29.0788 48.7224 29.4293 49.2679L30.097 51.0861C27.3928 52.5406 26.0407 56.177 27.3928 59.268C28.7449 62.3589 31.9499 63.8135 34.8211 62.5408L35.6557 64.7225C35.8227 65.268 36.5071 65.6317 37.0078 65.2681L37.8592 64.9044L38.8774 67.0863C39.0444 67.6317 39.7288 67.9954 40.2295 67.6317L40.5634 67.4498L43.6015 74.7226C32.8012 73.8135 23.8372 63.4498 23.8372 51.0861H23.8539ZM47.6579 77.2681C47.324 77.0863 47.157 76.9044 46.9901 76.5408L42.9338 66.7226L45.1205 65.6316C45.8049 67.4498 48.4925 73.6317 49.1769 75.4499C49.5108 76.5409 48.5092 77.6318 47.6579 77.2681ZM51.0465 74.5408L48.6761 68.9045L49.8613 68.3589C50.7126 67.9953 51.2134 67.268 51.5473 66.5407C52.3819 64.1771 50.529 61.6316 48.1753 61.9953L47.6745 60.7226L48.5259 60.3589L65.419 59.268C65.7528 59.8134 66.2703 60.3589 66.7711 60.5407C63.8999 67.4499 57.9907 72.7226 51.0632 74.5408H51.0465ZM68.0898 58.3589C67.5891 58.3589 67.2385 57.9953 67.0716 57.6317C66.9047 57.4498 65.0518 52.7225 55.2531 29.2678C54.9192 28.7223 55.2531 27.8133 55.7538 27.6315C56.4382 27.2678 57.106 27.6314 57.2729 28.1769L69.0914 56.5407C69.5922 57.4498 68.9245 58.3589 68.0731 58.3589H68.0898Z" fill="black"/>
<path d="M41.0801 50.3652C41.5808 50.1834 41.9314 49.4561 41.5808 48.9107C41.4139 48.3652 40.7295 48.0015 40.2287 48.3651L34.9872 50.9106C34.4864 51.0924 34.1358 51.8197 34.4864 52.3652C34.6533 52.9106 35.3377 53.2742 35.8385 52.9106L41.0801 50.3652Z" fill="black"/>
<path d="M42.4336 53.6307C42.9344 53.4489 43.2849 52.7216 42.9343 52.1762C42.7674 51.6307 42.083 51.2671 41.5822 51.6308L36.3407 54.1762C35.8399 54.358 35.4893 55.0852 35.8399 55.6307C36.0068 56.1762 36.6912 56.5399 37.192 56.1762L42.4336 53.6307Z" fill="black"/>
<path d="M38.5451 59.4575L43.7867 56.912C44.2874 56.7302 44.638 56.0029 44.2874 55.4574C44.1205 54.912 43.4361 54.5484 42.9353 54.912L37.6938 57.4574C37.193 57.6392 36.8591 58.3666 37.193 58.9121C37.3599 59.2757 37.6938 59.6393 38.2113 59.6393C38.3225 59.6393 38.4338 59.5787 38.5451 59.4575Z" fill="black"/>
<path d="M60.8284 52.9107L54.4184 36.9106C54.2514 36.3651 53.567 36.0015 53.0663 36.3651C52.5655 36.5469 52.2149 37.2742 52.5655 37.8197L58.9755 53.8198C59.1425 54.3652 59.8269 54.7289 60.3276 54.3653C60.8284 54.1835 60.9953 53.4561 60.8284 52.9107Z" fill="black"/>
</svg>
