<svg width="101" height="99" viewBox="0 0 101 99" fill="none" xmlns="http://www.w3.org/2000/svg">
<path d="M92.4709 36.9958C90.1769 36.9958 87.899 37.8036 86.2674 39.5806L80.2254 43.1348H69.2722C65.8474 43.1348 63.0687 45.8811 63.0687 49.2737C63.0687 49.9199 63.2302 50.7276 63.3918 51.3738H55.7181L41.8247 33.6032C41.5016 33.1186 40.8393 32.7955 40.3546 32.7955L13.2302 30.6953C12.4063 30.6953 11.5986 31.0184 11.2755 31.6646C10.9524 32.3108 10.9523 33.2801 11.437 33.9263L23.5372 51.3738H2.61631C1.4693 51.3738 0.5 52.3431 0.5 53.474C0.5 54.6048 1.48546 55.5742 2.61631 55.5742H10.9523V96.7697C10.9523 97.9005 11.9378 98.8698 13.0687 98.8698C14.1995 98.8698 15.2011 97.9005 15.2011 96.7697V55.4126H48.5452V96.6081C48.5452 97.7389 49.5307 98.7082 50.6615 98.7082C51.7924 98.7082 52.7779 97.7389 52.7779 96.6081V55.4126H81.8732C82.5194 55.4126 83.3433 55.251 83.9895 55.0895V65.7519H77.7859C76.1543 65.7519 74.5227 66.398 73.3756 67.5289C73.2141 67.6904 74.1995 66.3981 57.689 89.1768C57.0428 90.1461 57.2044 91.4385 58.1737 92.0847C59.1592 92.7309 60.4677 92.5693 61.1139 91.6L76.4774 70.2753C76.8005 69.9522 77.3013 69.7906 77.7859 69.7906H86.122C87.269 69.7906 88.2545 68.8214 88.2545 67.6905V51.5354C88.2545 50.7277 87.9313 50.0814 87.269 49.7583C86.6066 49.4352 85.7989 49.4352 85.1365 49.7583L83.1817 50.8892C82.8586 51.0507 82.5356 51.2123 82.0347 51.2123H69.6115C68.4645 51.2123 67.479 50.243 67.479 49.1122C67.479 47.9813 68.4645 47.0119 69.6115 47.0119H80.8877C81.2108 47.0119 81.7116 46.8504 82.0347 46.6889L88.9007 42.6501C89.0622 42.4886 89.2237 42.3269 89.3853 42.1654C90.2092 41.1961 91.3401 40.7115 92.6487 40.7115C94.9427 40.873 96.7359 42.6501 96.7359 44.7503V69.4675C96.7359 71.7292 94.9427 73.5063 92.6487 73.5063H79.7407C79.0945 73.5063 78.4322 73.8294 78.1091 74.3141L63.8926 94.5079C63.2464 95.4772 63.4079 96.7696 64.3772 97.4158C65.3627 98.062 66.6713 97.9005 67.3175 96.9312L80.8877 77.5451H92.164C96.7359 77.5451 100.5 73.8294 100.5 69.306V45.2349C100.5 40.7115 97.0751 37.1574 92.4871 36.9958H92.4709ZM17.3013 35.2187L39.0299 36.8342L50.4677 51.3738H28.5614L17.2852 35.2187H17.3013Z" fill="black" fill-opacity="0.83"/>
<path d="M90.0148 34.8972C95.7337 34.8972 100.467 30.2123 100.467 24.558C100.467 18.9038 95.7337 14.2188 90.0148 14.2188C84.2959 14.2188 79.5625 18.9038 79.5625 24.558C79.5625 30.2123 84.2959 34.8972 90.0148 34.8972ZM90.0148 18.4191C93.4397 18.4191 96.2184 21.1655 96.2184 24.558C96.2184 27.9506 93.4397 30.697 90.0148 30.697C86.59 30.697 83.8113 27.9506 83.8113 24.558C83.8113 21.1655 86.59 18.4191 90.0148 18.4191Z" fill="black" fill-opacity="0.83"/>
<path d="M54.5552 28.756C62.5681 28.756 69.0948 22.2941 69.0948 14.3781C69.0948 6.46208 62.552 0 54.5552 0C46.5584 0 40.0156 6.46208 40.0156 14.3781C40.0156 22.2941 46.5584 28.756 54.5552 28.756ZM54.5552 4.03877C60.2741 4.03877 65.0076 8.72379 65.0076 14.3781C65.0076 20.0324 60.2741 24.7173 54.5552 24.7173C48.8363 24.7173 44.1029 20.0324 44.1029 14.3781C44.2644 8.56224 48.8363 4.03877 54.5552 4.03877Z" fill="black" fill-opacity="0.83"/>
<path d="M57.333 19.8699C58.1569 20.6777 59.4493 20.6777 60.2732 19.8699C61.0971 19.0621 61.0971 17.7698 60.2732 16.962L56.6706 13.4079V8.0767C56.6706 6.94585 55.6852 5.97656 54.5543 5.97656C53.4235 5.97656 52.4219 6.94585 52.4219 8.0767V14.2156C52.4219 14.7003 52.5834 15.3465 53.0681 15.6696L57.3169 19.8699H57.333Z" fill="black" fill-opacity="0.83"/>
</svg>
