<svg width="101" height="99" viewBox="0 0 101 99" fill="none" xmlns="http://www.w3.org/2000/svg">
<path d="M50.4406 76.3063C35.4667 76.3063 23.3066 64.2943 23.3066 49.6495C23.3066 35.0047 35.4503 22.8281 50.4406 22.8281C65.431 22.8281 77.5746 34.8401 77.5746 49.6495C77.5746 64.4588 65.431 76.3063 50.4406 76.3063ZM50.4406 26.9418C37.7869 26.9418 27.4697 37.1438 27.4697 49.6495C27.4697 62.1551 37.7869 72.1926 50.4406 72.1926C63.0944 72.1926 73.4116 61.9906 73.4116 49.6495C73.4116 37.3084 63.0944 26.9418 50.4406 26.9418Z" fill="black" fill-opacity="0.83"/>
<path d="M50.4397 55.74C46.9513 55.74 44.1211 52.9427 44.1211 49.4872C44.1211 46.0317 46.9513 43.2344 50.4397 43.2344C53.9281 43.2344 56.7584 46.0317 56.7584 49.4872C56.7584 52.9427 53.9281 55.74 50.4397 55.74ZM50.4397 47.5126C49.2714 47.5126 48.2841 48.4999 48.2841 49.6517C48.2841 50.8035 49.2879 51.7909 50.4397 51.7909C51.5915 51.7909 52.6117 50.8035 52.6117 49.6517C52.6117 48.3353 51.608 47.5126 50.4397 47.5126Z" fill="black" fill-opacity="0.83"/>
<path d="M50.4409 39.2875C49.2726 39.2875 48.2853 38.3002 48.2853 37.1484V7.20057L43.464 11.9725C42.6248 12.7953 41.292 12.7953 40.4692 11.9725C39.63 11.1498 39.63 9.83341 40.4692 9.01067L48.7954 0.783253C49.4536 0.12506 50.2927 -0.0395691 51.1319 0.289527C51.9711 0.618624 52.4648 1.27684 52.4648 2.26413V37.1484C52.6293 38.3002 51.6256 39.2875 50.4738 39.2875H50.4409Z" fill="black" fill-opacity="0.83"/>
<path d="M58.7498 12.4646C58.2561 12.4646 57.7461 12.3 57.2524 11.8063L48.9263 3.5789C48.0871 2.75616 48.0871 1.4398 48.9263 0.617056C49.7655 -0.205685 51.0983 -0.205685 51.9211 0.617056L60.2472 8.84447C61.0864 9.66721 61.0864 10.9836 60.2472 11.8063C59.7536 12.3 59.2434 12.4646 58.7498 12.4646Z" fill="black" fill-opacity="0.83"/>
<path d="M50.4412 98.85C49.9475 98.85 49.4375 98.6854 48.9438 98.1917L40.6177 89.9643C39.7785 89.1416 39.7785 87.8252 40.6177 87.0025C41.4569 86.1797 42.7897 86.1797 43.6125 87.0025L48.4337 91.7744V61.8266C48.4337 60.6748 49.4375 59.6875 50.6058 59.6875C51.7741 59.6875 52.7777 60.6748 52.7777 61.8266V96.7109C52.7777 97.5336 52.2841 98.3564 51.4449 98.6855C50.9512 98.85 50.7867 98.85 50.4412 98.85Z" fill="black" fill-opacity="0.83"/>
<path d="M50.4412 98.8552C49.9476 98.8552 49.4375 98.6906 48.9439 98.1969C48.1047 97.3742 48.1047 96.0578 48.9439 95.2351L57.27 87.0077C58.1092 86.1849 59.4256 86.1849 60.2648 87.0077C61.104 87.8304 61.104 89.1468 60.2648 89.9695L51.9386 98.1969C51.445 98.6906 50.9348 98.8552 50.4412 98.8552Z" fill="black" fill-opacity="0.83"/>
<path d="M59.2596 42.7422C58.7659 42.7422 58.2559 42.5777 57.7622 42.084C56.923 41.2613 56.923 39.9449 57.7622 39.1222L79.2357 17.8954H72.407C71.2388 17.8954 70.235 16.9081 70.235 15.7563C70.235 14.6045 71.2388 13.6172 72.407 13.6172H84.2216C85.0608 13.6172 85.8835 14.1108 86.2126 14.9336C86.5417 15.7563 86.3771 16.5791 85.7189 17.2373L60.757 41.9195C60.2634 42.5777 59.7532 42.7422 59.2596 42.7422Z" fill="black" fill-opacity="0.83"/>
<path d="M84.2228 29.7425C83.0545 29.7425 82.0508 28.7552 82.0508 27.6033V15.9204C82.0508 14.7685 83.0545 13.7812 84.2228 13.7812C85.3911 13.7812 86.3784 14.7685 86.3784 15.9204V27.6033C86.3784 28.7552 85.3747 29.7425 84.2228 29.7425Z" fill="black" fill-opacity="0.83"/>
<path d="M16.6419 85.0287C16.3128 85.0287 16.1483 85.0287 15.8192 84.8641C14.98 84.535 14.4863 83.8768 14.4863 82.8895V71.2067C14.4863 70.0548 15.4901 69.0675 16.6419 69.0675C17.7937 69.0675 18.814 70.0548 18.814 71.2067V77.9531L40.2875 56.7264C41.1267 55.9037 42.4431 55.9037 43.2823 56.7264C44.1215 57.5492 44.1215 58.8655 43.2823 59.6883L18.3202 84.3705C17.662 84.8642 17.152 85.0287 16.6584 85.0287H16.6419Z" fill="black" fill-opacity="0.83"/>
<path d="M28.2932 85.0282H16.4787C15.3104 85.0282 14.3066 84.0409 14.3066 82.8891C14.3066 81.7373 15.3104 80.75 16.4787 80.75H28.2932C29.4615 80.75 30.4489 81.7373 30.4489 82.8891C30.4489 84.0409 29.4451 85.0282 28.2932 85.0282Z" fill="black" fill-opacity="0.83"/>
<path d="M98.3724 51.6291H62.9123C61.744 51.6291 60.7402 50.6418 60.7402 49.49C60.7402 48.3381 61.744 47.3508 62.9123 47.3508H93.2056L88.3843 42.5789C87.5451 41.7562 87.5451 40.4398 88.3843 39.6171C89.2235 38.7943 90.5564 38.7943 91.3791 39.6171L99.7052 47.8445C100.38 48.5027 100.544 49.3254 100.199 50.1482C99.8698 50.9709 99.1952 51.6291 98.3724 51.6291Z" fill="black" fill-opacity="0.83"/>
<path d="M90.0467 59.8552C89.553 59.8552 89.043 59.6907 88.5493 59.197C87.7101 58.3743 87.7101 57.0578 88.5493 56.2351L96.8755 48.0077C97.7147 47.1849 99.0474 47.1849 99.8701 48.0077C100.709 48.8304 100.709 50.1469 99.8701 50.9696L91.544 59.197C91.0504 59.5261 90.5403 59.8552 90.0467 59.8552Z" fill="black" fill-opacity="0.83"/>
<path d="M37.9512 51.6286H2.65562C1.81643 51.6286 0.99365 51.135 0.664553 50.3122C0.335457 49.4895 0.499985 48.6667 1.15818 48.0085L9.48432 39.7811C10.3235 38.9584 11.6564 38.9584 12.4791 39.7811C13.3183 40.6039 13.3183 41.9203 12.4791 42.7431L7.65786 47.5149H37.9512C39.1195 47.5149 40.1068 48.5022 40.1068 49.654C40.1068 50.6413 39.1031 51.6286 37.9512 51.6286Z" fill="black" fill-opacity="0.83"/>
<path d="M10.9823 59.8552C10.4886 59.8552 9.97848 59.6907 9.48483 59.197L1.15869 50.9696C0.319498 50.1469 0.319498 48.8304 1.15869 48.0077C1.99789 47.1849 3.31429 47.1849 4.15348 48.0077L12.4796 56.2351C13.3188 57.0578 13.3188 58.3743 12.4796 59.197C11.986 59.5261 11.4759 59.8552 10.9823 59.8552Z" fill="black" fill-opacity="0.83"/>
<path d="M84.2216 85.0287C83.728 85.0287 83.2178 84.8642 82.7242 84.3705L57.7622 59.6883C56.923 58.8655 56.923 57.5492 57.7622 56.7264C58.6014 55.9037 59.9343 55.9037 60.757 56.7264L82.2305 77.9531V71.2067C82.2305 70.0548 83.2343 69.0675 84.3861 69.0675C85.5379 69.0675 86.5582 70.0548 86.5582 71.2067V82.8895C86.5582 83.7123 86.0645 84.535 85.2253 84.8641C84.8962 84.8641 84.5671 85.0287 84.2216 85.0287Z" fill="black" fill-opacity="0.83"/>
<path d="M84.2229 85.0282H72.4084C71.2401 85.0282 70.2363 84.0409 70.2363 82.8891C70.2363 81.7373 71.2401 80.75 72.4084 80.75H84.2229C85.3912 80.75 86.3785 81.7373 86.3785 82.8891C86.3785 84.0409 85.3748 85.0282 84.2229 85.0282Z" fill="black" fill-opacity="0.83"/>
<path d="M41.6034 42.7418C41.1098 42.7418 40.5997 42.5772 40.106 42.0836L15.144 17.4013C14.4858 16.7431 14.3048 15.9204 14.6504 15.0976C14.9795 14.2749 15.6542 13.7812 16.6415 13.7812H28.456C29.6243 13.7812 30.6281 14.7685 30.6281 15.9204C30.6281 17.0722 29.6243 18.0596 28.456 18.0596H21.6272L43.1007 39.2862C43.9399 40.109 43.9399 41.4253 43.1007 42.2481C42.6071 42.5772 42.097 42.7418 41.6034 42.7418Z" fill="black" fill-opacity="0.83"/>
<path d="M16.6419 29.7425C15.4736 29.7425 14.4863 28.7552 14.4863 27.6033V15.9204C14.4863 14.7685 15.4901 13.7812 16.6419 13.7812C17.7937 13.7812 18.814 14.7685 18.814 15.9204V27.6033C18.6494 28.7552 17.8102 29.7425 16.6419 29.7425Z" fill="black" fill-opacity="0.83"/>
</svg>
