<svg width="101" height="100" viewBox="0 0 101 100" fill="none" xmlns="http://www.w3.org/2000/svg">
<path d="M87.3139 42.9099C87.3139 23.2783 71.1396 7.46875 51.4559 7.46875C31.7721 7.46875 15.7715 23.452 15.7715 42.9099C15.7715 62.3678 31.7721 78.3511 51.6296 78.3511C71.487 78.3511 87.3139 62.3678 87.3139 42.9099ZM68.69 59.2407C69.9235 54.5499 70.7921 49.338 70.7921 44.1261H85.0207C84.8469 52.1177 81.5113 59.5881 76.5773 65.1475C74.2841 62.7152 71.487 60.8043 68.6726 59.2407H68.69ZM26.5081 64.9738C21.4178 59.4144 18.2559 51.9439 18.0647 43.9523H32.2933C32.2933 49.3379 33.1793 54.5499 34.3955 59.0669C31.581 60.8042 28.9403 62.7153 26.4907 64.9738H26.5081ZM26.5081 20.8461C28.9751 23.1046 31.5984 25.1894 34.4128 26.753C33.1793 31.4437 32.3107 36.6556 32.3107 41.8676H18.0821C18.2558 33.7022 21.4177 26.4055 26.5254 20.8461H26.5081ZM76.5947 20.8461C81.6851 26.4055 84.847 33.876 85.0381 41.8676H70.8095C70.8095 36.4819 69.9234 31.27 68.7073 26.753C71.5218 25.0156 74.3362 23.1046 76.6121 20.8461H76.5947ZM68.69 41.8676H52.6893V30.9224C57.6059 30.7487 62.3488 29.7064 66.7442 27.6216C67.8039 31.9649 68.4988 36.8294 68.6726 41.8676H68.69ZM52.6893 28.664V9.72734C56.7373 10.2485 60.4204 13.5494 63.4085 19.1088C64.4683 21.0198 65.337 23.1046 66.0492 25.5368C62.0013 27.4479 57.4322 28.4902 52.6893 28.664ZM50.4135 9.72734V28.664C45.6706 28.4902 41.1015 27.4479 37.0535 25.3631C37.7485 23.1046 38.6345 21.0198 39.6943 18.9351C42.6824 13.5494 46.3655 10.2485 50.4135 9.72734ZM50.4135 30.9224V41.8676H34.4128C34.4128 36.8294 35.1077 31.9649 36.3412 27.6216C40.7366 29.7064 45.4795 30.7487 50.3961 30.9224H50.4135ZM34.4128 43.9523H50.4135V54.8974C45.4969 55.0711 40.754 56.1135 36.3586 58.1982C35.2989 53.855 34.6039 48.9905 34.4302 43.9523H34.4128ZM50.4135 56.9821V75.9188C46.3655 75.3976 42.6824 72.0967 39.6943 66.5373C38.6345 64.6263 37.7658 62.5416 37.0535 60.1093C41.2752 58.372 45.6706 57.1558 50.4135 56.9821ZM52.6893 76.0925V56.9821C57.4322 57.1558 62.0013 58.1983 66.0492 60.283C65.3543 62.5415 64.4683 64.6263 63.4085 66.7111C60.4204 72.2705 56.7373 75.5713 52.6893 76.0925ZM52.6893 54.8974V43.9523H68.69C68.69 48.9905 67.995 53.855 66.7616 58.1982C62.3662 56.1135 57.6233 55.0711 52.7067 54.8974H52.6893ZM75.1875 19.2825C73.0853 21.3673 70.6184 23.1046 68.1514 24.4945C66.5705 19.4563 63.756 14.0706 59.7081 10.596C65.5107 12.1596 70.7747 15.113 75.1701 19.2825H75.1875ZM35.1078 24.4945C32.6408 23.1046 30.1912 21.3673 28.0716 19.2825C32.2933 15.113 37.5573 12.1595 43.5337 10.7697C39.4858 14.0706 36.6713 19.4563 35.0904 24.4945H35.1078ZM28.089 66.5373C30.1912 64.4525 32.6581 62.7152 35.1251 61.3254C36.7061 66.3636 39.5205 71.7492 43.5684 75.2239C37.5921 73.6603 32.3281 70.7068 28.1064 66.5373H28.089ZM67.9777 61.3254C70.4446 62.7152 72.8943 64.4525 75.0138 66.5373C70.7921 70.7068 65.528 73.6603 59.5517 75.0502C63.5996 71.7493 66.4141 66.3636 67.995 61.3254H67.9777Z" fill="black"/>
<path d="M92.2308 92.2512H83.9786V88.2553C83.9786 85.8231 81.8764 83.7384 79.4095 83.7384H65.1809C82.3976 78.0053 95.0626 61.8483 95.0626 42.9116C95.0626 19.2842 75.5526 0 51.6472 0C27.7419 0 8.05811 19.1104 8.05811 42.9116C8.05811 61.8483 20.532 78.0053 37.9399 83.7384H23.885C21.418 83.7384 19.3159 85.8231 19.3159 88.2553V92.2512H11.0637C8.96153 92.2512 7.18945 93.9885 7.18945 96.0732C7.18945 98.158 8.94416 99.8953 11.0637 99.8953H92.4393C94.5414 99.8953 96.3135 98.158 96.3135 96.0732C96.3135 93.9885 94.3851 92.2512 92.2655 92.2512H92.2308ZM10.334 42.9116C10.334 20.3266 28.7842 2.08479 51.6299 2.08479C74.4755 2.08479 92.9257 20.3266 92.9257 42.9116C92.9257 65.4966 74.3018 83.7384 51.6299 83.7384C28.958 83.7384 10.334 65.3229 10.334 42.9116ZM21.4007 88.2553C21.4007 87.0392 22.4604 85.9969 23.6765 85.9969H79.3921C80.6256 85.9969 81.6853 87.0392 81.6853 88.2553V92.2512H21.4007V88.2553ZM92.2308 97.6369H11.0289C10.1429 97.6369 9.44796 96.9419 9.44796 96.0732C9.44796 95.2046 10.1429 94.5097 11.0289 94.5097H92.4045C93.2906 94.5097 93.9855 95.2046 93.9855 96.0732C93.9855 96.9419 93.2906 97.6369 92.2308 97.6369Z" fill="black"/>
<path d="M15.9621 78.1754C15.9621 74.0058 12.4527 70.5312 8.23103 70.5312C4.00936 70.5312 0.5 74.0058 0.5 78.1754C0.5 82.3449 4.00936 85.8196 8.23103 85.8196C12.4527 85.8196 15.9621 82.3449 15.9621 78.1754ZM2.77587 78.1754C2.77587 75.2219 5.24285 72.7897 8.23103 72.7897C11.2192 72.7897 13.6862 75.2219 13.6862 78.1754C13.6862 81.1288 11.2192 83.5611 8.23103 83.5611C5.24285 83.5611 2.77587 81.1288 2.77587 78.1754Z" fill="black"/>
<path d="M93.9845 14.0682C96.9726 14.0682 99.4396 11.6359 99.4396 8.68249C99.4396 5.72907 96.9726 3.29688 93.9845 3.29688C90.9963 3.29688 88.5293 5.72907 88.5293 8.68249C88.5293 11.6359 90.9963 14.0682 93.9845 14.0682ZM93.9845 5.38167C95.7391 5.38167 97.3201 6.77145 97.3201 8.68249C97.3201 10.4198 95.9129 11.9834 93.9845 11.9834C92.2298 11.9834 90.6488 10.5935 90.6488 8.68249C90.6488 6.77145 92.056 5.38167 93.9845 5.38167Z" fill="black"/>
<path d="M87.8348 78.1797C88.7035 78.1797 89.4158 78.8747 89.4158 79.7433C89.4158 80.612 88.7035 81.3068 87.8348 81.3068C86.9662 81.3068 86.2539 80.612 86.2539 79.7433C86.2539 78.8747 86.9662 78.1797 87.8348 78.1797Z" fill="black"/>
<path d="M98.9188 65.1484C99.7875 65.1484 100.5 65.8434 100.5 66.7121C100.5 67.5807 99.7875 68.2756 98.9188 68.2756C98.0502 68.2756 97.3379 67.5807 97.3379 66.7121C97.3379 65.8434 98.0502 65.1484 98.9188 65.1484Z" fill="black"/>
<path d="M95.5653 17.375C96.434 17.375 97.1463 18.07 97.1463 18.9386C97.1463 19.8073 96.434 20.5021 95.5653 20.5021C94.6967 20.5021 93.9844 19.8073 93.9844 18.9386C93.9844 18.07 94.6967 17.375 95.5653 17.375Z" fill="black"/>
<path d="M17.5419 1.04688C18.4106 1.04688 19.1229 1.74174 19.1229 2.61039C19.1229 3.47905 18.4106 4.17401 17.5419 4.17401C16.6732 4.17401 15.9609 3.47905 15.9609 2.61039C15.9609 1.74174 16.6732 1.04688 17.5419 1.04688Z" fill="black"/>
<path d="M5.59072 19.4609C6.45938 19.4609 7.17168 20.1559 7.17168 21.0246C7.17168 21.8932 6.45938 22.5881 5.59072 22.5881C4.72207 22.5881 4.00977 21.8932 4.00977 21.0246C4.00977 20.1559 4.72207 19.4609 5.59072 19.4609Z" fill="black"/>
<path d="M5.59072 60.8047C6.45938 60.8047 7.17168 61.4997 7.17168 62.3683C7.17168 63.237 6.45938 63.9318 5.59072 63.9318C4.72207 63.9318 4.00977 63.237 4.00977 62.3683C4.00977 61.4997 4.72207 60.8047 5.59072 60.8047Z" fill="black"/>
</svg>
