<svg width="450" height="450" viewBox="0 0 450 450" fill="none" xmlns="http://www.w3.org/2000/svg">
<path d="M83.6798 215.453L71.4848 215.705L65.2928 215.804C63.2228 215.804 61.1438 215.804 59.0738 215.849H58.6778V215.444L58.6328 205.373V204.914H59.0828L71.3858 204.968C75.4898 204.968 79.5848 205.067 83.6888 205.121H83.9318V205.364C83.9318 207.065 83.8508 208.766 83.8148 210.449L83.6798 215.453ZM83.6798 215.453L83.5538 210.359C83.5538 208.685 83.4548 207.029 83.4368 205.382L83.6798 205.616C79.5758 205.67 75.4808 205.76 71.3768 205.769L59.0738 205.832L59.5238 205.382V215.453L59.1188 215.048C61.1438 215.048 63.1688 215.048 65.2028 215.048L71.3138 215.156L83.6798 215.453Z" fill="#EBEBEB"/>
<path d="M69.9551 228.151L57.7601 228.448L51.5681 228.547C49.4981 228.547 47.4191 228.547 45.3491 228.592H44.9531V228.187V218.116V217.648H45.4031L57.7061 217.702C61.8101 217.702 65.9051 217.801 70.0091 217.855H70.2521V218.098C70.2521 219.799 70.1711 221.5 70.1351 223.183L69.9551 228.151ZM69.9551 228.151L69.8291 223.048C69.8291 221.374 69.7301 219.718 69.7121 218.071L69.9551 218.305C65.8511 218.359 61.7561 218.449 57.6521 218.458L45.3491 218.548L45.7991 218.107V228.178L45.3941 227.773C47.4191 227.773 49.4441 227.773 51.4781 227.818L57.5891 227.917L69.9551 228.151Z" fill="#EBEBEB"/>
<path d="M329.047 324.672L316.852 324.924L310.66 325.023C308.59 325.023 306.511 325.023 304.441 325.068H304.045V324.663L304 314.592V314.133H304.45L316.753 314.187C320.857 314.187 324.952 314.286 329.056 314.34H329.299V314.583C329.299 316.284 329.218 317.985 329.182 319.668L329.047 324.672ZM329.047 324.672L328.921 319.578C328.921 317.904 328.822 316.248 328.804 314.601L329.047 314.844C324.943 314.889 320.848 314.979 316.744 314.988L304.441 315.051L304.891 314.601L304.846 324.672L304.441 324.267C306.466 324.267 308.491 324.267 310.525 324.312L316.636 324.42L329.047 324.672Z" fill="#EBEBEB"/>
<path d="M315.285 337.35L303.09 337.602L296.898 337.701C294.828 337.701 292.749 337.701 290.679 337.701H290.283V337.35L290.238 327.279V326.82H290.688L302.991 326.874C307.095 326.874 311.19 326.973 315.294 327.027H315.537V327.27C315.537 328.971 315.456 330.672 315.42 332.355L315.285 337.35ZM315.285 337.35L315.159 332.256C315.159 330.582 315.06 328.926 315.042 327.279L315.285 327.513C311.181 327.567 307.086 327.657 302.982 327.666L290.679 327.729L291.129 327.279L291.12 337.35L290.715 336.945C292.74 336.945 294.765 336.945 296.799 336.99L302.91 337.098L315.285 337.35Z" fill="#EBEBEB"/>
<path d="M405.223 228.151L393.028 228.403L386.836 228.502C384.766 228.502 382.687 228.502 380.617 228.547H380.221V228.142L380.176 218.071V217.648H380.626L392.929 217.702C397.033 217.702 401.128 217.801 405.232 217.855H405.475V218.098C405.475 219.799 405.394 221.5 405.358 223.183L405.223 228.151ZM405.223 228.151L405.097 223.057C405.097 221.383 404.998 219.727 404.98 218.08L405.223 218.314C401.119 218.368 397.024 218.458 392.92 218.467L380.617 218.521L381.067 218.08V228.151L380.662 227.746C382.687 227.746 384.712 227.746 386.746 227.791L392.857 227.89L405.223 228.151Z" fill="#EBEBEB"/>
<path d="M391.497 49.53L379.302 49.782L373.11 49.881C371.04 49.881 368.961 49.881 366.891 49.935H366.495V49.53L366.441 39.45V39H366.891L379.194 39.054C383.298 39.054 387.393 39.162 391.497 39.207H391.785V39.45C391.785 41.16 391.704 42.861 391.668 44.535L391.497 49.53ZM391.497 49.53L391.371 44.445C391.371 42.762 391.272 41.106 391.254 39.459L391.497 39.702C387.393 39.702 383.298 39.846 379.194 39.855L366.891 39.909L367.341 39.459V49.53L366.936 49.125C368.961 49.125 370.986 49.125 373.02 49.179L379.131 49.278L391.497 49.53Z" fill="#EBEBEB"/>
<path d="M405.223 62.2241L393.028 62.4761L386.836 62.5751C384.766 62.5751 382.687 62.5751 380.617 62.6291H380.221V62.2241L380.176 52.1531V51.7031H380.626L392.929 51.7571C397.033 51.7571 401.128 51.8651 405.232 51.9101H405.475V52.1531C405.475 53.8631 405.394 55.5641 405.358 57.2381L405.223 62.2241ZM405.223 62.2241L405.097 57.1391C405.097 55.4561 404.998 53.8001 404.98 52.1531L405.223 52.3961C401.119 52.3961 397.024 52.5401 392.92 52.5491L380.617 52.6031L381.067 52.1531V62.2241L380.662 61.8191C382.687 61.8191 384.712 61.8191 386.746 61.8731L392.857 61.9721L405.223 62.2241Z" fill="#EBEBEB"/>
<path d="M83.681 49.53L71.486 49.782L65.294 49.881C63.224 49.881 61.145 49.881 59.075 49.935H58.679V49.53L58.625 39.45V39H59.075L71.387 39.063C75.491 39.063 79.586 39.171 83.69 39.216H83.933V39.45C83.933 41.16 83.852 42.861 83.816 44.535L83.681 49.53ZM83.681 49.53L83.555 44.445C83.555 42.762 83.456 41.106 83.438 39.459L83.681 39.702C79.577 39.702 75.482 39.846 71.378 39.855L59.075 39.909L59.525 39.459V49.53L59.12 49.125C61.145 49.125 63.17 49.125 65.204 49.179L71.315 49.278L83.681 49.53Z" fill="#EBEBEB"/>
<path d="M261.556 116.966L249.361 117.218L243.169 117.326C241.099 117.326 239.029 117.326 236.95 117.371H236.554V116.966L236.5 106.895V106.445H236.95L249.253 106.508C253.357 106.508 257.452 106.607 261.556 106.652H261.799V106.886C261.799 108.596 261.718 110.297 261.682 111.971L261.556 116.966ZM261.556 116.966L261.43 111.881C261.43 110.207 261.331 108.542 261.313 106.895L261.556 107.138C257.452 107.183 253.357 107.282 249.253 107.291L236.95 107.345L237.4 106.895V116.966L236.995 116.57C239.029 116.57 241.045 116.57 243.079 116.615L249.19 116.714L261.556 116.966Z" fill="#EBEBEB"/>
<path d="M94.0406 74.8194C92.0876 84.0174 84.4196 91.9824 71.1986 91.9824C39.9686 91.9824 40.0136 47.6484 71.1986 47.6484H71.8106C42.4616 48.1884 42.6056 90.1734 72.3866 90.1734C84.5276 90.1824 91.7636 83.1534 94.0406 74.8194Z" fill="#DBDBDB"/>
<path d="M379.374 167.414C341.808 167.414 341.745 220.838 379.374 220.838C417.003 220.838 416.985 167.414 379.374 167.414Z" fill="#EBEBEB"/>
<path d="M402.219 199.133C400.221 208.322 392.598 216.296 379.368 216.296C348.147 216.296 348.192 171.953 379.368 171.953H379.98C350.64 172.493 350.784 214.478 380.556 214.478C392.688 214.487 399.942 207.467 402.219 199.133Z" fill="#DBDBDB"/>
<path d="M315.089 129.84C292.589 146.166 316.763 179.475 339.272 163.14C361.781 146.805 337.589 113.478 315.089 129.84Z" fill="#DBDBDB"/>
<path d="M317.193 128.295C295.782 143.856 319.893 177.165 341.376 161.595C362.859 146.025 338.685 112.707 317.193 128.295Z" fill="#EBEBEB"/>
<path d="M344.583 138.596C347.598 145.157 346.86 153.275 339.327 158.756C321.525 171.689 301.527 144.05 319.248 131.135L319.608 130.883C303.12 143.375 322.218 169.475 339.183 157.145C346.113 152.114 347.049 144.752 344.583 138.596Z" fill="#DBDBDB"/>
<path d="M118.754 215.07H141.704L190.025 291.345H167.084L118.754 215.07Z" fill="#37474F"/>
<path d="M242.656 172.062H265.597L313.927 248.347H290.977L242.656 172.062Z" fill="#37474F"/>
<path d="M141.668 215.07H118.727L55.2773 315.213H78.2273L141.668 215.07Z" fill="#455A64"/>
<path d="M265.635 172.062H242.694L167.121 291.34H190.062L265.635 172.062Z" fill="#455A64"/>
<path d="M389.377 129.062H366.436L290.863 248.349H313.813L389.377 129.062Z" fill="#455A64"/>
<path d="M361.105 129.064H394.801L386.152 113.125L361.105 129.064Z" fill="#455A64"/>
<path d="M127.186 315.211H75.0039V401.152H127.186V315.211Z" fill="#FFC100"/>
<path opacity="0.6" d="M127.186 315.211H75.0039V401.152H127.186V315.211Z" fill="white"/>
<path d="M55.2759 401.156H75.0039L75.0039 315.215H55.2759L55.2759 401.156Z" fill="#FFC100"/>
<path opacity="0.4" d="M55.2759 401.156H75.0039L75.0039 315.215H55.2759L55.2759 401.156Z" fill="white"/>
<path d="M216.37 197.641H164.188V401.149H216.37V197.641Z" fill="#FFC100"/>
<path opacity="0.6" d="M216.37 197.641H164.188V401.149H216.37V197.641Z" fill="white"/>
<path d="M144.448 401.148H164.176L164.176 197.64H144.448L144.448 401.148Z" fill="#FFC100"/>
<path opacity="0.4" d="M144.448 401.148H164.176L164.176 197.64H144.448L144.448 401.148Z" fill="white"/>
<path d="M305.541 247.672H253.359V401.158H305.541V247.672Z" fill="#FFC100"/>
<path opacity="0.6" d="M305.541 247.672H253.359V401.158H305.541V247.672Z" fill="white"/>
<path d="M233.639 401.148H253.367L253.367 247.662H233.639L233.639 401.148Z" fill="#FFC100"/>
<path opacity="0.4" d="M233.639 401.148H253.367L253.367 247.662H233.639L233.639 401.148Z" fill="white"/>
<path d="M394.721 229.266H342.539V401.148H394.721V229.266Z" fill="#FFC100"/>
<path opacity="0.6" d="M394.721 229.266H342.539V401.148H394.721V229.266Z" fill="white"/>
<path d="M322.811 401.156H342.539V229.274H322.811V401.156Z" fill="#FFC100"/>
<path opacity="0.4" d="M322.811 401.156H342.539V229.274H322.811V401.156Z" fill="white"/>
<path d="M207.728 105.104C208.322 115.733 208.745 126.704 207.728 137.279C206.918 145.532 203.444 152.336 194.858 154.379C186.893 156.26 175.553 156.116 168.821 150.842C165.68 148.376 164.591 144.902 164.798 141.014C165.086 135.614 169.379 105.968 170.657 96.7253C171.431 91.1003 172.178 85.3943 173.951 79.9583C177.65 68.5463 183.347 68.3303 184.13 68.1053C184.805 67.6733 189.089 66.0443 195.254 68.0153C196.865 68.5238 198.351 69.3672 199.613 70.4901C200.876 71.6131 201.887 72.9902 202.58 74.5313C206.999 83.7023 207.17 95.1593 207.728 105.104Z" fill="#263238"/>
<path d="M182.285 69.9757C175.49 73.1437 173.879 80.5597 172.232 87.2017C169.946 96.4537 167.813 105.751 166.13 115.102C165.32 119.62 164.624 124.15 164.042 128.692C163.502 133.048 162.647 137.692 162.944 142.084C163.43 149.356 170.081 152.668 176.525 153.703C176.589 153.715 176.656 153.7 176.71 153.663C176.764 153.626 176.801 153.569 176.813 153.505C176.825 153.44 176.811 153.374 176.773 153.32C176.736 153.266 176.679 153.229 176.615 153.217C172.943 152.488 169.199 151.471 166.472 148.717C162.962 145.225 163.376 140.671 163.772 136.117C164.474 128.395 165.572 120.718 167.039 113.095C168.506 105.472 170.153 97.8757 171.962 90.3247C173.681 83.1247 174.932 73.6747 182.312 70.0207C182.393 70.0567 182.357 69.9397 182.285 69.9757Z" fill="#263238"/>
<path d="M205.667 82.2797C204.38 76.7177 201.491 71.3087 195.641 69.6797C203.201 72.1187 205.046 80.3807 206.099 87.3017C207.161 94.5647 207.899 101.864 208.466 109.19C208.97 116.228 209.366 123.329 209.186 130.385C209.042 138.008 207.665 145.145 203.165 151.427C203.151 151.438 203.14 151.453 203.132 151.47C203.124 151.486 203.12 151.504 203.12 151.522C203.12 151.541 203.124 151.559 203.132 151.575C203.139 151.592 203.151 151.606 203.164 151.618C203.178 151.63 203.194 151.639 203.212 151.644C203.229 151.649 203.248 151.65 203.266 151.647C203.284 151.644 203.301 151.638 203.316 151.628C203.331 151.617 203.344 151.604 203.354 151.589C207.782 146.513 209.249 139.511 209.609 132.959C209.925 124.281 209.67 115.592 208.844 106.949C208.16 98.7497 207.53 90.2807 205.667 82.2797Z" fill="#263238"/>
<path d="M309.221 285.304C307.223 286.474 245.69 299.335 243.035 298.345C242.027 297.976 239.633 289.12 237.041 278.347C236.474 276.016 235.916 273.613 235.358 271.147C231.704 255.262 228.203 238.315 228.203 238.315L269.342 229.594L275.399 262.669L276.731 269.923C276.731 269.923 302.489 275.539 305.288 276.943C308.087 278.347 311.219 284.125 309.221 285.304Z" fill="#EB9481"/>
<path d="M238.039 282.447C240.226 291.285 242.152 298.008 243.034 298.332C245.689 299.331 307.222 286.461 309.22 285.291C311.218 284.121 308.023 278.343 305.242 276.93C303.514 276.075 293.047 273.609 285.28 271.836C292.066 273.465 304.72 278.064 278.548 279.936C256.903 281.529 242.629 282.24 238.039 282.447Z" fill="#263238"/>
<path d="M254.106 314.839C251.874 315.46 189.099 312.211 186.777 310.582C186.273 310.222 186.849 301.789 187.56 294.193C188.091 288.55 201.807 249.391 201.807 249.391L243.801 251.443L226.557 291.682C226.557 291.682 250.038 303.67 252.387 305.74C254.736 307.81 256.329 314.218 254.106 314.839Z" fill="#EB9481"/>
<path d="M186.778 310.579C189.1 312.226 251.866 315.466 254.107 314.845C256.348 314.224 254.719 307.816 252.388 305.746C251.29 304.783 245.611 301.678 239.869 298.627C247.069 302.686 258.508 311.749 187.435 295.594C186.787 302.785 186.301 310.255 186.778 310.579Z" fill="#263238"/>
<path d="M156.304 192.603C168.814 206.544 210.853 195.537 213.364 201.081C215.578 205.977 186.895 284.529 186.895 284.529L232.795 289.479C232.795 289.479 272.395 202.719 258.265 177.654C250.606 164.154 216.865 169.554 196.552 167.034C190.414 166.287 187.552 153.633 187.552 153.633H151.201C151.201 153.633 142.003 176.673 156.304 192.603Z" fill="#263238"/>
<path d="M245.502 169.887L206.946 199.389C194.148 199.119 166.122 203.556 156.303 192.603C142.002 176.673 151.173 153.633 151.173 153.633H187.524C187.524 153.633 190.413 166.296 196.524 167.043C210.825 168.771 231.678 166.638 245.502 169.887Z" fill="#37474F"/>
<path d="M234.549 279.238C233.28 278.842 221.382 277.519 218.754 277.231C213.498 276.664 196.956 275.116 193.959 275.125C193.94 275.125 193.921 275.133 193.908 275.146C193.894 275.16 193.887 275.178 193.887 275.197C193.887 275.216 193.894 275.234 193.908 275.248C193.921 275.261 193.94 275.269 193.959 275.269C196.569 275.809 207.126 277.069 209.745 277.312C215.01 277.852 233.082 279.607 234.549 279.463C234.573 279.456 234.595 279.441 234.61 279.421C234.625 279.401 234.634 279.376 234.634 279.351C234.634 279.325 234.625 279.3 234.61 279.28C234.595 279.26 234.573 279.245 234.549 279.238Z" fill="#37474F"/>
<path d="M218.934 196.482C215.982 195.015 193.608 195.744 177.534 194.241C172.305 193.746 167.058 192.63 163.062 189.201C159.582 186.063 157.097 181.973 155.916 177.438C154.377 171.948 154.53 166.224 154.8 160.608C154.863 159.222 154.953 157.845 155.043 156.459C155.043 156.387 154.908 156.369 154.899 156.459C153.675 166.521 152.739 177.762 159.291 186.483C162.197 190.307 166.327 193.017 170.991 194.16C180.675 196.716 217.08 196.077 218.358 197.058C219.897 198.228 196.353 269.886 195.858 271.254C195.768 271.506 196.218 271.677 196.326 271.425C198.702 265.917 221.499 197.76 218.934 196.482Z" fill="#37474F"/>
<path d="M259.911 180.083C257.742 174.584 252.801 171.164 245.511 169.859C245.394 169.859 245.403 170.012 245.511 170.048C251.811 171.902 256.383 174.449 258.867 179.795C260.037 182.297 260.667 185.807 260.937 190.505C262.44 213.968 241.974 267.221 241.56 268.148C241.551 268.156 241.545 268.165 241.54 268.176C241.536 268.186 241.534 268.197 241.535 268.209C241.536 268.22 241.54 268.231 241.546 268.24C241.552 268.25 241.56 268.258 241.569 268.264C241.579 268.27 241.59 268.274 241.601 268.274C241.612 268.275 241.624 268.274 241.634 268.269C241.645 268.265 241.654 268.259 241.661 268.25C241.669 268.242 241.674 268.231 241.677 268.22C244.602 263.36 268.839 202.754 259.911 180.083Z" fill="#37474F"/>
<path d="M276.506 260.559L241.739 267.957C241.739 267.957 269.162 186.057 256.283 175.545C252.683 172.62 244.934 171.594 235.682 175.545C221.867 181.512 205.883 193.671 190.808 198.126C176.696 202.284 159.938 198.459 154.178 192.114C142.064 178.776 151.172 153.576 151.172 153.576L201.167 151.695C201.167 151.695 200.42 152.307 202.805 154.395C202.805 154.395 232.19 147.735 244.952 155.529C267.983 169.677 276.506 260.559 276.506 260.559Z" fill="#263238"/>
<path d="M172.8 156.551C172.8 156.527 172.79 156.504 172.773 156.487C172.757 156.47 172.734 156.461 172.71 156.461C172.686 156.461 172.663 156.47 172.646 156.487C172.629 156.504 172.62 156.527 172.62 156.551C172.665 158.43 172.52 160.308 172.188 162.158C171.8 163.912 170.93 165.523 169.677 166.811C166.932 169.583 162.999 170.528 159.408 171.662C159.219 171.725 159.255 172.058 159.471 172.022C163.458 171.41 167.643 170.402 170.559 167.405C171.9 166.028 172.799 164.283 173.142 162.392C173.511 160.447 173.394 158.44 172.8 156.551Z" fill="#37474F"/>
<path d="M255.418 173.982C250.081 170.634 241.72 173.181 237.724 174.711C237.643 174.711 237.679 174.882 237.724 174.846C241.405 173.523 250.567 171.525 255.454 174.99C266.767 183 251.629 237.801 241.702 267.96C241.549 268.428 241.927 268.302 242.134 267.852C243.772 264.252 256.534 226.164 259.9 200.955C260.449 197.103 263.131 178.824 255.418 173.982Z" fill="#37474F"/>
<path d="M272.536 251.32C271.492 251.32 262.483 253.282 260.494 253.732C256.525 254.632 247.327 257.008 245.194 257.827C245.14 257.827 245.194 257.962 245.239 257.962C247.3 257.764 252.097 256.711 254.077 256.252C258.037 255.352 271.627 252.067 272.617 251.536C272.698 251.491 272.644 251.329 272.536 251.32Z" fill="#37474F"/>
<path d="M253.718 172.564C250.118 170.602 245.843 170.278 241.856 170.764C237.639 171.418 233.548 172.714 229.724 174.607C221.624 178.333 213.848 182.869 205.703 186.568C197.558 190.267 188.972 193.129 180.044 193.399C172.421 193.633 162.773 192.292 157.868 185.434C150.308 174.859 154.709 156.634 154.799 155.455C154.799 155.365 154.682 155.374 154.664 155.455C148.796 177.856 156.338 186.55 161.432 190.213C165.473 193.111 171.278 193.813 175.112 194.173C183.986 194.92 192.887 192.751 201.113 189.475C209.546 186.109 217.448 181.591 225.53 177.46C233.27 173.5 241.901 169.414 250.73 171.682C251.734 171.946 252.717 172.283 253.673 172.69C253.736 172.672 253.799 172.591 253.718 172.564Z" fill="#37474F"/>
<path d="M180.898 109.642C186.118 124.375 195.406 141.691 198.817 144.283C203.137 147.559 226.528 150.223 227.824 150.214C231.037 150.169 233.44 128.668 230.002 128.569C224.764 128.416 210.364 128.677 209.113 127.669C207.862 126.661 198.763 117.553 189.313 107.23C182.806 100.084 177.622 100.498 180.898 109.642Z" fill="#EB9481"/>
<path d="M226.566 150.222C229.499 151.332 232.506 152.234 235.566 152.922C237.996 153.327 245.034 154.326 245.754 151.689C246.24 149.889 242.154 148.827 239.319 147.999C237.807 147.567 235.863 146.271 236.187 145.299C236.736 143.598 240.624 144.795 243.216 145.92C248.238 148.116 255.078 152.319 257.67 149.601C258.651 148.566 257.202 147.072 255.177 145.677C258.381 147.207 261.756 148.377 262.89 147.279C263.184 146.999 263.358 146.617 263.378 146.212C263.399 145.806 263.262 145.409 262.998 145.101C263.396 145.231 263.824 145.241 264.227 145.129C264.631 145.017 264.992 144.788 265.266 144.471C266.166 143.337 265.473 141.888 264.231 140.475C264.411 140.431 264.578 140.346 264.72 140.228C264.862 140.109 264.975 139.96 265.05 139.791C266.742 136.407 255.393 128.577 251.721 128.145C244.466 127.421 237.151 127.572 229.932 128.595C226.224 132.303 226.557 150.213 226.566 150.222Z" fill="#EB9481"/>
<path d="M240.883 138.782C243.428 138.885 245.922 139.526 248.2 140.663C251.062 142.112 253.06 143.966 255.535 145.784C255.598 145.829 255.535 145.928 255.463 145.883C254.284 144.983 249.451 141.833 248.218 141.122C245.98 139.808 243.471 139.02 240.883 138.818C240.883 138.818 240.856 138.773 240.883 138.782Z" fill="#263238"/>
<path d="M242.325 134.102C245.207 134.437 248.048 135.067 250.803 135.983C253.764 137.09 256.203 139.16 258.642 141.158C260.091 142.355 261.522 143.579 262.908 144.839C262.971 144.893 262.908 144.992 262.836 144.938C260.388 142.88 257.874 140.894 255.294 138.98C252.916 137.187 250.205 135.887 247.32 135.155C245.673 134.732 243.999 134.444 242.325 134.147C242.289 134.147 242.298 134.102 242.325 134.102Z" fill="#263238"/>
<path d="M244.798 129.859C247.543 130.102 249.937 130.3 252.475 131.461C255.34 132.926 258.012 134.74 260.431 136.861C261.754 137.986 263.032 139.147 264.301 140.326C264.355 140.38 264.301 140.47 264.22 140.416C261.336 137.84 258.291 135.45 255.103 133.261C253.598 132.201 251.941 131.376 250.189 130.813C248.418 130.349 246.612 130.033 244.789 129.868L244.798 129.859Z" fill="#263238"/>
<path d="M229.896 126.955L224.874 152.911C224.874 152.911 202.77 149.266 198.369 145.495C193.968 141.724 184.248 120.781 180.9 110.467C177.552 100.153 182.934 99.793 188.604 105.886C194.274 111.979 208.35 126.703 209.079 126.982C209.808 127.261 229.896 126.955 229.896 126.955Z" fill="#FFC100"/>
<path d="M221.544 142.021C222.156 138.952 222.804 135.892 223.344 132.814C223.623 131.059 223.92 129.304 224.19 127.549C224.19 127.477 224.091 127.45 224.073 127.549C223.335 130.6 222.597 133.66 221.994 136.738C221.391 139.816 220.77 142.876 220.194 145.945C219.879 147.745 219.609 149.446 219.402 151.219H219.465C220.293 148.177 220.923 145.108 221.544 142.021Z" fill="#263238"/>
<path opacity="0.1" d="M225.377 150.303L224.882 152.886C224.882 152.886 202.769 149.241 198.368 145.479C193.967 141.717 184.238 120.783 180.899 110.469C178.46 102.927 180.674 100.704 184.256 102.441C194.606 114.303 214.118 136.686 225.377 150.303Z" fill="black"/>
<path d="M150.031 153.504L202.411 154.404L198.307 138.717C199.686 136.748 200.616 134.499 201.029 132.13C201.443 129.762 201.331 127.331 200.701 125.01C199.45 120.393 193.501 113.472 189.829 109.08C180.928 98.3795 173.197 103.221 170.731 105.966C161.272 116.478 150.031 153.504 150.031 153.504Z" fill="#EBEBEB"/>
<path d="M174.732 102.961C174.732 102.961 179.871 116.605 181.878 119.719C183.885 122.833 189.789 128.413 189.789 128.413C189.789 128.413 190.473 120.367 189.789 115.768C189.105 111.169 185.199 104.617 185.199 104.617C186.245 105.165 187.182 105.9 187.962 106.786C192.399 111.286 200.112 120.196 201.273 126.28C201.714 128.389 201.73 130.564 201.322 132.679C200.914 134.794 200.09 136.807 198.897 138.601L204.801 157.438L196.53 160.003L192.462 155.179L188.259 160.534L146.355 154.693L153.321 141.553C153.321 141.553 163.293 115.651 167.253 109.981C171.762 103.501 174.732 102.961 174.732 102.961Z" fill="#FFC100"/>
<path d="M184.293 137.755C186.534 137.553 188.787 137.516 191.033 137.647C192.149 137.728 193.247 137.854 194.354 138.007C194.903 138.088 195.461 138.142 196.01 138.205C196.591 138.273 197.176 138.273 197.756 138.205C197.81 138.205 197.819 138.268 197.756 138.286C197.219 138.405 196.675 138.492 196.127 138.547C195.597 138.583 195.065 138.583 194.534 138.547C193.4 138.475 192.267 138.358 191.142 138.277C188.856 138.106 186.579 137.944 184.293 137.944C184.194 137.944 184.185 137.764 184.293 137.755Z" fill="#263238"/>
<path d="M179.199 140.698C180.974 140.178 182.777 139.761 184.599 139.447C185.499 139.294 186.399 139.186 187.362 139.114C187.803 139.114 188.262 139.042 188.685 139.024C189.108 139.006 189.666 139.024 190.152 139.024C190.152 139.024 190.215 139.096 190.152 139.096C189.693 139.141 189.252 139.267 188.793 139.339L187.416 139.546L184.716 139.978C182.916 140.248 181.062 140.536 179.235 140.878C179.1 140.869 179.1 140.725 179.199 140.698Z" fill="#263238"/>
<path d="M174.511 103.281C173.989 106.881 173.386 110.535 172.774 114.153L172.585 113.856C174.718 114.414 176.842 115.026 178.966 115.611L179.326 115.71L179.173 116.052C178.543 117.447 177.913 118.851 177.256 120.237L177.175 119.85C179.425 121.812 181.675 123.738 183.925 125.736C186.175 127.734 188.425 129.705 190.576 131.748C188.227 129.948 185.914 128.013 183.61 126.114C181.306 124.215 179.038 122.271 176.743 120.354L176.554 120.192L176.662 119.967C177.283 118.563 177.94 117.177 178.588 115.782L178.795 116.223C176.68 115.602 174.556 115.008 172.441 114.36L172.207 114.288V114.054C172.972 110.463 173.701 106.863 174.511 103.281Z" fill="#263238"/>
<path d="M186.301 105.422C187.489 106.655 188.317 107.537 189.46 108.797C190.603 110.057 191.782 111.299 192.898 112.586L193.132 112.856L192.826 113.036L190.612 114.413L190.675 113.918C191.575 114.818 192.475 115.718 193.375 116.663L193.492 116.789V116.951C193.024 119.417 192.592 121.901 192.106 124.358C191.62 126.815 191.125 129.29 190.567 131.747C190.873 129.245 191.242 126.761 191.629 124.277C192.016 121.793 192.439 119.318 192.835 116.843L192.925 117.131C192.025 116.231 191.125 115.331 190.225 114.368L189.937 114.08L190.279 113.873L192.52 112.532L192.448 112.982C191.332 111.695 190.261 110.363 189.163 109.058C188.065 107.753 187.363 106.772 186.301 105.422Z" fill="#263238"/>
<path d="M190.574 131.742C190.889 132.939 191.213 134.136 191.474 135.342C191.735 136.548 192.041 137.745 192.302 138.942C192.392 141.642 192.41 144.342 192.455 147.042C192.5 149.742 192.455 152.442 192.455 155.142C192.293 152.442 192.185 149.742 192.095 147.042C192.005 144.342 191.933 141.642 191.906 138.942V138.987C191.654 137.772 191.411 136.557 191.195 135.342C190.979 134.127 190.799 132.957 190.574 131.742Z" fill="#263238"/>
<path d="M189.898 135.005C189.904 135.213 189.836 135.416 189.708 135.58C189.58 135.745 189.399 135.859 189.196 135.905C189.067 135.926 188.934 135.918 188.808 135.883C188.681 135.847 188.564 135.784 188.465 135.698C188.365 135.612 188.286 135.506 188.232 135.386C188.178 135.266 188.151 135.136 188.152 135.005C188.152 134.868 188.182 134.733 188.241 134.61C188.301 134.487 188.387 134.379 188.494 134.294C188.593 134.219 188.707 134.164 188.828 134.135C188.948 134.106 189.074 134.101 189.196 134.123C189.396 134.168 189.575 134.28 189.703 134.44C189.83 134.601 189.899 134.8 189.898 135.005ZM189.898 135.005C189.9 134.914 189.879 134.824 189.839 134.742C189.798 134.661 189.738 134.59 189.664 134.537C189.596 134.494 189.518 134.465 189.438 134.452C189.357 134.44 189.275 134.444 189.196 134.465C189.087 134.505 188.993 134.579 188.928 134.676C188.863 134.773 188.831 134.888 188.836 135.005C188.832 135.12 188.864 135.234 188.929 135.33C188.994 135.425 189.088 135.498 189.196 135.536C189.275 135.559 189.358 135.565 189.438 135.552C189.519 135.54 189.596 135.51 189.664 135.464C189.737 135.411 189.796 135.342 189.837 135.263C189.877 135.183 189.898 135.095 189.898 135.005Z" fill="#263238"/>
<path d="M190.914 142.751C190.92 142.959 190.852 143.163 190.724 143.327C190.596 143.491 190.415 143.606 190.212 143.651C190.09 143.673 189.964 143.669 189.844 143.639C189.723 143.61 189.609 143.556 189.51 143.48C189.404 143.396 189.317 143.289 189.258 143.166C189.199 143.044 189.168 142.91 189.168 142.774C189.168 142.638 189.199 142.504 189.258 142.381C189.317 142.259 189.404 142.152 189.51 142.067C189.609 141.992 189.723 141.938 189.844 141.908C189.964 141.879 190.09 141.875 190.212 141.896C190.408 141.94 190.583 142.048 190.71 142.203C190.837 142.358 190.909 142.551 190.914 142.751ZM190.914 142.751C190.916 142.659 190.894 142.569 190.852 142.487C190.809 142.405 190.747 142.335 190.671 142.283C190.604 142.24 190.529 142.211 190.45 142.198C190.371 142.186 190.29 142.19 190.212 142.211C190.103 142.253 190.01 142.328 189.944 142.424C189.878 142.52 189.843 142.635 189.843 142.751C189.836 142.851 189.858 142.95 189.905 143.037C189.953 143.125 190.024 143.197 190.111 143.245C190.198 143.293 190.297 143.316 190.396 143.309C190.496 143.303 190.591 143.269 190.671 143.21C190.747 143.16 190.808 143.092 190.851 143.011C190.893 142.931 190.915 142.842 190.914 142.751Z" fill="#263238"/>
<path d="M191.287 149.884C191.291 150.094 191.223 150.298 191.093 150.462C190.963 150.626 190.78 150.74 190.576 150.784C190.453 150.806 190.328 150.802 190.207 150.772C190.086 150.743 189.973 150.689 189.874 150.613C189.767 150.529 189.681 150.422 189.621 150.299C189.562 150.177 189.531 150.043 189.531 149.907C189.531 149.771 189.562 149.637 189.621 149.514C189.681 149.392 189.767 149.284 189.874 149.2C189.973 149.125 190.086 149.071 190.207 149.041C190.328 149.012 190.453 149.008 190.576 149.029C190.773 149.071 190.95 149.179 191.079 149.334C191.208 149.489 191.281 149.683 191.287 149.884ZM191.287 149.884C191.284 149.793 191.261 149.703 191.219 149.622C191.177 149.541 191.117 149.471 191.044 149.416C190.975 149.372 190.898 149.343 190.817 149.331C190.737 149.318 190.654 149.323 190.576 149.344C190.466 149.384 190.372 149.458 190.307 149.555C190.243 149.652 190.211 149.768 190.216 149.884C190.211 150 190.244 150.113 190.308 150.209C190.373 150.305 190.467 150.377 190.576 150.415C190.654 150.439 190.737 150.445 190.818 150.432C190.899 150.42 190.976 150.389 191.044 150.343C191.116 150.29 191.175 150.221 191.217 150.141C191.259 150.062 191.283 149.974 191.287 149.884Z" fill="#263238"/>
<path d="M176.922 103.594C176.922 104.566 179.622 111.694 183.906 112.594C185.292 112.891 187.263 105.394 187.263 105.394L187.542 104.872L191.34 97.6185L183.834 89.3655L182.7 88.3125C182.7 88.3125 181.8 90.3645 180.684 92.9295C180.63 93.0465 180.576 93.1635 180.522 93.2985C180.468 93.4335 180.396 93.5775 180.342 93.7125C180.171 94.0905 179.991 94.4775 179.829 94.8735C179.667 95.2695 179.586 95.4585 179.46 95.7735C179.334 96.0885 179.217 96.3945 179.082 96.6735C178.211 98.9308 177.49 101.243 176.922 103.594Z" fill="#EB9481"/>
<path d="M180.719 92.9295C180.914 95.3064 181.626 97.612 182.804 99.6856C183.983 101.759 185.599 103.551 187.541 104.935L191.339 97.6815L183.833 89.4285L182.699 88.3125C182.699 88.3125 181.799 90.3645 180.719 92.9295Z" fill="#263238"/>
<path d="M205.399 88.0265C203.779 102.3 195.049 102.948 191.971 102.597C189.172 102.282 179.695 100.797 179.83 86.4695C179.965 72.1415 187.102 68.3345 193.501 68.7305C199.9 69.1265 207.001 73.7435 205.399 88.0265Z" fill="#EB9481"/>
<path d="M203.659 85.3385C203.326 85.2485 203.038 85.1225 202.759 85.0055C202.411 84.9321 202.095 84.7491 201.859 84.4835C201.802 84.3855 201.779 84.2715 201.793 84.1592C201.808 84.0468 201.859 83.9425 201.94 83.8625C202.123 83.728 202.339 83.6454 202.566 83.6232C202.792 83.6011 203.021 83.6402 203.227 83.7365C203.668 83.8675 204.046 84.1556 204.289 84.5465C204.345 84.6408 204.372 84.7502 204.365 84.8601C204.358 84.97 204.317 85.0751 204.249 85.1612C204.18 85.2474 204.087 85.3106 203.981 85.3422C203.876 85.3739 203.763 85.3726 203.659 85.3385Z" fill="#263238"/>
<path d="M193.896 83.5486C194.227 83.5428 194.557 83.5188 194.886 83.4766C195.238 83.5009 195.589 83.4092 195.885 83.2156C195.965 83.1356 196.016 83.0312 196.031 82.9189C196.046 82.8066 196.023 82.6925 195.966 82.5946C195.826 82.4172 195.641 82.2809 195.43 82.2001C195.22 82.1193 194.991 82.097 194.769 82.1356C194.303 82.1327 193.855 82.3101 193.518 82.6306C193.444 82.7061 193.393 82.8016 193.373 82.9054C193.353 83.0091 193.364 83.1165 193.404 83.2143C193.444 83.312 193.512 83.3958 193.6 83.4552C193.687 83.5146 193.79 83.5471 193.896 83.5486Z" fill="#263238"/>
<path d="M195.676 87.7836C195.676 87.7386 195.595 87.7836 195.595 87.8556C195.514 88.8366 195.262 89.9346 194.344 90.1596V90.2226C195.442 90.1866 195.766 88.7196 195.676 87.7836Z" fill="#263238"/>
<path d="M194.921 86.6761C193.373 86.3791 192.905 89.5021 194.336 89.7811C195.767 90.0601 196.199 86.9191 194.921 86.6761Z" fill="#263238"/>
<path d="M194.293 86.7416C193.987 86.8766 193.672 87.1466 193.339 87.1286C193.006 87.1106 192.718 86.7416 192.52 86.3906C192.52 86.3906 192.466 86.3906 192.457 86.3906C192.365 86.6691 192.382 86.9722 192.506 87.2381C192.63 87.504 192.85 87.7127 193.123 87.8216C193.699 87.9926 194.194 87.5246 194.437 86.9216C194.482 86.8676 194.401 86.6876 194.293 86.7416Z" fill="#263238"/>
<path d="M201.085 88.3906C201.085 88.3906 201.157 88.4536 201.148 88.4896C200.968 89.4526 200.914 90.5866 201.733 91.0456C201.733 91.0456 201.733 91.1086 201.733 91.0996C200.698 90.7756 200.761 89.2726 201.085 88.3906Z" fill="#263238"/>
<path d="M202.111 87.5266C203.686 87.6526 203.308 90.7846 201.85 90.6676C200.392 90.5506 200.797 87.4096 202.111 87.5266Z" fill="#263238"/>
<path d="M202.743 87.8031C202.968 88.0011 203.184 88.3341 203.472 88.3881C203.76 88.4421 204.111 88.1451 204.372 87.8391C204.372 87.8391 204.426 87.8391 204.417 87.8841C204.363 88.4871 204.093 89.0811 203.517 89.1261C202.941 89.1711 202.662 88.6131 202.617 88.0011C202.545 87.8841 202.653 87.7221 202.743 87.8031Z" fill="#263238"/>
<path d="M198.898 92.7696C198.901 93.4878 198.868 94.2057 198.799 94.9206C198.799 94.9926 198.619 94.9926 198.385 94.9746C197.784 94.9995 197.188 94.8581 196.663 94.5659C196.137 94.2737 195.702 93.8421 195.406 93.3186C195.406 93.2466 195.46 93.1926 195.523 93.2466C196.311 93.9613 197.308 94.4031 198.367 94.5066C198.439 94.3266 198.286 91.9776 198.367 91.9866C198.891 92.1072 199.397 92.2979 199.87 92.5536C199.96 89.4756 199.555 86.4156 199.699 83.3556C199.699 83.3318 199.709 83.3089 199.726 83.292C199.742 83.2751 199.765 83.2656 199.789 83.2656C199.813 83.2656 199.836 83.2751 199.853 83.292C199.87 83.3089 199.879 83.3318 199.879 83.3556C200.411 86.6271 200.613 89.9438 200.482 93.2556C200.5 93.5976 199.159 92.9226 198.898 92.7696Z" fill="#263238"/>
<path d="M198.343 94.6391C197.891 95.1546 197.315 95.5452 196.669 95.7731C196.315 95.8898 195.933 95.8898 195.58 95.7731C194.806 95.5211 194.833 94.7921 195.022 94.1891C195.122 93.873 195.261 93.5706 195.436 93.2891C196.235 94.0385 197.254 94.5117 198.343 94.6391Z" fill="#263238"/>
<path d="M196.669 95.7715C196.315 95.8882 195.933 95.8882 195.58 95.7715C194.806 95.5195 194.833 94.7905 195.022 94.1875C195.437 94.2201 195.828 94.3958 196.129 94.6846C196.429 94.9735 196.62 95.3576 196.669 95.7715Z" fill="#FF9BBC"/>
<path d="M179.865 88.2006C180.857 87.9154 181.757 87.3784 182.48 86.6419C183.202 85.9054 183.721 84.9944 183.987 83.9976C186.662 83.3484 189.118 82.004 191.106 80.1006C190.953 80.3796 189.9 82.3776 189.306 83.3856C198.639 83.2686 202.644 76.8426 202.644 76.8426C204.096 78.7317 205.099 80.926 205.578 83.2596C205.578 83.2596 206.613 77.7246 204.408 73.5216C203.713 72.0709 202.643 70.8318 201.31 69.9317C199.976 69.0316 198.427 68.5031 196.821 68.4006C194.685 67.4686 192.336 67.1305 190.024 67.422C187.711 67.7134 185.52 68.6236 183.681 70.0566C176.697 75.4026 179.865 88.2006 179.865 88.2006Z" fill="#263238"/>
<path d="M196.452 83.066C194.861 83.6067 193.199 83.9099 191.52 83.966C194.203 83.7194 196.762 82.7178 198.9 81.077C199.807 80.3874 200.623 79.5861 201.33 78.692C202.136 77.7439 202.748 76.646 203.13 75.461C203.135 75.4472 203.144 75.4353 203.156 75.427C203.168 75.4186 203.182 75.4141 203.197 75.4141C203.212 75.4141 203.226 75.4186 203.238 75.427C203.25 75.4353 203.259 75.4472 203.265 75.461C203.015 76.6744 202.561 77.8368 201.924 78.899C201.251 79.9273 200.394 80.8215 199.395 81.536C198.505 82.1693 197.529 82.6724 196.497 83.03L196.452 83.066Z" fill="#263238"/>
<path d="M178.975 91.3241C179.168 91.4503 179.377 91.5502 179.596 91.6211C179.806 91.7041 180.028 91.7556 180.253 91.7741C180.556 91.8138 180.865 91.7798 181.153 91.6751C181.371 91.6044 181.577 91.5012 181.765 91.3691C182.039 91.1868 182.277 90.9548 182.467 90.6851V86.7701C182.467 86.7701 180.28 81.7481 178.066 82.4501C175.852 83.1521 176.806 90.0011 178.975 91.3241Z" fill="#EB9481"/>
<path d="M178.344 84.3906C178.344 84.3906 178.29 84.3906 178.344 84.4536C179.847 85.4526 180.405 87.1536 180.693 88.8456C180.631 88.6626 180.53 88.4953 180.397 88.355C180.263 88.2148 180.102 88.105 179.922 88.0332C179.743 87.9614 179.55 87.9293 179.357 87.939C179.163 87.9488 178.975 88.0001 178.803 88.0896C178.794 88.0938 178.785 88.1008 178.78 88.1095C178.774 88.1183 178.771 88.1286 178.771 88.1391C178.771 88.1496 178.774 88.1599 178.78 88.1687C178.785 88.1775 178.794 88.1844 178.803 88.1886C179.11 88.1549 179.419 88.2173 179.688 88.3673C179.958 88.5173 180.174 88.7474 180.306 89.0256C180.53 89.4913 180.702 89.9802 180.819 90.4836C180.864 90.6456 181.143 90.6186 181.125 90.4386C181.584 88.3146 180.549 85.0566 178.344 84.3906Z" fill="#263238"/>
<path d="M166.555 107.874C158.041 115.335 136.243 144.675 141.598 150.957C146.953 157.239 180.595 152.883 190.27 149.409C193.15 148.374 184.429 130.203 181.27 129.483C178.615 128.88 164.242 133.785 163.918 132.957C163.594 132.129 166.411 125.64 170.911 114.057C176.077 100.647 170.308 104.58 166.555 107.874Z" fill="#EB9481"/>
<path d="M195.441 125.313C202.209 125.061 203.991 126.033 209.589 122.775C213.261 120.642 216.204 122.073 213.855 125.808C210.012 131.937 201.345 134.106 198.123 133.989L195.441 125.313Z" fill="#EB9481"/>
<path d="M177.066 129.972C181.916 127.934 186.983 126.458 192.168 125.571C197.145 124.878 208.125 124.599 217.422 136.371C219.627 139.152 220.797 144.687 215.541 141.447C211.806 139.143 210.141 136.56 207.72 135.615C207.72 135.615 208.377 142.815 205.497 144.93C202.984 146.768 200.343 148.425 197.595 149.889C197.213 149.446 196.858 148.98 196.533 148.494C196.533 148.494 193.662 150.195 188.676 149.214L177.066 129.972Z" fill="#EB9481"/>
<path d="M197.02 125.672C199.216 127.112 203.833 130.253 206.704 134.123C209.908 138.434 214.903 147.623 211.699 149.918C209.35 151.619 207.136 148.289 207.136 148.289C207.136 148.289 208.405 152.51 205.948 153.59C203.707 154.571 202.141 151.898 202.141 151.898C202.141 151.898 202.474 154.598 200.134 155.12C197.317 155.75 197.092 150.008 193.681 148.19C192.916 147.785 197.02 125.672 197.02 125.672Z" fill="#EB9481"/>
<path d="M201.598 136.737C204.58 139.897 206.529 143.89 207.187 148.185C207.187 148.293 207.124 148.365 207.088 148.266C205.728 144.236 203.884 140.386 201.598 136.8C201.598 136.8 201.598 136.719 201.598 136.737Z" fill="#263238"/>
<path d="M197.342 140.098C198.782 141.727 201.842 146.947 202.238 151.861C202.238 151.969 202.166 152.032 202.13 151.933C200.97 147.827 199.349 143.866 197.297 140.125C197.297 140.125 197.324 140.08 197.342 140.098Z" fill="#263238"/>
<path d="M207.728 135.532C209.629 136.403 211.364 137.597 212.858 139.06C213.691 139.8 214.569 140.488 215.486 141.121C216.323 141.688 217.556 142.543 218.573 141.886C218.817 141.676 219 141.403 219.103 141.098C219.206 140.792 219.225 140.465 219.158 140.149C218.975 139.241 218.653 138.367 218.204 137.557C218.204 137.557 218.204 137.494 218.258 137.557C218.702 138.297 219.067 139.081 219.347 139.897C219.522 140.457 219.522 141.057 219.347 141.616C218.906 142.777 217.475 142.795 216.503 142.363C215.927 142.088 215.381 141.753 214.874 141.364C214.379 141.013 213.902 140.635 213.425 140.239C212.462 139.438 211.544 138.583 210.59 137.764C209.659 136.997 208.682 136.288 207.665 135.64C207.647 135.577 207.683 135.523 207.728 135.532Z" fill="#263238"/>
<path d="M177.065 129.971L185.399 153.164C185.399 153.164 143.315 158.276 140.48 150.761C137.645 143.246 156.446 116.795 164.465 109.361C173.762 100.73 174.509 104.06 171.827 112.268C169.019 120.854 164.033 133.184 164.033 133.184L177.065 129.971Z" fill="#FFC100"/>
<path d="M150.893 137.814C154.957 135.557 159.338 133.924 163.889 132.972C165.176 132.684 166.472 132.459 167.768 132.234C167.768 132.234 167.813 132.288 167.768 132.288C165.499 132.783 163.261 133.405 161.063 134.151C158.876 134.88 156.707 135.636 154.547 136.446C153.323 136.896 152.126 137.409 150.947 137.904C150.935 137.912 150.92 137.914 150.907 137.91C150.893 137.907 150.882 137.898 150.875 137.886C150.868 137.874 150.865 137.86 150.869 137.847C150.872 137.833 150.881 137.822 150.893 137.814Z" fill="#263238"/>
<path d="M176.958 129.9C176.751 129.9 165.114 132.519 164.736 132.654C164.799 132.483 167.436 126.705 167.805 125.859C167.839 125.773 167.878 125.689 167.922 125.607C168.165 125.229 168.408 124.86 168.642 124.482C168.876 124.104 169.227 123.51 169.542 123.015L168.597 124.437C168.453 124.653 168.318 124.878 168.183 125.103C168.444 124.509 168.696 123.906 168.948 123.303C169.353 122.34 169.722 121.359 170.091 120.387C170.091 120.387 170.091 120.342 170.046 120.387C169.272 122.07 168.444 123.735 167.67 125.418C166.896 127.101 163.935 133.293 163.953 133.284C163.971 133.275 176.787 130.161 177.039 130.08C177.051 130.075 177.062 130.067 177.071 130.058C177.079 130.048 177.086 130.037 177.091 130.025C177.096 130.013 177.098 130 177.097 129.987C177.097 129.974 177.094 129.962 177.089 129.95C177.083 129.938 177.076 129.927 177.066 129.918C177.057 129.909 177.046 129.903 177.034 129.898C177.022 129.893 177.009 129.891 176.996 129.892C176.983 129.892 176.97 129.895 176.958 129.9Z" fill="#263238"/>
<path d="M176.274 144.416C175.374 141.824 174.474 139.232 173.466 136.676C172.89 135.227 172.332 133.769 171.738 132.329C171.738 132.275 171.621 132.329 171.639 132.329C172.449 134.966 173.268 137.603 174.204 140.195C175.14 142.787 176.004 145.37 176.994 147.944C177.543 149.402 178.128 150.842 178.794 152.273H178.848C178.092 149.618 177.192 147.017 176.274 144.416Z" fill="#263238"/>
<path d="M185.858 153.561C185.516 152.841 185.093 151.761 184.724 151.104C184.625 150.915 184.481 150.933 184.562 151.104C184.814 151.752 185.003 152.472 185.246 153.138L183.446 153.309L181.403 153.525C180.062 153.66 178.703 153.786 177.389 153.894C174.683 154.122 171.983 154.29 169.289 154.398C163.843 154.648 158.387 154.615 152.945 154.299C151.424 154.2 149.903 154.074 148.391 153.903C146.879 153.732 145.196 153.525 143.936 153.237C143.891 153.237 143.882 153.291 143.936 153.309C145.191 153.711 146.476 154.012 147.779 154.209C149.147 154.416 150.479 154.587 151.892 154.704C154.637 154.947 157.382 155.046 160.136 155.073C165.59 155.121 171.038 154.935 176.48 154.515C178.001 154.407 179.522 154.272 181.043 154.119C181.817 154.047 182.582 153.966 183.347 153.876C184.191 153.846 185.032 153.74 185.858 153.561Z" fill="#263238"/>
<path d="M242.695 156.016H189.703V158.392H242.695V156.016Z" fill="#C7C7C7"/>
<path d="M242.695 156.016V158.392H206.668L208.486 156.016H242.695Z" fill="#A6A6A6"/>
<path d="M213.957 158.396H260.334L267.048 125.672H220.671L213.957 158.396Z" fill="#A6A6A6"/>
<path d="M216.125 158.396H262.502L269.216 125.672H222.83L216.125 158.396Z" fill="#C7C7C7"/>
<path d="M246.853 140.818C246.89 141.547 246.683 142.267 246.264 142.864C245.845 143.461 245.238 143.9 244.54 144.112C243.217 144.391 242.101 143.365 242.056 141.817C242.015 141.087 242.22 140.364 242.64 139.765C243.06 139.166 243.669 138.725 244.369 138.514C245.701 138.235 246.799 139.27 246.853 140.818Z" fill="white"/>
<path d="M42.6953 401.145L88.2713 400.929L133.847 400.848L224.999 400.695L316.151 400.848L361.727 400.929L407.303 401.145L361.727 401.37L316.151 401.451L224.999 401.595L133.847 401.451L88.2713 401.37L42.6953 401.145Z" fill="#263238"/>
<path d="M313.353 44.6094H312.453V73.6884H313.353V44.6094Z" fill="#263238"/>
<path d="M312.904 45.0641C312.411 45.0659 311.927 44.921 311.516 44.6477C311.105 44.3745 310.784 43.9852 310.594 43.5293C310.404 43.0734 310.354 42.5714 310.45 42.087C310.546 41.6025 310.783 41.1575 311.133 40.8083C311.482 40.4591 311.927 40.2215 312.411 40.1256C312.896 40.0297 313.398 40.0798 313.854 40.2696C314.309 40.4594 314.699 40.7803 314.972 41.1917C315.245 41.603 315.39 42.0863 315.388 42.5801C315.386 43.2382 315.124 43.8686 314.658 44.3339C314.193 44.7993 313.562 45.0617 312.904 45.0641ZM312.904 40.9871C312.589 40.9853 312.28 41.0772 312.017 41.2512C311.754 41.4251 311.548 41.6733 311.426 41.9642C311.304 42.2552 311.271 42.5757 311.332 42.8853C311.392 43.1949 311.543 43.4796 311.766 43.7033C311.988 43.927 312.272 44.0796 312.581 44.1418C312.89 44.204 313.211 44.173 313.503 44.0527C313.794 43.9324 314.044 43.7282 314.219 43.4661C314.395 43.2039 314.488 42.8956 314.488 42.5801C314.488 42.1592 314.322 41.7553 314.025 41.4569C313.728 41.1584 313.325 40.9895 312.904 40.9871Z" fill="#263238"/>
<path d="M341.668 40.5391H319.078V41.5561H341.668V40.5391Z" fill="#263238"/>
<path d="M331.867 42.5781H319.078V43.5951H331.867V42.5781Z" fill="#263238"/>
<path d="M321.192 91.1176H321.093H321.012L319.212 90.4966H319.113L318.105 90.1456H317.988L316.404 89.5966L316.269 89.5426L315.333 89.1016H315.198L313.398 88.4716L313.245 88.4086L312.147 88.0306L311.976 87.9676L310.608 87.4906L310.419 87.4276L309.222 87.0136L309.024 86.9506L307.368 86.3656L307.197 86.3116L305.928 85.8706L305.766 85.8076L304.551 85.3936L304.407 85.3396L303.03 84.8536H302.886L301.689 84.4396L301.572 84.3946L299.844 83.7016H299.727L297.927 83.0806H297.828L296.469 82.6126H296.379L294.579 81.9916H294.507L293.022 81.4786H292.959L291.402 80.9386L292.878 80.4616H292.941L294.651 79.9126H294.732L296.19 79.4446H296.28L298.143 78.8416H298.251L299.502 78.4456H299.619L302.319 77.5456H302.454L303.147 77.3296H303.291L305.991 76.4296L306.162 76.3756L306.747 76.1866L306.927 76.1326L309.681 75.2326L309.888 75.1696L310.509 74.9716L310.707 74.9086L313.605 74.0086L313.821 73.9366L314.154 73.8376L314.352 73.7656L317.7 72.3346L317.88 72.2806L318.177 72.1906L318.348 72.1366L321.48 71.1016L321.561 71.3716C321.561 71.4436 321.561 71.5156 321.624 71.5876V71.6506C321.624 71.7406 321.678 71.8306 321.705 71.9206C322.339 74.1767 322.731 76.4937 322.875 78.8326C322.875 78.9226 322.875 79.0126 322.875 79.1116C322.934 80.1788 322.934 81.2484 322.875 82.3156C322.875 82.5316 322.875 82.7296 322.875 82.9366C322.655 85.7227 322.09 88.4708 321.192 91.1176Z" fill="#C7C7C7"/>
<path d="M293.004 80.2658L293.085 81.3278H293.022L292.941 80.3108L293.004 80.2658ZM294.714 79.7168L294.57 81.8408H294.642L294.795 79.6628L294.714 79.7168ZM296.343 79.1948H296.253L296.406 82.4618H296.496L296.343 79.1948ZM298.206 78.5918L297.9 82.9838H297.999L298.359 78.4838L298.206 78.5918ZM299.7 78.1238H299.583L299.745 83.6048H299.862L299.7 78.1238ZM301.995 80.8238L301.5 84.2708L301.617 84.3158L302.067 80.8148L302.526 77.2148H302.391L301.995 80.8238ZM303.417 76.9538H303.273L302.868 84.7118H303.012L303.417 76.9538ZM304.389 85.2878L304.533 85.3418L306.27 76.0358L306.099 76.0898L304.389 85.2878ZM306.855 75.8378L305.748 85.7378L305.91 85.8008L307.035 75.7658L306.855 75.8378ZM309.789 74.9378L307.179 86.2958L307.35 86.3498L310.005 74.8658L309.798 74.9288L309.789 74.9378ZM310.626 74.6678L309.006 86.9348L309.204 86.9978L310.824 74.6048L310.626 74.6678ZM313.722 73.6688L310.401 87.4118L310.59 87.4748L313.92 73.5338L313.722 73.6688ZM314.271 73.4978L311.94 87.8888L312.111 87.9518L314.451 73.3628L314.271 73.4978ZM317.7 72.3368L313.2 88.3298L313.353 88.3928L317.853 72.2828L317.7 72.3368ZM318.177 72.1838L315.243 89.0228H315.378L318.348 72.0758L318.177 72.1838ZM321.669 71.5988C321.669 71.5268 321.624 71.4548 321.606 71.3828L316.35 89.3828L316.485 89.4368L321.669 71.5808V71.5988ZM321.669 71.6798L318.069 90.0128H318.186L321.786 71.9048C321.696 71.8598 321.678 71.7698 321.642 71.6798H321.669ZM322.938 79.1498C322.938 79.0508 322.938 78.9608 322.938 78.8708L319.194 90.4088H319.293L322.911 79.2038L322.938 79.1498ZM322.938 82.3628L321.048 91.0568H321.129L322.929 82.9568C322.875 82.8038 322.893 82.5788 322.902 82.3628H322.938Z" fill="#DBDBDB"/>
<path d="M321.192 91.1044L318.672 90.8344L288.945 80.4844L291.465 80.7544L321.192 91.1044Z" fill="#A6A6A6"/>
<path d="M291.465 80.7551L288.945 80.4851L318.96 70.8281L321.48 71.0981L291.465 80.7551Z" fill="#A6A6A6"/>
<path d="M274.844 48.3906L274.637 80.7906L305.03 70.9806C300.764 57.3276 288.902 48.4896 274.844 48.3906Z" fill="#37474F"/>
<path d="M275.78 48.4141L274.835 50.0071V49.8181L275.672 48.4141H275.78ZM276.743 48.4591L274.817 52.7431V52.9861L276.851 48.4861L276.743 48.4591ZM280.244 48.8731L274.79 57.8731V58.0981L280.388 48.9451L280.244 48.8731ZM281 49.0171L274.754 62.3461V62.6701L281.135 49.0441L281 49.0171ZM283.979 52.8241L285.671 50.3131L285.527 50.2591L283.853 52.7341L278.858 60.1141L274.727 66.2251V66.4951L278.993 60.1951L283.979 52.8241ZM285.896 50.3941L274.709 69.9691V70.3201L286.058 50.4481L285.896 50.3941ZM289.703 52.1131L274.691 71.8051V72.1021L289.874 52.2031L289.703 52.1131ZM290.054 52.3021L274.664 75.8281V76.2061L290.225 52.3921L290.054 52.3021ZM293.33 54.3901L274.664 76.8091V77.1421L293.519 54.5251L293.33 54.3901ZM293.717 54.6781L276.302 80.2471L276.68 80.1211L293.924 54.8221L293.717 54.6781ZM296.579 57.1171L277.148 79.9681L277.58 79.8241L296.741 57.3241L296.579 57.1171ZM296.894 57.4231L281.594 78.5191L281.927 78.4201L297.056 57.6031C297.002 57.5401 296.948 57.4771 296.894 57.4231ZM299.405 60.2401L283.205 78.0061L283.592 77.8801L299.522 60.3931L299.405 60.2401ZM299.801 60.7441L288.101 76.4221L288.389 76.3321L299.891 60.8971L299.801 60.7441ZM301.799 63.7231L290.702 75.6031L291.026 75.4951L301.826 63.8761C301.823 63.8242 301.814 63.7729 301.799 63.7231ZM302.096 64.2271L294.086 74.5051L294.329 74.4241L302.177 64.3711L302.096 64.2271ZM303.779 67.5841L298.244 73.1641L298.514 73.0741L303.833 67.6741L303.779 67.5841ZM304.067 68.2771L300.755 72.3541L300.962 72.2821L304.112 68.4031C304.101 68.3597 304.086 68.3175 304.067 68.2771Z" fill="#263238"/>
<path d="M274.635 80.7734L244.242 90.5834C246.227 97.0613 250.221 102.74 255.645 106.799C261.07 110.858 267.644 113.088 274.419 113.164C281.197 113.187 287.806 111.048 293.286 107.059C298.766 103.069 302.832 97.4368 304.893 90.9794L274.635 80.7734Z" fill="#FFC100"/>
<path d="M244.245 90.5859H241.707C243.692 97.0638 247.685 102.743 253.11 106.802C258.535 110.861 265.109 113.09 271.884 113.167H274.422C267.647 113.09 261.073 110.861 255.648 106.802C250.223 102.743 246.23 97.0638 244.245 90.5859Z" fill="#FFC100"/>
<g opacity="0.1">
<path d="M244.245 90.5859H241.707C243.692 97.0638 247.685 102.743 253.11 106.802C258.535 110.861 265.109 113.09 271.884 113.167H274.422C267.647 113.09 261.073 110.861 255.648 106.802C250.223 102.743 246.23 97.0638 244.245 90.5859Z" fill="black"/>
</g>
<path opacity="0.1" d="M245.628 90.1335L245.277 93.4275L245.628 90.1785V90.1335ZM249.066 89.0265L246.519 96.0825L249.075 88.9905L249.066 89.0265ZM250.281 88.6395L248.733 99.6915L250.281 88.5765V88.6395ZM252.459 87.9285L249.237 100.375L252.477 87.8655L252.459 87.9285ZM253.314 87.6585L251.613 103.193C251.629 103.213 251.647 103.231 251.667 103.247L253.368 87.6405L253.314 87.6585ZM255.879 86.8215L252.117 103.714C252.133 103.735 252.151 103.753 252.171 103.769L255.96 86.8035L255.879 86.8215ZM256.509 86.6235L254.979 106.279L255.06 106.343L256.59 86.5965L256.509 86.6235ZM255.438 106.639L255.519 106.702L259.065 85.7955H258.966L255.438 106.639ZM259.794 85.5615L259.515 109.285L259.632 109.348L259.902 85.5255L259.794 85.5615ZM259.866 109.474L259.983 109.537L262.746 84.5985H262.611L259.866 109.474ZM263.349 84.4185H263.214L263.43 111.049L263.574 111.112L263.349 84.4185ZM263.709 111.202L263.853 111.257L266.067 83.5365L265.905 83.5905L263.709 111.202ZM266.544 83.3835L266.382 83.4375L267.282 112.283H267.462L266.544 83.3835ZM267.579 112.363H267.759L269.802 82.2945L269.604 82.3575L267.579 112.363ZM271.62 112.966L270.261 82.1865L270.063 82.2495L271.413 113.002H271.62H271.827L272.898 81.2955L272.673 81.3675L271.62 112.966ZM275.697 112.966L273.393 81.1875L273.168 81.2595L275.499 113.164C275.565 113.174 275.632 113.174 275.697 113.164H275.913L276.66 81.4845L276.453 81.4215L275.697 112.966ZM277.065 81.6105L276.858 81.5475L279.747 112.76H279.927L277.065 81.6105ZM279.342 82.3845L279.927 112.723H280.116L279.522 82.4655L279.342 82.3845ZM279.9 82.5645L279.72 82.5105L284.22 111.679H284.319H284.364L279.9 82.5645ZM284.076 106.01L283.428 97.5045L282.339 83.3925H282.195L283.275 97.5585L283.923 106.073L284.256 110.321L284.4 111.598L284.553 111.545L284.4 110.249L284.076 106.01ZM282.843 83.5635L282.69 83.5095L288.9 109.799C288.942 109.786 288.981 109.768 289.017 109.745L282.843 83.5635ZM286.2 84.6885L289.269 109.564L289.386 109.51L286.317 84.7245L286.2 84.6885ZM286.821 84.8955H286.704L292.5 107.674L292.581 107.611L286.821 84.8955ZM294.372 87.4425L296.46 104.543C296.477 104.52 296.498 104.501 296.523 104.488L294.435 87.4875L294.372 87.4425ZM295.101 87.6945H295.038L299.439 101.266H299.484L295.101 87.6945ZM290.142 86.0115L293.049 107.287L293.139 107.234L290.223 86.0475L290.142 86.0115ZM292.986 93.9045L291.024 86.9925L290.808 86.2455H290.727L290.952 87.0465L292.914 93.9675L296.1 104.894H296.154L292.986 93.9045ZM297.144 88.3785L299.817 100.799V100.753L297.189 88.3785H297.144ZM297.783 88.5945H297.738L301.5 98.3415L297.783 88.5945ZM299.754 89.2515L301.86 97.6845L299.754 89.2965V89.2515ZM302.814 90.2865L303.957 93.4275L302.814 90.3135V90.2865ZM304.614 90.9075C304.676 90.9817 304.733 91.0599 304.785 91.1415L304.614 90.9075Z" fill="black"/>
<path d="M274.844 48.3912C257.231 48.2832 242.858 62.6832 242.75 80.5662C242.695 83.9646 243.2 87.3488 244.244 90.5832L274.637 80.7732L274.844 48.3912Z" fill="#455A64"/>
<path d="M274.67 74.0527V74.2957L246.599 65.3407L246.707 65.1337L274.67 74.0527ZM246.419 65.7007L274.652 77.8057V77.5807L246.518 65.4937C246.48 65.5598 246.446 65.629 246.419 65.7007ZM249.02 61.4977C248.975 61.5607 248.921 61.6237 248.885 61.6867L274.697 70.7407V70.5247L249.02 61.4977ZM248.633 62.0377L274.679 73.5127V73.2517L248.768 61.8397C248.723 61.8937 248.678 61.9657 248.633 62.0287V62.0377ZM255.221 55.0987L255.086 55.2067L274.742 62.9017V62.7577L255.221 55.0987ZM254.528 55.6567L274.724 65.7007V65.5207L254.699 55.5307L254.528 55.6567ZM251.999 58.0147C251.945 58.0597 251.9 58.1137 251.855 58.1587L274.76 66.5377V66.3487L251.999 58.0147ZM251.378 58.6627L274.778 69.9397V69.7147L251.477 58.5007L251.378 58.6627ZM264.878 49.9687H264.761L274.868 54.9637V54.9007L264.878 49.9687ZM263.456 50.4637L274.85 57.4477V57.3307L263.501 50.4007L263.456 50.4637ZM259.334 52.3987L259.199 52.4707L274.841 58.9597V58.8337L259.334 52.3987ZM258.326 52.9927L274.823 61.8307V61.6867L258.452 52.9117L258.326 52.9927ZM270.287 48.6997H270.188L274.895 51.2017V51.1477L270.287 48.6997ZM268.163 49.0867L274.877 53.6857V53.5957L268.253 49.0957C268.201 49.0797 268.145 49.0766 268.091 49.0867H268.163ZM273.41 48.4297H273.329L274.904 49.5907V49.5007L273.41 48.4297ZM242.864 83.7547L255.599 86.9317L255.752 86.8777L242.855 83.7007C242.857 83.7189 242.86 83.737 242.864 83.7547ZM242.81 83.0797C242.81 83.0797 242.81 83.1427 242.81 83.1787L260.036 85.5007L260.279 85.4287L242.81 83.0797ZM243.512 87.9127L248.462 89.2267H248.579L243.494 87.8857C243.494 87.8857 243.503 87.8857 243.512 87.9127ZM243.431 87.5347C243.426 87.5584 243.426 87.583 243.431 87.6067L250.991 88.3987L251.171 88.3447L243.431 87.5347ZM242.774 79.3897L262.637 84.6457L262.799 84.6007L242.738 79.2817L242.774 79.3897ZM242.774 78.8497C242.774 78.8497 242.774 78.9307 242.774 78.9847L268.325 82.8007L268.631 82.7017L242.774 78.8497ZM248.399 75.4657L244.151 74.1337L243.431 73.9087C243.426 73.9596 243.426 74.0108 243.431 74.0617L244.133 74.2777L248.399 75.6007L256.895 78.3007L269.774 82.3597L270.008 82.2787L256.94 78.1567L248.399 75.4657ZM243.476 73.6657C243.476 73.6657 243.476 73.7647 243.476 73.8187L273.995 81.0007L274.31 80.8927L243.476 73.6657ZM244.646 69.6247L274.301 80.8477L274.571 80.7667L244.745 69.4627C244.72 69.5212 244.699 69.5813 244.682 69.6427L244.646 69.6247ZM244.817 69.1747C244.788 69.2324 244.764 69.2926 244.745 69.3547L274.643 78.3007V78.0847L244.817 69.1747Z" fill="#37474F"/>
<path d="M274.843 48.3914H272.305C254.701 48.2654 240.301 62.6654 240.211 80.5484C240.156 83.9468 240.66 87.3312 241.705 90.5654H244.243C243.199 87.331 242.694 83.9468 242.749 80.5484C242.857 62.6834 257.23 48.2834 274.843 48.3914Z" fill="#37474F"/>
<path d="M357.197 145.462L363.992 139.344L339.922 112.611L333.126 118.729L357.197 145.462Z" fill="#C7C7C7"/>
<path d="M376.02 169.851L386.298 160.599L361.359 132.906L351.09 142.158L376.02 169.851Z" fill="#263238"/>
<path d="M340.012 66.7848C344.623 73.6406 346.714 81.8835 345.928 90.1083C345.141 98.3331 341.527 106.031 335.7 111.889C329.874 117.747 322.196 121.403 313.975 122.233C305.755 123.064 297.501 121.017 290.62 116.443C283.74 111.869 278.659 105.05 276.243 97.1482C273.828 89.2468 274.228 80.7523 277.375 73.1127C280.521 65.4732 286.22 59.1615 293.5 55.2537C300.78 51.3459 309.19 50.0839 317.296 51.6828C326.569 53.5108 334.738 58.9419 340.012 66.7848Z" fill="white"/>
<path d="M302.336 127.514C294.25 125.92 286.818 121.963 280.98 116.145C275.143 110.327 271.162 102.908 269.541 94.827C267.919 86.7461 268.731 78.3659 271.873 70.7464C275.015 63.1268 280.346 56.61 287.191 52.0202C294.037 47.4305 302.09 44.9738 310.332 44.961C318.574 44.9482 326.634 47.3798 333.494 51.9482C340.354 56.5167 345.705 63.0168 348.871 70.6266C352.036 78.2364 352.874 86.614 351.278 94.6999C349.127 105.535 342.767 115.075 333.592 121.226C324.416 127.378 313.176 129.639 302.336 127.514ZM303.236 122.834C310.396 124.248 317.816 123.508 324.555 120.705C331.294 117.903 337.051 113.165 341.098 107.09C345.144 101.016 347.298 93.8778 347.288 86.579C347.277 79.2801 345.102 72.1484 341.037 66.0859C336.973 60.0233 331.202 55.3023 324.454 52.5199C317.706 49.7375 310.285 49.0187 303.129 50.4545C295.973 51.8903 289.403 55.4161 284.251 60.5861C279.098 65.756 275.595 72.3377 274.184 79.4989C273.248 84.2562 273.259 89.1513 274.216 93.9044C275.173 98.6576 277.057 103.175 279.761 107.2C282.465 111.225 285.935 114.677 289.974 117.359C294.013 120.042 298.541 121.902 303.299 122.834H303.236Z" fill="#37474F"/>
<path d="M347.399 77.5392C345.938 71.5837 343.062 66.0687 339.014 61.4626C334.966 56.8565 329.866 53.2953 324.148 51.0814C318.43 48.8675 312.261 48.0664 306.167 48.746C300.073 49.4256 294.233 51.566 289.142 54.9852C284.981 57.7695 281.41 61.3471 278.633 65.5131C275.856 69.6792 273.928 74.3519 272.959 79.264C271.991 84.176 272 89.2309 272.987 94.1394C273.974 99.0478 275.919 103.713 278.711 107.869C283.702 115.313 291.154 120.76 299.761 123.256C308.368 125.751 317.579 125.135 325.777 121.515C333.975 117.895 340.635 111.503 344.59 103.461C348.544 95.4193 349.538 86.2416 347.399 77.5392ZM345.338 93.5412C343.753 101.642 339.408 108.943 333.043 114.199C326.678 119.455 318.688 122.342 310.433 122.366C302.178 122.391 294.171 119.552 287.774 114.334C281.378 109.116 276.989 101.842 275.356 93.7505C273.722 85.6591 274.945 77.2516 278.816 69.9608C282.687 62.67 288.966 56.9472 296.584 53.7675C304.202 50.5878 312.686 50.1481 320.592 52.5233C328.497 54.8985 335.335 59.9416 339.938 66.7932C345.222 74.637 347.177 84.2571 345.374 93.5412H345.338ZM347.399 77.5392C345.938 71.5837 343.062 66.0687 339.014 61.4626C334.966 56.8565 329.866 53.2953 324.148 51.0814C318.43 48.8675 312.261 48.0664 306.167 48.746C300.073 49.4256 294.233 51.566 289.142 54.9852C284.981 57.7695 281.41 61.3471 278.633 65.5131C275.856 69.6792 273.928 74.3519 272.959 79.264C271.991 84.176 272 89.2309 272.987 94.1394C273.974 99.0478 275.919 103.713 278.711 107.869C283.702 115.313 291.154 120.76 299.761 123.256C308.368 125.751 317.579 125.135 325.777 121.515C333.975 117.895 340.635 111.503 344.59 103.461C348.544 95.4193 349.538 86.2416 347.399 77.5392ZM345.338 93.5412C343.753 101.642 339.408 108.943 333.043 114.199C326.678 119.455 318.688 122.342 310.433 122.366C302.178 122.391 294.171 119.552 287.774 114.334C281.378 109.116 276.989 101.842 275.356 93.7505C273.722 85.6591 274.945 77.2516 278.816 69.9608C282.687 62.67 288.966 56.9472 296.584 53.7675C304.202 50.5878 312.686 50.1481 320.592 52.5233C328.497 54.8985 335.335 59.9416 339.938 66.7932C345.222 74.637 347.177 84.2571 345.374 93.5412H345.338ZM352.043 76.3962C349.529 66.1212 343.309 57.1365 334.577 51.1654C325.845 45.1942 315.216 42.6572 304.729 44.0408C294.241 45.4245 284.634 50.6314 277.75 58.6629C270.865 66.6943 267.189 76.9848 267.425 87.5604C267.661 98.136 271.793 108.252 279.029 115.968C286.265 123.684 296.096 128.457 306.634 129.371C317.173 130.286 327.678 127.277 336.135 120.922C344.591 114.567 350.404 105.313 352.457 94.9362C353.683 88.8025 353.554 82.4749 352.079 76.3962H352.043ZM350.099 94.5042C348.174 104.28 342.707 113.002 334.746 118.995C326.786 124.988 316.893 127.831 306.966 126.979C297.038 126.126 287.775 121.639 280.953 114.376C274.13 107.114 270.229 97.5889 269.998 87.6275C269.767 77.6661 273.222 67.9701 279.701 60.3994C286.179 52.8287 295.224 47.9164 305.101 46.6047C314.979 45.293 324.993 47.6744 333.222 53.2919C341.452 58.9095 347.318 67.3678 349.694 77.0442C351.108 82.7641 351.247 88.725 350.099 94.5042ZM342.098 65.4612C339.311 61.3039 335.732 57.7363 331.565 54.9622C327.399 52.1881 322.727 50.2617 317.817 49.2931C312.906 48.3245 307.852 48.3326 302.945 49.317C298.037 50.3013 293.372 52.2427 289.214 55.0302C285.057 57.8177 281.489 61.3968 278.715 65.563C275.941 69.7293 274.015 74.4011 273.046 79.3119C272.078 84.2226 272.086 89.276 273.07 94.1836C274.054 99.0912 275.996 103.757 278.783 107.914C281.571 112.072 285.15 115.639 289.316 118.413C293.482 121.187 298.154 123.114 303.065 124.082C307.976 125.051 313.029 125.043 317.937 124.058C322.844 123.074 327.51 121.133 331.667 118.345C335.825 115.558 339.392 111.979 342.166 107.812C344.94 103.646 346.867 98.9743 347.835 94.0635C348.804 89.1528 348.796 84.0994 347.812 79.1918C346.827 74.2842 344.886 69.6185 342.098 65.4612ZM345.41 93.5862C343.825 101.687 339.48 108.988 333.115 114.244C326.75 119.5 318.76 122.387 310.505 122.411C302.25 122.436 294.243 119.598 287.846 114.379C281.45 109.161 277.061 101.887 275.428 93.7955C273.794 85.7041 275.017 77.2966 278.888 70.0058C282.759 62.715 289.038 56.9922 296.656 53.8125C304.274 50.6328 312.758 50.1931 320.664 52.5683C328.569 54.9435 335.407 59.9866 340.01 66.8382C345.257 74.6804 347.186 84.2811 345.374 93.5412L345.41 93.5862Z" fill="#37474F"/>
<path d="M323.892 53.6545V73.9495H322.992V53.3125C323.325 53.4205 323.604 53.5375 323.892 53.6545Z" fill="#263238"/>
<g opacity="0.3">
<path d="M303.497 121.61C295.396 120.025 288.095 115.68 282.839 109.315C277.583 102.95 274.697 94.9592 274.672 86.7046C274.647 78.45 277.486 70.4423 282.704 64.046C287.922 57.6498 295.196 53.261 303.288 51.6275C311.379 49.9939 319.787 51.2168 327.078 55.0877C334.368 58.9586 340.091 65.2379 343.271 72.8556C346.451 80.4733 346.89 88.9578 344.515 96.8634C342.14 104.769 337.097 111.606 330.245 116.21C322.396 121.482 312.776 123.424 303.497 121.61Z" fill="white"/>
</g>
<path d="M285.084 101.709C283.06 98.4696 281.735 94.843 281.196 91.0617C280.905 89.1414 280.802 87.1971 280.89 85.2567C281.001 83.2913 281.303 81.3412 281.79 79.4337C282.798 75.6014 284.594 72.0213 287.064 68.9217C289.496 65.8763 292.471 63.3071 295.839 61.3438C293.158 63.9877 290.746 66.8909 288.639 70.0107C287.632 71.5521 286.751 73.1712 286.002 74.8528C285.238 76.504 284.635 78.2249 284.202 79.9918C283.301 83.5167 282.952 87.1599 283.167 90.7917C283.366 94.4944 284.009 98.1597 285.084 101.709Z" fill="white"/>
<path d="M332.586 93.1066H332.478H332.388L330.453 92.4316H330.336L329.238 92.0446L329.103 91.9996L327.357 91.3876L327.213 91.3336L326.142 90.9646L325.989 90.9106L323.973 90.2086L323.802 90.1456L322.596 89.7316L322.407 89.6686L320.904 89.1376L320.697 89.0746L319.374 88.6066L319.158 88.5346L317.358 87.9046L317.169 87.8326L315.774 87.3466L315.594 87.2836L314.262 86.8246L314.1 86.7706L312.579 86.2396L312.426 86.1856L311.112 85.7266H310.977L309.123 85.0786H308.988L307.035 84.3946H306.927L305.433 83.8726H305.334L303.399 83.1976H303.318L301.68 82.6306H301.608L299.898 82.0366L301.527 81.5146H301.599L303.48 80.9116H303.561L305.172 80.3896H305.262L307.323 79.7326H307.431L308.808 79.2916H308.934L311.967 78.3196L312.111 78.2656L312.867 78.0226L313.029 77.9776L315.963 76.5016L316.143 76.4476L316.8 76.2406L316.989 76.1776L320.031 75.2056L320.256 75.1426L320.94 74.9176L321.165 74.8456L324.351 73.8016L324.585 73.7296L324.954 73.6126L325.179 73.5406L328.689 72.4066L328.896 72.3436L329.22 72.2446L329.409 72.1906L332.901 71.1016C332.901 71.2006 332.964 71.2996 332.991 71.3986C333.02 71.4783 333.044 71.5594 333.063 71.6416V71.7136L333.144 72.0016C333.843 74.4866 334.274 77.039 334.431 79.6156C334.431 79.7146 334.431 79.8136 334.431 79.9216C334.499 81.0996 334.499 82.2805 334.431 83.4586C334.431 83.6836 334.431 83.9086 334.386 84.1426C334.154 87.1928 333.55 90.2031 332.586 93.1066Z" fill="#C7C7C7"/>
<path d="M332.386 93.0356H332.485L334.42 84.1346C334.42 83.9006 334.42 83.6846 334.465 83.4506L332.386 93.0356ZM334.456 79.6346L330.298 92.3156L330.415 92.3606L334.438 79.9406C334.465 79.8326 334.465 79.7336 334.456 79.6346ZM333.088 71.7146L329.101 91.8926L329.236 91.9376L333.178 72.0026C333.151 71.9126 333.115 71.8226 333.088 71.7146ZM332.989 71.3906L327.22 91.1906H327.292H327.355L333.061 71.5436C333.042 71.4918 333.021 71.4408 332.998 71.3906H332.989ZM329.218 72.2906L325.987 90.8216H326.041H326.122L329.398 72.2096L329.218 72.2906ZM328.687 72.4616L323.8 90.0026L323.971 90.0656L328.894 72.3446L328.687 72.4616ZM325.087 73.6136L324.925 73.6676L322.405 89.5526L322.594 89.6246L325.177 73.5686L325.087 73.6136ZM324.322 73.8566L320.668 88.9856L320.875 89.0576L324.556 73.7576L324.322 73.8566ZM320.911 74.9546L319.111 88.4546L319.318 88.5266L321.118 74.9006L320.911 74.9546ZM320.119 75.2066H320.011L317.131 87.6986L317.32 87.7706L320.236 75.1706L320.119 75.2066ZM316.798 76.2686L315.574 87.1766L315.772 87.2306L316.996 76.2056L316.798 76.2686ZM315.97 76.5386L314.098 86.6546L314.251 86.7086L316.141 76.5026L315.97 76.5386ZM312.973 77.5016H312.856L312.415 86.0426H312.577L313.018 77.4116L312.973 77.5016ZM311.947 77.8346L311.461 81.7406L310.975 85.5746H311.101L311.596 81.7226L312.1 77.7446L311.947 77.8346ZM308.932 78.8066H308.797L308.977 84.8456H309.112L308.932 78.8066ZM307.402 79.2926H307.312L306.898 84.1616H307.006L307.402 79.2476V79.2926ZM305.26 79.9856H305.161L305.323 83.5856H305.422L305.26 79.9856ZM303.46 80.5616L303.307 82.9016H303.388L303.55 80.5076L303.46 80.5616ZM301.588 81.1646H301.516L301.606 82.2806H301.669L301.588 81.1646Z" fill="#DBDBDB"/>
<path d="M332.583 93.1039L329.811 92.8069L297.105 81.4219L299.877 81.7189L332.583 93.1039Z" fill="#A6A6A6"/>
<path d="M299.877 81.7151L297.105 81.4181L330.126 70.7891L332.898 71.0861L299.877 81.7151Z" fill="#A6A6A6"/>
<path d="M314.802 70.9411L310.302 72.3811L310.086 72.4531L307.62 73.2541L307.323 73.3441L303.039 74.7031L302.778 74.7841L299.448 75.8551L299.106 75.9631L296.541 76.7821L296.217 76.8811L291.258 78.4831L290.835 78.6271L289.44 79.0771L289.062 79.1851L284.634 80.6161L284.175 80.7691L283.644 80.9491L283.23 81.0751L281.43 81.6691V78.9691V78.1861V74.5861V73.4521V70.6801V69.5641V66.0631V65.8021C281.844 65.2171 282.285 64.6411 282.744 64.0831C284.158 62.3812 285.728 60.8144 287.433 59.4031C287.559 59.2881 287.691 59.1799 287.829 59.0791C289.875 57.4035 292.103 55.9635 294.471 54.7861L294.903 54.5611C295.245 54.3901 295.605 54.2281 295.947 54.0841L296.316 53.9131C297.9 53.2215 299.533 52.6499 301.203 52.2031L301.932 52.7161C302.003 52.7598 302.069 52.8111 302.13 52.8691L302.355 53.0311L302.562 53.1931C303.591 53.9746 304.574 54.816 305.505 55.7131L305.586 55.8031C305.62 55.8316 305.651 55.865 305.676 55.9021C305.739 55.9521 305.797 56.0095 305.847 56.0731H305.892H305.937L306.018 56.1721C306.94 57.0875 307.806 58.0583 308.61 59.0791C308.662 59.1308 308.705 59.1918 308.736 59.2591C308.845 59.3793 308.947 59.5055 309.042 59.6371C309.087 59.6919 309.129 59.749 309.168 59.8081C309.923 60.8311 310.617 61.898 311.247 63.0031C311.282 63.051 311.312 63.1023 311.337 63.1561C311.427 63.2911 311.499 63.4351 311.571 63.5701L311.625 63.6421V63.7141C312.278 64.8613 312.864 66.0453 313.38 67.2601C313.406 67.3023 313.427 67.3477 313.443 67.3951C313.533 67.6021 313.623 67.8181 313.704 68.0251L313.758 68.1511C314.172 69.0331 314.496 69.9781 314.802 70.9411Z" fill="#37474F"/>
<path d="M313.741 67.9851L310.141 72.4851L310.357 72.4131L313.831 68.1471L313.741 67.9851ZM313.426 67.2201L307.351 73.3401L307.648 73.2501L313.489 67.3551L313.426 67.2201ZM311.626 63.6201L311.581 63.5391L302.779 74.8251L303.049 74.7351L311.671 63.6831L311.626 63.6201ZM311.248 62.9811L299.089 76.0131L299.431 75.8961L311.338 63.1161C311.31 63.0778 311.28 63.0417 311.248 63.0081V62.9811ZM309.043 59.7051L296.2 76.9401L296.524 76.8411L309.124 59.8671C309.099 59.8089 309.072 59.7519 309.043 59.6961V59.7051ZM308.611 59.1471L290.818 78.6861L291.241 78.5421L308.701 59.3181C308.675 59.2558 308.645 59.1956 308.611 59.1381V59.1471ZM305.911 56.1411H305.866L289.045 79.2081L289.423 79.0911L306.001 56.2311L305.911 56.1411ZM305.56 55.7991L305.479 55.7091L284.122 80.8371L284.572 80.6931L305.632 55.8981L305.56 55.7991ZM302.401 53.0181L283.177 81.1431L283.591 81.0171L302.563 53.1801L302.401 53.0181ZM301.978 52.7031L281.395 77.4081V77.7771L302.095 52.8921C302.048 52.8235 301.993 52.7601 301.933 52.7031H301.978ZM295.993 54.0531L281.404 76.2921V76.7151L296.317 53.8821L295.993 54.0531ZM294.517 54.7551L281.476 71.8551V72.1791L294.976 54.5211L294.517 54.7551ZM287.434 59.4081L281.449 69.8481V70.2081L287.839 59.0211C287.696 59.142 287.561 59.2713 287.434 59.4081ZM281.476 65.8341V66.0591L282.79 64.1151C282.331 64.6371 281.89 65.2131 281.476 65.7981V65.8341Z" fill="#263238"/>
<path d="M314.658 92.9587C314.648 93.0209 314.63 93.0815 314.604 93.1387C314.334 94.0387 314.019 94.8127 313.704 95.6317C313.542 96.0187 313.38 96.4057 313.209 96.7837C312.674 97.9714 312.073 99.1282 311.409 100.249C311.274 100.483 311.139 100.717 310.994 100.942C310.427 101.842 309.824 102.742 309.194 103.642C309.086 103.795 308.979 103.939 308.862 104.074V104.128C307.874 105.38 306.801 106.562 305.648 107.665L305.577 107.719L305.19 108.079C305.19 108.079 305.145 108.124 305.118 108.133C304.11 109.056 303.042 109.913 301.923 110.698H301.869C301.869 110.698 301.868 110.698 301.823 110.698C301.661 110.824 301.491 110.941 301.32 111.058L301.221 111.121C300.122 111.866 298.977 112.539 297.792 113.137C297.752 113.163 297.71 113.184 297.666 113.2C297.574 113.257 297.478 113.305 297.378 113.344H297.315C295.744 114.118 294.12 114.78 292.455 115.324L292.284 115.378H292.23H292.122C291.627 115.531 291.123 115.684 290.637 115.81C289.571 115.098 288.549 114.323 287.577 113.488L287.379 113.317C287.29 113.25 287.206 113.177 287.127 113.101L286.902 112.903C285.572 111.718 284.335 110.434 283.203 109.06L282.969 108.772L282.123 107.692C282.033 107.557 281.943 107.44 281.853 107.314C281.574 106.936 281.295 106.549 281.043 106.153C280.3 105.048 279.618 103.903 279 102.724C278.928 102.58 278.847 102.436 278.775 102.274C278.309 101.374 277.894 100.448 277.533 99.5017C277.434 99.2857 277.353 99.0697 277.272 98.8447C276.549 96.9408 275.995 94.9773 275.616 92.9767C275.562 92.6887 275.517 92.4097 275.472 92.1307C274.999 89.2762 274.881 86.3741 275.121 83.4907L276.201 83.1397H276.282L276.507 83.0677H276.579L276.795 83.0047L279.441 82.1047L279.702 82.0237L279.998 81.9247L280.242 81.8527L280.908 81.6367L281.259 81.5197L281.556 81.4297L283.788 82.1767L284.013 82.2577L284.238 82.3387L286.74 83.1847L286.938 83.2477L287.163 83.3107L287.361 83.3827L289.89 84.2827L290.043 84.3367L290.43 84.4627L290.601 84.5167L294.327 85.7857L294.462 85.8307L294.885 85.9657H295.011L298.665 87.1897H298.755L299.304 87.3787H299.394L303.12 89.1067H303.192L303.858 89.3317H303.921L306.207 90.1057L306.81 90.3127H306.864L309.023 91.0417L310.158 91.4197L312.318 92.1487L314.325 92.8237L314.658 92.9587Z" fill="#FFC100"/>
<path opacity="0.1" d="M314.422 92.8861C314.491 92.9664 314.551 93.0539 314.602 93.1471C314.546 93.0571 314.486 92.9699 314.422 92.8861ZM306.871 90.3391H306.817L310.921 101.076L306.871 90.3391ZM306.214 90.1141H306.169L309.067 103.776L306.214 90.1141ZM301.597 96.1801L299.437 88.5751L299.203 87.7471H299.113L299.356 88.6471L301.525 96.2521L304.963 108.321C304.963 108.321 305.008 108.321 305.035 108.267L301.597 96.1801ZM298.555 87.5311H298.465L301.66 110.931C301.66 110.931 301.66 110.931 301.705 110.931H301.759L298.555 87.5311ZM303.955 89.3311H303.892L308.734 104.271V104.217L303.955 89.3311ZM303.226 89.0791H303.154L305.449 107.862L305.521 107.808L303.226 89.0791ZM294.847 86.2621H294.721L301.093 111.363L301.192 111.3L294.847 86.2621ZM294.298 86.0821L294.163 86.0371L297.538 113.397C297.582 113.382 297.624 113.36 297.664 113.334L294.298 86.0821ZM290.437 84.7681L290.266 84.7141L297.124 113.604H297.187L290.437 84.7681ZM292.237 115.593L292.12 114.162L291.76 109.473L291.04 100.113L289.843 84.6061L289.69 84.5521L290.869 100.14L291.58 109.5L291.949 114.189L292.057 115.665L292.237 115.593ZM287.161 83.7061L286.963 83.6341L291.877 115.737H291.985H292.039L287.161 83.7061ZM286.738 83.5711L286.54 83.5081L287.134 113.676L287.332 113.847L286.738 83.5711ZM284.038 82.6711L283.813 82.5901L286.657 113.271L286.882 113.469L284.038 82.6711ZM279.997 82.2031L279.754 82.2751L281.608 107.682C281.698 107.808 281.788 107.925 281.878 108.06L279.997 82.2031ZM283.363 82.4461L282.724 109.14L282.958 109.428L283.588 82.5091L283.363 82.4461ZM276.019 83.4811H275.956L275.83 83.5351L275.227 92.4721C275.272 92.7511 275.317 93.0301 275.371 93.3181L276.037 83.4181L276.019 83.4811ZM276.55 83.3191L276.334 83.3821L277.027 99.2041C277.108 99.4291 277.189 99.6451 277.288 99.8611L276.55 83.3191ZM279.196 82.4191L278.53 102.606C278.602 102.768 278.683 102.912 278.755 103.056L279.457 82.3561L279.196 82.4191ZM276.019 83.4451H275.956L275.83 83.4991L275.227 92.4361C275.272 92.7151 275.317 92.9941 275.371 93.2821L276.037 83.3821L276.019 83.4451ZM276.019 83.4451H275.956L275.83 83.4991L275.227 92.4361C275.272 92.7151 275.317 92.9941 275.371 93.2821L276.037 83.3821L276.019 83.4451Z" fill="black"/>
<path d="M281.431 65.8587V65.8047V66.0657V69.5667V70.6827V73.4547V74.6067V78.2067V78.9897V81.6897L281.134 81.7797L280.783 81.8967L280.117 82.1127L279.874 82.1847L279.577 82.2837L279.316 82.3647L276.382 83.2647L276.157 83.3367H276.076L274.996 83.6877C274.996 83.4537 274.996 83.2197 275.059 82.9857C275.056 82.9347 275.056 82.8836 275.059 82.8327C275.131 82.0677 275.23 81.3207 275.365 80.5557V80.3757C275.41 80.1147 275.455 79.8627 275.509 79.6017C275.509 79.5387 275.509 79.4757 275.554 79.4037C275.698 78.6837 275.86 77.9727 276.058 77.2707C276.068 77.1939 276.086 77.1184 276.112 77.0457C276.193 76.7487 276.283 76.4517 276.373 76.1457C276.373 76.0827 276.373 76.0107 276.436 75.9297C276.724 75.0297 277.048 74.0757 277.417 73.1757C277.417 73.1037 277.471 73.0227 277.498 72.9417C277.633 72.6357 277.759 72.3297 277.894 72.0417C277.922 71.9575 277.959 71.8762 278.002 71.7987C278.326 71.0877 278.659 70.3857 279.037 69.7017C279.064 69.6283 279.1 69.5587 279.145 69.4947C279.271 69.2427 279.415 68.9907 279.55 68.7477C279.584 68.6844 279.623 68.6242 279.667 68.5677C280.189 67.6677 280.765 66.7677 281.377 65.8677C281.395 65.8641 281.413 65.8611 281.431 65.8587Z" fill="#455A64"/>
<path d="M276.048 77.1634C276.021 77.2361 276.003 77.3116 275.994 77.3884L281.394 78.9904V78.7474L276.048 77.1634ZM275.49 79.5214C275.49 79.5934 275.49 79.6564 275.445 79.7194L281.034 81.8344L281.331 81.7444L275.49 79.5214ZM275.301 80.5114V80.6914L280.701 81.9604L281.052 81.8434L275.301 80.5114ZM274.968 82.9684C274.964 83.0193 274.964 83.0704 274.968 83.1214L276.021 83.4634L276.246 83.3824L274.968 82.9684ZM279.603 68.6854C279.558 68.7419 279.519 68.8021 279.486 68.8654L281.439 69.7654V69.5224L279.603 68.6854ZM281.403 65.8594C281.358 65.906 281.319 65.9573 281.286 66.0124L281.439 66.0664V65.8684L281.403 65.8594ZM277.911 71.9164C277.867 71.9939 277.831 72.0752 277.803 72.1594L281.403 73.7434V73.4554L277.911 71.9164ZM279.054 69.6124C279.009 69.6764 278.972 69.746 278.946 69.8194L281.403 70.7194V70.4764L279.054 69.6124ZM276.354 76.0564C276.354 76.1374 276.309 76.2094 276.291 76.2724L281.358 78.4594V78.2074L276.354 76.0564ZM277.416 73.0684C277.416 73.1494 277.353 73.2304 277.335 73.3024L281.385 74.6074V74.3374L277.416 73.0684Z" fill="#37474F"/>
</svg>
