<svg width="33" height="33" viewBox="0 0 33 33" fill="none" xmlns="http://www.w3.org/2000/svg">
<path d="M27.748 6.948L29.3 8.5L32.5 0.5L24.5 3.7L26.052 5.252L23.14 8.164C14.692 0.756 2.58 3.604 2.052 3.7L0.5 4.116L1.3 7.22L2.564 6.9L13.492 17.812L8.404 22.9H5.3L0.5 27.7L3.7 29.3L5.3 32.5L10.1 27.7V24.596L15.188 19.508L26.1 30.436L25.796 31.7L28.884 32.5L29.3 30.948C29.396 30.42 32.244 18.308 24.836 9.86L27.748 6.948ZM4.5 6.548C7.78 6.1 15.348 5.748 20.868 10.436L14.612 16.692L4.5 6.548ZM26.452 28.5L16.308 18.388L22.564 12.132C27.252 17.652 26.9 25.22 26.452 28.5Z" fill="#176B87" fill-opacity="0.83"/>
</svg>

