<svg width="36" height="35" viewBox="0 0 36 35" fill="none" xmlns="http://www.w3.org/2000/svg">
<g clip-path="url(#clip0_820_467)">
<path d="M18.4998 2.1875C15.6634 2.1875 12.9432 3.31423 10.9376 5.31983C8.93204 7.32543 7.8053 10.0456 7.8053 12.8819C7.78836 14.4363 8.1206 15.9746 8.77753 17.3833C9.103 17.9829 9.46671 18.561 9.86642 19.1139C10.6452 20.1579 11.2979 21.2903 11.8109 22.4875C12.1638 23.7547 12.3565 25.0612 12.3845 26.3764H14.3289C14.2991 24.8328 14.067 23.2999 13.6386 21.8167C13.0775 20.4629 12.3526 19.183 11.4803 18.0056C11.1275 17.5258 10.8028 17.0258 10.5081 16.5083C9.98572 15.3651 9.72657 14.1192 9.74975 12.8625C9.74975 10.5328 10.6752 8.29858 12.3225 6.65125C13.9699 5.00393 16.2041 4.07847 18.5338 4.07847C20.8634 4.07847 23.0977 5.00393 24.745 6.65125C26.3923 8.29858 27.3178 10.5328 27.3178 12.8625C27.3196 14.1317 27.0337 15.3849 26.4817 16.5278C26.1869 17.0453 25.8623 17.5452 25.5095 18.025C24.6419 19.1969 23.9204 20.4702 23.3609 21.8167C22.9308 23.3062 22.6987 24.8458 22.6706 26.3958H24.615C24.643 25.0807 24.8357 23.7742 25.1886 22.5069C25.7016 21.3097 26.3543 20.1773 27.1331 19.1333C27.5343 18.568 27.8981 17.9769 28.222 17.3639C28.8789 15.9551 29.2111 14.4168 29.1942 12.8625C29.189 10.0295 28.06 7.31435 26.055 5.31295C24.05 3.31156 21.3327 2.1875 18.4998 2.1875Z" fill="#176B87" fill-opacity="0.83"/>
<path d="M19.1129 15.0792C18.9671 14.9337 18.7696 14.8521 18.5636 14.8521C18.3577 14.8521 18.1601 14.9337 18.0143 15.0792L15.0977 17.9959L17.8782 21.0389V26.425H19.4727V20.4167L17.2949 18.0347L19.1324 16.1972C19.2061 16.1234 19.2642 16.0355 19.3033 15.9388C19.3423 15.842 19.3615 15.7384 19.3597 15.6341C19.3579 15.5298 19.3351 15.4269 19.2927 15.3316C19.2503 15.2362 19.1892 15.1504 19.1129 15.0792Z" fill="#176B87" fill-opacity="0.83"/>
<path d="M24.1975 28.3403H12.7739C12.5676 28.3403 12.3698 28.4223 12.2239 28.5681C12.078 28.714 11.9961 28.9118 11.9961 29.1181C11.9961 29.3244 12.078 29.5222 12.2239 29.6681C12.3698 29.8139 12.5676 29.8959 12.7739 29.8959H24.1975C24.4038 29.8959 24.6016 29.8139 24.7475 29.6681C24.8933 29.5222 24.9753 29.3244 24.9753 29.1181C24.9753 28.9118 24.8933 28.714 24.7475 28.5681C24.6016 28.4223 24.4038 28.3403 24.1975 28.3403Z" fill="#176B87" fill-opacity="0.83"/>
<path d="M22.3886 31.2568H14.6108C14.4045 31.2568 14.2067 31.3388 14.0608 31.4846C13.915 31.6305 13.833 31.8283 13.833 32.0346C13.833 32.2409 13.915 32.4387 14.0608 32.5846C14.2067 32.7304 14.4045 32.8124 14.6108 32.8124H22.3886C22.5948 32.8124 22.7927 32.7304 22.9385 32.5846C23.0844 32.4387 23.1663 32.2409 23.1663 32.0346C23.1663 31.8283 23.0844 31.6305 22.9385 31.4846C22.7927 31.3388 22.5948 31.2568 22.3886 31.2568Z" fill="#176B87" fill-opacity="0.83"/>
<path d="M17.839 10.5875L15.1848 13.2416C15.0507 13.3896 14.9787 13.5834 14.9836 13.783C14.9885 13.9826 15.07 14.1727 15.2112 14.3139C15.3524 14.455 15.5424 14.5365 15.742 14.5414C15.9416 14.5463 16.1355 14.4743 16.2834 14.3403L18.9376 11.6666C19.0157 11.5959 19.0786 11.51 19.1224 11.4142C19.1663 11.3185 19.1903 11.2148 19.1929 11.1094C19.1955 11.0041 19.1766 10.8993 19.1375 10.8015C19.0984 10.7037 19.0398 10.6148 18.9653 10.5403C18.8908 10.4658 18.8019 10.4072 18.7041 10.3681C18.6063 10.329 18.5015 10.3101 18.3962 10.3127C18.2909 10.3153 18.1872 10.3393 18.0914 10.3832C17.9956 10.4271 17.9097 10.49 17.839 10.568V10.5875Z" fill="#176B87" fill-opacity="0.83"/>
</g>
<defs>
<clipPath id="clip0_820_467">
<rect width="35" height="35" fill="white" transform="translate(0.5)"/>
</clipPath>
</defs>
</svg>
