<svg width="36" height="26" viewBox="0 0 36 26" fill="none" xmlns="http://www.w3.org/2000/svg">
<path fill-rule="evenodd" clip-rule="evenodd" d="M6.88488 0.682323C6.45268 0.48806 5.961 0.473428 5.51801 0.641646C5.07502 0.809863 4.71698 1.14715 4.52265 1.57933L0.657663 10.1616C0.463172 10.5934 0.448023 11.0847 0.615544 11.5276C0.783066 11.9706 1.11956 12.3289 1.55109 12.5239L4.21352 13.7229C4.42741 13.8194 4.65822 13.8729 4.89278 13.8803C5.12735 13.8877 5.36106 13.8488 5.58059 13.7658C5.80011 13.6828 6.00114 13.5574 6.1722 13.3968C6.34326 13.2361 6.481 13.0433 6.57754 12.8294L10.4425 4.24533C10.637 3.81357 10.6522 3.32225 10.4846 2.87933C10.3171 2.4364 9.98063 2.07809 9.5491 1.8831L6.88488 0.682323ZM3.71677 11.2749C3.86249 11.3406 4.01973 11.3769 4.1795 11.3818C4.33927 11.3868 4.49845 11.3602 4.64795 11.3036C4.79745 11.247 4.93434 11.1616 5.05081 11.0521C5.16727 10.9426 5.26103 10.8112 5.32674 10.6655C5.39244 10.5198 5.4288 10.3626 5.43374 10.2028C5.43867 10.043 5.41209 9.88385 5.35551 9.73435C5.29893 9.58486 5.21346 9.44796 5.10397 9.3315C4.99449 9.21503 4.86314 9.12127 4.71742 9.05557C4.42312 8.92287 4.08817 8.91252 3.78624 9.02679C3.48431 9.14106 3.24015 9.37059 3.10745 9.66489C2.97476 9.95918 2.96441 10.2941 3.07868 10.5961C3.19295 10.898 3.42248 11.1422 3.71677 11.2749ZM34.3472 12.7579C34.5666 12.6747 34.7675 12.549 34.9383 12.3881C35.1091 12.2271 35.2466 12.0342 35.3429 11.8201C35.4391 11.606 35.4922 11.3751 35.4992 11.1405C35.5062 10.906 35.4669 10.6723 35.3836 10.4529L32.0511 1.65438C31.968 1.4348 31.8424 1.23375 31.6816 1.06272C31.5207 0.89169 31.3277 0.754035 31.1137 0.65762C30.8996 0.561206 30.6686 0.507924 30.434 0.500819C30.1993 0.493713 29.9655 0.532924 29.746 0.616209L27.0175 1.6508C26.7981 1.73408 26.5972 1.85977 26.4263 2.02069C26.2555 2.1816 26.118 2.3746 26.0218 2.58865C25.9256 2.8027 25.8724 3.03362 25.8654 3.2682C25.8585 3.50279 25.8978 3.73646 25.9811 3.95586L29.3154 12.7562C29.4832 13.1992 29.8202 13.5574 30.2521 13.7521C30.684 13.9468 31.1755 13.962 31.6186 13.7943L34.3472 12.7579ZM29.0992 3.02848C28.9497 3.08514 28.8128 3.1707 28.6964 3.28026C28.58 3.38981 28.4863 3.52123 28.4207 3.66699C28.3551 3.81276 28.3188 3.97002 28.314 4.1298C28.3091 4.28959 28.3358 4.44876 28.3925 4.59823C28.4491 4.74771 28.5347 4.88456 28.6442 5.00097C28.7538 5.11738 28.8852 5.21107 29.031 5.2767C29.1767 5.34232 29.334 5.37859 29.4938 5.38343C29.6536 5.38828 29.8127 5.36161 29.9622 5.30494C30.2641 5.19049 30.5082 4.96081 30.6407 4.66642C30.7732 4.37204 30.7834 4.03706 30.6689 3.73518C30.5545 3.4333 30.3248 3.18925 30.0304 3.05672C29.736 2.92419 29.401 2.91403 29.0992 3.02848Z" fill="#176B87" fill-opacity="0.83"/>
<path fill-rule="evenodd" clip-rule="evenodd" d="M26.9674 3.57175H26.9817C27.0987 3.56155 27.2125 3.5284 27.3167 3.4742C27.4208 3.42001 27.5133 3.34583 27.5888 3.2559C27.6643 3.16596 27.7213 3.06204 27.7567 2.95007C27.792 2.83809 27.8049 2.72025 27.7947 2.60327C27.7845 2.4863 27.7514 2.37248 27.6972 2.26831C27.643 2.16415 27.5688 2.07168 27.4789 1.99618C27.3889 1.92069 27.285 1.86364 27.173 1.82831C27.0611 1.79298 26.9432 1.78004 26.8262 1.79025H26.8119L26.7655 1.79561L26.5922 1.81348C25.6874 1.89945 24.7843 2.00192 23.8833 2.12082C22.2858 2.32988 20.3042 2.65152 19.0087 3.08394C18.3779 3.293 17.7132 3.69862 17.0789 4.16321C16.3956 4.67112 15.7429 5.21885 15.1241 5.80355C13.989 6.87463 12.9044 7.998 11.8738 9.17C11.1251 10.017 10.9517 11.3678 11.8309 12.3256C12.4027 12.9439 13.2961 13.7265 14.454 14.0767C15.6637 14.4395 17.0575 14.2983 18.4816 13.2405L20.2667 12.0879C20.2772 12.0811 20.2879 12.0745 20.2988 12.0683C20.5543 12.2237 20.9099 12.4918 21.3352 12.8474C21.7998 13.2369 22.3037 13.6961 22.7736 14.1375C23.3069 14.6403 23.8311 15.1526 24.3461 15.6742L24.4444 15.776L24.4694 15.801L24.4783 15.81L24.5837 15.9172L24.7177 15.9869C25.4378 16.3443 26.2294 16.2156 26.8441 16.0083C27.4838 15.7939 28.1199 15.4294 28.6614 15.0702C29.3397 14.6147 29.9819 14.1075 30.5822 13.5532L30.6144 13.5246L30.6233 13.5156L30.6251 13.5139C30.6251 13.5139 30.4679 12.9599 29.8532 12.3131L29.3689 12.9206L28.9598 14.1017L24.4783 15.81L25.386 14.9952L24.9072 13.714C24.6076 13.419 24.305 13.1271 23.9994 12.8384C23.517 12.3846 22.9845 11.9003 22.4806 11.4804C21.9928 11.0694 21.4853 10.6799 21.0618 10.4476C20.3578 10.0616 19.6681 10.3475 19.2964 10.5888L17.4595 11.7752L17.4345 11.7931C16.4428 12.5364 15.628 12.565 14.9686 12.3667C14.2539 12.1523 13.6195 11.6305 13.146 11.1159C12.9977 10.9551 12.9548 10.6459 13.2121 10.3547C14.2043 9.22574 15.2483 8.14352 16.3409 7.11153C16.9502 6.54509 17.5614 6.02154 18.1314 5.6052C18.7139 5.17993 19.2035 4.90297 19.5734 4.77967C20.6884 4.40801 22.5128 4.10245 24.1191 3.88981C24.9976 3.77435 25.8781 3.67486 26.7601 3.59141L26.9263 3.57533L26.9674 3.57175Z" fill="#176B87" fill-opacity="0.83"/>
<path d="M25.6131 14.4181C25.3797 14.1816 25.1444 13.9469 24.9073 13.7141L25.3861 14.9953L24.4784 15.8119L28.9599 14.1019L29.3691 12.9225L29.8533 12.315L29.3976 12.2185L29.3923 12.2221L29.3673 12.2453L29.2708 12.3347C28.7673 12.7875 28.2329 13.2049 27.6715 13.5837C27.1891 13.9053 26.7013 14.1733 26.2724 14.3163C25.9401 14.4289 25.7328 14.4378 25.6131 14.4181Z" fill="#176B87" fill-opacity="0.83"/>
<path fill-rule="evenodd" clip-rule="evenodd" d="M9.38819 5.28899L9.03617 4.46704L8.68416 3.64508L8.75564 3.61649L8.95755 3.53072C9.94821 3.11005 10.9429 2.69905 11.9416 2.29779C12.7527 1.97036 13.57 1.65879 14.3932 1.36326C14.7559 1.2346 15.0936 1.12382 15.376 1.04341C15.619 0.971932 15.9299 0.893311 16.1836 0.893311C16.4159 0.893311 16.6607 0.946916 16.8626 1.00052C17.0806 1.05949 17.3201 1.13811 17.5631 1.22745C18.0527 1.40614 18.6048 1.63843 19.1159 1.86358C19.7119 2.12997 20.3029 2.40758 20.8884 2.69626L21.0064 2.75344L21.0385 2.76952L21.0493 2.77488C21.2613 2.8808 21.4226 3.06662 21.4977 3.29147C21.5728 3.51633 21.5554 3.76179 21.4495 3.97386C21.3436 4.18594 21.1578 4.34725 20.9329 4.42231C20.7081 4.49737 20.4626 4.48004 20.2505 4.37412L20.2416 4.36876L20.213 4.35447L20.1022 4.30086C19.536 4.02235 18.9647 3.75427 18.3886 3.49677C17.917 3.28445 17.4384 3.08779 16.9538 2.90711C16.7723 2.83975 16.5881 2.78013 16.4016 2.72842C16.3318 2.70829 16.2608 2.69277 16.189 2.68196L16.1729 2.68553C16.1372 2.6909 16.0425 2.71055 15.8656 2.76058C15.5698 2.84794 15.2766 2.94388 14.9864 3.04827C14.2931 3.29307 13.4408 3.62364 12.6063 3.95778C11.6188 4.35329 10.6354 4.75893 9.65622 5.17464L9.45787 5.25862L9.38819 5.28899ZM8.21422 4.81905C8.12122 4.60128 8.11848 4.35549 8.20659 4.1357C8.29471 3.9159 8.46648 3.74008 8.68416 3.64687L9.03617 4.46882L9.38819 5.28899C9.28026 5.33532 9.16426 5.35991 9.04682 5.36136C8.92937 5.36281 8.8128 5.34109 8.70376 5.29744C8.59472 5.25379 8.49536 5.18907 8.41136 5.10699C8.32736 5.0249 8.26037 4.92705 8.21422 4.81905ZM4.81382 11.895C4.8944 11.8097 4.99101 11.7411 5.09813 11.6931C5.20524 11.6451 5.32075 11.6187 5.43807 11.6154C5.55539 11.6121 5.67221 11.6319 5.78186 11.6738C5.89151 11.7156 5.99185 11.7787 6.07713 11.8593L5.46245 12.5079L4.84955 13.1583C4.76423 13.0778 4.69562 12.9811 4.64765 12.874C4.59967 12.7669 4.57327 12.6514 4.56995 12.5341C4.56663 12.4168 4.58646 12.3 4.62831 12.1903C4.67015 12.0806 4.73319 11.9803 4.81382 11.895ZM12.9798 17.9471L17.9169 19.7983C18.3987 19.9789 18.9223 20.0169 19.4251 19.9079C19.928 19.7989 20.3888 19.5475 20.7526 19.1836L24.4872 15.4491C24.6549 15.2816 24.8824 15.1876 25.1195 15.1877C25.3566 15.1879 25.5839 15.2822 25.7514 15.45C25.9189 15.6178 26.0129 15.8452 26.0128 16.0823C26.0126 16.3194 25.9183 16.5467 25.7505 16.7142L22.016 20.4487C21.4093 21.0547 20.6411 21.4733 19.8031 21.6546C18.965 21.8358 18.0925 21.772 17.2897 21.4708L12.2507 19.5821L12.2096 19.5625C11.9365 19.4114 11.677 19.2368 11.4341 19.0407C11.1447 18.8173 10.8052 18.5404 10.4389 18.2277C9.61862 17.5265 8.80966 16.8123 8.0123 16.0852C7.03791 15.2002 6.07118 14.3067 5.11222 13.4049L4.91745 13.2227L4.84955 13.1583L5.46245 12.5079L6.07713 11.8593L6.14324 11.9218L6.33444 12.1023C7.28601 12.9965 8.24499 13.8829 9.21129 14.7612C10.0332 15.5063 10.882 16.2621 11.5932 16.8661C11.9505 17.1681 12.2668 17.4254 12.5223 17.6237C12.7582 17.8042 12.9065 17.9043 12.9798 17.9453M6.92768 21.7639C7.07957 21.5827 7.29706 21.4692 7.5325 21.4481C7.76795 21.427 8.00216 21.5001 8.18384 21.6513L9.89744 23.0808C10.2815 23.4014 10.7475 23.6081 11.243 23.6776L13.4515 23.9885C13.5703 24.0016 13.6853 24.0383 13.7897 24.0966C13.894 24.1548 13.9856 24.2335 14.0591 24.3278C14.1325 24.4221 14.1863 24.5302 14.2172 24.6456C14.2481 24.7611 14.2555 24.8816 14.239 25C14.2225 25.1184 14.1824 25.2322 14.1211 25.3348C14.0598 25.4374 13.9785 25.5267 13.8821 25.5973C13.7857 25.668 13.6761 25.7186 13.5598 25.7461C13.4434 25.7736 13.3228 25.7775 13.2049 25.7575L10.9946 25.4484C10.1688 25.3324 9.39203 24.9877 8.75206 24.4531L7.03846 23.0236C6.94825 22.9484 6.87377 22.8561 6.81928 22.752C6.76479 22.6479 6.73136 22.5341 6.72091 22.4171C6.71045 22.3001 6.72317 22.1822 6.75835 22.0701C6.79352 21.958 6.85045 21.8539 6.92589 21.7639" fill="#176B87" fill-opacity="0.83"/>
</svg>
