<svg width="36" height="26" viewBox="0 0 36 26" fill="none" xmlns="http://www.w3.org/2000/svg">
<path fill-rule="evenodd" clip-rule="evenodd" d="M6.88488 0.682323C6.45268 0.48806 5.961 0.473428 5.51801 0.641646C5.07502 0.809863 4.71698 1.14715 4.52265 1.57933L0.657663 10.1616C0.463172 10.5934 0.448023 11.0847 0.615544 11.5276C0.783066 11.9706 1.11956 12.3289 1.55109 12.5239L4.21352 13.7229C4.42741 13.8194 4.65822 13.8729 4.89278 13.8803C5.12735 13.8877 5.36106 13.8488 5.58059 13.7658C5.80011 13.6828 6.00114 13.5574 6.1722 13.3968C6.34326 13.2361 6.481 13.0433 6.57754 12.8294L10.4425 4.24533C10.637 3.81357 10.6522 3.32225 10.4846 2.87933C10.3171 2.4364 9.98063 2.07809 9.5491 1.8831L6.88488 0.682323ZM3.71677 11.2749C3.86249 11.3406 4.01973 11.3769 4.1795 11.3818C4.33927 11.3868 4.49845 11.3602 4.64795 11.3036C4.79745 11.247 4.93434 11.1616 5.05081 11.0521C5.16727 10.9426 5.26103 10.8112 5.32674 10.6655C5.39244 10.5198 5.4288 10.3626 5.43374 10.2028C5.43867 10.043 5.41209 9.88385 5.35551 9.73435C5.29893 9.58486 5.21346 9.44796 5.10397 9.3315C4.99449 9.21503 4.86314 9.12127 4.71742 9.05557C4.42312 8.92287 4.08817 8.91252 3.78624 9.02679C3.48431 9.14106 3.24015 9.37059 3.10745 9.66489C2.97476 9.95918 2.96441 10.2941 3.07868 10.5961C3.19295 10.898 3.42248 11.1422 3.71677 11.2749ZM34.3472 12.7579C34.5666 12.6747 34.7675 12.549 34.9383 12.3881C35.1091 12.2271 35.2466 12.0342 35.3429 11.8201C35.4391 11.606 35.4922 11.3751 35.4992 11.1405C35.5062 10.906 35.4669 10.6723 35.3836 10.4529L32.0511 1.65438C31.968 1.4348 31.8424 1.23375 31.6816 1.06272C31.5207 0.89169 31.3277 0.754035 31.1137 0.65762C30.8996 0.561206 30.6686 0.507924 30.434 0.500819C30.1993 0.493713 29.9655 0.532924 29.746 0.616209L27.0175 1.6508C26.7981 1.73408 26.5972 1.85977 26.4263 2.02069C26.2555 2.1816 26.118 2.3746 26.0218 2.58865C25.9256 2.8027 25.8724 3.03362 25.8654 3.2682C25.8585 3.50279 25.8978 3.73646 25.9811 3.95586L29.3154 12.7562C29.4832 13.1992 29.8202 13.5574 30.2521 13.7521C30.684 13.9468 31.1755 13.962 31.6186 13.7943L34.3472 12.7579ZM29.0992 3.02848C28.9497 3.08514 28.8128 3.1707 28.6964 3.28026C28.58 3.38981 28.4863 3.52123 28.4207 3.66699C28.3551 3.81276 28.3188 3.97002 28.314 4.1298C28.3091 4.28959 28.3358 4.44876 28.3925 4.59823C28.4491 4.74771 28.5347 4.88456 28.6442 5.00097C28.7538 5.11738 28.8852 5.21107 29.031 5.2767C29.1767 5.34232 29.334 5.37859 29.4938 5.38343C29.6536 5.38828 29.8127 5.36161 29.9622 5.30494C30.2641 5.19049 30.5082 4.96081 30.6407 4.66642C30.7732 4.37204 30.7834 4.03706 30.6689 3.73518C30.5545 3.4333 30.3248 3.18925 30.0304 3.05672C29.736 2.92419 29.401 2.91403 29.0992 3.02848Z" fill="#181818"/>
<path fill-rule="evenodd" clip-rule="evenodd" d="M26.9674 3.572H26.9817C27.0987 3.56179 27.2125 3.52864 27.3167 3.47445C27.4209 3.42025 27.5133 3.34607 27.5888 3.25614C27.6643 3.16621 27.7214 3.06229 27.7567 2.95031C27.792 2.83833 27.805 2.72049 27.7948 2.60352C27.7846 2.48654 27.7514 2.37272 27.6972 2.26856C27.643 2.16439 27.5688 2.07192 27.4789 1.99643C27.389 1.92093 27.2851 1.86389 27.1731 1.82855C27.0611 1.79322 26.9433 1.78029 26.8263 1.79049H26.812L26.7655 1.79585L26.5922 1.81372C25.6875 1.8997 24.7843 2.00216 23.8833 2.12106C22.2859 2.33013 20.3042 2.65176 19.0088 3.08418C18.378 3.29325 17.7133 3.69887 17.0789 4.16345C16.3957 4.67136 15.7429 5.21909 15.1241 5.80379C13.989 6.87487 12.9044 7.99824 11.8738 9.17024C11.1251 10.0172 10.9518 11.3681 11.8309 12.3258C12.4027 12.9441 13.2962 13.7267 14.454 14.077C15.6638 14.4397 17.0575 14.2985 18.4816 13.2407L20.2667 12.0882C20.2772 12.0813 20.288 12.0748 20.2989 12.0685C20.5544 12.224 20.91 12.492 21.3353 12.8476C21.7998 13.2371 22.3037 13.6964 22.7737 14.1377C23.307 14.6405 23.8312 15.1528 24.3461 15.6744L24.4444 15.7763L24.4694 15.8013L24.4783 15.8102L24.5838 15.9174L24.7178 15.9871C25.4379 16.3445 26.2295 16.2158 26.8442 16.0086C27.4839 15.7941 28.12 15.4296 28.6614 15.0705C29.3397 14.6149 29.9819 14.1077 30.5823 13.5534L30.6144 13.5248L30.6234 13.5159L30.6252 13.5141C30.6252 13.5141 30.4679 12.9602 29.8532 12.3133L29.369 12.9209L28.9598 14.102L24.4783 15.8102L25.3861 14.9954L24.9072 13.7142C24.6077 13.4192 24.3051 13.1274 23.9995 12.8387C23.517 12.3848 22.9845 11.9006 22.4806 11.4807C21.9928 11.0697 21.4854 10.6801 21.0619 10.4478C20.3578 10.0619 19.6681 10.3478 19.2964 10.589L17.4595 11.7755L17.4345 11.7934C16.4428 12.5367 15.628 12.5653 14.9687 12.3669C14.2539 12.1525 13.6196 11.6308 13.1461 11.1161C12.9977 10.9553 12.9549 10.6462 13.2122 10.3549C14.2043 9.22599 15.2484 8.14377 16.341 7.11177C16.9503 6.54534 17.5614 6.02179 18.1314 5.60545C18.7139 5.18017 19.2035 4.90321 19.5734 4.77992C20.6884 4.40825 22.5128 4.1027 24.1192 3.89006C24.9976 3.77459 25.8781 3.67511 26.7602 3.59165L26.9264 3.57557L26.9674 3.572Z" fill="#181818"/>
<path d="M25.6132 14.4179C25.3798 14.1813 25.1445 13.9466 24.9074 13.7139L25.3862 14.995L24.4785 15.8116L28.96 14.1016L29.3692 12.9223L29.8534 12.3148L29.3978 12.2183L29.3924 12.2218L29.3674 12.2451L29.2709 12.3344C28.7674 12.7873 28.233 13.2046 27.6716 13.5834C27.1892 13.9051 26.7014 14.1731 26.2725 14.316C25.9402 14.4286 25.7329 14.4375 25.6132 14.4179Z" fill="#181818"/>
<path fill-rule="evenodd" clip-rule="evenodd" d="M9.38793 5.28875L9.03592 4.46679L8.6839 3.64484L8.75538 3.61625L8.95729 3.53048C9.94795 3.10981 10.9427 2.69881 11.9414 2.29754C12.7524 1.97012 13.5697 1.65855 14.3929 1.36301C14.7557 1.23436 15.0934 1.12357 15.3757 1.04316C15.6187 0.971688 15.9296 0.893066 16.1834 0.893066C16.4157 0.893066 16.6605 0.946672 16.8624 1.00028C17.0804 1.05924 17.3198 1.13787 17.5628 1.22721C18.0524 1.4059 18.6046 1.63819 19.1156 1.86333C19.7116 2.12973 20.3026 2.40734 20.8882 2.69601L21.0061 2.75319L21.0383 2.76927L21.049 2.77463C21.2611 2.88055 21.4224 3.06638 21.4974 3.29123C21.5725 3.51608 21.5552 3.76155 21.4493 3.97362C21.3433 4.18569 21.1575 4.347 20.9327 4.42207C20.7078 4.49713 20.4623 4.47979 20.2503 4.37388L20.2413 4.36852L20.2127 4.35422L20.102 4.30061C19.5357 4.0221 18.9644 3.75403 18.3884 3.49653C17.9167 3.2842 17.4382 3.08754 16.9535 2.90686C16.7721 2.8395 16.5879 2.77989 16.4014 2.72818C16.3316 2.70805 16.2605 2.69253 16.1887 2.68172L16.1726 2.68529C16.1369 2.69065 16.0422 2.71031 15.8653 2.76034C15.5695 2.8477 15.2764 2.94363 14.9862 3.04802C14.2929 3.29282 13.4405 3.62339 12.6061 3.95754C11.6186 4.35305 10.6351 4.75869 9.65596 5.17439L9.45762 5.25837L9.38793 5.28875ZM8.21396 4.8188C8.12096 4.60103 8.11822 4.35525 8.20633 4.13545C8.29445 3.91566 8.46622 3.73984 8.6839 3.64662L9.03592 4.46858L9.38793 5.28875C9.28 5.33508 9.164 5.35967 9.04656 5.36112C8.92911 5.36257 8.81254 5.34085 8.7035 5.2972C8.59446 5.25355 8.4951 5.18883 8.4111 5.10674C8.3271 5.02465 8.26011 4.92681 8.21396 4.8188ZM4.81356 11.8948C4.89415 11.8095 4.99075 11.7409 5.09787 11.6929C5.20498 11.6449 5.32049 11.6185 5.43781 11.6152C5.55513 11.6119 5.67195 11.6317 5.7816 11.6735C5.89125 11.7154 5.99159 11.7784 6.07687 11.859L5.46219 12.5077L4.84929 13.1581C4.76397 13.0775 4.69536 12.9809 4.64739 12.8738C4.59941 12.7667 4.57301 12.6512 4.56969 12.5338C4.56637 12.4165 4.5862 12.2997 4.62805 12.1901C4.66989 12.0804 4.73293 11.9801 4.81356 11.8948ZM12.9795 17.9469L17.9166 19.7981C18.3984 19.9786 18.922 20.0167 19.4249 19.9077C19.9277 19.7987 20.3886 19.5472 20.7524 19.1834L24.4869 15.4489C24.6547 15.2813 24.8821 15.1873 25.1192 15.1875C25.3563 15.1876 25.5836 15.282 25.7511 15.4498C25.9187 15.6175 26.0127 15.845 26.0125 16.082C26.0123 16.3191 25.918 16.5464 25.7502 16.714L22.0157 20.4485C21.4091 21.0545 20.6409 21.4731 19.8028 21.6543C18.9648 21.8356 18.0922 21.7718 17.2894 21.4706L12.2505 19.5819L12.2094 19.5622C11.9362 19.4112 11.6767 19.2366 11.4339 19.0405C11.1444 18.8171 10.8049 18.5401 10.4386 18.2274C9.61836 17.5263 8.8094 16.812 8.01204 16.085C7.03765 15.1999 6.07092 14.3064 5.11196 13.4047L4.9172 13.2224L4.84929 13.1581L5.46219 12.5077L6.07687 11.859L6.14298 11.9216L6.33418 12.1021C7.28575 12.9963 8.24473 13.8826 9.21103 14.7609C10.033 15.506 10.8817 16.2619 11.5929 16.8658C11.9503 17.1678 12.2666 17.4251 12.5221 17.6235C12.758 17.8039 12.9063 17.904 12.9795 17.9451M6.92742 21.7636C7.07931 21.5825 7.2968 21.469 7.53224 21.4479C7.76769 21.4268 8.0019 21.4998 8.18358 21.6511L9.89718 23.0805C10.2812 23.4012 10.7473 23.6079 11.2427 23.6774L13.4513 23.9883C13.5701 24.0013 13.6851 24.038 13.7894 24.0963C13.8938 24.1546 13.9854 24.2332 14.0588 24.3275C14.1322 24.4218 14.186 24.5299 14.2169 24.6454C14.2478 24.7609 14.2552 24.8813 14.2387 24.9997C14.2222 25.1181 14.1821 25.232 14.1208 25.3346C14.0595 25.4372 13.9783 25.5265 13.8818 25.5971C13.7854 25.6677 13.6758 25.7183 13.5595 25.7458C13.4432 25.7733 13.3225 25.7772 13.2047 25.7573L10.9943 25.4481C10.1686 25.3322 9.39177 24.9874 8.7518 24.4529L7.0382 23.0234C6.948 22.9481 6.87351 22.8558 6.81902 22.7517C6.76453 22.6477 6.7311 22.5339 6.72065 22.4168C6.71019 22.2998 6.72292 22.1819 6.75809 22.0698C6.79326 21.9577 6.85019 21.8537 6.92563 21.7636" fill="#181818"/>
</svg>
