<svg width="35" height="35" viewBox="0 0 35 35" fill="none" xmlns="http://www.w3.org/2000/svg">
<mask id="mask0_2489_4993" style="mask-type:alpha" maskUnits="userSpaceOnUse" x="0" y="0" width="35" height="35">
<rect width="35" height="35" fill="#D9D9D9"/>
</mask>
<g mask="url(#mask0_2489_4993)">
<path d="M20.3434 26.5104L27.5622 19.2917C27.8295 19.0243 28.1698 18.8906 28.583 18.8906C28.9962 18.8906 29.3365 19.0243 29.6038 19.2917C29.8712 19.559 30.0049 19.8993 30.0049 20.3125C30.0049 20.7257 29.8712 21.066 29.6038 21.3333L21.3643 29.5729C21.0726 29.8646 20.7323 30.0104 20.3434 30.0104C19.9545 30.0104 19.6143 29.8646 19.3226 29.5729L15.1663 25.4167C14.899 25.1493 14.7653 24.809 14.7653 24.3958C14.7653 23.9826 14.899 23.6424 15.1663 23.375C15.4337 23.1076 15.774 22.974 16.1872 22.974C16.6004 22.974 16.9406 23.1076 17.208 23.375L20.3434 26.5104ZM9.47884 20.3854H7.29134C6.87815 20.3854 6.53179 20.2457 6.25228 19.9661C5.97276 19.6866 5.83301 19.3403 5.83301 18.9271C5.83301 18.5139 5.97276 18.1675 6.25228 17.888C6.53179 17.6085 6.87815 17.4688 7.29134 17.4688H13.1247V14.5521H7.29134C6.87815 14.5521 6.53179 14.4123 6.25228 14.1328C5.97276 13.8533 5.83301 13.5069 5.83301 13.0938V7.26042C5.83301 6.84722 5.97276 6.50087 6.25228 6.22135C6.53179 5.94184 6.87815 5.80208 7.29134 5.80208H9.47884C9.47884 5.38889 9.6186 5.04253 9.89811 4.76302C10.1776 4.48351 10.524 4.34375 10.9372 4.34375C11.3504 4.34375 11.6967 4.48351 11.9762 4.76302C12.2558 5.04253 12.3955 5.38889 12.3955 5.80208H14.583C14.9962 5.80208 15.3426 5.94184 15.6221 6.22135C15.9016 6.50087 16.0413 6.84722 16.0413 7.26042C16.0413 7.67361 15.9016 8.01997 15.6221 8.29948C15.3426 8.57899 14.9962 8.71875 14.583 8.71875H8.74967V11.6354H14.583C14.9962 11.6354 15.3426 11.7752 15.6221 12.0547C15.9016 12.3342 16.0413 12.6806 16.0413 13.0938V18.9271C16.0413 19.3403 15.9016 19.6866 15.6221 19.9661C15.3426 20.2457 14.9962 20.3854 14.583 20.3854H12.3955C12.3955 20.7986 12.2558 21.145 11.9762 21.4245C11.6967 21.704 11.3504 21.8438 10.9372 21.8438C10.524 21.8438 10.1776 21.704 9.89811 21.4245C9.6186 21.145 9.47884 20.7986 9.47884 20.3854Z" fill="#176B87"/>
</g>
</svg>
