<svg width="30" height="35" viewBox="0 0 30 35" fill="none" xmlns="http://www.w3.org/2000/svg">
<path d="M27.944 34.4531C27.944 34.3081 27.8753 34.169 27.753 34.0664C27.6306 33.9639 27.4648 33.9063 27.2918 33.9063H3.81353C3.64057 33.9063 3.47468 33.9639 3.35238 34.0664C3.23007 34.169 3.16136 34.3081 3.16136 34.4531C3.16136 34.5982 3.23007 34.7373 3.35238 34.8398C3.47468 34.9424 3.64057 35 3.81353 35H27.2918C27.4648 35 27.6306 34.9424 27.753 34.8398C27.8753 34.7373 27.944 34.5982 27.944 34.4531ZM0.910056 10.2309C0.364839 10.535 -0.462118 11.4603 0.321795 12.775C0.972665 13.8655 2.33049 15.1999 3.7744 15.552C4.12146 15.6432 4.48772 15.6713 4.84873 15.6343C5.20975 15.5973 5.5572 15.4962 5.86788 15.3377C7.30136 14.618 8.9944 13.6445 9.7118 13.2267C10.617 13.6106 11.7596 13.6905 12.9205 13.44L12.9361 13.4356C12.8683 15.2414 12.1392 16.3691 8.5744 19.145C5.39701 21.618 3.51223 24.8664 3.53049 27.8359C3.54353 29.7839 4.39006 31.4563 5.98267 32.6692C6.10267 32.7614 6.2595 32.8125 6.42223 32.8125H24.6831C24.8561 32.8125 25.022 32.7549 25.1443 32.6523C25.2666 32.5498 25.3353 32.4107 25.3353 32.2656C25.3353 32.1206 25.2666 31.9815 25.1443 31.8789C25.022 31.7764 24.8561 31.7188 24.6831 31.7188H6.6818C5.4831 30.7289 4.84658 29.3891 4.83614 27.8305C4.81919 25.2033 6.5931 22.1813 9.46267 19.9467C13.2648 16.987 14.2483 15.5849 14.2483 13.125C14.2483 13.0802 14.2301 13.0408 14.2183 12.9992C14.9318 12.6766 15.5488 12.25 15.9701 11.7338C16.4983 11.0884 17.6357 9.43141 16.7918 7.9647C16.7545 7.90006 16.7023 7.84223 16.6383 7.79449C16.5743 7.74676 16.4997 7.71007 16.4188 7.6865C16.3379 7.66294 16.2523 7.65297 16.1668 7.65717C16.0813 7.66136 15.9976 7.67963 15.9205 7.71095C15.8434 7.74226 15.7744 7.78599 15.7175 7.83966C15.6606 7.89332 15.6168 7.95586 15.5887 8.0237C15.5606 8.09155 15.5487 8.16337 15.5537 8.23507C15.5587 8.30677 15.5805 8.37694 15.6179 8.44157C15.9974 9.1011 15.7274 10.1008 14.8953 11.1158C14.4153 11.702 13.557 12.1756 12.5983 12.3813C11.624 12.5902 10.6979 12.4983 10.0522 12.1275C9.9424 12.0644 9.81216 12.031 9.67902 12.0318C9.54588 12.0326 9.41622 12.0675 9.30745 12.1319C9.28397 12.145 6.98962 13.5002 5.20006 14.4003C5.04318 14.4813 4.86706 14.5324 4.68408 14.5502C4.50111 14.5679 4.31571 14.5519 4.14093 14.5031C3.13136 14.2559 2.02136 13.1775 1.49049 12.2872C1.06136 11.5675 1.50093 11.2241 1.70049 11.1016C6.19658 7.84548 8.4531 4.46251 8.54571 4.31923C8.58862 4.25302 8.61493 4.18015 8.623 4.1051C8.63108 4.03004 8.62075 3.9544 8.59267 3.88282C8.31054 3.15274 8.07542 2.41047 7.88832 1.65923C9.25267 2.34829 11.5992 3.31079 14.0422 3.31079C17.4388 3.31079 25.3353 4.37392 25.3353 14.222C25.3353 14.2756 25.3235 19.6295 22.7657 25.5172C22.7354 25.5849 22.7214 25.657 22.7246 25.7293C22.7277 25.8015 22.7479 25.8726 22.7841 25.9382C22.8202 26.0039 22.8714 26.0629 22.9349 26.1119C22.9984 26.1608 23.0728 26.1987 23.1539 26.2234C23.235 26.248 23.3211 26.259 23.4072 26.2556C23.4934 26.2521 23.5779 26.2344 23.6558 26.2034C23.7337 26.1724 23.8035 26.1288 23.8612 26.075C23.9189 26.0212 23.9633 25.9584 23.9918 25.8902C26.6279 19.822 26.6409 14.443 26.6396 14.2188C26.6396 3.0811 16.9966 2.21595 14.0422 2.21595C10.7696 2.21595 7.50484 0.134539 7.47354 0.112664C7.37621 0.0511581 7.26051 0.0133989 7.13921 0.00355539C7.01791 -0.00628811 6.89572 0.012167 6.78614 0.0568832C6.67702 0.101971 6.58511 0.171752 6.52081 0.258341C6.4565 0.34493 6.42235 0.444875 6.42223 0.546883C6.42223 1.61985 7.02875 3.35563 7.26484 3.98891C6.71962 4.75235 4.57006 7.57751 0.910056 10.2309Z" fill="#176B87"/>
<path d="M22.0544 1.68437C19.9661 0.504219 17.6314 0 14.2479 0C14.0749 0 13.909 0.057617 13.7867 0.160176C13.6644 0.262735 13.5957 0.401835 13.5957 0.546875C13.5957 0.691915 13.6644 0.831015 13.7867 0.933574C13.909 1.03613 14.0749 1.09375 14.2479 1.09375C17.3522 1.09375 19.4692 1.54109 21.3266 2.59109C24.3448 4.29953 27.9435 7.70328 27.9435 14.2188C27.9435 15.8058 27.9435 17.9791 26.6587 22.2895C26.6213 22.4289 26.6505 22.575 26.7399 22.6966C26.8293 22.8182 26.9719 22.9056 27.1371 22.9402C27.3024 22.9748 27.4773 22.9538 27.6243 22.8816C27.7714 22.8095 27.8789 22.692 27.924 22.5542C29.2479 18.1147 29.2479 15.8627 29.2479 14.2188C29.2479 7.22312 25.3361 3.54047 22.0544 1.68437Z" fill="#176B87"/>
</svg>
