<svg width="31" height="35" viewBox="0 0 31 35" fill="none" xmlns="http://www.w3.org/2000/svg">
<g clip-path="url(#clip0_909_453)">
<path d="M28.944 34.4531C28.944 34.3081 28.8753 34.169 28.753 34.0664C28.6306 33.9639 28.4648 33.9063 28.2918 33.9063H4.81353C4.64057 33.9063 4.47468 33.9639 4.35238 34.0664C4.23007 34.169 4.16136 34.3081 4.16136 34.4531C4.16136 34.5982 4.23007 34.7373 4.35238 34.8398C4.47468 34.9424 4.64057 35 4.81353 35H28.2918C28.4648 35 28.6306 34.9424 28.753 34.8398C28.8753 34.7373 28.944 34.5982 28.944 34.4531ZM1.91006 10.2309C1.36484 10.535 0.537882 11.4603 1.3218 12.775C1.97266 13.8655 3.33049 15.1999 4.7744 15.552C5.12146 15.6432 5.48772 15.6713 5.84873 15.6343C6.20975 15.5973 6.5572 15.4962 6.86788 15.3377C8.30136 14.618 9.9944 13.6445 10.7118 13.2267C11.617 13.6106 12.7596 13.6905 13.9205 13.44L13.9361 13.4356C13.8683 15.2414 13.1392 16.3691 9.5744 19.145C6.39701 21.618 4.51223 24.8664 4.53049 27.8359C4.54353 29.7839 5.39006 31.4563 6.98267 32.6692C7.10267 32.7614 7.2595 32.8125 7.42223 32.8125H25.6831C25.8561 32.8125 26.022 32.7549 26.1443 32.6523C26.2666 32.5498 26.3353 32.4107 26.3353 32.2656C26.3353 32.1206 26.2666 31.9815 26.1443 31.8789C26.022 31.7764 25.8561 31.7188 25.6831 31.7188H7.6818C6.4831 30.7289 5.84658 29.3891 5.83614 27.8305C5.81919 25.2033 7.5931 22.1813 10.4627 19.9467C14.2648 16.987 15.2483 15.5849 15.2483 13.125C15.2483 13.0802 15.2301 13.0408 15.2183 12.9992C15.9318 12.6766 16.5488 12.25 16.9701 11.7338C17.4983 11.0884 18.6357 9.43141 17.7918 7.9647C17.7545 7.90006 17.7023 7.84223 17.6383 7.79449C17.5743 7.74676 17.4997 7.71007 17.4188 7.6865C17.3379 7.66294 17.2523 7.65297 17.1668 7.65717C17.0813 7.66136 16.9976 7.67963 16.9205 7.71095C16.8434 7.74226 16.7744 7.78599 16.7175 7.83966C16.6606 7.89332 16.6168 7.95586 16.5887 8.0237C16.5606 8.09155 16.5487 8.16337 16.5537 8.23507C16.5587 8.30677 16.5805 8.37694 16.6179 8.44157C16.9974 9.1011 16.7274 10.1008 15.8953 11.1158C15.4153 11.702 14.557 12.1756 13.5983 12.3813C12.624 12.5902 11.6979 12.4983 11.0522 12.1275C10.9424 12.0644 10.8122 12.031 10.679 12.0318C10.5459 12.0326 10.4162 12.0675 10.3074 12.1319C10.284 12.145 7.98962 13.5002 6.20006 14.4003C6.04318 14.4813 5.86706 14.5324 5.68408 14.5502C5.50111 14.5679 5.31571 14.5519 5.14093 14.5031C4.13136 14.2559 3.02136 13.1775 2.49049 12.2872C2.06136 11.5675 2.50093 11.2241 2.70049 11.1016C7.19658 7.84548 9.4531 4.46251 9.54571 4.31923C9.58862 4.25302 9.61493 4.18015 9.623 4.1051C9.63108 4.03004 9.62075 3.9544 9.59267 3.88282C9.31054 3.15274 9.07542 2.41047 8.88832 1.65923C10.2527 2.34829 12.5992 3.31079 15.0422 3.31079C18.4388 3.31079 26.3353 4.37392 26.3353 14.222C26.3353 14.2756 26.3235 19.6295 23.7657 25.5172C23.7354 25.5849 23.7214 25.657 23.7246 25.7293C23.7277 25.8015 23.7479 25.8726 23.7841 25.9382C23.8202 26.0039 23.8714 26.0629 23.9349 26.1119C23.9984 26.1608 24.0728 26.1987 24.1539 26.2234C24.235 26.248 24.3211 26.259 24.4072 26.2556C24.4934 26.2521 24.5779 26.2344 24.6558 26.2034C24.7337 26.1724 24.8035 26.1288 24.8612 26.075C24.9189 26.0212 24.9633 25.9584 24.9918 25.8902C27.6279 19.822 27.6409 14.443 27.6396 14.2188C27.6396 3.0811 17.9966 2.21595 15.0422 2.21595C11.7696 2.21595 8.50484 0.134539 8.47354 0.112664C8.37621 0.0511581 8.26051 0.0133989 8.13921 0.00355539C8.01791 -0.00628811 7.89572 0.012167 7.78614 0.0568832C7.67702 0.101971 7.58511 0.171752 7.52081 0.258341C7.4565 0.34493 7.42235 0.444875 7.42223 0.546883C7.42223 1.61985 8.02875 3.35563 8.26484 3.98891C7.71962 4.75235 5.57006 7.57751 1.91006 10.2309Z" fill="#181818"/>
<path d="M23.0544 1.68437C20.9661 0.504219 18.6314 0 15.2479 0C15.0749 0 14.909 0.057617 14.7867 0.160176C14.6644 0.262735 14.5957 0.401835 14.5957 0.546875C14.5957 0.691915 14.6644 0.831015 14.7867 0.933574C14.909 1.03613 15.0749 1.09375 15.2479 1.09375C18.3522 1.09375 20.4692 1.54109 22.3266 2.59109C25.3448 4.29953 28.9435 7.70328 28.9435 14.2188C28.9435 15.8058 28.9435 17.9791 27.6587 22.2895C27.6213 22.4289 27.6505 22.575 27.7399 22.6966C27.8293 22.8182 27.9719 22.9056 28.1371 22.9402C28.3024 22.9748 28.4773 22.9538 28.6243 22.8816C28.7714 22.8095 28.8789 22.692 28.924 22.5542C30.2479 18.1147 30.2479 15.8627 30.2479 14.2188C30.2479 7.22312 26.3361 3.54047 23.0544 1.68437Z" fill="#181818"/>
</g>
<defs>
<clipPath id="clip0_909_453">
<rect width="30" height="35" fill="white" transform="translate(0.5)"/>
</clipPath>
</defs>
</svg>
