<svg width="31" height="31" viewBox="0 0 31 31" fill="none" xmlns="http://www.w3.org/2000/svg">
<path d="M2.85727 5.14189e-05C2.82761 -0.000264115 2.79808 0.000934957 2.76848 0.00194467C2.72904 0.00339612 2.68947 0.00610968 2.65015 0.00989609C2.17887 0.055333 1.72362 0.271663 1.24224 0.711959C0.61212 1.288 0.430499 1.82643 0.522382 2.46115C0.614203 3.09575 1.04951 3.8644 1.85551 4.66396C2.03821 4.8452 2.24211 5.026 2.4609 5.20825C2.54104 5.27483 2.62277 5.34267 2.70745 5.40931C2.77917 5.46596 2.85149 5.52184 2.92442 5.57692C2.93906 5.58797 2.95307 5.59952 2.96783 5.6105C3.98669 6.37018 5.30234 7.12115 6.86058 7.81154C16.9402 17.9913 25.0868 26.5891 30.5 30.0329C27.2746 24.6295 18.6718 16.489 8.41262 6.3344C7.76704 4.83233 7.08012 3.576 6.38727 2.5933C8.62504 1.95024 11.5947 2.44853 14.323 5.17689C16.8626 7.71643 17.645 10.9055 16.934 13.2762C17.2426 13.5863 17.5577 13.9018 17.8609 14.207C19.0644 11.2978 18.1495 7.33502 15.1572 4.34262C12.9046 2.09015 10.3939 1.16683 8.15029 1.1734C8.07791 1.17371 8.00514 1.17529 7.93333 1.17743C6.55482 1.21845 5.28556 1.61275 4.25143 2.26205C4.07062 2.3756 3.89556 2.49805 3.72688 2.62895C3.81081 2.82421 3.90093 3.00027 4.00493 3.14757C4.1261 3.31922 4.25761 3.45906 4.44075 3.56962C4.57971 3.46127 4.7246 3.35664 4.87858 3.26002C4.94605 3.21712 5.01443 3.17567 5.08368 3.1357C5.6009 3.77232 6.05962 4.68964 6.69101 6.1175C5.18231 5.45058 4.24108 4.97905 3.59669 4.41361C3.59821 4.41172 3.59922 4.40964 3.60073 4.40774C3.57341 4.38692 3.54602 4.36641 3.51995 4.34464C3.51913 4.34413 3.51857 4.34338 3.51787 4.34274C2.81013 3.68801 2.47459 2.89545 2.10996 1.53449C2.48784 1.63578 2.82029 1.7358 3.11967 1.84018C3.64374 1.44305 4.21137 1.10694 4.81156 0.838362C4.21205 0.350042 3.6408 0.0854981 3.12749 0.019867C3.03643 0.00819226 2.94638 0.000871807 2.85727 5.14189e-05ZM30.4013 2.89892C25.4799 2.89892 22.4759 4.72183 21.1799 7.27891C19.8839 9.836 20.2968 12.9831 21.7913 15.5716C22.5097 16.8161 22.915 18.1392 23.0021 19.435C23.3919 19.8374 23.7804 20.241 24.1677 20.6458C24.3135 18.7554 23.8476 16.7742 22.8128 14.982C21.4793 12.6721 21.1622 9.92637 22.2331 7.81343C23.304 5.70055 25.7633 4.07826 30.4014 4.07826L30.4013 2.89892ZM1.66417 6.08986C1.48154 7.59969 2.05417 9.25845 3.52784 10.7321L4.36199 9.89987C3.35417 8.89205 2.89867 7.89099 2.81985 6.95953C2.40044 6.67492 2.01505 6.3852 1.66417 6.08986ZM7.10114 16.3171C5.55717 16.3153 4.25881 16.6276 3.22998 17.1789C1.66228 18.0188 0.745906 19.4422 0.658377 20.9949C0.48294 24.1002 3.45906 27.4728 9.51889 28.4592C15.9324 29.5032 20.2662 27.8796 22.4814 25.0475C22.5451 24.9661 22.6069 24.8841 22.6669 24.801C22.3797 24.5339 22.0896 24.2633 21.7971 23.9885C21.7193 24.1015 21.6381 24.2125 21.5526 24.3217C19.6613 26.7397 15.8506 28.2956 9.70827 27.2957C4.00379 26.3671 1.70658 23.3498 1.8357 21.0618C1.90026 19.9179 2.52874 18.8928 3.7881 18.2181C5.04739 17.5434 6.96028 17.2485 9.49926 17.7467C11.6497 18.1689 13.4711 17.9657 14.8909 17.309C14.593 17.0155 14.292 16.7202 13.9897 16.4214C12.8825 16.8286 11.4724 16.9319 9.726 16.5891C8.78603 16.4046 7.90992 16.318 7.10114 16.3171Z" fill="#181818"/>
</svg>
