<svg width="56" height="56" viewBox="0 0 56 56" fill="none" xmlns="http://www.w3.org/2000/svg">
<g filter="url(#filter0_d_2489_4994)">
<g filter="url(#filter1_d_2489_4994)">
<rect x="4" y="2" width="48" height="48" rx="4" fill="white"/>
</g>
</g>
<mask id="mask0_2489_4994" style="mask-type:alpha" maskUnits="userSpaceOnUse" x="11" y="9" width="35" height="35">
<rect x="11" y="9" width="35" height="35" fill="#D9D9D9"/>
</mask>
<g mask="url(#mask0_2489_4994)">
<path d="M12.4583 35.25C12.0451 35.25 11.6988 35.1102 11.4193 34.8307C11.1398 34.5512 11 34.2049 11 33.7917V32.9531C11 31.908 11.5347 31.0573 12.6042 30.401C13.6736 29.7448 15.0833 29.4167 16.8333 29.4167C17.1493 29.4167 17.4531 29.4227 17.7448 29.4349C18.0365 29.447 18.316 29.4774 18.5833 29.526C18.2431 30.0365 17.9878 30.5712 17.8177 31.1302C17.6476 31.6892 17.5625 32.2726 17.5625 32.8802V35.25H12.4583ZM21.2083 35.25C20.7951 35.25 20.4488 35.1102 20.1693 34.8307C19.8898 34.5512 19.75 34.2049 19.75 33.7917V32.8802C19.75 32.1024 19.9627 31.3915 20.388 30.7474C20.8134 30.1033 21.4149 29.5382 22.1927 29.0521C22.9705 28.566 23.9002 28.2014 24.9818 27.9583C26.0634 27.7153 27.2361 27.5938 28.5 27.5938C29.7882 27.5938 30.9731 27.7153 32.0547 27.9583C33.1363 28.2014 34.066 28.566 34.8438 29.0521C35.6215 29.5382 36.217 30.1033 36.6302 30.7474C37.0434 31.3915 37.25 32.1024 37.25 32.8802V33.7917C37.25 34.2049 37.1102 34.5512 36.8307 34.8307C36.5512 35.1102 36.2049 35.25 35.7917 35.25H21.2083ZM39.4375 35.25V32.8802C39.4375 32.2483 39.3585 31.6528 39.2005 31.0938C39.0425 30.5347 38.8056 30.0122 38.4896 29.526C38.7569 29.4774 39.0304 29.447 39.3099 29.4349C39.5894 29.4227 39.875 29.4167 40.1667 29.4167C41.9167 29.4167 43.3264 29.7387 44.3958 30.3828C45.4653 31.0269 46 31.8837 46 32.9531V33.7917C46 34.2049 45.8602 34.5512 45.5807 34.8307C45.3012 35.1102 44.9549 35.25 44.5417 35.25H39.4375ZM22.849 32.3333H34.1875C33.9444 31.8472 33.27 31.4219 32.1641 31.0573C31.0582 30.6927 29.8368 30.5104 28.5 30.5104C27.1632 30.5104 25.9418 30.6927 24.8359 31.0573C23.73 31.4219 23.0677 31.8472 22.849 32.3333ZM16.8333 27.9583C16.0312 27.9583 15.3446 27.6727 14.7734 27.1016C14.2023 26.5304 13.9167 25.8438 13.9167 25.0417C13.9167 24.2153 14.2023 23.5226 14.7734 22.9635C15.3446 22.4045 16.0312 22.125 16.8333 22.125C17.6597 22.125 18.3524 22.4045 18.9115 22.9635C19.4705 23.5226 19.75 24.2153 19.75 25.0417C19.75 25.8438 19.4705 26.5304 18.9115 27.1016C18.3524 27.6727 17.6597 27.9583 16.8333 27.9583ZM40.1667 27.9583C39.3646 27.9583 38.678 27.6727 38.1068 27.1016C37.5356 26.5304 37.25 25.8438 37.25 25.0417C37.25 24.2153 37.5356 23.5226 38.1068 22.9635C38.678 22.4045 39.3646 22.125 40.1667 22.125C40.9931 22.125 41.6858 22.4045 42.2448 22.9635C42.8038 23.5226 43.0833 24.2153 43.0833 25.0417C43.0833 25.8438 42.8038 26.5304 42.2448 27.1016C41.6858 27.6727 40.9931 27.9583 40.1667 27.9583ZM28.5 26.5C27.2847 26.5 26.2517 26.0747 25.401 25.224C24.5503 24.3733 24.125 23.3403 24.125 22.125C24.125 20.8854 24.5503 19.8464 25.401 19.0078C26.2517 18.1693 27.2847 17.75 28.5 17.75C29.7396 17.75 30.7786 18.1693 31.6172 19.0078C32.4557 19.8464 32.875 20.8854 32.875 22.125C32.875 23.3403 32.4557 24.3733 31.6172 25.224C30.7786 26.0747 29.7396 26.5 28.5 26.5ZM28.5 23.5833C28.9132 23.5833 29.2596 23.4436 29.5391 23.1641C29.8186 22.8845 29.9583 22.5382 29.9583 22.125C29.9583 21.7118 29.8186 21.3655 29.5391 21.0859C29.2596 20.8064 28.9132 20.6667 28.5 20.6667C28.0868 20.6667 27.7405 20.8064 27.4609 21.0859C27.1814 21.3655 27.0417 21.7118 27.0417 22.125C27.0417 22.5382 27.1814 22.8845 27.4609 23.1641C27.7405 23.4436 28.0868 23.5833 28.5 23.5833Z" fill="#176B87"/>
</g>
<defs>
<filter id="filter0_d_2489_4994" x="0" y="0" width="56" height="56" filterUnits="userSpaceOnUse" color-interpolation-filters="sRGB">
<feFlood flood-opacity="0" result="BackgroundImageFix"/>
<feColorMatrix in="SourceAlpha" type="matrix" values="0 0 0 0 0 0 0 0 0 0 0 0 0 0 0 0 0 0 127 0" result="hardAlpha"/>
<feOffset dy="2"/>
<feGaussianBlur stdDeviation="2"/>
<feComposite in2="hardAlpha" operator="out"/>
<feColorMatrix type="matrix" values="0 0 0 0 0 0 0 0 0 0 0 0 0 0 0 0 0 0 0.1 0"/>
<feBlend mode="normal" in2="BackgroundImageFix" result="effect1_dropShadow_2489_4994"/>
<feBlend mode="normal" in="SourceGraphic" in2="effect1_dropShadow_2489_4994" result="shape"/>
</filter>
<filter id="filter1_d_2489_4994" x="0" y="0" width="56" height="56" filterUnits="userSpaceOnUse" color-interpolation-filters="sRGB">
<feFlood flood-opacity="0" result="BackgroundImageFix"/>
<feColorMatrix in="SourceAlpha" type="matrix" values="0 0 0 0 0 0 0 0 0 0 0 0 0 0 0 0 0 0 127 0" result="hardAlpha"/>
<feOffset dy="2"/>
<feGaussianBlur stdDeviation="2"/>
<feComposite in2="hardAlpha" operator="out"/>
<feColorMatrix type="matrix" values="0 0 0 0 0.0901961 0 0 0 0 0.419608 0 0 0 0 0.529412 0 0 0 0.1 0"/>
<feBlend mode="normal" in2="BackgroundImageFix" result="effect1_dropShadow_2489_4994"/>
<feBlend mode="normal" in="SourceGraphic" in2="effect1_dropShadow_2489_4994" result="shape"/>
</filter>
</defs>
</svg>
