<svg width="166" height="48" viewBox="0 0 166 48" fill="none" xmlns="http://www.w3.org/2000/svg">
<path d="M48.5 24.1127C48.5 10.7951 37.7461 0 24.4941 0C11.242 0 0.5 10.7951 0.5 24.1127C0.5 35.9837 9.04126 45.8584 20.271 47.8668C12.2056 45.954 6.19814 38.6736 6.19814 29.9825C6.19814 29.9586 6.19814 29.9466 6.19814 29.9227C6.19814 29.8988 6.19814 29.8868 6.19814 29.8629C6.19814 19.7253 14.3825 11.5005 24.4703 11.5005C34.558 11.5005 42.7424 19.7253 42.7424 29.8629C42.7424 29.8868 42.7424 29.8988 42.7424 29.9227C42.7424 29.9466 42.7424 29.9586 42.7424 29.9825C42.7424 38.7094 36.6755 46.0138 28.5506 47.8787C39.8755 45.954 48.5 36.0435 48.5 24.1127Z" fill="url(#paint0_linear_203_223)"/>
<path d="M36.1745 36.3203C36.1745 29.7691 30.8927 24.4612 24.3737 24.4612C17.8548 24.4612 12.573 29.7691 12.573 36.3203C12.573 42.1661 16.7723 47.0198 22.3157 48C20.0317 47.1274 18.402 44.9038 18.402 42.2976C18.402 38.9264 21.1143 36.2007 24.4689 36.2007C27.8236 36.2007 30.5358 38.9264 30.5358 42.2976C30.5358 44.832 29.0012 47.0078 26.8124 47.9283C32.1656 46.8046 36.1745 42.0346 36.1745 36.3203Z" fill="url(#paint1_linear_203_223)"/>
<path d="M71.3466 37L70.0404 32.8948H60.3372L59.031 37H52.5L61.3822 10.876H68.9954L77.8776 37H71.3466ZM62.1286 27.2968H68.249L65.1888 17.7056L62.1286 27.2968ZM100.818 17.8175C105.11 17.8175 107.909 20.8778 107.909 25.5428V37H102.311V26.0279C102.311 24.1619 101.415 22.9677 99.6235 22.9677C97.7575 22.9677 96.7125 24.2739 96.7125 26.4758V37H91.1145V26.0279C91.1145 24.1619 90.2189 22.9677 88.4275 22.9677C86.5615 22.9677 85.5165 24.2739 85.5165 26.4758V37H79.9185V18.34H85.5165V20.0567C86.3749 18.7878 88.017 17.8175 90.5174 17.8175C92.7193 17.8175 94.3614 18.7132 95.4063 20.2806C96.4513 18.7878 98.168 17.8175 100.818 17.8175ZM122.894 17.8175C127.783 17.8175 131.813 22.1093 131.813 27.67C131.813 33.2307 127.783 37.5225 122.894 37.5225C120.394 37.5225 118.565 36.6641 117.333 35.246V44.464H111.735V18.34H117.333V20.094C118.565 18.6759 120.394 17.8175 122.894 17.8175ZM121.774 32.223C124.349 32.223 126.215 30.469 126.215 27.67C126.215 24.871 124.349 23.117 121.774 23.117C119.199 23.117 117.333 24.871 117.333 27.67C117.333 30.469 119.199 32.223 121.774 32.223ZM134.987 37V9.7564H140.585V37H134.987ZM147.481 16.6979C145.652 16.6979 144.122 15.1678 144.122 13.3391C144.122 11.5104 145.652 9.98032 147.481 9.98032C149.31 9.98032 150.84 11.5104 150.84 13.3391C150.84 15.1678 149.31 16.6979 147.481 16.6979ZM144.682 37V18.34H150.28V37H144.682ZM164.639 15.7276C162.549 15.541 161.169 16.1754 161.169 18.34H164.639V23.7141H161.169V37H155.571V23.7141H153.07V18.34H155.571C155.571 13.1152 158.444 9.98032 164.639 10.3535V15.7276Z" fill="#EAB400"/>
<defs>
<linearGradient id="paint0_linear_203_223" x1="0.5" y1="23.9443" x2="48.4962" y2="23.9443" gradientUnits="userSpaceOnUse">
<stop stop-color="#FFBE15"/>
<stop offset="0.7676" stop-color="#F8EC20"/>
</linearGradient>
<linearGradient id="paint1_linear_203_223" x1="12.5756" y1="36.2312" x2="36.18" y2="36.2312" gradientUnits="userSpaceOnUse">
<stop stop-color="#FFBE15"/>
<stop offset="0.7676" stop-color="#F8EC20"/>
</linearGradient>
</defs>
</svg>
